<svg width="298" height="432" viewBox="0 0 298 432" fill="none" xmlns="http://www.w3.org/2000/svg">
<mask id="mask0_1366_845" style="mask-type:luminance" maskUnits="userSpaceOnUse" x="175" y="0" width="124" height="264">
<path d="M175.709 0H298.001V264H175.709V0Z" fill="white"/>
</mask>
<g mask="url(#mask0_1366_845)">
<path d="M245.168 59.432C245.272 59.9111 245.428 60.3434 245.59 60.7705C246.215 62.7861 247.032 64.9007 247.475 67.0205C247.428 66.8747 247.371 66.6299 247.314 66.4893C247.053 65.4788 246.793 64.5674 246.475 63.6091C246.011 62.2132 245.496 60.8747 244.975 59.5309H244.98C245.074 59.5309 245.126 59.4788 245.168 59.432ZM192.673 0.0830078C192.381 0.0830078 192.074 0.379883 192.235 0.942383C192.261 1.91113 192.517 2.72884 192.881 3.54134C192.689 3.74447 192.605 4.03093 192.704 4.41634C192.761 4.55697 192.808 4.60384 192.855 4.74968C192.678 7.51009 195.136 10.9893 196.011 13.3382C197.709 17.7966 199.126 22.3643 201.017 26.7236C204.34 34.3382 208.241 41.7497 212.324 49.057C214.631 53.208 217.47 56.9632 220.569 60.5205C226.72 67.583 233.902 73.8591 240.017 80.8747C242.626 83.8747 245.043 87.0049 247.1 90.3903C248.079 92.6455 249.053 94.9945 250.209 97.0466C250.261 97.2861 250.366 97.5778 250.423 97.8174C251.579 101.562 252.673 105.166 253.73 108.916C254.204 110.599 254.918 112.13 255.491 113.812C256.058 115.396 255.944 116.896 256.371 118.437C257.011 121.031 257.548 123.244 257.709 126.047C258.168 133 257.897 140.026 257.428 147.047C256.933 154.802 255.496 161.364 252.72 168.635C251.48 171.807 250.105 175.036 248.538 178.166C248.808 175.208 248.834 172.109 248.663 169.119C248.709 169.067 248.657 169.015 248.704 168.968C248.881 163.932 249.782 158.932 249.996 153.942C250.22 149.052 249.97 144.364 249.709 139.484C249.282 131.703 246.084 123.073 242.345 116.291C238.282 108.989 233.996 102.125 228.59 95.9164C227.418 94.5674 226.189 93.2497 224.897 91.9684C223.136 90.1924 221.491 88.3486 219.866 86.4789C219.079 85.5778 218.298 84.6768 217.511 83.7705C216.626 82.7549 215.73 81.7393 214.808 80.7341C214.761 80.6768 214.715 80.6195 214.668 80.5674C214.34 80.1924 213.991 79.8434 213.663 79.4684C213.631 79.432 213.6 79.3955 213.569 79.3591C211.413 75.9684 209.491 72.4372 207.663 68.8018C205.636 64.6872 203.079 60.8278 201.183 56.5674C201.152 56.5101 201.116 56.458 201.074 56.4111C200.892 56.1976 200.61 56.0986 200.329 56.0986C199.86 56.0986 199.376 56.3747 199.308 56.8538C198.814 60.5413 199.97 64.5726 200.782 68.0882C200.782 68.0882 200.782 68.1768 200.824 68.2288L200.829 68.2341C200.97 69.9736 201.303 71.8018 201.631 73.4372C202.564 78.1143 203.105 82.7914 204.715 87.3539C206.324 91.9059 208.501 96.1664 210.918 100.364C212.126 102.468 213.241 104.474 214.402 106.432C216.381 110.593 218.558 114.656 220.98 118.859C223.501 123.349 225.548 128.036 228.407 132.38C231.319 136.859 233.928 141.057 236.22 145.896C237.949 149.526 239.584 153.161 240.876 156.958C242.074 160.562 243.866 164.63 244.105 168.547C244.121 169.218 244.136 169.896 244.1 170.526C244.074 170.885 244.209 171.182 244.402 171.401C244.491 171.51 244.6 171.599 244.709 171.672C244.777 176.562 244.553 181.448 244.038 186.349C243.944 186.541 243.803 186.791 243.715 186.979C242.183 189.776 240.267 192.677 238.439 195.281C236.897 197.494 234.965 199.422 233.558 201.682C231.933 204.38 230.053 206.838 228.282 209.494C228.1 209.791 227.907 209.989 227.72 210.281C227.939 209.359 228.11 208.385 228.288 207.51C228.814 205.177 228.996 202.802 229.178 200.427C229.423 200.369 229.61 200.177 229.699 199.885C231.428 195.005 232.209 189.229 232.668 184.088C233.126 178.76 233.006 173.922 231.772 168.583C230.319 162.468 227.715 156.583 225.642 150.729C224.553 147.609 222.939 144.744 221.761 141.724C220.418 138.172 217.668 134.411 217.433 130.593C217.428 130.302 217.329 130.073 217.183 129.901C216.97 129.656 216.647 129.536 216.329 129.536C215.761 129.536 215.194 129.911 215.209 130.651C215.454 136.932 215.267 143.468 216.048 149.687C216.709 155.338 217.756 160.875 218.709 166.51C219.663 171.859 221.47 176.994 223.001 182.234C223.47 183.823 223.845 185.406 224.366 186.942C225.355 189.869 226.053 192.807 226.897 195.786C226.772 202.755 225.876 210.036 223.459 216.234C222.897 216.927 222.381 217.661 221.772 218.401C217.918 223.323 213.475 227.781 209.131 232.234C209.22 232.041 209.215 231.843 209.314 231.651C209.402 231.453 209.449 231.307 209.491 231.161C210.345 228.39 211.298 225.51 211.902 222.588C212.121 221.672 212.293 220.692 212.511 219.776C213.543 218.005 213.808 214.953 213.829 211.958C214.204 209.286 214.334 206.573 214.173 203.771C213.439 191.062 210.808 177.963 204.595 166.739C204.564 166.682 204.527 166.63 204.48 166.583C204.22 166.281 203.788 166.093 203.366 166.093C203.027 166.093 202.694 166.213 202.459 166.5C201.288 168.026 201.72 170.047 201.376 171.89C200.86 174.515 200.392 177.187 199.923 179.854C198.803 185.786 197.803 192.583 198.72 198.656C199.584 204.588 202.194 210.666 204.496 216.083C205.314 218.005 206.043 220.114 206.527 222.281C205.939 225.968 205.444 229.755 205.965 233.177C205.959 233.276 206.011 233.328 206.064 233.463C205.605 234.536 205.053 235.713 204.985 236.781C201.59 240.536 198.298 244.479 194.454 247.713C192.038 249.75 189.267 251.458 186.506 253.166C186.543 252.734 186.532 252.343 186.569 251.906C186.923 250.547 187.189 249.281 187.459 248.307C188.647 243.588 190.079 238.619 190.402 233.729C191.277 221.521 184.923 210.437 185.36 198.281C185.376 197.901 185.251 197.588 185.043 197.349C184.746 197.01 184.288 196.828 183.829 196.828C183.314 196.828 182.798 197.067 182.538 197.578C181.293 200.073 180.97 202.885 180.163 205.614C179.22 208.781 178.282 212.041 177.584 215.255C176.444 220.208 176.267 224.958 176.626 230.026C176.98 234.906 176.855 239.604 178.319 244.307C179.47 248.156 181.209 252.083 182.069 256.026C182.027 256.073 181.881 256.13 181.788 256.229C181.735 256.218 181.683 256.218 181.636 256.218C181.126 256.218 180.72 256.588 180.595 257.078C180.475 257.156 180.376 257.234 180.277 257.312C180.189 257.385 180.095 257.458 179.98 257.526L180.709 260.38C180.808 260.302 180.907 260.229 181.001 260.151H181.006C181.215 259.984 181.423 259.823 181.626 259.661C182.053 259.317 182.485 259.062 182.866 258.765C183.095 258.776 183.324 258.781 183.558 258.781C184.928 258.781 186.36 258.599 187.72 258.599C188.038 258.599 188.355 258.609 188.663 258.635C192.053 258.942 195.418 259.786 198.767 260.432C205.084 261.64 210.772 263.015 217.209 263.208C217.569 263.213 217.933 263.218 218.293 263.218C225.621 263.218 232.866 261.692 240.126 260.692C246.538 259.817 252.392 257.942 257.22 253.39C257.793 252.786 257.756 251.849 257.251 251.271C257.131 251.135 256.985 251.015 256.819 250.927C254.423 249.578 251.048 250.047 248.371 249.286C245.303 248.437 242.282 247.63 239.178 247.026C234.293 246.088 229.694 245.489 224.892 245.489C223.725 245.489 222.543 245.521 221.345 245.599C217.72 245.828 214.09 245.765 210.48 246.474C207.548 247.073 205.011 248.338 202.178 249.13C198.423 250.187 194.558 252.26 190.673 253.458C194.386 250.953 198.204 248.838 201.017 245.093C204.064 241.01 207.699 237.203 211.386 233.536C211.48 233.531 211.631 233.484 211.72 233.479C212.064 233.427 212.298 233.271 212.392 233.078C218.605 230.198 225.199 229.474 231.918 229.474C232.907 229.474 233.902 229.489 234.897 229.515C235.215 229.521 235.527 229.526 235.84 229.526C242.527 229.526 248.61 228.239 254.985 226.198C257.959 225.26 260.485 223.609 263.105 221.953C266.11 220.093 268.782 218.578 271.433 216.104C276.59 211.192 282.048 206.765 288.001 202.807C288.907 202.218 288.876 201.234 288.345 200.625C288.069 200.312 287.657 200.099 287.178 200.099C287.079 200.099 286.98 200.104 286.876 200.125C280.855 201.271 274.704 202.963 268.689 204.312C261.668 205.927 254.584 207.005 247.767 209.291C240.814 211.625 234.475 215.786 228.527 219.932C225.673 221.937 222.517 223.458 219.413 225.13C223.511 220.635 227.277 216 230.642 210.989C232.459 208.286 234.334 205.63 236.152 202.927C237.23 201.401 238.553 200.015 239.782 198.635C242.272 197.515 244.803 196.437 247.392 195.323C253.032 194.656 258.819 193.849 263.793 191.312C264.647 190.807 265.511 190.406 266.371 189.901C270.105 188.458 273.595 186.489 276.725 183.901C282.131 179.432 284.605 173.468 287.459 167.307C289.36 163.828 291.163 160.354 292.626 156.739C294.725 151.369 296.392 146.156 296.985 140.385C297.34 137.041 297.735 133.547 297.756 130.156C297.741 129.39 297.673 128.567 297.558 127.698C297.85 123.823 298.001 119.896 297.235 116.338C297.209 116.218 297.147 116.104 297.058 116.005C296.855 115.765 296.506 115.604 296.173 115.604C296.09 115.604 296.001 115.614 295.918 115.64C294.043 116.218 293.517 118.26 292.584 119.833C291.465 121.791 290.209 123.609 289.032 125.427C285.636 130.776 282.767 136.359 280.241 142.177C279.829 143.099 279.459 143.979 279.053 144.906C277.444 148.666 275.845 152.531 274.772 156.427C274.454 157.448 274.241 158.468 273.923 159.489C273.694 159.932 273.511 160.323 273.277 160.765C270.142 167.119 267.235 173.333 262.428 178.771C260.168 181.338 257.704 183.521 255.001 185.661C253.246 187.104 251.147 188.411 249.444 189.994C247.621 190.713 245.803 191.531 244.131 192.489C247.017 187.776 249.47 182.833 252.209 178.083C255.371 172.588 258.303 165.755 259.663 159.573C261.454 151.651 262.079 143.265 261.985 134.948C263.282 130.416 265.548 126.062 268.011 121.797C270.85 119.218 274.579 117.291 277.282 114.953C280.788 111.974 282.647 108.64 284.532 104.578C287.944 97.3434 289.933 89.4164 289.308 81.4424C288.59 73.4789 286.126 65.3591 282.09 58.3903C280.1 53.682 277.22 49.0622 273.761 45.0986C270.116 40.9163 265.834 37.458 261.293 35.4007C261.189 35.3538 261.084 35.333 260.98 35.333C260.48 35.333 260.022 35.8278 260.392 36.3434C260.678 36.7393 260.975 37.1091 261.282 37.4632C261.673 37.9163 262.084 38.3382 262.532 38.7601C262.485 38.9059 262.491 39.0049 262.538 39.1507C263.204 40.7236 264.298 42.057 265.011 43.5934C265.272 44.1195 265.668 44.5934 265.965 45.0674C265.975 45.0778 265.985 45.0882 265.996 45.0986C266.064 45.1768 266.11 45.2757 266.204 45.3799C266.225 45.4059 266.246 45.4268 266.267 45.4476C266.626 46.2601 267.027 47.1247 267.241 47.9893C267.824 49.9632 268.298 51.7393 268.918 53.4632C268.975 55.9788 269.73 59.0622 270.897 61.5049C272.22 68.5309 272.626 75.2497 271.006 82.3955C269.683 88.2289 267.501 93.7966 266.574 99.7184C265.564 106.323 267.626 113.677 265.069 119.932C264.97 120.218 264.98 120.51 265.079 120.703C263.824 122.812 262.522 125.067 261.564 127.359C261.371 125.286 261.178 123.213 260.933 121.182C260.282 116.021 257.991 111.286 256.61 106.187C255.876 103.401 254.84 100.812 253.866 98.1716C253.949 97.8799 254.043 97.4893 253.939 97.1091C252.975 93.2601 253.027 89.1455 251.965 85.2966V85.2028C251.371 80.5726 250.73 75.7966 250.47 71.1091C250.173 66.6663 249.168 62.7705 247.61 58.5466C247.204 57.3955 246.735 56.2028 246.272 54.9997C245.814 52.0153 244.001 48.7653 242.788 46.6663C242.485 46.1872 242.183 45.6143 241.881 45.0413C241.272 43.7966 240.569 42.557 239.86 41.4111C238.72 39.4788 237.47 37.5726 236.064 35.9632C235.418 35.2184 234.741 34.5413 234.027 33.9476C233.928 33.8538 233.834 33.8538 233.735 33.7601C231.105 31.0622 228.288 28.3695 225.189 26.2601C221.209 23.4997 216.949 21.5205 212.735 19.1976C208.084 16.6403 204.142 13.4476 200.564 9.65593C200.183 9.25488 199.814 8.84343 199.449 8.42676C198.433 7.26009 197.47 6.04134 196.454 4.87468C195.756 4.07259 195.038 3.30176 194.256 2.59342C193.709 1.87988 193.209 1.20801 193.095 0.442383C193.074 0.353842 193.038 0.280925 192.985 0.228841C192.902 0.129882 192.788 0.0830078 192.673 0.0830078Z" fill="#5A925B"/>
</g>
<path d="M149.766 240.364C149.777 240.458 149.704 240.541 149.61 240.547C149.516 240.557 149.433 240.484 149.428 240.39C149.417 240.297 149.49 240.213 149.584 240.208C149.678 240.198 149.761 240.271 149.766 240.364Z" fill="#CBCBC2"/>
<path d="M179.823 255.541L181.698 262.864C181.724 262.953 181.667 263.047 181.573 263.073C181.484 263.094 181.391 263.041 181.365 262.948L179.49 255.625C179.469 255.531 179.526 255.437 179.615 255.416C179.708 255.39 179.802 255.448 179.823 255.541Z" fill="#CBCBC2"/>
<mask id="mask1_1366_845" style="mask-type:luminance" maskUnits="userSpaceOnUse" x="0" y="165" width="136" height="267">
<path d="M0 165.333H135.708V432H0V165.333Z" fill="white"/>
</mask>
<g mask="url(#mask1_1366_845)">
<path d="M45.2713 231.213C45.2244 231.703 45.1202 232.151 45.016 232.599C44.6358 234.682 44.0785 236.89 43.8963 239.057C43.9275 238.906 43.9535 238.656 43.99 238.505C44.1306 237.468 44.2817 236.531 44.4744 235.536C44.7713 234.088 45.1202 232.687 45.4744 231.286H45.4692C45.3754 231.297 45.3181 231.255 45.2713 231.213ZM90.3442 165.656C90.6358 165.625 90.9744 165.88 90.8806 166.458C90.9796 167.427 90.8181 168.276 90.5577 169.13C90.7713 169.307 90.8911 169.583 90.839 169.979C90.8025 170.13 90.7608 170.177 90.7296 170.333C91.24 173.062 89.2192 176.823 88.6358 179.276C87.4848 183.927 86.6306 188.645 85.2765 193.224C82.8963 201.218 79.9119 209.078 76.7348 216.859C74.9431 221.281 72.5733 225.369 69.9171 229.297C64.6515 237.083 58.2556 244.213 53.0213 251.953C50.7817 255.26 48.7608 258.677 47.1202 262.302C46.4223 264.666 45.74 267.125 44.8338 269.312C44.8129 269.557 44.7452 269.859 44.7192 270.109C44.0265 273.979 43.3702 277.703 42.7765 281.573C42.5108 283.302 41.9848 284.916 41.6202 286.666C41.2452 288.312 41.5421 289.791 41.3025 291.38C40.9848 294.047 40.7192 296.317 40.9015 299.13C41.2921 306.114 42.4223 313.083 43.7452 320.026C45.1827 327.687 47.4171 334.052 51.0733 340.963C52.6931 343.974 54.4588 347.02 56.4015 349.948C55.7713 347.031 55.3702 343.953 55.1723 340.948C55.1202 340.901 55.1619 340.849 55.115 340.807C54.3233 335.807 52.8181 330.932 51.99 325.989C51.1723 321.14 50.8494 316.437 50.516 311.547C49.99 303.739 52.1254 294.744 55.0213 287.531C58.1827 279.76 61.6098 272.39 66.24 265.547C67.2504 264.062 68.3129 262.599 69.4431 261.161C70.9848 259.177 72.3963 257.135 73.7869 255.078C74.4588 254.083 75.1254 253.088 75.8025 252.088C76.5629 250.968 77.3286 249.849 78.1254 248.734C78.1619 248.672 78.2036 248.609 78.2452 248.552C78.5265 248.135 78.8338 247.744 79.1098 247.333C79.1358 247.291 79.1671 247.255 79.1931 247.213C80.9275 243.573 82.4119 239.817 83.7921 235.968C85.3077 231.625 87.3858 227.463 88.7504 222.989C88.7765 222.927 88.8077 222.869 88.8442 222.817C89.0004 222.583 89.2661 222.448 89.5473 222.416C90.0161 222.354 90.5317 222.573 90.6619 223.041C91.5994 226.656 90.9379 230.817 90.5629 234.416C90.5629 234.416 90.5733 234.505 90.5369 234.562C90.5317 234.567 90.5317 234.567 90.5265 234.573C90.6046 236.323 90.4952 238.182 90.365 239.854C90.0108 244.625 90.0369 249.354 88.9952 254.099C87.9483 258.833 86.2973 263.343 84.3963 267.823C83.4483 270.067 82.5838 272.198 81.6671 274.291C80.1983 278.682 78.5265 283 76.6254 287.479C74.6619 292.26 73.1931 297.187 70.8754 301.859C68.5213 306.677 66.4327 311.187 64.74 316.281C63.4588 320.114 62.2765 323.937 61.4483 327.88C60.6931 331.614 59.4067 335.89 59.6463 339.817C59.714 340.494 59.7817 341.166 59.891 341.797C59.9588 342.151 59.865 342.458 59.6983 342.703C59.6202 342.823 59.5265 342.922 59.4275 343.01C59.9536 347.89 60.7713 352.734 61.8858 357.552C62.0004 357.734 62.1723 357.963 62.2869 358.145C64.1515 360.744 66.4171 363.395 68.5525 365.77C70.3598 367.786 72.5265 369.479 74.1983 371.557C76.1463 374.041 78.3233 376.265 80.4119 378.698C80.6306 378.968 80.8442 379.14 81.0681 379.411C80.7348 378.52 80.4483 377.567 80.1671 376.718C79.3546 374.458 78.8858 372.114 78.4119 369.77C78.1619 369.744 77.9536 369.573 77.8286 369.291C75.5108 364.645 74.0265 358.979 72.9431 353.911C71.8338 348.661 71.3598 343.823 71.9431 338.349C72.6411 332.083 74.5161 325.901 75.8702 319.807C76.5733 316.567 77.8338 313.515 78.6411 310.359C79.5421 306.661 81.8286 302.578 81.5942 298.744C81.5629 298.453 81.6358 298.208 81.7608 298.02C81.9431 297.75 82.2452 297.593 82.5681 297.552C83.1306 297.484 83.74 297.791 83.8129 298.526C84.339 304.812 85.3233 311.307 85.3077 317.599C85.339 323.312 84.9692 328.958 84.7036 334.692C84.4119 340.14 83.2296 345.479 82.3494 350.885C82.0733 352.526 81.8963 354.151 81.5629 355.744C80.9327 358.786 80.5942 361.791 80.1202 364.869C81.0942 371.797 82.8754 378.942 86.0421 384.823C86.6879 385.442 87.2869 386.114 87.99 386.776C92.4275 391.213 97.3963 395.109 102.271 399.02C102.157 398.838 102.141 398.645 102.021 398.458C101.907 398.276 101.844 398.135 101.782 397.994C100.589 395.333 99.2921 392.583 98.3338 389.75C98.0004 388.859 97.7088 387.906 97.3806 387.015C96.1411 385.38 95.5004 382.369 95.115 379.385C94.4171 376.77 93.9536 374.083 93.7713 371.265C92.9536 358.515 93.9796 345.14 98.7973 333.198C98.8233 333.135 98.8546 333.083 98.8911 333.026C99.1202 332.692 99.5265 332.453 99.9483 332.401C100.287 332.359 100.631 332.442 100.896 332.692C102.25 334.078 102.068 336.14 102.636 337.937C103.469 340.489 104.266 343.093 105.058 345.698C106.891 351.468 108.724 358.125 108.547 364.286C108.412 370.302 106.553 376.682 104.922 382.359C104.339 384.369 103.87 386.562 103.651 388.781C104.688 392.39 105.641 396.099 105.542 399.573C105.558 399.672 105.511 399.729 105.48 399.869C106.063 400.885 106.761 401.989 106.959 403.047C110.803 406.375 114.563 409.901 118.787 412.651C121.448 414.39 124.412 415.75 127.375 417.119C127.282 416.687 127.245 416.302 127.157 415.869C126.641 414.557 126.219 413.328 125.834 412.395C124.068 407.833 122.037 403.057 121.12 398.224C118.761 386.161 123.74 374.343 121.818 362.281C121.756 361.906 121.844 361.578 122.021 361.317C122.271 360.942 122.709 360.703 123.167 360.645C123.683 360.583 124.224 360.755 124.542 361.234C126.089 363.573 126.756 366.333 127.891 368.953C129.219 371.994 130.547 375.13 131.636 378.244C133.381 383.047 134.136 387.755 134.396 392.849C134.636 397.755 135.339 402.422 134.454 407.291C133.771 411.265 132.521 415.39 132.141 419.427C132.193 419.468 132.344 419.505 132.448 419.593C132.5 419.578 132.553 419.567 132.599 419.562C133.11 419.5 133.558 419.823 133.74 420.297C133.87 420.359 133.98 420.422 134.089 420.489C134.188 420.552 134.287 420.609 134.412 420.666L134.032 423.599C133.922 423.531 133.818 423.468 133.709 423.406C133.48 423.27 133.25 423.13 133.026 422.994C132.563 422.708 132.099 422.505 131.688 422.25C131.459 422.291 131.23 422.328 130.995 422.354C129.631 422.52 128.178 422.515 126.829 422.677C126.511 422.718 126.198 422.765 125.891 422.828C122.547 423.552 119.303 424.802 116.042 425.859C109.896 427.833 104.396 429.895 98.0004 430.869C97.6411 430.922 97.2817 430.974 96.9223 431.015C89.6202 431.911 82.214 431.276 74.8546 431.166C68.3598 431.078 62.2973 429.927 56.9327 425.974C56.2869 425.442 56.2088 424.505 56.641 423.864C56.74 423.713 56.8702 423.583 57.0265 423.474C59.2556 421.833 62.6723 421.89 65.2504 420.802C68.2036 419.583 71.1098 418.411 74.1358 417.427C78.8911 415.901 83.3963 414.739 88.1827 414.151C89.3494 414.01 90.5265 413.901 91.7296 413.828C95.3702 413.614 98.9796 413.109 102.667 413.375C105.662 413.614 108.344 414.567 111.266 415.01C115.131 415.604 119.24 417.198 123.256 417.916C119.25 415.875 115.188 414.229 111.928 410.843C108.391 407.145 104.308 403.797 100.183 400.593C100.089 400.599 99.9327 400.567 99.8442 400.578C99.4952 400.567 99.24 400.442 99.1254 400.26C92.5838 398.145 85.9223 398.229 79.2244 399.052C78.24 399.172 77.2504 399.307 76.2608 399.458C75.9483 399.5 75.6358 399.541 75.3233 399.578C68.6567 400.395 62.4379 399.859 55.839 398.604C52.7608 398.031 50.0421 396.692 47.2244 395.364C44.0056 393.875 41.1567 392.692 38.214 390.552C32.4744 386.286 26.5004 382.541 20.0785 379.323C19.1046 378.849 19.016 377.864 19.4692 377.192C19.7088 376.843 20.089 376.583 20.5733 376.52C20.6723 376.51 20.7713 376.505 20.8754 376.51C27.016 376.922 33.3494 377.859 39.5108 378.468C46.7035 379.218 53.8963 379.427 60.9692 380.875C68.1827 382.349 75.0108 385.724 81.4431 389.13C84.5265 390.781 87.8598 391.911 91.1619 393.198C86.5213 389.213 82.2088 385.057 78.2452 380.474C76.0994 378.005 73.9067 375.583 71.7661 373.114C70.5056 371.724 69.0161 370.505 67.6254 369.281C65.0108 368.468 62.3494 367.703 59.6358 366.906C53.9327 366.927 48.0733 366.833 42.8025 364.916C41.891 364.515 40.9796 364.218 40.0629 363.817C36.1619 362.838 32.4483 361.307 29.016 359.109C23.0785 355.312 19.8858 349.672 16.2921 343.88C13.9692 340.645 11.7452 337.401 9.84937 333.979C7.10458 328.885 4.8025 323.89 3.51083 318.213C2.75042 314.927 1.9275 311.489 1.49521 308.114C1.41708 307.349 1.38062 306.52 1.39104 305.64C0.625414 301.812 0.000413936 297.916 0.323331 294.281C0.338955 294.156 0.385831 294.036 0.458748 293.927C0.635831 293.661 0.963956 293.458 1.29208 293.416C1.38062 293.406 1.46916 293.406 1.5525 293.422C3.49 293.77 4.27125 295.739 5.38583 297.192C6.74 299.01 8.21917 300.666 9.60979 302.333C13.6515 307.255 17.1931 312.463 20.4171 317.953C20.9379 318.823 21.4119 319.656 21.9327 320.531C23.9952 324.083 26.0629 327.734 27.6046 331.484C28.0473 332.468 28.3806 333.458 28.8233 334.437C29.1046 334.849 29.339 335.218 29.6202 335.63C33.5265 341.583 37.1775 347.416 42.6306 352.244C45.1983 354.531 47.9223 356.406 50.8754 358.208C52.8025 359.432 55.0525 360.479 56.9431 361.849C58.8442 362.343 60.7608 362.937 62.5421 363.682C59.089 359.343 56.0421 354.713 52.7348 350.312C48.9119 345.224 45.1515 338.77 43.0473 332.781C40.2921 325.104 38.6463 316.823 37.7296 308.52C35.8858 304.166 33.0942 300.104 30.115 296.151C26.9692 293.927 23.0213 292.463 20.0421 290.463C16.1827 287.927 13.9275 284.828 11.5473 281.01C7.26604 274.213 4.31812 266.557 3.96396 258.536C3.71396 250.515 5.1775 242.119 8.34417 234.682C9.75562 229.75 12.0629 224.791 15.0212 220.422C18.1462 215.802 21.9952 211.838 26.2713 209.234C26.365 209.172 26.4692 209.14 26.5681 209.125C27.0733 209.062 27.589 209.505 27.2765 210.062C27.0421 210.494 26.7973 210.895 26.5317 211.286C26.1983 211.781 25.8338 212.255 25.4431 212.734C25.5108 212.869 25.516 212.968 25.4848 213.119C25.0108 214.77 24.0838 216.234 23.5577 217.849C23.365 218.406 23.0317 218.927 22.7921 219.437C22.7817 219.448 22.7765 219.458 22.766 219.474C22.7088 219.557 22.6723 219.661 22.5942 219.776C22.5733 219.802 22.5577 219.828 22.5369 219.854C22.2817 220.703 21.9848 221.614 21.8754 222.505C21.5369 224.541 21.2765 226.369 20.8754 228.166C21.1202 230.677 20.7452 233.838 19.8806 236.416C19.4223 243.583 19.839 250.323 22.3233 257.25C24.3494 262.906 27.2088 268.187 28.8546 273.974C30.6671 280.432 29.5108 288.015 32.8233 293.932C32.9535 294.208 32.9796 294.5 32.9015 294.703C34.4119 296.651 35.9848 298.739 37.2192 300.906C37.1567 298.817 37.0994 296.724 37.0942 294.677C37.115 289.453 38.8181 284.453 39.5733 279.208C39.964 276.338 40.6775 273.63 41.3285 270.88C41.2088 270.604 41.0681 270.224 41.1306 269.828C41.6202 265.88 41.0629 261.781 41.6567 257.817L41.641 257.724C41.6723 253.036 41.7244 248.198 41.4119 243.494C41.1671 239.036 41.6931 235.026 42.7244 230.63C42.9952 229.432 43.3129 228.182 43.6254 226.932C43.7192 223.895 45.1306 220.437 46.0838 218.198C46.3285 217.682 46.5577 217.078 46.7869 216.468C47.2452 215.156 47.7973 213.833 48.3598 212.604C49.2608 210.541 50.2765 208.489 51.4796 206.708C52.0317 205.89 52.6254 205.13 53.266 204.453C53.3546 204.349 53.4431 204.338 53.5317 204.234C55.8233 201.224 58.3025 198.198 61.1306 195.713C64.7608 192.479 68.7608 189.989 72.6775 187.156C77.0056 184.041 80.5473 180.375 83.6463 176.161C83.9744 175.713 84.2973 175.26 84.6046 174.802C85.4744 173.515 86.2869 172.177 87.1567 170.89C87.7556 170.01 88.3806 169.156 89.0681 168.349C89.5265 167.573 89.9431 166.843 89.964 166.062C89.9744 165.974 90.0056 165.901 90.0473 165.838C90.115 165.734 90.2244 165.671 90.3442 165.656Z" fill="#5A925B"/>
</g>
<path d="M28.7036 101.844C28.2557 101.844 27.8442 102.417 28.3859 103.12C28.8703 104.276 29.563 105.141 30.3807 105.953C30.2453 106.281 30.2817 106.667 30.5838 107.083C30.714 107.229 30.7922 107.266 30.9224 107.417C32.0057 110.823 36.5995 113.854 38.7557 116.271C42.8963 120.844 46.7505 125.672 51.0734 130.031C58.6567 137.635 66.8286 144.724 75.1828 151.604C79.912 155.516 85.0942 158.703 90.5005 161.531C101.224 167.135 112.823 171.318 123.485 176.891C128.037 179.271 132.417 181.906 136.485 185.016C138.719 187.266 140.995 189.635 143.355 191.563C143.532 191.828 143.792 192.125 143.974 192.396C147.12 196.354 150.136 200.182 153.172 204.198C154.532 206 156.115 207.505 157.589 209.266C159.021 210.901 159.589 212.766 160.829 214.417C162.818 217.245 164.501 219.651 166.016 222.953C169.834 231.109 172.808 239.693 175.547 248.365C178.594 257.932 179.948 266.51 180.021 276.573C180.021 280.974 179.886 285.505 179.469 290.016C178.402 286.323 176.98 282.583 175.365 279.063C175.402 278.974 175.318 278.943 175.349 278.865C173.198 272.719 171.928 266.276 169.844 260.161C167.813 254.167 165.308 248.641 162.698 242.896C158.532 233.724 150.62 224.839 142.928 218.432C134.61 211.552 126.219 205.297 116.797 200.37C114.745 199.297 112.646 198.292 110.49 197.349C107.537 196.047 104.688 194.594 101.855 193.115C100.485 192.401 99.1203 191.677 97.7453 190.958C96.2036 190.151 94.6463 189.349 93.0682 188.573C92.9849 188.526 92.9015 188.479 92.8182 188.438C92.2505 188.141 91.662 187.885 91.089 187.589C91.037 187.557 90.9849 187.531 90.9276 187.5C86.7349 184.438 82.7609 181.083 78.8547 177.568C74.4797 173.568 69.5838 170.12 65.3078 165.885C65.2401 165.828 65.1724 165.781 65.0995 165.745C64.9328 165.661 64.7505 165.62 64.5682 165.62C63.7974 165.62 62.9953 166.323 63.1776 167.109C64.3182 171.781 67.6047 176.094 70.2349 179.943C70.2349 179.943 70.2713 180.052 70.3495 180.094C70.3547 180.094 70.3599 180.094 70.3651 180.099C71.3442 182.125 72.6047 184.172 73.7713 185.984C77.089 191.177 79.9432 196.552 84.0213 201.292C88.0995 206.016 92.7245 210.12 97.6099 214.036C100.053 216 102.339 217.891 104.652 219.698C108.995 223.781 113.527 227.651 118.417 231.568C123.563 235.786 128.23 240.474 133.714 244.354C139.323 248.375 144.443 252.208 149.469 256.953C153.261 260.51 156.938 264.125 160.277 268.083C163.412 271.854 167.48 275.911 169.61 280.516C169.943 281.318 170.282 282.125 170.537 282.906C170.678 283.349 170.974 283.641 171.313 283.818C171.469 283.901 171.641 283.958 171.808 283.995C174.183 289.849 176.219 295.839 177.896 301.984C177.876 302.255 177.823 302.62 177.803 302.896C177.277 306.979 176.329 311.37 175.355 315.365C174.537 318.755 173.12 321.99 172.49 325.37C171.803 329.38 170.693 333.229 169.808 337.255C169.724 337.698 169.589 338.026 169.501 338.464C169.334 337.255 169.079 336 168.881 334.865C168.417 331.807 167.521 328.859 166.626 325.917C166.896 325.734 167.027 325.417 166.995 325.021C166.782 318.339 165.006 311.01 163.146 304.609C161.193 297.979 158.777 292.208 154.777 286.359C150.162 279.682 144.256 273.823 139.011 267.745C136.23 264.5 132.943 261.813 130.099 258.729C126.818 255.089 121.735 251.854 119.662 247.37C119.516 247.021 119.292 246.786 119.032 246.651C118.839 246.547 118.62 246.5 118.407 246.5C117.485 246.5 116.547 247.359 117.011 248.479C120.256 255.927 123.105 263.885 126.964 271.005C130.417 277.495 134.282 283.672 138.079 290.01C141.74 296 146.334 301.333 150.631 306.922C151.948 308.609 153.146 310.344 154.495 311.948C157.063 315.01 159.282 318.214 161.698 321.406C164.818 329.854 167.167 339.042 167.167 347.635C166.818 348.734 166.542 349.865 166.152 351.042C163.829 358.781 160.579 366.234 157.443 373.641C157.454 373.365 157.36 373.135 157.381 372.849C157.396 372.573 157.386 372.375 157.37 372.177C157.094 368.438 156.886 364.526 156.245 360.724C156.079 359.516 155.823 358.26 155.657 357.047C156.063 354.438 154.948 350.635 153.568 347.016C152.761 343.625 151.641 340.297 150.131 337C143.277 322.047 133.948 307.516 121.193 296.922C121.131 296.87 121.058 296.823 120.985 296.786C120.73 296.656 120.433 296.589 120.131 296.589C119.443 296.589 118.74 296.932 118.511 297.635C117.818 300.026 119.287 302.255 119.74 304.635C120.355 308.042 121.042 311.474 121.73 314.911C123.178 322.573 125.162 331.229 129.126 338.109C132.948 344.844 138.948 350.938 144.266 356.38C146.152 358.302 148.027 360.5 149.626 362.88C150.652 367.599 151.839 372.391 154.068 376.266C154.115 376.385 154.198 376.422 154.323 376.563C154.282 378.073 154.167 379.75 154.584 381.063C152.261 387.182 150.152 393.479 147.042 399.177C145.089 402.771 142.563 406.125 140.042 409.484C139.881 408.943 139.688 408.479 139.527 407.938C139.308 406.13 139.037 404.484 138.902 403.188C138.115 396.943 137.506 390.286 135.594 384.25C130.907 369.141 118.047 358.781 112.865 343.943C112.704 343.479 112.402 343.161 112.042 342.969C111.771 342.828 111.459 342.76 111.152 342.76C110.204 342.76 109.235 343.38 109.131 344.422C108.808 348.016 109.74 351.547 110.053 355.214C110.402 359.469 110.808 363.839 111.48 368.031C112.433 374.536 114.454 380.339 117.266 386.271C119.99 391.979 122.042 397.693 126.016 402.667C129.214 406.76 133.152 410.672 136.042 415.01C136.011 415.089 135.865 415.224 135.797 415.385C135.063 415.557 134.672 416.255 134.766 416.969C134.553 417.26 134.448 417.51 134.23 417.802C132.297 421.068 130.068 424.245 127.615 427.302C127.527 427.417 127.433 427.531 127.344 427.641L132.063 427.734C132.141 427.625 132.219 427.51 132.297 427.396C134.027 424.88 135.714 422.156 137.219 419.599C137.573 418.984 137.974 418.474 138.287 417.932C140.61 417.172 142.917 415.734 145.204 415.052C149.433 413.828 153.876 413.26 158.214 412.469C166.391 410.948 173.881 409.927 181.724 407.13C191.063 403.708 199.448 398.172 208.136 393.328C215.438 389.26 221.61 384.25 225.277 376.495C225.688 375.5 225.204 374.391 224.318 373.927C224.115 373.818 223.886 373.75 223.641 373.719C223.282 373.672 222.912 373.646 222.547 373.646C219.334 373.646 215.912 375.406 212.693 375.714C208.605 376.135 204.589 376.589 200.563 377.318C192.704 378.776 185.626 380.641 178.428 383.984C174.172 385.964 169.771 387.599 165.756 390.151C162.511 392.25 160.053 394.969 157.011 397.255C152.99 400.286 149.308 404.604 145.193 407.875C148.485 403.115 152.089 398.766 153.714 392.943C155.464 386.589 158.053 380.297 160.766 374.151C160.881 374.099 161.032 373.969 161.146 373.922C161.532 373.698 161.74 373.401 161.766 373.125C168.787 365.792 177.761 361.641 187.183 358.25C195.745 355.083 202.782 350.521 209.808 344.813C212.948 342.281 215.214 339.104 217.589 335.875C220.334 332.224 222.839 329.146 224.87 324.917C228.771 316.583 233.256 308.688 238.563 301.12C239.381 299.984 238.875 298.818 237.954 298.333C237.678 298.188 237.36 298.104 237.032 298.104C236.678 298.104 236.303 298.203 235.948 298.417C229.24 302.63 222.631 307.563 216.021 312.016C208.323 317.26 200.303 321.891 193.172 327.849C185.896 333.932 180.219 341.922 175.011 349.708C172.516 353.464 169.428 356.781 166.474 360.255C169.303 352.911 171.652 345.563 173.349 337.948C174.271 333.839 175.282 329.76 176.198 325.651C176.782 323.302 177.719 321.016 178.547 318.776C181.016 316.255 183.563 313.771 186.152 311.203C192.631 307.75 199.219 304.057 204.016 298.667C204.808 297.661 205.657 296.766 206.459 295.75C210.277 292.26 213.547 288.255 216.099 283.667C220.506 275.734 220.683 267.396 221.224 258.635C221.875 253.552 222.417 248.521 222.48 243.484C222.48 236.031 222.037 228.969 220.037 221.745C218.891 217.552 217.73 213.156 216.162 209.068C215.777 208.151 215.313 207.193 214.761 206.198C213.292 201.396 211.631 196.599 209.042 192.672C208.954 192.542 208.823 192.432 208.672 192.354C208.464 192.245 208.214 192.188 207.964 192.188C207.657 192.188 207.355 192.271 207.12 192.453C205.141 194.031 205.464 196.74 205.079 199.068C204.652 201.953 203.995 204.734 203.438 207.474C201.86 215.51 201.027 223.583 200.719 231.771C200.662 233.083 200.631 234.313 200.573 235.625C200.402 240.906 200.292 246.307 200.839 251.5C200.938 252.88 201.157 254.208 201.256 255.589C201.188 256.229 201.146 256.786 201.079 257.427C200.287 266.557 199.714 275.401 196.48 284.203C194.964 288.359 193.021 292.151 190.777 295.995C189.339 298.563 187.428 301.12 186.126 303.828C184.266 305.552 182.459 307.396 180.896 309.328C182.157 302.302 182.787 295.193 183.849 288.188C185.073 280.083 185.396 270.479 184.12 262.396C182.558 252.016 179.37 241.625 175.344 231.656C174.777 225.594 175.459 219.286 176.422 212.984C178.626 208.547 182.209 204.474 184.36 200.391C187.188 195.156 187.855 190.271 188.219 184.49C188.922 174.172 187.594 163.693 183.094 154.391C178.485 145.141 171.704 136.526 163.568 130.031C158.959 125.297 153.318 121.094 147.297 117.943C140.938 114.62 134.157 112.474 127.719 112.135C127.704 112.13 127.683 112.13 127.662 112.13C126.855 112.13 126.271 113.167 127.084 113.688C127.61 114.036 128.141 114.344 128.678 114.625C129.36 114.979 130.058 115.297 130.792 115.599C130.803 115.792 130.855 115.906 130.985 116.063C132.527 117.646 134.469 118.734 136.053 120.245C136.61 120.755 137.308 121.146 137.891 121.573C137.907 121.583 137.922 121.589 137.943 121.599C138.058 121.661 138.167 121.755 138.323 121.839C138.36 121.859 138.396 121.875 138.433 121.891C139.245 122.698 140.136 123.552 140.803 124.49C142.428 126.594 143.834 128.505 145.391 130.297C146.646 133.297 149.001 136.651 151.553 139.042C156.454 146.885 160.094 154.776 161.506 164.146C162.657 171.792 162.641 179.521 164.308 187.089C166.204 195.51 172.141 203.396 171.995 212.125C172.016 212.521 172.167 212.865 172.376 213.052C171.855 216.182 171.349 219.505 171.271 222.719C170.068 220.313 168.855 217.906 167.61 215.578C164.402 209.672 159.417 205.047 155.36 199.557C153.162 196.547 150.698 193.917 148.282 191.198C148.251 190.807 148.178 190.297 147.87 189.885C144.902 185.703 143.032 180.724 139.943 176.594L139.902 176.479C137.006 171.188 133.995 165.734 131.474 160.214C129.032 155.005 125.985 150.786 122.131 146.432C121.094 145.24 119.974 144.021 118.849 142.792C116.896 139.411 113.188 136.354 110.74 134.396C110.152 133.964 109.516 133.417 108.881 132.865C107.563 131.656 106.131 130.495 104.745 129.448C102.464 127.656 100.063 125.953 97.6099 124.672C96.4849 124.083 95.3495 123.583 94.2088 123.208C94.0474 123.141 93.938 123.188 93.7713 123.12C89.339 121.104 84.6828 119.193 79.9588 118.109C73.8703 116.656 67.813 116.276 61.6463 115.458C54.8442 114.573 48.5942 112.578 42.5057 109.693C41.8599 109.396 41.2245 109.073 40.589 108.745C38.8182 107.818 37.0838 106.797 35.313 105.87C34.0995 105.24 32.8651 104.646 31.5942 104.156C30.5995 103.557 29.6828 102.99 29.1828 102.115C29.1151 102.021 29.037 101.953 28.9536 101.906C28.8703 101.865 28.787 101.844 28.7036 101.844ZM119.605 148.646C119.954 149.177 120.349 149.62 120.74 150.063C122.438 152.198 124.422 154.354 125.948 156.703C125.823 156.547 125.641 156.281 125.506 156.135C124.714 155.042 123.969 154.068 123.141 153.063C121.928 151.604 120.672 150.229 119.422 148.854C119.537 148.813 119.573 148.724 119.605 148.646Z" fill="#396835"/>
<path d="M246.386 350.677L246.219 350.505L252.688 350.635C252.787 350.635 252.86 350.713 252.86 350.807C252.854 350.906 252.776 350.979 252.683 350.979L246.214 350.849C246.12 350.849 246.042 350.771 246.042 350.677C246.042 350.583 246.12 350.505 246.214 350.505C246.308 350.505 246.386 350.583 246.386 350.677Z" fill="#CBCBC2"/>
</svg>
