<svg width="68" height="85" viewBox="0 0 68 85" fill="none" xmlns="http://www.w3.org/2000/svg">
<path fill-rule="evenodd" clip-rule="evenodd" d="M31.7866 84.8192H31.2965C31.2965 55.3671 26.5585 53.2269 -0.0644531 53.2269V52.7345C26.5585 52.7345 31.2965 50.5943 31.2965 21.1474H31.7866C31.7866 50.5943 36.5245 52.7345 63.1424 52.7345V53.2269C36.5245 53.2269 31.7866 55.3671 31.7866 84.8192ZM60.9587 44.7319H60.8505C60.8505 38.1385 59.7857 37.6564 53.8267 37.6564V37.5474C59.7857 37.5474 60.8505 37.0653 60.8505 30.472H60.9587C60.9587 37.0653 62.0174 37.5474 67.9774 37.5474V37.6564C62.0174 37.6564 60.9587 38.1385 60.9587 44.7319ZM47.3777 28.3482H47.1633C47.1633 15.2582 45.0552 14.3104 33.2281 14.3104V14.0884C45.0552 14.0884 47.1633 13.1395 47.1633 0.0556641H47.3777C47.3777 13.1395 49.4869 14.0884 61.313 14.0884V14.3104C49.4869 14.3104 47.3777 15.2582 47.3777 28.3482Z" fill="white"/>
</svg>
