<svg width="81" height="53" viewBox="0 0 81 53" fill="none" xmlns="http://www.w3.org/2000/svg">
<path d="M8.43945 8.5811C9.04346 9.52477 11.3173 11.4512 15.5738 11.6208C20.0029 11.7977 20.8452 12.1688 22.5435 12.9211C22.8857 13.0718 23.2632 13.2385 23.7113 13.4226C24.935 13.9242 26.194 14.4924 27.2481 14.9693C28.4944 15.5318 29.4523 15.9637 29.7239 16.0029C30.225 16.0724 31.3683 15.7173 31.6782 15.294C31.989 14.8693 32.8146 14.2112 33.4196 14.2648C33.9089 14.3098 34.812 14.7794 34.812 14.7794C34.812 14.7794 35.7131 15.1186 36.3818 14.4823C36.7132 14.1663 38.3291 12.866 39.9156 11.5875C41.5227 10.293 43.0975 9.02467 43.2779 8.82898C43.6358 8.4405 45.2586 7.2736 46.6421 6.81554C48.0266 6.35602 54.7796 3.6352 56.2112 2.4683C56.8868 1.91746 57.5525 1.44636 58.1065 1.05352C58.7262 0.614307 59.2067 0.272209 59.4087 0.0301326C59.7901 -0.429379 57.0466 4.48319 52.9421 6.81554C48.8375 9.14643 40.6765 16.0029 40.6765 16.0029C40.6765 16.0029 37.9732 17.335 37.5986 19.9297C37.4417 21.0155 37.5006 22.0939 37.5526 23.0506C37.5761 23.487 37.5986 23.8972 37.5986 24.2712C37.5986 24.4625 37.6143 24.6843 37.631 24.9061C37.6879 25.6917 37.7438 26.4687 37.074 25.8613C36.4181 25.267 36.3318 25.7686 36.2543 26.2281C36.2298 26.3701 36.2063 26.5078 36.1671 26.6079C36.0004 27.0326 35.213 26.3252 34.4492 25.0177C33.7069 23.7464 33.4559 23.413 32.4155 22.0301L32.3253 21.9084C30.2015 19.0817 22.7092 15.9666 20.5138 15.5434C18.3184 15.1186 10.4201 13.14 8.43945 8.5811Z" fill="white"/>
<mask id="mask0_1671_1240" style="mask-type:luminance" maskUnits="userSpaceOnUse" x="25" y="40" width="25" height="13">
<path d="M25.541 40.7876H49.3877V53.0002H25.541V40.7876Z" fill="white"/>
</mask>
<g mask="url(#mask0_1671_1240)">
<path d="M25.6484 44.6755C25.9279 45.1016 26.9751 45.9728 28.9362 46.0497C30.9767 46.1294 31.365 46.2975 32.1474 46.6367C32.3053 46.7049 32.4789 46.7802 32.6857 46.8629C33.2496 47.0904 33.8291 47.347 34.3144 47.5616H34.3154C34.889 47.8167 35.3312 48.0124 35.4558 48.0298C35.6872 48.0617 35.8735 48.0124 36.0166 47.821C36.1598 47.6297 36.3029 47.5021 36.7099 47.5659C36.7383 47.5731 36.7658 47.5833 36.7942 47.5934C36.8962 47.6326 37.0217 47.6804 37.3472 47.6297C37.458 47.6137 37.5708 47.605 37.6826 47.5978C37.9934 47.576 38.2974 47.5543 38.5239 47.3427C38.6758 47.1992 39.421 46.6121 40.1515 46.0337C40.8919 45.4495 41.6174 44.8755 41.7008 44.7871C41.8655 44.6117 42.6137 44.0855 43.251 43.8768C43.8884 43.6695 47.0006 42.4402 47.6595 41.9126C47.9713 41.6647 48.2773 41.4516 48.5332 41.2733C48.8185 41.0748 49.0401 40.9211 49.1333 40.8109C49.3088 40.6037 48.0449 42.8229 46.1534 43.8768C44.2629 44.9306 40.5026 48.0298 40.5026 48.0298C40.5026 48.0298 39.2563 48.6313 39.0837 49.804C39.0122 50.2954 39.0386 50.7825 39.0632 51.2145C39.0739 51.4116 39.0837 51.5971 39.0837 51.7653C39.0837 51.8523 39.0916 51.9537 39.0994 52.0523C39.1249 52.4074 39.1514 52.7582 38.8425 52.4843C38.5395 52.2161 38.5003 52.4437 38.465 52.651C38.4533 52.7147 38.4425 52.7771 38.4248 52.822C38.3474 53.0134 37.9846 52.6945 37.6326 52.103C37.2913 51.529 37.1756 51.3783 36.6961 50.7535L36.654 50.6984C35.6764 49.4213 32.2239 48.0124 31.212 47.821C30.2011 47.6297 26.5613 46.7353 25.6484 44.6755Z" fill="white"/>
</g>
<path d="M2.45918 31.7723C0.991322 31.7143 0.207874 31.0664 0 30.7489C0.682453 32.2825 3.40442 32.9493 4.1614 33.0914C4.91837 33.2349 7.5011 34.2829 8.23356 35.2339L8.26494 35.2744C8.62284 35.7412 8.70912 35.8528 8.96504 36.2804C9.22881 36.7211 9.50042 36.9588 9.55729 36.8153C9.57101 36.782 9.57886 36.7356 9.58768 36.6878C9.61416 36.5341 9.64357 36.3645 9.87008 36.5646C10.1015 36.7689 10.0819 36.508 10.0623 36.2427C10.0564 36.1688 10.0515 36.0934 10.0515 36.0297C10.0515 35.9035 10.0436 35.7658 10.0348 35.618C10.0172 35.2962 9.99755 34.9338 10.0515 34.5685C10.1799 33.6959 11.1124 33.2465 11.1124 33.2465C11.1124 33.2465 13.9256 30.9388 15.3405 30.1546C16.7544 29.3704 17.7006 27.7164 17.5692 27.8715C17.4996 27.9527 17.3339 28.0672 17.1202 28.2151C16.929 28.3484 16.6995 28.5064 16.4671 28.692C15.9729 29.0848 13.6451 29.9995 13.1686 30.1546C12.6911 30.3097 12.1322 30.7011 12.0086 30.833C11.9469 30.8982 11.4036 31.3258 10.8496 31.7607C10.3035 32.1912 9.74555 32.629 9.63181 32.7348C9.46217 32.8928 9.23469 32.9088 9.0023 32.9247C8.91896 32.9305 8.83463 32.9363 8.75129 32.9493C8.50811 32.987 8.41398 32.9508 8.3375 32.9232C8.31593 32.9146 8.29632 32.9073 8.27474 32.9015C7.9698 32.8537 7.86292 32.9493 7.75604 33.0914C7.64916 33.2349 7.50895 33.2711 7.33637 33.2465C7.24322 33.2335 6.91278 33.0885 6.48331 32.8986C6.11953 32.7392 5.68613 32.5478 5.26352 32.3782C5.10957 32.3173 4.97916 32.2608 4.8615 32.2101C4.27612 31.9564 3.98588 31.8317 2.45918 31.7723Z" fill="white"/>
<path d="M52.252 16.2376C52.5736 16.7928 53.811 17.9727 56.1927 18.2438C58.6725 18.5265 59.1363 18.77 60.0747 19.2643C60.2629 19.3643 60.4708 19.473 60.7189 19.5948C61.3955 19.9282 62.0907 20.3007 62.6711 20.6124C63.3595 20.9806 63.888 21.2632 64.04 21.2966C64.3194 21.3575 64.9666 21.2038 65.1489 20.9777C65.3303 20.7515 65.8059 20.4152 66.1442 20.4703C66.4168 20.5153 66.9139 20.8182 66.9139 20.8182C66.9139 20.8182 67.413 21.0473 67.7993 20.7153C67.9915 20.5515 68.922 19.8847 69.8359 19.231C70.7605 18.5685 71.6675 17.9191 71.7725 17.8162C71.9803 17.6118 72.9118 17.0218 73.6963 16.8203C74.4807 16.6188 78.3175 15.3664 79.1412 14.7677C79.5314 14.4865 79.9129 14.2474 80.2306 14.0488C80.5865 13.827 80.862 13.6545 80.9797 13.5269C81.2033 13.2834 79.5716 15.9375 77.2272 17.0813C74.8817 18.225 70.1781 21.7488 70.1781 21.7488C70.1781 21.7488 68.6377 22.3881 68.3778 23.8348C68.269 24.4392 68.2818 25.0495 68.2925 25.5902C68.2974 25.8366 68.3023 26.0685 68.2955 26.2802C68.2916 26.3874 68.2965 26.5136 68.3014 26.6382C68.318 27.0832 68.3347 27.5239 67.9709 27.1543C67.614 26.7919 67.5571 27.0716 67.5042 27.3268C67.4885 27.405 67.4718 27.4819 67.4483 27.5369C67.3463 27.7689 66.9188 27.3384 66.5158 26.5701C66.1236 25.8236 65.9902 25.625 65.4333 24.8031L65.3853 24.7306C64.2488 23.0506 60.109 20.9864 58.8863 20.6573C57.6645 20.3283 53.2756 18.886 52.252 16.2376Z" fill="white"/>
</svg>
