<svg width="237" height="290" viewBox="0 0 237 290" fill="none" xmlns="http://www.w3.org/2000/svg">
<g opacity="0.5">
<mask id="mask0_1671_1219" style="mask-type:luminance" maskUnits="userSpaceOnUse" x="-65" y="0" width="302" height="398">
<path d="M-65 0H237V398H-65V0Z" fill="white"/>
</mask>
<g mask="url(#mask0_1671_1219)">
<path fill-rule="evenodd" clip-rule="evenodd" d="M118.55 70.8245C117.841 67.2496 116.924 63.718 115.772 60.2392C114.312 55.8486 112.467 51.5588 110.393 47.3362C109.156 44.8362 107.78 42.3842 106.26 39.9994C104.741 37.5954 103.072 35.2922 101.238 33.0897C100.912 32.7106 99.6061 30.8392 98.673 30.2394C98.2091 29.9563 97.7612 29.894 97.3987 29.9563C97.0521 30.0091 96.7375 30.2059 96.4656 30.5897C95.7351 31.7318 95.4685 32.9553 95.4739 34.2173C95.4792 35.8872 96.0124 37.6098 96.2683 39.2029C96.6149 41.0887 97.0628 42.9457 97.5373 44.8026C98.6357 49.0924 99.942 53.315 101.056 57.624C101.446 59.1643 101.792 60.7382 102.229 62.2929C102.523 63.3533 102.859 64.3994 103.269 65.4262C103.92 67.0817 104.639 68.7036 105.445 70.2966C106.266 71.9041 107.177 73.478 108.217 74.9655C110.217 77.9309 114.152 80.0998 116.418 82.9165C116.679 83.2332 116.903 83.5787 117.132 83.9289C117.255 84.1113 117.372 84.2936 117.489 84.476C117.239 86.6113 116.993 88.7178 116.754 90.8195C116.45 93.3866 116.076 95.9202 115.788 98.4586C114.834 106.837 113.896 115.123 111.758 123.569C109.683 131.788 106.623 140.166 101.606 148.967C100.086 151.63 98.4544 154.197 96.7535 156.716C94.2795 159.614 92.0401 162.681 89.6087 166.025C89.5234 166.14 89.5501 166.308 89.6727 166.39C87.2414 169.456 84.7087 172.455 82.0747 175.387C76.4762 181.596 70.5311 187.546 64.4368 193.39C58.337 199.24 52.0827 204.974 46.0843 210.953C26.2922 230.583 8.97944 251.984 -3.86516 275.227L24.8419 233.947C25.7803 231.677 26.3882 229.407 26.7134 227.119C27.012 225.05 27.092 222.963 26.9267 220.876C26.7827 219.1 26.4361 217.344 26.0149 215.588C25.9989 215.194 25.9829 214.796 25.9669 214.412C25.887 211.98 25.8603 209.542 25.5724 207.109C25.3431 205.219 25.0339 203.333 24.5913 201.476C24.1434 199.604 23.4663 197.815 22.9117 195.977C22.0533 193.146 21.1949 190.31 20.2245 187.527C19.7393 183.837 20.0218 180.008 20.6244 176.164C21.3548 171.543 22.6345 166.922 23.6476 162.465C23.9141 161.289 24.1381 160.113 24.3567 158.971C24.9752 155.574 25.4871 152.196 25.5404 148.78C25.567 146.995 25.3911 145.238 25.2471 143.449C25.2845 143.281 25.3218 143.132 25.3591 142.969C25.3911 142.983 25.4231 142.983 25.4604 142.983C25.727 142.983 25.9509 142.801 25.9563 142.551C26.1109 141.827 26.2762 141.112 26.3402 140.382C26.3562 140.186 26.3668 140.003 26.3722 139.821C26.4255 139.687 26.4735 139.557 26.5108 139.423C26.5215 139.375 26.5321 139.341 26.5428 139.307C26.6548 139.01 26.7774 138.727 26.9054 138.444C28.0944 135.761 30.2218 133.54 32.2906 131.241C32.6372 130.857 32.9891 130.493 33.309 130.08C34.0768 129.101 34.7166 128.06 35.2871 127C35.9856 125.675 36.5295 124.298 36.7961 122.791C36.9187 121.961 36.9827 121.136 36.956 120.306C36.9187 118.751 36.6041 117.177 36.4228 115.603C36.2575 114.111 36.2042 112.619 36.3322 111.146C36.8334 105.661 37.1426 100.378 37.3879 95.1093C37.4946 92.7916 37.6865 90.4884 37.6652 88.1707C37.6385 84.8886 37.3399 81.5921 36.8121 78.214C36.4068 75.81 35.799 73.4444 34.9725 71.122C33.7622 67.7295 32.136 64.4474 30.6537 61.1844C29.7099 59.1307 28.6062 56.5636 27.2626 53.9628C26.4468 52.3889 25.5297 50.7959 24.5753 49.2748C23.7382 47.9312 22.9117 46.6404 21.968 45.4984C20.8803 44.1884 19.7126 43.0944 18.5342 42.2019C18.1663 41.9332 17.8784 41.9524 17.7291 42.0004C17.5318 42.0675 17.3079 42.2019 17.2279 42.4994C17.1906 42.6482 17.3665 43.3295 17.3879 43.6078L17.4945 45.6472L17.6758 52.5377C18.017 57.7872 18.017 63.0558 18.2783 68.3101C18.3423 69.6345 18.4223 70.9588 18.5342 72.2832C18.7902 75.3974 18.6409 78.4635 18.3583 81.5249C17.8944 86.6305 16.9293 91.6976 16.2468 96.7647C15.9429 99.0056 15.719 101.222 15.5964 103.459C15.4577 106.141 15.495 108.828 15.767 111.525C16.0656 114.178 16.7907 116.745 17.8944 119.197C18.2037 119.874 18.5182 120.555 18.8542 121.217C20.2458 125.358 22.2293 129.452 22.7411 133.708C22.9011 135.032 23.0557 136.356 23.1144 137.686C23.189 139.255 23.1837 140.814 23.1037 142.388C22.7038 140.085 22.2986 137.782 21.7867 135.478C20.859 131.668 19.6913 127.777 18.225 123.967C16.748 120.157 14.9672 116.429 12.9464 112.95C11.5014 110.613 9.98717 108.262 8.31294 106.011C7.18791 104.505 5.99356 103.046 4.69791 101.654L1.5574 98.4873L0.000480652 97.163C-0.191467 97.0142 -0.50605 96.6687 -0.687336 96.5344C-0.895279 96.3856 -1.10856 96.4192 -1.26852 96.3856C-1.52978 96.3185 -1.54044 96.568 -1.84969 96.6352C-1.967 96.6687 -1.90302 96.7983 -2.04165 96.8847C-2.12162 96.9327 -2.14828 96.9662 -2.20693 97.0334C-2.4682 97.3981 -2.36689 97.9451 -2.34556 98.4586C-2.29758 99.4854 -1.99366 100.661 -1.91901 101.472L-1.21519 109.591C-0.905945 113.051 -1.02858 116.544 -0.841961 120.023C-0.793972 120.901 -0.724659 121.798 -0.623352 122.676C-0.500717 123.77 -0.250122 124.831 0.0751266 125.858C0.544334 127.345 1.16284 128.804 1.72269 130.296C2.79974 133.209 3.8448 135.977 5.12979 138.66C5.99889 140.464 6.96397 142.254 8.17965 144.029C10.6963 147.805 15.2391 149.691 17.9744 152.791C18.6942 153.621 19.2967 154.499 19.6966 155.608C19.8512 156.054 20.0378 156.5 20.1445 157.014C20.1605 157.431 20.5177 157.762 20.9549 157.796C20.9176 157.993 20.875 158.189 20.8323 158.391C20.587 159.518 20.3098 160.66 20.0538 161.817C19.0621 166.356 18.0597 171.111 17.5212 175.833C17.3719 177.157 17.2599 178.501 17.2066 179.825C17.052 179.461 16.9027 179.096 16.7534 178.731C15.9163 176.726 15.1645 174.725 14.2367 172.8C12.7971 169.821 11.1229 167.004 9.39532 164.302C5.76962 158.77 1.56807 153.439 -2.91608 148.271C-7.68815 142.753 -12.7108 137.383 -17.4882 131.966C-18.352 130.992 -19.1891 130.013 -20.0422 129.053C-20.1329 128.837 -20.2128 128.621 -20.2928 128.425C-20.778 127.182 -21.0393 125.858 -21.2099 124.5C-21.4605 122.561 -21.4658 120.555 -21.6365 118.602C-21.7591 117.192 -21.9724 115.8 -22.2923 114.476C-22.9588 111.856 -23.8652 109.106 -25.1928 106.539C-26.5365 103.958 -28.2694 101.554 -30.2848 99.519C-31.7991 97.9931 -33.4093 96.8175 -35.1209 95.8386C-36.3632 95.1285 -37.6535 94.5622 -38.9652 94.0008C-40.2449 93.4538 -41.5458 92.926 -42.8628 92.379C-44.5317 91.6976 -46.2006 90.9346 -47.9175 90.1093C-48.4027 89.8742 -48.8612 89.6247 -49.3145 89.3464C-50.4555 88.665 -51.5325 87.902 -52.6949 87.259C-53.2281 86.9615 -53.7186 86.6305 -54.2038 86.2994C-55.4142 85.45 -56.5285 84.5431 -57.7869 83.6986C-58.1548 83.4635 -58.9439 82.9357 -59.5731 82.8541C-59.685 82.8349 -59.797 82.7869 -59.8877 82.8205C-60.3782 83.0652 -60.3409 82.8541 -60.4475 83.2332C-60.6874 83.3004 -61.0074 83.5979 -61.1886 84.1113C-61.4712 84.9558 -61.6365 86.4817 -61.6632 86.712L-61.7645 87.9356L-61.7965 89.212C-61.9298 92.2782 -61.4819 95.5747 -60.6341 98.7705C-59.781 102 -58.5014 105.148 -56.8271 107.883C-56.0807 109.092 -55.2436 110.234 -54.2891 111.294C-53.3401 112.34 -52.2683 113.314 -51.154 114.226C-47.8962 116.928 -44.1105 119.149 -40.4315 121.232C-38.6826 122.163 -37.0457 123.238 -35.3448 124.231C-34.5717 124.696 -33.7879 125.128 -32.9721 125.507C-31.3246 126.318 -29.5544 126.918 -27.8801 127.695C-27.219 127.993 -26.5738 128.324 -25.9553 128.703C-22.9001 130.728 -20.3621 133.079 -17.9308 135.512C-16.7951 136.654 -15.6914 137.834 -14.577 139.01H-14.5663C-16.1446 138.444 -17.8668 138.065 -20.0369 137.618C-21.5565 137.302 -23.0281 136.87 -24.5264 136.505C-25.2195 136.356 -25.9127 136.208 -26.6218 136.112C-28.9465 135.809 -31.3619 135.661 -33.7986 135.627C-37.3496 135.565 -40.9433 135.728 -44.3664 135.761C-46.1633 135.809 -47.8962 135.977 -49.613 136.227C-52.135 136.606 -54.6091 137.153 -57.163 137.666L-62.5536 138.828C-62.9268 138.909 -63.668 138.909 -64.0039 138.991C-64.2012 139.024 -64.3131 139.14 -64.4305 139.226C-64.7184 139.423 -64.7024 139.72 -64.5531 140.186C-64.4091 140.651 -63.9986 141.131 -63.4974 141.592C-63.1241 141.923 -62.6762 142.187 -62.4043 142.402C-61.2206 143.314 -60.0369 144.144 -58.8266 144.941C-57.6109 145.752 -56.3686 146.515 -55.0569 147.258C-53.1055 148.367 -50.9514 149.447 -48.6373 150.406C-45.3902 151.745 -41.8551 152.892 -38.2454 153.602C-31.9644 154.845 -25.4861 154.83 -19.9196 152.954C-18.7252 152.609 -17.5682 152.095 -16.4378 151.515C-14.8329 150.704 -13.2813 149.758 -11.7884 148.88C-11.0366 148.453 -10.2048 147.935 -9.32505 147.556C-8.7492 147.292 -8.13603 147.158 -7.52286 147.076C-7.50153 147.076 -7.48021 147.057 -7.46421 147.057C-6.22187 148.468 -4.98486 149.893 -3.76385 151.299C0.192429 155.905 4.05274 160.526 7.36919 165.382C9.17139 167.983 10.8189 170.732 12.4452 173.563C13.5062 175.401 14.6259 177.225 15.559 179.163C16.1455 180.387 16.6841 181.649 17.1799 182.925C17.2333 184.581 17.3879 186.236 17.6811 187.858C18.4169 191.222 19.4567 194.504 20.4804 197.8C20.9549 199.321 21.4348 200.862 21.904 202.387C22.112 204.062 22.3199 205.732 22.4959 207.392C22.7465 209.758 23.0664 212.109 23.109 214.48C23.141 215.905 23.0237 217.311 22.9704 218.721C22.8904 220.857 22.7251 222.978 22.5758 225.084C22.5385 225.66 22.5598 226.226 22.5118 226.787C22.3092 229.076 21.888 231.312 21.3388 233.515C20.8216 235.602 20.0858 237.622 19.3394 239.609C19.318 239.642 19.2967 239.676 19.27 239.71C18.9288 240.209 18.273 240.588 18.1877 241.183C18.1343 241.615 18.2836 241.514 18.4489 241.811C10.0618 252.497 2.54381 263.63 -3.86516 275.227C-9.06379 284.637 -13.5586 294.34 -17.1363 304.383C-22.4096 319.171 -25.7154 334.661 -26.7818 350.779C-26.9524 353.682 -27.0697 356.493 -27.107 359.277C-27.139 359.459 -27.1657 359.66 -27.1923 359.843C-27.2616 360.323 -27.3096 360.802 -27.3149 361.282C-27.3203 362.026 -27.235 362.741 -27.1497 363.47C-27.1497 363.566 -27.1337 363.667 -27.107 363.749C-27.043 367.396 -26.8351 370.956 -26.4352 374.516C-25.5767 382.17 -23.8439 389.708 -21.5351 397.793C-21.5032 397.909 -21.3699 397.976 -21.2366 397.957C-21.1033 397.928 -21.018 397.808 -21.0499 397.693C-22.6549 389.545 -23.492 381.954 -23.9505 374.353C-24.2651 369.118 -24.3931 363.883 -24.2224 358.432C-23.4653 354.838 -22.175 351.359 -20.4261 348.015C-20.0262 347.237 -19.5783 346.474 -19.1784 345.678C-18.8958 345.116 -18.7092 344.536 -18.3946 343.989C-18.2613 343.759 -18.0961 343.543 -17.9414 343.327C-16.2512 340.855 -14.4117 338.471 -12.4229 336.187C-9.35171 332.655 -5.99793 329.392 -2.90541 326.263C-0.911278 324.291 1.1895 322.406 3.34893 320.563C5.72163 319.339 7.8704 318.293 10.2271 317.765C12.0773 317.353 13.9701 317.084 15.9163 316.955C18.7155 316.753 21.6268 316.772 24.7299 316.59C31.8001 316.158 39.4407 315.664 46.4682 313.725C51.2936 312.396 55.7937 310.376 59.6913 307.511L69.95 299.757L73.0318 297.487C73.1064 297.439 74.5461 296.513 75.1166 296.149C75.2339 296.067 75.3192 296 75.3565 295.981C75.4258 295.933 75.4632 295.885 75.4845 295.865C76.1136 295.251 75.5538 294.704 75.4205 294.575C75.2552 294.426 74.69 294.21 73.8902 294.176C72.7492 294.128 70.8137 294.258 70.5578 294.258C68.8569 294.244 67.1774 294.311 65.5031 294.44C63.0611 294.642 60.6404 294.954 58.1717 295.122C55.0792 295.371 51.9547 295.865 48.8515 296.528C44.2768 297.507 39.75 298.85 35.4631 300.222C31.6454 301.48 27.7425 302.871 23.9461 304.498C29.0861 300.769 34.2687 297.142 39.3074 293.481C45.3805 289.042 51.5442 284.618 57.7612 280.247C62.0427 277.228 66.3509 274.229 70.7231 271.331C71.3096 271.019 71.8961 270.736 72.4773 270.472C72.4986 270.506 72.5253 270.554 72.5626 270.587C72.7439 270.77 73.0585 270.803 73.2717 270.635C74.3914 269.844 75.5538 269.095 76.7215 268.366C79.0889 267.339 81.5522 266.48 84.1062 265.4C86.4149 264.489 89.0169 263.433 91.6615 262.752C93.3997 262.286 95.1539 262.022 96.8388 262.056C103.093 262.137 109.977 263.778 116.764 264.441C119.782 264.738 122.784 264.805 125.685 264.556C128.756 264.277 131.736 263.63 134.493 262.32C135.639 261.792 136.732 261.111 137.788 260.333C138.769 259.623 139.622 258.827 140.406 257.982C141.51 256.806 142.496 255.53 143.594 254.287C144.586 253.193 145.562 252.152 146.559 251.139C147.599 250.098 148.66 249.086 149.662 247.992C150.51 247.08 151.331 246.12 152.11 245.079C152.781 244.167 155.005 242.627 155.874 241.298C156.354 240.554 156.476 239.844 156.29 239.23C156.22 238.995 155.815 238.4 154.797 238.27C153.682 238.136 150.787 238.203 150.601 238.203C148.036 238.184 145.434 238.366 142.848 238.697C140.294 239.028 137.761 239.508 135.293 240.007C131.87 240.717 128.478 241.6 125.125 242.574C121.792 243.553 118.508 244.662 115.245 245.756C111.891 246.917 108.542 248.073 105.285 249.402C101.979 250.741 98.7796 252.233 95.7031 253.903C93.2398 255.266 90.8138 256.672 88.6063 258.38C88.3398 258.577 88.0732 258.793 87.8119 259.009C83.621 261.211 79.4888 263.515 75.4152 265.899C69.4701 269.393 63.6263 273.039 57.9051 276.83C59.3448 275.175 60.6937 273.486 62.0001 271.749C63.9035 269.21 65.6791 266.581 67.444 263.946C68.7823 261.955 70.1046 259.935 71.4376 257.929C71.7895 257.416 72.152 256.922 72.5199 256.422C72.5999 256.408 72.6639 256.341 72.6906 256.274C73.0638 255.76 73.4743 255.362 73.7996 254.834C73.9062 254.666 74.0129 254.484 74.1142 254.321C74.6367 253.659 75.1699 252.996 75.7191 252.349C77.2494 250.544 78.8649 248.855 80.5925 247.464C81.5949 246.634 82.6719 245.89 83.7863 245.161C86.4629 243.419 89.3421 241.878 91.9814 240.175C95.2126 238.054 98.2198 235.852 101.056 233.462C103.888 231.096 106.548 228.544 109.177 225.861C110.808 224.153 112.669 222.234 114.253 220.194C115.362 218.769 116.332 217.296 117.036 215.804C117.825 214.134 118.278 212.474 118.492 210.804C118.801 208.419 118.668 206.029 118.694 203.482C118.758 202.076 119.03 200.65 119.18 199.24C119.249 198.578 119.297 197.93 119.292 197.268C119.292 196.855 119.094 196.605 118.929 196.457C118.929 196.457 118.924 196.457 118.918 196.457C118.95 196.356 118.982 196.241 119.02 196.145C119.11 195.991 119.052 195.809 118.886 195.727C118.721 195.646 118.513 195.694 118.422 195.842C118.326 195.943 118.236 196.025 118.14 196.126C118.108 196.126 118.076 196.111 118.044 196.111C117.852 196.111 117.569 196.145 117.271 196.327C117.132 196.409 116.887 196.658 116.743 196.754L114.791 198.198L109.875 202.503C107.759 204.374 105.78 206.38 103.898 208.467C102.032 210.54 100.257 212.675 98.545 214.83C96.9028 216.898 95.2339 218.971 93.6237 221.058C92.0134 223.145 90.4405 225.281 88.8889 227.402C85.7751 231.677 82.7785 236.015 79.9313 240.453C77.9745 243.534 75.9964 246.418 74.4288 249.484C74.2635 249.796 74.0982 250.127 73.9329 250.444C70.3445 255.117 66.9854 259.868 63.5836 264.575C62.9971 265.386 62.4106 266.197 61.8241 267.008C62.24 265.885 62.6239 264.757 62.9811 263.63C64.2928 259.503 65.2952 255.314 66.4576 251.091C67.1774 248.222 67.9025 245.674 68.2064 243.04C68.409 241.264 68.425 239.446 68.1797 237.474C68.0518 236.298 68.0145 235.089 67.8705 233.894C67.8118 233.366 67.7372 232.833 67.6146 232.32C67.4226 231.509 67.1294 230.713 66.7935 229.902C66.047 228.131 65.0499 226.375 64.2501 224.667L63.1251 221.605C63.1144 221.572 62.7732 221.005 62.7572 220.761C62.7305 220.511 62.5919 220.526 62.5919 220.444C62.5866 220.276 62.384 220.41 62.352 220.31C62.3146 220.194 62.1973 220.329 62.1494 220.247C62.112 220.18 62.048 220.276 62.0054 220.228C61.8241 220.012 61.7281 220.41 61.4829 220.329C61.2376 220.262 61.1843 220.377 60.9017 220.478C60.6671 220.559 60.5391 220.842 60.3845 221.106C59.9313 221.903 59.7073 223.309 59.5474 223.841C59.2168 224.964 58.8436 226.077 58.4223 227.186C57.7878 228.875 57.0787 230.53 56.4495 232.224C55.5431 234.34 54.8659 236.461 54.2634 238.548C53.6396 240.717 53.1331 242.857 52.7545 245.045C52.1573 248.519 51.7734 252.032 51.8854 255.679C51.9067 256.557 51.992 257.449 52.072 258.347C52.328 261.144 52.7385 264.009 53.1597 266.845C53.341 268.035 53.533 269.229 53.6876 270.405C53.9382 272.377 53.9809 274.33 54.0022 276.302C53.3837 277.396 52.7918 278.505 52.312 279.666C51.8534 280.28 51.4215 280.923 50.963 281.537C46.3455 284.719 41.7974 287.982 37.2706 291.211C28.6329 297.454 19.4833 303.553 11.0269 310.261C8.76083 312.065 6.52676 313.908 4.40465 315.827C1.20016 318.725 -1.76971 321.825 -4.55831 325.021C-7.4802 328.303 -10.5514 331.81 -13.5373 335.424C-15.5794 337.89 -17.4402 340.51 -19.3864 343.044C-19.8129 343.591 -20.3141 344.09 -20.73 344.632C-21.1459 345.198 -21.5138 345.779 -21.8764 346.359C-22.5269 347.401 -23.1401 348.461 -23.7052 349.521C-22.4576 334.166 -19.0611 319.421 -14.0171 305.275C-10.4927 295.371 -6.17921 285.76 -1.12455 276.437C3.5622 267.79 8.86746 259.388 14.6793 251.24C14.9192 251.288 15.1751 251.187 15.3138 250.991C16.4868 249.484 17.5905 247.958 18.5502 246.351C18.8595 245.823 19.1581 245.29 19.446 244.762C28.0144 233.462 37.5479 222.646 47.7745 212.311C53.7302 206.332 59.8566 200.497 65.999 194.72C72.1947 188.885 78.3904 183.088 84.2075 176.975C88.8676 172.071 93.3464 167.018 97.3827 161.606C99.5474 158.703 101.579 155.689 103.477 152.575C104.757 151.515 106.111 150.473 107.572 149.447C109.817 147.873 112.237 146.611 114.626 145.32C117.095 143.976 119.547 142.671 121.952 141.28C123.632 140.301 125.194 139.207 126.815 138.146C127.22 137.897 127.636 137.652 128.047 137.383C130.702 135.713 133.219 133.856 135.645 131.884C139.27 128.938 142.683 125.771 145.999 122.643C149.502 119.38 152.712 115.637 155.821 111.726C157.1 110.119 158.353 108.497 159.617 106.856C160.603 105.599 161.6 104.322 162.608 103.079C162.709 102.998 162.811 102.911 162.912 102.844C164.314 101.789 165.775 101.074 167.407 100.709C169.086 100.344 170.889 100.244 172.733 100.33C175.458 100.459 178.273 100.939 181.035 101.174C182.251 101.27 183.461 101.29 184.672 101.27C186.452 101.222 188.228 101.074 190.014 100.925C195.277 100.479 200.614 99.7973 205.653 98.3386C209.07 97.3453 212.334 95.973 215.383 94.1976C216.887 93.2715 218.353 92.211 219.777 91.0834C221.84 89.4471 223.819 87.6717 225.754 86.0642C227.588 84.5431 229.497 83.0172 231.257 81.3954C231.795 80.8963 232.307 80.3685 232.835 79.8695C234.098 78.6459 235.309 77.4031 236.29 75.978C236.802 75.2294 236.466 74.6872 236.135 74.3033C235.933 74.0538 235.554 73.8715 235.021 73.7563C234.386 73.6267 232.936 73.8235 232.227 73.7899C231.528 73.7899 230.83 73.7899 230.126 73.8091C228.521 73.8715 226.922 74.0202 225.322 74.1546C222.528 74.3849 219.761 74.668 216.999 74.9991C214.237 75.3494 211.486 75.7285 208.719 76.1747C200.427 77.6334 191.646 80.167 183.563 83.8954C180.609 85.2389 177.735 86.7456 175.021 88.4155C174.546 88.6314 174.077 88.8665 173.613 89.1112C170.857 90.6227 168.463 92.5901 166.159 94.6822C164.917 95.805 163.717 96.9806 162.56 98.2234C166.634 91.069 170.073 83.6458 172.493 75.8772C173.539 72.4991 174.514 69.169 175.255 65.8245C176.007 62.4272 176.519 59.0156 176.78 55.4839L177.127 49.721L177.042 47.4514C177.02 47.2546 177.084 46.8084 177.047 46.6212C176.978 46.2614 176.812 46.0262 176.642 45.8775C176.252 45.5464 175.677 45.2297 174.898 45.7767C174.296 46.1942 173.752 46.8228 173.309 47.5521C172.52 48.8765 171.971 50.5655 171.496 51.6452C170.681 53.2814 169.849 54.9081 169.017 56.53C167.769 58.9484 166.506 61.3668 165.13 63.7516C163.685 66.3379 162.155 68.8859 160.566 71.4051C156.818 77.3215 152.824 83.118 149.465 89.1976C147.391 92.9548 145.541 96.8175 144.101 100.858C143.365 102.864 142.96 104.903 142.672 106.971C142.283 109.754 142.054 112.556 141.728 115.335C141.558 116.76 141.35 118.17 141.056 119.596C140.982 119.941 140.939 120.291 140.859 120.656C140.465 122.475 139.718 124.149 138.753 125.771C138.359 126.433 137.953 127.1 137.489 127.743C137.143 128.223 136.78 128.689 136.407 129.154C135.794 129.715 135.175 130.277 134.546 130.843C132.253 132.863 129.854 134.768 127.316 136.491C126.756 136.836 126.207 137.201 125.631 137.518C123.296 138.828 120.79 139.821 118.342 140.929C116.284 141.86 114.232 142.82 112.253 143.895C110.153 145.037 108.158 146.347 106.244 147.786C112.397 136.476 115.57 125.805 117.388 115.219C118.332 109.72 118.982 104.255 119.361 98.7225C119.537 96.1697 119.579 93.6026 119.707 91.021C119.771 89.711 119.835 88.4011 119.91 87.0767C120.081 86.9088 120.182 86.6928 120.182 86.4625C120.219 86.1986 120.241 85.9155 120.246 85.6516C120.641 84.5096 121.168 83.3819 121.798 82.2879C122.416 81.2274 123.141 80.1862 123.904 79.1401C126.932 74.9991 130.851 71.026 134.354 67.4608C135.586 66.2036 136.78 65.0088 137.815 63.8188C144.661 56.1461 151.027 48.5262 155.277 40.1146C157.916 34.8939 159.718 29.3613 160.491 23.4833C160.982 19.7885 161.014 15.9594 160.593 11.9527C160.358 10.1629 160.043 8.20991 159.58 6.30493C159.35 5.35965 159.052 4.43355 158.79 3.52185C158.508 2.54297 158.257 1.58329 157.9 0.705179C157.612 -0.00978477 157.031 -0.0241797 156.583 0.0429975C156.386 0.0765867 156.135 0.191748 155.89 0.422073C155.719 0.604413 155.479 1.06986 155.303 1.2522L152.851 4.11685L148.51 9.31834C146.452 11.8183 144.512 14.4047 142.656 17.0534C140.811 19.6877 139.052 22.37 137.34 25.038C135.767 27.5235 134.21 29.9755 132.76 32.4755C130.558 36.2711 128.553 40.1146 126.719 44.0253C125.796 45.9927 124.906 47.9648 124.106 49.9849C122.256 54.625 120.779 59.4138 119.649 64.3658C119.158 66.5347 118.785 68.67 118.55 70.8245ZM7.35854 317.218C8.20631 316.969 9.05942 316.772 9.89653 316.59C11.816 316.158 13.7782 315.928 15.7936 315.726C18.5769 315.462 21.4775 315.266 24.554 314.934C31.4215 314.205 38.7689 313.212 45.5831 311.22C50.0566 309.915 54.3274 308.221 58.0064 305.621C59.4141 304.627 60.8004 303.62 62.208 302.641C64.3301 301.149 66.4789 299.695 68.6596 298.27L71.6348 296.312C71.1283 296.365 70.7284 296.432 70.6218 296.432C70.5685 296.432 70.5205 296.446 70.4671 296.446C70.0779 296.676 69.678 296.892 69.2728 297.108C66.2389 298.716 62.9651 300.088 59.6753 301.384C55.5164 303.025 51.2456 304.397 47.0067 305.357C40.3418 306.849 33.2717 307.924 26.4415 309.498C21.8933 310.544 17.4412 311.82 13.2983 313.605C12.0506 314.152 10.8563 314.814 9.69392 315.529C9.16605 315.861 8.64886 316.211 8.14233 316.571C7.88106 316.787 7.6198 317.003 7.35854 317.218ZM67.8545 296.676C66.6868 296.811 65.5351 296.993 64.3728 297.142C62.4106 297.406 60.4378 297.641 58.4383 297.818C55.4951 298.068 52.5199 298.567 49.5607 299.196C45.0872 300.155 40.6564 301.432 36.4655 302.775C31.4801 304.315 26.4095 306.153 21.5095 308.289C18.7902 309.483 16.1562 310.793 13.6075 312.199C13.4742 312.3 13.341 312.396 13.2076 312.516C13.165 312.55 13.1223 312.578 13.0797 312.612C17.1906 310.793 21.5948 309.45 26.1162 308.389C32.9411 306.767 40.0272 305.721 46.7028 304.248C50.0512 303.505 53.4263 302.492 56.7481 301.297C60.5498 299.959 64.2448 298.284 67.8545 296.676ZM57.2706 269.858C58.2784 267.521 59.1208 265.17 59.9046 262.819C61.2589 258.726 62.4213 254.618 63.6903 250.444C64.1062 249.1 64.4954 247.809 64.8793 246.567C65.2738 245.276 65.6631 244.033 65.9404 242.742C66.2976 241.101 66.5269 239.426 66.5109 237.555C66.4895 236.547 66.5535 235.521 66.5375 234.475C66.5269 233.827 66.4842 233.165 66.3722 232.522C66.1963 231.509 65.871 230.482 65.4551 229.489C64.826 227.963 63.9995 226.476 63.349 225.017L62.0107 222.632C61.7921 223.241 61.6855 224.153 61.5628 224.436L61.4242 224.7C60.8217 226.855 60.3632 228.99 60.1659 231.192C59.7766 235.583 60.0646 240.074 60.0219 244.498C59.9953 246.451 59.862 248.404 59.67 250.343C59.3874 253.241 58.9822 256.125 58.6516 259.023C58.2677 262.19 58.0971 265.372 57.5319 268.5C57.4519 268.966 57.3666 269.412 57.2706 269.858ZM59.0782 229.191L57.3293 232.536C56.3909 234.609 55.5858 236.643 55.0366 238.716C54.4714 240.852 54.1408 243.006 53.9809 245.161C53.7196 248.587 54.0288 251.998 54.4234 255.53C54.514 256.389 54.5887 257.253 54.7007 258.112C55.0472 260.895 55.6871 263.697 56.0656 266.514C56.1883 267.425 56.2789 268.318 56.3322 269.229C56.4655 268.5 56.5775 267.771 56.6628 267.027C56.9987 264.34 57.1373 261.624 57.4146 258.908C57.7292 256.024 58.1291 253.145 58.401 250.247C58.5823 248.323 58.7103 246.418 58.7263 244.479C58.7742 240.041 58.481 235.521 58.8755 231.096C58.9342 230.468 58.9982 229.834 59.0782 229.191ZM151.096 242.939C146.89 245.175 142.48 247.195 138.071 249.167C134.061 250.943 129.955 252.497 125.717 253.639C123.696 254.172 121.627 254.604 119.537 254.983C114.749 255.827 109.838 256.375 105.119 257.32C99.3555 258.495 93.6663 260.103 88.3024 262.305C86.047 263.231 83.8716 264.277 81.7495 265.434C82.3947 265.17 83.0452 264.906 83.7063 264.623C86.0204 263.63 88.633 262.488 91.283 261.658C93.1331 261.096 94.994 260.683 96.8122 260.616C103.109 260.333 110.153 261.461 117.015 261.874C119.857 262.041 122.656 262.123 125.37 261.859C128.068 261.59 130.654 260.981 133.117 259.887C134.125 259.455 135.127 258.961 136.087 258.347C136.978 257.766 137.756 257.137 138.486 256.442C139.659 255.328 140.715 254.138 141.888 252.977C142.981 251.883 144.096 250.876 145.146 249.829C145.85 249.134 146.516 248.424 147.177 247.694C148.239 246.533 149.246 245.309 150.169 243.966C150.366 243.668 150.702 243.323 151.096 242.939ZM152.664 240.569C151.688 240.602 150.745 240.655 150.643 240.655C148.697 240.717 146.735 240.919 144.773 241.168C141.808 241.567 138.844 242.094 135.986 242.709C133.32 243.256 130.675 243.932 128.047 244.662C124.08 245.756 120.15 246.984 116.263 248.241C112.915 249.302 109.593 250.41 106.308 251.586C104.895 252.085 103.488 252.598 102.096 253.145C96.231 255.995 90.5205 259.11 84.9273 262.406C85.8551 261.989 86.7935 261.59 87.7426 261.211C93.1971 258.975 98.9609 257.32 104.815 256.125C109.534 255.132 114.439 254.503 119.228 253.606C121.264 253.227 123.285 252.795 125.253 252.248C128.366 251.403 131.4 250.328 134.392 249.1C140.635 246.567 146.65 243.419 152.664 240.569ZM116.466 200.895C113.346 206.298 110.275 211.749 106.852 216.999C103.882 221.552 100.624 225.943 96.8068 229.969C93.3091 233.63 88.9689 236.96 85.0873 240.54C84.0262 241.499 83.0398 242.526 82.0854 243.553C82.1547 243.505 82.2294 243.452 82.2987 243.404C84.8793 241.547 87.6733 239.892 90.2219 238.069C93.2611 235.914 96.055 233.664 98.7423 231.293C101.435 228.928 104.016 226.442 106.527 223.808C108.121 222.167 109.918 220.343 111.486 218.424C112.493 217.181 113.41 215.924 114.077 214.628C114.802 213.222 115.213 211.831 115.479 210.42C115.911 208.136 115.986 205.833 116.199 203.381C116.242 202.551 116.348 201.725 116.466 200.895ZM114.797 201.245C113.746 202.191 112.749 203.165 111.726 204.129C109.742 206.001 107.903 208.002 106.154 210.055C104.389 212.128 102.731 214.283 101.12 216.437C99.6061 218.457 98.1078 220.492 96.5722 222.517C94.2688 225.53 91.9228 228.51 89.6354 231.528C87.9239 233.779 86.2283 236.034 84.5754 238.318C88.1745 235.122 92.1361 232.138 95.3459 228.827C99.1689 224.935 102.427 220.66 105.434 216.236C108.75 211.351 111.726 206.245 114.797 201.245ZM61.2856 221.802C61.2909 221.821 61.2909 221.821 61.2962 221.821H61.3069L61.2962 221.802L61.2856 221.788V221.802ZM61.2536 221.72C61.2429 221.687 61.2483 221.668 61.2589 221.634C61.2856 221.586 61.1843 221.701 61.2163 221.701C61.2323 221.701 61.2429 221.701 61.2536 221.72ZM1.89864 101.29C2.52781 102.465 3.11433 103.674 3.7115 104.884C6.20684 109.936 8.41425 115.123 10.7443 120.258C12.6638 124.528 14.5726 128.804 16.2468 133.175C17.3665 136.093 18.3743 139.044 19.27 142.023C20.2884 145.387 21.2215 148.799 21.8667 152.244C21.9893 151.366 22.1066 150.473 22.2239 149.595C22.2346 149.509 22.2453 149.447 22.2559 149.379C22.1333 149.015 22.0213 148.65 21.9147 148.285C20.7097 144.259 20.1551 140.118 19.0461 136.045C18.0917 132.331 16.86 128.554 15.4204 124.845C13.9861 121.15 12.3385 117.523 10.4084 114.125C9.15005 111.774 7.82774 109.404 6.34547 107.12C5.3644 105.613 4.31934 104.14 3.16764 102.748L1.89864 101.29ZM-59.957 141.246C-59.0719 141.841 -58.1814 142.402 -57.2697 142.949C-56.0753 143.679 -54.849 144.36 -53.5533 145.037C-50.2475 146.779 -46.3073 148.367 -42.1697 149.629C-39.557 150.406 -36.8644 151.083 -34.1611 151.5C-29.5117 152.196 -24.8516 152.244 -20.6554 151.035C-19.6103 150.704 -18.6026 150.238 -17.6269 149.691C-16.1019 148.866 -14.6463 147.873 -13.2387 146.961C-12.2416 146.332 -11.1166 145.569 -9.90623 145.07C-12.2683 144.475 -14.625 144.341 -16.987 144.394C-19.1251 144.442 -21.2686 144.658 -23.428 144.922C-28.536 145.55 -33.7133 146.448 -38.9225 146.049C-41.3219 145.915 -43.7853 145.517 -46.2433 144.989C-48.7333 144.456 -51.2393 143.828 -53.6546 143.151C-54.7104 142.854 -55.7341 142.537 -56.7578 142.239C-57.8029 141.923 -58.8746 141.558 -59.957 141.246ZM0.107117 100.728C0.149773 100.925 0.18177 101.107 0.208427 101.27C0.320396 102.086 0.4217 102.911 0.496353 103.722C0.677635 105.627 0.778938 107.532 0.928238 109.457C1.19483 112.935 1.02421 116.448 1.16817 119.941C1.20016 120.805 1.25881 121.649 1.33879 122.508C1.4401 123.502 1.65871 124.447 1.94663 125.392C2.38918 126.865 2.97569 128.29 3.50889 129.763C4.54861 132.647 5.51369 135.363 6.80402 138.012C7.65179 139.739 8.64886 141.409 9.85387 143.069C11.4001 145.104 13.6395 146.428 15.751 147.786C16.94 148.568 18.1183 149.327 19.1154 150.205C18.4756 147.657 17.7664 145.123 16.9507 142.604C16.0016 139.687 14.9512 136.788 13.8688 133.904C12.2372 129.567 10.5257 125.243 8.73417 120.954C5.99356 114.293 3.39692 107.585 0.267075 101.059C0.219093 100.959 0.160439 100.843 0.107117 100.728ZM-10.6954 143.396C-10.7593 143.415 -10.8446 143.396 -10.9619 143.381C-11.1806 143.367 -11.3192 143.151 -11.4898 143.036C-14.417 141.145 -16.7311 140.747 -20.6127 140.118C-22.1696 139.869 -23.6892 139.49 -25.2302 139.192C-25.8433 139.072 -26.4565 138.976 -27.0857 138.909C-28.7386 138.679 -30.4448 138.545 -32.1723 138.444C-36.2459 138.213 -40.4368 138.213 -44.3931 138.113C-46.0673 138.046 -47.6989 138.113 -49.3198 138.247C-51.8258 138.463 -54.2945 138.861 -56.8378 139.207L-60.2182 139.739C-58.8799 140.003 -57.5469 140.382 -56.2513 140.68C-55.0409 140.977 -53.8039 141.28 -52.5563 141.611C-49.7623 142.388 -46.9258 143.266 -44.0785 143.861C-42.3083 144.245 -40.5488 144.523 -38.8159 144.658C-33.7133 144.907 -28.6959 143.813 -23.7052 143.151C-21.4605 142.868 -19.2211 142.652 -16.9977 142.671C-14.8383 142.705 -12.7055 142.949 -10.5834 143.53L-10.6954 143.396ZM20.6244 47.8496C21.6534 49.8362 22.4585 51.8899 23.1144 53.9772C24.5966 58.6845 25.2418 63.6028 25.6577 68.5884C26.0896 73.8427 26.1269 79.0442 25.9723 84.2264C25.7377 91.9807 25.0978 99.6965 24.8419 107.518C24.7246 110.383 24.6659 113.218 24.6819 116.064C24.6926 118.9 24.7832 121.745 24.9912 124.581C25.2311 128.223 25.855 131.836 26.1749 135.445C27.2093 133.194 28.6969 131.073 30.2111 128.972C31.6988 126.884 33.245 124.845 33.7515 122.326C34.0075 121.285 34.1034 120.224 34.1408 119.149C34.1781 118.089 34.2048 117.028 34.1674 115.968C34.1034 114.293 33.9542 112.619 34.1248 110.978C34.6526 105.431 35.3138 100.08 35.2445 94.7446C35.2125 92.5901 34.9512 90.4548 34.7273 88.3003C34.3967 85.1525 33.9542 82.0096 33.2077 78.7754C32.8344 77.1056 32.2906 75.4789 31.7361 73.8571C31.3628 72.763 30.9949 71.669 30.5844 70.5941C29.5447 67.8255 28.377 65.0952 27.2413 62.3793C26.3935 60.3207 25.3378 57.7728 24.1914 55.1384C23.5089 53.5646 22.8158 51.9571 22.0373 50.4168C21.5894 49.5387 21.1096 48.6798 20.6244 47.8496ZM19.0408 48.2479L19.1794 52.4225C19.7286 57.0098 19.9952 61.6163 20.4377 66.2036C20.6244 68.1565 20.843 70.0951 21.1202 72.0529C21.6801 76.0931 21.6694 80.0998 21.3335 84.0921C20.9443 88.6986 20.2085 93.2715 19.5686 97.8444C19.0408 101.654 18.5502 105.445 18.5556 109.289C18.5769 109.289 18.5982 109.289 18.6196 109.289C18.8968 109.341 19.0728 109.591 19.0141 109.836C18.7742 111.098 18.7262 112.321 18.8115 113.53C18.9181 114.245 19.0568 114.956 19.2274 115.67C19.5526 117.009 20.0112 118.334 20.4591 119.663C21.0136 121.299 21.6801 122.873 22.144 124.528C22.2666 124.979 22.3092 125.392 22.3945 125.824C22.4212 125.891 22.4212 125.953 22.3945 126.006C22.5545 126.453 22.7091 126.899 22.8638 127.345C22.7518 126.486 22.6558 125.608 22.5758 124.744C22.3199 121.846 22.1813 118.962 22.1333 116.083C22.0906 113.218 22.1493 110.335 22.2559 107.451C22.6665 98.3242 23.5836 89.3464 23.8022 80.2869C23.8981 76.4578 23.8768 72.5999 23.6209 68.7228C23.3543 64.6633 22.9224 60.6374 22.016 56.7267C21.3388 53.8285 20.3791 50.9974 19.0408 48.2479ZM-60.3569 86.6305C-60.3889 86.7264 -60.4102 86.7936 -60.4155 86.8128L-60.4528 87.9692L-60.4315 89.2312C-60.3515 92.163 -59.7597 95.2916 -58.6933 98.2906C-57.6376 101.256 -56.1073 104.054 -54.2838 106.472C-53.516 107.484 -52.6362 108.41 -51.7245 109.308C-50.8021 110.219 -49.837 111.098 -48.8133 111.909C-45.6621 114.428 -42.047 116.529 -38.5226 118.482C-38.0001 118.78 -37.4883 119.082 -36.9871 119.413C-35.1102 120.637 -33.3667 122.028 -31.4205 123.17C-29.8796 124.068 -28.216 124.811 -26.6325 125.656C-26.3872 125.79 -26.1366 125.92 -25.8967 126.054C-27.7362 123.885 -29.4584 121.649 -31.6551 119.644C-35.3715 116.265 -39.541 113.266 -43.3747 109.984C-44.3504 109.14 -45.3102 108.315 -46.2326 107.417C-47.3363 106.376 -48.3654 105.282 -49.3518 104.173C-50.8181 102.499 -52.1884 100.757 -53.564 99.0056C-54.705 97.5277 -55.7767 96.021 -56.7258 94.4471C-57.6802 92.8732 -58.512 91.2177 -59.1998 89.5287C-59.5624 88.617 -60.0316 87.6381 -60.3569 86.6305ZM-58.9279 85.45C-58.64 86.6784 -58.0321 87.8876 -57.5736 88.9817C-56.9071 90.6227 -56.0913 92.1774 -55.1849 93.7033C-54.2731 95.2244 -53.2654 96.7167 -52.1777 98.1611C-50.866 99.9125 -49.5544 101.654 -48.1361 103.329C-47.203 104.418 -46.2273 105.498 -45.1716 106.539C-43.8279 107.835 -42.4096 109.077 -40.938 110.253C-37.4563 113.036 -33.7186 115.584 -30.3595 118.482C-28.5626 120.008 -26.9897 121.683 -25.4914 123.372C-24.9582 123.986 -24.4304 124.596 -23.8972 125.21C-23.9238 125.095 -23.9452 124.979 -23.9665 124.859C-24.3557 122.906 -24.5797 120.853 -24.8196 118.866C-24.9742 117.571 -25.1182 116.299 -25.4168 115.09C-25.9926 112.638 -26.8937 110.085 -27.9974 107.633C-29.0905 105.181 -30.3595 102.811 -32.0284 100.776C-34.1238 98.1754 -36.5658 96.4048 -39.3278 95.0277C-40.4901 94.4663 -41.7058 93.9672 -42.9641 93.5018C-44.8036 92.8396 -46.7285 92.2782 -48.6693 91.5488C-49.2451 91.3329 -49.789 91.069 -50.3222 90.7859C-51.4845 90.1717 -52.5723 89.4471 -53.7506 88.8665C-54.3691 88.5498 -54.945 88.2043 -55.4995 87.854C-56.6725 87.0911 -57.7336 86.2466 -58.9279 85.45ZM144.805 120.771C146.511 117.739 148.606 114.888 150.489 111.942C154.056 106.342 157.655 100.757 160.758 94.9605C164.192 88.569 167.151 81.976 169.246 75.0663C170.478 71.0884 171.555 67.1825 172.403 63.2238C172.968 60.6038 173.443 57.9695 173.736 55.2536L174.21 50.7959C173.922 51.3765 173.672 51.9427 173.437 52.3889C173.272 52.7536 173.112 53.0991 172.952 53.4494C173.011 53.4014 173.096 53.4014 173.176 53.4158C173.309 53.4494 173.384 53.579 173.347 53.6989C172.275 57.125 171.379 60.6566 170.302 64.1163C169.577 66.4531 168.761 68.7563 167.817 70.9924C166.42 74.2889 164.911 77.5327 163.323 80.7668C159.633 88.2859 155.565 95.6563 151.912 103.161C150.563 105.91 149.22 108.727 147.956 111.558C147.114 113.449 146.303 115.335 145.562 117.225C144.97 118.698 144.453 120.258 143.84 121.779C144.005 121.616 144.165 121.448 144.33 121.285C144.49 121.117 144.65 120.934 144.805 120.771ZM172.723 53.9292C171.8 55.935 170.867 57.9023 169.865 59.8409C169.028 61.4819 168.127 63.0894 167.204 64.7113C165.701 67.2976 164.09 69.8504 162.475 72.384C158.737 78.2476 154.882 84.0777 151.603 90.1429C149.63 93.8185 147.881 97.5948 146.538 101.539C145.061 106.011 145.397 110.666 144.895 115.205C145.455 113.828 146.047 112.456 146.66 111.078C147.924 108.247 149.273 105.416 150.622 102.648C154.29 95.162 158.332 87.7533 162.086 80.2678C163.685 77.072 165.247 73.8571 166.682 70.5941C167.417 68.9531 168.057 67.264 168.681 65.5558C170.094 61.6979 171.331 57.7536 172.723 53.9292ZM232.568 76.9856C231.912 77.3215 231.283 77.6814 230.617 78.0173C229.342 78.6459 228.036 79.2265 226.724 79.7879C225.77 80.2006 224.794 80.5653 223.792 80.882C219.633 82.1391 215.383 83.3148 211.075 84.3416C209.15 84.8071 207.21 85.2053 205.274 85.6372C200.731 86.6305 196.189 87.5901 191.667 88.3339C188.745 88.8329 185.941 89.4471 183.184 90.2053C180.427 90.9538 177.719 91.8463 174.946 92.806C173.293 93.4058 171.688 94.0488 170.185 94.8118C169.796 95.0757 169.412 95.3444 169.033 95.6227C168.772 95.8914 168.516 96.1553 168.26 96.4192C167.273 97.4605 166.33 98.5401 165.402 99.6486C165.935 99.4854 166.484 99.3703 167.039 99.2503C168.868 98.9048 170.809 98.8856 172.808 98.972C175.543 99.1015 178.391 99.4182 181.168 99.5478C182.315 99.615 183.451 99.5814 184.581 99.519C186.314 99.399 188.031 99.1831 189.764 98.972C193.992 98.4586 198.241 97.7436 202.347 96.6496C204.373 96.1025 206.356 95.4403 208.292 94.6966C210.206 93.9528 212.083 93.1227 213.869 92.0959C215.314 91.2849 216.727 90.3204 218.103 89.3128C220.214 87.7533 222.251 86.0642 224.229 84.5431C226.452 82.8013 228.879 81.1603 230.819 79.1593C231.475 78.4779 232.056 77.7486 232.568 76.9856ZM230.83 76.8369L225.685 77.3023C222.939 77.5662 220.225 77.8829 217.516 78.2476C214.813 78.6123 212.115 79.025 209.406 79.5048C201.403 80.7812 192.947 83.1996 185.061 86.5969C181.472 88.1516 178.017 89.927 174.754 91.8655C177.532 91.0354 180.257 90.2916 183.003 89.6247C185.807 88.9625 188.628 88.3531 191.576 87.902C196.94 86.9951 202.363 85.9347 207.7 84.5575C210.889 83.7274 214.013 82.7533 217.138 81.7936C219.233 81.1459 221.323 80.5173 223.376 79.8359C225.653 79.1065 227.706 77.9645 229.929 77.1536C230.228 77.0384 230.526 76.9377 230.83 76.8369ZM156.146 3.81935C156.194 3.76657 156.268 3.73778 156.348 3.75218C156.482 3.76657 156.583 3.86734 156.572 3.9825C156.332 8.2243 155.373 12.4805 153.858 16.6407C151.619 22.8019 148.255 28.7327 145.189 34.2845C142.725 38.6703 140.262 43.0464 137.713 47.3842C136.012 50.2824 134.274 53.1519 132.488 56.0165C129.694 60.4407 126.527 65.0952 124.053 69.932C122.411 73.1469 121.067 76.4434 120.401 79.8359C120.395 79.8695 120.385 79.9223 120.369 79.9511C120.342 80.2869 120.321 80.6132 120.294 80.9491C120.763 80.0998 121.296 79.2553 121.867 78.4444C125.093 73.8907 129.923 69.9128 133.688 66.0404C134.711 64.98 135.629 63.9195 136.466 62.9071C142.459 55.388 147.791 47.8496 151.694 39.8987C152.685 37.8785 153.618 35.8392 154.413 33.7519C155.725 30.3402 156.706 26.7942 157.297 23.0994C157.863 19.6061 158.103 15.9594 157.873 12.135C157.809 10.0621 157.692 7.75885 157.292 5.54198C157.186 4.96138 157.084 4.39996 156.919 3.83375C156.839 3.58423 156.759 3.33951 156.663 3.10439L156.146 3.81935ZM97.8306 32.5283C97.8199 32.5091 97.8092 32.5091 97.7986 32.4947C97.6866 33.0417 97.6813 33.6031 97.7133 34.1502C97.8039 35.7384 98.3104 37.3651 98.5877 38.8862C98.9716 41.3574 99.4888 43.7902 100.107 46.2086C101.04 49.889 102.16 53.4974 103.099 57.1922C103.498 58.7325 103.861 60.2919 104.304 61.813C104.591 62.8063 104.922 63.7996 105.317 64.7641C105.972 66.3379 106.692 67.9118 107.497 69.4521C108.297 70.9588 109.188 72.4319 110.195 73.8571C112.093 76.4434 115.613 78.2812 117.959 80.6324L117.964 80.5844C117.82 80.3829 117.671 80.1862 117.543 79.9702C117.463 79.8359 117.415 79.6871 117.345 79.5384C116.444 77.5854 115.303 75.7141 114.274 73.7899C113.698 72.7294 113.165 71.6546 112.717 70.5414L107.604 57.1586C105.652 52.173 103.984 47.0051 102.048 41.9524C100.891 38.9198 99.6381 35.9544 98.1292 33.0897C98.0278 32.8882 97.8786 32.725 97.8306 32.5283ZM100.646 35.3738C101.264 36.5494 101.846 37.7586 102.389 38.987C104.954 44.7691 106.81 50.863 109.156 56.6643L114.381 69.9991C115.175 71.9041 116.247 73.7227 117.287 75.5461C117.185 75.0519 117.089 74.5384 116.988 74.0058C116.14 69.5481 114.914 65.1767 113.464 60.8677C112.008 56.5636 110.329 52.3074 108.345 48.1471C107.177 45.6808 105.882 43.2624 104.437 40.9111C103.274 39.0014 102.011 37.1492 100.646 35.3738ZM156.098 3.88653L154.973 5.46041L150.915 10.873C149.364 12.8644 147.892 14.9181 146.474 17.0054C144.33 20.134 142.315 23.3489 140.374 26.5639C138.876 29.0302 137.441 31.5158 136.018 33.9822C133.864 37.7298 131.774 41.4534 129.891 45.2633C128.948 47.1683 128.063 49.0924 127.199 51.031C125.242 55.4215 123.472 59.9081 122.085 64.5817C121.595 67.7439 121.211 70.8581 120.902 73.9051C121.446 72.3984 122.091 70.906 122.805 69.4329C125.183 64.5145 128.329 59.7929 131.07 55.3016C133.272 51.7412 135.389 48.1327 137.468 44.5051C139.553 40.8775 141.6 37.2307 143.648 33.5839C146.762 28.1185 149.998 22.2213 152.488 16.2089C154.152 12.183 155.527 8.09474 156.076 3.95371C156.082 3.93451 156.087 3.90093 156.098 3.88653ZM18.9235 45.1817C18.9661 45.2009 19.0034 45.2153 19.0461 45.2489C19.0034 45.1673 18.9608 45.1001 18.9181 45.033L18.9235 45.1817Z" fill="white"/>
</g>
</g>
</svg>
