<svg width="227" height="149" viewBox="0 0 227 149" fill="none" xmlns="http://www.w3.org/2000/svg">
<mask id="mask0_1326_1066" style="mask-type:luminance" maskUnits="userSpaceOnUse" x="127" y="0" width="34" height="12">
<path d="M127.545 0H160.482V11.2617H127.545V0Z" fill="white"/>
</mask>
<g mask="url(#mask0_1326_1066)">
<path d="M137.917 0.122454L137.52 0.140811C136.436 0.238712 135.161 0.728217 133.688 1.61239C132.53 2.37112 131.498 3.12374 130.592 3.87329C129.842 4.43623 128.908 5.36629 127.794 6.65736L129.921 6.77668C131.128 5.67223 132.289 4.81559 133.4 4.20371L134.227 3.78763C134.772 3.54288 135.306 3.35931 135.826 3.23694C136.346 3.11456 136.855 3.05031 137.353 3.05031C138.279 3.20328 138.933 3.57041 139.313 4.15782C139.453 4.36892 139.554 4.60755 139.623 4.87372L140.228 7.7924C140.679 8.63374 141.106 9.08347 141.506 9.14466C141.689 9.20891 141.966 9.18749 142.333 9.07735C142.648 8.97945 143.417 8.59703 144.638 7.93007C144.92 7.80464 145.243 7.6945 145.612 7.60272C145.916 7.52929 146.256 7.48034 146.625 7.46198C146.967 7.44363 147.364 7.45281 147.819 7.48952C147.816 7.47422 147.843 7.4681 147.901 7.46504L148.131 7.48952C148.728 7.55377 151.314 8.22684 155.889 9.51179C157.096 9.93093 158.333 10.4266 159.604 11.0017C159.825 11.0874 159.976 11.1272 160.05 11.118C160.083 11.1149 160.107 11.1088 160.126 11.0966C159.762 10.5214 159.346 9.95235 158.875 9.39859C158.407 8.84178 157.884 8.2972 157.31 7.76181C157.088 7.48034 156.105 6.70325 154.364 5.42442C153.628 4.92267 152.842 4.42705 152.002 3.94672C150.567 3.27671 149.587 2.97383 149.064 3.03807C148.325 2.97995 147.329 3.37155 146.078 4.20983C145.853 4.28937 145.588 4.29855 145.287 4.2343C145.174 4.2343 144.788 4.01403 144.123 3.57347C142.768 2.64953 141.503 1.75312 140.329 0.887307C139.286 0.330495 138.481 0.0765629 137.917 0.122454Z" fill="#2C9A7F"/>
</g>
<path d="M196.938 31.9561L198.729 35.2113C201.236 36.3647 202.772 37.1754 203.341 37.6435C204.275 38.2799 204.976 38.904 205.436 39.5159C206.021 40.3235 206.391 41.0578 206.547 41.7186L206.993 47.039C207.196 47.4856 207.527 47.9445 207.984 48.4188C208.233 48.6482 208.502 48.7583 208.789 48.7583C209.331 48.7614 210.262 48.1067 211.59 46.7973C214.007 43.0189 216.011 40.4062 217.596 38.956C218.001 38.5063 220.694 37.1907 225.682 35.0063C226.588 34.4831 227.026 34.1497 226.999 34.012C226.67 33.8039 225.767 33.8651 224.286 34.1925C220.725 35.0491 218.491 35.7222 217.59 36.2117C216.35 36.7685 214.168 38.39 211.045 41.0792C210.445 41.4616 209.942 41.636 209.536 41.5963C209.156 41.5473 208.852 41.3913 208.622 41.1251C207.502 39.2833 206.689 38.1177 206.183 37.6343C205.504 36.8634 204.776 36.1964 204.007 35.6335C203.448 35.199 202.901 34.8013 202.359 34.4403L201.551 33.9233C201.017 33.599 200.492 33.3083 199.972 33.0513C198.934 32.5435 197.921 32.1763 196.938 31.9561Z" fill="#2C9A7F"/>
<path d="M161.395 91.0751L160.99 91.0935C160.437 91.1455 159.829 91.2984 159.169 91.5554C157.943 92.0908 157.067 92.5559 156.541 92.9444C155.285 93.801 154.297 94.8657 153.582 96.1415L156.796 96.0864C158.956 95.7132 160.527 95.3675 161.513 95.0432C161.77 94.985 162.123 94.9422 162.577 94.9085C163.39 94.8657 164.151 95.0829 164.861 95.5541C166.418 96.6646 167.655 98.3963 168.575 100.755C168.868 101.45 168.994 102.129 168.948 102.79C168.926 103.12 168.86 103.447 168.75 103.769C168.406 104.567 168.148 105.041 167.976 105.188C168.063 105.733 168.507 106.06 169.301 106.17C169.895 106.118 170.872 105.693 172.23 104.894C173.475 104.029 175.197 102.735 177.393 101.012C178.34 100.385 179.002 100.039 179.38 99.9688C181.105 100.183 182.602 100.596 183.872 101.211C184.236 101.303 185.178 101.872 186.692 102.915C187.281 103.368 187.845 103.867 188.381 104.417C188.137 103.759 187.875 103.141 187.59 102.56C186.484 100.229 184.948 98.537 182.983 97.4846C182.446 97.249 181.893 97.0807 181.318 96.9828C180.93 96.8788 180.155 96.8482 178.991 96.891C178.074 96.992 176.076 97.5366 172.996 98.5217C172.55 98.6104 172.17 98.6013 171.855 98.4972C171.611 98.4789 171.107 98.1423 170.344 97.4846C167.721 94.8168 166.049 93.2198 165.326 92.6935C163.809 91.5615 162.498 91.02 161.395 91.0751Z" fill="#2C9A7F"/>
<path d="M85.5739 108.646H85.5383C84.1969 108.609 82.3875 108.741 80.1044 109.037C78.8643 109.206 77.4545 109.505 75.8695 109.934C75.5273 109.995 75.218 110.025 74.9415 110.035C74.5144 110.044 74.0135 110.013 73.4359 109.946C71.5005 109.603 70.3014 109.407 69.8361 109.362C68.7164 109.273 67.3942 109.288 65.8694 109.414C62.7432 109.661 60.43 110.191 58.9326 111.001L62.7788 110.322L63.2633 110.295C64.6622 110.212 66.1541 110.316 67.7473 110.61C69.0586 110.882 70.3781 111.326 71.7058 111.947C71.9713 112.072 72.7323 112.702 73.9916 113.834C74.2215 113.972 74.4433 114.049 74.6568 114.067C74.78 114.082 74.9935 114.012 75.2946 113.856C76.8358 112.776 77.7967 112.146 78.1799 111.968C78.8041 111.619 79.7951 111.277 81.1529 110.937C82.7406 110.598 84.4433 110.353 86.2555 110.203C87.1671 110.126 88.1061 110.071 89.0752 110.041L93.436 109.998C93.8165 110.001 94.1067 109.958 94.3092 109.872C94.4105 109.799 94.2435 109.704 93.8055 109.588L92.4094 109.392C88.8452 108.893 86.5676 108.646 85.5739 108.646Z" fill="#2C9A7F"/>
<path d="M5.0918 133.451L6.84106 134.803C8.02639 135.951 10.1562 137.548 13.2249 139.598C13.9147 140.16 14.4294 140.659 14.7661 141.091C15.2616 141.77 15.601 142.449 15.7817 143.128C16.0363 145.888 16.2334 147.39 16.3703 147.638C16.603 148.051 16.8439 148.347 17.0984 148.528C17.2736 148.721 17.6925 148.871 18.355 148.984C19.7511 149.091 21.035 148.653 22.2039 147.677L27.5858 141.736C28.7109 140.537 30.2521 139.301 32.2039 138.037C32.412 137.838 32.4503 137.658 32.3162 137.49C32.182 137.395 31.9192 137.395 31.525 137.487C30.7038 137.707 29.8114 137.976 28.8505 138.288C26.8193 139.016 25.4697 139.61 24.7963 140.075C24.194 140.427 23.5562 140.901 22.8855 141.497C22.4256 141.92 21.6482 142.908 20.5504 144.459C20.2329 144.753 20.0002 144.881 19.8524 144.851C19.595 144.851 19.2036 144.56 18.6725 143.972C15.768 140.078 13.6957 137.633 12.4557 136.648C10.8104 135.495 9.53475 134.73 8.62864 134.357L7.8594 134.032C7.3557 133.843 6.87391 133.699 6.41401 133.601C5.95411 133.503 5.51337 133.454 5.0918 133.451Z" fill="#2C9A7F"/>
<path d="M41.1425 52.8359L40.8386 52.8421C40.2254 52.8757 39.6259 53.0011 39.0401 53.2184C38.019 53.6406 37.3182 54.0291 36.9295 54.3901C36.4066 54.7144 35.3171 56.1279 33.6609 58.6366C33.3379 59.0007 33.0066 59.2087 32.6644 59.2576C32.3086 59.2821 31.8979 59.0986 31.4326 58.71C29.5547 56.0391 27.9888 54.5309 26.7296 54.179C26.0534 53.9159 25.5689 53.7752 25.2759 53.7507C24.8927 53.6895 24.493 53.6681 24.0797 53.6895C23.2365 53.7385 22.3852 53.9771 21.5283 54.4024L23.0887 54.3809C23.5951 54.6746 24.0687 55.0295 24.5122 55.4456C25.1473 56.0667 25.4867 56.443 25.5305 56.5745L27.4577 59.7777C27.663 60.0745 28.049 60.4631 28.6157 60.9464C29.3849 61.5247 30.4799 61.8275 31.9007 61.8612C32.4153 61.8306 32.7904 61.7174 33.0258 61.5185C33.8908 60.3254 35.4457 59.1414 37.6877 57.9666C39.2673 57.1314 40.3623 56.6113 40.9727 56.4063C42.6207 55.8036 43.9046 55.3997 44.8244 55.1886L44.9832 55.0387C45.35 54.6349 45.235 54.2157 44.641 53.7813C44.2358 53.5365 43.5788 53.2826 42.67 53.0226C42.1526 52.8971 41.6434 52.8359 41.1425 52.8359Z" fill="#2C9A7F"/>
<mask id="mask1_1326_1066" style="mask-type:luminance" maskUnits="userSpaceOnUse" x="0" y="27" width="39" height="11">
<path d="M0 27.709H38.5439V37.1075H0V27.709Z" fill="white"/>
</mask>
<g mask="url(#mask1_1326_1066)">
<path d="M3.26897 28.2754H2.91857C1.98235 28.2907 1.00506 28.358 -0.0078125 28.4773L3.07734 28.7282C4.59118 29.1443 6.4034 29.9183 8.51127 31.0503C10.1182 31.91 11.4541 32.7207 12.5135 33.4795C13.0281 33.8313 13.5592 34.7277 14.1067 36.1748C14.2682 36.3186 14.4653 36.4073 14.7035 36.4471C15.0484 36.5083 15.4399 36.4807 15.8861 36.3675C17.7229 35.5782 19.0835 35.1224 19.9704 35.003C21.331 34.7766 22.8858 34.6634 24.6324 34.6665C25.8944 34.6634 27.4903 34.7766 29.4202 34.9969C30.3921 35.1101 31.4597 35.2478 32.6176 35.413C35.6727 35.878 37.619 36.1931 38.4512 36.3522C33.3814 34.5319 29.9541 33.455 28.1719 33.1184C26.5021 32.8462 25.1744 32.7115 24.1889 32.7177C23.1569 32.684 21.8785 32.8584 20.3591 33.2408C20.0443 33.2745 19.6912 33.25 19.297 33.1674C13.4716 30.6679 9.9594 29.285 8.76038 29.0158C7.60242 28.6976 6.66346 28.5018 5.93529 28.4314C5.08393 28.3274 4.19424 28.2754 3.26897 28.2754Z" fill="#2C9A7F"/>
</g>
<path d="M58.6504 31.9561L59.9781 34.4984C62.4719 35.2572 64.2595 35.97 65.3408 36.6431C67.7772 38.2126 69.4662 39.7239 70.4025 41.1771C71.2045 42.4131 71.4345 43.5115 71.095 44.4691C70.876 45.3746 70.1506 46.5433 68.9215 47.9721C68.7955 48.2535 68.7955 48.4065 68.9133 48.4371C69.4909 48.4769 70.2163 48.3453 71.0896 48.0424L75.7187 45.8978L81.9985 43.8327C83.7861 43.3279 85.653 42.8598 87.6049 42.4315C88.6561 42.0735 89.1625 41.8012 89.1269 41.6146C88.3248 41.1649 86.6029 40.709 83.9585 40.2409C83.0141 40.091 81.9711 40.0788 80.8296 40.2042C79.814 40.2991 78.6177 40.6264 77.2434 41.1924C76.6631 41.4433 75.642 42.1806 74.1802 43.4013C73.9448 43.5298 73.7559 43.5635 73.6135 43.5023C72.5733 41.5748 71.9491 40.4826 71.7493 40.2256C71.3332 39.574 70.9116 38.9713 70.4818 38.4175C69.625 37.3131 68.7381 36.4014 67.8237 35.6855C67.3885 35.2786 66.4194 34.7493 64.9138 34.0976C64.0104 33.703 62.3624 33.2165 59.9726 32.6414C59.5921 32.522 59.1514 32.2956 58.6504 31.9561Z" fill="#2C9A7F"/>
<path d="M80.1871 64.8379L80.1543 66.6001C81.1672 67.5699 82.2074 68.4694 83.2778 69.3016L84.9011 70.5009C86.2835 71.4248 87.1212 71.9602 87.4169 72.104C88.5037 72.7128 89.2838 73.0952 89.7602 73.2452C90.2639 73.4654 91.389 73.7622 93.1382 74.1354C93.3928 74.215 93.62 74.3312 93.8226 74.4842C94.0224 74.6402 94.1949 74.8299 94.34 75.0563L96.7243 79.0213C97.0392 79.4374 97.3129 79.624 97.5483 79.5843C97.729 79.6271 98.0247 79.4252 98.438 78.9754C99.4591 76.8369 100.587 75.2858 101.824 74.3282C104.012 72.4742 107.135 70.2225 111.192 67.5761C112.459 66.4869 113.029 65.8353 112.897 65.6211C112.881 65.3519 112.366 65.3519 111.354 65.618C107.36 67.7566 104.066 69.3475 101.474 70.3907C99.4591 71.2841 97.9015 71.7032 96.801 71.6512C95.706 71.6971 94.0553 71.2351 91.8516 70.2683C89.3249 69.2037 86.3465 67.6495 82.9164 65.6027C82.5523 65.4192 82.0131 65.2203 81.2986 65.0092C80.9016 64.9083 80.5321 64.8501 80.1871 64.8379Z" fill="#2C9A7F"/>
</svg>
