<svg width="138" height="73" viewBox="0 0 138 73" fill="none" xmlns="http://www.w3.org/2000/svg">
<path d="M14.3779 11.8193C15.407 13.119 19.281 15.7725 26.5328 16.0061C34.0786 16.2496 35.5136 16.7608 38.407 17.797C38.99 18.0046 39.6332 18.2342 40.3966 18.4878C42.4815 19.1786 44.6265 19.9613 46.4223 20.6181C48.5455 21.3928 50.1777 21.9878 50.6404 22.0417C51.4941 22.1375 53.4419 21.6484 53.9698 21.0654C54.4994 20.4804 55.906 19.5739 56.9367 19.6478C57.7703 19.7097 59.3089 20.3566 59.3089 20.3566C59.3089 20.3566 60.8441 20.8238 61.9834 19.9473C62.548 19.512 65.3011 17.7211 68.004 15.9601C70.7421 14.1772 73.4249 12.4302 73.7323 12.1607C74.3421 11.6256 77.1068 10.0184 79.464 9.38743C81.8228 8.75452 93.3278 5.00697 95.7668 3.39973C96.9178 2.64103 98.0521 1.99215 98.9959 1.45108C100.052 0.84612 100.87 0.37493 101.214 0.0415033C101.864 -0.591408 97.1901 6.17496 90.1972 9.38743C83.2043 12.5979 69.3004 22.0417 69.3004 22.0417C69.3004 22.0417 64.6947 23.8765 64.0565 27.4504C63.7893 28.9458 63.8895 30.4313 63.978 31.749C64.0181 32.35 64.0565 32.915 64.0565 33.4301C64.0565 33.6936 64.0833 33.9991 64.1117 34.3046C64.2086 35.3867 64.3038 36.4569 63.1628 35.6203C62.0452 34.8017 61.8982 35.4926 61.7662 36.1255C61.7245 36.3211 61.6844 36.5108 61.6175 36.6486C61.3336 37.2336 59.9921 36.2592 58.6908 34.4583C57.4262 32.7073 56.9985 32.2481 55.2261 30.3434L55.0724 30.1757C51.454 26.2824 38.6893 21.9918 34.949 21.4088C31.2087 20.8238 17.7524 18.0985 14.3779 11.8193Z" fill="#2C9A7F"/>
<mask id="mask0_1326_1068" style="mask-type:luminance" maskUnits="userSpaceOnUse" x="43" y="56" width="42" height="17">
<path d="M43.5156 56.1787H84.1432V72.9998H43.5156V56.1787Z" fill="white"/>
</mask>
<g mask="url(#mask0_1326_1068)">
<path d="M43.6992 61.5339C44.1753 62.1209 45.9595 63.3209 49.3005 63.4267C52.7769 63.5365 53.4385 63.7681 54.7716 64.2353C55.0405 64.3291 55.3362 64.4329 55.6887 64.5467C56.6493 64.8602 57.6366 65.2136 58.4635 65.5091H58.4651C59.4424 65.8605 60.1958 66.13 60.408 66.154C60.8022 66.1979 61.1196 66.13 61.3635 65.8665C61.6074 65.6029 61.8513 65.4272 62.5446 65.5151C62.5931 65.5251 62.6398 65.539 62.6883 65.553C62.862 65.6069 63.0758 65.6728 63.6305 65.6029C63.8192 65.581 64.0113 65.569 64.2018 65.559C64.7314 65.5291 65.2492 65.4991 65.6351 65.2076C65.8941 65.01 67.1637 64.2013 68.4082 63.4047C69.6695 62.6001 70.9057 61.8095 71.0477 61.6877C71.3283 61.4461 72.603 60.7213 73.6888 60.4338C74.7747 60.1483 80.077 58.4552 81.1996 57.7285C81.7308 57.3871 82.252 57.0936 82.688 56.848C83.1741 56.5745 83.5517 56.3628 83.7104 56.2111C84.0094 55.9256 81.8561 58.9823 78.6336 60.4338C75.4128 61.8853 69.0063 66.154 69.0063 66.154C69.0063 66.154 66.883 66.9826 66.589 68.5978C66.467 69.2746 66.5122 69.9455 66.5539 70.5404C66.5723 70.812 66.589 71.0675 66.589 71.2991C66.589 71.4189 66.6024 71.5587 66.6157 71.6945C66.6592 72.1836 66.7043 72.6668 66.178 72.2894C65.6618 71.9201 65.595 72.2335 65.5349 72.519C65.5148 72.6069 65.4965 72.6927 65.4664 72.7546C65.3344 73.0182 64.7163 72.5789 64.1166 71.7643C63.5352 70.9737 63.3381 70.7661 62.5212 69.9055L62.4494 69.8297C60.7839 68.0707 54.9019 66.13 53.1779 65.8665C51.4555 65.6029 45.2545 64.3711 43.6992 61.5339Z" fill="#2C9A7F"/>
</g>
<path d="M4.18972 43.7618C1.68892 43.6819 0.354155 42.7895 0 42.3522C1.1627 44.4646 5.80013 45.383 7.08979 45.5787C8.37945 45.7763 12.7797 47.2199 14.0276 48.5296L14.081 48.5855C14.6908 49.2284 14.8378 49.3821 15.2738 49.9711C15.7232 50.5781 16.1859 50.9055 16.2828 50.7079C16.3062 50.6619 16.3195 50.5981 16.3346 50.5322C16.3797 50.3205 16.4298 50.0869 16.8157 50.3625C17.2099 50.644 17.1765 50.2846 17.1431 49.9192C17.1331 49.8174 17.1247 49.7136 17.1247 49.6257C17.1247 49.452 17.1114 49.2624 17.0963 49.0587C17.0663 48.6155 17.0329 48.1163 17.1247 47.6132C17.3436 46.4113 18.9323 45.7923 18.9323 45.7923C18.9323 45.7923 23.7251 42.6138 26.1356 41.5336C28.5446 40.4535 30.1566 38.1754 29.9328 38.389C29.8142 38.5009 29.5319 38.6586 29.1677 38.8622C28.8419 39.0459 28.451 39.2635 28.0551 39.5191C27.2131 40.0602 23.2473 41.32 22.4354 41.5336C21.6218 41.7473 20.6696 42.2863 20.4591 42.468C20.3539 42.5579 19.4284 43.1469 18.4846 43.7458C17.5541 44.3388 16.6035 44.9418 16.4097 45.0875C16.1207 45.3052 15.7332 45.3271 15.3373 45.3491C15.1953 45.3571 15.0516 45.3651 14.9096 45.383C14.4953 45.4349 14.3349 45.385 14.2046 45.3471C14.1679 45.3351 14.1345 45.3251 14.0977 45.3171C13.5782 45.2512 13.3961 45.383 13.214 45.5787C13.0319 45.7763 12.793 45.8263 12.499 45.7923C12.3403 45.7743 11.7773 45.5747 11.0456 45.3131C10.4259 45.0935 9.68748 44.83 8.96748 44.5964C8.7052 44.5125 8.48302 44.4346 8.28255 44.3648C7.28524 44.0154 6.79076 43.8437 4.18972 43.7618Z" fill="#2C9A7F"/>
<path d="M89.0215 22.3655C89.5694 23.1302 91.6776 24.7554 95.7354 25.1288C99.9602 25.5181 100.75 25.8536 102.349 26.5344C102.67 26.6721 103.024 26.8219 103.447 26.9896C104.599 27.4488 105.784 27.9619 106.773 28.3912C107.945 28.8983 108.846 29.2877 109.105 29.3336C109.581 29.4174 110.683 29.2058 110.994 28.8943C111.303 28.5829 112.113 28.1197 112.69 28.1955C113.154 28.2574 114.001 28.6747 114.001 28.6747C114.001 28.6747 114.851 28.9902 115.51 28.5329C115.837 28.3073 117.422 27.3889 118.979 26.4885C120.555 25.576 122.1 24.6816 122.279 24.5398C122.633 24.2583 124.22 23.4457 125.556 23.1682C126.893 22.8906 133.43 21.1656 134.833 20.341C135.498 19.9537 136.148 19.6243 136.689 19.3507C137.295 19.0453 137.765 18.8077 137.965 18.632C138.346 18.2965 135.566 21.9523 131.572 23.5276C127.576 25.1028 119.562 29.9565 119.562 29.9565C119.562 29.9565 116.938 30.837 116.495 32.8296C116.31 33.6621 116.332 34.5027 116.35 35.2474C116.358 35.5868 116.367 35.9063 116.355 36.1978C116.348 36.3455 116.357 36.5192 116.365 36.6909C116.393 37.3039 116.422 37.9108 115.802 37.4017C115.194 36.9026 115.097 37.2879 115.007 37.6393C114.98 37.7471 114.952 37.8529 114.912 37.9288C114.738 38.2482 114.009 37.6553 113.323 36.5971C112.655 35.5688 112.427 35.2953 111.479 34.1633L111.397 34.0634C109.461 31.7494 102.408 28.9063 100.324 28.4531C98.2429 27.9999 90.7655 26.0133 89.0215 22.3655Z" fill="#2C9A7F"/>
</svg>
