<svg width="772" height="1248" viewBox="0 0 772 1248" fill="none" xmlns="http://www.w3.org/2000/svg">
<path d="M1081.76 351.561C1081.76 351.561 1088.57 389.044 1081.76 351.6C1074.94 314.156 559.562 -12.5332 448.287 0.877651C310.852 17.4412 216.493 -24.5388 123.752 78.2318C50.3397 159.585 -11.2388 230.35 2.50319 339.065C16.3452 448.571 67.7385 506.005 138.69 590.557C198.639 661.999 350.358 663.824 378.237 752.821C401.014 825.532 287.883 994.719 313.914 1066.33C338.725 1134.58 392.429 1190.9 455.462 1226.98C580.362 1298.46 739.272 1166.8 825.918 1084.74C912.564 1002.67 1029.82 927.827 1085.39 782.546C1145.52 625.337 1081.76 351.561 1081.76 351.561Z" fill="#89C190" fill-opacity="0.5"/>
</svg>
