<svg width="326" height="421" viewBox="0 0 326 421" fill="none" xmlns="http://www.w3.org/2000/svg">
<path d="M126.88 413.039C126.88 412.612 126.776 412.19 126.776 411.763C126.88 410.706 126.458 409.961 125.609 409.43C124.865 409.008 124.333 408.372 123.698 407.737C122 406.247 120.833 404.445 120.089 402.326C119.563 400.945 118.714 399.565 118.182 398.19C117.333 396.174 116.589 394.049 116.057 391.93C115.531 389.914 115.104 387.898 115.104 385.779C115.104 385.461 115.214 385.143 115.104 384.826C114.573 383.232 114.786 381.643 114.786 380.049C114.786 379.096 114.891 378.143 114.469 377.185C114.365 376.763 114.365 376.336 114.365 375.914C114.365 374.852 114.365 373.685 114.042 372.628C113.938 372.201 113.938 371.779 113.938 371.352C113.938 361.914 113.938 352.471 113.938 342.924C113.938 342.289 113.938 341.758 114.151 341.122C114.255 340.701 114.255 340.169 114.255 339.638C114.255 338.367 114.255 337.091 114.255 335.82C114.255 334.758 114.151 333.805 114.573 332.742C114.682 332.32 114.682 331.789 114.682 331.258C114.682 330.94 114.682 330.513 114.682 330.195C114.786 328.289 115.104 328.076 117.016 328.076C129.849 328.076 142.792 328.076 155.63 328.076C156.693 328.076 157.646 328.18 158.708 327.862C159.13 327.758 159.661 327.758 160.193 327.758C177.375 327.758 194.562 327.758 211.641 327.758C211.958 327.758 212.281 327.758 212.599 327.758C213.448 327.758 213.656 327.971 213.656 328.924C213.656 329.878 213.656 330.836 213.656 331.893C213.656 334.44 213.656 336.987 213.656 339.638C213.656 340.909 213.552 342.185 213.974 343.456C214.083 343.883 214.083 344.409 214.083 344.94C214.083 347.273 214.083 349.607 214.083 351.94C214.083 353.107 214.083 354.383 214.401 355.549C214.615 356.398 214.615 357.247 214.401 358.096C214.188 358.836 214.188 359.685 214.188 360.43C214.188 363.289 214.188 366.154 214.188 369.018C214.188 370.398 214.188 371.779 213.87 373.154C213.656 374.43 213.766 375.701 213.766 376.977C213.766 378.669 213.448 380.263 213.234 381.852C213.021 383.867 212.599 385.779 212.281 387.794C211.958 389.279 211.75 390.763 211.219 392.247C209.839 395.643 208.354 399.143 206.443 402.326C205.594 403.706 204.536 404.872 203.578 406.143C203.156 406.674 202.729 407.31 202.203 407.841C201.458 408.581 201.354 409.326 201.354 410.279C201.354 411.237 201.354 412.086 201.354 413.039C200.078 412.508 200.927 411.341 200.292 410.279C198.38 411.872 196.474 413.357 194.349 414.628C192.547 415.69 190.745 416.857 188.516 416.961C187.245 416.753 185.969 417.174 184.698 417.492C182.469 417.919 180.24 418.128 178.12 418.555C176.104 418.977 174.089 418.555 172.177 419.19C171.651 419.404 171.01 419.19 170.375 419.294C168.995 419.294 167.724 419.19 166.344 419.612C165.922 419.721 165.391 419.612 164.859 419.721C163.693 419.721 162.417 419.826 161.25 419.935C159.875 420.143 158.385 420.143 156.901 419.826C155.63 419.508 154.354 419.612 153.083 419.294C151.917 418.977 150.75 418.872 149.479 418.659C148.417 418.445 147.354 418.237 146.292 418.237C144.068 418.128 141.839 417.492 139.719 417.174C138.87 417.706 138.229 417.07 137.49 416.857C134.094 415.586 131.125 413.779 128.047 411.872C127.307 411.977 127.729 412.93 126.88 413.039Z" fill="#F0DDCE"/>
<path d="M315.287 205.143C315.287 205.034 315.287 205.034 315.287 205.143V205.143ZM320.167 229.856C319.85 228.263 318.896 226.992 317.73 225.929C316.032 224.445 314.652 222.856 313.485 220.945C312.532 219.565 311.365 218.398 309.985 217.549C308.605 216.7 307.225 215.851 305.85 215.112C304.891 214.58 303.938 213.945 303.193 213.2C300.86 211.08 298.105 209.7 295.131 208.747C291.844 207.685 288.553 206.731 285.266 206.096C283.995 205.778 282.615 205.565 281.235 205.669C278.475 205.987 275.615 205.882 272.855 206.2C267.021 206.731 261.183 207.685 255.563 209.382C255.245 209.492 255.032 209.596 254.714 209.382C254.928 209.169 255.032 209.065 255.245 208.961C256.626 208.002 258.001 206.945 259.49 205.987C260.761 205.143 262.032 204.294 263.412 203.653C267.657 201.851 272.006 200.153 276.459 198.778C279.006 198.034 281.553 197.08 284.1 196.122C287.386 194.851 290.678 193.58 294.178 192.731C297.995 191.882 301.923 191.138 305.636 189.44C306.271 189.122 306.589 189.231 307.12 189.763C307.865 190.606 308.391 191.565 308.923 192.518C310.834 196.231 312.74 200.049 314.756 203.763C314.969 204.185 315.183 204.716 315.605 205.034C315.605 204.82 315.605 204.612 315.501 204.398C314.12 200.263 312.74 196.231 311.365 192.096C311.152 191.351 310.725 190.606 310.407 189.971C309.985 189.018 309.35 188.382 308.391 187.955C306.376 187.106 304.36 186.153 302.344 185.304C301.605 184.987 300.969 184.882 300.225 184.882C298.105 184.882 296.089 185.2 294.074 185.304C291.844 185.414 289.725 185.836 287.6 186.471C284.417 187.429 281.553 188.804 278.798 190.502C272.855 194.002 266.912 197.502 260.975 201.002C256.199 203.763 251.532 206.836 247.183 210.231C246.652 210.659 246.016 211.08 245.381 211.502C242.834 212.992 240.287 214.685 237.844 216.382C237.423 216.596 237.105 217.018 236.574 217.018C236.574 216.914 236.469 216.914 236.469 216.81C236.787 216.065 237.105 215.216 237.527 214.476C238.058 213.2 238.803 212.034 239.756 211.185C241.027 209.914 242.089 208.429 242.938 206.731C244.105 204.612 245.485 202.596 247.074 200.685C249.412 198.034 251.636 195.278 253.969 192.622C255.245 191.138 256.303 189.549 257.365 187.851C258.318 186.367 259.49 184.882 260.548 183.398C260.975 182.867 261.292 182.231 262.141 182.231C262.99 181.487 263.943 180.851 264.365 179.685C265.641 178.304 267.339 177.455 268.61 176.289C268.719 176.185 268.928 176.075 269.141 176.075C269.568 175.867 269.99 175.867 270.308 176.289C270.943 177.138 271.792 177.773 272.641 178.304C274.87 179.789 277.1 181.273 279.219 182.971C279.433 183.185 279.646 183.398 279.964 183.289C280.068 182.867 279.646 182.653 279.433 182.549C278.157 181.7 277.204 180.534 276.141 179.367C274.553 177.669 272.959 175.971 271.37 174.273C270.943 173.851 270.521 173.638 269.99 173.534C267.761 173.32 265.537 173.106 263.199 173.216C262.245 173.216 261.396 173.216 260.443 173.106C259.808 173.32 259.381 173.955 258.959 174.382C258.001 175.336 257.152 176.398 256.094 177.138C255.245 177.242 254.818 177.987 254.287 178.622C251.636 181.7 248.985 184.987 246.652 188.382C246.438 188.7 246.12 189.018 245.803 189.336C243.042 193.153 240.605 197.185 238.376 201.32C235.511 206.731 233.391 212.351 232.756 218.398C232.646 219.247 232.329 219.882 231.693 220.414C227.449 223.382 223.844 227.096 219.704 230.705C220.662 228.58 221.719 226.882 222.146 224.872C223.844 216.7 227.558 209.492 232.12 202.596C233.813 199.945 235.407 197.185 236.256 194.112C237.209 190.606 238.907 187.534 241.35 184.882C242.193 183.716 243.042 182.44 244.423 181.914C245.699 180.32 247.605 179.789 249.303 178.836C249.834 178.622 250.469 178.304 250.365 177.773C250.152 177.138 249.412 177.351 248.985 177.565C247.183 178.091 245.271 178.304 243.574 179.049C243.469 179.153 243.365 179.367 243.152 179.367C241.876 179.789 240.501 180.106 239.438 180.955C239.12 181.169 238.803 181.065 238.485 180.955C234.136 183.08 231.058 186.471 228.615 190.398C224.798 196.653 221.615 203.231 219.917 210.445C218.115 217.659 216.417 224.763 216.313 232.19C216.313 233.247 216.1 234.205 215.251 235.054C211.324 239.19 206.761 242.69 203.157 247.143C203.688 245.127 204.219 243.221 204.428 241.205C204.959 236.856 205.594 232.507 206.761 228.263C207.719 224.659 208.777 221.049 209.308 217.445C209.521 215.643 209.1 213.731 209.521 211.929C210.157 209.278 208.886 207.049 208.568 204.612C208.459 204.185 208.141 203.549 207.61 203.549C207.084 203.549 206.975 204.185 206.761 204.612C206.657 205.669 207.084 206.627 206.657 207.685C206.021 210.867 205.173 213.841 203.902 216.81C203.261 218.294 202.626 219.882 202.204 221.476C200.61 228.263 199.443 235.054 199.126 242.054C199.021 244.705 198.49 247.252 198.808 249.903C198.912 250.752 198.381 251.284 197.855 251.705C196.365 252.976 195.199 254.461 194.141 255.95C191.063 260.19 188.62 264.752 186.183 269.315C183.532 274.299 181.407 279.601 179.183 284.799C178.652 286.497 178.016 288.086 177.376 289.784C175.787 293.919 174.303 298.164 173.24 302.409C173.027 303.362 171.969 304.211 172.818 305.377C172.818 305.591 172.818 305.799 172.709 305.909C171.225 309.195 170.48 312.695 169.527 316.091C168.891 318.528 168.256 320.971 167.725 323.513C167.62 323.94 167.407 324.257 166.98 324.471C166.876 325.424 167.089 326.273 166.771 327.226C166.662 327.653 166.876 327.862 167.298 327.862C170.058 327.862 172.923 327.862 175.683 327.757C176.105 327.226 176.105 326.695 176.209 326.06C176.527 324.153 176.636 322.138 176.85 320.226C177.271 316.195 178.225 312.273 178.865 308.242C178.756 308.664 178.865 308.981 179.391 308.981C179.605 308.028 179.391 307.075 179.391 306.013C179.287 305.164 179.391 304.315 179.605 303.466C180.032 301.664 180.454 299.757 180.771 297.95C181.834 292.117 183.214 286.284 185.016 280.554C186.287 276.315 187.881 272.07 190.11 268.252C190.532 267.507 190.959 266.768 191.381 266.023C194.881 259.341 199.548 253.617 204.855 248.31C208.673 244.492 212.704 240.778 216.417 236.747C219.6 233.247 223.1 229.961 226.813 226.992C229.995 224.445 233.178 222.007 236.256 219.461C238.058 218.08 239.969 216.914 241.985 215.961C243.365 215.325 244.74 214.685 246.12 214.049C254.501 210.445 263.199 208.112 272.219 207.367C274.87 207.153 277.631 207.153 280.282 206.836C281.662 206.627 282.933 207.049 284.1 207.794C285.266 208.534 286.329 209.492 287.282 210.549C288.553 212.143 290.251 213.31 292.162 213.945C293.756 214.476 295.24 215.007 296.829 215.429C299.907 216.278 302.876 217.445 305.527 219.143C308.501 220.945 311.365 223.065 313.912 225.398C314.652 226.143 315.396 226.882 315.928 227.731C317.516 230.065 318.469 232.721 319.214 235.476C319.745 237.278 319.532 239.19 318.896 241.096C318.365 242.476 317.62 243.643 316.985 244.81C316.771 245.237 316.35 245.554 316.563 246.19C316.667 246.19 316.881 246.086 316.881 246.086C319.11 243.112 320.167 239.721 320.803 236.112C321.126 234.096 320.594 231.976 320.167 229.856ZM163.162 312.481C163.162 304.528 162.949 296.679 162.1 288.726C161.464 283.846 160.829 278.966 159.558 274.19C159.344 273.132 159.235 272.179 159.558 271.117C159.344 271.117 158.917 271.435 158.813 271.007C158.386 269.841 157.964 268.674 157.964 267.403C157.86 267.299 157.646 267.086 157.646 266.981C157.011 264.648 155.949 262.419 155.204 260.086C154.355 257.539 153.188 255.205 151.917 252.976C150.537 250.539 148.949 248.205 147.251 245.976C144.068 241.737 140.673 237.596 137.173 233.674C135.792 232.08 134.308 230.705 132.714 229.325C131.657 228.476 130.912 227.414 130.381 226.039C129.959 224.976 129.641 223.81 129.324 222.747C128.261 219.356 127.308 215.851 125.714 212.565C124.652 210.336 123.485 208.216 122.428 205.987C120.938 202.914 119.771 199.731 119.245 196.336C118.605 192.096 118.074 187.851 117.12 183.716C116.907 182.971 116.803 182.231 116.699 181.591C116.485 179.575 116.271 177.565 116.058 175.549C115.954 175.018 116.167 174.487 115.636 174.06C114.787 174.487 115.318 175.122 115.318 175.653C115.423 180.638 115.532 185.518 115.318 190.502C115.214 192.622 115.105 194.747 115.001 196.867C115.001 201.002 115.532 205.034 116.589 208.961C117.756 213.414 119.667 217.445 122.954 220.731C123.912 221.69 124.652 222.747 125.61 223.7C125.183 223.81 124.865 223.492 124.443 223.278C121.787 221.69 119.245 220.2 116.589 218.612C115.85 218.185 115.105 217.763 114.365 217.341C113.834 217.018 113.725 216.81 113.938 216.278C114.574 215.112 114.256 214.049 113.725 212.992C112.24 210.018 110.86 207.049 109.271 204.185C108.209 202.169 106.725 200.58 104.813 199.414C103.86 198.882 103.011 198.461 102.058 198.034C100.574 197.398 98.9798 196.763 97.5996 196.018C94.9486 194.638 92.4017 193.049 90.4954 190.606C89.6465 189.549 88.7975 188.487 88.1621 187.32C87.5215 186.257 86.8861 185.091 86.1465 184.034C83.3861 179.685 80.8392 175.122 79.7819 169.924C79.7819 169.711 79.6725 169.502 79.5684 169.289C79.5684 169.185 79.3548 169.185 79.2507 169.185C79.1413 169.185 79.0371 169.289 79.0371 169.393C79.1413 169.924 79.1413 170.455 79.2507 170.987C79.9902 173.638 80.5215 176.289 80.9486 179.049C81.6882 183.716 83.3861 188.065 85.7194 192.2C89.0111 197.929 93.4642 202.596 98.9798 206.096C101.313 207.58 103.646 208.961 106.089 210.336C107.787 211.398 109.271 212.778 110.652 214.263C110.969 214.685 111.391 215.007 111.501 215.534C111.183 215.747 110.969 215.534 110.756 215.429C107.995 213.945 105.027 212.669 102.162 211.398C98.2402 209.596 94.209 208.216 89.9642 207.476C88.3704 207.153 86.6725 206.836 85.084 206.518C83.8132 206.2 83.7038 206.096 84.0215 204.82C84.1309 204.294 84.1309 203.867 84.3392 203.336C84.5527 202.487 84.4486 201.638 84.235 200.794C83.7038 198.882 82.5371 197.398 80.9486 196.231C79.7819 195.382 78.61 194.638 77.4434 193.898C76.4902 193.263 75.6413 192.731 74.7923 191.987C72.0371 189.549 68.959 187.747 65.5632 186.471C63.1257 185.518 60.6829 184.669 58.1361 183.924C55.6986 183.185 53.1517 182.757 50.6048 183.08C48.1673 183.398 45.7246 183.606 43.3913 184.351C42.7559 184.565 42.1204 184.565 41.3757 184.669C39.5736 184.882 37.7715 185.091 35.9642 185.414C35.5423 185.518 35.0111 185.518 34.5892 186.049C37.8757 185.94 41.0579 185.731 44.3444 185.622C46.4694 185.518 48.5892 185.622 50.7142 186.153C52.834 186.685 54.9538 187.32 57.0788 188.065C58.5632 188.487 59.9434 189.231 61.2142 189.971C65.9902 192.414 70.1257 195.7 73.735 199.731C75.7507 201.961 77.9746 203.763 80.6257 205.143C80.9486 205.247 81.3704 205.351 81.3704 205.882C78.1882 205.351 75.0059 204.929 71.8236 204.398C70.6569 204.185 69.4902 204.185 68.3236 204.08C67.6882 203.976 67.1569 203.867 67.0475 203.018C66.9434 201.961 66.1986 201.32 65.5632 200.58C62.2767 197.294 58.6673 194.638 54.4225 192.622C53.2559 192.096 52.0892 191.565 50.8184 191.351C46.8913 190.502 43.0736 189.763 39.0423 189.549C37.6621 189.44 36.2819 189.231 34.7975 189.336C33.0996 189.44 31.4069 189.549 29.709 189.549C29.1777 189.549 28.7507 189.653 28.3288 189.971C25.9954 191.351 23.9798 193.153 22.1725 195.169C21.7507 195.596 21.5371 196.018 21.3288 196.549C20.6882 198.882 20.0527 201.112 19.4173 203.445C19.2038 204.185 19.2038 204.398 19.5215 205.461C20.1569 203.976 20.584 202.278 21.0059 200.685C21.2194 199.731 21.5371 198.778 21.9642 197.929C22.5996 196.549 23.5527 195.804 25.0371 195.596C25.7819 195.487 26.5267 195.278 27.1621 195.278C28.86 195.065 30.4486 194.534 32.2507 194.534C36.709 194.429 41.1621 194.534 45.6204 194.851C46.4694 194.955 47.3184 195.065 48.1673 195.278C51.1361 196.122 54.0007 197.289 56.6517 199.096C58.8809 200.58 61.2142 201.961 63.5475 203.231C63.7611 203.336 64.1829 203.445 64.0788 203.867C62.0632 203.867 60.0475 203.867 58.0319 203.867C53.8965 203.867 49.7559 204.08 45.6204 204.82C37.4538 206.2 29.9173 209.382 23.4486 214.685C20.9017 216.81 18.1413 218.825 15.3861 220.731C12.8392 222.325 10.5059 224.127 8.06315 225.929C7.85482 226.143 7.64128 226.356 7.42773 226.565C7.32357 226.674 7.32357 226.778 7.42773 226.882C7.42773 226.992 7.64128 226.992 7.74544 226.992C8.06315 226.882 8.38607 226.882 8.5944 226.674C10.0788 225.929 11.5684 225.19 13.0527 224.445C18.3548 221.476 23.5527 218.398 28.7507 215.429C30.1309 214.685 31.5111 213.841 32.9954 213.31C35.86 212.143 38.7246 211.08 41.485 209.914C47.209 207.58 53.2559 206.2 59.5163 205.987C64.61 205.778 69.7038 206.096 74.6882 206.945C79.1413 207.685 83.5996 208.534 88.0527 209.382C92.2975 210.127 96.5423 211.185 100.464 213.096C103.438 214.476 106.511 215.643 109.485 217.231C113.407 219.356 117.438 221.58 121.261 223.914C124.652 226.039 128.048 228.049 131.016 230.705C133.563 232.929 135.896 235.476 138.23 238.023C142.37 242.794 146.188 247.778 149.584 253.086C150.219 254.143 150.855 255.205 151.282 256.268C151.6 257.117 152.021 257.966 152.339 258.81C154.251 263.054 155.735 267.299 156.266 271.966C156.37 273.237 156.693 274.513 156.584 275.784C156.798 277.054 156.37 278.33 156.48 279.601C156.902 283.101 157.115 286.497 157.115 289.997C157.011 294.768 156.902 299.648 156.798 304.424C156.693 311.632 155.949 318.742 155.631 325.955C155.527 327.122 155.1 327.653 153.933 327.653C153.084 327.653 152.235 327.544 151.495 328.179C151.813 328.606 152.235 328.502 152.662 328.502C155.527 328.502 158.386 328.393 161.251 328.393C163.376 328.393 163.266 328.502 163.266 326.377C163.162 321.497 163.162 316.94 163.162 312.481Z" fill="#66B15C"/>
<mask id="mask0_1123_1072" style="mask-type:luminance" maskUnits="userSpaceOnUse" x="0" y="92" width="326" height="237">
<path d="M0 92.7627H326V328.763H0V92.7627Z" fill="white"/>
</mask>
<g mask="url(#mask0_1123_1072)">
<path d="M157.645 285.544C157.645 290.315 157.645 295.086 157.645 299.862C157.645 300.497 157.645 301.028 157.432 301.664C157.328 302.195 157.328 302.726 157.328 303.257C157.328 305.273 157.328 307.284 157.328 309.299C157.328 310.679 157.432 312.06 157.01 313.44C156.901 313.862 157.01 314.289 157.01 314.711C157.01 315.981 157.114 317.257 156.692 318.528C156.583 318.955 156.692 319.377 156.583 319.804C156.583 320.971 156.692 322.138 156.265 323.195C156.161 323.513 156.161 323.94 156.161 324.257C156.161 324.893 156.161 325.528 156.161 326.06C156.161 327.757 156.161 327.757 154.567 327.757C153.51 327.757 152.448 327.757 151.494 327.757C151.281 327.122 151.385 326.591 151.385 325.955C151.494 322.138 151.599 318.424 151.703 314.606C151.812 312.481 151.916 310.362 152.13 308.242C152.552 304.424 152.869 300.601 153.187 296.784C153.401 294.45 153.718 292.226 154.036 289.893C154.463 286.711 154.885 283.528 155.416 280.346C155.63 279.179 155.948 278.013 156.265 276.846C156.583 276.528 156.369 275.997 156.583 275.679C156.583 275.57 156.583 275.466 156.692 275.356C157.114 275.679 157.01 276.101 157.01 276.528C157.01 277.695 157.01 278.862 157.328 279.919C157.432 280.346 157.328 280.872 157.432 281.403C157.432 282.362 157.432 283.211 157.75 284.164C157.645 284.695 157.645 285.117 157.645 285.544ZM22.0673 113.919C22.0673 113.815 22.0673 113.815 22.0673 113.919C21.9632 113.815 22.0673 113.815 22.0673 113.919ZM326 143.409C325.364 143.622 324.942 143.299 324.411 143.091C320.38 141.924 316.349 141.289 312.213 140.544C304.786 139.273 297.255 137.997 289.932 136.409C286.75 135.664 283.463 135.132 280.281 134.497C279.645 134.393 279.114 134.284 278.474 134.284C273.807 134.284 269.036 134.179 264.364 134.393C260.974 134.497 257.578 134.815 254.078 134.815C253.651 134.815 253.229 134.711 252.802 135.242C253.442 135.346 253.968 135.45 254.609 135.45C258.64 135.877 262.458 137.044 266.062 138.846C267.974 139.799 269.458 141.179 270.625 142.981C271.474 144.148 272.218 145.424 272.854 146.804C273.916 149.028 275.083 151.257 276.458 153.377C276.672 153.591 276.781 153.909 276.989 154.122C279.645 159.211 283.567 163.351 288.026 166.955C290.781 169.185 293.859 171.2 296.937 173.002C297.255 173.106 297.677 173.216 297.677 173.742C295.13 173.216 292.479 172.789 290.041 171.726C288.343 171.091 286.75 170.455 285.052 169.82C282.505 168.867 280.172 167.591 278.156 165.789C276.354 164.195 274.656 162.606 272.958 160.909C272.218 160.169 271.583 159.32 271.052 158.471C269.244 155.711 267.338 152.846 265.64 149.987C263.198 145.846 260.015 142.455 256.302 139.481C254.395 137.997 252.27 137.044 249.833 136.513C248.031 136.091 246.437 136.195 244.635 136.617C241.135 137.679 237.739 138.632 234.453 140.122C234.026 140.33 233.604 140.544 233.177 140.862C233.073 140.862 233.073 141.075 233.073 141.179C235.724 140.966 238.484 140.648 241.135 140.44C242.515 140.33 243.786 140.226 245.166 140.33C246.437 140.44 247.604 140.966 248.562 141.924C249.937 143.409 251.317 144.893 252.27 146.695C253.119 148.179 253.968 149.664 254.713 151.153C255.135 151.893 255.458 152.742 255.666 153.487C256.302 156.138 257.047 158.679 257.474 161.336C258.109 165.257 258.744 169.289 259.807 173.216C258.531 174.909 257.364 176.716 255.135 177.351C250.047 173.32 247.286 167.909 246.755 161.44C246.224 155.289 243.364 150.409 238.802 146.481C236.468 144.471 233.39 143.513 230.208 143.299C229.463 143.299 228.932 143.622 228.297 143.94C225.645 145.424 223.099 147.122 220.448 148.711C222.677 148.075 224.583 148.815 226.599 149.877C229.359 151.362 232.224 152.638 234.875 154.226C236.89 155.502 238.375 157.091 239.224 159.424C241.453 165.153 242.406 171.091 243.151 177.034C243.255 177.669 243.255 178.409 243.041 179.049C241.349 180.216 239.651 181.487 237.422 181.065C233.708 177.242 231.161 172.789 231.692 167.273C232.328 160.487 227.13 156.773 222.25 154.44C220.552 153.591 218.645 153.273 216.948 152.528C215.885 152.106 215.036 152.32 214.187 152.955C209.734 156.346 205.703 160.06 202.203 164.94C204.218 164.94 206.02 164.518 207.823 164.409C211.64 164.195 215.463 163.987 219.281 164.622C219.703 164.726 220.13 164.836 220.552 164.94C220.869 165.044 221.401 165.153 221.401 165.575C221.401 166.106 220.869 166.106 220.448 166.211C218.005 166.638 215.463 166.955 212.703 167.06C213.552 167.804 214.187 168.122 214.932 168.544C219.067 171.2 222.036 175.018 224.265 179.367C224.901 180.742 225.328 182.122 225.224 183.606C225.224 184.882 225.224 186.153 225.432 187.429C225.541 187.955 225.541 188.596 224.901 188.804C224.161 189.122 223.734 188.487 223.416 188.065C222.885 187.32 222.781 186.367 222.359 185.518C218.536 178.622 213.656 172.893 205.703 170.455C204.427 170.034 203.369 170.034 202.307 170.882C201.776 171.304 201.354 171.622 200.713 171.836C195.942 173.955 192.974 177.455 191.062 182.336C189.578 186.367 187.244 189.971 185.968 194.112C183 199.096 181.302 204.612 179.182 209.914C178.015 212.992 176.849 216.174 175.786 219.247C175.041 220.414 174.619 221.69 174.302 223.065C171.755 230.596 168.994 238.127 166.343 245.659C164.114 251.81 162.312 257.966 160.932 264.325C160.614 265.601 160.724 266.872 161.145 268.148C164.01 277.164 166.875 286.179 169.953 295.195C170.588 297.101 170.802 299.226 171.859 301.132C172.39 302.513 171.755 304.106 172.604 305.481C172.708 305.909 172.604 306.33 172.494 306.757C170.588 311.955 169.312 317.362 167.937 322.773C167.724 323.513 167.724 324.575 166.557 324.575C166.13 322.028 166.13 319.377 165.922 316.726C165.494 313.013 165.177 309.299 164.859 305.591C164.645 303.784 164.541 301.981 164.432 300.075C164.114 295.935 163.692 291.799 163.057 287.664C162.843 285.966 162.63 284.268 162.416 282.57C162.099 279.284 161.145 276.205 160.192 273.132C159.979 272.388 159.875 271.539 159.343 270.903C158.916 271.33 158.494 271.435 158.177 270.799C157.645 269.632 156.901 268.466 157.75 267.086C157.963 266.237 157.75 265.388 157.541 264.539C155.416 256.586 152.448 248.945 149.156 241.31C147.463 237.388 145.765 233.461 144.172 229.539C143.323 227.523 142.369 225.716 141.307 223.81C140.14 221.69 139.187 219.565 138.229 217.341C135.156 210.659 131.974 204.08 129.427 197.185C126.984 190.929 123.698 185.091 120.198 179.257C118.286 176.075 116.38 172.893 114.468 169.716C112.453 166.32 110.119 163.242 107.359 160.487C102.906 156.028 98.3434 151.789 93.359 147.862C86.8851 142.773 79.7809 138.742 72.3538 135.242C69.8069 133.966 67.0465 132.909 64.4996 131.742C63.0153 130.997 61.5309 130.997 60.0465 131.315C58.1351 131.632 56.333 132.377 54.5309 133.33C53.1507 134.075 51.7705 134.711 50.2861 134.924C49.7548 135.028 49.2236 135.132 48.6976 135.132C46.1507 135.242 43.708 135.242 41.1611 134.924C36.6038 134.393 32.1455 134.393 27.6923 135.242C22.9163 136.195 18.2496 137.362 13.7913 139.273C11.1403 140.33 9.02047 142.132 7.00484 144.148C5.94234 145.211 5.09338 146.377 4.14026 147.44C3.39547 148.289 2.76005 149.242 2.2288 150.304C1.37984 151.893 0.957968 153.591 0.848594 155.393C0.744426 157.622 1.06214 159.742 1.48922 161.971C1.59339 162.393 1.59339 162.82 1.59339 163.242C1.59339 163.351 1.48922 163.455 1.37984 163.455C1.17151 163.56 1.06214 163.351 0.957969 163.242C0.426718 160.695 -0.000364289 158.257 0.10901 155.606C0.213177 153.909 0.426719 152.32 0.530885 150.726C0.640261 149.242 1.06214 147.971 1.69755 146.695C2.44234 145.211 3.18714 143.726 4.03089 142.346C5.20276 140.33 6.89547 138.632 9.12464 137.789C12.3069 136.617 15.3851 134.924 18.1403 132.909C19.6298 131.742 21.4319 131.211 23.234 130.893C25.359 130.466 27.4788 130.148 29.4944 129.83C30.9788 129.617 32.4632 129.299 33.9476 128.768C37.9788 127.179 42.2236 126.752 46.5726 127.179C48.484 127.393 50.4996 127.284 52.4059 127.601C55.2705 127.924 58.2444 128.346 61.109 128.877C61.958 128.981 62.9111 129.299 63.7601 129.617C72.0361 133.013 80.2028 136.83 87.734 141.711C90.7028 143.622 93.5673 145.742 96.3278 147.971C96.4319 147.648 96.3278 147.44 96.1142 147.226C94.4163 144.997 92.9319 142.773 91.4476 140.44C89.8538 137.997 87.734 135.877 85.6142 133.966C85.1871 133.544 84.6559 133.226 84.234 132.695C80.734 129.091 76.8069 126.013 72.7757 122.935C70.7601 121.346 68.8538 119.648 66.9423 117.95C64.4996 115.617 61.8486 113.388 59.1976 111.164C57.9267 110.101 56.4371 109.039 55.0621 108.086C53.4684 106.919 51.8798 105.862 50.1819 104.799C47.3173 102.888 44.5569 100.872 42.2236 98.4346C41.3746 97.5856 41.2705 97.5856 40.208 98.221C39.1455 98.8564 38.1923 99.6012 37.2392 100.346C32.4632 104.69 27.583 108.935 22.8121 113.284C22.5986 113.497 22.2809 113.711 21.9632 113.919C21.9632 113.284 22.4944 112.966 22.8121 112.648C26.0986 108.617 29.4944 104.586 32.8903 100.45C34.0569 99.07 35.2236 97.7992 36.6038 96.6325C37.4528 95.8877 38.4059 95.4658 39.5726 95.3564C42.859 95.1481 46.1507 95.0387 49.4371 94.8304C49.9684 94.8304 50.3903 94.9346 50.8173 95.1481C54.9528 97.0544 59.0934 98.9658 63.1246 101.299C65.5621 102.679 67.7913 104.481 69.7028 106.497C72.2444 109.039 74.6871 111.695 76.9163 114.554C83.3851 122.83 89.9632 131.101 96.4319 139.273C98.9788 142.455 101.312 145.846 103.328 149.346C103.963 150.304 104.604 151.362 105.239 152.32C106.619 154.44 107.994 156.669 108.843 159.106C109.057 159.638 109.375 160.06 109.692 160.487C111.604 162.502 113.302 164.622 114.89 166.955C115 167.06 115.104 167.169 115.422 167.377C115.635 166.638 115.531 166.002 115.422 165.367C115.317 164.2 115.213 162.924 115.104 161.757C115 160.273 114.786 158.789 114.151 157.513C112.875 154.653 112.239 151.679 111.922 148.711C111.5 145.638 110.651 142.664 109.588 139.695C109.484 139.481 109.375 139.377 109.166 139.164C108.104 139.695 106.937 140.122 105.77 140.33C105.239 140.44 104.922 140.757 104.708 141.179C104.073 142.346 103.224 143.409 103.01 144.789C103.01 144.893 102.797 144.893 102.797 144.997C102.692 144.997 102.588 144.893 102.588 144.789C102.375 143.513 102.479 142.242 102.797 140.966C103.01 140.122 103.437 139.481 104.073 139.06C105.026 138.424 105.979 137.893 106.937 137.575C107.359 137.466 107.786 137.257 108.104 137.044C108.422 136.94 108.526 136.617 108.422 136.299C108.317 136.091 108.317 135.877 108.208 135.56C106.937 132.799 106.192 129.83 105.135 126.966C105.026 126.757 105.026 126.544 104.708 126.435C104.286 126.544 103.963 126.862 103.755 127.179C102.906 128.028 102.057 128.981 101.208 129.83C100.781 130.257 100.359 130.575 99.9319 130.893C99.5101 131.101 99.0882 131.101 98.7653 130.784C98.4476 130.466 98.3434 130.044 98.5569 129.617C98.6611 129.409 98.7653 129.195 98.9788 128.981C99.4059 128.56 99.7236 128.132 100.145 127.815C101.739 126.862 102.588 125.377 103.645 123.893C103.963 123.466 103.963 123.148 103.859 122.726C103.119 119.33 102.588 115.83 101.312 112.648C100.255 109.888 98.7653 107.237 97.4944 104.481C97.3903 104.164 97.0726 103.95 96.7496 103.523C95.3746 104.372 94.3121 105.539 93.0413 106.497C92.6142 105.966 93.0413 105.539 93.2496 105.221C93.8851 104.268 94.6298 103.315 95.3746 102.466C95.6923 102.039 95.7965 101.617 95.4788 101.19C95.1611 100.554 94.734 99.9189 94.208 99.3877C93.7809 98.9658 93.359 98.8564 92.8278 99.1742C91.0257 100.45 88.7965 100.664 86.7809 101.19C84.3382 101.721 81.9007 102.356 79.5673 103.101C79.0361 103.315 78.4007 103.419 77.7653 103.523C77.6559 103.523 77.3382 103.523 77.234 103.419C77.1246 103.101 77.4423 103.101 77.5517 102.997C77.6559 102.888 77.7653 102.888 77.8694 102.888C80.9476 102.252 83.5986 100.554 86.3538 99.1742C88.4788 98.1169 90.7028 97.1637 92.8278 96.1012C93.2496 95.8877 93.6767 95.9971 94.0986 96.1012C96.0101 96.6325 97.9163 97.1637 99.7236 97.6898C100.255 97.7992 100.677 97.9033 101.104 97.6898C101.526 97.9033 102.057 98.0075 102.479 98.221C105.77 99.1742 107.994 101.086 109.057 104.586C110.01 107.554 111.5 110.315 112.453 113.284C112.77 114.132 113.088 114.877 113.619 115.513C113.833 117.632 114.364 119.648 115.531 121.45C115.422 122.617 115.635 123.784 115.953 124.846C116.698 127.497 117.547 130.044 118.073 132.799C118.286 133.757 118.604 134.606 119.135 135.242C118.713 136.94 119.244 138.632 119.666 140.226C119.562 141.606 119.88 142.981 120.088 144.362C121.047 149.987 120.937 155.606 120.411 161.336C120.088 164.409 119.77 167.377 118.604 170.242C118.073 171.518 118.604 172.471 119.244 173.534C122.531 178.836 125.817 184.247 128.578 189.971C128.895 190.716 129.323 191.455 129.64 192.2C129.323 191.138 129.109 190.08 129.109 188.914C129.109 187.106 129.109 185.414 129.109 183.606C129.213 181.273 129 179.049 128.047 176.924C127.515 175.757 127.625 174.804 129 174.169C130.166 173.638 130.166 172.575 130.166 171.518C130.276 165.257 129.323 159.106 128.047 152.955C127.515 150.513 127.198 148.075 126.666 145.528C126.135 142.132 126.349 138.742 126.349 135.346C126.984 130.784 125.713 126.544 123.911 122.513C122.849 118.268 120.729 114.768 117.015 112.221C116.802 111.903 116.588 111.481 116.38 111.164C116.166 110.846 116.166 110.632 116.38 110.315C116.698 109.997 117.119 109.997 117.333 110.211C118.395 111.054 119.88 111.164 120.833 112.221C120.833 113.179 121.682 113.388 122.213 113.711C126.666 116.252 129.958 119.862 132.713 123.997C133.776 125.586 134.411 127.393 135.26 128.981C137.593 134.284 138.02 140.013 138.76 145.638C138.869 146.377 139.187 147.122 139.187 147.971C138.869 150.726 139.609 153.591 139.505 156.346C138.76 161.862 138.229 167.487 138.02 173.002C136.958 176.82 135.895 180.534 135.791 184.565C134.625 188.382 133.672 192.304 132.182 196.127C131.76 197.185 132.078 198.138 132.505 199.096C134.52 204.612 137.276 209.81 139.609 215.112C140.567 217.127 141.52 219.247 142.369 221.263C142.369 218.716 142.369 216.174 142.791 213.627C143.536 209.382 144.916 205.351 145.552 201.112C145.974 198.565 146.614 195.914 146.505 193.367C147.14 190.612 147.25 187.851 147.463 185.091C148.203 180.638 149.265 176.289 150.75 171.94C151.599 170.351 152.338 168.867 153.083 167.273C154.25 165.789 154.885 163.773 156.583 162.502C157.218 162.606 157.432 163.138 157.328 163.773C156.161 166.002 155.63 168.336 155.63 170.773C154.781 172.893 155.416 175.231 154.885 177.351C154.885 177.565 154.885 177.242 154.885 177.565C155.416 182.549 154.994 187.429 154.145 192.414C153.614 194.638 153.297 196.971 153.083 199.2C151.494 206.2 149.052 212.992 147.14 219.992C146.718 221.367 146.291 222.856 145.448 224.023C144.807 224.976 145.02 225.825 145.448 226.778C150.323 237.596 154.994 248.523 158.708 259.981C159.234 257.856 159.875 255.841 160.401 253.825C161.994 248.419 163.906 243.112 165.922 237.914C168.145 231.763 169.843 225.294 172.604 219.247C173.026 218.398 173.135 217.549 173.343 216.596C174.088 214.58 175.041 212.674 175.359 210.549C178.119 204.502 180.349 198.247 183.104 192.2C185.119 187.747 187.349 183.289 189.151 178.731C190.958 175.757 192.76 172.685 194.776 169.82C195.093 169.289 195.625 168.757 195.515 168.018C198.172 165.257 198.172 165.257 196.156 161.971C194.88 160.06 194.031 157.836 192.547 156.028C192.333 153.695 191.166 151.679 190.427 149.56C188.619 144.471 187.984 139.377 188.729 134.075C189.578 130.148 190.849 126.33 191.807 122.409C192.229 120.919 193.078 120.179 194.562 119.966C197.323 119.544 200.078 119.226 202.838 118.695C203.687 118.586 204.427 118.695 205.172 119.013C207.609 120.393 209.203 122.726 211.536 124.632C212.281 121.242 213.869 118.377 215.672 115.726C216.099 115.086 216.416 114.45 217.161 114.028C217.583 113.919 217.797 113.497 218.114 113.179C219.281 111.695 220.343 110.315 221.51 108.83C221.932 108.299 222.359 107.768 222.994 107.45C227.661 104.481 232.645 102.252 237.953 100.768C238.802 100.554 239.333 100.664 239.859 101.299C240.817 102.466 241.77 103.632 242.833 104.799C243.255 105.221 243.364 105.33 243.89 104.903C246.651 102.997 249.937 101.935 253.015 100.664C255.349 99.7054 257.682 98.7523 260.015 97.9033C263.198 96.6325 266.489 95.57 269.885 95.0387C270.203 95.0387 270.52 94.8304 270.838 95.0387C270.734 95.3564 270.52 95.3564 270.307 95.4658C267.229 96.5231 264.156 97.5856 261.078 98.5387C257.364 99.7054 254.078 101.513 251.104 104.268C248.984 106.179 246.864 108.086 244.953 110.211C244.317 110.846 243.682 111.586 243.151 112.33C240.073 116.679 237.422 121.242 235.619 126.33C234.343 129.83 232.859 133.226 230.843 136.409C230.208 137.466 229.677 138.528 229.145 139.591C229.463 140.013 229.781 139.799 229.994 139.695C233.812 137.575 237.843 136.091 242.088 135.028C243.151 134.815 243.786 134.179 244.317 133.33C245.27 131.742 246.015 130.148 246.755 128.45C247.395 126.966 248.031 125.377 248.666 123.893C250.468 119.648 252.911 115.935 256.198 112.752C259.38 109.679 262.776 106.919 266.807 105.013C268.291 104.372 269.567 103.523 270.838 102.57C272.854 101.086 274.974 99.7054 276.989 98.221C279.536 96.4189 282.297 94.9346 285.161 93.6585C285.583 93.4502 286.01 93.2367 286.859 92.9189C286.218 93.7679 285.583 94.0856 285.052 94.4033C281.765 96.5231 278.369 98.7523 275.083 100.872C272.109 102.784 269.458 104.903 267.02 107.45C266.276 108.195 265.427 108.935 264.578 109.679C262.14 111.695 260.125 113.919 258.427 116.679C256.625 119.544 254.817 122.299 252.911 125.164C251.213 127.711 249.515 130.257 247.5 132.591C247.182 132.909 246.968 133.226 246.755 133.648C246.755 133.648 246.755 133.757 246.755 133.862C247.073 133.966 247.395 133.862 247.604 133.862C250.255 133.117 253.015 132.799 255.776 132.909C257.578 133.013 259.489 132.909 261.291 132.591C261.713 132.481 261.927 132.377 262.031 131.95C263.198 127.284 265.427 123.044 267.656 118.903C268.927 116.466 270.52 114.45 272.427 112.435C278.687 105.862 286.114 101.086 294.599 98.0075C297.145 97.0544 299.375 96.7367 302.557 96.7367C302.661 97.1637 302.343 97.2679 302.026 97.3721C298.104 99.2835 294.599 101.935 291.312 104.69C289.828 105.966 288.448 107.132 286.963 108.403C283.994 110.737 281.338 113.388 278.583 116.044C278.369 116.252 278.265 116.362 278.052 116.57C278.369 116.893 278.583 116.679 278.797 116.57C283.885 114.346 289.192 112.544 294.39 110.846C296.297 110.205 298.104 109.57 299.906 108.935C302.239 108.086 304.786 107.664 307.224 107.346C308.073 107.237 308.922 107.132 309.77 107.028C310.515 106.919 311.151 106.919 311.895 106.919C311.786 107.45 311.468 107.45 311.151 107.554C308.922 108.403 306.906 109.57 304.89 111.054C301.708 113.388 298.422 115.617 295.13 117.846C290.567 120.815 286.01 123.466 281.234 126.013C279.005 127.179 276.672 128.132 274.338 128.981C271.583 129.935 268.823 130.893 266.062 131.95C265.854 132.06 265.536 132.06 265.536 132.377C267.656 132.695 268.395 132.591 270.093 132.164C272.536 131.424 275.083 130.893 277.63 130.575C282.187 129.83 286.859 129.83 291.526 130.257C295.557 130.575 299.479 131.528 303.088 133.44C306.166 135.132 309.453 136.513 312.739 137.893C314.119 138.424 315.5 139.06 316.88 139.799C319.317 141.179 321.76 142.56 324.411 143.622C325.578 143.091 325.895 143.091 326 143.409ZM129.958 192.622C129.958 192.622 129.849 192.622 129.849 192.518C129.744 192.414 129.744 192.2 129.64 192.096C129.744 192.304 129.744 192.518 129.849 192.731C129.958 192.836 130.166 192.518 129.958 192.622ZM143.005 221.476C142.901 221.476 142.791 221.476 142.791 221.367V221.476C142.901 221.69 143.218 221.367 143.005 221.476ZM200.291 143.726C201.562 143.091 202.729 142.132 203.895 141.289C206.234 139.481 208.885 138.315 211.432 136.94C212.385 136.513 212.385 136.513 212.385 135.56C212.172 133.33 212.067 131.101 212.172 128.768C212.172 127.815 211.958 127.075 211.432 126.435C210.901 125.799 210.369 125.268 209.734 124.742C208.458 123.784 207.083 123.044 205.703 122.299C205.385 122.086 205.067 122.195 205.067 122.617C204.744 124.101 204.109 125.377 203.369 126.648C201.989 128.981 200.823 131.528 199.974 134.075C199.229 136.091 198.698 138.106 198.489 140.33C198.38 141.606 198.172 142.981 198.698 144.257C199.338 144.575 199.864 144.044 200.291 143.726ZM214.614 148.924C213.765 147.226 213.656 145.315 213.338 143.409C213.234 142.877 213.234 142.877 212.281 142.877C209.838 143.195 207.609 144.148 205.489 145.211C203.052 146.377 200.823 147.757 199.442 150.195C199.442 150.622 199.338 151.044 199.442 151.471C199.76 153.909 200.078 156.455 200.395 158.893C200.505 159.955 200.713 161.018 201.036 162.185C201.672 161.757 201.989 161.226 202.411 160.695C204.536 158.044 206.869 155.606 209.625 153.487C210.901 152.528 212.172 151.575 213.338 150.622C213.656 150.409 213.974 150.091 214.401 149.877C214.614 149.455 214.718 149.242 214.614 148.924ZM227.13 140.648C224.692 139.909 222.25 139.481 219.703 139.591C219.177 139.591 218.75 139.799 218.328 139.909C217.901 140.013 217.687 140.226 217.687 140.648C217.583 141.393 217.479 142.242 217.479 142.981C217.479 144.362 217.161 145.638 216.63 146.909C216.52 147.226 216.203 147.544 216.416 148.075C216.63 147.971 216.838 147.862 216.948 147.862C220.13 145.955 223.312 143.94 226.494 142.028C226.708 141.815 227.026 141.711 227.239 141.497C227.661 141.289 227.661 140.757 227.13 140.648ZM229.781 134.815C229.89 133.757 229.994 132.695 230.099 131.742C230.63 128.877 231.057 126.117 231.692 123.252C232.755 118.377 234.875 113.919 238.27 110.101C239.333 108.83 240.5 107.664 241.77 106.705C242.192 106.388 242.619 105.966 243.041 105.648C242.937 105.435 242.937 105.221 242.724 105.117C242.192 104.586 241.557 104.054 240.922 103.523C240.5 103.101 239.968 102.997 239.437 103.315C237.843 104.164 236.145 104.903 234.453 105.539C233.494 105.966 232.645 106.497 231.797 107.132C228.192 109.784 225.432 113.179 223.416 117.101C222.994 117.95 222.994 117.95 223.63 118.695C224.901 120.07 226.177 121.346 227.343 122.726C227.557 122.935 227.979 123.148 227.765 123.784C227.026 123.362 226.494 122.83 225.859 122.409C225.224 121.981 224.692 121.56 224.052 121.132C223.416 120.711 222.885 120.179 221.932 119.862C220.552 123.044 218.963 126.117 217.687 129.299C216.734 131.846 217.052 134.497 217.369 137.044C217.369 137.362 217.687 137.575 218.005 137.575C218.328 137.575 218.645 137.679 218.963 137.679C222.036 137.893 225.01 138.528 228.083 139.377C229.041 137.893 229.573 136.409 229.781 134.815Z" fill="#49873E"/>
</g>
<path d="M179.182 309.196C179.39 314.925 179.713 320.654 179.713 326.487C179.713 326.805 179.713 327.123 179.713 327.44C179.713 327.862 179.499 328.076 179.072 328.076C177.905 328.076 176.739 328.18 175.682 327.972C175.682 325.529 175.999 322.987 176.317 320.545C176.635 318.638 176.848 316.727 177.166 314.815C177.27 314.076 177.374 313.227 177.588 312.482C178.015 310.789 178.333 309.092 178.754 307.284C179.182 307.815 178.65 308.664 179.182 309.196ZM179.286 285.013C179.182 283.211 179.072 281.513 178.864 279.706C178.541 277.164 178.437 274.618 178.437 272.071C178.223 266.342 178.015 260.618 177.697 254.888C177.27 247.571 176.848 240.144 176.635 232.826C176.525 229.326 176.421 225.717 176.208 222.217C176.208 221.263 175.999 220.414 175.89 219.461C175.786 219.565 175.572 219.675 175.468 219.779C175.041 220.842 174.301 221.899 174.405 223.175C174.51 227.097 174.619 231.128 174.833 235.055C174.937 239.081 175.15 243.112 175.254 247.144C175.359 249.795 175.682 252.342 175.786 254.993C175.89 257.118 176.103 259.237 175.786 261.357C175.682 262.102 175.572 262.951 175.468 263.69C175.15 266.769 174.833 269.737 174.51 272.815C173.77 278.331 173.239 283.951 172.817 289.571C172.708 291.586 172.39 293.602 172.286 295.618C172.176 297.529 171.65 299.331 171.754 301.243C171.754 302.3 171.754 303.258 171.754 304.315C171.754 304.847 171.859 305.378 172.494 305.696C172.494 305.06 172.603 304.529 172.603 303.894C173.343 303.784 173.135 303.045 173.343 302.618C173.557 302.092 173.77 301.451 173.874 300.925C174.088 300.18 174.301 299.545 174.51 298.8C175.682 294.769 177.27 290.847 178.754 287.029C179.182 286.18 179.182 285.545 179.286 285.013ZM138.76 173.638C138.655 173.425 138.442 173.321 138.228 173.217C137.807 173.425 137.593 173.743 137.489 174.17C136.853 176.925 136.322 179.685 135.687 182.55C135.577 183.289 135.687 184.034 136.004 184.67C136.958 185.94 138.124 186.789 139.4 187.534C140.567 188.17 141.624 189.019 142.583 189.868C143.958 191.138 145.447 192.201 146.932 193.472C147.353 193.368 147.671 193.154 147.671 192.623C147.671 190.399 147.989 188.17 148.416 186.05C148.52 185.623 148.202 185.414 148.098 184.987C145.234 181.065 141.942 177.352 138.76 173.638ZM205.911 203.128C204.958 201.534 203.687 200.154 202.093 199.305C200.187 198.352 198.379 197.185 196.577 196.019C194.989 195.065 193.291 194.112 191.697 193.154C190.744 192.623 189.895 192.519 188.942 192.836C188.301 193.05 187.562 193.263 186.926 193.789C186.713 194.003 186.395 194.003 186.182 194.217C185.333 194.748 184.911 195.597 184.484 196.55C184.379 196.868 184.27 197.295 184.166 197.612C182.682 201.217 181.197 204.821 179.713 208.43C179.499 208.961 179.182 209.597 179.286 210.232C179.39 210.128 179.499 210.128 179.603 210.019C179.713 209.914 179.817 209.81 179.921 209.701C180.03 209.597 180.135 209.493 180.348 209.383C180.984 209.065 181.515 208.43 181.937 207.899C183.213 206.519 184.379 205.144 185.546 203.763C187.244 201.852 189.046 200.154 191.275 199.097C192.333 198.565 193.499 198.352 194.666 198.461C197.53 198.67 199.864 200.05 201.989 201.961C202.093 202.065 202.202 202.279 202.307 202.383C203.791 204.295 205.275 206.097 206.655 208.003C206.76 207.795 206.869 207.581 206.973 207.368C207.187 206.628 206.76 205.883 206.655 205.144C206.442 204.185 206.234 203.654 205.911 203.128ZM153.614 167.274C153.4 166.956 153.296 166.638 153.083 166.321C150.004 161.545 146.718 156.878 143.432 152.321C142.26 150.727 140.885 149.138 139.4 147.862C138.973 148.18 138.973 148.607 138.973 149.029C138.76 151.258 139.4 153.487 139.4 155.711C139.4 155.925 139.504 156.138 139.609 156.456C139.822 156.456 139.926 156.67 140.036 156.878C140.244 157.196 140.567 157.513 140.775 157.836C144.275 161.972 147.567 166.107 150.645 170.56C150.963 170.987 151.28 171.305 151.494 171.727C151.702 171.623 152.02 171.623 152.02 171.305C152.447 170.138 152.978 169.076 153.614 168.123C153.827 167.909 153.614 167.592 153.614 167.274ZM124.333 121.347C123.697 119.649 123.275 117.847 122.103 116.467C121.046 115.196 120.088 113.92 118.921 112.753C118.499 112.331 117.968 112.013 117.333 112.118C116.588 112.118 116.166 112.649 115.739 113.18C114.999 113.92 114.364 114.664 113.723 115.404C113.405 116.149 113.405 116.894 113.723 117.737C114.041 118.586 114.364 119.435 114.468 120.394C114.572 121.133 114.999 121.451 115.739 121.56C118.603 121.451 121.468 121.56 124.333 122.3C124.442 121.769 124.442 121.56 124.333 121.347ZM127.197 142.347C127.197 141.815 127.197 141.289 127.093 140.758C126.879 140.123 126.984 139.592 127.093 138.956C127.307 137.68 127.515 136.409 126.879 135.243C126.458 134.711 125.817 134.711 125.182 134.711C123.166 134.815 121.15 134.925 119.135 135.133C118.395 135.56 118.286 136.196 118.499 136.94C118.603 137.362 118.817 137.784 118.817 138.315C118.713 138.956 119.135 139.378 119.562 139.8C121.15 140.967 122.848 142.133 124.442 143.3C125.182 143.831 126.03 144.362 126.879 144.894C127.093 144.998 127.197 145.107 127.307 145.211C127.411 145.107 127.624 144.894 127.515 144.789C127.093 144.045 127.197 143.196 127.197 142.347ZM235.301 83.7947C235.301 83.5863 235.192 83.477 235.088 83.2686C233.176 80.9353 231.374 78.3884 229.254 76.1592C228.827 75.7374 228.405 75.3103 227.874 74.8884C223.843 72.0238 219.494 69.5863 214.718 68.2061C213.655 67.8884 212.807 67.9926 211.958 68.4145C210.155 69.3728 208.671 70.753 207.4 72.2374C205.171 74.9926 202.838 77.4353 200.713 80.2947C198.911 82.7374 197.004 84.9665 194.879 87.0863C190.426 91.6488 185.864 96.2061 181.728 101.086C179.603 103.524 177.484 106.071 175.15 108.404C174.51 109.039 173.984 109.784 173.452 110.529C171.968 112.753 170.374 114.982 169.525 117.529C169.421 117.737 169.421 118.06 169.103 118.06C168.786 118.06 168.786 117.737 168.786 117.529C168.254 112.222 167.51 107.029 166.557 101.722C166.343 100.664 166.239 99.7061 166.129 98.6488C166.874 98.4353 167.51 98.2217 168.145 98.3311C169.421 98.5395 170.588 98.1176 171.65 97.5863C174.833 95.8884 177.166 93.4509 178.541 90.0551C179.182 88.3572 179.817 86.7686 180.348 85.0707C182.254 78.602 184.484 72.128 187.03 65.8728C188.411 62.3728 189.577 58.8728 190.213 55.1592C190.635 52.3988 191.062 49.6436 191.484 46.8832C191.807 44.5499 192.228 42.2165 192.228 39.779C192.228 35.6436 192.65 31.6124 193.077 27.5811C193.499 23.8676 193.499 20.2634 193.291 16.654C193.291 16.3363 193.182 16.0186 193.077 15.8051C193.077 15.7009 192.864 15.5967 192.864 15.5967C192.65 15.5967 192.442 15.7009 192.442 15.8051C192.015 16.4405 191.911 17.1853 191.807 17.9301C191.275 20.3676 190.53 22.7009 189.26 24.9301C188.619 26.0967 188.093 27.3676 187.666 28.6384C187.135 29.8051 186.817 31.0811 186.286 32.2478C184.588 36.4926 182.786 40.628 182.254 45.1853C182.254 45.2947 182.15 45.3988 182.15 45.5082C181.515 48.6905 180.77 51.8676 180.239 55.0499C179.921 56.9613 179.603 58.8728 179.182 60.779C178.333 64.7061 177.27 68.628 176.208 72.5551C175.359 75.9457 174.405 79.4509 173.452 82.8415C172.921 84.753 172.072 86.6592 171.541 88.5707C171.119 90.0551 170.588 91.4353 170.057 92.9197C169.312 94.8259 168.041 96.2061 166.661 97.5863C166.343 97.904 166.025 97.7999 166.025 97.3728C165.812 95.9978 165.812 94.7217 165.494 93.3415C165.176 91.8572 165.494 90.5863 166.025 89.3103C168.359 84.2217 169.525 78.8103 169.635 73.1905C169.739 70.5395 169.635 67.779 169.635 65.128C169.739 58.5551 169.312 52.0811 168.463 45.6124C167.827 40.8363 166.978 36.0655 165.176 31.6124C164.01 28.6384 162.843 25.6697 161.676 22.7009C161.041 21.003 160.083 19.4145 158.916 17.9301C158.494 17.503 158.28 16.8676 157.963 16.4405C157.01 14.852 155.843 13.2582 154.353 12.0915C153.51 11.352 152.661 10.503 151.812 9.7582C147.989 6.2582 143.958 3.18528 139.718 0.216535C139.609 0.107159 139.4 -0.210549 139.077 0.216535C139.187 0.320702 139.187 0.534243 139.291 0.63841C141.734 4.24258 144.067 7.85195 145.765 11.8832C146.083 12.6228 146.504 13.2582 146.718 14.003C148.307 19.4145 150.004 24.8207 151.702 30.3363C156.161 44.6592 159.129 59.2947 161.041 74.1436C161.463 77.4353 161.78 80.7217 162.208 84.0082C162.629 87.5082 163.057 90.904 163.478 94.404C163.478 94.6176 163.692 94.9353 163.265 95.253C162.843 94.5082 162.416 93.7686 161.994 93.0238C160.296 89.7374 158.708 86.4509 157.327 83.0551C154.885 77.0082 152.02 71.279 148.734 65.6592C146.4 61.628 144.171 57.5967 142.26 53.3572C139.718 47.628 136.958 42.1124 133.775 36.7009C131.228 32.4613 128.895 28.1124 126.135 23.9717C125.499 22.9145 124.65 21.9561 124.015 21.003C123.801 20.6853 123.484 20.4717 123.275 20.154C123.062 19.9405 122.744 19.7322 122.426 19.9405C122.103 20.154 122.213 20.4717 122.317 20.7895C122.53 21.3207 122.635 21.852 122.848 22.3832C123.484 23.7634 124.015 25.1384 124.65 26.628C126.135 30.2322 127.197 33.8363 127.307 37.7634C127.411 41.477 128.26 45.0811 129.744 48.5811C132.291 54.3103 135.26 59.8259 138.338 65.3415C139.291 67.1436 140.567 68.628 142.051 70.1124C143.432 71.4926 144.807 72.977 146.083 74.3572C147.353 75.7374 148.52 77.1124 149.369 78.8103C150.963 81.9926 153.083 84.9665 154.78 88.1436C155.416 89.2061 156.051 90.1592 156.796 91.2217C158.385 93.4509 160.296 95.4665 162.629 96.9509C162.947 97.1645 163.161 97.3728 163.478 97.5863C164.01 97.904 164.223 98.3311 164.327 98.9665C164.859 102.149 165.39 105.331 165.812 108.513C165.921 108.935 166.025 109.467 165.812 109.888C165.708 109.888 165.603 109.998 165.603 109.888C165.494 109.888 165.39 109.784 165.28 109.68C161.89 107.029 158.812 104.055 156.692 100.237C156.369 99.602 155.947 98.9665 155.525 98.3311C153.187 94.2999 150.536 90.3728 147.671 86.6592C145.869 84.3259 143.958 82.2061 141.624 80.2947C140.885 79.6592 140.244 79.128 139.504 78.4926C137.807 77.0082 135.895 75.7374 133.879 74.779C131.76 73.7217 129.744 72.7634 127.624 71.7061C124.119 70.0082 120.619 68.2061 117.119 66.5082C116.27 66.0811 115.53 66.0811 114.682 66.404C113.197 67.0395 111.603 67.5707 110.01 68.0967C109.27 68.3103 108.635 68.628 107.994 69.0551C106.723 69.904 105.557 70.5395 104.072 71.0707C103.541 71.279 102.905 71.5967 102.478 72.0238C101.739 72.6592 100.994 73.404 100.254 74.1436C100.041 74.3572 99.8274 74.4613 99.9315 74.8884C101.629 74.0395 103.437 73.404 104.921 72.2374C105.978 71.3884 107.254 70.8572 108.525 70.5395C109.801 70.2217 110.968 70.3259 112.025 71.0707C112.452 71.3884 112.77 71.5967 113.197 71.9197C114.786 72.977 116.379 74.0395 117.968 74.9926C121.895 77.3259 125.817 79.5551 129.744 81.7842C133.14 83.6905 136.213 86.1332 139.077 88.8884C142.051 91.6488 145.124 94.404 148.098 97.2686C148.416 97.5863 148.838 97.904 149.155 98.3311C150.536 99.8155 151.916 101.19 153.296 102.68C156.692 106.284 160.614 109.039 164.859 111.586C165.708 112.013 166.129 112.649 166.239 113.602C166.239 113.92 166.343 114.347 166.343 114.664C166.77 118.586 167.296 122.513 167.619 126.545C167.937 129.3 168.041 132.06 168.254 134.711C168.254 134.925 168.359 135.243 167.937 135.243C167.088 133.758 166.129 132.164 165.28 130.68C162.739 126.545 160.083 122.513 157.541 118.482C155.629 115.404 153.296 112.435 150.749 109.888C148.52 107.555 146.291 105.331 144.067 103.102C137.807 97.1645 130.593 93.1332 121.895 91.753C118.603 91.2217 115.317 91.1176 112.135 92.3884C110.968 92.8155 109.692 93.1332 108.421 93.2374C107.786 93.3415 107.254 93.4509 106.723 93.8728C104.812 95.253 102.905 96.5238 101.103 97.904C101.208 98.6488 101.739 98.5395 102.27 98.5395C103.01 98.6488 103.645 98.3311 104.39 98.0082C106.405 97.1645 108.525 96.9509 110.65 97.4822C112.239 97.904 113.833 98.2217 115.421 98.753C118.182 99.4978 121.046 100.133 123.911 99.9197C127.093 99.7061 129.958 100.451 132.713 101.935C135.26 103.42 137.385 105.435 139.718 107.237C146.504 112.331 151.916 118.696 156.692 125.586C159.661 129.935 162.739 134.18 166.978 137.467C167.723 138.107 168.145 138.743 168.254 139.8C168.676 142.774 168.676 145.743 168.89 148.711C169.208 155.607 169.635 162.394 169.952 169.289C168.254 165.894 166.025 162.925 164.432 159.638C159.765 149.878 154.78 140.331 148.307 131.529C144.489 126.331 139.926 121.878 134.197 118.586C130.697 116.68 127.093 115.196 123.593 113.284C122.848 112.862 122.103 112.435 121.15 112.862C120.619 113.071 120.515 113.284 120.728 113.498C120.937 113.711 121.26 113.815 121.468 114.029C122.952 114.982 124.442 115.935 125.817 116.998C126.244 117.315 126.666 117.529 126.984 117.847C128.046 119.331 129.53 120.284 130.489 121.769C131.015 122.618 131.546 123.576 132.291 124.315C133.03 125.164 133.562 126.227 133.989 127.284C134.307 128.133 134.728 128.769 135.155 129.513C135.369 130.362 135.895 130.894 136.426 131.425C138.124 133.118 139.609 135.133 140.989 137.149C146.4 144.576 150.853 152.638 154.994 160.909C155.416 161.758 155.629 162.821 156.796 163.029C157.218 163.352 157.327 163.774 157.541 164.092C157.218 164.727 157.645 165.154 157.859 165.576C160.723 169.821 163.905 173.638 168.786 175.868C169.739 176.289 170.27 176.717 170.27 177.883C170.588 183.289 171.01 188.701 171.437 194.003C171.119 193.05 170.588 192.305 170.057 191.565C165.921 185.092 161.041 179.154 157.218 172.472C156.9 171.836 156.583 171.092 155.734 171.092C155.202 171.409 154.994 171.94 154.994 172.472C154.885 174.274 154.994 176.076 154.885 177.774C154.78 178.519 155.202 179.05 155.525 179.685C157.645 183.399 159.765 187.217 161.994 190.93C164.541 195.065 167.296 199.097 171.01 202.383C171.859 203.128 172.39 204.081 172.39 205.248C172.494 207.368 172.921 209.493 172.817 211.612C172.817 211.612 172.708 211.503 172.708 211.399C167.619 204.717 161.359 199.201 155.312 193.472C154.994 193.154 154.676 192.836 154.145 193.154C153.827 193.472 153.51 193.899 153.51 194.43C153.4 196.019 153.083 197.503 152.869 198.987C152.869 199.201 153.083 199.414 153.083 199.628C153.083 200.263 153.614 200.685 154.036 201.112C155.202 202.383 156.583 203.55 157.963 204.717C163.057 209.065 167.723 214.159 173.984 217.019C174.088 216.914 174.301 216.81 174.301 216.597C174.937 215.008 175.468 213.414 176.103 211.717C176.208 211.503 175.999 211.295 175.786 211.081C175.682 211.081 175.682 211.081 175.572 211.081C175.359 210.977 175.468 210.763 175.468 210.55C175.572 208.112 175.15 205.67 174.937 203.336C174.723 201.638 174.937 200.154 175.999 198.67C178.437 195.383 180.77 191.987 183.213 188.597C184.697 186.472 185.65 184.138 187.244 182.123C187.984 181.17 189.26 180.534 189.682 179.258C190.426 178.409 191.062 177.565 191.593 176.607C192.65 174.909 193.713 173.107 194.879 171.409C195.411 170.67 195.942 169.925 196.364 169.185C196.682 168.758 196.155 168.758 195.942 168.654C195.093 168.123 194.562 168.758 193.926 169.076C188.942 171.94 184.379 175.227 180.452 179.368C177.166 182.868 175.254 187.217 173.874 191.352C173.666 187.852 173.557 183.925 173.025 180.003C172.708 177.138 173.025 174.909 175.572 173.003C178.119 171.201 180.452 168.972 182.572 166.638C185.333 163.56 188.411 160.909 191.697 158.472C192.333 158.045 193.077 157.623 192.973 156.67C193.077 156.138 193.395 155.711 193.077 155.076C192.546 153.696 192.015 152.321 191.484 150.94C191.379 150.727 191.166 150.513 191.062 150.409C190.213 150.092 189.577 150.623 188.942 151.045C186.395 152.743 183.848 154.44 181.728 156.67C178.541 159.956 174.937 162.925 172.176 166.956C172.176 161.336 171.541 156.029 171.437 150.623C171.327 147.972 171.541 147.862 174.088 147.013C177.057 146.164 179.921 144.998 182.15 142.878C184.484 140.649 186.395 138.211 188.728 135.982C189.046 135.664 189.364 135.243 189.364 134.711C189.895 133.967 189.999 133.013 190.213 132.164C191.062 128.982 191.911 125.8 192.76 122.727C193.077 121.664 193.395 120.92 194.775 121.029C195.307 121.029 195.833 120.815 196.364 120.711C198.379 120.394 200.504 120.284 202.52 119.862C203.791 119.545 204.853 119.545 206.124 119.967C209.416 118.8 213.02 118.696 215.885 116.467C215.989 116.362 216.202 116.362 216.312 116.253C216.416 116.253 216.416 116.253 216.52 116.253C217.051 115.722 217.583 115.196 217.687 114.451C216.52 113.815 215.353 113.388 214.083 113.071C210.791 112.331 207.504 112.118 204.109 112.435C202.624 112.545 201.562 113.071 200.609 114.029C198.062 116.68 195.197 119.013 192.333 121.237C190.109 123.045 188.093 125.06 186.182 127.284C185.015 128.664 183.744 129.935 182.254 131.102C181.197 131.951 180.239 132.909 179.286 133.758C177.484 135.451 175.999 137.362 174.405 139.164C173.343 140.331 172.286 141.498 171.437 142.878C171.327 143.092 171.223 143.3 170.801 143.196C170.692 141.711 170.588 140.123 170.478 138.529C170.27 135.56 170.057 132.696 169.843 129.727C169.635 127.602 169.525 125.482 169.312 123.362C169.312 122.727 169.421 122.618 170.057 122.618C172.708 122.618 174.937 121.451 176.952 119.862C178.65 118.586 180.135 116.998 181.301 115.196C182.364 113.602 183.421 112.013 184.588 110.529C187.244 107.347 189.577 103.847 191.801 100.342C194.03 96.8415 196.895 93.9822 200.077 91.3259C203.577 88.3572 207.291 85.602 211.114 83.0551C211.853 82.5238 212.598 81.9926 213.338 81.4613C214.504 80.6176 215.671 79.6592 216.838 78.8103C218.749 77.5395 220.234 76.0551 221.614 74.3572C221.827 74.0395 222.145 73.7217 222.463 73.404C222.78 73.1905 223.098 73.0863 223.416 73.2947C225.749 74.5707 227.874 75.9457 229.572 78.0707C231.057 79.977 232.541 81.7842 234.129 83.5863C234.343 83.904 234.557 84.2217 234.874 84.3259C234.978 84.3259 235.088 84.3259 235.192 84.2217C235.301 84.1176 235.301 83.904 235.301 83.7947ZM212.807 139.696C212.702 139.164 212.598 138.633 212.598 138.107C212.598 137.149 212.489 137.149 211.432 136.94C211.114 137.045 210.687 137.045 210.369 137.149C208.249 137.894 206.338 139.164 204.426 140.44C202.52 141.711 200.609 142.982 198.593 144.258C198.379 146.06 198.807 147.862 199.02 149.664C199.02 149.774 199.228 149.987 199.338 150.092C199.76 149.664 200.291 149.347 200.713 148.925C202.728 147.013 205.067 145.529 207.609 144.68C208.353 144.472 209.098 144.149 209.838 143.94C210.583 143.623 211.432 143.409 212.171 142.878C212.489 142.456 213.02 142.133 212.916 141.498C212.916 140.862 212.916 140.227 212.807 139.696Z" fill="#396532"/>
</svg>
