<svg width="100" height="100" viewBox="0 0 100 100" fill="none" xmlns="http://www.w3.org/2000/svg">
<mask id="mask0_1094_486" style="mask-type:luminance" maskUnits="userSpaceOnUse" x="0" y="0" width="100" height="100">
<path d="M0 0H100V100H0V0Z" fill="white"/>
</mask>
<g mask="url(#mask0_1094_486)">
<path d="M98.6182 52.557C96.803 44.2807 92.4371 37.5161 86.0752 32.1242C83.5364 29.9702 80.7408 28.2192 77.7245 26.8588C77.5038 26.7584 77.3325 26.6207 77.0889 26.8849C76.1807 27.9042 75.2123 28.8603 74.1931 29.7693C74.2559 29.8201 74.2788 29.8573 74.3041 29.8697C74.4754 29.9466 74.6478 30.0198 74.8191 30.0967C77.9078 31.3826 80.8156 33.0307 83.3531 35.2616C93.7746 44.4332 97.7824 56.0243 94.6828 69.7432C90.6835 87.3673 73.9121 98.2403 57.1625 95.2418C50.9573 94.1195 45.5892 91.2859 40.9917 86.9146C35.509 81.7224 32.0283 75.3087 30.1637 67.9414C30.1143 67.7269 30.054 67.5123 30.0057 67.2854C29.8079 66.4533 29.6367 65.6373 29.5269 64.804C29.5161 64.7544 29.5016 64.7036 29.5016 64.6391C28.5826 59.0091 28.4596 52.583 28.4596 52.583C28.4246 52.5099 28.3993 52.433 28.4957 52.3834C28.5826 50.9846 28.8286 49.6106 29.3786 48.3246C30.5183 45.6931 32.1513 43.4263 34.1859 41.4484C35.3027 40.3633 36.5884 39.7098 38.0839 39.3948C40.5129 38.8888 42.9768 38.6644 45.4179 38.2849C51.0695 37.4429 56.5257 35.8655 61.7853 33.6111C67.5008 31.1681 72.2068 27.3127 76.0939 22.3871C79.1717 18.4945 81.5742 14.1964 83.2301 9.47291C83.4134 8.94587 83.3399 8.71894 82.7754 8.55401C80.4827 7.91289 78.1659 7.43298 75.8117 7.1304C71.9981 6.63809 68.1966 6.66413 64.3964 7.19364C60.2415 7.774 56.3062 9.05748 52.4926 10.8469C45.8581 13.9967 40.8084 18.771 37.8149 25.7142C36.3074 29.2013 35.363 32.8695 34.2221 36.4831C34.1859 36.5724 34.1256 36.6865 34.2486 36.7745L34.2342 36.7485C36.6631 33.549 39.2875 30.5257 42.217 27.8038C47.2077 23.1559 52.7362 19.4382 59.1995 17.3102C60.2644 16.9568 61.3451 16.6306 62.4968 16.5042C47.9434 23.4709 36.4798 33.9905 28.0314 47.8596C28.0314 47.872 28.0181 47.7455 28.0435 47.6215C28.6453 43.5652 28.4849 39.5448 27.7118 35.5381C26.5347 29.4928 24.0333 24.0364 20.625 18.9967C19.2525 16.9692 17.757 15.0409 16.1868 13.1659C16.9116 13.3928 17.4616 13.9198 18.0007 14.4121C24.6834 20.522 27.9325 28.3829 29.147 37.3015C29.3303 38.714 29.3786 40.124 29.5269 41.5488C30.5702 39.1034 31.5736 36.648 32.3346 34.1021C33.4864 30.1971 33.9049 26.2289 33.0341 22.185C32.0162 17.4231 29.662 13.3668 26.4623 9.86353C19.4986 2.2296 10.6703 -0.3262 0.761321 0.177273C0.405535 0.189673 0.259602 0.327322 0.222214 0.742749C0.0509549 3.17454 0.186033 5.58154 0.46825 7.98605C1.01942 12.4838 2.19653 16.7807 4.30471 20.775C7.99644 27.7542 13.2826 33.3085 19.4733 37.996C21.1653 39.2683 22.9793 40.3893 24.7087 41.6232C25.6398 42.2904 26.314 43.1857 26.5226 44.3948C26.706 45.4278 26.6577 46.4732 26.4479 47.495C25.9727 49.8635 25.5795 52.2308 25.4191 54.6502C25.2358 57.4342 25.2599 60.207 25.4082 62.9885C25.5662 66.1904 25.9956 69.3514 26.8784 72.4392C32.126 90.9089 50.0636 102.535 68.5295 99.3973C75.8249 98.1634 82.322 95.0768 87.6792 89.8115C98.1032 79.5324 101.792 67.0324 98.6182 52.557Z" fill="#89C190"/>
</g>
<path d="M78.964 60.1687L64.987 59.9517C65.2017 58.0122 65.4127 56.0715 65.6286 54.132C65.8891 51.7969 66.146 49.4631 66.4089 47.1293C66.667 44.8314 66.9312 42.5373 67.2025 40.1216C67.0494 40.3374 66.9565 40.4589 66.8733 40.5879C63.9522 45.2022 61.0287 49.8165 58.1125 54.4309C56.9064 56.3344 55.7088 58.2429 54.5076 60.1489C54.4943 60.1687 54.4823 60.1898 54.4726 60.2109C54.434 60.2592 54.387 60.3051 54.3544 60.3572C52.7407 62.9031 51.127 65.4514 49.5157 67.9986C49.2806 68.3694 49.049 68.7439 48.7812 69.1704H62.3216C62.5146 69.1804 62.7076 69.189 62.9029 69.199C62.1709 75.6982 61.44 82.1975 60.7079 88.6992L78.964 60.1687Z" fill="#89C190"/>
</svg>
