<?xml version="1.0" encoding="UTF-8"?>
<svg version="1.1" xmlns="http://www.w3.org/2000/svg" width="250" height="250">
<path d="M0 0 C12.59481141 10.07353603 20.23805261 22.73383064 22.41943359 38.82666016 C23.50194408 55.83456535 19.67232769 70.61324426 8.48193359 83.76416016 C5.84515074 86.62754154 3.31464462 88.53833862 -0.01806641 90.51416016 C-3.00534421 92.58408494 -3.52266009 93.59066459 -4.40869141 97.20166016 C-4.7530778 100.85515055 -4.99300895 104.17813 -4.58056641 107.82666016 C-4.08717773 108.26985596 -3.59378906 108.71305176 -3.08544922 109.16967773 C0.12411485 112.7036348 -1.11524626 118.79956349 -1.14306641 123.32666016 C-1.12308594 124.48037109 -1.10310547 125.63408203 -1.08251953 126.82275391 C-1.08348633 128.47984375 -1.08348633 128.47984375 -1.08447266 130.17041016 C-1.08261963 131.18296875 -1.0807666 132.19552734 -1.07885742 133.23876953 C-1.58056641 135.82666016 -1.58056641 135.82666016 -3.48657227 137.66137695 C-5.74556116 138.9184778 -7.02718392 139.12419893 -9.58056641 139.13916016 C-11.68599621 139.27328967 -11.68599621 139.27328967 -13.58056641 139.82666016 C-14.98625445 141.77648551 -16.31007 143.78616593 -17.58056641 145.82666016 C-20.44997995 148.04507237 -23.47570875 149.95578439 -26.58056641 151.82666016 C-24.97869873 153.52542026 -24.97869873 153.52542026 -22.58056641 154.82666016 C-17.53042489 154.54177414 -12.60189102 153.13055519 -7.70556641 151.88916016 C-6.98870667 151.71182343 -6.27184692 151.53448669 -5.53326416 151.35177612 C8.64780192 147.76722221 19.64911046 141.48138408 31.41943359 132.82666016 C46.71395077 122.09280465 46.71395077 122.09280465 54.41943359 122.82666016 C57.48193359 124.88916016 57.48193359 124.88916016 59.41943359 127.82666016 C59.73193359 131.13916016 59.73193359 131.13916016 59.41943359 133.82666016 C60.01755859 133.88853516 60.61568359 133.95041016 61.23193359 134.01416016 C63.41943359 134.82666016 63.41943359 134.82666016 65.29443359 137.01416016 C66.41943359 139.82666016 66.41943359 139.82666016 66.16943359 142.76416016 C61.83776316 150.34458341 51.19814211 154.2703843 43.73193359 158.26416016 C42.74515625 158.79847656 41.75837891 159.33279297 40.74169922 159.88330078 C38.68854703 160.98884427 36.62970359 162.08386958 34.56591797 163.16943359 C32.55121402 164.23056103 30.54615126 165.3103288 28.55419922 166.41357422 C17.59048661 172.25649009 5.9220796 176.45708192 -5.77064419 180.58650494 C-9.07300311 181.75309613 -12.36224903 182.94234253 -15.63330078 184.19433594 C-41.51811403 194.07102557 -41.51811403 194.07102557 -54.10305786 188.48141479 C-55.7200852 187.70227918 -57.32896141 186.90604448 -58.93011475 186.0947876 C-64.04703333 183.64656152 -69.43459119 181.86718715 -74.76806641 179.95166016 C-77.05557054 179.10683019 -79.34202721 178.25915879 -81.62744141 177.40869141 C-82.76890625 176.98539551 -83.91037109 176.56209961 -85.08642578 176.12597656 C-87.44570009 175.24866676 -89.80374723 174.36805076 -92.16064453 173.484375 C-95.60952019 172.19270201 -99.06320837 170.91473004 -102.51806641 169.63916016 C-103.5721167 169.24035645 -104.62616699 168.84155273 -105.7121582 168.43066406 C-106.68838135 168.07278809 -107.66460449 167.71491211 -108.67041016 167.34619141 C-109.95226196 166.8682312 -109.95226196 166.8682312 -111.26000977 166.38061523 C-113.81949386 165.76962424 -115.13931273 165.90746265 -117.58056641 166.82666016 C-119.24832331 168.10039966 -119.24832331 168.10039966 -120.75244141 169.74072266 C-121.33509766 170.33755859 -121.91775391 170.93439453 -122.51806641 171.54931641 C-123.11619141 172.17708984 -123.71431641 172.80486328 -124.33056641 173.45166016 C-127.89173617 177.14676772 -131.44273401 180.76365624 -135.34619141 184.10009766 C-140.70792725 188.71678804 -145.61683666 193.79206819 -150.58056641 198.82666016 C-156.19084307 204.51702914 -161.79602116 210.14523668 -167.87402344 215.34277344 C-170.20656736 217.37098545 -172.36371928 219.54923385 -174.51806641 221.76416016 C-175.85378019 223.13653161 -177.20249077 224.49683225 -178.58056641 225.82666016 C-178.91056641 225.82666016 -179.24056641 225.82666016 -179.58056641 225.82666016 C-179.99960959 215.62207709 -180.31839798 205.41957054 -180.5131855 195.20810413 C-180.60673853 190.464644 -180.7332939 185.72710857 -180.93847656 180.98706055 C-182.33907025 147.77021803 -182.33907025 147.77021803 -175.82324219 140.60131836 C-172.12309687 137.55721108 -168.16174198 135.50451811 -163.73077393 133.72097778 C-160.98026998 132.57698394 -158.74020772 130.99535086 -156.36962891 129.20556641 C-154.98320264 128.26441105 -153.59523005 127.32552875 -152.20556641 126.38916016 C-147.12264133 122.94248973 -142.05976072 119.4725257 -137.04150391 115.93212891 C-136.12933105 115.28880615 -135.2171582 114.6454834 -134.27734375 113.98266602 C-132.51244687 112.73528688 -130.74966199 111.4849128 -128.98925781 110.23120117 C-128.19438965 109.66973389 -127.39952148 109.1082666 -126.58056641 108.52978516 C-125.87931641 108.03124023 -125.17806641 107.53269531 -124.45556641 107.01904297 C-118.43884031 103.19278122 -109.52950765 103.94849617 -102.82275391 105.43994141 C-92.77469924 109.10699673 -84.26188703 115.8022495 -78.58056641 124.82666016 C-77.96181641 125.77541016 -77.34306641 126.72416016 -76.70556641 127.70166016 C-75.58056641 129.82666016 -75.58056641 129.82666016 -75.58056641 131.82666016 C-74.49775391 132.01228516 -74.49775391 132.01228516 -73.39306641 132.20166016 C-70.62334746 132.81715326 -68.18353101 133.7111039 -65.58056641 134.82666016 C-64.73458896 130.12678544 -64.73085346 126.50008134 -65.58056641 121.82666016 C-65.25056641 120.83666016 -64.92056641 119.84666016 -64.58056641 118.82666016 C-64.78681641 117.85728516 -64.99306641 116.88791016 -65.20556641 115.88916016 C-65.39119141 114.37322266 -65.39119141 114.37322266 -65.58056641 112.82666016 C-65.10748047 112.25560547 -64.63439453 111.68455078 -64.14697266 111.09619141 C-60.78175006 106.22039508 -61.6207621 99.45012897 -62.58056641 93.82666016 C-64.7637974 90.90465908 -67.43193691 89.57528392 -70.58056641 87.82666016 C-79.90068711 80.15354623 -86.03917567 68.5603435 -88.58056641 56.82666016 C-90.04706401 38.04133154 -87.82633677 22.91915516 -75.32666016 8.16650391 C-55.94693604 -12.45750426 -23.40683567 -17.37615882 0 0 Z M-56.58056641 138.82666016 C-54.60056641 139.81666016 -54.60056641 139.81666016 -52.58056641 140.82666016 C-52.58056641 140.16666016 -52.58056641 139.50666016 -52.58056641 138.82666016 C-53.90056641 138.82666016 -55.22056641 138.82666016 -56.58056641 138.82666016 Z " fill="#EEA594" transform="translate(179.58056640625,17.17333984375)"/>
<path d="M0 0 C12.59481141 10.07353603 20.23805261 22.73383064 22.41943359 38.82666016 C23.50194408 55.83456535 19.67232769 70.61324426 8.48193359 83.76416016 C5.84515074 86.62754154 3.31464462 88.53833862 -0.01806641 90.51416016 C-3.08249366 92.60898348 -3.52359667 93.54116412 -4.26806641 97.27197266 C-4.43172261 99.80352958 -4.52685486 102.34066796 -4.54541016 104.87744141 C-4.58056641 107.82666016 -4.58056641 107.82666016 -5.58056641 108.82666016 C-7.3298536 108.92031022 -9.08292894 108.94410454 -10.8347168 108.94018555 C-11.95580338 108.94011002 -13.07688995 108.94003448 -14.23194885 108.93995667 C-16.06160439 108.93221474 -16.06160439 108.93221474 -17.92822266 108.92431641 C-19.16978622 108.92290146 -20.41134979 108.92148651 -21.6905365 108.92002869 C-24.99662131 108.91536606 -28.30263787 108.90637512 -31.60870361 108.89532471 C-34.9801779 108.88510842 -38.35165923 108.8805306 -41.72314453 108.87548828 C-48.34230415 108.86443411 -54.96143134 108.84767752 -61.58056641 108.82666016 C-61.62576416 107.26334961 -61.62576416 107.26334961 -61.671875 105.66845703 C-61.73168201 104.2940685 -61.79244161 102.91972118 -61.85400391 101.54541016 C-61.87998657 100.51625488 -61.87998657 100.51625488 -61.90649414 99.46630859 C-62.06908773 96.23010856 -62.24910325 94.24134172 -64.30175781 91.67333984 C-66.3269954 90.24076604 -68.42095287 89.04529923 -70.58056641 87.82666016 C-79.89673147 80.14082398 -86.03743822 68.56836539 -88.58056641 56.82666016 C-90.04706401 38.04133154 -87.82633677 22.91915516 -75.32666016 8.16650391 C-55.94693604 -12.45750426 -23.40683567 -17.37615882 0 0 Z " fill="#40BEBB" transform="translate(179.58056640625,17.17333984375)"/>
<path d="M0 0 C15.38215622 3.4386037 27.93148003 11.93805429 36.765625 24.97265625 C44.66091527 38.41390651 46.71468338 53.87358196 43.703125 69.09765625 C40.47482829 81.48285063 33.51442809 93.59077656 22.328125 100.22265625 C19.26369774 102.31747957 18.82259473 103.24966021 18.078125 106.98046875 C17.91446879 109.51202568 17.81933654 112.04916405 17.80078125 114.5859375 C17.765625 117.53515625 17.765625 117.53515625 16.765625 118.53515625 C14.47411083 118.623066 12.17989976 118.64209663 9.88671875 118.6328125 C8.85672508 118.63069008 8.85672508 118.63069008 7.80592346 118.62852478 C5.60494699 118.62291104 3.40407091 118.61035632 1.203125 118.59765625 C-0.28580583 118.59264301 -1.77473824 118.5880798 -3.26367188 118.58398438 C-6.92060575 118.57293718 -10.57748058 118.55566338 -14.234375 118.53515625 C-14.264104 117.61573242 -14.264104 117.61573242 -14.29443359 116.67773438 C-14.81395088 92.72729607 -14.81395088 92.72729607 -20.234375 69.53515625 C-20.80542969 69.85742188 -21.37648437 70.1796875 -21.96484375 70.51171875 C-26.98784866 72.77682596 -31.88619976 72.03786566 -36.921875 70.16015625 C-42.50101908 66.5356543 -45.1668696 59.78877877 -47.921875 53.97265625 C-49.04652439 51.21701495 -49.04652439 51.21701495 -52.234375 50.53515625 C-52.234375 49.87515625 -52.234375 49.21515625 -52.234375 48.53515625 C-45.25382953 45.21108698 -36.64891066 45.53262944 -29.20703125 47.22265625 C-23.73601095 49.19715982 -20.05274731 51.38433789 -17.234375 56.53515625 C-17.27218673 58.91309377 -17.61196566 61.11239367 -18.0234375 63.453125 C-18.33610373 66.53925652 -16.93044456 67.99105191 -15.234375 70.53515625 C-14.08326028 74.16400669 -13.14688349 77.83982045 -12.234375 81.53515625 C-12.13640625 80.61734375 -12.0384375 79.69953125 -11.9375 78.75390625 C-10.56594184 67.49767029 -10.56594184 67.49767029 -7.984375 62.91015625 C-7.406875 61.79640625 -6.829375 60.68265625 -6.234375 59.53515625 C-7.05467473 57.45184511 -7.05467473 57.45184511 -8.234375 55.53515625 C-8.671875 53.09765625 -8.671875 53.09765625 -8.234375 50.53515625 C-3.32866331 44.44018112 3.18356154 41.10385903 10.765625 39.53515625 C13.77485686 39.39071312 16.75612212 39.4123194 19.765625 39.53515625 C13.7670788 23.19810184 4.31289586 13.12197905 -11.0234375 4.98046875 C-14.41771531 3.45263081 -17.63839845 2.46811742 -21.234375 1.53515625 C-15.45039588 -2.32082983 -6.69392752 -0.96204997 0 0 Z " fill="#359E9B" transform="translate(157.234375,7.46484375)"/>
<path d="M0 0 C1.17454239 -0.00615326 2.34908478 -0.01230652 3.55921936 -0.01864624 C5.46241188 0.00291031 5.46241188 0.00291031 7.40405273 0.02490234 C9.35492043 0.02627701 9.35492043 0.02627701 11.34519958 0.02767944 C14.0967243 0.0308064 16.84772755 0.04736401 19.59912109 0.07421875 C23.1290185 0.10823253 26.65834386 0.11584638 30.18838596 0.11432838 C33.55201847 0.11500232 36.91546256 0.13267368 40.27905273 0.14990234 C41.54987198 0.15212799 42.82069122 0.15435364 44.13002014 0.15664673 C45.88710548 0.17578629 45.88710548 0.17578629 47.6796875 0.1953125 C48.71432632 0.2029361 49.74896515 0.21055969 50.81495667 0.21841431 C53.27514648 0.48583984 53.27514648 0.48583984 55.27514648 2.48583984 C55.75966031 6.61235042 55.64554115 10.77162934 55.65014648 14.92333984 C55.67463867 16.0815625 55.69913086 17.23978516 55.72436523 18.43310547 C55.72823242 19.54234375 55.73209961 20.65158203 55.73608398 21.79443359 C55.74430176 22.81335693 55.75251953 23.83228027 55.76098633 24.88208008 C55.27514648 27.48583984 55.27514648 27.48583984 53.37133789 29.32275391 C51.11171108 30.57652308 49.82759487 30.78338409 47.27514648 30.79833984 C45.17196797 30.9277891 45.17196797 30.9277891 43.27514648 31.48583984 C41.19808167 34.26754881 41.19808167 34.26754881 39.27514648 37.48583984 C35.74105082 40.49723262 32.75194204 42.3153008 28.09545898 42.85302734 C23.19585197 42.38210397 19.40202217 40.77643307 14.96264648 38.73583984 C14.1524707 38.38779297 13.34229492 38.03974609 12.50756836 37.68115234 C11.34644531 37.15908203 11.34644531 37.15908203 10.16186523 36.62646484 C9.46279053 36.31225586 8.76371582 35.99804688 8.04345703 35.67431641 C5.89406797 34.22971804 5.2365361 32.8556761 4.27514648 30.48583984 C2.69733398 30.57865234 2.69733398 30.57865234 1.08764648 30.67333984 C-2.94170326 30.4751751 -4.67960816 30.083255 -7.72485352 27.48583984 C-8.88675726 24.16611486 -8.848692 22.85735531 -7.72485352 19.48583984 C-7.88985352 18.49583984 -8.05485352 17.50583984 -8.22485352 16.48583984 C-8.72485352 13.48583984 -8.72485352 13.48583984 -7.72485352 10.48583984 C-7.93110352 9.51646484 -8.13735352 8.54708984 -8.34985352 7.54833984 C-8.72485352 4.48583984 -8.72485352 4.48583984 -7.60609436 2.32479858 C-5.03927743 -0.18432748 -3.55337154 -0.00978067 0 0 Z " fill="#9E9D9D" transform="translate(122.724853515625,125.51416015625)"/>
<path d="M0 0 C11.37500389 5.65595201 22.70390933 11.39876703 34.01000977 17.19116211 C36.69403164 18.56584533 39.37921395 19.93824331 42.06445312 21.31054688 C51.43349205 26.1048585 60.76518484 30.95118268 70 36 C70 36.66 70 37.32 70 38 C62.75510533 38.54675407 57.3467953 36.64178951 50.640625 34.02734375 C49.57382507 33.62544327 48.50702515 33.22354279 47.40789795 32.8094635 C44.01707973 31.53119413 40.63305118 30.23617377 37.25 28.9375 C33.85239343 27.63606917 30.45353967 26.33869362 27.04925537 25.05482483 C24.93512414 24.25739376 22.82479421 23.44979578 20.71881104 22.63108826 C19.76391785 22.27063919 18.80902466 21.91019012 17.82519531 21.53881836 C16.98772766 21.21682968 16.15026001 20.894841 15.28741455 20.56309509 C12.74071188 19.93617079 11.43352859 20.08478505 9 21 C7.3322431 22.2737395 7.3322431 22.2737395 5.828125 23.9140625 C5.24546875 24.51089844 4.6628125 25.10773438 4.0625 25.72265625 C3.464375 26.35042969 2.86625 26.97820312 2.25 27.625 C-1.31116976 31.32010756 -4.8621676 34.93699608 -8.765625 38.2734375 C-14.12736085 42.89012789 -19.03627026 47.96540804 -24 53 C-29.61027666 58.69036899 -35.21545475 64.31857652 -41.29345703 69.51611328 C-43.62600095 71.54432529 -45.78315287 73.72257369 -47.9375 75.9375 C-49.27321379 77.30987145 -50.62192437 78.67017209 -52 80 C-52.33 80 -52.66 80 -53 80 C-53.29249758 75.83483453 -53.4686497 71.6723194 -53.625 67.5 C-53.70878906 66.32695312 -53.79257812 65.15390625 -53.87890625 63.9453125 C-54.12032277 55.35088434 -54.12032277 55.35088434 -51.01293945 51.60400391 C-48.43397965 49.54567918 -45.78426134 47.76805621 -43 46 C-41.61589833 44.90546199 -40.24840658 43.78943082 -38.90234375 42.6484375 C-38.25418701 42.11387939 -37.60603027 41.57932129 -36.93823242 41.02856445 C-36.27799072 40.48288818 -35.61774902 39.93721191 -34.9375 39.375 C-34.22505127 38.7874292 -33.51260254 38.1998584 -32.77856445 37.59448242 C-29.72951978 35.07979609 -26.68197769 32.5632933 -23.63476562 30.04638672 C-21.3195789 28.13440131 -19.0035519 26.22343723 -16.6875 24.3125 C-15.6210022 23.43053955 -15.6210022 23.43053955 -14.53295898 22.53076172 C-13.86594971 21.98049316 -13.19894043 21.43022461 -12.51171875 20.86328125 C-11.89603027 20.35442383 -11.2803418 19.84556641 -10.64599609 19.32128906 C-9.33218629 18.26665562 -7.96463298 17.27909017 -6.58203125 16.31640625 C-4.64647912 14.95363309 -4.64647912 14.95363309 -4 11.625 C-3.66734901 7.91785482 -3.66734901 7.91785482 -5.9375 5.0625 C-6.9584375 4.0415625 -6.9584375 4.0415625 -8 3 C-7.67 2.34 -7.34 1.68 -7 1 C-4.36 2.98 -1.72 4.96 1 7 C0.505 3.535 0.505 3.535 0 0 Z " fill="#B57D70" transform="translate(53,163)"/>
<path d="M0 0 C2.82061208 1.43221043 5.5040004 2.92051239 8.14453125 4.66015625 C7.35949219 5.27375 6.57445312 5.88734375 5.765625 6.51953125 C2.50718362 9.18067265 0.2092194 12.16777286 -2.2265625 15.58203125 C-6.75151554 21.83469364 -10.97467644 26.89099879 -18.85546875 28.66015625 C-25.55864006 29.25865369 -29.38174631 27.30930454 -34.85546875 23.66015625 C-37.80469346 41.33695592 -38.53898946 58.77995037 -38.85546875 76.66015625 C-40.17546875 76.66015625 -41.49546875 76.66015625 -42.85546875 76.66015625 C-42.88519775 75.74073242 -42.88519775 75.74073242 -42.91552734 74.80273438 C-43.43504463 50.85229607 -43.43504463 50.85229607 -48.85546875 27.66015625 C-49.42652344 27.98242188 -49.99757812 28.3046875 -50.5859375 28.63671875 C-55.60894241 30.90182596 -60.50729351 30.16286566 -65.54296875 28.28515625 C-71.12211283 24.6606543 -73.78796335 17.91377877 -76.54296875 12.09765625 C-77.66761814 9.34201495 -77.66761814 9.34201495 -80.85546875 8.66015625 C-80.85546875 8.00015625 -80.85546875 7.34015625 -80.85546875 6.66015625 C-73.87492328 3.33608698 -65.27000441 3.65762944 -57.828125 5.34765625 C-52.3571047 7.32215982 -48.67384106 9.50933789 -45.85546875 14.66015625 C-45.89328048 17.03809377 -46.23305941 19.23739367 -46.64453125 21.578125 C-46.95719748 24.66425652 -45.55153831 26.11605191 -43.85546875 28.66015625 C-42.70435403 32.28900669 -41.76797724 35.96482045 -40.85546875 39.66015625 C-40.7575 38.74234375 -40.65953125 37.82453125 -40.55859375 36.87890625 C-39.18703559 25.62267029 -39.18703559 25.62267029 -36.60546875 21.03515625 C-35.73921875 19.36453125 -35.73921875 19.36453125 -34.85546875 17.66015625 C-35.67576848 15.57684511 -35.67576848 15.57684511 -36.85546875 13.66015625 C-37.29296875 11.22265625 -37.29296875 11.22265625 -36.85546875 8.66015625 C-28.48955723 -1.73385504 -12.3304671 -5.0075124 0 0 Z " fill="#3FB952" transform="translate(185.85546875,49.33984375)"/>
<path d="M0 0 C0.99 0.33 1.98 0.66 3 1 C3 1.66 3 2.32 3 3 C3.598125 3.061875 4.19625 3.12375 4.8125 3.1875 C7 4 7 4 8.875 6.1875 C10 9 10 9 9.75 11.9375 C5.41832957 19.51792326 -5.22129148 23.44372414 -12.6875 27.4375 C-13.67427734 27.97181641 -14.66105469 28.50613281 -15.67773438 29.05664062 C-17.72438696 30.15868433 -19.77651661 31.25060587 -21.83349609 32.33325195 C-23.91377571 33.4282457 -25.98486706 34.54091103 -28.04541016 35.67260742 C-38.22140254 41.07036804 -48.90926478 44.70699535 -59.80712891 48.36401367 C-63.02626181 49.44632958 -66.23782154 50.54926588 -69.44921875 51.65429688 C-71.5073959 52.35279125 -73.5659757 53.05010056 -75.625 53.74609375 C-77.05477173 54.23812538 -77.05477173 54.23812538 -78.51342773 54.74009705 C-83.14659568 56.28082968 -87.0457775 57.42845384 -92 57 C-88.58983503 54.13546142 -85.09305456 52.65296434 -81 51 C-81 50.67 -81 50.34 -81 50 C-82.28197266 49.81824219 -82.28197266 49.81824219 -83.58984375 49.6328125 C-84.69457031 49.46523437 -85.79929688 49.29765625 -86.9375 49.125 C-88.59072266 48.88136719 -88.59072266 48.88136719 -90.27734375 48.6328125 C-91.17582031 48.42398438 -92.07429687 48.21515625 -93 48 C-93.33 47.34 -93.66 46.68 -94 46 C-92.17708333 45.57682292 -90.35416667 45.15364583 -88.53125 44.73046875 C-85.81475375 43.98504031 -85.81475375 43.98504031 -82.52734375 42.671875 C-75.70083053 40.0664145 -68.64390215 38.12403496 -61.64257812 36.04882812 C-55.20017656 34.10374004 -49.05890626 31.93880962 -43 29 C-42.67 29.33 -42.34 29.66 -42 30 C-40.33382885 30.04063832 -38.66611905 30.042721 -37 30 C-37.495 28.02 -37.495 28.02 -38 26 C-37.49774902 25.68885254 -36.99549805 25.37770508 -36.47802734 25.05712891 C-18.75665684 14.25394122 -18.75665684 14.25394122 -2.3046875 1.65625 C-1.16386719 0.83640625 -1.16386719 0.83640625 0 0 Z " fill="#ECA393" transform="translate(236,148)"/>
<path d="M0 0 C0.66 0.66 1.32 1.32 2 2 C1.21246446 9.82613447 -7.37737517 16.45436896 -12.65625 21.59765625 C-17.27626663 26.3331733 -21.90733859 31.54070257 -25.33984375 37.21484375 C-27.78309052 39.84205263 -30.21714768 40.06280152 -33.6875 40.75 C-34.86699219 40.99234375 -36.04648438 41.2346875 -37.26171875 41.484375 C-38.16535156 41.65453125 -39.06898437 41.8246875 -40 42 C-40 42.66 -40 43.32 -40 44 C-38.68 44.33 -37.36 44.66 -36 45 C-35.125 47 -35.125 47 -35 50 C-37.16217537 54.10813321 -39.41689571 57.44935503 -43.875 59 C-44.57625 59 -45.2775 59 -46 59 C-50.92872563 52.78551986 -50.47477827 46.67558195 -50 39 C-48.07679696 27.77045003 -42.00168444 16.99339724 -33 10 C-22.69969978 3.01455801 -12.75299429 -1.45993874 0 0 Z " fill="#65CBC4" transform="translate(145,14)"/>
<path d="M0 0 C0.80277878 -0.01568527 1.60555756 -0.03137054 2.43266296 -0.04753113 C4.13133761 -0.07215617 5.83020295 -0.08573773 7.52905273 -0.08911133 C10.11963086 -0.10536156 12.70203295 -0.19075303 15.29101562 -0.27929688 C27.38663778 -0.47558993 27.38663778 -0.47558993 31.32958984 2.76806641 C32.85321795 5.04970509 33.94794688 7.11346232 34.82421875 9.70703125 C32.76077047 11.94880099 30.90603602 13.33663267 28.15063477 14.62402344 C27.4230043 14.96737732 26.69537384 15.3107312 25.94569397 15.66448975 C25.16439621 16.02399719 24.38309845 16.38350464 23.578125 16.75390625 C22.77060287 17.12936584 21.96308075 17.50482544 21.13108826 17.8916626 C19.42550281 18.68173415 17.71826891 19.46825543 16.00952148 20.25146484 C13.39380535 21.45377391 10.78772957 22.67542718 8.18164062 23.8984375 C6.52268781 24.66395864 4.86319981 25.42832127 3.203125 26.19140625 C2.42385147 26.55901062 1.64457794 26.92661499 0.84169006 27.30535889 C-0.25448387 27.80147675 -0.25448387 27.80147675 -1.37280273 28.30761719 C-2.0121727 28.60279236 -2.65154266 28.89796753 -3.31028748 29.2020874 C-5.64609909 29.83433486 -6.92695725 29.55596517 -9.17578125 28.70703125 C-9.83578125 28.04703125 -10.49578125 27.38703125 -11.17578125 26.70703125 C-10.86132612 24.37107887 -10.52542305 22.03797659 -10.17578125 19.70703125 C-10.4840905 17.70302114 -10.81307537 15.70191359 -11.17578125 13.70703125 C-10.84578125 12.71703125 -10.51578125 11.72703125 -10.17578125 10.70703125 C-10.38203125 9.73765625 -10.58828125 8.76828125 -10.80078125 7.76953125 C-11.17578125 4.70703125 -11.17578125 4.70703125 -10.21020508 2.55981445 C-7.15364403 -0.22384591 -3.94134636 0.03859019 0 0 Z " fill="#BBBBBB" transform="translate(125.17578125,125.29296875)"/>
<path d="M0 0 C1.92127675 5.39966668 -0.81212373 10.02092401 -3 15 C-6.83307341 22.70099294 -12.67292171 32.57305029 -20.7265625 36.2421875 C-23.1248629 37.72985525 -23.1248629 37.72985525 -23.48901367 39.82348633 C-23.71808699 42.12268469 -23.79544227 44.37712496 -23.8125 46.6875 C-23.83763672 47.48478516 -23.86277344 48.28207031 -23.88867188 49.10351562 C-23.94750315 51.0684802 -23.97662404 53.03429391 -24 55 C-26.31 55 -28.62 55 -31 55 C-31.81658291 11.63316583 -31.81658291 11.63316583 -27 2 C-26.443125 2.28875 -25.88625 2.5775 -25.3125 2.875 C-24.549375 3.24625 -23.78625 3.6175 -23 4 C-22.236875 4.37125 -21.47375 4.7425 -20.6875 5.125 C-14.9567184 6.99083587 -10.25565027 6.0126358 -4.796875 3.94921875 C-2.80456566 2.89675969 -1.50742408 1.66095802 0 0 Z " fill="#3FBEB9" transform="translate(178,71)"/>
<path d="M0 0 C11.61447036 0.21310955 19.79620045 4.8344441 28.5 12.375 C30.78203229 14.89358442 32.69140501 17.50216374 34.5 20.375 C35.428125 21.798125 35.428125 21.798125 36.375 23.25 C37.5 25.375 37.5 25.375 37.5 27.375 C38.21671875 27.49230469 38.9334375 27.60960937 39.671875 27.73046875 C42.61470364 28.40114102 45.02400337 29.40022381 47.75 30.6875 C51.85480021 32.61238412 55.97720614 34.48466528 60.12255859 36.32006836 C62.45359328 37.35440815 64.78005462 38.39840601 67.10546875 39.4453125 C67.86150391 39.78433594 68.61753906 40.12335938 69.39648438 40.47265625 C70.9365032 41.16323588 72.47555296 41.85598026 74.01367188 42.55078125 C77.32999073 44.03417323 80.50302469 45.37591452 83.98828125 46.4296875 C84.81714844 46.74164063 85.64601563 47.05359375 86.5 47.375 C86.83 48.365 87.16 49.355 87.5 50.375 C77.69650614 47.48910526 68.01377493 44.28034032 58.33129883 41.01464844 C56.31501592 40.33695561 54.29709468 39.6641182 52.27758789 38.99609375 C49.33345171 38.02179935 46.39488864 37.03210614 43.45703125 36.0390625 C42.5620845 35.7461734 41.66713776 35.4532843 40.74507141 35.15151978 C35.21150971 33.2577511 31.14992066 30.91300705 26.5 27.375 C23.2417112 26.06368374 23.2417112 26.06368374 20.5 25.375 C21.75 23.875 21.75 23.875 23.5 22.375 C24.82 22.375 26.14 22.375 27.5 22.375 C18.86794085 10.53674745 5.45134891 5.12005708 -8.5 2.375 C-5.70831279 -0.41668721 -3.90023373 0.04239384 0 0 Z " fill="#CA8E80" transform="translate(66.5,121.625)"/>
<path d="M0 0 C0.99 0.33 1.98 0.66 3 1 C-0.41737955 5.36559101 -3.99120093 8.79717599 -8.4375 12.125 C-14.2052251 16.53783348 -19.75650627 21.13842218 -25.20483398 25.93994141 C-25.74567627 26.41222168 -26.28651855 26.88450195 -26.84375 27.37109375 C-27.30974609 27.78286865 -27.77574219 28.19464355 -28.25585938 28.61889648 C-32.86872595 32.27161012 -37.1065238 34.60439224 -42.76171875 36.25390625 C-43.393022 36.44089584 -44.02432526 36.62788544 -44.67475891 36.82054138 C-46.67633755 37.41079656 -48.68170664 37.9867518 -50.6875 38.5625 C-52.01263854 38.95155977 -53.33751091 39.3415273 -54.66210938 39.73242188 C-58.43572311 40.8417501 -62.21663105 41.92437138 -66 43 C-67.09006348 43.31179199 -68.18012695 43.62358398 -69.30322266 43.94482422 C-70.28210449 44.21955566 -71.26098633 44.49428711 -72.26953125 44.77734375 C-73.11749268 45.01573975 -73.9654541 45.25413574 -74.83911133 45.49975586 C-77 46 -77 46 -80 46 C-80 46.99 -80 47.98 -80 49 C-82.1464753 48.88655624 -84.29220592 48.75893655 -86.4375 48.625 C-87.63246094 48.55539063 -88.82742187 48.48578125 -90.05859375 48.4140625 C-91.02925781 48.27742188 -91.99992188 48.14078125 -93 48 C-93.33 47.34 -93.66 46.68 -94 46 C-92.17708333 45.57682292 -90.35416667 45.15364583 -88.53125 44.73046875 C-85.81475375 43.98504031 -85.81475375 43.98504031 -82.52734375 42.671875 C-75.70083053 40.0664145 -68.64390215 38.12403496 -61.64257812 36.04882812 C-55.20017656 34.10374004 -49.05890626 31.93880962 -43 29 C-42.67 29.33 -42.34 29.66 -42 30 C-40.33382885 30.04063832 -38.66611905 30.042721 -37 30 C-37.495 28.02 -37.495 28.02 -38 26 C-37.49774902 25.68885254 -36.99549805 25.37770508 -36.47802734 25.05712891 C-18.75665684 14.25394122 -18.75665684 14.25394122 -2.3046875 1.65625 C-1.16386719 0.83640625 -1.16386719 0.83640625 0 0 Z " fill="#C6887A" transform="translate(236,148)"/>
<path d="M0 0 C2.82061208 1.43221043 5.5040004 2.92051239 8.14453125 4.66015625 C7.3659375 5.26601563 6.58734375 5.871875 5.78515625 6.49609375 C2.57036683 9.13069928 0.01134774 11.92652327 -1.85546875 15.66015625 C-2.84546875 15.33015625 -3.83546875 15.00015625 -4.85546875 14.66015625 C-5.74677288 11.98624385 -6.33278409 9.42291802 -6.85546875 6.66015625 C-15.73097646 9.58842595 -23.78674177 12.86832043 -31.85546875 17.66015625 C-36.6616703 14.4159702 -36.6616703 14.4159702 -37.48046875 11.22265625 C-36.44497111 6.97711592 -33.64758537 4.83267894 -30.0703125 2.4921875 C-21.65003308 -2.45986643 -9.28692659 -3.77150352 0 0 Z " fill="#349941" transform="translate(185.85546875,49.33984375)"/>
<path d="M0 0 C12.87 0 25.74 0 39 0 C36.53444714 6.16388214 33.12266526 10.23022286 27 13 C20.65244525 13.65165011 16.28743912 11.76295013 10.6875 9.125 C9.87732422 8.76019531 9.06714844 8.39539063 8.23242188 8.01953125 C2.30510753 5.30510753 2.30510753 5.30510753 0 3 C0 2.01 0 1.02 0 0 Z " fill="#BDBBBB" transform="translate(127,155)"/>
<path d="M0 0 C7.72933442 -0.49866674 14.50576269 0.48362971 20.77734375 5.390625 C22.1875 6.875 22.1875 6.875 24 10 C23.8125 13.375 23.8125 13.375 23 16 C20.7578125 16.6953125 20.7578125 16.6953125 18 17 C15.9296875 15.7421875 15.9296875 15.7421875 13.875 13.875 C9.00904418 9.78037613 3.86162448 7.37751871 -2 5 C-1.34 3.35 -0.68 1.7 0 0 Z " fill="#349A41" transform="translate(116,54)"/>
<path d="M0 0 C0.66 0.4125 1.32 0.825 2 1.25 C-0.82321865 4.07321865 -4.25978203 5.02294537 -7.9375 6.375 C-8.66646484 6.65214844 -9.39542969 6.92929688 -10.14648438 7.21484375 C-13.21893433 8.35821193 -15.69539373 9.25 -19 9.25 C-19 9.91 -19 10.57 -19 11.25 C-21.76941606 12.08830973 -24.54035069 12.92082034 -27.3125 13.75 C-28.09818359 13.98847656 -28.88386719 14.22695312 -29.69335938 14.47265625 C-30.45068359 14.69824219 -31.20800781 14.92382812 -31.98828125 15.15625 C-33.03302612 15.47045898 -33.03302612 15.47045898 -34.09887695 15.79101562 C-36 16.25 -36 16.25 -39 16.25 C-39 17.24 -39 18.23 -39 19.25 C-41.1464753 19.13655624 -43.29220592 19.00893655 -45.4375 18.875 C-46.63246094 18.80539063 -47.82742187 18.73578125 -49.05859375 18.6640625 C-50.02925781 18.52742188 -50.99992188 18.39078125 -52 18.25 C-52.33 17.59 -52.66 16.93 -53 16.25 C-51.17708333 15.82682292 -49.35416667 15.40364583 -47.53125 14.98046875 C-44.815279 14.23536296 -44.815279 14.23536296 -41.53125 12.921875 C-34.67836699 10.30574061 -27.5873221 8.36795361 -20.5546875 6.29882812 C-15.62566285 4.81497442 -10.93579219 3.35989341 -6.375 0.94921875 C-3 -0.75 -3 -0.75 0 0 Z " fill="#C78A7B" transform="translate(195,177.75)"/>
<path d="M0 0 C2.16211433 0.55217372 4.29761883 1.16474598 6.4362793 1.80169678 C7.23090073 2.02994644 8.02552216 2.25819611 8.84422302 2.49336243 C11.40854946 3.23136066 13.96916183 3.98148197 16.5300293 4.73138428 C20.04056407 5.74463091 23.55292114 6.75149594 27.06518555 7.75872803 C27.92608292 8.00655533 28.78698029 8.25438263 29.67396545 8.50971985 C39.74283458 11.40149661 49.87427438 14.03763944 60.0300293 16.60638428 C60.0300293 16.93638428 60.0300293 17.26638428 60.0300293 17.60638428 C51.71645084 18.08562194 44.81783563 16.80602404 36.8972168 14.36029053 C35.77993195 14.02972153 34.66264709 13.69915253 33.51150513 13.35856628 C29.97165044 12.30935107 26.43813147 11.24059677 22.9050293 10.16888428 C19.36410971 9.10332754 15.82200343 8.04224543 12.27713013 6.98991394 C10.08086581 6.33711065 7.88691342 5.67645965 5.69577026 5.00666809 C-0.23378445 3.23507524 -5.7958265 2.08085567 -11.9699707 1.60638428 C-7.93346779 -1.08461766 -4.73800483 -0.94669083 0 0 Z " fill="#B87F71" transform="translate(86.969970703125,166.39361572265625)"/>
<path d="M0 0 C2.21411133 0.89794922 2.21411133 0.89794922 4 2 C1.54325356 2.9418544 -0.91483906 3.87962846 -3.375 4.8125 C-4.10146729 5.08803711 -4.82793457 5.36357422 -5.57641602 5.64746094 C-10.42021958 7.46355146 -15.26751711 9.05464552 -20.27734375 10.359375 C-22.21231567 10.85591992 -22.21231567 10.85591992 -23 13 C-26.62475051 14.6363943 -30.42812961 15.83307308 -34.1875 17.125 C-35.75081055 17.68380859 -35.75081055 17.68380859 -37.34570312 18.25390625 C-38.35955078 18.60582031 -39.37339844 18.95773438 -40.41796875 19.3203125 C-41.34375732 19.64273926 -42.2695459 19.96516602 -43.22338867 20.29736328 C-46.2454558 21.06211394 -48.89512755 21.12294826 -52 21 C-42.07691029 13.14901719 -29.61434291 10.21453095 -17.64624023 6.8918457 C-12.64552764 5.48323958 -7.98846509 4.14993704 -3.42578125 1.6328125 C-2.29527344 1.09398437 -1.16476563 0.55515625 0 0 Z " fill="#D59485" transform="translate(196,184)"/>
<path d="M0 0 C-0.125 1.75 -0.125 1.75 -1 4 C-2.95890881 5.39300182 -4.9639118 6.72245446 -7 8 C-7.59586914 8.62551758 -8.19173828 9.25103516 -8.80566406 9.89550781 C-11.4239932 12.40663344 -14.11510997 13.93090923 -17.296875 15.671875 C-18.18732513 16.16279633 -18.18732513 16.16279633 -19.09576416 16.66363525 C-20.97703824 17.69890285 -22.86335662 18.7245561 -24.75 19.75 C-26.03289823 20.45379648 -27.31545415 21.15821732 -28.59765625 21.86328125 C-31.72784347 23.58276134 -34.86262445 25.29366352 -38 27 C-38.66 25.68 -39.32 24.36 -40 23 C-39.43716309 22.71390869 -38.87432617 22.42781738 -38.29443359 22.13305664 C-19.64124152 13.40445851 -19.64124152 13.40445851 -3.2578125 1.25 C-2 0 -2 0 0 0 Z " fill="#D09082" transform="translate(244,158)"/>
<path d="M0 0 C0.66 0.33 1.32 0.66 2 1 C-0.37937943 3.18700407 -2.77346838 5.35210918 -5.1953125 7.4921875 C-6.87623013 8.9951807 -8.52862096 10.53252222 -10.1171875 12.1328125 C-17.9085567 19.41046505 -29.57828755 23.18977427 -40 25 C-42.30322266 24.57202148 -42.30322266 24.57202148 -44 24 C-43.44763672 23.81526123 -42.89527344 23.63052246 -42.32617188 23.44018555 C-29.87171628 19.19540372 -19.22454768 14.29444506 -8.73925781 6.31494141 C-5.87127254 4.14664148 -2.93185725 2.08079383 0 0 Z " fill="#B47C6E" transform="translate(220,163)"/>
<path d="M0 0 C0.33 0 0.66 0 1 0 C0.82071819 4.57168607 0.50606013 6.48243851 -2.75 9.8125 C-8.41939654 13.62843998 -12.2456401 14.53606031 -19 14 C-21.24609375 12.48046875 -21.24609375 12.48046875 -23 11 C-22.3709375 10.90203125 -21.741875 10.8040625 -21.09375 10.703125 C-12.2801152 9.16339362 -6.07078368 6.62267311 0 0 Z " fill="#61C564" transform="translate(179,62)"/>
<path d="M0 0 C0.70125 0.721875 1.4025 1.44375 2.125 2.1875 C7.037469 7.05857179 11.53785838 10.54438619 18 13 C18 13.33 18 13.66 18 14 C13.32120251 14.3743038 9.92219989 14.44402217 5.625 12.375 C2.71548011 9.74257724 1.37318271 7.66182057 0 4 C0 2.68 0 1.36 0 0 Z " fill="#61C564" transform="translate(114,63)"/>
<path d="M0 0 C5.14388862 0.43592276 8.75485217 0.81613913 13 4 C13 4.33 13 4.66 13 5 C6.565 5.495 6.565 5.495 0 6 C0 4.02 0 2.04 0 0 Z " fill="#2B7F34" transform="translate(179,49)"/>
<path d="M0 0 C-1.31224548 3.93673644 -2.91910327 6.22719294 -6 9 C-6.268125 8.360625 -6.53625 7.72125 -6.8125 7.0625 C-7.88667752 4.66868314 -7.88667752 4.66868314 -11 4 C-11 3.34 -11 2.68 -11 2 C-7.17010894 0.19769832 -4.21878192 -0.19622241 0 0 Z " fill="#56AD5B" transform="translate(116,54)"/>
<path d="M0 0 C-3.66639049 1.22213016 -5.35293431 0.63855512 -9.0625 -0.3125 C-10.12597656 -0.57675781 -11.18945312 -0.84101563 -12.28515625 -1.11328125 C-15 -2 -15 -2 -17 -4 C-10.50998398 -5.90882824 -5.72241017 -2.99745294 0 0 Z " fill="#D29384" transform="translate(135,205)"/>
<path d="M0 0 C1.32 0.66 2.64 1.32 4 2 C1.42138975 3.03444249 -1.16174635 4.05272284 -3.75 5.0625 C-4.47960937 5.35705078 -5.20921875 5.65160156 -5.9609375 5.95507812 C-6.66992188 6.22900391 -7.37890625 6.50292969 -8.109375 6.78515625 C-8.75874023 7.04176025 -9.40810547 7.29836426 -10.07714844 7.56274414 C-12.36632786 8.08330284 -13.79256664 7.72364304 -16 7 C-14.92878906 6.57847656 -13.85757813 6.15695313 -12.75390625 5.72265625 C-11.35671698 5.16940681 -9.95958449 4.61601398 -8.5625 4.0625 C-7.50192383 3.64581055 -7.50192383 3.64581055 -6.41992188 3.22070312 C-2.95326119 2.03777966 -2.95326119 2.03777966 0 0 Z " fill="#CD8D7F" transform="translate(196,184)"/>
<path d="M0 0 C0.66 0 1.32 0 2 0 C1.61095461 2.46044923 1.28572918 3.72159721 -0.5234375 5.484375 C-1.13445312 5.90203125 -1.74546875 6.3196875 -2.375 6.75 C-3.28378906 7.39195312 -3.28378906 7.39195312 -4.2109375 8.046875 C-6 9 -6 9 -9 9 C-9 8.34 -9 7.68 -9 7 C-7.28515625 5.52734375 -7.28515625 5.52734375 -5.0625 3.9375 C-2.41985962 2.10094469 -2.41985962 2.10094469 0 0 Z " fill="#C88A7C" transform="translate(242,158)"/>
<path d="M0 0 C2.64 0.66 5.28 1.32 8 2 C7.34 3.65 6.68 5.3 6 7 C5.566875 6.360625 5.13375 5.72125 4.6875 5.0625 C3.08760823 2.73253997 3.08760823 2.73253997 0 2 C0 1.34 0 0.68 0 0 Z " fill="#61C56F" transform="translate(105,56)"/>
<path d="M0 0 C0.144375 0.61875 0.28875 1.2375 0.4375 1.875 C0.93152225 4.03258322 0.93152225 4.03258322 2 6 C0.68 7.32 -0.64 8.64 -2 10 C-1.85950482 8.52031676 -1.71245174 7.04125484 -1.5625 5.5625 C-1.48128906 4.73878906 -1.40007812 3.91507813 -1.31640625 3.06640625 C-1 1 -1 1 0 0 Z " fill="#41A04C" transform="translate(181,60)"/>
</svg>
