<?xml version="1.0" encoding="UTF-8"?>
<svg version="1.1" xmlns="http://www.w3.org/2000/svg" width="1280" height="488">
<path d="M0 0 C4.07913787 -0.23994929 7.24092359 0.37676246 11 2 C11.33 2.99 11.66 3.98 12 5 C12.94875 4.938125 13.8975 4.87625 14.875 4.8125 C15.90625 4.874375 16.9375 4.93625 18 5 C20.17532958 8.26299438 20.2031559 8.54525259 19.5625 12.125 C19.376875 13.40375 19.19125 14.6825 19 16 C19.33 16.33 19.66 16.66 20 17 C20.375 20.375 20.375 20.375 20 24 C17.5 25.9375 17.5 25.9375 15 27 C16.98 27.66 18.96 28.32 21 29 C21.33 30.65 21.66 32.3 22 34 C23.32 34.33 24.64 34.66 26 35 C26.33 36.65 26.66 38.3 27 40 C26.401875 40.37125 25.80375 40.7425 25.1875 41.125 C22.76752605 42.92003608 22.76752605 42.92003608 21.6875 46.0625 C20 49 20 49 16.625 50.3125 C15.42875 50.539375 14.2325 50.76625 13 51 C12.071875 51.226875 11.14375 51.45375 10.1875 51.6875 C8 52 8 52 6 51 C6 50.34 6 49.68 6 49 C5.01 49 4.02 49 3 49 C3 56.59 3 64.18 3 72 C7.145625 71.87625 7.145625 71.87625 11.375 71.75 C47.1138852 71.42022252 83.12698391 83.68484317 115 99 C115.97775391 99.4650293 116.95550781 99.93005859 117.96289062 100.40917969 C149.56219433 115.51542989 179.01312515 134.42335698 208 154 C210.79845431 156.31714009 210.79845431 156.31714009 213.85253906 155.75024414 C216.83685886 155.03888712 219.52022131 154.15036506 222.359375 152.99609375 C223.37926514 152.5889917 224.39915527 152.18188965 225.44995117 151.76245117 C227.08347534 151.10660034 227.08347534 151.10660034 228.75 150.4375 C249.3293256 142.37362818 270.23998476 135.96404867 292 132 C292.89605957 131.83628906 293.79211914 131.67257813 294.71533203 131.50390625 C309.81876803 128.85485279 324.69651537 128.64244195 340 129 C339.98839844 128.13117188 339.97679687 127.26234375 339.96484375 126.3671875 C339.95130859 124.63855469 339.95130859 124.63855469 339.9375 122.875 C339.92589844 121.73804687 339.91429687 120.60109375 339.90234375 119.4296875 C339.994673 116.1870844 340.38610094 113.18067388 341 110 C339.89205078 109.85111328 339.89205078 109.85111328 338.76171875 109.69921875 C334.13287882 108.52727766 331.1797351 105.45126304 328 102 C324.45664745 95.20857427 325.91929584 87.29475306 327 80 C326.9690625 78.1128125 326.9690625 78.1128125 326.9375 76.1875 C327 73 327 73 329 71 C329.53293618 68.73745625 329.53293618 68.73745625 329.875 66.1875 C330.68465329 61.80398647 331.66901664 59.13504317 335 56 C339.6838456 53.14275214 344.6829455 53.10988569 350 54 C352.79530773 55.71128861 353.35010386 56.97519042 355 60 C355.8125 63.875 355.8125 63.875 356 67 C356.9590625 67.185625 356.9590625 67.185625 357.9375 67.375 C358.618125 67.58125 359.29875 67.7875 360 68 C361.37662551 70.75325101 361.12215888 72.94602807 361 76 C360.773125 76.680625 360.54625 77.36125 360.3125 78.0625 C359.75090297 80.15734111 359.75090297 80.15734111 361.4375 82.1875 C363.67748781 86.21947806 363.75604645 89.48511883 363 94 C360.75568172 100.45481284 357.80325379 105.32855373 352 109 C350.02 109.33 348.04 109.66 346 110 C346 116.27 346 122.54 346 129 C347.39863281 128.96648437 348.79726563 128.93296875 350.23828125 128.8984375 C356.32228153 128.90484959 362.18566521 129.68065695 368.1875 130.625 C369.32098877 130.80321289 370.45447754 130.98142578 371.62231445 131.16503906 C398.26827982 135.555578 423.7041061 144.32569142 448 156 C449.46663086 156.69754395 449.46663086 156.69754395 450.96289062 157.40917969 C463.08510279 163.20428111 474.93895351 169.36372149 486.49676514 176.21166992 C487.66193373 176.90172556 488.82880034 177.58892238 489.99737549 178.27319336 C500.51039998 184.43293309 500.51039998 184.43293309 505.10546875 188.33203125 C508.2827593 190.9920571 510.9025426 192.94168529 515 194 C521.3323797 192.93870731 526.90566156 189.58138541 532.41650391 186.44482422 C534.88145456 185.06629672 537.36969292 183.81391357 539.91796875 182.59765625 C555.00936126 175.39295726 569.55043652 167.08992117 583.87890625 158.48046875 C615.03667592 139.81514039 666.30409133 112 704 112 C703.67 109.69 703.34 107.38 703 105 C700.69 105.33 698.38 105.66 696 106 C696 105.34 696 104.68 696 104 C692.37 103.67 688.74 103.34 685 103 C690.75 96.25 690.75 96.25 693 94 C691.68 93.34 690.36 92.68 689 92 C689.63228516 91.29423828 689.63228516 91.29423828 690.27734375 90.57421875 C691.09912109 89.64029297 691.09912109 89.64029297 691.9375 88.6875 C692.48277344 88.07261719 693.02804687 87.45773438 693.58984375 86.82421875 C695.20081559 84.94758042 695.20081559 84.94758042 696 82 C694.35 82 692.7 82 691 82 C693 80 695 78 697 76 C695.68 75.34 694.36 74.68 693 74 C695 72 697 70 699 68 C698.01 67.34 697.02 66.68 696 66 C697.65 64.35 699.3 62.7 701 61 C700.67 60.34 700.34 59.68 700 59 C700.890625 57.0390625 700.890625 57.0390625 702.25 54.625 C705.22398081 48.95869673 706.68267685 43.23318757 708 37 C710.39167914 39.39167914 710.67480224 40.93604145 711.5 44.1875 C711.7578125 45.17621094 712.015625 46.16492187 712.28125 47.18359375 C712.5184375 48.11300781 712.755625 49.04242188 713 50 C714.31170912 54.91890921 715.94757542 59.35973572 718 64 C718.33 64.99 718.66 65.98 719 67 C718.34 67 717.68 67 717 67 C717.78375 67.78375 718.5675 68.5675 719.375 69.375 C720.91666667 70.91666667 722.45833333 72.45833333 724 74 C722.68 74.66 721.36 75.32 720 76 C721.65 77.98 723.3 79.96 725 82 C723.35 82 721.7 82 720 82 C720.79109602 83.27118864 721.58290078 84.54193623 722.375 85.8125 C722.81585937 86.52019531 723.25671875 87.22789063 723.7109375 87.95703125 C724.78188476 89.65432039 725.88676239 91.33014358 727 93 C725.68 93.33 724.36 93.66 723 94 C723.97453125 94.83144531 723.97453125 94.83144531 724.96875 95.6796875 C726.22171875 96.76636719 726.22171875 96.76636719 727.5 97.875 C728.75296875 98.95394531 728.75296875 98.95394531 730.03125 100.0546875 C730.6809375 100.69664063 731.330625 101.33859375 732 102 C732 102.66 732 103.32 732 104 C730.9275 103.95875 729.855 103.9175 728.75 103.875 C725.17501192 103.71918986 725.17501192 103.71918986 723 105.0625 C719.90153598 106.51490501 717.26901537 105.6286568 714 105 C713.67 106.32 713.34 107.64 713 109 C713.63389648 108.91435791 714.26779297 108.82871582 714.92089844 108.74047852 C717.86352549 108.34472564 720.80675096 107.95359922 723.75 107.5625 C724.74644531 107.42779297 725.74289062 107.29308594 726.76953125 107.15429688 C738.87946085 105.55266102 750.84378354 104.76086092 763.0625 104.75 C763.754646 104.74932526 764.44679199 104.74865051 765.15991211 104.74795532 C837.89472594 104.85919925 904.26199006 137.56018785 967.9375 169.375 C968.76376892 169.78759064 969.59003784 170.20018127 970.44134521 170.62527466 C972.78397806 171.79676709 975.1248312 172.97172113 977.46484375 174.1484375 C978.15590714 174.49457596 978.84697052 174.84071442 979.55897522 175.19734192 C982.37017355 176.61661173 985.0516022 178.03508059 987.65893555 179.80761719 C989.92693855 181.22553 989.92693855 181.22553 992.43310547 180.77294922 C993.27760254 180.49467285 994.12209961 180.21639648 994.9921875 179.9296875 C995.95608398 179.62772461 996.91998047 179.32576172 997.91308594 179.01464844 C998.93176758 178.67981445 999.95044922 178.34498047 1001 178 C1003.10495422 177.37148777 1005.21179545 176.74926668 1007.3203125 176.1328125 C1008.42004395 175.80684082 1009.51977539 175.48086914 1010.65283203 175.14501953 C1030.88778777 169.20059223 1050.99686103 164.94146663 1072 163 C1072 154.42 1072 145.84 1072 137 C1070.68 137.33 1069.36 137.66 1068 138 C1065.4921875 137.94921875 1065.4921875 137.94921875 1062.875 137.6875 C1062.00617188 137.60886719 1061.13734375 137.53023437 1060.2421875 137.44921875 C1058 137 1058 137 1056 135 C1056 133.68 1056 132.36 1056 131 C1055.195625 130.79375 1054.39125 130.5875 1053.5625 130.375 C1051 129 1051 129 1050.0625 126.0625 C1050 123 1050 123 1052 120 C1052.54585626 117.95809327 1052.94179262 115.91512004 1053.33984375 113.83984375 C1054 112 1054 112 1057 110 C1058.65549531 109.61500109 1060.3222433 109.27206865 1062 109 C1061.938125 107.824375 1061.938125 107.824375 1061.875 106.625 C1062 104 1062 104 1064 102 C1064.69356423 99.67451993 1065.36149212 97.34119555 1066 95 C1067 94 1067 94 1070.5625 93.9375 C1071.696875 93.958125 1072.83125 93.97875 1074 94 C1074.66 92.68 1075.32 91.36 1076 90 C1080.07913787 89.76005071 1083.24092359 90.37676246 1087 92 C1087.33 92.99 1087.66 93.98 1088 95 C1089.423125 94.9071875 1089.423125 94.9071875 1090.875 94.8125 C1091.90625 94.874375 1092.9375 94.93625 1094 95 C1096.17532958 98.26299438 1096.2031559 98.54525259 1095.5625 102.125 C1095.376875 103.40375 1095.19125 104.6825 1095 106 C1095.33 106.33 1095.66 106.66 1096 107 C1096.375 110.375 1096.375 110.375 1096 114 C1093.5 115.9375 1093.5 115.9375 1091 117 C1092.98 117.66 1094.96 118.32 1097 119 C1097.33 120.65 1097.66 122.3 1098 124 C1099.32 124.33 1100.64 124.66 1102 125 C1102.33 126.65 1102.66 128.3 1103 130 C1102.401875 130.37125 1101.80375 130.7425 1101.1875 131.125 C1098.76752605 132.92003608 1098.76752605 132.92003608 1097.6875 136.0625 C1096 139 1096 139 1092.625 140.3125 C1091.42875 140.539375 1090.2325 140.76625 1089 141 C1088.071875 141.226875 1087.14375 141.45375 1086.1875 141.6875 C1084 142 1084 142 1082 141 C1082 140.34 1082 139.68 1082 139 C1081.01 139 1080.02 139 1079 139 C1079 146.92 1079 154.84 1079 163 C1079.66 162.67 1080.32 162.34 1081 162 C1083.30302412 161.90189658 1085.60895074 161.86921997 1087.9140625 161.8671875 C1088.94676773 161.86575241 1088.94676773 161.86575241 1090.00033569 161.86428833 C1091.46132498 161.8636071 1092.92231729 161.86545742 1094.38330078 161.86962891 C1096.59544906 161.8749292 1098.80738972 161.86970758 1101.01953125 161.86328125 C1102.44270878 161.863943 1103.86588617 161.86522615 1105.2890625 161.8671875 C1106.57506348 161.86831543 1107.86106445 161.86944336 1109.18603516 161.87060547 C1113.13970251 162.00473962 1117.07460622 162.50932578 1121 163 C1121 269.92 1121 376.84 1121 487 C698.6 487 276.2 487 -159 487 C-159 365.56 -159 244.12 -159 119 C-145.46219564 111.10294746 -145.46219564 111.10294746 -139.55859375 108.38671875 C-138.91647446 108.09066238 -138.27435516 107.79460602 -137.61277771 107.48957825 C-135.55813649 106.54695939 -133.49864723 105.61579883 -131.4375 104.6875 C-130.72200989 104.36362305 -130.00651978 104.03974609 -129.26934814 103.70605469 C-90.47231713 86.19223035 -47.14043187 70.67937453 -4 72 C-4 63.75 -4 55.5 -4 47 C-5.32 47.33 -6.64 47.66 -8 48 C-10.5078125 47.94921875 -10.5078125 47.94921875 -13.125 47.6875 C-13.99382812 47.60886719 -14.86265625 47.53023437 -15.7578125 47.44921875 C-18 47 -18 47 -20 45 C-20 43.68 -20 42.36 -20 41 C-20.804375 40.79375 -21.60875 40.5875 -22.4375 40.375 C-25 39 -25 39 -25.9375 36.0625 C-26 33 -26 33 -24 30 C-23.45414374 27.95809327 -23.05820738 25.91512004 -22.66015625 23.83984375 C-22 22 -22 22 -19 20 C-17.34450469 19.61500109 -15.6777567 19.27206865 -14 19 C-14.04125 18.21625 -14.0825 17.4325 -14.125 16.625 C-14 14 -14 14 -12 12 C-11.30643577 9.67451993 -10.63850788 7.34119555 -10 5 C-9 4 -9 4 -5.4375 3.9375 C-4.303125 3.958125 -3.16875 3.97875 -2 4 C-1.34 2.68 -0.68 1.36 0 0 Z " fill="#0D664C" transform="translate(159,0)"/>
<path d="M0 0 C4.07913787 -0.23994929 7.24092359 0.37676246 11 2 C11.33 2.99 11.66 3.98 12 5 C12.94875 4.938125 13.8975 4.87625 14.875 4.8125 C15.90625 4.874375 16.9375 4.93625 18 5 C20.17532958 8.26299438 20.2031559 8.54525259 19.5625 12.125 C19.376875 13.40375 19.19125 14.6825 19 16 C19.33 16.33 19.66 16.66 20 17 C20.375 20.375 20.375 20.375 20 24 C17.5 25.9375 17.5 25.9375 15 27 C16.98 27.66 18.96 28.32 21 29 C21.33 30.65 21.66 32.3 22 34 C23.32 34.33 24.64 34.66 26 35 C26.33 36.65 26.66 38.3 27 40 C26.401875 40.37125 25.80375 40.7425 25.1875 41.125 C22.76752605 42.92003608 22.76752605 42.92003608 21.6875 46.0625 C20 49 20 49 16.625 50.3125 C15.42875 50.539375 14.2325 50.76625 13 51 C12.071875 51.226875 11.14375 51.45375 10.1875 51.6875 C8 52 8 52 6 51 C6 50.34 6 49.68 6 49 C5.01 49 4.02 49 3 49 C3 56.59 3 64.18 3 72 C7.145625 71.87625 7.145625 71.87625 11.375 71.75 C47.1138852 71.42022252 83.12698391 83.68484317 115 99 C115.97775391 99.4650293 116.95550781 99.93005859 117.96289062 100.40917969 C149.56219433 115.51542989 179.01312515 134.42335698 208 154 C210.79845431 156.31714009 210.79845431 156.31714009 213.85253906 155.75024414 C216.83685886 155.03888712 219.52022131 154.15036506 222.359375 152.99609375 C223.37926514 152.5889917 224.39915527 152.18188965 225.44995117 151.76245117 C227.08347534 151.10660034 227.08347534 151.10660034 228.75 150.4375 C249.3293256 142.37362818 270.23998476 135.96404867 292 132 C292.89605957 131.83628906 293.79211914 131.67257813 294.71533203 131.50390625 C309.81876803 128.85485279 324.69651537 128.64244195 340 129 C339.98839844 128.13117188 339.97679687 127.26234375 339.96484375 126.3671875 C339.95130859 124.63855469 339.95130859 124.63855469 339.9375 122.875 C339.92589844 121.73804687 339.91429687 120.60109375 339.90234375 119.4296875 C339.994673 116.1870844 340.38610094 113.18067388 341 110 C339.89205078 109.85111328 339.89205078 109.85111328 338.76171875 109.69921875 C334.13287882 108.52727766 331.1797351 105.45126304 328 102 C324.45664745 95.20857427 325.91929584 87.29475306 327 80 C326.9690625 78.1128125 326.9690625 78.1128125 326.9375 76.1875 C327 73 327 73 329 71 C329.53293618 68.73745625 329.53293618 68.73745625 329.875 66.1875 C330.68465329 61.80398647 331.66901664 59.13504317 335 56 C339.6838456 53.14275214 344.6829455 53.10988569 350 54 C352.79530773 55.71128861 353.35010386 56.97519042 355 60 C355.8125 63.875 355.8125 63.875 356 67 C356.9590625 67.185625 356.9590625 67.185625 357.9375 67.375 C358.618125 67.58125 359.29875 67.7875 360 68 C361.37662551 70.75325101 361.12215888 72.94602807 361 76 C360.773125 76.680625 360.54625 77.36125 360.3125 78.0625 C359.75090297 80.15734111 359.75090297 80.15734111 361.4375 82.1875 C363.67748781 86.21947806 363.75604645 89.48511883 363 94 C360.75568172 100.45481284 357.80325379 105.32855373 352 109 C350.02 109.33 348.04 109.66 346 110 C346 116.27 346 122.54 346 129 C347.39863281 128.96648437 348.79726563 128.93296875 350.23828125 128.8984375 C356.32228153 128.90484959 362.18566521 129.68065695 368.1875 130.625 C369.32098877 130.80321289 370.45447754 130.98142578 371.62231445 131.16503906 C398.26827982 135.555578 423.7041061 144.32569142 448 156 C449.46663086 156.69754395 449.46663086 156.69754395 450.96289062 157.40917969 C463.08510279 163.20428111 474.93895351 169.36372149 486.49676514 176.21166992 C487.66193373 176.90172556 488.82880034 177.58892238 489.99737549 178.27319336 C500.51039998 184.43293309 500.51039998 184.43293309 505.10546875 188.33203125 C508.2827593 190.9920571 510.9025426 192.94168529 515 194 C521.3323797 192.93870731 526.90566156 189.58138541 532.41650391 186.44482422 C534.88145456 185.06629672 537.36969292 183.81391357 539.91796875 182.59765625 C555.00936126 175.39295726 569.55043652 167.08992117 583.87890625 158.48046875 C615.03667592 139.81514039 666.30409133 112 704 112 C703.67 109.69 703.34 107.38 703 105 C700.69 105.33 698.38 105.66 696 106 C696 105.34 696 104.68 696 104 C692.37 103.67 688.74 103.34 685 103 C690.75 96.25 690.75 96.25 693 94 C691.68 93.34 690.36 92.68 689 92 C689.63228516 91.29423828 689.63228516 91.29423828 690.27734375 90.57421875 C691.09912109 89.64029297 691.09912109 89.64029297 691.9375 88.6875 C692.48277344 88.07261719 693.02804687 87.45773438 693.58984375 86.82421875 C695.20081559 84.94758042 695.20081559 84.94758042 696 82 C694.35 82 692.7 82 691 82 C693 80 695 78 697 76 C695.68 75.34 694.36 74.68 693 74 C695 72 697 70 699 68 C698.01 67.34 697.02 66.68 696 66 C697.65 64.35 699.3 62.7 701 61 C700.67 60.34 700.34 59.68 700 59 C700.890625 57.0390625 700.890625 57.0390625 702.25 54.625 C705.22398081 48.95869673 706.68267685 43.23318757 708 37 C710.39167914 39.39167914 710.67480224 40.93604145 711.5 44.1875 C711.7578125 45.17621094 712.015625 46.16492187 712.28125 47.18359375 C712.5184375 48.11300781 712.755625 49.04242188 713 50 C714.31170912 54.91890921 715.94757542 59.35973572 718 64 C718.33 64.99 718.66 65.98 719 67 C718.34 67 717.68 67 717 67 C717.78375 67.78375 718.5675 68.5675 719.375 69.375 C720.91666667 70.91666667 722.45833333 72.45833333 724 74 C722.68 74.66 721.36 75.32 720 76 C721.65 77.98 723.3 79.96 725 82 C723.35 82 721.7 82 720 82 C720.79109602 83.27118864 721.58290078 84.54193623 722.375 85.8125 C722.81585937 86.52019531 723.25671875 87.22789063 723.7109375 87.95703125 C724.78188476 89.65432039 725.88676239 91.33014358 727 93 C725.68 93.33 724.36 93.66 723 94 C723.97453125 94.83144531 723.97453125 94.83144531 724.96875 95.6796875 C726.22171875 96.76636719 726.22171875 96.76636719 727.5 97.875 C728.75296875 98.95394531 728.75296875 98.95394531 730.03125 100.0546875 C730.6809375 100.69664063 731.330625 101.33859375 732 102 C732 102.66 732 103.32 732 104 C730.9275 103.95875 729.855 103.9175 728.75 103.875 C725.17501192 103.71918986 725.17501192 103.71918986 723 105.0625 C719.90153598 106.51490501 717.26901537 105.6286568 714 105 C713.67 106.32 713.34 107.64 713 109 C713.63389648 108.91435791 714.26779297 108.82871582 714.92089844 108.74047852 C717.86352549 108.34472564 720.80675096 107.95359922 723.75 107.5625 C724.74644531 107.42779297 725.74289062 107.29308594 726.76953125 107.15429688 C738.87946085 105.55266102 750.84378354 104.76086092 763.0625 104.75 C763.754646 104.74932526 764.44679199 104.74865051 765.15991211 104.74795532 C837.89155503 104.8591944 904.17145423 137.57890412 967.875 169.3125 C968.6969989 169.72082062 969.5189978 170.12914124 970.36590576 170.54983521 C972.70206509 171.71209285 975.03514116 172.88029666 977.3671875 174.05078125 C978.0530896 174.39175842 978.7389917 174.7327356 979.44567871 175.08404541 C983.51008586 177.13577843 987.26021407 179.40125771 991 182 C988.15578811 183.89614126 985.73299629 184.95124018 982.546875 186.13671875 C980.91661377 186.74990967 980.91661377 186.74990967 979.25341797 187.37548828 C978.09729004 187.80845215 976.94116211 188.24141602 975.75 188.6875 C965.93857669 192.41415362 956.39514421 196.32358813 947 201 C945.57304593 201.70078409 944.14595613 202.40129188 942.71875 203.1015625 C935.37934762 206.5765841 935.37934762 206.5765841 928.4765625 210.796875 C922.52073371 213.69024293 915.47353196 209.92520817 909.64770508 207.91455078 C908.4852124 207.50962402 907.32271973 207.10469727 906.125 206.6875 C895.82292035 203.17973457 885.66740163 200.13129438 875 198 C873.741875 197.73832031 872.48375 197.47664062 871.1875 197.20703125 C852.55986375 193.507793 833.98160768 191.50214425 815 191 C815 191.99 815 192.98 815 194 C813.35 194 811.7 194 810 194 C810 193.01 810 192.02 810 191 C748.67625569 192.31454972 686.1105382 214.04267927 633.859375 245.5078125 C605.63504927 262.44817978 576.47302311 276.67747691 546 289 C544.74751465 289.51433594 544.74751465 289.51433594 543.46972656 290.0390625 C524.83415965 297.66856154 504.86064325 302.78334307 485 306 C483.94683594 306.17660156 482.89367187 306.35320312 481.80859375 306.53515625 C470.94688303 308.18623063 460.21845214 308.39988022 449.25 308.375 C448.30390869 308.37412384 447.35781738 308.37324768 446.38305664 308.37234497 C430.60435513 308.32430404 415.46475387 307.37443642 400 304 C398.90945313 303.76394043 397.81890625 303.52788086 396.6953125 303.28466797 C372.1473094 297.78900503 348.63585991 288.9017261 326 278 C324.94731934 277.49484863 323.89463867 276.98969727 322.81005859 276.46923828 C294.34755166 262.72717781 267.2161283 246.6542394 241 229 C201.97660666 202.74507869 159.88558179 177.8612575 114 166 C112.68341141 165.64259812 111.36700711 165.28451668 110.05078125 164.92578125 C92.92319521 160.3510068 75.64300136 158.3837161 58 157 C58 154.69 58 152.38 58 150 C60.59896863 149.13367712 62.61931221 148.76048103 65.3125 148.5 C68.93229546 148.1462329 72.38782403 147.60202933 76 147 C72.37 143.7 68.74 140.4 65 137 C67 136 67 136 70 136 C68.02 133.03 66.04 130.06 64 127 C64.99 126.67 65.98 126.34 67 126 C67.33 125.67 67.66 125.34 68 125 C66.68 123.02 65.36 121.04 64 119 C64.99 118.67 65.98 118.34 67 118 C65.02 115.69 63.04 113.38 61 111 C61.66 110.67 62.32 110.34 63 110 C62.525625 109.443125 62.05125 108.88625 61.5625 108.3125 C59.8219352 105.7364641 59.4960069 104.04689951 59 101 C58.33915417 98.66501142 57.67188497 96.33183607 57 94 C56.31345056 91.33786953 55.65577963 88.66995991 55 86 C54.74605469 86.89203125 54.49210938 87.7840625 54.23046875 88.703125 C53.71419922 90.45882812 53.71419922 90.45882812 53.1875 92.25 C52.85105469 93.41015625 52.51460937 94.5703125 52.16796875 95.765625 C51 99 51 99 49.36328125 101.171875 C47.60146318 103.15434804 47.60146318 103.15434804 48 107 C46.5 108.75 46.5 108.75 45 110 C45.66 110.33 46.32 110.66 47 111 C45.70700306 113.88437779 44.34058637 115.87219421 42 118 C42.99 118.66 43.98 119.32 45 120 C42.525 122.97 42.525 122.97 40 126 C41.32 126.33 42.64 126.66 44 127 C42.02 129.97 40.04 132.94 38 136 C38.99 136 39.98 136 41 136 C41.66 136.33 42.32 136.66 43 137 C41.54474941 138.48219967 40.085701 139.96067139 38.625 141.4375 C37.81289062 142.26121094 37.00078125 143.08492187 36.1640625 143.93359375 C34 146 34 146 32 147 C32.56847656 147.06058594 33.13695312 147.12117187 33.72265625 147.18359375 C37.46063983 147.58921801 41.16126604 148.02601065 44.875 148.625 C48.02564131 149.22867862 48.02564131 149.22867862 51 148 C51.09765625 154.15234375 51.09765625 154.15234375 51 156 C49.41626706 157.58373294 47.67250457 157.31271996 45.4765625 157.5 C44.53683594 157.5825 43.59710938 157.665 42.62890625 157.75 C41.63761719 157.8325 40.64632812 157.915 39.625 158 C38.67238281 158.0825 37.71976563 158.165 36.73828125 158.25 C28.90274746 158.92858479 28.90274746 158.92858479 25.1730957 159.22363281 C9.11035432 160.55405637 -6.631481 164.23341172 -22 169 C-23.06299316 169.32709961 -24.12598633 169.65419922 -25.22119141 169.99121094 C-44.75176684 176.07028217 -63.39679693 183.51794122 -82 192 C-82.92377441 192.41636719 -83.84754883 192.83273438 -84.79931641 193.26171875 C-96.94535167 198.75049967 -108.61840877 205.01447871 -120.265625 211.48583984 C-122.94145548 212.96758097 -125.62517919 214.43374911 -128.3125 215.89453125 C-136.85107626 220.54307904 -145.31102795 225.27260862 -153.59741211 230.36010742 C-157.90665748 233 -157.90665748 233 -159 233 C-159.28063916 218.25773281 -159.4920815 203.51582014 -159.62174606 188.77142239 C-159.68356053 181.92474896 -159.76778319 175.0797373 -159.90527344 168.23413086 C-160.03790869 161.62708898 -160.10741789 155.02131868 -160.13852692 148.41288948 C-160.16069354 145.89246513 -160.20398366 143.37213491 -160.26876068 140.8524456 C-160.75580892 121.12178404 -160.75580892 121.12178404 -156.51026917 115.99131775 C-153.3623394 114.10684813 -150.51821312 113.00475002 -147 112 C-145.66439351 111.35849482 -144.3399981 110.69219764 -143.03686523 109.98706055 C-141.88903564 109.45894775 -140.74120605 108.93083496 -139.55859375 108.38671875 C-138.91647446 108.09066238 -138.27435516 107.79460602 -137.61277771 107.48957825 C-135.55813649 106.54695939 -133.49864723 105.61579883 -131.4375 104.6875 C-130.72200989 104.36362305 -130.00651978 104.03974609 -129.26934814 103.70605469 C-90.47231713 86.19223035 -47.14043187 70.67937453 -4 72 C-4 63.75 -4 55.5 -4 47 C-5.32 47.33 -6.64 47.66 -8 48 C-10.5078125 47.94921875 -10.5078125 47.94921875 -13.125 47.6875 C-13.99382812 47.60886719 -14.86265625 47.53023437 -15.7578125 47.44921875 C-18 47 -18 47 -20 45 C-20 43.68 -20 42.36 -20 41 C-20.804375 40.79375 -21.60875 40.5875 -22.4375 40.375 C-25 39 -25 39 -25.9375 36.0625 C-26 33 -26 33 -24 30 C-23.45414374 27.95809327 -23.05820738 25.91512004 -22.66015625 23.83984375 C-22 22 -22 22 -19 20 C-17.34450469 19.61500109 -15.6777567 19.27206865 -14 19 C-14.04125 18.21625 -14.0825 17.4325 -14.125 16.625 C-14 14 -14 14 -12 12 C-11.30643577 9.67451993 -10.63850788 7.34119555 -10 5 C-9 4 -9 4 -5.4375 3.9375 C-4.303125 3.958125 -3.16875 3.97875 -2 4 C-1.34 2.68 -0.68 1.36 0 0 Z " fill="#1C8F7B" transform="translate(159,0)"/>
<path d="M0 0 C2.39167914 2.39167914 2.67480224 3.93604145 3.5 7.1875 C3.7578125 8.17621094 4.015625 9.16492188 4.28125 10.18359375 C4.5184375 11.11300781 4.755625 12.04242188 5 13 C6.31170912 17.91890921 7.94757542 22.35973572 10 27 C10.33 27.99 10.66 28.98 11 30 C10.34 30 9.68 30 9 30 C9.78375 30.78375 10.5675 31.5675 11.375 32.375 C12.91666667 33.91666667 14.45833333 35.45833333 16 37 C14.68 37.66 13.36 38.32 12 39 C13.65 40.98 15.3 42.96 17 45 C15.35 45 13.7 45 12 45 C12.79109602 46.27118864 13.58290078 47.54193623 14.375 48.8125 C14.81585937 49.52019531 15.25671875 50.22789063 15.7109375 50.95703125 C16.78188476 52.65432039 17.88676239 54.33014358 19 56 C17.68 56.33 16.36 56.66 15 57 C15.6496875 57.55429688 16.299375 58.10859375 16.96875 58.6796875 C17.8040625 59.40414062 18.639375 60.12859375 19.5 60.875 C20.3353125 61.59429687 21.170625 62.31359375 22.03125 63.0546875 C23.00578125 64.01761719 23.00578125 64.01761719 24 65 C24 65.66 24 66.32 24 67 C22.9275 66.95875 21.855 66.9175 20.75 66.875 C17.17501192 66.71918986 17.17501192 66.71918986 15 68.0625 C11.90153598 69.51490501 9.26901537 68.6286568 6 68 C5.67 69.32 5.34 70.64 5 72 C5.63389648 71.91435791 6.26779297 71.82871582 6.92089844 71.74047852 C9.86352549 71.34472564 12.80675096 70.95359922 15.75 70.5625 C16.74644531 70.42779297 17.74289062 70.29308594 18.76953125 70.15429688 C30.87946085 68.55266102 42.84378354 67.76086092 55.0625 67.75 C55.754646 67.74932526 56.44679199 67.74865051 57.15991211 67.74795532 C129.89155503 67.8591944 196.17145423 100.57890412 259.875 132.3125 C260.6969989 132.72082062 261.5189978 133.12914124 262.36590576 133.54983521 C264.70206509 134.71209285 267.03514116 135.88029666 269.3671875 137.05078125 C270.0530896 137.39175842 270.7389917 137.7327356 271.44567871 138.08404541 C275.51008586 140.13577843 279.26021407 142.40125771 283 145 C280.15578811 146.89614126 277.73299629 147.95124018 274.546875 149.13671875 C273.46003418 149.5455127 272.37319336 149.95430664 271.25341797 150.37548828 C270.09729004 150.80845215 268.94116211 151.24141602 267.75 151.6875 C257.93857669 155.41415362 248.39514421 159.32358813 239 164 C237.57304593 164.70078409 236.14595613 165.40129188 234.71875 166.1015625 C227.37934762 169.5765841 227.37934762 169.5765841 220.4765625 173.796875 C214.52073371 176.69024293 207.47353196 172.92520817 201.64770508 170.91455078 C200.4852124 170.50962402 199.32271973 170.10469727 198.125 169.6875 C187.82292035 166.17973457 177.66740163 163.13129438 167 161 C165.741875 160.73832031 164.48375 160.47664062 163.1875 160.20703125 C144.55986375 156.507793 125.98160768 154.50214425 107 154 C107 154.99 107 155.98 107 157 C105.35 157 103.7 157 102 157 C102 156.01 102 155.02 102 154 C40.40755651 155.32030961 -22.66944736 177.21983181 -75.046875 209.01953125 C-76.28727539 209.76517334 -76.28727539 209.76517334 -77.55273438 210.52587891 C-79.19674308 211.5161547 -80.8334371 212.51866753 -82.46289062 213.53271484 C-83.24341797 214.00016113 -84.02394531 214.46760742 -84.828125 214.94921875 C-85.51293945 215.36905029 -86.19775391 215.78888184 -86.90332031 216.22143555 C-90.68984743 217.62749458 -93.56333887 216.19529066 -97.109375 214.609375 C-98.32646206 213.99657473 -99.53973934 213.37617427 -100.75 212.75 C-101.43481445 212.39993896 -102.11962891 212.04987793 -102.82519531 211.68920898 C-104.36790778 210.89882978 -105.90916505 210.10560597 -107.44921875 209.31005859 C-110.16603299 207.91472693 -112.8949267 206.54497397 -115.625 205.17578125 C-131.9456764 196.91950135 -147.48027853 187.64571339 -163 178 C-164.62177976 177.0029035 -166.24409853 176.00668267 -167.8671875 175.01171875 C-185.50711568 164.15873001 -185.50711568 164.15873001 -192 159 C-192 158.34 -192 157.68 -192 157 C-191.05495605 156.54786133 -190.10991211 156.09572266 -189.13623047 155.62988281 C-158.36785483 140.8909929 -158.36785483 140.8909929 -128.6484375 124.1640625 C-96.06205413 104.39438875 -43.67336784 75 -4 75 C-4.33 72.69 -4.66 70.38 -5 68 C-8.465 68.495 -8.465 68.495 -12 69 C-12 68.34 -12 67.68 -12 67 C-15.63 66.67 -19.26 66.34 -23 66 C-17.25 59.25 -17.25 59.25 -15 57 C-16.32 56.34 -17.64 55.68 -19 55 C-18.57847656 54.52949219 -18.15695312 54.05898437 -17.72265625 53.57421875 C-17.17480469 52.95160156 -16.62695312 52.32898438 -16.0625 51.6875 C-15.51722656 51.07261719 -14.97195313 50.45773438 -14.41015625 49.82421875 C-12.79918441 47.94758042 -12.79918441 47.94758042 -12 45 C-13.65 45 -15.3 45 -17 45 C-15 43 -13 41 -11 39 C-12.32 38.34 -13.64 37.68 -15 37 C-12 34 -12 34 -9 31 C-9.99 30.34 -10.98 29.68 -12 29 C-10.35 27.35 -8.7 25.7 -7 24 C-7.33 23.34 -7.66 22.68 -8 22 C-7.109375 20.0390625 -7.109375 20.0390625 -5.75 17.625 C-2.77601919 11.95869673 -1.31732315 6.23318757 0 0 Z " fill="#88C08F" transform="translate(867,37)"/>
<path d="M0 0 C4.07913787 -0.23994929 7.24092359 0.37676246 11 2 C11.33 2.99 11.66 3.98 12 5 C12.94875 4.938125 13.8975 4.87625 14.875 4.8125 C15.90625 4.874375 16.9375 4.93625 18 5 C20.17532958 8.26299438 20.2031559 8.54525259 19.5625 12.125 C19.376875 13.40375 19.19125 14.6825 19 16 C19.33 16.33 19.66 16.66 20 17 C20.375 20.375 20.375 20.375 20 24 C17.5 25.9375 17.5 25.9375 15 27 C16.98 27.66 18.96 28.32 21 29 C21.33 30.65 21.66 32.3 22 34 C23.32 34.33 24.64 34.66 26 35 C26.33 36.65 26.66 38.3 27 40 C26.401875 40.37125 25.80375 40.7425 25.1875 41.125 C22.76752605 42.92003608 22.76752605 42.92003608 21.6875 46.0625 C20 49 20 49 16.625 50.3125 C15.42875 50.539375 14.2325 50.76625 13 51 C12.071875 51.226875 11.14375 51.45375 10.1875 51.6875 C8 52 8 52 6 51 C6 50.34 6 49.68 6 49 C5.01 49 4.02 49 3 49 C3 56.59 3 64.18 3 72 C7.145625 71.87625 7.145625 71.87625 11.375 71.75 C47.1138852 71.42022252 83.12698391 83.68484317 115 99 C115.97775391 99.4650293 116.95550781 99.93005859 117.96289062 100.40917969 C144.17475015 112.93992758 168.70293777 128.12626995 193 144 C193.81082031 144.52948242 194.62164062 145.05896484 195.45703125 145.60449219 C197.55835603 146.98087806 199.6557688 148.3628499 201.75 149.75 C202.32782227 150.1320459 202.90564453 150.5140918 203.50097656 150.90771484 C206.80534539 153.11965572 209.90858986 155.50214061 213 158 C212.11006348 158.40887451 211.22012695 158.81774902 210.30322266 159.23901367 C200.56055325 163.73780769 190.95381748 168.47623471 181.375 173.3125 C178.571495 174.72762375 175.76662111 176.13998282 172.9609375 177.55078125 C172.33383881 177.86847977 171.70674011 178.18617828 171.06063843 178.51350403 C169.38143993 179.35778907 167.69106489 180.17974128 166 181 C165.15244141 181.44311523 164.30488281 181.88623047 163.43164062 182.34277344 C160.03072328 183.2619772 158.33515554 182.35900028 155.1328125 180.96484375 C154.00762207 180.48740723 152.88243164 180.0099707 151.72314453 179.51806641 C150.53575684 178.99647949 149.34836914 178.47489258 148.125 177.9375 C145.67001701 176.89426404 143.2097053 175.86413262 140.75 174.83203125 C139.574375 174.33525879 138.39875 173.83848633 137.1875 173.32666016 C112.07494122 162.8746347 84.91715559 159.11107514 58 157 C58 154.69 58 152.38 58 150 C60.59896863 149.13367712 62.61931221 148.76048103 65.3125 148.5 C68.93229546 148.1462329 72.38782403 147.60202933 76 147 C72.37 143.7 68.74 140.4 65 137 C67 136 67 136 70 136 C68.02 133.03 66.04 130.06 64 127 C64.99 126.67 65.98 126.34 67 126 C67.33 125.67 67.66 125.34 68 125 C66.68 123.02 65.36 121.04 64 119 C64.99 118.67 65.98 118.34 67 118 C65.02 115.69 63.04 113.38 61 111 C61.66 110.67 62.32 110.34 63 110 C62.525625 109.443125 62.05125 108.88625 61.5625 108.3125 C59.8219352 105.7364641 59.4960069 104.04689951 59 101 C58.33915417 98.66501142 57.67188497 96.33183607 57 94 C56.31345056 91.33786953 55.65577963 88.66995991 55 86 C54.74605469 86.89203125 54.49210938 87.7840625 54.23046875 88.703125 C53.71419922 90.45882812 53.71419922 90.45882812 53.1875 92.25 C52.85105469 93.41015625 52.51460937 94.5703125 52.16796875 95.765625 C51 99 51 99 49.36328125 101.171875 C47.60146318 103.15434804 47.60146318 103.15434804 48 107 C46.5 108.75 46.5 108.75 45 110 C45.66 110.33 46.32 110.66 47 111 C45.70700306 113.88437779 44.34058637 115.87219421 42 118 C42.99 118.66 43.98 119.32 45 120 C42.525 122.97 42.525 122.97 40 126 C41.32 126.33 42.64 126.66 44 127 C42.02 129.97 40.04 132.94 38 136 C38.99 136 39.98 136 41 136 C41.66 136.33 42.32 136.66 43 137 C41.54474941 138.48219967 40.085701 139.96067139 38.625 141.4375 C37.81289062 142.26121094 37.00078125 143.08492187 36.1640625 143.93359375 C34 146 34 146 32 147 C32.56847656 147.06058594 33.13695312 147.12117187 33.72265625 147.18359375 C37.46063983 147.58921801 41.16126604 148.02601065 44.875 148.625 C48.02564131 149.22867862 48.02564131 149.22867862 51 148 C51.09765625 154.15234375 51.09765625 154.15234375 51 156 C49.41626706 157.58373294 47.67250457 157.31271996 45.4765625 157.5 C44.53683594 157.5825 43.59710938 157.665 42.62890625 157.75 C41.63761719 157.8325 40.64632812 157.915 39.625 158 C38.67238281 158.0825 37.71976563 158.165 36.73828125 158.25 C28.90274746 158.92858479 28.90274746 158.92858479 25.1730957 159.22363281 C9.11035432 160.55405637 -6.631481 164.23341172 -22 169 C-23.06299316 169.32709961 -24.12598633 169.65419922 -25.22119141 169.99121094 C-44.75176684 176.07028217 -63.39679693 183.51794122 -82 192 C-82.92377441 192.41636719 -83.84754883 192.83273438 -84.79931641 193.26171875 C-96.94535167 198.75049967 -108.61840877 205.01447871 -120.265625 211.48583984 C-122.94145548 212.96758097 -125.62517919 214.43374911 -128.3125 215.89453125 C-136.85107626 220.54307904 -145.31102795 225.27260862 -153.59741211 230.36010742 C-157.90665748 233 -157.90665748 233 -159 233 C-159.28063916 218.25773281 -159.4920815 203.51582014 -159.62174606 188.77142239 C-159.68356053 181.92474896 -159.76778319 175.0797373 -159.90527344 168.23413086 C-160.03790869 161.62708898 -160.10741789 155.02131868 -160.13852692 148.41288948 C-160.16069354 145.89246513 -160.20398366 143.37213491 -160.26876068 140.8524456 C-160.75580892 121.12178404 -160.75580892 121.12178404 -156.51026917 115.99131775 C-153.3623394 114.10684813 -150.51821312 113.00475002 -147 112 C-145.66439351 111.35849482 -144.3399981 110.69219764 -143.03686523 109.98706055 C-141.88903564 109.45894775 -140.74120605 108.93083496 -139.55859375 108.38671875 C-138.91647446 108.09066238 -138.27435516 107.79460602 -137.61277771 107.48957825 C-135.55813649 106.54695939 -133.49864723 105.61579883 -131.4375 104.6875 C-130.72200989 104.36362305 -130.00651978 104.03974609 -129.26934814 103.70605469 C-90.47231713 86.19223035 -47.14043187 70.67937453 -4 72 C-4 63.75 -4 55.5 -4 47 C-5.32 47.33 -6.64 47.66 -8 48 C-10.5078125 47.94921875 -10.5078125 47.94921875 -13.125 47.6875 C-13.99382812 47.60886719 -14.86265625 47.53023437 -15.7578125 47.44921875 C-18 47 -18 47 -20 45 C-20 43.68 -20 42.36 -20 41 C-20.804375 40.79375 -21.60875 40.5875 -22.4375 40.375 C-25 39 -25 39 -25.9375 36.0625 C-26 33 -26 33 -24 30 C-23.45414374 27.95809327 -23.05820738 25.91512004 -22.66015625 23.83984375 C-22 22 -22 22 -19 20 C-17.34450469 19.61500109 -15.6777567 19.27206865 -14 19 C-14.04125 18.21625 -14.0825 17.4325 -14.125 16.625 C-14 14 -14 14 -12 12 C-11.30643577 9.67451993 -10.63850788 7.34119555 -10 5 C-9 4 -9 4 -5.4375 3.9375 C-4.303125 3.958125 -3.16875 3.97875 -2 4 C-1.34 2.68 -0.68 1.36 0 0 Z " fill="#88C08F" transform="translate(159,0)"/>
<path d="M0 0 C4.07913787 -0.23994929 7.24092359 0.37676246 11 2 C11.33 2.99 11.66 3.98 12 5 C12.94875 4.938125 13.8975 4.87625 14.875 4.8125 C15.90625 4.874375 16.9375 4.93625 18 5 C20.17532958 8.26299438 20.2031559 8.54525259 19.5625 12.125 C19.376875 13.40375 19.19125 14.6825 19 16 C19.33 16.33 19.66 16.66 20 17 C20.375 20.375 20.375 20.375 20 24 C17.5 25.9375 17.5 25.9375 15 27 C16.98 27.66 18.96 28.32 21 29 C21.33 30.65 21.66 32.3 22 34 C23.32 34.33 24.64 34.66 26 35 C26.33 36.65 26.66 38.3 27 40 C26.401875 40.37125 25.80375 40.7425 25.1875 41.125 C22.76752605 42.92003608 22.76752605 42.92003608 21.6875 46.0625 C20 49 20 49 16.625 50.3125 C15.42875 50.539375 14.2325 50.76625 13 51 C12.071875 51.226875 11.14375 51.45375 10.1875 51.6875 C8 52 8 52 6 51 C6 50.34 6 49.68 6 49 C5.01 49 4.02 49 3 49 C3 56.92 3 64.84 3 73 C3.66 72.67 4.32 72.34 5 72 C7.30302412 71.90189658 9.60895074 71.86921997 11.9140625 71.8671875 C12.94676773 71.86575241 12.94676773 71.86575241 14.00033569 71.86428833 C15.46132498 71.8636071 16.92231729 71.86545742 18.38330078 71.86962891 C20.59544906 71.8749292 22.80738972 71.86970758 25.01953125 71.86328125 C26.44270878 71.863943 27.86588617 71.86522615 29.2890625 71.8671875 C30.57506348 71.86831543 31.86106445 71.86944336 33.18603516 71.87060547 C37.13970251 72.00473962 41.07460622 72.50932578 45 73 C45 117.88 45 162.76 45 209 C8.26579627 202.32105387 -25.74523376 182.82822065 -58.44702148 165.45800781 C-88.46705976 149.52942219 -119.43381119 135.56283844 -151 123 C-147.72853578 119.2540486 -143.98134247 117.23703916 -139.5625 115.125 C-138.84513672 114.77550293 -138.12777344 114.42600586 -137.38867188 114.06591797 C-135.26333279 113.03489237 -133.13238435 112.01635563 -131 111 C-129.97777344 110.505 -128.95554687 110.01 -127.90234375 109.5 C-116.79404095 104.23738549 -105.38120155 99.63309082 -94 95 C-93.26910156 94.70061523 -92.53820313 94.40123047 -91.78515625 94.09277344 C-63.92867523 82.78483572 -33.92491833 75.60216681 -4 73 C-4 64.42 -4 55.84 -4 47 C-5.32 47.33 -6.64 47.66 -8 48 C-10.5078125 47.94921875 -10.5078125 47.94921875 -13.125 47.6875 C-13.99382812 47.60886719 -14.86265625 47.53023437 -15.7578125 47.44921875 C-18 47 -18 47 -20 45 C-20 43.68 -20 42.36 -20 41 C-20.804375 40.79375 -21.60875 40.5875 -22.4375 40.375 C-25 39 -25 39 -25.9375 36.0625 C-26 33 -26 33 -24 30 C-23.45414374 27.95809327 -23.05820738 25.91512004 -22.66015625 23.83984375 C-22 22 -22 22 -19 20 C-17.34450469 19.61500109 -15.6777567 19.27206865 -14 19 C-14.04125 18.21625 -14.0825 17.4325 -14.125 16.625 C-14 14 -14 14 -12 12 C-11.30643577 9.67451993 -10.63850788 7.34119555 -10 5 C-9 4 -9 4 -5.4375 3.9375 C-4.303125 3.958125 -3.16875 3.97875 -2 4 C-1.34 2.68 -0.68 1.36 0 0 Z " fill="#1C8F7B" transform="translate(1235,90)"/>
<path d="M0 0 C4.07913787 -0.23994929 7.24092359 0.37676246 11 2 C11.495 3.485 11.495 3.485 12 5 C12.94875 4.938125 13.8975 4.87625 14.875 4.8125 C15.90625 4.874375 16.9375 4.93625 18 5 C20.17532958 8.26299438 20.2031559 8.54525259 19.5625 12.125 C19.2840625 14.043125 19.2840625 14.043125 19 16 C19.33 16.33 19.66 16.66 20 17 C20.375 20.375 20.375 20.375 20 24 C17.5 25.9375 17.5 25.9375 15 27 C16.98 27.66 18.96 28.32 21 29 C21.495 31.475 21.495 31.475 22 34 C23.32 34.33 24.64 34.66 26 35 C26.495 37.475 26.495 37.475 27 40 C26.401875 40.37125 25.80375 40.7425 25.1875 41.125 C22.76752605 42.92003608 22.76752605 42.92003608 21.6875 46.0625 C20 49 20 49 16.625 50.3125 C15.42875 50.539375 14.2325 50.76625 13 51 C11.6078125 51.3403125 11.6078125 51.3403125 10.1875 51.6875 C8 52 8 52 6 51 C6 50.34 6 49.68 6 49 C5.01 49 4.02 49 3 49 C3 57.58 3 66.16 3 75 C0.69 75 -1.62 75 -4 75 C-4 65.76 -4 56.52 -4 47 C-5.98 47.495 -5.98 47.495 -8 48 C-10.5078125 47.94921875 -10.5078125 47.94921875 -13.125 47.6875 C-13.99382812 47.60886719 -14.86265625 47.53023437 -15.7578125 47.44921875 C-18 47 -18 47 -20 45 C-20 43.68 -20 42.36 -20 41 C-20.804375 40.79375 -21.60875 40.5875 -22.4375 40.375 C-25 39 -25 39 -25.9375 36.0625 C-26 33 -26 33 -24 30 C-23.45414374 27.95809327 -23.05820738 25.91512004 -22.66015625 23.83984375 C-22 22 -22 22 -19 20 C-17.34450469 19.61500109 -15.6777567 19.27206865 -14 19 C-14.04125 18.21625 -14.0825 17.4325 -14.125 16.625 C-14 14 -14 14 -12 12 C-11.30643577 9.67451993 -10.63850788 7.34119555 -10 5 C-9 4 -9 4 -5.4375 3.9375 C-4.303125 3.958125 -3.16875 3.97875 -2 4 C-1.34 2.68 -0.68 1.36 0 0 Z " fill="#91BB5D" transform="translate(159,0)"/>
<path d="M0 0 C4.07913787 -0.23994929 7.24092359 0.37676246 11 2 C11.495 3.485 11.495 3.485 12 5 C12.94875 4.938125 13.8975 4.87625 14.875 4.8125 C15.90625 4.874375 16.9375 4.93625 18 5 C20.17532958 8.26299438 20.2031559 8.54525259 19.5625 12.125 C19.2840625 14.043125 19.2840625 14.043125 19 16 C19.33 16.33 19.66 16.66 20 17 C20.375 20.375 20.375 20.375 20 24 C17.5 25.9375 17.5 25.9375 15 27 C16.98 27.66 18.96 28.32 21 29 C21.495 31.475 21.495 31.475 22 34 C23.32 34.33 24.64 34.66 26 35 C26.495 37.475 26.495 37.475 27 40 C26.401875 40.37125 25.80375 40.7425 25.1875 41.125 C22.76752605 42.92003608 22.76752605 42.92003608 21.6875 46.0625 C20 49 20 49 16.625 50.3125 C15.42875 50.539375 14.2325 50.76625 13 51 C11.6078125 51.3403125 11.6078125 51.3403125 10.1875 51.6875 C8 52 8 52 6 51 C6 50.34 6 49.68 6 49 C5.01 49 4.02 49 3 49 C3 57.25 3 65.5 3 74 C0.69 74 -1.62 74 -4 74 C-4 65.09 -4 56.18 -4 47 C-5.98 47.495 -5.98 47.495 -8 48 C-10.5078125 47.94921875 -10.5078125 47.94921875 -13.125 47.6875 C-13.99382812 47.60886719 -14.86265625 47.53023437 -15.7578125 47.44921875 C-18 47 -18 47 -20 45 C-20 43.68 -20 42.36 -20 41 C-20.804375 40.79375 -21.60875 40.5875 -22.4375 40.375 C-25 39 -25 39 -25.9375 36.0625 C-26 33 -26 33 -24 30 C-23.45414374 27.95809327 -23.05820738 25.91512004 -22.66015625 23.83984375 C-22 22 -22 22 -19 20 C-17.34450469 19.61500109 -15.6777567 19.27206865 -14 19 C-14.04125 18.21625 -14.0825 17.4325 -14.125 16.625 C-14 14 -14 14 -12 12 C-11.30643577 9.67451993 -10.63850788 7.34119555 -10 5 C-9 4 -9 4 -5.4375 3.9375 C-4.303125 3.958125 -3.16875 3.97875 -2 4 C-1.34 2.68 -0.68 1.36 0 0 Z " fill="#91BB5D" transform="translate(1235,90)"/>
<path d="M0 0 C2.79530773 1.71128861 3.35010386 2.97519042 5 6 C5.8125 9.875 5.8125 9.875 6 13 C6.639375 13.12375 7.27875 13.2475 7.9375 13.375 C8.618125 13.58125 9.29875 13.7875 10 14 C11.37662551 16.75325101 11.12215888 18.94602807 11 22 C10.773125 22.680625 10.54625 23.36125 10.3125 24.0625 C9.75090297 26.15734111 9.75090297 26.15734111 11.4375 28.1875 C13.67748781 32.21947806 13.75604645 35.48511883 13 40 C10.75568172 46.45481284 7.80325379 51.32855373 2 55 C-0.97 55.495 -0.97 55.495 -4 56 C-4 62.27 -4 68.54 -4 75 C-5.98 75 -7.96 75 -10 75 C-10.0272616 72.95840905 -10.04651345 70.91671037 -10.0625 68.875 C-10.07410156 67.73804687 -10.08570313 66.60109375 -10.09765625 65.4296875 C-10.005327 62.1870844 -9.61389906 59.18067388 -9 56 C-9.73863281 55.90074219 -10.47726562 55.80148438 -11.23828125 55.69921875 C-15.86712118 54.52727766 -18.8202649 51.45126304 -22 48 C-25.54335255 41.20857427 -24.08070416 33.29475306 -23 26 C-23.020625 24.741875 -23.04125 23.48375 -23.0625 22.1875 C-23 19 -23 19 -21 17 C-20.46706382 14.73745625 -20.46706382 14.73745625 -20.125 12.1875 C-19.31534671 7.80398647 -18.33098336 5.13504317 -15 2 C-10.3161544 -0.85724786 -5.3170545 -0.89011431 0 0 Z " fill="#90BB5D" transform="translate(509,54)"/>
<path d="M0 0 C4.13932077 2.78608129 6.71475802 5.11608048 8 10 C8 10.99 8 11.98 8 13 C9.32 13.66 10.64 14.32 12 15 C12.125 22.625 12.125 22.625 11 26 C11.46535156 26.61359375 11.93070313 27.2271875 12.41015625 27.859375 C15.3084924 31.76180304 14.57290463 36.35239166 14 41 C12.2341978 46.92591246 9.04956042 50.56629892 4 54 C2.02 54.66 0.04 55.32 -2 56 C-2 62.27 -2 68.54 -2 75 C-3.65 75 -5.3 75 -7 75 C-7 68.4 -7 61.8 -7 55 C-8.98 54.67 -10.96 54.34 -13 54 C-15.08203125 52.2578125 -15.08203125 52.2578125 -16.8125 50.125 C-17.39644531 49.42632812 -17.98039063 48.72765625 -18.58203125 48.0078125 C-21.22191685 44.26979266 -21.13509207 41.00805504 -21.125 36.5625 C-21.12886719 34.86287109 -21.12886719 34.86287109 -21.1328125 33.12890625 C-21.0220853 30.52030376 -20.66931624 28.4898564 -20 26 C-20.0309375 24.205625 -20.0309375 24.205625 -20.0625 22.375 C-20 19 -20 19 -18 17 C-17.6701076 15.40692988 -17.40741927 13.79943576 -17.1875 12.1875 C-16.2988058 7.37605407 -15.03110423 4.99989152 -11 2 C-7.28552429 -0.00010231 -4.18921443 -0.5984592 0 0 Z " fill="#90BB5E" transform="translate(976,119)"/>
<path d="M0 0 C2.39167914 2.39167914 2.67480224 3.93604145 3.5 7.1875 C3.7578125 8.17621094 4.015625 9.16492188 4.28125 10.18359375 C4.5184375 11.11300781 4.755625 12.04242188 5 13 C6.31170912 17.91890921 7.94757542 22.35973572 10 27 C10.495 28.485 10.495 28.485 11 30 C10.34 30 9.68 30 9 30 C9.78375 30.78375 10.5675 31.5675 11.375 32.375 C12.91666667 33.91666667 14.45833333 35.45833333 16 37 C14.68 37.66 13.36 38.32 12 39 C13.65 40.98 15.3 42.96 17 45 C15.35 45 13.7 45 12 45 C12.79109602 46.27118864 13.58290078 47.54193623 14.375 48.8125 C14.81585937 49.52019531 15.25671875 50.22789063 15.7109375 50.95703125 C16.78188476 52.65432039 17.88676239 54.33014358 19 56 C17.02 56.495 17.02 56.495 15 57 C15.6496875 57.55429688 16.299375 58.10859375 16.96875 58.6796875 C17.8040625 59.40414062 18.639375 60.12859375 19.5 60.875 C20.3353125 61.59429687 21.170625 62.31359375 22.03125 63.0546875 C23.00578125 64.01761719 23.00578125 64.01761719 24 65 C24 65.66 24 66.32 24 67 C22.9275 66.95875 21.855 66.9175 20.75 66.875 C17.17501192 66.71918986 17.17501192 66.71918986 15 68.0625 C11.90153598 69.51490501 9.26901537 68.6286568 6 68 C5.34 70.31 4.68 72.62 4 75 C1.36 75 -1.28 75 -4 75 C-4.33 72.69 -4.66 70.38 -5 68 C-8.465 68.495 -8.465 68.495 -12 69 C-12 68.34 -12 67.68 -12 67 C-15.63 66.67 -19.26 66.34 -23 66 C-17.25 59.25 -17.25 59.25 -15 57 C-16.32 56.34 -17.64 55.68 -19 55 C-18.57847656 54.52949219 -18.15695312 54.05898437 -17.72265625 53.57421875 C-17.17480469 52.95160156 -16.62695312 52.32898438 -16.0625 51.6875 C-15.51722656 51.07261719 -14.97195313 50.45773438 -14.41015625 49.82421875 C-12.79918441 47.94758042 -12.79918441 47.94758042 -12 45 C-13.65 45 -15.3 45 -17 45 C-15 43 -13 41 -11 39 C-12.32 38.34 -13.64 37.68 -15 37 C-13 35 -11 33 -9 31 C-9.99 30.34 -10.98 29.68 -12 29 C-10.35 27.35 -8.7 25.7 -7 24 C-7.33 23.34 -7.66 22.68 -8 22 C-7.109375 20.0390625 -7.109375 20.0390625 -5.75 17.625 C-2.77601919 11.95869673 -1.31732315 6.23318757 0 0 Z " fill="#446423" transform="translate(867,37)"/>
<path d="M0 0 C2.16896914 3.25345371 2.69987166 5.57439037 3.5 9.375 C4.36217587 13.45159243 5.34845435 17.17292434 7 21 C7.350625 21.886875 7.70125 22.77375 8.0625 23.6875 C8.95402774 25.97339676 8.95402774 25.97339676 10 28 C9.01 28.495 9.01 28.495 8 29 C10.31 30.98 12.62 32.96 15 35 C13.68 35.66 12.36 36.32 11 37 C12.65 39.31 14.3 41.62 16 44 C14.35 44 12.7 44 11 44 C11.42152344 44.62648437 11.84304687 45.25296875 12.27734375 45.8984375 C12.82519531 46.71570313 13.37304688 47.53296875 13.9375 48.375 C14.48277344 49.18710938 15.02804688 49.99921875 15.58984375 50.8359375 C17 53 17 53 18 55 C15.03 54.505 15.03 54.505 12 54 C12.7940625 54.71027344 13.588125 55.42054688 14.40625 56.15234375 C15.4376295 57.0805853 16.46887249 58.00897854 17.5 58.9375 C18.02464844 59.40607422 18.54929688 59.87464844 19.08984375 60.35742188 C20.4121744 61.55095408 21.70833939 62.77334179 23 64 C23 64.33 23 64.66 23 65 C22.18015625 65.06058594 21.3603125 65.12117188 20.515625 65.18359375 C19.43796875 65.26738281 18.3603125 65.35117188 17.25 65.4375 C16.18265625 65.51871094 15.1153125 65.59992188 14.015625 65.68359375 C11.55682365 65.94157679 9.37546012 66.36333389 7 67 C6.34 67 5.68 67 5 67 C4.67 69.31 4.34 71.62 4 74 C1.36 74 -1.28 74 -4 74 C-4 71.36 -4 68.72 -4 66 C-5.11375 66.185625 -6.2275 66.37125 -7.375 66.5625 C-11 67 -11 67 -13 66 C-14.70363822 65.77377919 -16.41328701 65.59111527 -18.125 65.4375 C-19.49011719 65.31181641 -19.49011719 65.31181641 -20.8828125 65.18359375 C-21.58148438 65.12300781 -22.28015625 65.06242187 -23 65 C-19.33333333 61.33333333 -15.66666667 57.66666667 -12 54 C-14.97 54.495 -14.97 54.495 -18 55 C-15.69 51.37 -13.38 47.74 -11 44 C-12.65 44 -14.3 44 -16 44 C-14.02 41.69 -12.04 39.38 -10 37 C-11.32 36.34 -12.64 35.68 -14 35 C-12.47005208 33.76302083 -10.94010417 32.52604167 -9.41015625 31.2890625 C-7.86733563 30.0333609 -7.86733563 30.0333609 -7 28 C-7.99 27.67 -8.98 27.34 -10 27 C-8.35 25.02 -6.7 23.04 -5 21 C-5.66 20.67 -6.32 20.34 -7 20 C-6.401875 19.113125 -5.80375 18.22625 -5.1875 17.3125 C-2.0976182 11.99042601 -1.18556094 5.9727123 0 0 Z " fill="#619134" transform="translate(213,83)"/>
<path d="M0 0 C0.33 0 0.66 0 1 0 C1.33 3.96 1.66 7.92 2 12 C11.20509385 11.51379933 11.20509385 11.51379933 20 9 C19.75 11.375 19.75 11.375 19 14 C16.9375 15.3125 16.9375 15.3125 15 16 C16.98 16.66 18.96 17.32 21 18 C21.33 19.65 21.66 21.3 22 23 C23.32 23.33 24.64 23.66 26 24 C26.495 26.475 26.495 26.475 27 29 C26.401875 29.37125 25.80375 29.7425 25.1875 30.125 C22.76752605 31.92003608 22.76752605 31.92003608 21.6875 35.0625 C20 38 20 38 16.625 39.3125 C15.42875 39.539375 14.2325 39.76625 13 40 C12.071875 40.226875 11.14375 40.45375 10.1875 40.6875 C8 41 8 41 6 40 C6 39.34 6 38.68 6 38 C5.01 38 4.02 38 3 38 C3 46.58 3 55.16 3 64 C0.69 64 -1.62 64 -4 64 C-4.17393936 45.34983483 -4.17393936 45.34983483 -3.234375 36.41015625 C-2.47146616 28.56491032 -3.02167527 22.33944307 -6 15 C-5.34 15 -4.68 15 -4 15 C-3.01 16.485 -3.01 16.485 -2 18 C-1.34 12.06 -0.68 6.12 0 0 Z " fill="#90BB5D" transform="translate(159,11)"/>
<path d="M0 0 C0.33 0 0.66 0 1 0 C1.33 3.96 1.66 7.92 2 12 C11.20509385 11.51379933 11.20509385 11.51379933 20 9 C19.75 11.375 19.75 11.375 19 14 C16.9375 15.3125 16.9375 15.3125 15 16 C16.98 16.66 18.96 17.32 21 18 C21.33 19.65 21.66 21.3 22 23 C23.32 23.33 24.64 23.66 26 24 C26.495 26.475 26.495 26.475 27 29 C26.401875 29.37125 25.80375 29.7425 25.1875 30.125 C22.76752605 31.92003608 22.76752605 31.92003608 21.6875 35.0625 C20 38 20 38 16.625 39.3125 C15.42875 39.539375 14.2325 39.76625 13 40 C12.071875 40.226875 11.14375 40.45375 10.1875 40.6875 C8 41 8 41 6 40 C6 39.34 6 38.68 6 38 C5.01 38 4.02 38 3 38 C3 46.25 3 54.5 3 63 C0.69 63 -1.62 63 -4 63 C-4.08812846 54.09902511 -4.15595353 45.30872951 -3.234375 36.4453125 C-2.48097291 28.58481738 -3.01526708 22.3552347 -6 15 C-5.34 15 -4.68 15 -4 15 C-3.01 16.485 -3.01 16.485 -2 18 C-1.34 12.06 -0.68 6.12 0 0 Z " fill="#90BB5D" transform="translate(1235,101)"/>
<path d="M0 0 C2 1 2 1 2.81640625 3.1796875 C3.06261719 4.06914063 3.30882812 4.95859375 3.5625 5.875 C3.81128906 6.75929688 4.06007813 7.64359375 4.31640625 8.5546875 C4.54199219 9.36164062 4.76757812 10.16859375 5 11 C5.33 11.99 5.66 12.98 6 14 C6 15.32 6 16.64 6 18 C6.2981424 19.34164079 6.62243192 20.67851173 7 22 C6.34 22 5.68 22 5 22 C6.65 24.64 8.3 27.28 10 30 C9.34 30.33 8.68 30.66 8 31 C8.99 33.97 9.98 36.94 11 40 C10.01 40.495 10.01 40.495 9 41 C10.98 43.97 12.96 46.94 15 50 C12.03 50 9.06 50 6 50 C6.78375 50.763125 7.5675 51.52625 8.375 52.3125 C11 55 11 55 13 58 C9.535 57.505 9.535 57.505 6 57 C5.34 59.31 4.68 61.62 4 64 C1.36 64 -1.28 64 -4 64 C-4.33 61.69 -4.66 59.38 -5 57 C-8.465 57.495 -8.465 57.495 -12 58 C-12 57.34 -12 56.68 -12 56 C-13.65 56 -15.3 56 -17 56 C-15.06745228 53.9754262 -13.36841312 52.57894208 -11 51 C-11.66 50.34 -12.32 49.68 -13 49 C-12.54109375 48.35933594 -12.0821875 47.71867187 -11.609375 47.05859375 C-8.1323166 42.15711017 -4.86988604 37.28059031 -2 32 C-3.32 31.67 -4.64 31.34 -6 31 C-5.175 30.38125 -4.35 29.7625 -3.5 29.125 C-2.675 28.42375 -1.85 27.7225 -1 27 C-1 26.34 -1 25.68 -1 25 C-1.99 24.67 -2.98 24.34 -4 24 C-3.525625 23.608125 -3.05125 23.21625 -2.5625 22.8125 C-0.64820367 20.59191626 -0.38733012 18.86624291 0 16 C-0.99 15.67 -1.98 15.34 -3 15 C-2.68289063 14.45859375 -2.36578125 13.9171875 -2.0390625 13.359375 C-0.81692026 10.5842851 -0.59056564 8.26791902 -0.375 5.25 C-0.30023437 4.26515625 -0.22546875 3.2803125 -0.1484375 2.265625 C-0.09945312 1.51796875 -0.05046875 0.7703125 0 0 Z " fill="#669933" transform="translate(867,48)"/>
<path d="M0 0 C2 1 2 1 2.96484375 3.765625 C3.28582031 4.91546875 3.60679687 6.0653125 3.9375 7.25 C5.15417568 11.60441824 6.39698055 15.2755753 9 19 C9.66 19.33 10.32 19.66 11 20 C11.33 19.01 11.66 18.02 12 17 C12.66 17.99 13.32 18.98 14 20 C14.33 15.05 14.66 10.1 15 5 C15.66 5 16.32 5 17 5 C17.95458649 13.35263176 18.11039334 21.59784035 18 30 C19.98 29.01 21.96 28.02 24 27 C24 27.66 24 28.32 24 29 C23.19175781 29.62261719 22.38351562 30.24523437 21.55078125 30.88671875 C18.06538829 34.23441717 18.33599688 38.00398492 18.20507812 42.61523438 C18.19927734 43.67033203 18.19347656 44.72542969 18.1875 45.8125 C18.16236328 46.88693359 18.13722656 47.96136719 18.11132812 49.06835938 C18.05256705 51.71260771 18.01620624 54.35520488 18 57 C16.02 57 14.04 57 12 57 C11.9727384 54.95840905 11.95348655 52.91671037 11.9375 50.875 C11.92589844 49.73804688 11.91429687 48.60109375 11.90234375 47.4296875 C11.994673 44.1870844 12.38610094 41.18067388 13 38 C12.26136719 37.90074219 11.52273438 37.80148438 10.76171875 37.69921875 C6.13287882 36.52727766 3.1797351 33.45126304 0 30 C-3.54335255 23.20857427 -2.08070416 15.29475306 -1 8 C-1 6.72125 -1 5.4425 -1 4.125 C-1 1 -1 1 0 0 Z " fill="#799B47" transform="translate(487,72)"/>
<path d="M0 0 C2.3125 0.1875 2.3125 0.1875 5 1 C6.8125 3.5625 6.8125 3.5625 8 6 C7.01 6.495 7.01 6.495 6 7 C8.31 8.98 10.62 10.96 13 13 C11.02 13.99 11.02 13.99 9 15 C11.475 18.465 11.475 18.465 14 22 C12.35 22 10.7 22 9 22 C9.42152344 22.62648438 9.84304687 23.25296875 10.27734375 23.8984375 C10.82519531 24.71570313 11.37304688 25.53296875 11.9375 26.375 C12.48277344 27.18710938 13.02804688 27.99921875 13.58984375 28.8359375 C15 31 15 31 16 33 C14.02 32.67 12.04 32.34 10 32 C10.7940625 32.71027344 11.588125 33.42054688 12.40625 34.15234375 C13.4376295 35.0805853 14.46887249 36.00897854 15.5 36.9375 C16.02464844 37.40607422 16.54929688 37.87464844 17.08984375 38.35742188 C18.4121744 39.55095408 19.70833939 40.77334179 21 42 C21 42.33 21 42.66 21 43 C19.77023438 43.09087891 19.77023438 43.09087891 18.515625 43.18359375 C17.43796875 43.26738281 16.3603125 43.35117188 15.25 43.4375 C14.18265625 43.51871094 13.1153125 43.59992188 12.015625 43.68359375 C9.55682365 43.94157679 7.37546012 44.36333389 5 45 C4.34 45 3.68 45 3 45 C2.67 47.31 2.34 49.62 2 52 C-0.64 52 -3.28 52 -6 52 C-5.67 49.03 -5.34 46.06 -5 43 C-4.01 43 -3.02 43 -2 43 C0.46431307 38.89347253 0.46431307 38.89347253 0.6875 34.25 C0.3471875 33.13625 0.3471875 33.13625 0 32 C0 30 0 30 1 27 C1.99 27.66 2.98 28.32 4 29 C3.34 27.948125 2.68 26.89625 2 25.8125 C0.2228415 22.73376063 -0.43806506 20.61403672 0 17 C0.99 17.33 1.98 17.66 3 18 C2.67 17.46375 2.34 16.9275 2 16.375 C0.76309247 13.43734461 0.86538811 11.16337941 1 8 C1 5.16032769 0.59732819 2.76264289 0 0 Z " fill="#51792B" transform="translate(215,105)"/>
<path d="M0 0 C0.33 0 0.66 0 1 0 C1.99 9.9 2.98 19.8 4 30 C5.98 29.01 7.96 28.02 10 27 C8.89224263 29.49245407 7.81863761 31.19835697 5.95996094 33.23120117 C3.57325072 36.60286044 3.46544915 38.51665913 3.390625 42.61328125 C3.35839844 43.86044922 3.32617188 45.10761719 3.29296875 46.39257812 C3.27169922 48.33293945 3.27169922 48.33293945 3.25 50.3125 C3.22035156 51.62541016 3.19070312 52.93832031 3.16015625 54.29101562 C3.08954411 57.52740535 3.03680123 60.76307811 3 64 C0.69 64 -1.62 64 -4 64 C-4.17393936 45.34983483 -4.17393936 45.34983483 -3.234375 36.41015625 C-2.47146616 28.56491032 -3.02167527 22.33944307 -6 15 C-5.34 15 -4.68 15 -4 15 C-3.01 16.485 -3.01 16.485 -2 18 C-1.34 12.06 -0.68 6.12 0 0 Z " fill="#A27352" transform="translate(159,11)"/>
<path d="M0 0 C0.33 0 0.66 0 1 0 C1.99 9.9 2.98 19.8 4 30 C5.98 29.01 7.96 28.02 10 27 C8.89205625 29.49287343 7.81259539 31.20622132 5.95996094 33.24487305 C3.60631589 36.55340373 3.46688513 38.3718095 3.390625 42.39453125 C3.35839844 43.59658203 3.32617188 44.79863281 3.29296875 46.03710938 C3.27169922 47.90592773 3.27169922 47.90592773 3.25 49.8125 C3.22035156 51.07771484 3.19070313 52.34292969 3.16015625 53.64648438 C3.08956223 56.76438676 3.0368109 59.88154575 3 63 C0.69 63 -1.62 63 -4 63 C-4.08812846 54.09902511 -4.15595353 45.30872951 -3.234375 36.4453125 C-2.48097291 28.58481738 -3.01526708 22.3552347 -6 15 C-5.34 15 -4.68 15 -4 15 C-3.01 16.485 -3.01 16.485 -2 18 C-1.34 12.06 -0.68 6.12 0 0 Z " fill="#A37252" transform="translate(1235,101)"/>
<path d="M0 0 C0 1.65 0 3.3 0 5 C0.99 5 1.98 5 3 5 C3.36923077 9.55384615 3.36923077 9.55384615 1.5 11.8125 C0.7575 12.4003125 0.7575 12.4003125 0 13 C1.32 13.33 2.64 13.66 4 14 C2.35 15.98 0.7 17.96 -1 20 C-0.34 20.33 0.32 20.66 1 21 C-0.27321884 25.56236752 -1.94847281 28.40996801 -5 32 C-6.37806933 33.97335778 -7.68633852 35.98259129 -9 38 C-8.34 38.66 -7.68 39.32 -7 40 C-10.83325617 42.70582788 -13.32538149 43.32613618 -18 43 C-17.59007812 42.52949219 -17.18015625 42.05898437 -16.7578125 41.57421875 C-16.21898437 40.95160156 -15.68015625 40.32898438 -15.125 39.6875 C-14.32449219 38.76517578 -14.32449219 38.76517578 -13.5078125 37.82421875 C-11.8359553 35.86501788 -11.8359553 35.86501788 -10 33 C-12.475 33.495 -12.475 33.495 -15 34 C-11.535 28.555 -11.535 28.555 -8 23 C-9.65 23 -11.3 23 -13 23 C-10.03 19.535 -10.03 19.535 -7 16 C-8.32 15.34 -9.64 14.68 -11 14 C-9.47005208 12.76302083 -7.94010417 11.52604167 -6.41015625 10.2890625 C-4.86733563 9.0333609 -4.86733563 9.0333609 -4 7 C-4.99 6.67 -5.98 6.34 -7 6 C-6.02388578 4.99702025 -5.04402202 3.99768827 -4.0625 3 C-3.51722656 2.443125 -2.97195312 1.88625 -2.41015625 1.3125 C-1 0 -1 0 0 0 Z " fill="#466828" transform="translate(210,104)"/>
<path d="M0 0 C2.57026257 2.57026257 3.25360085 5.02890232 4.5 8.4375 C5.79465193 11.97016303 6.90921352 14.86382028 9 18 C9.99 18.33 10.98 18.66 12 19 C14.87761023 24.60376729 14.17843628 30.87368781 14 37 C7.88905822 36.00229522 5.31346286 33.68767406 1.3828125 28.97265625 C-1.2271709 25.24937485 -1.13502606 21.97898131 -1.125 17.5625 C-1.12886719 15.86287109 -1.12886719 15.86287109 -1.1328125 14.12890625 C-1.02203168 11.51904046 -0.67701978 9.48951367 0 7 C0.03888349 4.66699067 0.0448635 2.33290199 0 0 Z " fill="#789B46" transform="translate(956,138)"/>
<path d="M0 0 C0.66 0 1.32 0 2 0 C2.95458649 8.35263176 3.11039334 16.59784035 3 25 C4.98 24.01 6.96 23.02 9 22 C9 22.66 9 23.32 9 24 C8.19175781 24.62261719 7.38351562 25.24523437 6.55078125 25.88671875 C3.06538829 29.23441717 3.33599688 33.00398492 3.20507812 37.61523438 C3.19927734 38.67033203 3.19347656 39.72542969 3.1875 40.8125 C3.16236328 41.88693359 3.13722656 42.96136719 3.11132812 44.06835938 C3.05256705 46.71260771 3.01620624 49.35520488 3 52 C1.02 52 -0.96 52 -3 52 C-3.0272616 49.95840905 -3.04651345 47.91671037 -3.0625 45.875 C-3.07410156 44.73804688 -3.08570313 43.60109375 -3.09765625 42.4296875 C-3.00506425 39.1778565 -2.55376198 36.19904036 -2 33 C-1.57455997 25.66857987 -2.10927277 19.09022711 -4 12 C-3.01 12.99 -2.02 13.98 -1 15 C-0.67 10.05 -0.34 5.1 0 0 Z " fill="#A27551" transform="translate(502,77)"/>
<path d="M0 0 C0.66 0 1.32 0 2 0 C2.95458649 8.35263176 3.11039334 16.59784035 3 25 C4.98 24.01 6.96 23.02 9 22 C9 22.66 9 23.32 9 24 C8.19175781 24.62261719 7.38351562 25.24523437 6.55078125 25.88671875 C3.06538829 29.23441717 3.33599688 33.00398492 3.20507812 37.61523438 C3.19927734 38.67033203 3.19347656 39.72542969 3.1875 40.8125 C3.16236328 41.88693359 3.13722656 42.96136719 3.11132812 44.06835938 C3.05256705 46.71260771 3.01620624 49.35520488 3 52 C1.35 52 -0.3 52 -2 52 C-1.98952637 51.10804932 -1.97905273 50.21609863 -1.96826172 49.29711914 C-1.9339204 45.94797109 -1.90897606 42.59901359 -1.89013672 39.24975586 C-1.88015687 37.80766829 -1.86656816 36.36560054 -1.84912109 34.92358398 C-1.75615801 27.0353929 -1.82624539 19.65948967 -4 12 C-3.01 12.99 -2.02 13.98 -1 15 C-0.67 10.05 -0.34 5.1 0 0 Z " fill="#9F7854" transform="translate(971,142)"/>
<path d="M0 0 C0.66 0.33 1.32 0.66 2 1 C2.8515625 3.72265625 2.8515625 3.72265625 3.625 7.0625 C3.88539063 8.16722656 4.14578125 9.27195312 4.4140625 10.41015625 C4.60742188 11.26480469 4.80078125 12.11945312 5 13 C4.01 13.495 4.01 13.495 3 14 C3.66 15.98 4.32 17.96 5 20 C4.34 20 3.68 20 3 20 C3.309375 21.2375 3.61875 22.475 3.9375 23.75 C4.625 26.5 5.3125 29.25 6 32 C5.01 31.34 4.02 30.68 3 30 C3.66498383 34.38889325 5.18757677 37.9811485 7 42 C4.97954558 41.39816251 2.97888961 40.72693904 1 40 C0.67 39.34 0.34 38.68 0 38 C-0.33 38.99 -0.66 39.98 -1 41 C-2.98 41 -4.96 41 -7 41 C-5.35 38.03 -3.7 35.06 -2 32 C-3.32 31.67 -4.64 31.34 -6 31 C-5.175 30.38125 -4.35 29.7625 -3.5 29.125 C-2.675 28.42375 -1.85 27.7225 -1 27 C-1 26.34 -1 25.68 -1 25 C-1.99 24.67 -2.98 24.34 -4 24 C-3.525625 23.608125 -3.05125 23.21625 -2.5625 22.8125 C-0.64820367 20.59191626 -0.38733012 18.86624291 0 16 C-0.99 15.67 -1.98 15.34 -3 15 C-2.52433594 14.18789063 -2.52433594 14.18789063 -2.0390625 13.359375 C-0.81692026 10.5842851 -0.59056564 8.26791902 -0.375 5.25 C-0.26285156 3.77273437 -0.26285156 3.77273437 -0.1484375 2.265625 C-0.09945312 1.51796875 -0.05046875 0.7703125 0 0 Z " fill="#609034" transform="translate(867,48)"/>
<path d="M0 0 C2.16896914 3.25345371 2.69987166 5.57439037 3.5 9.375 C4.36121251 13.44703739 5.33979082 17.17865646 7 21 C5.68 21.99 4.36 22.98 3 24 C3.66 25.98 4.32 27.96 5 30 C4.34 30 3.68 30 3 30 C2.67 31.32 2.34 32.64 2 34 C0.23537317 30.91190305 0 29.76687864 0 26 C-0.99 26 -1.98 26 -3 26 C-3.28875 25.38125 -3.5775 24.7625 -3.875 24.125 C-4.93720042 21.86674235 -4.93720042 21.86674235 -7 20 C-6.401875 19.113125 -5.80375 18.22625 -5.1875 17.3125 C-2.0976182 11.99042601 -1.18556094 5.9727123 0 0 Z " fill="#5F8E36" transform="translate(213,83)"/>
<path d="M0 0 C0.66 0 1.32 0 2 0 C2.61875 0.94875 3.2375 1.8975 3.875 2.875 C6.03117044 6.04583888 6.57344979 6.73697126 10 8 C12.24133258 8.28693388 14.4944319 8.48966591 16.75 8.625 C17.92046875 8.69976562 19.0909375 8.77453125 20.296875 8.8515625 C21.63492187 8.92503906 21.63492187 8.92503906 23 9 C23.25 11.3125 23.25 11.3125 23 14 C21.3828125 15.82421875 21.3828125 15.82421875 19 17 C16.0546875 17.14453125 16.0546875 17.14453125 12.875 16.8125 C11.82054687 16.71582031 10.76609375 16.61914062 9.6796875 16.51953125 C7 16 7 16 5 14 C5 12.68 5 11.36 5 10 C3.7934375 9.690625 3.7934375 9.690625 2.5625 9.375 C1.716875 8.92125 0.87125 8.4675 0 8 C-1.47368421 2.94736842 -1.47368421 2.94736842 0 0 Z " fill="#799C46" transform="translate(1210,121)"/>
<path d="M0 0 C0.66 0 1.32 0 2 0 C2.61875 0.94875 3.2375 1.8975 3.875 2.875 C6.03117044 6.04583888 6.57344979 6.73697126 10 8 C12.24133258 8.28693388 14.4944319 8.48966591 16.75 8.625 C17.92046875 8.69976562 19.0909375 8.77453125 20.296875 8.8515625 C21.63492188 8.92503906 21.63492188 8.92503906 23 9 C23.25 11.3125 23.25 11.3125 23 14 C21.3828125 15.82421875 21.3828125 15.82421875 19 17 C16.0546875 17.14453125 16.0546875 17.14453125 12.875 16.8125 C11.82054687 16.71582031 10.76609375 16.61914062 9.6796875 16.51953125 C7 16 7 16 5 14 C5 12.68 5 11.36 5 10 C3.7934375 9.690625 3.7934375 9.690625 2.5625 9.375 C1.716875 8.92125 0.87125 8.4675 0 8 C-1.47368421 2.94736842 -1.47368421 2.94736842 0 0 Z " fill="#799C46" transform="translate(134,31)"/>
<path d="M0 0 C1.98 0.99 1.98 0.99 4 2 C4 3.32 4 4.64 4 6 C4.2981424 7.34164079 4.62243192 8.67851173 5 10 C4.34 10 3.68 10 3 10 C4.65 12.64 6.3 15.28 8 18 C7.34 18.33 6.68 18.66 6 19 C6.99 21.97 7.98 24.94 9 28 C8.34 28.33 7.68 28.66 7 29 C8.98 31.97 10.96 34.94 13 38 C9.75 38.3125 9.75 38.3125 6 38 C3.6875 35.6875 3.6875 35.6875 2 33 C1.34 32.01 0.68 31.02 0 30 C0.495 28.515 0.495 28.515 1 27 C2.485 27.99 2.485 27.99 4 29 C3.34 27.948125 2.68 26.89625 2 25.8125 C0.2228415 22.73376063 -0.43806506 20.61403672 0 17 C0.99 17.33 1.98 17.66 3 18 C2.67 17.46375 2.34 16.9275 2 16.375 C0.76309247 13.43734461 0.86538811 11.16337941 1 8 C1 5.16032769 0.59732819 2.76264289 0 0 Z " fill="#51782A" transform="translate(869,60)"/>
<path d="M0 0 C3.40054031 1.13351344 3.50417219 1.51446507 5.1875 4.4375 C7.24196558 7.51289633 8.70959737 8.57178488 12.3125 9.4375 C13.529375 9.623125 14.74625 9.80875 16 10 C14 12 14 12 11.625 12.0625 C10.75875 12.041875 9.8925 12.02125 9 12 C7.66018514 12.3062434 6.32488113 12.63451555 5 13 C4.34 13 3.68 13 3 13 C2.67 15.31 2.34 17.62 2 20 C-0.64 20 -3.28 20 -6 20 C-5.505 15.545 -5.505 15.545 -5 11 C-4.01 11 -3.02 11 -2 11 C0.47954966 6.83565666 0.47954966 6.83565666 0.6875 2.125 C0.460625 1.42375 0.23375 0.7225 0 0 Z " fill="#639238" transform="translate(215,137)"/>
<path d="M0 0 C-2.74123777 4.80591473 -5.16206301 9.05003842 -10 12 C-13.3125 12.75 -13.3125 12.75 -16 13 C-15.46930939 9.17902761 -14.50298434 6.93828597 -12 4 C-13.32 4.33 -14.64 4.66 -16 5 C-16 3.35 -16 1.7 -16 0 C-13.89651926 -0.19504458 -11.79217415 -0.38078496 -9.6875 -0.5625 C-8.51574219 -0.66691406 -7.34398437 -0.77132812 -6.13671875 -0.87890625 C-3 -1 -3 -1 0 0 Z " fill="#799A45" transform="translate(521,97)"/>
<path d="M0 0 C1.65 1.65 3.3 3.3 5 5 C4.34 5.66 3.68 6.32 3 7 C5.31 8.98 7.62 10.96 10 13 C8.02 13.99 8.02 13.99 6 15 C7.65 17.31 9.3 19.62 11 22 C9.35 22 7.7 22 6 22 C6.42152344 22.62648438 6.84304687 23.25296875 7.27734375 23.8984375 C7.82519531 24.71570313 8.37304688 25.53296875 8.9375 26.375 C9.48277344 27.18710938 10.02804688 27.99921875 10.58984375 28.8359375 C12 31 12 31 13 33 C9.04179141 32.43454163 6.3340947 31.19097652 3 29 C3.33 28.34 3.66 27.68 4 27 C4.66 27.33 5.32 27.66 6 28 C4.68 24.7 3.36 21.4 2 18 C2.66 17.67 3.32 17.34 4 17 C3.34 16.21625 2.68 15.4325 2 14.625 C0 12 0 12 0 10 C0.66 10 1.32 10 2 10 C1.77183594 9.44570312 1.54367188 8.89140625 1.30859375 8.3203125 C1.02113281 7.59585938 0.73367187 6.87140625 0.4375 6.125 C0.14746094 5.40570313 -0.14257812 4.68640625 -0.44140625 3.9453125 C-1 2 -1 2 0 0 Z " fill="#476929" transform="translate(218,105)"/>
<path d="M0 0 C1.33333333 2.66666667 2.66666667 5.33333333 4 8 C3.34 8 2.68 8 2 8 C2.66 9.98 3.32 11.96 4 14 C3.34 14 2.68 14 2 14 C1.67 16.31 1.34 18.62 1 21 C0.67 20.34 0.34 19.68 0 19 C-0.886875 19.33 -1.77375 19.66 -2.6875 20 C-5.70923347 20.91222143 -7.88373706 21.18330958 -11 21 C-9.87092799 17.61278396 -8.48555675 16.48555675 -6 14 C-4.36530967 11.30276096 -4 10.21879014 -4 7 C-3.04906703 5.30485863 -2.04892238 3.63631892 -1 2 C-0.67 1.34 -0.34 0.68 0 0 Z " fill="#6AA033" transform="translate(213,129)"/>
<path d="M0 0 C-1.25888051 5.87477571 -4.15228475 8.76818983 -9 12 C-12.4375 13.375 -12.4375 13.375 -15 14 C-14.46930939 10.17902761 -13.50298434 7.93828597 -11 5 C-12.32 5.33 -13.64 5.66 -15 6 C-15 4.35 -15 2.7 -15 1 C-12.8750734 0.83240016 -10.75005624 0.66594799 -8.625 0.5 C-7.44164062 0.4071875 -6.25828125 0.314375 -5.0390625 0.21875 C-3.36213157 0.09804546 -1.68126944 0 0 0 Z " fill="#799B46" transform="translate(989,161)"/>
<path d="M0 0 C2.70108504 0.090916 5.36930311 0.23740766 8.0625 0.4375 C9.20041992 0.51581055 9.20041992 0.51581055 10.36132812 0.59570312 C12.24121722 0.72575835 14.12065685 0.86228038 16 1 C15.20703125 3.421875 15.20703125 3.421875 14 6 C10.6875 7.25 10.6875 7.25 7 8 C5.6078125 8.3403125 5.6078125 8.3403125 4.1875 8.6875 C2 9 2 9 0 8 C0 7.34 0 6.68 0 6 C-0.99 6 -1.98 6 -3 6 C-1.125 1.125 -1.125 1.125 0 0 Z " fill="#7A9C46" transform="translate(1241,133)"/>
<path d="M0 0 C2.70108504 0.090916 5.36930311 0.23740766 8.0625 0.4375 C9.20041992 0.51581055 9.20041992 0.51581055 10.36132812 0.59570312 C12.24121722 0.72575835 14.12065685 0.86228038 16 1 C15.20703125 3.421875 15.20703125 3.421875 14 6 C10.6875 7.25 10.6875 7.25 7 8 C5.6078125 8.3403125 5.6078125 8.3403125 4.1875 8.6875 C2 9 2 9 0 8 C0 7.34 0 6.68 0 6 C-0.99 6 -1.98 6 -3 6 C-1.125 1.125 -1.125 1.125 0 0 Z " fill="#7A9C46" transform="translate(165,43)"/>
<path d="M0 0 C0.66 0 1.32 0 2 0 C3.22331084 1.48781048 4.4424558 2.97958603 5.625 4.5 C7.04221368 6.23789649 7.04221368 6.23789649 9.8125 7.3125 C12 9 12 9 12.3125 11.1796875 C12.3125 13.47390944 12.21541627 15.7165875 12 18 C10.5 16.625 10.5 16.625 9 15 C9 14.34 9 13.68 9 13 C8.34 13 7.68 13 7 13 C7 13.66 7 14.32 7 15 C3.125 13.125 3.125 13.125 2 12 C1.95936168 10.33382885 1.957279 8.66611905 2 7 C1.01 6.67 0.02 6.34 -1 6 C-1.042721 4.33388095 -1.04063832 2.66617115 -1 1 C-0.67 0.67 -0.34 0.34 0 0 Z " fill="#7A9D47" transform="translate(1222,103)"/>
<path d="M0 0 C0.66 0 1.32 0 2 0 C3.22331084 1.48781048 4.4424558 2.97958603 5.625 4.5 C7.04221368 6.23789649 7.04221368 6.23789649 9.8125 7.3125 C12 9 12 9 12.3125 11.1796875 C12.3125 13.47390944 12.21541627 15.7165875 12 18 C10.5 16.625 10.5 16.625 9 15 C9 14.34 9 13.68 9 13 C8.34 13 7.68 13 7 13 C7 13.66 7 14.32 7 15 C3.125 13.125 3.125 13.125 2 12 C1.95936168 10.33382885 1.957279 8.66611905 2 7 C1.01 6.67 0.02 6.34 -1 6 C-1.042721 4.33388095 -1.04063832 2.66617115 -1 1 C-0.67 0.67 -0.34 0.34 0 0 Z " fill="#7A9D47" transform="translate(146,13)"/>
<path d="M0 0 C0.886875 0.165 1.77375 0.33 2.6875 0.5 C1.6975 1.985 1.6975 1.985 0.6875 3.5 C1.0175 4.16 1.3475 4.82 1.6875 5.5 C0.02971072 9.28923264 -2.1238962 12.65099729 -5.5 15.0625 C-9.83818613 15.73732895 -13.98925611 15.12120398 -18.3125 14.5 C-15.91425053 12.10175053 -15.03914782 12.18563796 -11.75 11.9375 C-8.73202212 11.91550697 -8.73202212 11.91550697 -6.3125 10.5 C-6.9725 9.84 -7.6325 9.18 -8.3125 8.5 C-4.35626368 0.65754923 -4.35626368 0.65754923 0 0 Z " fill="#557E32" transform="translate(208.3125,133.5)"/>
<path d="M0 0 C0.886875 0.165 1.77375 0.33 2.6875 0.5 C1.6975 1.985 1.6975 1.985 0.6875 3.5 C1.0175 4.16 1.3475 4.82 1.6875 5.5 C0.73487966 6.98285242 -0.22478405 8.46118201 -1.1875 9.9375 C-1.72117187 10.76121094 -2.25484375 11.58492187 -2.8046875 12.43359375 C-4.3125 14.5 -4.3125 14.5 -6.3125 15.5 C-8.31210012 15.539992 -10.31297242 15.54346799 -12.3125 15.5 C-10.37995228 13.4754262 -8.68091312 12.07894208 -6.3125 10.5 C-6.9725 9.84 -7.6325 9.18 -8.3125 8.5 C-4.35626368 0.65754923 -4.35626368 0.65754923 0 0 Z " fill="#517A2B" transform="translate(862.3125,88.5)"/>
<path d="M0 0 C2.16023983 3.24035975 2.84985559 5.72958379 3.75 9.5 C4.17539063 11.21703125 4.17539063 11.21703125 4.609375 12.96875 C5 16 5 16 3 19 C2.34 16.36 1.68 13.72 1 11 C0.96261719 11.67546875 0.92523438 12.3509375 0.88671875 13.046875 C0.82097656 13.93890625 0.75523437 14.8309375 0.6875 15.75 C0.62949219 16.63171875 0.57148438 17.5134375 0.51171875 18.421875 C-0.0641181 21.32303774 -1.07596148 22.79225607 -3 25 C-3.66 24.01 -4.32 23.02 -5 22 C-5.66 21.34 -6.32 20.68 -7 20 C-6.401875 19.113125 -5.80375 18.22625 -5.1875 17.3125 C-2.0976182 11.99042601 -1.18556094 5.9727123 0 0 Z " fill="#5B853D" transform="translate(213,83)"/>
<path d="M0 0 C-0.375 2.4375 -0.375 2.4375 -1 5 C-3.95664519 6.4783226 -6.74229737 6.06032783 -10 6 C-10 6.66 -10 7.32 -10 8 C-12.70879335 9.35439668 -15.00933268 9.06501451 -18 9 C-18 7.02 -18 5.04 -18 3 C-17.18015625 2.95101562 -16.3603125 2.90203125 -15.515625 2.8515625 C-14.43796875 2.77679688 -13.3603125 2.70203125 -12.25 2.625 C-11.18265625 2.55539063 -10.1153125 2.48578125 -9.015625 2.4140625 C-5.74696712 1.96525714 -3.1830482 0 0 0 Z " fill="#7A9C44" transform="translate(1255,110)"/>
<path d="M0 0 C-0.375 2.4375 -0.375 2.4375 -1 5 C-3.95664519 6.4783226 -6.74229737 6.06032783 -10 6 C-10 6.66 -10 7.32 -10 8 C-12.70879335 9.35439668 -15.00933268 9.06501451 -18 9 C-18 7.02 -18 5.04 -18 3 C-17.18015625 2.95101563 -16.3603125 2.90203125 -15.515625 2.8515625 C-14.43796875 2.77679687 -13.3603125 2.70203125 -12.25 2.625 C-11.18265625 2.55539063 -10.1153125 2.48578125 -9.015625 2.4140625 C-5.74696712 1.96525714 -3.1830482 0 0 0 Z " fill="#7A9C44" transform="translate(179,20)"/>
<path d="M0 0 C0.66 0 1.32 0 2 0 C3.31818182 7.90909091 3.31818182 7.90909091 1 12 C1 12.99 1 13.98 1 15 C1 18.04001945 0.56650132 19.45443536 -1 22 C-0.34 22.33 0.32 22.66 1 23 C1.25 25.3125 1.25 25.3125 1 28 C-1 29.8125 -1 29.8125 -3 31 C-2.67 29.68 -2.34 28.36 -2 27 C-2.66 27 -3.32 27 -4 27 C-3.855625 26.21496094 -3.71125 25.42992188 -3.5625 24.62109375 C-2.38331722 17.97499484 -2.38331722 17.97499484 -2 11.25 C-2 7.19285487 -1.09474266 3.90002074 0 0 Z " fill="#527A2B" transform="translate(866,41)"/>
<path d="M0 0 C0.125 6.75 0.125 6.75 -1 9 C-3.64 9 -6.28 9 -9 9 C-9 6.36 -9 3.72 -9 1 C-5.57367167 -0.61798838 -3.61944899 -1.34053666 0 0 Z " fill="#5B3514" transform="translate(872,103)"/>
<path d="M0 0 C0 2.97 0 5.94 0 9 C-2.64 9 -5.28 9 -8 9 C-7.67 6.03 -7.34 3.06 -7 0 C-3 -1 -3 -1 0 0 Z " fill="#5B3717" transform="translate(217,148)"/>
<path d="M0 0 C1.27609323 0.90933009 2.54565553 1.82782853 3.8125 2.75 C4.87404297 3.51570312 4.87404297 3.51570312 5.95703125 4.296875 C8.02977691 6.02482358 9.47375854 7.78526476 11 10 C6.02906176 9.58846263 1.55491614 9.20399168 -3 7 C-3 6.01 -3 5.02 -3 4 C-1.35 4 0.3 4 2 4 C1.34 2.68 0.68 1.36 0 0 Z " fill="#446525" transform="translate(225,138)"/>
<path d="M0 0 C0.33 1.65 0.66 3.3 1 5 C-0.43554025 5.50559908 -1.8735202 6.0042749 -3.3125 6.5 C-4.51326172 6.91765625 -4.51326172 6.91765625 -5.73828125 7.34375 C-8 8 -8 8 -11 8 C-9.86560182 4.59680547 -8.69698684 3.31170301 -6 1 C-3.84227423 0.23844973 -2.27797004 0 0 0 Z " fill="#619235" transform="translate(866,98)"/>
<path d="M0 0 C3.125 -0.1875 3.125 -0.1875 6 0 C4.11611868 3.57937451 2.87022044 5.63403985 -1 7 C-2.299375 7.2475 -2.299375 7.2475 -3.625 7.5 C-6.17526091 7.81108239 -6.17526091 7.81108239 -8 10 C-8.99 9.67 -9.98 9.34 -11 9 C-6.47945205 5.23287671 -6.47945205 5.23287671 -3.8125 3.9375 C-1.65490148 3.00690197 -1.65490148 3.00690197 0 0 Z " fill="#4F762C" transform="translate(208,117)"/>
<path d="M0 0 C0.66 0 1.32 0 2 0 C1.79375 0.61875 1.5875 1.2375 1.375 1.875 C1.25125 2.57625 1.1275 3.2775 1 4 C1.66 4.66 2.32 5.32 3 6 C-0.83325617 8.70582788 -3.32538149 9.32613618 -8 9 C-7.04270084 7.87411986 -6.08412105 6.7493285 -5.125 5.625 C-4.59132812 4.99851563 -4.05765625 4.37203125 -3.5078125 3.7265625 C-2.38567993 2.44163349 -1.20628025 1.20628025 0 0 Z " fill="#436424" transform="translate(200,138)"/>
<path d="M0 0 C0.33 1.65 0.66 3.3 1 5 C-2.82320557 6.42258812 -5.91281305 7.24042276 -10 7 C-8.98502564 3.95507691 -8.4178943 2.9701361 -6 1 C-3.87733361 0.29244454 -2.23416175 0 0 0 Z " fill="#65943A" transform="translate(212,143)"/>
<path d="M0 0 C1.65 0 3.3 0 5 0 C4.07506212 3.78383679 3.60628829 5.56693694 0.375 7.875 C-0.40875 8.24625 -1.1925 8.6175 -2 9 C-2.33 8.34 -2.66 7.68 -3 7 C-2.06421005 4.64018187 -1.06652192 2.30368736 0 0 Z " fill="#50772A" transform="translate(206,125)"/>
<path d="M0 0 C0.66 0 1.32 0 2 0 C3.35384615 6.4 3.35384615 6.4 1.5625 9.4375 C1.046875 9.953125 0.53125 10.46875 0 11 C-0.66 10.01 -1.32 9.02 -2 8 C-2.66 7.34 -3.32 6.68 -4 6 C-2.7260411 3.96166576 -1.38938077 1.96147874 0 0 Z " fill="#517731" transform="translate(210,97)"/>
<path d="M0 0 C1.65 0 3.3 0 5 0 C4.07506212 3.78383679 3.60628829 5.56693694 0.375 7.875 C-0.40875 8.24625 -1.1925 8.6175 -2 9 C-2.33 8.34 -2.66 7.68 -3 7 C-2.06421005 4.64018187 -1.06652192 2.30368736 0 0 Z " fill="#50772A" transform="translate(860,80)"/>
<path d="M0 0 C1.4540625 0.0309375 1.4540625 0.0309375 2.9375 0.0625 C1.09176347 3.56939941 -0.18619984 5.81208059 -4.0625 7.0625 C-4.7225 6.7325 -5.3825 6.4025 -6.0625 6.0625 C-3.76028481 0.07674051 -3.76028481 0.07674051 0 0 Z " fill="#51792B" transform="translate(865.0625,71.9375)"/>
<path d="M0 0 C-0.59687434 3.34249629 -1.73603877 5.46436342 -4 8 C-4.66 8 -5.32 8 -6 8 C-6.75 6.25 -6.75 6.25 -7 4 C-4.66754091 1.00112403 -3.88153854 0 0 0 Z " fill="#446525" transform="translate(209,114)"/>
<path d="M0 0 C1.98 0.495 1.98 0.495 4 1 C4.25 3.3125 4.25 3.3125 4 6 C2 7.8125 2 7.8125 0 9 C0.33 7.68 0.66 6.36 1 5 C0.34 5 -0.32 5 -1 5 C-0.67 3.35 -0.34 1.7 0 0 Z " fill="#517A2B" transform="translate(209,108)"/>
<path d="M0 0 C0.7425 0.433125 0.7425 0.433125 1.5 0.875 C4.91752035 2.41288416 8.3506202 3.14847805 12 4 C11.34 4.66 10.68 5.32 10 6 C5.81703701 5.72719807 3.0467944 4.92961 0 2 C0 1.34 0 0.68 0 0 Z " fill="#59833B" transform="translate(219,143)"/>
<path d="M0 0 C0.515625 0.268125 1.03125 0.53625 1.5625 0.8125 C4.66401415 2.32349407 7.82262806 3.65572726 11 5 C11 5.33 11 5.66 11 6 C7.14521782 6.35858439 5.42240542 6.2754818 2.125 4.125 C1.42375 3.42375 0.7225 2.7225 0 2 C0 1.34 0 0.68 0 0 Z " fill="#51792A" transform="translate(873,98)"/>
<path d="M0 0 C2.12920281 2.12920281 2.51084284 3.10230433 3.25 5.9375 C3.44078125 6.62714844 3.6315625 7.31679687 3.828125 8.02734375 C4 10 4 10 2 13 C-0.28571429 4.57142857 -0.28571429 4.57142857 0 0 Z " fill="#517731" transform="translate(214,89)"/>
<path d="M0 0 C1.32 0 2.64 0 4 0 C2.75023244 3.65316671 2.32901247 4.78065836 -1 7 C-0.7525 6.1028125 -0.7525 6.1028125 -0.5 5.1875 C0.1114124 2.88655664 0.1114124 2.88655664 0 0 Z " fill="#639434" transform="translate(209,136)"/>
<path d="M0 0 C1.32 0 2.64 0 4 0 C2.75023244 3.65316671 2.32901247 4.78065836 -1 7 C-0.7525 6.1028125 -0.7525 6.1028125 -0.5 5.1875 C0.1114124 2.88655664 0.1114124 2.88655664 0 0 Z " fill="#639434" transform="translate(863,91)"/>
</svg>
