<svg width="229" height="432" viewBox="0 0 229 432" fill="none" xmlns="http://www.w3.org/2000/svg">
<path fill-rule="evenodd" clip-rule="evenodd" d="M168.801 394.88V343.797C168.801 339.859 166.702 336.224 163.285 334.245L119.03 308.703C115.624 306.734 111.421 306.734 108.004 308.703L63.7487 334.245C60.3424 336.214 58.2383 339.849 58.2383 343.797V394.88C58.2383 398.818 60.332 402.453 63.7487 404.432L108.004 429.974C111.41 431.943 115.613 431.943 119.03 429.974L163.285 404.432C166.691 402.464 168.801 398.818 168.801 394.88Z" fill="#89C190"/>
<g opacity="0.8">
<mask id="mask0_1350_894" style="mask-type:luminance" maskUnits="userSpaceOnUse" x="117" y="204" width="112" height="126">
<path d="M117.145 204H228.999V329.333H117.145V204Z" fill="white"/>
</mask>
<g mask="url(#mask0_1350_894)">
<path fill-rule="evenodd" clip-rule="evenodd" d="M228.618 292.63V241.542C228.618 237.604 226.52 233.969 223.103 231.989L178.848 206.448C175.441 204.479 171.238 204.479 167.822 206.448L123.566 231.989C120.16 233.958 118.051 237.594 118.051 241.542V292.63C118.051 296.568 120.15 300.203 123.566 302.182L167.822 327.724C171.228 329.693 175.431 329.693 178.848 327.724L223.103 302.182C226.52 300.203 228.618 296.568 228.618 292.63Z" fill="#89C190"/>
</g>
</g>
<path opacity="0.6" fill-rule="evenodd" clip-rule="evenodd" d="M168.801 190.375V139.292C168.801 135.349 166.702 131.714 163.285 129.74L119.03 104.188C115.624 102.219 111.421 102.219 108.004 104.188L63.7487 129.729C60.3424 131.698 58.2383 135.333 58.2383 139.281V190.365C58.2383 194.302 60.332 197.938 63.7487 199.917L108.004 225.458C111.41 227.427 115.613 227.427 119.03 225.458L163.285 199.917C166.691 197.948 168.801 194.312 168.801 190.375Z" fill="#89C190"/>
<g opacity="0.8">
<mask id="mask1_1350_894" style="mask-type:luminance" maskUnits="userSpaceOnUse" x="0" y="204" width="112" height="126">
<path d="M0 204H111.812V329.333H0V204Z" fill="white"/>
</mask>
<g mask="url(#mask1_1350_894)">
<path fill-rule="evenodd" clip-rule="evenodd" d="M105.328 231.989L61.0781 206.448C57.6667 204.479 53.4635 204.479 50.0469 206.448L5.79688 231.989C2.38542 233.958 0.28125 237.594 0.28125 241.531V292.62C0.28125 296.557 2.38021 300.193 5.79688 302.161L50.0469 327.703C53.4531 329.672 57.6615 329.672 61.0781 327.703L105.328 302.161C108.74 300.193 110.844 296.557 110.844 292.62V241.531C110.844 237.594 108.745 233.958 105.328 231.989Z" fill="#89C190"/>
</g>
</g>
<g opacity="0.4">
<mask id="mask2_1350_894" style="mask-type:luminance" maskUnits="userSpaceOnUse" x="117" y="0" width="112" height="126">
<path d="M117.145 0H228.999V125.333H117.145V0Z" fill="white"/>
</mask>
<g mask="url(#mask2_1350_894)">
<path fill-rule="evenodd" clip-rule="evenodd" d="M223.102 27.4738L178.847 1.93213C175.441 -0.0366213 171.238 -0.0366213 167.821 1.93213L123.576 27.4738C120.17 29.4425 118.061 33.078 118.061 37.0259V88.1144C118.061 92.0519 120.16 95.6873 123.576 97.6665L167.826 123.208C171.238 125.177 175.441 125.177 178.857 123.208L223.113 97.6665C226.519 95.6978 228.623 92.0571 228.623 88.1144V37.0259C228.618 33.0884 226.519 29.4425 223.102 27.4738Z" fill="#89C190"/>
</g>
</g>
</svg>
