<svg width="208" height="290" viewBox="0 0 208 290" fill="none" xmlns="http://www.w3.org/2000/svg">
<g opacity="0.5">
<mask id="mask0_1671_1224" style="mask-type:luminance" maskUnits="userSpaceOnUse" x="0" y="-108" width="302" height="398">
<path d="M302 290L0 290L0 -108L302 -108L302 290Z" fill="white"/>
</mask>
<g mask="url(#mask0_1671_1224)">
<path fill-rule="evenodd" clip-rule="evenodd" d="M118.448 219.176C119.157 222.75 120.074 226.282 121.226 229.761C122.687 234.151 124.531 238.441 126.605 242.664C127.842 245.164 129.218 247.616 130.738 250.001C132.257 252.405 133.926 254.708 135.76 256.91C136.086 257.289 137.392 259.161 138.325 259.761C138.789 260.044 139.237 260.106 139.599 260.044C139.946 259.991 140.261 259.794 140.532 259.41C141.263 258.268 141.53 257.045 141.524 255.783C141.519 254.113 140.986 252.39 140.73 250.797C140.383 248.911 139.935 247.054 139.461 245.197C138.362 240.908 137.056 236.685 135.942 232.376C135.552 230.836 135.206 229.262 134.769 227.707C134.475 226.647 134.139 225.601 133.729 224.574C133.078 222.918 132.359 221.296 131.553 219.703C130.732 218.096 129.821 216.522 128.781 215.035C126.781 212.069 122.846 209.9 120.58 207.084C120.319 206.767 120.095 206.421 119.866 206.071C119.743 205.889 119.626 205.706 119.509 205.524C119.759 203.389 120.005 201.282 120.244 199.181C120.548 196.613 120.922 194.08 121.21 191.541C122.164 183.163 123.102 174.877 125.241 166.431C127.315 158.212 130.375 149.834 135.392 141.033C136.912 138.37 138.544 135.803 140.245 133.284C142.719 130.386 144.958 127.319 147.389 123.975C147.475 123.86 147.448 123.692 147.325 123.61C149.757 120.544 152.289 117.545 154.923 114.613C160.522 108.404 166.467 102.454 172.561 96.6095C178.661 90.7603 184.915 85.0262 190.914 79.0473C210.706 59.417 228.019 38.0161 240.863 14.7725L212.156 56.0533C211.218 58.323 210.61 60.5926 210.285 62.8815C209.986 64.9496 209.906 67.0369 210.071 69.1242C210.215 70.8996 210.562 72.6558 210.983 74.412C210.999 74.8055 211.015 75.2038 211.031 75.5877C211.111 78.0205 211.138 80.4581 211.426 82.8909C211.655 84.7814 211.964 86.6672 212.407 88.5242C212.855 90.3956 213.532 92.1854 214.086 94.0232C214.945 96.8542 215.803 99.6901 216.774 102.473C217.259 106.163 216.976 109.992 216.374 113.836C215.643 118.457 214.364 123.078 213.35 127.535C213.084 128.711 212.86 129.887 212.641 131.029C212.023 134.426 211.511 137.804 211.458 141.22C211.431 143.005 211.607 144.762 211.751 146.551C211.714 146.719 211.676 146.868 211.639 147.031C211.607 147.017 211.575 147.017 211.538 147.017C211.271 147.017 211.047 147.199 211.042 147.449C210.887 148.173 210.722 148.888 210.658 149.618C210.642 149.814 210.631 149.997 210.626 150.179C210.573 150.313 210.525 150.443 210.487 150.577C210.477 150.625 210.466 150.659 210.455 150.693C210.343 150.99 210.221 151.273 210.093 151.556C208.904 154.239 206.776 156.46 204.707 158.759C204.361 159.143 204.009 159.507 203.689 159.92C202.921 160.899 202.281 161.94 201.711 163C201.012 164.325 200.469 165.702 200.202 167.209C200.079 168.039 200.015 168.864 200.042 169.694C200.079 171.249 200.394 172.823 200.575 174.397C200.741 175.889 200.794 177.381 200.666 178.854C200.165 184.339 199.855 189.622 199.61 194.891C199.503 197.208 199.312 199.512 199.333 201.829C199.36 205.111 199.658 208.408 200.186 211.786C200.591 214.19 201.199 216.556 202.025 218.878C203.236 222.271 204.862 225.553 206.344 228.816C207.288 230.869 208.392 233.436 209.735 236.037C210.551 237.611 211.468 239.204 212.423 240.725C213.26 242.069 214.086 243.36 215.03 244.502C216.118 245.812 217.285 246.906 218.464 247.798C218.832 248.067 219.12 248.048 219.269 248C219.466 247.932 219.69 247.798 219.77 247.501C219.807 247.352 219.632 246.67 219.61 246.392L219.504 244.353L219.322 237.462C218.981 232.213 218.981 226.944 218.72 221.69C218.656 220.366 218.576 219.041 218.464 217.717C218.208 214.603 218.357 211.536 218.64 208.475C219.104 203.37 220.069 198.302 220.751 193.235C221.055 190.994 221.279 188.778 221.402 186.541C221.54 183.859 221.503 181.172 221.231 178.475C220.932 175.822 220.207 173.255 219.104 170.803C218.794 170.126 218.48 169.445 218.144 168.783C216.752 164.642 214.769 160.548 214.257 156.292C214.097 154.968 213.942 153.644 213.884 152.314C213.809 150.745 213.814 149.186 213.894 147.612C214.294 149.915 214.699 152.218 215.211 154.522C216.139 158.332 217.307 162.223 218.773 166.033C220.25 169.843 222.031 173.571 224.052 177.05C225.497 179.387 227.011 181.738 228.685 183.989C229.81 185.495 231.004 186.954 232.3 188.346L235.441 191.513L236.998 192.837C237.19 192.986 237.504 193.331 237.685 193.466C237.893 193.614 238.107 193.581 238.267 193.614C238.528 193.682 238.538 193.432 238.848 193.365C238.965 193.331 238.901 193.202 239.04 193.115C239.12 193.067 239.146 193.034 239.205 192.967C239.466 192.602 239.365 192.055 239.344 191.541C239.296 190.515 238.992 189.339 238.917 188.528L238.213 180.409C237.904 176.949 238.027 173.456 237.84 169.977C237.792 169.099 237.723 168.202 237.621 167.324C237.499 166.23 237.248 165.169 236.923 164.142C236.454 162.655 235.835 161.196 235.275 159.704C234.198 156.791 233.153 154.023 231.868 151.34C230.999 149.536 230.034 147.746 228.818 145.971C226.302 142.195 221.759 140.309 219.024 137.209C218.304 136.379 217.701 135.501 217.301 134.392C217.147 133.946 216.96 133.5 216.854 132.986C216.838 132.569 216.48 132.238 216.043 132.204C216.08 132.007 216.123 131.811 216.166 131.609C216.411 130.482 216.688 129.34 216.944 128.183C217.936 123.644 218.938 118.889 219.477 114.167C219.626 112.843 219.738 111.499 219.791 110.175C219.946 110.539 220.095 110.904 220.245 111.269C221.082 113.274 221.834 115.275 222.761 117.2C224.201 120.179 225.875 122.996 227.603 125.698C231.228 131.23 235.43 136.561 239.914 141.729C244.686 147.247 249.709 152.617 254.486 158.034C255.35 159.008 256.187 159.987 257.04 160.947C257.131 161.163 257.211 161.379 257.291 161.575C257.776 162.818 258.037 164.142 258.208 165.5C258.459 167.439 258.464 169.445 258.634 171.398C258.757 172.808 258.97 174.2 259.29 175.524C259.957 178.144 260.863 180.894 262.191 183.461C263.535 186.042 265.267 188.446 267.283 190.481C268.797 192.007 270.407 193.183 272.119 194.161C273.361 194.872 274.652 195.438 275.963 195.999C277.243 196.546 278.544 197.074 279.861 197.621C281.53 198.302 283.199 199.065 284.916 199.891C285.401 200.126 285.859 200.375 286.313 200.654C287.454 201.335 288.531 202.098 289.693 202.741C290.226 203.038 290.717 203.37 291.202 203.701C292.412 204.55 293.527 205.457 294.785 206.301C295.153 206.537 295.942 207.064 296.571 207.146C296.683 207.165 296.795 207.213 296.886 207.179C297.376 206.935 297.339 207.146 297.446 206.767C297.685 206.7 298.005 206.402 298.187 205.889C298.469 205.044 298.635 203.518 298.661 203.288L298.763 202.064L298.795 200.788C298.928 197.722 298.48 194.425 297.632 191.23C296.779 188 295.499 184.852 293.825 182.117C293.079 180.908 292.242 179.766 291.287 178.706C290.338 177.66 289.266 176.686 288.152 175.774C284.894 173.072 281.109 170.851 277.43 168.768C275.681 167.837 274.044 166.762 272.343 165.769C271.57 165.304 270.786 164.872 269.97 164.493C268.323 163.682 266.552 163.082 264.878 162.305C264.217 162.007 263.572 161.676 262.953 161.297C259.898 159.272 257.36 156.921 254.929 154.488C253.793 153.346 252.689 152.166 251.575 150.99H251.564C253.143 151.556 254.865 151.935 257.035 152.382C258.555 152.698 260.026 153.13 261.524 153.495C262.218 153.644 262.911 153.792 263.62 153.888C265.945 154.191 268.36 154.339 270.797 154.373C274.348 154.435 277.941 154.272 281.364 154.239C283.161 154.191 284.894 154.023 286.611 153.773C289.133 153.394 291.607 152.847 294.161 152.334L299.552 151.172C299.925 151.091 300.666 151.091 301.002 151.009C301.199 150.976 301.311 150.86 301.428 150.774C301.716 150.577 301.7 150.28 301.551 149.814C301.407 149.349 300.997 148.869 300.495 148.408C300.122 148.077 299.674 147.813 299.402 147.598C298.219 146.686 297.035 145.856 295.825 145.059C294.609 144.248 293.367 143.485 292.055 142.742C290.103 141.633 287.949 140.553 285.635 139.594C282.388 138.255 278.853 137.108 275.243 136.398C268.962 135.155 262.484 135.17 256.918 137.046C255.723 137.391 254.566 137.905 253.436 138.485C251.831 139.296 250.279 140.242 248.786 141.12C248.035 141.547 247.203 142.065 246.323 142.444C245.747 142.708 245.134 142.842 244.521 142.924C244.5 142.924 244.478 142.943 244.462 142.943C243.22 141.532 241.983 140.107 240.762 138.701C236.806 134.095 232.945 129.474 229.629 124.618C227.827 122.017 226.179 119.268 224.553 116.437C223.492 114.599 222.372 112.775 221.439 110.837C220.853 109.613 220.314 108.351 219.818 107.075C219.765 105.419 219.61 103.764 219.317 102.142C218.581 98.7784 217.541 95.4963 216.518 92.1998C216.043 90.6787 215.563 89.1384 215.094 87.6125C214.886 85.9379 214.678 84.268 214.502 82.6078C214.252 80.2421 213.932 77.8909 213.889 75.5205C213.857 74.0954 213.974 72.6894 214.028 71.2787C214.108 69.1434 214.273 67.0225 214.422 64.916C214.46 64.3402 214.438 63.774 214.486 63.2125C214.689 60.9237 215.11 58.6876 215.659 56.4852C216.176 54.3978 216.912 52.3777 217.659 50.3912C217.68 50.3576 217.701 50.324 217.728 50.2904C218.069 49.7914 218.725 49.4123 218.81 48.8173C218.864 48.3854 218.714 48.4862 218.549 48.1887C226.936 37.5026 234.454 26.3703 240.863 14.7725C246.062 5.36282 250.557 -4.3396 254.134 -14.3827C259.408 -29.1714 262.713 -44.6607 263.78 -60.7786C263.95 -63.6816 264.068 -66.4935 264.105 -69.2766C264.137 -69.4589 264.164 -69.6605 264.19 -69.8428C264.26 -70.3226 264.308 -70.8025 264.313 -71.2823C264.318 -72.0261 264.233 -72.7411 264.148 -73.4704C264.148 -73.5664 264.132 -73.6671 264.105 -73.7487C264.041 -77.3955 263.833 -80.9559 263.433 -84.5164C262.575 -92.1698 260.842 -99.7082 258.533 -107.793C258.501 -107.909 258.368 -107.976 258.235 -107.957C258.101 -107.928 258.016 -107.808 258.048 -107.693C259.653 -99.545 260.49 -91.9539 260.949 -84.3532C261.263 -79.1181 261.391 -73.8831 261.22 -68.4321C260.463 -64.838 259.173 -61.3592 257.424 -58.0147C257.024 -57.2374 256.576 -56.4744 256.176 -55.6779C255.894 -55.1165 255.707 -54.5359 255.393 -53.9888C255.259 -53.7585 255.094 -53.5426 254.939 -53.3266C253.249 -50.8555 251.41 -48.4706 249.421 -46.1866C246.35 -42.655 242.996 -39.392 239.903 -36.2635C237.909 -34.2913 235.809 -32.4055 233.649 -30.563C231.276 -29.3394 229.128 -28.2933 226.771 -27.7655C224.921 -27.3528 223.028 -27.0841 221.082 -26.9545C218.283 -26.753 215.371 -26.7722 212.268 -26.5898C205.198 -26.158 197.557 -25.6638 190.53 -23.7252C185.704 -22.396 181.204 -20.3759 177.307 -17.5113L167.048 -9.75702L163.966 -7.48737C163.892 -7.43936 162.452 -6.51328 161.881 -6.14859C161.764 -6.06702 161.679 -5.99985 161.642 -5.98065C161.572 -5.93268 161.535 -5.88467 161.514 -5.86548C160.884 -5.25128 161.444 -4.70425 161.578 -4.57471C161.743 -4.42596 162.308 -4.21002 163.108 -4.17645C164.249 -4.12845 166.184 -4.25803 166.44 -4.25803C168.141 -4.24362 169.821 -4.31079 171.495 -4.44037C173.937 -4.64188 176.358 -4.9538 178.826 -5.12173C181.919 -5.37125 185.043 -5.86548 188.147 -6.52768C192.721 -7.50653 197.248 -8.8501 201.535 -10.2224C205.353 -11.4796 209.256 -12.8712 213.052 -14.4978C207.912 -10.7695 202.729 -7.14188 197.691 -3.48068C191.618 0.957855 185.454 5.38202 179.237 9.75336C174.955 12.7716 170.647 15.7706 166.275 18.6688C165.688 18.9807 165.102 19.2638 164.521 19.5277C164.499 19.4941 164.473 19.4462 164.435 19.4126C164.254 19.2303 163.94 19.1967 163.726 19.3646C162.607 20.1563 161.444 20.9049 160.277 21.6342C157.909 22.6611 155.446 23.52 152.892 24.5997C150.583 25.5114 147.981 26.567 145.337 27.2484C143.598 27.7138 141.844 27.9778 140.159 27.9442C133.905 27.8626 127.021 26.2215 120.234 25.5594C117.216 25.2618 114.214 25.1947 111.314 25.4442C108.242 25.7225 105.262 26.3703 102.505 27.6803C101.359 28.2081 100.266 28.8895 99.2101 29.6668C98.229 30.377 97.3759 31.1735 96.5921 32.018C95.4884 33.1936 94.502 34.47 93.4036 35.7128C92.4119 36.8069 91.4361 37.8481 90.4391 38.8606C89.3993 39.9018 88.3383 40.9143 87.3359 42.0083C86.4881 42.92 85.667 43.8797 84.8885 44.921C84.2167 45.8327 81.9933 47.373 81.1242 48.7021C80.6443 49.4459 80.5217 50.1561 80.7083 50.7702C80.7776 51.0054 81.1828 51.6004 82.2012 51.7299C83.3156 51.8643 86.2108 51.7971 86.3975 51.7971C88.9621 51.8163 91.5641 51.634 94.1501 51.3029C96.7041 50.9718 99.2367 50.4919 101.705 49.9929C105.128 49.2827 108.52 48.3998 111.873 47.4258C115.206 46.4469 118.49 45.3384 121.753 44.2444C125.107 43.0832 128.456 41.9268 131.713 40.5976C135.019 39.2588 138.218 37.7665 141.295 36.0967C143.758 34.7339 146.184 33.328 148.392 31.6198C148.658 31.423 148.925 31.2071 149.186 30.9911C153.377 28.7887 157.509 26.4854 161.583 24.1006C167.528 20.6074 173.372 16.9606 179.093 13.1698C177.653 14.8253 176.304 16.5143 174.998 18.2514C173.094 20.7897 171.319 23.4193 169.554 26.0536C168.216 28.0449 166.893 30.0651 165.56 32.0708C165.209 32.5842 164.846 33.0785 164.478 33.5775C164.398 33.5919 164.334 33.6591 164.307 33.7263C163.934 34.2397 163.524 34.638 163.198 35.1658C163.092 35.3337 162.985 35.5161 162.884 35.6792C162.361 36.3414 161.828 37.0036 161.279 37.6514C159.749 39.4556 158.133 41.1446 156.406 42.5362C155.403 43.3663 154.326 44.11 153.212 44.8394C150.535 46.5812 147.656 48.1215 145.017 49.825C141.785 51.9459 138.778 54.1483 135.942 56.5379C133.11 58.9036 130.45 61.4563 127.821 64.1386C126.19 65.8469 124.329 67.7663 122.745 69.8056C121.636 71.2307 120.666 72.7038 119.962 74.1961C119.173 75.866 118.72 77.5262 118.506 79.1961C118.197 81.5809 118.33 83.9705 118.304 86.5185C118.24 87.9244 117.968 89.3495 117.818 90.7603C117.749 91.4224 117.701 92.0702 117.706 92.7324C117.706 93.1451 117.904 93.3946 118.069 93.5434C118.069 93.5434 118.074 93.5434 118.08 93.5434C118.048 93.6441 118.016 93.7593 117.978 93.8552C117.888 94.0088 117.946 94.1911 118.112 94.2727C118.277 94.3543 118.485 94.3063 118.576 94.1575C118.672 94.0568 118.762 93.9752 118.858 93.8744C118.89 93.8744 118.922 93.8888 118.954 93.8888C119.146 93.8888 119.429 93.8552 119.727 93.6729C119.866 93.5913 120.111 93.3418 120.255 93.2458L122.207 91.8015L127.123 87.4973C129.239 85.626 131.218 83.6202 133.1 81.5329C134.966 79.46 136.741 77.3247 138.453 75.1702C140.095 73.1021 141.764 71.0292 143.374 68.9418C144.985 66.8545 146.558 64.7193 148.109 62.5983C151.223 58.323 154.219 53.9852 157.067 49.5466C159.024 46.4661 161.002 43.5822 162.569 40.516C162.735 40.2041 162.9 39.873 163.065 39.5563C166.654 34.8827 170.013 30.1322 173.414 25.425C174.001 24.6141 174.587 23.8031 175.174 22.9922C174.758 24.115 174.374 25.2426 174.017 26.3703C172.705 30.4969 171.703 34.6859 170.54 38.9086C169.821 41.778 169.096 44.326 168.792 46.9603C168.589 48.7357 168.573 50.5543 168.818 52.5265C168.946 53.7021 168.984 54.9113 169.128 56.1061C169.186 56.6339 169.261 57.1665 169.383 57.68C169.575 58.4909 169.869 59.2874 170.205 60.0984C170.951 61.869 171.948 63.6252 172.748 65.3335L173.873 68.3948C173.884 68.4284 174.225 68.9946 174.241 69.2394C174.268 69.4889 174.406 69.4745 174.406 69.5561C174.411 69.724 174.614 69.5896 174.646 69.6904C174.683 69.8056 174.801 69.6712 174.849 69.7528C174.886 69.82 174.95 69.724 174.993 69.772C175.174 69.9879 175.27 69.5896 175.515 69.6712C175.76 69.7384 175.814 69.6232 176.096 69.5225C176.331 69.4409 176.459 69.1578 176.614 68.8939C177.067 68.0973 177.291 66.6914 177.451 66.1588C177.781 65.0359 178.154 63.9227 178.576 62.8143C179.21 61.1252 179.919 59.4698 180.549 57.7759C181.455 55.6598 182.132 53.5389 182.735 51.4516C183.358 49.2827 183.865 47.1426 184.244 44.9546C184.841 41.4805 185.225 37.9681 185.113 34.3213C185.091 33.4431 185.006 32.5507 184.926 31.6534C184.67 28.8559 184.26 25.9912 183.838 23.1553C183.657 21.9653 183.465 20.7705 183.31 19.5949C183.06 17.6228 183.017 15.6698 182.996 13.6977C183.614 12.6036 184.206 11.4952 184.686 10.334C185.145 9.71979 185.577 9.07678 186.035 8.46259C190.653 5.28125 195.201 2.01831 199.727 -1.21103C208.365 -7.45377 217.515 -13.5526 225.971 -20.2607C228.237 -22.0649 230.471 -23.9075 232.593 -25.8269C235.798 -28.7252 238.768 -31.8249 241.556 -35.0207C244.478 -38.3028 247.549 -41.8104 250.535 -45.4236C252.577 -47.89 254.438 -50.51 256.384 -53.0435C256.811 -53.5905 257.312 -54.0896 257.728 -54.6318C258.144 -55.198 258.512 -55.7786 258.874 -56.3593C259.525 -57.4005 260.138 -58.4609 260.703 -59.5214C259.456 -44.1665 256.059 -29.4209 251.015 -15.2752C247.491 -5.37125 243.177 4.23999 238.123 13.5633C233.436 22.2101 228.131 30.6121 222.319 38.7598C222.079 38.7118 221.823 38.8126 221.684 39.0093C220.511 40.516 219.408 42.0419 218.448 43.6494C218.139 44.1772 217.84 44.7098 217.552 45.2377C208.984 56.5379 199.45 67.3536 189.224 77.6894C183.268 83.6682 177.141 89.5031 170.999 95.2804C164.803 101.115 158.608 106.912 152.791 113.025C148.13 117.929 143.652 122.982 139.615 128.394C137.451 131.297 135.419 134.311 133.521 137.425C132.241 138.485 130.887 139.527 129.426 140.553C127.181 142.127 124.761 143.389 122.372 144.68C119.903 146.024 117.451 147.329 115.046 148.72C113.366 149.699 111.804 150.793 110.183 151.854C109.778 152.103 109.362 152.348 108.951 152.617C106.296 154.287 103.78 156.144 101.354 158.116C97.7278 161.062 94.3154 164.229 90.9989 167.357C87.4958 170.62 84.286 174.363 81.1775 178.274C79.8978 179.881 78.6449 181.503 77.3812 183.144C76.3948 184.401 75.3977 185.678 74.39 186.921C74.2887 187.002 74.1874 187.089 74.0861 187.156C72.6838 188.211 71.2228 188.926 69.5912 189.291C67.9117 189.656 66.1095 189.756 64.2646 189.67C61.54 189.541 58.7248 189.061 55.9629 188.826C54.7472 188.73 53.5368 188.71 52.3265 188.73C50.5456 188.778 48.7701 188.926 46.9839 189.075C41.7213 189.521 36.384 190.203 31.3454 191.661C27.9276 192.655 24.6645 194.027 21.6146 195.802C20.111 196.729 18.6447 197.789 17.2211 198.917C15.1577 200.553 13.1795 202.328 11.244 203.936C9.40985 205.457 7.50104 206.983 5.74149 208.605C5.20297 209.104 4.6911 209.631 4.16324 210.131C2.89957 211.354 1.68924 212.597 0.70816 214.022C0.196289 214.771 0.532196 215.313 0.862793 215.697C1.0654 215.946 1.44397 216.129 1.97714 216.244C2.61166 216.373 4.06195 216.177 4.77109 216.21C5.46957 216.21 6.16803 216.21 6.87186 216.191C8.47678 216.129 10.0764 215.98 11.6759 215.845C14.4698 215.615 17.2371 215.332 19.9991 215.001C22.761 214.651 25.5123 214.272 28.2795 213.825C36.5706 212.367 45.3523 209.833 53.4355 206.105C56.3894 204.761 59.2633 203.254 61.9773 201.585C62.4518 201.369 62.921 201.133 63.3849 200.889C66.1415 199.377 68.5355 197.41 70.8389 195.318C72.0813 194.195 73.2809 193.019 74.438 191.777C70.3644 198.931 66.9253 206.354 64.5046 214.123C63.4595 217.501 62.4838 220.831 61.7427 224.175C60.9909 227.573 60.479 230.984 60.2177 234.516L59.8712 240.279L59.9565 242.549C59.9778 242.745 59.9138 243.192 59.9511 243.379C60.0204 243.739 60.1857 243.974 60.3564 244.123C60.7456 244.454 61.3214 244.77 62.0999 244.223C62.7024 243.806 63.2463 243.177 63.6888 242.448C64.4779 241.123 65.0271 239.434 65.5017 238.355C66.3174 236.719 67.1492 235.092 67.981 233.47C69.2287 231.052 70.4923 228.633 71.868 226.248C73.3129 223.662 74.8432 221.114 76.4321 218.595C80.1804 212.678 84.174 206.882 87.5332 200.802C89.6073 197.045 91.4575 193.183 92.8971 189.142C93.6329 187.136 94.0381 185.097 94.326 183.029C94.7153 180.246 94.9445 177.444 95.2698 174.665C95.4404 173.24 95.6483 171.83 95.9416 170.404C96.0163 170.059 96.0589 169.709 96.1389 169.344C96.5334 167.525 97.2799 165.851 98.245 164.229C98.6395 163.567 99.0448 162.9 99.5087 162.257C99.8552 161.777 100.218 161.311 100.591 160.846C101.204 160.285 101.823 159.723 102.452 159.157C104.745 157.137 107.144 155.232 109.682 153.509C110.242 153.164 110.791 152.799 111.367 152.482C113.702 151.172 116.208 150.179 118.656 149.071C120.714 148.14 122.766 147.18 124.745 146.105C126.845 144.963 128.84 143.653 130.754 142.214C124.601 153.524 121.428 164.195 119.61 174.781C118.666 180.28 118.016 185.745 117.637 191.278C117.461 193.83 117.419 196.397 117.291 198.979C117.227 200.289 117.163 201.599 117.088 202.923C116.917 203.091 116.816 203.307 116.816 203.537C116.779 203.801 116.757 204.085 116.752 204.348C116.358 205.49 115.83 206.618 115.201 207.712C114.582 208.773 113.857 209.814 113.094 210.86C110.066 215.001 106.147 218.974 102.644 222.539C101.412 223.796 100.218 224.991 99.1834 226.181C92.3372 233.854 85.9709 241.474 81.7214 249.885C79.0821 255.106 77.2799 260.639 76.5067 266.517C76.0162 270.212 75.9842 274.041 76.4054 278.047C76.64 279.837 76.9546 281.79 77.4185 283.695C77.6478 284.64 77.9464 285.566 78.2076 286.478C78.4902 287.457 78.7408 288.417 79.0981 289.295C79.386 290.01 79.9672 290.024 80.415 289.957C80.6123 289.923 80.8629 289.808 81.1082 289.578C81.2788 289.396 81.5188 288.93 81.6947 288.748L84.1474 285.883L88.4876 280.682C90.5457 278.182 92.4865 275.595 94.342 272.947C96.1869 270.312 97.9464 267.63 99.6579 264.962C101.231 262.476 102.788 260.024 104.238 257.524C106.44 253.729 108.445 249.885 110.279 245.975C111.202 244.007 112.092 242.035 112.892 240.015C114.742 235.375 116.219 230.586 117.349 225.634C117.84 223.465 118.213 221.33 118.448 219.176ZM229.64 -27.2184C228.792 -26.9689 227.939 -26.7722 227.102 -26.5898C225.182 -26.158 223.22 -25.9277 221.204 -25.7261C218.421 -25.4622 215.521 -25.2655 212.444 -24.9344C205.577 -24.205 198.229 -23.2118 191.415 -21.2204C186.941 -19.9153 182.671 -18.2214 178.992 -15.6207C177.584 -14.6274 176.198 -13.6197 174.79 -12.6408C172.668 -11.1486 170.519 -9.69461 168.338 -8.2695L165.363 -6.31174C165.87 -6.36453 166.27 -6.4317 166.376 -6.4317C166.43 -6.4317 166.478 -6.44611 166.531 -6.44611C166.92 -6.67642 167.32 -6.89233 167.725 -7.10828C170.759 -8.71576 174.033 -10.0881 177.323 -11.3837C181.482 -13.0247 185.752 -14.3971 189.991 -15.3568C196.656 -16.8491 203.726 -17.9239 210.557 -19.4978C215.105 -20.5439 219.557 -21.8202 223.7 -23.6052C224.947 -24.1523 226.142 -24.8145 227.304 -25.5294C227.832 -25.8605 228.349 -26.2108 228.856 -26.5706C229.117 -26.7866 229.378 -27.0025 229.64 -27.2184ZM169.144 -6.67642C170.311 -6.81076 171.463 -6.9931 172.625 -7.14188C174.587 -7.40579 176.56 -7.6409 178.56 -7.81845C181.503 -8.06796 184.478 -8.56699 187.437 -9.19559C191.911 -10.1553 196.342 -11.4316 200.533 -12.7752C205.518 -14.3155 210.589 -16.1533 215.489 -18.2886C218.208 -19.4834 220.842 -20.7934 223.391 -22.1993C223.524 -22.3001 223.657 -22.396 223.79 -22.516C223.833 -22.5496 223.876 -22.5784 223.918 -22.612C219.807 -20.7934 215.403 -19.4498 210.882 -18.3894C204.057 -16.7675 196.971 -15.7214 190.295 -14.2483C186.947 -13.5046 183.572 -12.4921 180.25 -11.2973C176.448 -9.95853 172.753 -8.28391 169.144 -6.67642ZM179.727 20.1419C178.72 22.4788 177.877 24.83 177.093 27.1812C175.739 31.2743 174.577 35.3817 173.308 39.5563C172.892 40.8999 172.503 42.1907 172.119 43.4335C171.724 44.7242 171.335 45.967 171.058 47.2578C170.7 48.8989 170.471 50.5735 170.487 52.4449C170.509 53.4526 170.445 54.4794 170.461 55.5255C170.471 56.1733 170.514 56.8354 170.626 57.4784C170.802 58.4909 171.127 59.5178 171.543 60.511C172.172 62.0369 172.999 63.5244 173.649 64.9832L174.987 67.368C175.206 66.7586 175.313 65.8469 175.435 65.5638L175.574 65.2999C176.176 63.1454 176.635 61.0101 176.832 58.8076C177.221 54.417 176.933 49.9257 176.976 45.5016C177.003 43.5486 177.136 41.5957 177.328 39.6571C177.611 36.7589 178.016 33.875 178.346 30.9768C178.73 27.8098 178.901 24.6284 179.466 21.4999C179.546 21.0345 179.631 20.5882 179.727 20.1419ZM177.92 60.8085L179.669 57.464C180.607 55.3911 181.412 53.3566 181.961 51.2837C182.527 49.1484 182.857 46.9939 183.017 44.8394C183.278 41.4133 182.969 38.0016 182.575 34.47C182.484 33.6111 182.409 32.7474 182.297 31.8885C181.951 29.1054 181.311 26.3031 180.932 23.4865C180.81 22.5747 180.719 21.6822 180.666 20.7705C180.533 21.4999 180.421 22.2292 180.335 22.973C179.999 25.6601 179.861 28.376 179.583 31.0919C179.269 33.9758 178.869 36.8548 178.597 39.7531C178.416 41.6772 178.288 43.5822 178.272 45.5208C178.224 49.9593 178.517 54.4794 178.122 58.9036C178.064 59.5322 178 60.1655 177.92 60.8085ZM85.9016 47.0611C90.1085 44.825 94.518 42.8049 98.9275 40.8327C102.937 39.0573 107.043 37.5026 111.282 36.3606C113.302 35.828 115.371 35.3961 117.461 35.017C122.249 34.1725 127.16 33.6255 131.879 32.6802C137.643 31.5046 143.332 29.8971 148.696 27.6946C150.951 26.7686 153.126 25.7225 155.249 24.5661C154.603 24.83 153.953 25.0939 153.292 25.377C150.978 26.3703 148.365 27.5123 145.715 28.3424C143.865 28.9038 142.004 29.3165 140.186 29.3837C133.889 29.6668 126.845 28.5392 119.983 28.1265C117.141 27.9586 114.342 27.877 111.628 28.1409C108.93 28.4096 106.344 29.019 103.881 30.1131C102.873 30.5449 101.871 31.0392 100.911 31.6534C100.021 32.2339 99.2421 32.8625 98.5116 33.5583C97.3386 34.6716 96.2828 35.8616 95.1098 37.0228C94.0168 38.1168 92.9024 39.1245 91.852 40.1705C91.1482 40.8663 90.4817 41.5765 89.8206 42.3058C88.7595 43.4671 87.7518 44.6906 86.8293 46.0342C86.6321 46.3317 86.2962 46.6772 85.9016 47.0611ZM84.334 49.4315C85.3098 49.3979 86.2535 49.3451 86.3548 49.3451C88.3009 49.2827 90.2631 49.0812 92.2253 48.8317C95.1898 48.4334 98.1543 47.9056 101.012 47.2914C103.678 46.7444 106.323 46.0678 108.951 45.3384C112.918 44.2444 116.848 43.016 120.735 41.7588C124.083 40.6984 127.405 39.5899 130.69 38.4143C132.103 37.9153 133.51 37.4019 134.902 36.8548C140.767 34.0046 146.478 30.8904 152.071 27.5939C151.143 28.0114 150.205 28.4096 149.255 28.7887C143.801 31.0247 138.037 32.6802 132.183 33.875C127.464 34.8683 122.559 35.4969 117.77 36.3942C115.734 36.7733 113.713 37.2051 111.745 37.7521C108.632 38.5967 105.598 39.6715 102.606 40.8999C96.3628 43.4335 90.3484 46.5812 84.334 49.4315ZM120.532 89.1048C123.652 83.7018 126.723 78.2508 130.146 73.0013C133.116 68.4476 136.374 64.0571 140.191 60.0312C143.689 56.37 148.029 53.0399 151.911 49.4603C152.972 48.5006 153.958 47.4737 154.913 46.4469C154.843 46.4949 154.769 46.5476 154.699 46.5956C152.119 48.4526 149.325 50.1081 146.776 51.9315C143.737 54.086 140.943 56.3364 138.256 58.7068C135.563 61.0724 132.982 63.558 130.471 66.1924C128.877 67.8334 127.08 69.6568 125.512 71.5762C124.505 72.819 123.588 74.0762 122.921 75.3717C122.196 76.7777 121.785 78.1692 121.519 79.58C121.087 81.864 121.012 84.1672 120.799 86.6192C120.756 87.4494 120.65 88.2747 120.532 89.1048ZM122.201 88.7545C123.252 87.8092 124.249 86.8352 125.272 85.8707C127.256 83.9993 129.095 81.9984 130.844 79.9446C132.609 77.8717 134.267 75.7172 135.878 73.5627C137.392 71.5426 138.89 69.5081 140.426 67.4831C142.729 64.4697 145.075 61.4899 147.363 58.4717C149.074 56.2213 150.77 53.966 152.423 51.6819C148.824 54.8777 144.862 57.8623 141.652 61.1732C137.829 65.0647 134.571 69.3401 131.564 73.7643C128.248 78.6491 125.272 83.7546 122.201 88.7545ZM175.712 68.1981C175.707 68.1789 175.707 68.1789 175.702 68.1789H175.691L175.702 68.1981L175.712 68.2125V68.1981ZM175.744 68.2797C175.755 68.3133 175.75 68.3325 175.739 68.366C175.712 68.414 175.814 68.2989 175.782 68.2989C175.766 68.2989 175.755 68.2989 175.744 68.2797ZM235.099 188.71C234.47 187.535 233.884 186.326 233.287 185.116C230.791 180.064 228.584 174.877 226.254 169.742C224.334 165.472 222.425 161.196 220.751 156.825C219.632 153.907 218.624 150.956 217.728 147.977C216.71 144.613 215.777 141.201 215.131 137.756C215.009 138.634 214.891 139.527 214.774 140.405C214.763 140.491 214.753 140.553 214.742 140.621C214.865 140.985 214.977 141.35 215.083 141.715C216.288 145.741 216.843 149.882 217.952 153.955C218.906 157.669 220.138 161.446 221.578 165.155C223.012 168.85 224.66 172.477 226.59 175.875C227.848 178.226 229.17 180.596 230.653 182.88C231.634 184.387 232.679 185.86 233.83 187.252L235.099 188.71ZM296.955 148.754C296.07 148.159 295.179 147.598 294.268 147.051C293.073 146.321 291.847 145.64 290.551 144.963C287.246 143.221 283.305 141.633 279.168 140.371C276.555 139.594 273.862 138.917 271.159 138.5C266.51 137.804 261.85 137.756 257.653 138.965C256.608 139.296 255.601 139.762 254.625 140.309C253.1 141.134 251.644 142.127 250.237 143.039C249.24 143.668 248.115 144.431 246.904 144.93C249.266 145.525 251.623 145.659 253.985 145.606C256.123 145.558 258.267 145.342 260.426 145.078C265.534 144.45 270.711 143.552 275.921 143.951C278.32 144.085 280.783 144.483 283.241 145.011C285.731 145.544 288.237 146.172 290.653 146.849C291.708 147.146 292.732 147.463 293.756 147.761C294.801 148.077 295.873 148.442 296.955 148.754ZM236.891 189.272C236.848 189.075 236.816 188.893 236.79 188.73C236.678 187.914 236.576 187.089 236.502 186.278C236.32 184.373 236.219 182.468 236.07 180.543C235.803 177.065 235.974 173.552 235.83 170.059C235.798 169.195 235.739 168.351 235.659 167.492C235.558 166.498 235.339 165.553 235.051 164.608C234.609 163.135 234.022 161.71 233.489 160.237C232.449 157.353 231.484 154.637 230.194 151.988C229.346 150.261 228.349 148.591 227.144 146.931C225.598 144.896 223.359 143.572 221.247 142.214C220.058 141.432 218.88 140.673 217.883 139.795C218.522 142.343 219.232 144.877 220.047 147.396C220.996 150.313 222.047 153.212 223.129 156.096C224.761 160.433 226.472 164.757 228.264 169.046C231.004 175.707 233.601 182.415 236.731 188.941C236.779 189.041 236.838 189.157 236.891 189.272ZM247.693 146.604C247.757 146.585 247.843 146.604 247.96 146.619C248.179 146.633 248.317 146.849 248.488 146.964C251.415 148.855 253.729 149.253 257.611 149.882C259.168 150.131 260.687 150.51 262.228 150.808C262.841 150.928 263.455 151.024 264.084 151.091C265.737 151.321 267.443 151.455 269.17 151.556C273.244 151.787 277.435 151.787 281.391 151.887C283.065 151.954 284.697 151.887 286.318 151.753C288.824 151.537 291.293 151.139 293.836 150.793L297.216 150.261C295.878 149.997 294.545 149.618 293.249 149.32C292.039 149.023 290.802 148.72 289.554 148.389C286.76 147.612 283.924 146.734 281.077 146.139C279.306 145.755 277.547 145.477 275.814 145.342C270.711 145.093 265.694 146.187 260.703 146.849C258.459 147.132 256.219 147.348 253.996 147.329C251.836 147.295 249.704 147.051 247.581 146.47L247.693 146.604ZM216.374 242.15C215.345 240.164 214.54 238.11 213.884 236.023C212.401 231.316 211.756 226.397 211.34 221.412C210.908 216.157 210.871 210.956 211.026 205.774C211.26 198.019 211.9 190.303 212.156 182.482C212.273 179.617 212.332 176.782 212.316 173.936C212.305 171.1 212.215 168.255 212.007 165.419C211.767 161.777 211.143 158.164 210.823 154.555C209.789 156.806 208.301 158.927 206.787 161.028C205.299 163.116 203.753 165.155 203.247 167.674C202.991 168.715 202.895 169.776 202.857 170.851C202.82 171.911 202.793 172.972 202.831 174.032C202.895 175.707 203.044 177.381 202.873 179.022C202.345 184.569 201.684 189.92 201.754 195.255C201.786 197.41 202.047 199.545 202.271 201.7C202.601 204.847 203.044 207.99 203.79 211.225C204.164 212.894 204.707 214.521 205.262 216.143C205.635 217.237 206.003 218.331 206.414 219.406C207.453 222.175 208.621 224.905 209.757 227.621C210.605 229.679 211.66 232.227 212.807 234.862C213.489 236.435 214.182 238.043 214.961 239.583C215.409 240.461 215.888 241.32 216.374 242.15ZM217.957 241.752L217.819 237.577C217.269 232.99 217.003 228.384 216.56 223.796C216.374 221.843 216.155 219.905 215.878 217.947C215.318 213.907 215.329 209.9 215.665 205.908C216.054 201.301 216.79 196.729 217.429 192.156C217.957 188.346 218.448 184.555 218.442 180.711C218.421 180.711 218.4 180.711 218.378 180.711C218.101 180.659 217.925 180.409 217.984 180.164C218.224 178.902 218.272 177.679 218.187 176.47C218.08 175.755 217.941 175.044 217.771 174.33C217.445 172.991 216.987 171.666 216.539 170.337C215.984 168.701 215.318 167.127 214.854 165.472C214.731 165.021 214.689 164.608 214.604 164.176C214.577 164.109 214.577 164.047 214.604 163.994C214.444 163.547 214.289 163.101 214.134 162.655C214.246 163.514 214.342 164.392 214.422 165.256C214.678 168.154 214.817 171.038 214.865 173.917C214.907 176.782 214.849 179.665 214.742 182.549C214.332 191.676 213.414 200.654 213.196 209.713C213.1 213.542 213.121 217.4 213.377 221.277C213.644 225.337 214.076 229.363 214.982 233.273C215.659 236.172 216.619 239.003 217.957 241.752ZM297.355 203.37C297.387 203.274 297.408 203.206 297.414 203.187L297.451 202.031L297.43 200.769C297.35 197.837 296.758 194.708 295.691 191.709C294.636 188.744 293.105 185.946 291.282 183.528C290.514 182.516 289.634 181.59 288.723 180.692C287.8 179.781 286.835 178.902 285.811 178.091C282.66 175.572 279.045 173.471 275.521 171.518C274.998 171.22 274.486 170.918 273.985 170.587C272.108 169.363 270.365 167.972 268.419 166.83C266.878 165.932 265.214 165.189 263.631 164.344C263.385 164.21 263.135 164.08 262.895 163.946C264.734 166.115 266.456 168.351 268.653 170.356C272.37 173.735 276.539 176.734 280.373 180.016C281.348 180.86 282.308 181.685 283.231 182.583C284.334 183.624 285.363 184.718 286.35 185.827C287.816 187.501 289.186 189.243 290.562 190.994C291.703 192.472 292.775 193.979 293.724 195.553C294.678 197.127 295.51 198.782 296.198 200.471C296.56 201.383 297.03 202.362 297.355 203.37ZM295.926 204.55C295.638 203.322 295.03 202.112 294.572 201.018C293.905 199.377 293.089 197.823 292.183 196.297C291.271 194.776 290.263 193.283 289.176 191.839C287.864 190.088 286.552 188.346 285.134 186.671C284.201 185.582 283.225 184.502 282.17 183.461C280.826 182.165 279.408 180.923 277.936 179.747C274.454 176.964 270.717 174.416 267.358 171.518C265.561 169.992 263.988 168.317 262.489 166.628C261.956 166.014 261.428 165.404 260.895 164.79C260.922 164.905 260.943 165.021 260.965 165.141C261.354 167.094 261.578 169.147 261.818 171.134C261.972 172.429 262.116 173.701 262.415 174.91C262.991 177.362 263.892 179.915 264.995 182.367C266.089 184.819 267.358 187.189 269.026 189.224C271.122 191.825 273.564 193.595 276.326 194.972C277.488 195.534 278.704 196.033 279.962 196.498C281.802 197.16 283.727 197.722 285.667 198.451C286.243 198.667 286.787 198.931 287.32 199.214C288.483 199.828 289.57 200.553 290.749 201.133C291.367 201.45 291.943 201.796 292.498 202.146C293.671 202.909 294.732 203.753 295.926 204.55ZM92.1933 169.229C90.487 172.261 88.3916 175.112 86.5094 178.058C82.9424 183.658 79.3433 189.243 76.2401 195.039C72.8064 201.431 69.8472 208.024 67.7517 214.934C66.5201 218.912 65.443 222.818 64.5952 226.776C64.03 229.396 63.5555 232.03 63.2623 234.746L62.7877 239.204C63.0756 238.624 63.3262 238.057 63.5608 237.611C63.7261 237.246 63.8861 236.901 64.0461 236.551C63.9874 236.599 63.9021 236.599 63.8221 236.584C63.6888 236.551 63.6142 236.421 63.6515 236.301C64.7232 232.875 65.619 229.343 66.696 225.884C67.4212 223.547 68.2369 221.244 69.1807 219.008C70.5777 215.711 72.0866 212.467 73.6755 209.233C77.3652 201.714 81.4334 194.344 85.0858 186.839C86.4348 184.09 87.7784 181.273 89.0421 178.442C89.8845 176.551 90.695 174.665 91.4361 172.775C92.028 171.302 92.5452 169.742 93.1583 168.221C92.993 168.384 92.8331 168.552 92.6678 168.715C92.5078 168.883 92.3479 169.066 92.1933 169.229ZM64.2753 236.071C65.1977 234.065 66.1308 232.098 67.1332 230.159C67.9703 228.518 68.8714 226.911 69.7939 225.289C71.2975 222.702 72.9077 220.15 74.5233 217.616C78.2609 211.752 82.1159 205.922 85.3951 199.857C87.3679 196.182 89.1167 192.405 90.4604 188.461C91.9373 183.989 91.6014 179.334 92.1026 174.795C91.5428 176.172 90.9509 177.544 90.3378 178.922C89.0741 181.753 87.7251 184.584 86.3761 187.352C82.7078 194.838 78.6662 202.247 74.9125 209.732C73.3129 212.928 71.7507 216.143 70.3164 219.406C69.5806 221.047 68.9408 222.736 68.3169 224.444C66.904 228.302 65.6669 232.246 64.2753 236.071ZM4.42984 213.014C5.08566 212.678 5.71484 212.319 6.38132 211.983C7.65564 211.354 8.96198 210.774 10.2736 210.212C11.228 209.799 12.2038 209.435 13.2062 209.118C17.3651 207.861 21.6146 206.685 25.9228 205.658C27.8476 205.193 29.7885 204.795 31.7239 204.363C36.2668 203.37 40.8095 202.41 45.331 201.666C48.2529 201.167 51.0575 200.553 53.8141 199.795C56.5707 199.046 59.2793 198.154 62.0519 197.194C63.7048 196.594 65.3097 195.951 66.8133 195.188C67.2025 194.924 67.5864 194.656 67.965 194.377C68.2263 194.109 68.4822 193.845 68.7381 193.581C69.7245 192.54 70.6683 191.46 71.596 190.351C71.0629 190.515 70.5137 190.63 69.9592 190.75C68.1303 191.095 66.1895 191.114 64.19 191.028C61.4547 190.898 58.6075 190.582 55.8296 190.452C54.6832 190.385 53.5475 190.419 52.4171 190.481C50.6842 190.601 48.9674 190.817 47.2345 191.028C43.0063 191.541 38.7567 192.256 34.6512 193.35C32.625 193.897 30.6416 194.56 28.7061 195.303C26.7919 196.047 24.9151 196.877 23.1289 197.904C21.6839 198.715 20.271 199.68 18.8953 200.687C16.7839 202.247 14.7471 203.936 12.769 205.457C10.5456 207.199 8.11954 208.84 6.17871 210.841C5.52289 211.522 4.94171 212.251 4.42984 213.014ZM6.16803 213.163L11.3134 212.698C14.0593 212.434 16.7732 212.117 19.4818 211.752C22.1852 211.388 24.8831 210.975 27.5917 210.495C35.5949 209.219 44.0513 206.8 51.9373 203.403C55.5256 201.848 58.9807 200.073 62.2439 198.134C59.4659 198.965 56.7413 199.708 53.9954 200.375C51.1908 201.038 48.3702 201.647 45.4217 202.098C40.0577 203.005 34.6352 204.065 29.2979 205.442C26.1094 206.273 22.9849 207.247 19.8604 208.206C17.765 208.854 15.6749 209.483 13.6221 210.164C11.3453 210.893 9.29254 212.035 7.06915 212.846C6.77054 212.962 6.47195 213.062 6.16803 213.163ZM80.8523 286.181C80.8043 286.233 80.7296 286.262 80.6496 286.248C80.5164 286.233 80.415 286.133 80.4257 286.018C80.6656 281.776 81.6254 277.52 83.1396 273.359C85.3791 267.198 88.7435 261.267 91.8094 255.715C94.2727 251.33 96.7361 246.954 99.2847 242.616C100.986 239.718 102.724 236.848 104.51 233.983C107.304 229.559 110.471 224.905 112.945 220.068C114.587 216.853 115.931 213.557 116.597 210.164C116.603 210.131 116.613 210.078 116.629 210.049C116.656 209.713 116.677 209.387 116.704 209.051C116.235 209.9 115.702 210.745 115.131 211.556C111.905 216.109 107.075 220.087 103.31 223.96C102.287 225.02 101.369 226.08 100.532 227.093C94.5393 234.612 89.2074 242.15 85.3044 250.101C84.3127 252.121 83.3796 254.161 82.5851 256.248C81.2735 259.66 80.2924 263.206 79.7006 266.901C79.1354 270.394 78.8954 274.041 79.1247 277.865C79.1887 279.938 79.306 282.241 79.7059 284.458C79.8125 285.039 79.9138 285.6 80.0791 286.166C80.1591 286.416 80.2391 286.66 80.3351 286.896L80.8523 286.181ZM139.167 257.472C139.178 257.491 139.189 257.491 139.199 257.505C139.311 256.958 139.317 256.397 139.285 255.85C139.194 254.262 138.688 252.635 138.41 251.114C138.026 248.643 137.509 246.21 136.891 243.791C135.958 240.111 134.838 236.503 133.9 232.808C133.5 231.268 133.137 229.708 132.695 228.187C132.407 227.194 132.076 226.2 131.681 225.236C131.026 223.662 130.306 222.088 129.501 220.548C128.701 219.041 127.81 217.568 126.803 216.143C124.905 213.557 121.386 211.719 119.039 209.368L119.034 209.416C119.178 209.617 119.327 209.814 119.455 210.03C119.535 210.164 119.583 210.313 119.653 210.462C120.554 212.415 121.695 214.286 122.724 216.21C123.3 217.271 123.833 218.345 124.281 219.459L129.394 232.841C131.346 237.827 133.014 242.995 134.95 248.048C136.107 251.08 137.36 254.046 138.869 256.91C138.97 257.112 139.119 257.275 139.167 257.472ZM136.352 254.626C135.734 253.451 135.153 252.241 134.609 251.013C132.044 245.231 130.189 239.137 127.842 233.336L122.617 220.001C121.823 218.096 120.751 216.277 119.711 214.454C119.813 214.948 119.909 215.462 120.01 215.994C120.858 220.452 122.084 224.823 123.534 229.132C124.99 233.436 126.669 237.693 128.653 241.853C129.821 244.319 131.116 246.738 132.561 249.089C133.724 250.999 134.987 252.851 136.352 254.626ZM80.9003 286.113L82.0253 284.54L86.0829 279.127C87.6345 277.136 89.1061 275.082 90.5244 272.995C92.6678 269.866 94.6833 266.651 96.6241 263.436C98.1224 260.97 99.5566 258.484 100.98 256.018C103.134 252.27 105.224 248.547 107.107 244.737C108.05 242.832 108.935 240.908 109.799 238.969C111.756 234.578 113.526 230.092 114.913 225.418C115.403 222.256 115.787 219.142 116.096 216.095C115.552 217.602 114.907 219.094 114.193 220.567C111.815 225.485 108.669 230.207 105.928 234.698C103.726 238.259 101.609 241.867 99.53 245.495C97.4452 249.122 95.3977 252.769 93.3503 256.416C90.2364 261.881 87 267.779 84.51 273.791C82.8464 277.817 81.4708 281.905 80.9216 286.046C80.9162 286.065 80.9109 286.099 80.9003 286.113ZM218.075 244.818C218.032 244.799 217.995 244.785 217.952 244.751C217.995 244.833 218.037 244.9 218.08 244.967L218.075 244.818Z" fill="white"/>
</g>
</g>
</svg>
