<svg width="254" height="341" viewBox="0 0 254 341" fill="none" xmlns="http://www.w3.org/2000/svg">
<mask id="mask0_1567_892" style="mask-type:luminance" maskUnits="userSpaceOnUse" x="-41" y="0" width="295" height="341">
<path d="M-41 0H254V340.702H-41V0Z" fill="white"/>
</mask>
<g mask="url(#mask0_1567_892)">
<path fill-rule="evenodd" clip-rule="evenodd" d="M138.296 60.6283C137.603 57.5681 136.708 54.5449 135.583 51.5669C134.155 47.8084 132.353 44.1362 130.327 40.5215C129.119 38.3814 127.775 36.2824 126.291 34.241C124.806 32.183 123.176 30.2114 121.385 28.326C121.067 28.0015 119.791 26.3995 118.879 25.8861C118.426 25.6437 117.989 25.5903 117.635 25.6437C117.296 25.6889 116.989 25.8573 116.723 26.1859C116.01 27.1635 115.749 28.211 115.754 29.2913C115.76 30.7207 116.28 32.1954 116.53 33.5591C116.869 35.1734 117.306 36.763 117.77 38.3527C118.843 42.0249 120.119 45.6396 121.208 49.3282C121.588 50.6468 121.926 51.9941 122.353 53.3249C122.64 54.2327 122.968 55.1282 123.369 56.0072C124.004 57.4243 124.708 58.8127 125.494 60.1765C126.296 61.5525 127.187 62.8998 128.202 64.1732C130.155 66.7117 133.999 68.5683 136.213 70.9795C136.468 71.2506 136.687 71.5463 136.911 71.8462C137.03 72.0023 137.145 72.1584 137.26 72.3145C137.015 74.1423 136.775 75.9456 136.541 77.7447C136.244 79.9423 135.879 82.1111 135.598 84.2841C134.666 91.456 133.749 98.5498 131.661 105.779C129.635 112.816 126.645 119.987 121.744 127.521C120.26 129.801 118.666 131.998 117.004 134.155C114.588 136.636 112.4 139.26 110.025 142.123C109.942 142.222 109.968 142.366 110.088 142.436C107.713 145.06 105.239 147.628 102.666 150.137C97.1971 155.453 91.3898 160.546 85.4367 165.549C79.4783 170.556 73.369 175.465 67.5096 180.583C48.1763 197.387 31.2648 215.707 18.7179 235.605L46.7596 200.267C47.6763 198.324 48.27 196.381 48.5877 194.422C48.8794 192.651 48.9575 190.864 48.796 189.078C48.6554 187.558 48.3169 186.054 47.9054 184.551C47.8898 184.214 47.8742 183.873 47.8585 183.545C47.7804 181.462 47.7544 179.375 47.4731 177.293C47.2492 175.674 46.9471 174.06 46.5148 172.47C46.0773 170.869 45.4158 169.336 44.8742 167.763C44.0356 165.34 43.1971 162.912 42.2492 160.53C41.7752 157.371 42.0513 154.093 42.6398 150.803C43.3533 146.847 44.6033 142.892 45.5929 139.076C45.8533 138.069 46.0721 137.063 46.2856 136.085C46.8898 133.177 47.3898 130.285 47.4419 127.361C47.4679 125.833 47.296 124.329 47.1554 122.797C47.1919 122.653 47.2283 122.526 47.2648 122.386C47.296 122.399 47.3273 122.399 47.3638 122.399C47.6242 122.399 47.8429 122.243 47.8481 122.029C47.9992 121.409 48.1606 120.797 48.2231 120.172C48.2388 120.004 48.2492 119.848 48.2544 119.692C48.3065 119.577 48.3533 119.466 48.3898 119.351C48.4002 119.31 48.4106 119.281 48.421 119.252C48.5304 118.998 48.6502 118.755 48.7752 118.513C49.9367 116.217 52.0148 114.315 54.0356 112.347C54.3742 112.019 54.7179 111.707 55.0304 111.353C55.7804 110.515 56.4054 109.624 56.9627 108.716C57.645 107.582 58.1763 106.404 58.4367 105.114C58.5565 104.403 58.619 103.697 58.5929 102.986C58.5565 101.655 58.2492 100.308 58.0721 98.9606C57.9106 97.6831 57.8585 96.4056 57.9835 95.1446C58.4731 90.4496 58.7752 85.9271 59.0148 81.4169C59.119 79.433 59.3065 77.4613 59.2856 75.4773C59.2596 72.6677 58.9679 69.8458 58.4523 66.954C58.0565 64.8961 57.4627 62.871 56.6554 60.883C55.4731 57.9789 53.8846 55.1693 52.4367 52.3761C51.5148 50.618 50.4367 48.4205 49.1242 46.1941C48.3273 44.8468 47.4315 43.4831 46.4992 42.181C45.6815 41.0308 44.8742 39.9259 43.9523 38.9483C42.8898 37.8269 41.7492 36.8904 40.5981 36.1264C40.2388 35.8963 39.9575 35.9128 39.8117 35.9538C39.619 36.0113 39.4002 36.1264 39.3221 36.381C39.2856 36.5084 39.4575 37.0916 39.4783 37.3299L39.5825 39.0756L39.7596 44.9742C40.0929 49.4679 40.0929 53.9781 40.3481 58.4759C40.4106 59.6096 40.4888 60.7433 40.5981 61.877C40.8481 64.5428 40.7023 67.1676 40.4263 69.7883C39.9731 74.1588 39.0304 78.4964 38.3638 82.8341C38.0669 84.7523 37.8481 86.65 37.7283 88.5642C37.5929 90.8604 37.6294 93.1606 37.895 95.4691C38.1867 97.7406 38.895 99.9382 39.9731 102.037C40.2752 102.616 40.5825 103.2 40.9106 103.766C42.27 107.311 44.2075 110.815 44.7075 114.459C44.8638 115.592 45.0148 116.726 45.0721 117.864C45.145 119.207 45.1398 120.542 45.0617 121.889C44.671 119.918 44.2752 117.946 43.7752 115.974C42.869 112.713 41.7283 109.382 40.296 106.12C38.8533 102.859 37.1138 99.6671 35.1398 96.6891C33.7283 94.6887 32.2492 92.6759 30.6138 90.7494C29.5148 89.4597 28.3481 88.2109 27.0825 87.0197L24.0148 84.3087L22.494 83.175C22.3065 83.0477 21.9992 82.7519 21.8221 82.6369C21.619 82.5096 21.4106 82.5383 21.2544 82.5096C20.9992 82.4521 20.9888 82.6656 20.6867 82.7232C20.5721 82.7519 20.6346 82.8628 20.4992 82.9368C20.421 82.9778 20.395 83.0066 20.3377 83.0641C20.0825 83.3763 20.1815 83.8445 20.2023 84.2841C20.2492 85.1631 20.546 86.1694 20.619 86.8636L21.3065 93.8137C21.6085 96.7753 21.4888 99.7657 21.671 102.744C21.7179 103.495 21.7856 104.264 21.8846 105.015C22.0044 105.952 22.2492 106.86 22.5669 107.739C23.0252 109.012 23.6294 110.261 24.1763 111.538C25.2283 114.031 26.2492 116.402 27.5044 118.698C28.3533 120.242 29.296 121.774 30.4835 123.294C32.9419 126.527 37.3794 128.141 40.0513 130.795C40.7544 131.505 41.3429 132.257 41.7335 133.206C41.8846 133.588 42.0669 133.97 42.171 134.409C42.1867 134.767 42.5356 135.05 42.9627 135.079C42.9263 135.247 42.8846 135.416 42.8429 135.588C42.6033 136.553 42.3325 137.531 42.0825 138.521C41.1138 142.407 40.1346 146.477 39.6085 150.519C39.4627 151.653 39.3533 152.803 39.3013 153.937C39.1502 153.625 39.0044 153.313 38.8585 153C38.0408 151.283 37.3065 149.571 36.4002 147.923C34.994 145.373 33.3585 142.961 31.671 140.649C28.1294 135.913 24.0252 131.349 19.645 126.925C14.9835 122.201 10.0773 117.605 5.41063 112.968C4.56688 112.134 3.74917 111.296 2.91583 110.474C2.82729 110.289 2.74917 110.105 2.67104 109.936C2.19708 108.872 1.94188 107.739 1.77521 106.576C1.53042 104.917 1.52521 103.2 1.35854 101.528C1.23875 100.32 1.03041 99.129 0.717918 97.9953C0.0668755 95.7525 -0.818542 93.3989 -2.11542 91.2013C-3.42792 88.9914 -5.12062 86.9335 -7.08937 85.1918C-8.56854 83.8856 -10.1415 82.8792 -11.8133 82.0413C-13.0269 81.4334 -14.2873 80.9487 -15.5685 80.4681C-16.8185 79.9998 -18.0894 79.548 -19.3758 79.0797C-21.006 78.4964 -22.6363 77.8433 -24.3133 77.1368C-24.7873 76.9355 -25.2352 76.7219 -25.6779 76.4837C-26.7925 75.9004 -27.8446 75.2473 -28.98 74.6969C-29.5008 74.4422 -29.98 74.1588 -30.454 73.8754C-31.6363 73.1483 -32.7248 72.372 -33.954 71.649C-34.3133 71.4477 -35.0842 70.9959 -35.6988 70.9261C-35.8081 70.9097 -35.9175 70.8686 -36.006 70.8973C-36.4852 71.1068 -36.4487 70.9261 -36.5529 71.2506C-36.7873 71.3081 -37.0998 71.5628 -37.2769 72.0023C-37.5529 72.7252 -37.7144 74.0314 -37.7404 74.2286L-37.8394 75.276L-37.8706 76.3687C-38.0008 78.9934 -37.5633 81.8154 -36.7352 84.551C-35.9019 87.3155 -34.6519 90.0101 -33.0165 92.3514C-32.2873 93.3865 -31.4696 94.3642 -30.5373 95.2719C-29.6102 96.1674 -28.5633 97.0012 -27.4748 97.7817C-24.2925 100.094 -20.5946 101.996 -17.0008 103.779C-15.2925 104.576 -13.6935 105.496 -12.0321 106.346C-11.2769 106.745 -10.5113 107.114 -9.71437 107.439C-8.105 108.133 -6.37584 108.646 -4.74042 109.312C-4.09459 109.566 -3.46437 109.85 -2.86021 110.174C0.124168 111.908 2.60333 113.921 4.97833 116.003C6.08771 116.981 7.16583 117.991 8.25438 118.998H8.26479C6.72313 118.513 5.04083 118.188 2.92104 117.806C1.43667 117.535 -0.000831604 117.166 -1.46437 116.853C-2.14146 116.726 -2.81854 116.599 -3.51125 116.517C-5.78208 116.258 -8.14146 116.13 -10.5217 116.102C-13.9904 116.048 -17.5008 116.188 -20.8446 116.217C-22.5998 116.258 -24.2925 116.402 -25.9696 116.615C-28.4331 116.94 -30.8498 117.408 -33.3446 117.847L-38.6102 118.841C-38.9748 118.911 -39.6988 118.911 -40.0269 118.981C-40.2196 119.01 -40.329 119.108 -40.4435 119.182C-40.7248 119.351 -40.7092 119.605 -40.5633 120.004C-40.4227 120.402 -40.0217 120.813 -39.5321 121.207C-39.1675 121.491 -38.73 121.717 -38.4644 121.902C-37.3081 122.682 -36.1519 123.393 -34.9696 124.075C-33.7821 124.769 -32.5685 125.422 -31.2873 126.059C-29.381 127.007 -27.2769 127.932 -25.0165 128.753C-21.8446 129.899 -18.3915 130.881 -14.8654 131.489C-8.73 132.553 -2.40187 132.54 3.03563 130.934C4.20229 130.639 5.3325 130.199 6.43667 129.702C8.00438 129.008 9.52 128.199 10.9783 127.447C11.7127 127.081 12.5252 126.638 13.3846 126.313C13.9471 126.087 14.546 125.972 15.145 125.902C15.1658 125.902 15.1867 125.886 15.2023 125.886C16.4158 127.094 17.6242 128.314 18.8169 129.517C22.6815 133.46 26.4523 137.416 29.6919 141.573C31.4523 143.799 33.0617 146.153 34.6502 148.576C35.6867 150.15 36.7804 151.711 37.6919 153.37C38.2648 154.418 38.7908 155.498 39.2752 156.59C39.3273 158.008 39.4783 159.425 39.7648 160.813C40.4835 163.693 41.4992 166.502 42.4992 169.324C42.9627 170.626 43.4315 171.945 43.8898 173.251C44.0929 174.684 44.296 176.114 44.4679 177.535C44.7127 179.56 45.0252 181.573 45.0669 183.602C45.0981 184.822 44.9835 186.026 44.9315 187.233C44.8533 189.061 44.6919 190.877 44.546 192.68C44.5096 193.173 44.5304 193.658 44.4835 194.138C44.2856 196.098 43.8742 198.012 43.3377 199.897C42.8325 201.684 42.1137 203.413 41.3846 205.114C41.3637 205.142 41.3429 205.171 41.3169 205.2C40.9835 205.627 40.3429 205.952 40.2596 206.461C40.2075 206.831 40.3533 206.744 40.5148 206.999C32.3221 216.147 24.9783 225.676 18.7179 235.605C13.6398 243.66 9.24917 251.965 5.75438 260.562C0.603333 273.222 -2.62583 286.482 -3.6675 300.279C-3.83417 302.764 -3.94875 305.171 -3.98521 307.554C-4.01646 307.71 -4.0425 307.882 -4.06854 308.038C-4.13625 308.449 -4.18312 308.86 -4.18833 309.271C-4.19354 309.907 -4.11021 310.519 -4.02687 311.144C-4.02687 311.226 -4.01125 311.312 -3.98521 311.382C-3.92271 314.504 -3.71958 317.552 -3.32896 320.599C-2.49041 327.151 -0.797707 333.604 1.4575 340.525C1.48875 340.624 1.61896 340.682 1.74917 340.665C1.87938 340.64 1.96271 340.538 1.93146 340.439C0.36375 333.464 -0.45396 326.966 -0.901875 320.46C-1.20917 315.978 -1.33417 311.497 -1.1675 306.831C-0.427917 303.754 0.8325 300.776 2.54083 297.913C2.93146 297.248 3.36896 296.594 3.75958 295.913C4.03563 295.432 4.21792 294.935 4.52521 294.467C4.65542 294.27 4.81688 294.085 4.96792 293.9C6.61896 291.784 8.41583 289.743 10.3585 287.788C13.3585 284.765 16.6346 281.971 19.6554 279.293C21.6033 277.605 23.6554 275.991 25.7648 274.413C28.0825 273.366 30.1815 272.47 32.4835 272.019C34.2908 271.665 36.1398 271.435 38.0408 271.324C40.7752 271.152 43.619 271.168 46.6502 271.012C53.5565 270.643 61.02 270.219 67.8846 268.56C72.5981 267.422 76.994 265.693 80.8013 263.241L90.8221 256.603L93.8325 254.66C93.9054 254.619 95.3117 253.826 95.869 253.514C95.9836 253.444 96.0669 253.386 96.1033 253.37C96.1711 253.329 96.2075 253.288 96.2283 253.271C96.8429 252.746 96.2961 252.277 96.1658 252.166C96.0044 252.039 95.4523 251.854 94.6711 251.826C93.5565 251.784 91.6658 251.895 91.4158 251.895C89.7544 251.883 88.1138 251.941 86.4783 252.051C84.0929 252.224 81.7283 252.491 79.3169 252.635C76.296 252.848 73.244 253.271 70.2127 253.838C65.744 254.676 61.3221 255.826 57.1346 257.001C53.4054 258.077 49.5929 259.269 45.8846 260.661C50.9054 257.469 55.9679 254.364 60.8898 251.23C66.8221 247.43 72.8429 243.643 78.9158 239.901C83.0981 237.317 87.3065 234.75 91.5773 232.269C92.1502 232.002 92.7231 231.76 93.2908 231.534C93.3117 231.563 93.3377 231.604 93.3742 231.633C93.5513 231.789 93.8586 231.817 94.0669 231.674C95.1606 230.996 96.2961 230.355 97.4367 229.731C99.7492 228.852 102.155 228.116 104.65 227.192C106.905 226.412 109.447 225.508 112.03 224.925C113.728 224.526 115.442 224.3 117.088 224.329C123.197 224.399 129.921 225.804 136.551 226.371C139.499 226.625 142.431 226.683 145.265 226.469C148.265 226.231 151.176 225.676 153.869 224.555C154.989 224.103 156.056 223.52 157.088 222.855C158.046 222.247 158.879 221.565 159.645 220.842C160.723 219.835 161.687 218.743 162.76 217.679C163.728 216.742 164.681 215.851 165.655 214.984C166.671 214.093 167.708 213.226 168.687 212.29C169.515 211.509 170.317 210.688 171.077 209.796C171.734 209.016 173.905 207.697 174.754 206.56C175.223 205.923 175.343 205.315 175.161 204.789C175.093 204.588 174.697 204.079 173.702 203.968C172.614 203.853 169.786 203.91 169.603 203.91C167.098 203.894 164.556 204.05 162.03 204.333C159.536 204.617 157.062 205.027 154.65 205.455C151.306 206.063 147.994 206.818 144.718 207.652C141.463 208.49 138.254 209.439 135.067 210.376C131.791 211.37 128.52 212.36 125.338 213.497C122.109 214.643 118.984 215.921 115.978 217.35C113.572 218.517 111.202 219.72 109.046 221.183C108.786 221.351 108.525 221.536 108.27 221.721C104.176 223.606 100.14 225.578 96.1606 227.619C90.3533 230.61 84.645 233.731 79.0565 236.977C80.4627 235.559 81.7804 234.114 83.0565 232.627C84.9158 230.454 86.6502 228.203 88.3742 225.948C89.6815 224.243 90.9731 222.514 92.2752 220.797C92.619 220.357 92.9731 219.934 93.3325 219.507C93.4106 219.494 93.4731 219.437 93.4992 219.379C93.8638 218.94 94.2648 218.599 94.5825 218.147C94.6867 218.003 94.7908 217.847 94.8898 217.708C95.4002 217.141 95.9211 216.574 96.4575 216.019C97.9523 214.475 99.5304 213.029 101.218 211.838C102.197 211.127 103.249 210.491 104.338 209.866C106.952 208.375 109.765 207.057 112.343 205.598C115.499 203.783 118.437 201.897 121.208 199.852C123.973 197.827 126.572 195.642 129.14 193.345C130.734 191.883 132.551 190.24 134.098 188.494C135.181 187.274 136.129 186.013 136.817 184.736C137.588 183.306 138.03 181.885 138.239 180.456C138.541 178.414 138.411 176.369 138.437 174.187C138.499 172.984 138.765 171.764 138.911 170.556C138.978 169.989 139.025 169.435 139.02 168.868C139.02 168.515 138.827 168.301 138.666 168.174C138.666 168.174 138.661 168.174 138.655 168.174C138.687 168.088 138.718 167.989 138.754 167.907C138.843 167.775 138.786 167.619 138.624 167.55C138.463 167.48 138.26 167.521 138.171 167.648C138.077 167.734 137.989 167.804 137.895 167.891C137.864 167.891 137.833 167.878 137.801 167.878C137.614 167.878 137.338 167.907 137.046 168.063C136.911 168.133 136.671 168.346 136.53 168.429L134.624 169.665L129.822 173.35C127.754 174.951 125.822 176.668 123.984 178.455C122.161 180.23 120.426 182.058 118.754 183.902C117.15 185.672 115.52 187.447 113.947 189.234C112.374 191.02 110.838 192.848 109.322 194.664C106.28 198.324 103.353 202.037 100.572 205.837C98.6606 208.474 96.7283 210.942 95.1971 213.567C95.0356 213.834 94.8742 214.118 94.7127 214.389C91.2075 218.39 87.9263 222.456 84.6033 226.486C84.0304 227.18 83.4575 227.874 82.8846 228.568C83.2908 227.607 83.6658 226.642 84.0148 225.676C85.296 222.144 86.2752 218.558 87.4106 214.943C88.1138 212.487 88.8221 210.306 89.119 208.051C89.3169 206.531 89.3325 204.974 89.0929 203.286C88.9679 202.279 88.9315 201.244 88.7908 200.222C88.7336 199.77 88.6606 199.314 88.5408 198.874C88.3533 198.18 88.0669 197.498 87.7388 196.804C87.0096 195.288 86.0356 193.785 85.2544 192.323L84.1554 189.702C84.145 189.673 83.8117 189.188 83.796 188.979C83.77 188.765 83.6346 188.778 83.6346 188.708C83.6294 188.564 83.4315 188.679 83.4002 188.593C83.3638 188.494 83.2492 188.609 83.2023 188.539C83.1658 188.482 83.1033 188.564 83.0617 188.523C82.8846 188.338 82.7908 188.679 82.5513 188.609C82.3117 188.552 82.2596 188.65 81.9835 188.737C81.7544 188.806 81.6294 189.049 81.4783 189.275C81.0356 189.957 80.8169 191.16 80.6606 191.616C80.3377 192.577 79.9731 193.53 79.5617 194.479C78.9419 195.925 78.2492 197.342 77.6346 198.792C76.7492 200.604 76.0877 202.419 75.4992 204.206C74.8898 206.063 74.395 207.895 74.0252 209.768C73.4419 212.742 73.0669 215.748 73.1763 218.87C73.1971 219.622 73.2804 220.386 73.3585 221.154C73.6085 223.549 74.0096 226.001 74.421 228.429C74.5981 229.447 74.7856 230.47 74.9367 231.476C75.1815 233.165 75.2231 234.836 75.244 236.525C74.6398 237.461 74.0617 238.41 73.5929 239.404C73.145 239.93 72.7231 240.48 72.2752 241.006C67.7648 243.729 63.3221 246.523 58.9002 249.287C50.4627 254.631 41.5252 259.852 33.2648 265.594C31.0513 267.139 28.869 268.716 26.796 270.359C23.6658 272.84 20.7648 275.494 18.0408 278.229C15.1867 281.039 12.1867 284.042 9.27 287.135C7.27521 289.246 5.4575 291.489 3.55646 293.658C3.13979 294.126 2.65021 294.553 2.24396 295.017C1.83771 295.502 1.47833 295.999 1.12417 296.496C0.48875 297.387 -0.110207 298.295 -0.662292 299.203C0.556458 286.058 3.87417 273.436 8.80125 261.326C12.244 252.848 16.4575 244.621 21.395 236.64C25.9731 229.238 31.1554 222.045 36.8325 215.071C37.0669 215.112 37.3169 215.025 37.4523 214.857C38.5981 213.567 39.6763 212.261 40.6138 210.885C40.9158 210.433 41.2075 209.977 41.4888 209.525C49.8585 199.852 59.171 190.593 69.1606 181.745C74.9783 176.627 80.9627 171.633 86.9627 166.687C93.0148 161.692 99.0669 156.73 104.749 151.497C109.301 147.299 113.676 142.974 117.619 138.34C119.734 135.855 121.718 133.276 123.572 130.61C124.822 129.702 126.145 128.811 127.572 127.932C129.765 126.584 132.129 125.504 134.463 124.399C136.874 123.249 139.27 122.132 141.619 120.94C143.26 120.102 144.786 119.166 146.369 118.258C146.765 118.045 147.171 117.835 147.572 117.605C150.166 116.176 152.624 114.586 154.994 112.898C158.536 110.376 161.869 107.665 165.109 104.986C168.53 102.193 171.666 98.9893 174.702 95.6416C175.952 94.2656 177.176 92.8772 178.411 91.4724C179.374 90.3962 180.348 89.3036 181.333 88.2397C181.431 88.1699 181.53 88.0959 181.629 88.0384C182.999 87.1347 184.426 86.5227 186.02 86.2105C187.661 85.8983 189.421 85.8121 191.223 85.886C193.885 85.9969 196.635 86.4077 199.333 86.609C200.52 86.6911 201.702 86.7076 202.885 86.6911C204.624 86.65 206.359 86.5227 208.103 86.3954C213.244 86.0134 218.458 85.4301 223.379 84.1814C226.718 83.3311 229.905 82.1563 232.885 80.6365C234.353 79.8437 235.786 78.9359 237.176 77.9706C239.192 76.5699 241.124 75.0501 243.015 73.6741C244.806 72.372 246.671 71.0657 248.39 69.6774C248.916 69.2502 249.416 68.7983 249.931 68.3711C251.166 67.3237 252.348 66.2598 253.306 65.0399C253.806 64.3991 253.478 63.9349 253.155 63.6063C252.958 63.3927 252.588 63.2366 252.067 63.138C251.447 63.0271 250.03 63.1956 249.338 63.1668C248.655 63.1668 247.973 63.1668 247.286 63.1832C245.718 63.2366 244.155 63.364 242.593 63.479C239.864 63.6761 237.161 63.9185 234.463 64.2019C231.765 64.5018 229.077 64.8263 226.374 65.2083C218.275 66.457 209.697 68.6258 201.801 71.8174C198.916 72.9676 196.109 74.2574 193.458 75.6868C192.994 75.8717 192.536 76.0729 192.083 76.2824C189.39 77.5763 187.051 79.2604 184.801 81.0514C183.588 82.0125 182.416 83.0189 181.286 84.0828C185.265 77.9583 188.624 71.6038 190.989 64.9536C192.01 62.0618 192.963 59.2112 193.687 56.3482C194.421 53.44 194.921 50.5194 195.176 47.4962L195.515 42.563L195.431 40.6201C195.411 40.4517 195.473 40.0697 195.437 39.9095C195.369 39.6014 195.208 39.4001 195.041 39.2728C194.661 38.9894 194.098 38.7183 193.338 39.1865C192.749 39.5439 192.218 40.082 191.786 40.7063C191.015 41.84 190.478 43.2859 190.015 44.2101C189.218 45.6108 188.405 47.0033 187.593 48.3917C186.374 50.4619 185.14 52.5322 183.796 54.5737C182.385 56.7877 180.89 58.9688 179.338 61.1253C175.676 66.19 171.775 71.152 168.494 76.3564C166.468 79.5726 164.661 82.8792 163.254 86.3379C162.536 88.0548 162.14 89.8006 161.859 91.571C161.478 93.9534 161.254 96.3522 160.937 98.7305C160.77 99.9505 160.567 101.158 160.28 102.378C160.208 102.674 160.166 102.974 160.088 103.286C159.702 104.843 158.973 106.276 158.03 107.665C157.645 108.231 157.249 108.802 156.796 109.353C156.458 109.764 156.103 110.162 155.739 110.56C155.14 111.041 154.536 111.522 153.921 112.006C151.681 113.736 149.338 115.366 146.859 116.841C146.312 117.137 145.775 117.449 145.213 117.72C142.931 118.841 140.484 119.692 138.093 120.641C136.083 121.437 134.077 122.259 132.145 123.179C130.093 124.157 128.145 125.278 126.275 126.51C132.286 116.829 135.385 107.693 137.161 98.632C138.083 93.9246 138.718 89.2461 139.088 84.51C139.26 82.3247 139.301 80.1271 139.426 77.9172C139.489 76.7959 139.551 75.6745 139.624 74.5408C139.791 74.397 139.89 74.2122 139.89 74.015C139.926 73.7891 139.947 73.5467 139.952 73.3208C140.338 72.3432 140.853 71.3779 141.468 70.4414C142.072 69.5336 142.78 68.6423 143.525 67.7468C146.484 64.2019 150.312 60.8008 153.734 57.7489C154.937 56.6727 156.103 55.6499 157.114 54.6312C163.801 48.0631 170.02 41.5402 174.171 34.3395C176.749 29.8705 178.51 25.1344 179.265 20.1025C179.744 16.9397 179.775 13.6618 179.364 10.2319C179.135 8.69979 178.827 7.02799 178.374 5.39727C178.15 4.58807 177.859 3.7953 177.603 3.01485C177.327 2.17689 177.083 1.35537 176.734 0.603678C176.452 -0.00835719 175.885 -0.0206798 175.447 0.0368263C175.254 0.0655799 175.01 0.164162 174.77 0.361328C174.603 0.517418 174.369 0.915857 174.197 1.07195L171.801 3.52419L167.562 7.97685C165.551 10.1169 163.655 12.3309 161.843 14.5983C160.041 16.8534 158.322 19.1496 156.65 21.4334C155.114 23.5612 153.593 25.6601 152.176 27.8002C150.025 31.0493 148.067 34.3395 146.275 37.6872C145.374 39.3714 144.504 41.0596 143.723 42.7889C141.916 46.761 140.473 50.8604 139.369 55.0994C138.89 56.9561 138.525 58.784 138.296 60.6283ZM29.6815 271.55C30.5096 271.337 31.3429 271.168 32.1606 271.012C34.0356 270.643 35.9523 270.445 37.921 270.273C40.6398 270.047 43.4731 269.879 46.4783 269.595C53.1867 268.971 60.3638 268.12 67.02 266.416C71.3898 265.299 75.5617 263.849 79.1554 261.622C80.5304 260.772 81.8846 259.909 83.2596 259.071C85.3325 257.794 87.4315 256.549 89.5617 255.329L92.4679 253.653C91.9731 253.699 91.5825 253.756 91.4783 253.756C91.4263 253.756 91.3794 253.768 91.3273 253.768C90.9471 253.966 90.5565 254.15 90.1606 254.335C87.1971 255.711 83.9992 256.886 80.7856 257.995C76.7231 259.4 72.5513 260.575 68.4106 261.396C61.9002 262.674 54.994 263.594 48.3221 264.941C43.8794 265.837 39.5304 266.929 35.4835 268.457C34.2648 268.926 33.0981 269.492 31.9627 270.104C31.4471 270.388 30.9419 270.688 30.4471 270.996C30.1919 271.181 29.9367 271.365 29.6815 271.55ZM88.7752 253.966C87.6346 254.081 86.5096 254.237 85.3742 254.364C83.4575 254.59 81.5304 254.791 79.5773 254.943C76.7023 255.157 73.796 255.584 70.9054 256.122C66.5356 256.944 62.2075 258.036 58.1138 259.186C53.244 260.505 48.2908 262.078 43.5044 263.906C40.8481 264.929 38.2752 266.05 35.7856 267.254C35.6554 267.34 35.5252 267.422 35.395 267.525C35.3533 267.554 35.3117 267.578 35.27 267.607C39.2856 266.05 43.5877 264.9 48.0044 263.992C54.671 262.604 61.5929 261.708 68.1138 260.447C71.3846 259.811 74.6815 258.944 77.9263 257.921C81.6398 256.775 85.2492 255.342 88.7752 253.966ZM78.4367 231.008C79.421 229.008 80.244 226.995 81.0096 224.982C82.3325 221.478 83.4679 217.962 84.7075 214.389C85.1138 213.239 85.494 212.134 85.869 211.07C86.2544 209.965 86.6346 208.901 86.9054 207.796C87.2544 206.391 87.4783 204.958 87.4627 203.356C87.4419 202.493 87.5044 201.614 87.4888 200.719C87.4783 200.164 87.4367 199.597 87.3273 199.047C87.1554 198.18 86.8377 197.301 86.4315 196.451C85.8169 195.145 85.0096 193.871 84.3742 192.622L83.0669 190.581C82.8533 191.103 82.7492 191.883 82.6294 192.125L82.494 192.351C81.9054 194.196 81.4575 196.024 81.2648 197.909C80.8846 201.667 81.1658 205.512 81.1242 209.299C81.0981 210.971 80.9679 212.643 80.7804 214.302C80.5044 216.783 80.1085 219.252 79.7856 221.733C79.4106 224.444 79.244 227.168 78.6919 229.846C78.6138 230.244 78.5304 230.626 78.4367 231.008ZM80.2023 196.196L78.494 199.059C77.5773 200.834 76.7908 202.575 76.2544 204.35C75.7023 206.178 75.3794 208.022 75.2231 209.866C74.9679 212.799 75.27 215.72 75.6554 218.743C75.744 219.478 75.8169 220.217 75.9263 220.953C76.2648 223.335 76.8898 225.734 77.2596 228.145C77.3794 228.926 77.4679 229.69 77.52 230.47C77.6502 229.846 77.7596 229.221 77.8429 228.585C78.171 226.284 78.3065 223.959 78.5773 221.635C78.8846 219.166 79.2752 216.701 79.5408 214.22C79.7179 212.573 79.8429 210.942 79.8585 209.283C79.9054 205.483 79.619 201.614 80.0044 197.827C80.0617 197.289 80.1242 196.747 80.2023 196.196ZM170.088 207.964C165.978 209.879 161.671 211.608 157.364 213.296C153.447 214.816 149.437 216.147 145.296 217.124C143.322 217.58 141.301 217.95 139.26 218.275C134.583 218.997 129.786 219.466 125.176 220.275C119.546 221.281 113.989 222.657 108.749 224.543C106.546 225.336 104.421 226.231 102.348 227.221C102.978 226.995 103.614 226.769 104.26 226.527C106.52 225.676 109.072 224.699 111.661 223.988C113.468 223.508 115.286 223.154 117.062 223.097C123.213 222.855 130.093 223.82 136.796 224.173C139.572 224.317 142.306 224.387 144.958 224.161C147.593 223.931 150.119 223.409 152.525 222.473C153.51 222.103 154.489 221.68 155.426 221.154C156.296 220.657 157.056 220.119 157.77 219.523C158.916 218.57 159.947 217.552 161.093 216.558C162.161 215.621 163.249 214.758 164.275 213.863C164.963 213.267 165.614 212.659 166.26 212.035C167.296 211.041 168.28 209.994 169.181 208.843C169.374 208.589 169.702 208.293 170.088 207.964ZM171.619 205.935C170.666 205.964 169.744 206.009 169.645 206.009C167.744 206.063 165.827 206.235 163.911 206.449C161.015 206.79 158.119 207.241 155.327 207.767C152.723 208.236 150.14 208.815 147.572 209.439C143.697 210.376 139.859 211.427 136.062 212.503C132.791 213.411 129.546 214.36 126.338 215.366C124.958 215.794 123.583 216.233 122.223 216.701C116.494 219.141 110.916 221.807 105.452 224.629C106.359 224.272 107.275 223.931 108.202 223.606C113.53 221.692 119.161 220.275 124.879 219.252C129.489 218.402 134.28 217.864 138.958 217.096C140.947 216.771 142.921 216.401 144.843 215.933C147.885 215.21 150.848 214.29 153.77 213.239C159.869 211.07 165.744 208.375 171.619 205.935ZM136.26 171.973C133.213 176.599 130.213 181.265 126.869 185.759C123.968 189.657 120.786 193.415 117.056 196.862C113.64 199.996 109.4 202.846 105.609 205.911C104.572 206.732 103.609 207.611 102.676 208.49C102.744 208.449 102.817 208.404 102.885 208.363C105.405 206.773 108.135 205.356 110.624 203.795C113.593 201.951 116.322 200.024 118.947 197.995C121.577 195.97 124.098 193.842 126.551 191.587C128.109 190.183 129.864 188.622 131.395 186.979C132.379 185.915 133.275 184.839 133.926 183.729C134.635 182.526 135.036 181.335 135.296 180.127C135.718 178.172 135.791 176.2 135.999 174.101C136.041 173.391 136.145 172.684 136.26 171.973ZM134.629 172.273C133.603 173.083 132.629 173.916 131.629 174.742C129.692 176.344 127.895 178.057 126.187 179.815C124.463 181.589 122.843 183.434 121.27 185.278C119.791 187.007 118.327 188.749 116.827 190.482C114.577 193.062 112.286 195.613 110.051 198.197C108.379 200.123 106.723 202.054 105.109 204.009C108.624 201.273 112.494 198.718 115.629 195.884C119.364 192.553 122.546 188.893 125.484 185.106C128.723 180.924 131.629 176.553 134.629 172.273ZM82.3585 189.87C82.3638 189.887 82.3638 189.887 82.369 189.887H82.3794L82.369 189.87L82.3585 189.858V189.87ZM82.3273 189.801C82.3169 189.772 82.3221 189.755 82.3325 189.727C82.3585 189.686 82.2596 189.784 82.2908 189.784C82.3065 189.784 82.3169 189.784 82.3273 189.801ZM24.3481 86.7076C24.9627 87.7139 25.5356 88.749 26.119 89.7842C28.5565 94.1095 30.7127 98.5498 32.9888 102.945C34.8638 106.601 36.7283 110.261 38.3638 114.003C39.4575 116.5 40.4419 119.026 41.3169 121.577C42.3117 124.457 43.2231 127.377 43.8533 130.326C43.9731 129.575 44.0877 128.811 44.2023 128.059C44.2127 127.985 44.2231 127.932 44.2335 127.874C44.1138 127.562 44.0044 127.25 43.9002 126.938C42.7231 123.491 42.1815 119.946 41.0981 116.459C40.1658 113.28 38.9627 110.047 37.5565 106.872C36.1554 103.709 34.546 100.604 32.6606 97.6954C31.4315 95.6827 30.1398 93.6535 28.6919 91.6983C27.7335 90.4085 26.7127 89.1475 25.5877 87.9563L24.3481 86.7076ZM-36.0738 120.912C-35.2092 121.421 -34.3394 121.902 -33.4488 122.37C-32.2821 122.994 -31.0842 123.578 -29.8185 124.157C-26.5894 125.648 -22.7404 127.007 -18.6987 128.088C-16.1467 128.753 -13.5165 129.332 -10.8758 129.69C-6.33417 130.285 -1.78208 130.326 2.31688 129.291C3.33771 129.008 4.32208 128.609 5.27521 128.141C6.76479 127.435 8.18667 126.584 9.56167 125.804C10.5356 125.266 11.6346 124.613 12.8169 124.185C10.5096 123.676 8.2075 123.561 5.90021 123.606C3.81167 123.647 1.71792 123.832 -0.391457 124.058C-5.38104 124.596 -10.4383 125.364 -15.5269 125.023C-17.8706 124.908 -20.2769 124.567 -22.6779 124.116C-25.1102 123.66 -27.5581 123.122 -29.9175 122.542C-30.9487 122.288 -31.9488 122.017 -32.9488 121.762C-33.9696 121.491 -35.0165 121.179 -36.0738 120.912ZM22.5981 86.227C22.6398 86.3954 22.671 86.5515 22.6971 86.6911C22.8065 87.3894 22.9054 88.0959 22.9783 88.7901C23.1554 90.4208 23.2544 92.0516 23.4002 93.6987C23.6606 96.6767 23.494 99.6835 23.6346 102.674C23.6658 103.413 23.7231 104.136 23.8013 104.871C23.9002 105.722 24.1137 106.531 24.395 107.34C24.8273 108.601 25.4002 109.821 25.921 111.082C26.9367 113.551 27.8794 115.876 29.1398 118.143C29.9679 119.622 30.9419 121.051 32.119 122.473C33.6294 124.214 35.8169 125.348 37.8794 126.51C39.0408 127.18 40.1919 127.829 41.1658 128.581C40.5408 126.399 39.8481 124.231 39.0513 122.074C38.1242 119.577 37.0981 117.096 36.0408 114.627C34.4471 110.914 32.7752 107.213 31.0252 103.541C28.3481 97.8392 25.8117 92.0967 22.7544 86.5104C22.7075 86.4241 22.6502 86.3255 22.5981 86.227ZM12.046 122.752C11.9835 122.768 11.9002 122.752 11.7856 122.74C11.5721 122.727 11.4367 122.542 11.27 122.444C8.41063 120.825 6.15021 120.484 2.35854 119.946C0.837708 119.733 -0.646667 119.408 -2.15187 119.154C-2.75083 119.051 -3.34979 118.969 -3.96437 118.911C-5.57896 118.714 -7.24562 118.599 -8.93312 118.513C-12.9123 118.316 -17.006 118.316 -20.8706 118.229C-22.506 118.172 -24.0998 118.229 -25.6831 118.344C-28.131 118.529 -30.5425 118.87 -33.0269 119.166L-36.329 119.622C-35.0217 119.848 -33.7196 120.172 -32.454 120.427C-31.2717 120.682 -30.0633 120.94 -28.8446 121.224C-26.1154 121.889 -23.3446 122.641 -20.5633 123.15C-18.8342 123.479 -17.1154 123.717 -15.4227 123.832C-10.4383 124.046 -5.53729 123.109 -0.662292 122.542C1.53042 122.3 3.71792 122.115 5.88979 122.132C7.99917 122.16 10.0825 122.37 12.1554 122.867L12.046 122.752ZM42.6398 40.961C43.645 42.6616 44.4315 44.4196 45.0721 46.2064C46.52 50.236 47.1502 54.4463 47.5565 58.7141C47.9783 63.212 48.0148 67.6646 47.8638 72.1009C47.6346 78.7388 47.0096 85.3438 46.7596 92.0392C46.645 94.4915 46.5877 96.9191 46.6033 99.3549C46.6138 101.783 46.7023 104.218 46.9054 106.646C47.1398 109.764 47.7492 112.857 48.0617 115.946C49.0721 114.019 50.5252 112.204 52.0044 110.404C53.4575 108.618 54.9679 106.872 55.4627 104.715C55.7127 103.824 55.8065 102.916 55.8429 101.996C55.8794 101.088 55.9054 100.181 55.869 99.2728C55.8065 97.8392 55.6606 96.4056 55.8273 95.0008C56.3429 90.2524 56.9888 85.6724 56.921 81.1048C56.8898 79.2604 56.6346 77.4325 56.4158 75.5882C56.0929 72.8936 55.6606 70.2031 54.9315 67.4346C54.5669 66.0052 54.0356 64.6127 53.494 63.2243C53.1294 62.2878 52.77 61.3512 52.369 60.4311C51.3533 58.061 50.2127 55.7238 49.1033 53.3989C48.2752 51.6367 47.244 49.4556 46.1242 47.2005C45.4575 45.8532 44.7804 44.4771 44.02 43.1586C43.5825 42.4069 43.1138 41.6716 42.6398 40.961ZM41.0929 41.302L41.2283 44.8756C41.7648 48.8025 42.0252 52.7458 42.4575 56.6727C42.6398 58.3445 42.8533 60.0039 43.1242 61.6798C43.671 65.1385 43.6606 68.5683 43.3325 71.9858C42.9523 75.9292 42.2335 79.8437 41.6085 83.7583C41.0929 87.0197 40.6138 90.2647 40.619 93.5549C40.6398 93.5549 40.6606 93.5549 40.6815 93.5549C40.9523 93.6001 41.1242 93.8137 41.0669 94.0232C40.8325 95.1035 40.7856 96.151 40.869 97.1861C40.9731 97.7981 41.1085 98.406 41.2752 99.0181C41.5929 100.164 42.0408 101.298 42.4783 102.436C43.02 103.836 43.671 105.184 44.1242 106.601C44.244 106.987 44.2856 107.34 44.369 107.71C44.395 107.767 44.395 107.821 44.369 107.866C44.5252 108.248 44.6763 108.63 44.8273 109.012C44.7179 108.277 44.6242 107.525 44.546 106.786C44.296 104.305 44.1606 101.836 44.1138 99.3713C44.0721 96.9191 44.1294 94.4504 44.2335 91.9817C44.6346 84.169 45.5304 76.4837 45.744 68.7285C45.8377 65.4506 45.8169 62.1481 45.5669 58.8292C45.3065 55.3541 44.8846 51.9078 43.9992 48.5601C43.3377 46.0791 42.4002 43.6556 41.0929 41.302ZM-36.4644 74.1588C-36.4956 74.2409 -36.5165 74.2984 -36.5217 74.3149L-36.5581 75.3048L-36.5373 76.3851C-36.4592 78.8949 -35.881 81.573 -34.8394 84.1403C-33.8081 86.6788 -32.3133 89.0735 -30.5321 91.1438C-29.7821 92.0105 -28.9227 92.8033 -28.0321 93.5714C-27.131 94.3518 -26.1883 95.1035 -25.1883 95.7977C-22.1102 97.9542 -18.579 99.7533 -15.1362 101.425C-14.6258 101.68 -14.1258 101.939 -13.6362 102.222C-11.8029 103.269 -10.0998 104.461 -8.19875 105.438C-6.69354 106.206 -5.06854 106.843 -3.52167 107.566C-3.28208 107.681 -3.03729 107.792 -2.80292 107.907C-4.59979 106.05 -6.28208 104.136 -8.42792 102.419C-12.0581 99.5274 -16.131 96.9602 -19.8758 94.1506C-20.829 93.4276 -21.7665 92.7211 -22.6675 91.953C-23.7456 91.0616 -24.7508 90.1251 -25.7144 89.1762C-27.1467 87.7427 -28.4852 86.2516 -29.829 84.7523C-30.9435 83.4872 -31.9904 82.1974 -32.9175 80.8501C-33.8498 79.5028 -34.6623 78.0857 -35.3342 76.6398C-35.6883 75.8593 -36.1467 75.0214 -36.4644 74.1588ZM-35.0685 73.1483C-34.7873 74.1999 -34.1935 75.235 -33.7456 76.1715C-33.0946 77.5763 -32.2977 78.9072 -31.4123 80.2134C-30.5217 81.5155 -29.5373 82.793 -28.4748 84.0294C-27.1935 85.5287 -25.9123 87.0197 -24.5269 88.4533C-23.6154 89.3857 -22.6623 90.3099 -21.631 91.2013C-20.3185 92.3103 -18.9331 93.3742 -17.4956 94.3806C-14.0946 96.763 -10.4435 98.9441 -7.16229 101.425C-5.40708 102.731 -3.87062 104.165 -2.40708 105.611C-1.88625 106.137 -1.37062 106.658 -0.849792 107.184C-0.875832 107.085 -0.896667 106.987 -0.9175 106.884C-1.29771 105.212 -1.51646 103.454 -1.75083 101.754C-1.90187 100.645 -2.0425 99.5562 -2.33417 98.5211C-2.89667 96.4221 -3.77687 94.2368 -4.855 92.1378C-5.92271 90.0388 -7.16229 88.0097 -8.7925 86.268C-10.8394 84.0417 -13.2248 82.526 -15.9227 81.3471C-17.0581 80.8665 -18.2456 80.4393 -19.4748 80.0409C-21.2717 79.474 -23.1519 78.9934 -25.0477 78.3691C-25.6102 78.1842 -26.1415 77.9583 -26.6623 77.716C-27.7977 77.1902 -28.8602 76.5699 -30.0113 76.0729C-30.6154 75.8018 -31.1779 75.5061 -31.7196 75.2062C-32.8654 74.5531 -33.9019 73.8302 -35.0685 73.1483ZM163.942 103.384C165.609 100.788 167.655 98.3485 169.494 95.8265C172.978 91.0329 176.494 86.2516 179.525 81.2896C182.879 75.8183 185.77 70.1744 187.817 64.2594C189.02 60.8542 190.072 57.5106 190.9 54.1218C191.452 51.8791 191.916 49.624 192.202 47.2991L192.666 43.4831C192.385 43.9801 192.14 44.4648 191.911 44.8468C191.749 45.159 191.593 45.4548 191.437 45.7546C191.494 45.7135 191.577 45.7135 191.655 45.7259C191.786 45.7546 191.859 45.8655 191.822 45.9682C190.775 48.901 189.9 51.9242 188.848 54.8858C188.14 56.8862 187.343 58.8579 186.421 60.7721C185.056 63.594 183.583 66.3707 182.03 69.1393C178.426 75.5759 174.452 81.8852 170.885 88.3095C169.567 90.6632 168.254 93.0744 167.02 95.4978C166.197 97.1162 165.405 98.7305 164.681 100.349C164.103 101.61 163.598 102.945 162.999 104.247C163.161 104.107 163.317 103.964 163.478 103.824C163.635 103.68 163.791 103.524 163.942 103.384ZM191.213 46.1654C190.312 47.8824 189.4 49.5665 188.421 51.226C187.603 52.6308 186.723 54.0068 185.822 55.3952C184.353 57.6092 182.78 59.7944 181.202 61.9633C177.551 66.9828 173.786 71.9735 170.583 77.1656C168.655 80.312 166.947 83.5447 165.635 86.9211C164.192 90.7494 164.52 94.7338 164.03 98.6196C164.577 97.4408 165.155 96.266 165.754 95.0871C166.989 92.6636 168.306 90.2401 169.624 87.87C173.208 81.4621 177.155 75.12 180.822 68.7121C182.385 65.9764 183.911 63.2243 185.312 60.4311C186.03 59.0263 186.655 57.5804 187.265 56.1181C188.645 52.8156 189.853 49.4391 191.213 46.1654ZM249.671 65.9025C249.03 66.19 248.416 66.4981 247.765 66.7856C246.52 67.3237 245.244 67.8207 243.963 68.3013C243.03 68.6546 242.077 68.9668 241.098 69.2379C237.036 70.314 232.885 71.3204 228.676 72.1994C226.796 72.5979 224.9 72.9388 223.01 73.3085C218.572 74.1588 214.135 74.9803 209.718 75.617C206.864 76.0442 204.124 76.5699 201.431 77.219C198.739 77.8597 196.093 78.6238 193.385 79.4453C191.77 79.9587 190.202 80.5092 188.734 81.1623C188.353 81.3882 187.978 81.6182 187.609 81.8565C187.353 82.0865 187.103 82.3124 186.853 82.5383C185.89 83.4297 184.968 84.3539 184.062 85.3027C184.583 85.1631 185.119 85.0645 185.661 84.9618C187.447 84.6661 189.343 84.6496 191.296 84.7236C193.968 84.8345 196.749 85.1056 199.463 85.2165C200.583 85.274 201.692 85.2452 202.796 85.1918C204.489 85.0891 206.166 84.9043 207.859 84.7236C211.989 84.2841 216.14 83.672 220.15 82.7355C222.129 82.2672 224.067 81.7004 225.958 81.0637C227.827 80.427 229.661 79.7164 231.405 78.8374C232.817 78.1432 234.197 77.3175 235.541 76.4549C237.603 75.12 239.593 73.6741 241.525 72.372C243.697 70.8809 246.067 69.4761 247.963 67.7632C248.603 67.1799 249.171 66.5556 249.671 65.9025ZM247.973 65.7751L242.947 66.1736C240.265 66.3995 237.614 66.6706 234.968 66.9828C232.327 67.295 229.692 67.6482 227.046 68.059C219.228 69.1516 210.968 71.2218 203.265 74.13C199.76 75.4609 196.385 76.9807 193.197 78.6402C195.911 77.9296 198.572 77.2929 201.254 76.7219C203.994 76.1551 206.749 75.6334 209.629 75.2473C214.869 74.471 220.166 73.5632 225.379 72.3843C228.494 71.6737 231.546 70.8398 234.598 70.0183C236.645 69.4638 238.687 68.9257 240.692 68.3424C242.916 67.718 244.921 66.7404 247.093 66.0462C247.385 65.9477 247.676 65.8614 247.973 65.7751ZM175.02 3.26952C175.067 3.22434 175.14 3.19969 175.218 3.21201C175.348 3.22434 175.447 3.3106 175.437 3.40918C175.202 7.04031 174.265 10.6838 172.786 14.2451C170.598 19.5193 167.312 24.5963 164.317 29.3488C161.911 33.1031 159.504 36.8493 157.015 40.5626C155.353 43.0436 153.655 45.4999 151.911 47.9522C149.181 51.7394 146.088 55.7238 143.671 59.8643C142.067 62.6164 140.754 65.4383 140.103 68.3424C140.098 68.3711 140.088 68.4163 140.072 68.441C140.046 68.7285 140.025 69.0078 139.999 69.2954C140.458 68.5683 140.978 67.8454 141.536 67.1512C144.687 63.2531 149.405 59.8478 153.083 56.533C154.083 55.6252 154.978 54.7174 155.796 53.8507C161.65 47.4141 166.859 40.961 170.671 34.1547C171.64 32.4254 172.551 30.6797 173.327 28.8928C174.609 25.9723 175.567 22.9368 176.145 19.7739C176.697 16.7836 176.931 13.6618 176.708 10.388C176.645 8.61353 176.53 6.64187 176.14 4.74416C176.036 4.24713 175.937 3.76654 175.775 3.28184C175.697 3.06825 175.619 2.85876 175.525 2.65749L175.02 3.26952ZM118.056 27.8454C118.046 27.829 118.036 27.829 118.025 27.8166C117.916 28.2849 117.911 28.7655 117.942 29.2338C118.03 30.5934 118.525 31.9859 118.796 33.288C119.171 35.4034 119.676 37.486 120.28 39.5562C121.192 42.7068 122.286 45.7957 123.202 48.9585C123.593 50.2771 123.947 51.6121 124.379 52.9142C124.661 53.7645 124.984 54.6147 125.369 55.4404C126.01 56.7877 126.713 58.135 127.499 59.4535C128.28 60.7433 129.15 62.0043 130.135 63.2243C131.989 65.4383 135.426 67.0115 137.718 69.0243L137.723 68.9832C137.583 68.8107 137.437 68.6423 137.312 68.4574C137.234 68.3424 137.187 68.2151 137.119 68.0877C136.239 66.4159 135.124 64.8139 134.119 63.1668C133.556 62.259 133.036 61.3389 132.598 60.3859L127.603 48.9298C125.697 44.662 124.067 40.2381 122.176 35.9128C121.046 33.3167 119.822 30.7782 118.348 28.326C118.249 28.1535 118.103 28.0138 118.056 27.8454ZM120.806 30.2812C121.411 31.2876 121.978 32.3227 122.51 33.3742C125.015 38.3239 126.827 43.5406 129.119 48.5067L134.223 59.9218C134.999 61.5525 136.046 63.1093 137.062 64.6702C136.963 64.2471 136.869 63.8076 136.77 63.3516C135.942 59.5357 134.744 55.7936 133.327 52.105C131.905 48.4205 130.265 44.777 128.327 41.2157C127.187 39.1044 125.921 37.0341 124.51 35.0214C123.374 33.3866 122.14 31.801 120.806 30.2812ZM174.973 3.32703L173.874 4.67433L169.911 9.30772C168.395 11.0124 166.958 12.7704 165.572 14.5573C163.478 17.2354 161.51 19.9875 159.614 22.7396C158.15 24.8509 156.749 26.9787 155.359 29.09C153.254 32.2981 151.213 35.4856 149.374 38.747C148.452 40.3777 147.588 42.0249 146.744 43.6844C144.833 47.4428 143.103 51.2835 141.749 55.2843C141.27 57.9912 140.895 60.657 140.593 63.2654C141.124 61.9756 141.754 60.6981 142.452 59.4371C144.775 55.2268 147.848 51.1849 150.525 47.3401C152.676 44.2923 154.744 41.2034 156.775 38.098C158.812 34.9926 160.812 31.8709 162.812 28.7491C165.853 24.0705 169.015 19.0222 171.447 13.8754C173.072 10.4291 174.416 6.92941 174.952 3.38453C174.958 3.3681 174.963 3.33935 174.973 3.32703ZM40.9783 38.6772C41.02 38.6936 41.0565 38.7059 41.0981 38.7347C41.0565 38.6649 41.0148 38.6074 40.9731 38.5498L40.9783 38.6772Z" fill="white"/>
</g>
</svg>
