<svg width="250" height="432" viewBox="0 0 250 432" fill="none" xmlns="http://www.w3.org/2000/svg">
<mask id="mask0_1326_947" style="mask-type:luminance" maskUnits="userSpaceOnUse" x="-45" y="0" width="295" height="432">
<path d="M-45 0H250V432H-45V0Z" fill="white"/>
</mask>
<g mask="url(#mask0_1326_947)">
<path fill-rule="evenodd" clip-rule="evenodd" d="M134.297 76.8748C133.604 72.9946 132.708 69.1613 131.583 65.3852C130.156 60.6196 128.354 55.9633 126.328 51.38C125.12 48.6665 123.776 46.005 122.292 43.4165C120.807 40.8071 119.177 38.3071 117.386 35.9165C117.068 35.505 115.792 33.4738 114.88 32.8227C114.427 32.5154 113.99 32.4477 113.636 32.5154C113.297 32.5727 112.99 32.7863 112.724 33.2029C112.011 34.4425 111.75 35.7706 111.755 37.1404C111.761 38.9529 112.281 40.8227 112.531 42.5519C112.87 44.5988 113.307 46.6144 113.771 48.63C114.844 53.2863 116.12 57.8696 117.208 62.5467C117.589 64.2186 117.927 65.9269 118.354 67.6144C118.641 68.7654 118.969 69.9008 119.37 71.0154C120.005 72.8123 120.708 74.5727 121.495 76.3019C122.297 78.0467 123.188 79.755 124.203 81.3696C126.156 84.5883 130 86.9425 132.214 89.9998C132.469 90.3436 132.688 90.7186 132.912 91.0988C133.031 91.2967 133.146 91.4946 133.261 91.6925C133.016 94.0102 132.776 96.2967 132.542 98.5779C132.245 101.364 131.88 104.114 131.599 106.87C130.667 115.963 129.75 124.958 127.662 134.125C125.636 143.047 122.646 152.14 117.745 161.693C116.261 164.583 114.667 167.37 113.005 170.104C110.589 173.25 108.401 176.578 106.026 180.208C105.943 180.333 105.969 180.515 106.089 180.604C103.714 183.932 101.24 187.187 98.6668 190.37C93.1981 197.109 87.3908 203.568 81.4376 209.911C75.4793 216.26 69.3699 222.484 63.5106 228.974C44.1772 250.281 27.2658 273.51 14.7189 298.739L42.7606 253.932C43.6772 251.469 44.271 249.005 44.5887 246.521C44.8804 244.276 44.9585 242.01 44.797 239.745C44.6564 237.818 44.3179 235.911 43.9064 234.005C43.8908 233.578 43.8751 233.146 43.8595 232.729C43.7814 230.088 43.7554 227.443 43.4741 224.802C43.2501 222.75 42.9481 220.703 42.5158 218.687C42.0783 216.656 41.4168 214.713 40.8751 212.719C40.0366 209.646 39.1981 206.568 38.2501 203.547C37.7762 199.541 38.0522 195.385 38.6408 191.213C39.3543 186.198 40.6043 181.182 41.5939 176.344C41.8543 175.068 42.0731 173.791 42.2866 172.552C42.8908 168.864 43.3908 165.198 43.4429 161.489C43.4689 159.552 43.297 157.646 43.1564 155.703C43.1929 155.521 43.2293 155.359 43.2658 155.182C43.297 155.198 43.3283 155.198 43.3647 155.198C43.6251 155.198 43.8439 155 43.8491 154.729C44.0001 153.943 44.1616 153.166 44.2241 152.375C44.2397 152.161 44.2501 151.963 44.2554 151.765C44.3074 151.62 44.3543 151.479 44.3908 151.333C44.4012 151.281 44.4116 151.245 44.422 151.208C44.5314 150.885 44.6512 150.578 44.7762 150.271C45.9376 147.359 48.0158 144.948 50.0366 142.453C50.3751 142.036 50.7189 141.64 51.0314 141.193C51.7814 140.13 52.4064 139 52.9637 137.849C53.646 136.411 54.1772 134.916 54.4376 133.281C54.5574 132.38 54.6199 131.484 54.5939 130.583C54.5574 128.896 54.2501 127.187 54.0731 125.479C53.9116 123.859 53.8595 122.239 53.9845 120.64C54.4741 114.687 54.7762 108.953 55.0158 103.234C55.1199 100.719 55.3074 98.2186 55.2866 95.7029C55.2606 92.1404 54.9689 88.5623 54.4533 84.8956C54.0574 82.2863 53.4637 79.7186 52.6564 77.1977C51.4741 73.5154 49.8856 69.9529 48.4376 66.4113C47.5158 64.1821 46.4376 61.3956 45.1251 58.5727C44.3283 56.8644 43.4324 55.1352 42.5001 53.4842C41.6824 52.0258 40.8751 50.6248 39.9533 49.3852C38.8908 47.9633 37.7501 46.7758 36.5991 45.8071C36.2397 45.5154 35.9585 45.5363 35.8126 45.5883C35.6199 45.6613 35.4012 45.8071 35.3231 46.13C35.2866 46.2915 35.4585 47.0311 35.4793 47.3331L35.5835 49.5467L35.7606 57.0258C36.0939 62.7238 36.0939 68.4425 36.3491 74.1456C36.4116 75.5831 36.4897 77.0206 36.5991 78.4581C36.8491 81.8383 36.7033 85.1665 36.4272 88.4894C35.9741 94.0311 35.0314 99.5311 34.3647 105.031C34.0679 107.463 33.8491 109.87 33.7293 112.297C33.5939 115.208 33.6304 118.125 33.896 121.052C34.1876 123.932 34.896 126.719 35.9741 129.38C36.2762 130.114 36.5835 130.854 36.9116 131.573C38.271 136.068 40.2085 140.51 40.7085 145.13C40.8647 146.568 41.0158 148.005 41.0731 149.448C41.146 151.151 41.1408 152.844 41.0626 154.552C40.672 152.052 40.2762 149.552 39.7762 147.052C38.8699 142.916 37.7293 138.693 36.297 134.557C34.8543 130.422 33.1147 126.375 31.1408 122.599C29.7293 120.062 28.2501 117.51 26.6147 115.068C25.5158 113.432 24.3491 111.849 23.0835 110.338L20.0158 106.901L18.4949 105.463C18.3074 105.302 18.0001 104.927 17.8231 104.781C17.6199 104.62 17.4116 104.656 17.2554 104.62C17.0001 104.547 16.9897 104.818 16.6876 104.89C16.5731 104.927 16.6356 105.068 16.5001 105.161C16.422 105.213 16.396 105.25 16.3387 105.323C16.0835 105.719 16.1824 106.312 16.2033 106.87C16.2501 107.984 16.547 109.26 16.6199 110.14L17.3074 118.953C17.6095 122.708 17.4897 126.5 17.672 130.276C17.7189 131.229 17.7866 132.203 17.8856 133.156C18.0054 134.344 18.2501 135.495 18.5679 136.609C19.0262 138.224 19.6303 139.807 20.1772 141.427C21.2293 144.588 22.2501 147.594 23.5054 150.505C24.3543 152.463 25.297 154.406 26.4845 156.333C28.9429 160.432 33.3804 162.479 36.0522 165.844C36.7554 166.745 37.3439 167.698 37.7345 168.901C37.8856 169.385 38.0679 169.87 38.172 170.427C38.1876 170.88 38.5366 171.239 38.9637 171.276C38.9272 171.489 38.8856 171.703 38.8439 171.922C38.6043 173.146 38.3335 174.385 38.0835 175.64C37.1147 180.568 36.1356 185.729 35.6095 190.854C35.4637 192.291 35.3543 193.75 35.3022 195.187C35.1512 194.791 35.0054 194.396 34.8595 194C34.0418 191.823 33.3074 189.651 32.4012 187.562C30.9949 184.328 29.3595 181.271 27.672 178.338C24.1304 172.333 20.0262 166.547 15.646 160.937C10.9845 154.948 6.07827 149.12 1.4116 143.239C0.567852 142.182 -0.249855 141.12 -1.08319 140.078C-1.17173 139.844 -1.24986 139.609 -1.32798 139.396C-1.80194 138.047 -2.05715 136.609 -2.22382 135.135C-2.46861 133.031 -2.47382 130.854 -2.64048 128.734C-2.76027 127.203 -2.96861 125.693 -3.28111 124.255C-3.93215 121.411 -4.81757 118.427 -6.11444 115.64C-7.42694 112.838 -9.11965 110.229 -11.0884 108.021C-12.5676 106.364 -14.1405 105.088 -15.8124 104.026C-17.0259 103.255 -18.2863 102.64 -19.5676 102.031C-20.8176 101.437 -22.0884 100.864 -23.3749 100.271C-25.0051 99.5311 -26.6353 98.7029 -28.3124 97.8071C-28.7863 97.5519 -29.2342 97.2811 -29.6769 96.979C-30.7915 96.2394 -31.8436 95.4113 -32.979 94.7133C-33.4999 94.3904 -33.979 94.0311 -34.453 93.6717C-35.6353 92.7498 -36.7238 91.7654 -37.953 90.8488C-38.3124 90.5936 -39.0832 90.0206 -39.6978 89.9321C-39.8071 89.9113 -39.9165 89.8592 -40.0051 89.8956C-40.4842 90.1613 -40.4478 89.9321 -40.5519 90.3436C-40.7863 90.4165 -41.0988 90.7394 -41.2759 91.2967C-41.5519 92.2133 -41.7134 93.8696 -41.7394 94.1196L-41.8384 95.4477L-41.8696 96.8331C-41.9999 100.161 -41.5624 103.739 -40.7342 107.208C-39.9009 110.713 -38.6509 114.13 -37.0155 117.099C-36.2863 118.411 -35.4686 119.651 -34.5363 120.802C-33.6092 121.937 -32.5624 122.995 -31.4738 123.984C-28.2915 126.916 -24.5936 129.328 -20.9999 131.588C-19.2915 132.599 -17.6926 133.765 -16.0311 134.844C-15.2759 135.349 -14.5103 135.818 -13.7134 136.229C-12.104 137.109 -10.3749 137.76 -8.73944 138.604C-8.09361 138.927 -7.4634 139.286 -6.85923 139.698C-3.87486 141.896 -1.39569 144.448 0.979309 147.088C2.08868 148.328 3.16681 149.609 4.25535 150.885H4.26577C2.7241 150.271 1.04181 149.859 -1.07798 149.375C-2.56236 149.031 -3.99986 148.562 -5.4634 148.166C-6.14048 148.005 -6.81756 147.844 -7.51027 147.739C-9.78111 147.411 -12.1405 147.25 -14.5207 147.213C-17.9894 147.146 -21.4999 147.323 -24.8436 147.359C-26.5988 147.411 -28.2915 147.594 -29.9686 147.864C-32.4321 148.276 -34.8488 148.87 -37.3436 149.427L-42.6092 150.687C-42.9738 150.776 -43.6978 150.776 -44.0259 150.864C-44.2186 150.901 -44.328 151.026 -44.4426 151.12C-44.7238 151.333 -44.7082 151.656 -44.5624 152.161C-44.4217 152.666 -44.0207 153.187 -43.5311 153.687C-43.1665 154.047 -42.729 154.333 -42.4634 154.568C-41.3071 155.557 -40.1509 156.458 -38.9686 157.323C-37.7811 158.203 -36.5676 159.031 -35.2863 159.838C-33.3801 161.041 -31.2759 162.213 -29.0155 163.255C-25.8436 164.708 -22.3905 165.953 -18.8644 166.724C-12.729 168.073 -6.4009 168.057 -0.963398 166.021C0.20327 165.646 1.33348 165.088 2.43764 164.458C4.00535 163.578 5.52098 162.552 6.97931 161.599C7.71368 161.135 8.52618 160.573 9.38556 160.161C9.94806 159.875 10.547 159.729 11.146 159.64C11.1668 159.64 11.1876 159.62 11.2033 159.62C12.4168 161.151 13.6251 162.698 14.8179 164.224C18.6824 169.224 22.4533 174.239 25.6929 179.51C27.4533 182.333 29.0626 185.318 30.6512 188.39C31.6876 190.385 32.7814 192.364 33.6929 194.469C34.2658 195.797 34.7918 197.166 35.2762 198.552C35.3283 200.349 35.4793 202.146 35.7658 203.906C36.4845 207.557 37.5001 211.12 38.5001 214.698C38.9637 216.349 39.4324 218.021 39.8908 219.677C40.0939 221.495 40.297 223.307 40.4689 225.109C40.7137 227.677 41.0262 230.229 41.0679 232.802C41.0991 234.349 40.9845 235.875 40.9324 237.406C40.8543 239.724 40.6929 242.026 40.547 244.312C40.5106 244.937 40.5314 245.552 40.4845 246.161C40.2866 248.646 39.8751 251.073 39.3387 253.463C38.8335 255.729 38.1147 257.922 37.3856 260.078C37.3647 260.114 37.3439 260.151 37.3179 260.187C36.9845 260.729 36.3439 261.14 36.2606 261.786C36.2085 262.255 36.3543 262.146 36.5158 262.469C28.3231 274.068 20.9793 286.151 14.7189 298.739C9.64077 308.953 5.25014 319.484 1.75535 330.385C-3.39569 346.437 -6.62486 363.25 -7.66652 380.745C-7.83319 383.896 -7.94777 386.948 -7.98423 389.969C-8.01548 390.166 -8.04152 390.385 -8.06757 390.583C-8.13527 391.104 -8.18215 391.625 -8.18736 392.146C-8.19257 392.953 -8.10923 393.729 -8.0259 394.521C-8.0259 394.625 -8.01027 394.734 -7.98423 394.823C-7.92173 398.781 -7.71861 402.646 -7.32798 406.51C-6.48944 414.818 -4.79673 423 -2.54152 431.776C-2.51027 431.901 -2.38007 431.974 -2.24986 431.953C-2.11965 431.922 -2.03632 431.791 -2.06757 431.666C-3.63527 422.823 -4.45298 414.583 -4.9009 406.333C-5.20819 400.651 -5.33319 394.969 -5.16652 389.052C-4.42694 385.151 -3.16652 381.375 -1.45819 377.745C-1.06757 376.901 -0.630066 376.073 -0.239441 375.208C0.036602 374.599 0.218895 373.969 0.526184 373.375C0.656395 373.125 0.817852 372.89 0.968895 372.656C2.61993 369.974 4.41681 367.385 6.35952 364.906C9.35952 361.073 12.6356 357.531 15.6564 354.135C17.6043 351.995 19.6564 349.948 21.7658 347.948C24.0835 346.62 26.1824 345.484 28.4845 344.911C30.2918 344.463 32.1408 344.172 34.0418 344.031C36.7762 343.812 39.6199 343.833 42.6512 343.635C49.5574 343.166 57.021 342.63 63.8856 340.526C68.5991 339.083 72.9949 336.89 76.8022 333.781L86.8231 325.364L89.8335 322.901C89.9064 322.849 91.3127 321.844 91.8699 321.448C91.9845 321.359 92.0679 321.286 92.1043 321.265C92.172 321.213 92.2085 321.161 92.2293 321.14C92.8439 320.474 92.297 319.88 92.1668 319.739C92.0054 319.578 91.4533 319.344 90.672 319.307C89.5574 319.255 87.6668 319.396 87.4168 319.396C85.7554 319.38 84.1147 319.453 82.4793 319.594C80.0939 319.812 77.7293 320.151 75.3179 320.333C72.297 320.604 69.2449 321.14 66.2137 321.859C61.7449 322.922 57.3231 324.38 53.1356 325.87C49.4064 327.234 45.5939 328.745 41.8856 330.51C46.9064 326.463 51.9689 322.526 56.8908 318.552C62.8231 313.734 68.8439 308.932 74.9168 304.187C79.0991 300.911 83.3074 297.656 87.5783 294.51C88.1512 294.172 88.7241 293.864 89.2918 293.578C89.3127 293.614 89.3387 293.666 89.3752 293.703C89.5522 293.901 89.8595 293.937 90.0679 293.755C91.1616 292.896 92.297 292.083 93.4377 291.291C95.7502 290.177 98.1564 289.245 100.651 288.073C102.906 287.083 105.448 285.937 108.031 285.198C109.729 284.693 111.443 284.406 113.089 284.443C119.198 284.531 125.922 286.312 132.552 287.031C135.5 287.354 138.432 287.427 141.266 287.156C144.266 286.854 147.177 286.151 149.87 284.729C150.99 284.156 152.057 283.416 153.089 282.573C154.047 281.802 154.88 280.937 155.646 280.021C156.724 278.745 157.688 277.359 158.761 276.01C159.729 274.823 160.682 273.693 161.656 272.594C162.672 271.463 163.708 270.364 164.688 269.177C165.516 268.187 166.318 267.146 167.078 266.015C167.735 265.026 169.906 263.354 170.755 261.911C171.224 261.104 171.344 260.333 171.162 259.666C171.094 259.411 170.698 258.765 169.703 258.625C168.615 258.479 165.787 258.552 165.604 258.552C163.099 258.531 160.557 258.729 158.031 259.088C155.537 259.448 153.063 259.969 150.651 260.51C147.307 261.281 143.995 262.239 140.719 263.297C137.464 264.359 134.255 265.562 131.068 266.75C127.792 268.01 124.521 269.265 121.339 270.708C118.11 272.161 114.985 273.781 111.979 275.594C109.573 277.073 107.203 278.599 105.047 280.453C104.787 280.666 104.526 280.901 104.271 281.135C100.177 283.526 96.1408 286.026 92.1616 288.614C86.3543 292.406 80.646 296.364 75.0574 300.479C76.4637 298.682 77.7814 296.849 79.0574 294.963C80.9168 292.208 82.6512 289.354 84.3752 286.495C85.6824 284.333 86.9741 282.14 88.2762 279.963C88.6199 279.406 88.9741 278.87 89.3335 278.328C89.4116 278.312 89.4741 278.239 89.5002 278.166C89.8647 277.609 90.2658 277.177 90.5835 276.604C90.6877 276.422 90.7918 276.224 90.8908 276.047C91.4012 275.328 91.922 274.609 92.4585 273.906C93.9533 271.948 95.5314 270.114 97.2189 268.604C98.1981 267.703 99.2502 266.896 100.339 266.104C102.953 264.213 105.766 262.541 108.344 260.693C111.5 258.39 114.438 256 117.208 253.406C119.974 250.838 122.573 248.068 125.141 245.156C126.735 243.302 128.552 241.219 130.099 239.005C131.182 237.458 132.13 235.859 132.818 234.239C133.589 232.427 134.031 230.625 134.24 228.812C134.542 226.224 134.412 223.63 134.438 220.864C134.5 219.338 134.766 217.791 134.912 216.26C134.979 215.541 135.026 214.838 135.021 214.12C135.021 213.672 134.828 213.401 134.667 213.239C134.667 213.239 134.662 213.239 134.656 213.239C134.688 213.13 134.719 213.005 134.755 212.901C134.844 212.734 134.787 212.536 134.625 212.448C134.464 212.359 134.261 212.411 134.172 212.573C134.078 212.682 133.99 212.771 133.896 212.88C133.865 212.88 133.833 212.864 133.802 212.864C133.615 212.864 133.339 212.901 133.047 213.099C132.912 213.187 132.672 213.458 132.531 213.562L130.625 215.13L125.823 219.802C123.755 221.833 121.823 224.01 119.985 226.276C118.162 228.526 116.427 230.844 114.755 233.182C113.151 235.427 111.521 237.677 109.948 239.943C108.375 242.208 106.839 244.526 105.323 246.828C102.281 251.469 99.3543 256.177 96.5731 260.995C94.6616 264.338 92.7293 267.469 91.1981 270.797C91.0366 271.135 90.8752 271.495 90.7137 271.838C87.2085 276.911 83.9272 282.068 80.6043 287.177C80.0314 288.057 79.4585 288.937 78.8856 289.818C79.2918 288.599 79.6668 287.375 80.0158 286.151C81.297 281.672 82.2762 277.125 83.4116 272.541C84.1147 269.427 84.8231 266.661 85.1199 263.802C85.3179 261.875 85.3335 259.901 85.0939 257.76C84.9689 256.484 84.9324 255.172 84.7918 253.875C84.7345 253.302 84.6616 252.724 84.5418 252.166C84.3543 251.286 84.0679 250.422 83.7397 249.541C83.0106 247.62 82.0366 245.713 81.2554 243.859L80.1564 240.536C80.146 240.5 79.8126 239.885 79.797 239.62C79.771 239.349 79.6356 239.364 79.6356 239.276C79.6304 239.094 79.4324 239.239 79.4012 239.13C79.3647 239.005 79.2501 239.151 79.2033 239.062C79.1668 238.989 79.1043 239.094 79.0626 239.041C78.8856 238.807 78.7918 239.239 78.5522 239.151C78.3126 239.078 78.2606 239.203 77.9845 239.312C77.7554 239.401 77.6304 239.708 77.4793 239.995C77.0366 240.859 76.8179 242.385 76.6616 242.963C76.3387 244.182 75.9741 245.39 75.5626 246.594C74.9429 248.427 74.2501 250.224 73.6356 252.062C72.7501 254.359 72.0887 256.661 71.5001 258.927C70.8908 261.281 70.396 263.604 70.0262 265.979C69.4429 269.75 69.0679 273.562 69.1772 277.521C69.1981 278.474 69.2814 279.443 69.3595 280.416C69.6095 283.453 70.0106 286.562 70.422 289.64C70.5991 290.932 70.7866 292.229 70.9376 293.505C71.1824 295.646 71.2241 297.765 71.2449 299.906C70.6408 301.094 70.0626 302.297 69.5939 303.557C69.146 304.224 68.7241 304.922 68.2762 305.588C63.7658 309.041 59.3231 312.583 54.9012 316.088C46.4637 322.864 37.5262 329.484 29.2658 336.765C27.0522 338.724 24.8699 340.724 22.797 342.807C19.6668 345.953 16.7658 349.318 14.0418 352.786C11.1876 356.349 8.18764 360.156 5.27098 364.078C3.27618 366.755 1.45848 369.599 -0.442566 372.349C-0.85923 372.943 -1.34882 373.484 -1.75507 374.073C-2.16132 374.687 -2.52069 375.318 -2.87486 375.948C-3.51027 377.078 -4.10923 378.229 -4.66132 379.38C-3.44257 362.713 -0.124855 346.708 4.80223 331.354C8.24493 320.604 12.4585 310.172 17.396 300.052C21.9741 290.666 27.1564 281.547 32.8335 272.703C33.0679 272.755 33.3179 272.646 33.4533 272.432C34.5991 270.797 35.6772 269.14 36.6147 267.396C36.9168 266.823 37.2085 266.245 37.4897 265.672C45.8595 253.406 55.172 241.666 65.1616 230.448C70.9793 223.958 76.9637 217.625 82.9637 211.354C89.0158 205.021 95.0679 198.729 100.75 192.094C105.302 186.771 109.677 181.286 113.62 175.411C115.735 172.26 117.719 168.989 119.573 165.609C120.823 164.458 122.146 163.328 123.573 162.213C125.766 160.505 128.13 159.135 130.464 157.734C132.875 156.276 135.271 154.859 137.62 153.349C139.261 152.286 140.787 151.099 142.37 149.948C142.766 149.677 143.172 149.411 143.573 149.12C146.167 147.307 148.625 145.291 150.995 143.151C154.537 139.953 157.87 136.515 161.11 133.12C164.531 129.578 167.667 125.515 170.703 121.271C171.953 119.526 173.177 117.765 174.412 115.984C175.375 114.62 176.349 113.234 177.333 111.885C177.432 111.797 177.531 111.703 177.63 111.63C179 110.484 180.427 109.708 182.021 109.312C183.662 108.916 185.422 108.807 187.224 108.901C189.886 109.041 192.636 109.562 195.333 109.818C196.521 109.922 197.703 109.943 198.886 109.922C200.625 109.87 202.36 109.708 204.104 109.547C209.245 109.062 214.458 108.323 219.38 106.739C222.719 105.661 225.906 104.172 228.886 102.245C230.354 101.239 231.787 100.088 233.177 98.8644C235.193 97.0883 237.125 95.1613 239.016 93.4165C240.807 91.7654 242.672 90.1092 244.391 88.3488C244.917 87.8071 245.417 87.2342 245.932 86.6925C247.167 85.3644 248.349 84.0154 249.307 82.4686C249.807 81.6561 249.479 81.0675 249.156 80.6508C248.958 80.38 248.589 80.1821 248.068 80.0571C247.448 79.9165 246.031 80.13 245.339 80.0936C244.656 80.0936 243.974 80.0936 243.287 80.1144C241.719 80.1821 240.156 80.3436 238.594 80.4894C235.865 80.7394 233.162 81.0467 230.464 81.4061C227.766 81.7863 225.078 82.1977 222.375 82.6821C214.276 84.2654 205.698 87.0154 197.802 91.0623C194.917 92.5206 192.11 94.1561 189.458 95.9686C188.995 96.2029 188.537 96.4581 188.083 96.7238C185.391 98.3644 183.052 100.5 180.802 102.771C179.589 103.989 178.417 105.265 177.287 106.614C181.266 98.8488 184.625 90.7915 186.99 82.3592C188.011 78.6925 188.964 75.0779 189.688 71.4477C190.422 67.7602 190.922 64.0571 191.177 60.2238L191.516 53.9686L191.432 51.505C191.412 51.2915 191.474 50.8071 191.438 50.604C191.37 50.2133 191.208 49.9581 191.042 49.7967C190.662 49.4373 190.099 49.0936 189.339 49.6873C188.75 50.1404 188.219 50.8227 187.787 51.6144C187.016 53.0519 186.479 54.8852 186.016 56.0571C185.219 57.8331 184.406 59.5988 183.594 61.3592C182.375 63.9842 181.141 66.6092 179.797 69.1977C178.386 72.005 176.891 74.7706 175.339 77.505C171.677 83.9269 167.776 90.2186 164.495 96.8175C162.469 100.896 160.662 105.088 159.255 109.474C158.537 111.651 158.141 113.864 157.86 116.109C157.479 119.13 157.255 122.172 156.938 125.187C156.771 126.734 156.568 128.265 156.281 129.812C156.208 130.187 156.167 130.568 156.089 130.963C155.703 132.937 154.974 134.755 154.031 136.515C153.646 137.234 153.25 137.958 152.797 138.656C152.458 139.177 152.104 139.682 151.74 140.187C151.141 140.797 150.537 141.406 149.922 142.021C147.682 144.213 145.339 146.281 142.86 148.151C142.313 148.526 141.776 148.922 141.214 149.265C138.932 150.687 136.485 151.765 134.094 152.969C132.083 153.979 130.078 155.021 128.146 156.187C126.094 157.427 124.146 158.849 122.276 160.411C128.287 148.135 131.386 136.552 133.162 125.062C134.083 119.094 134.719 113.161 135.089 107.156C135.261 104.385 135.302 101.599 135.427 98.7967C135.49 97.3748 135.552 95.9529 135.625 94.5154C135.792 94.3331 135.891 94.0988 135.891 93.8488C135.927 93.5623 135.948 93.255 135.953 92.9686C136.339 91.729 136.854 90.505 137.469 89.3175C138.073 88.1665 138.781 87.0363 139.526 85.9008C142.485 81.4061 146.313 77.0936 149.735 73.2238C150.938 71.8592 152.104 70.5623 153.115 69.2706C159.802 60.9425 166.021 52.6717 170.172 43.5415C172.75 37.8748 174.511 31.8696 175.266 25.4894C175.745 21.479 175.776 17.3227 175.365 12.9738C175.136 11.0311 174.828 8.91126 174.375 6.84355C174.151 5.81751 173.86 4.8123 173.604 3.82272C173.328 2.76022 173.083 1.71855 172.735 0.765426C172.453 -0.0106157 171.886 -0.0262404 171.448 0.0466756C171.255 0.0831342 171.011 0.208134 170.771 0.458134C170.604 0.656051 170.37 1.16126 170.198 1.35918L167.802 4.46855L163.563 10.1144C161.552 12.8279 159.656 15.6352 157.844 18.5102C156.042 21.3696 154.323 24.2811 152.651 27.1769C151.115 29.8748 149.594 32.5363 148.177 35.2498C146.026 39.3696 144.068 43.5415 142.276 47.7863C141.375 49.9217 140.505 52.0623 139.724 54.255C137.917 59.2915 136.474 64.4894 135.37 69.8644C134.891 72.2186 134.526 74.5363 134.297 76.8748ZM25.6824 344.318C26.5106 344.047 27.3439 343.833 28.1616 343.635C30.0366 343.166 31.9533 342.916 33.922 342.698C36.6408 342.411 39.4741 342.198 42.4793 341.838C49.1876 341.047 56.3647 339.969 63.021 337.807C67.3908 336.39 71.5626 334.552 75.1564 331.729C76.5314 330.651 77.8856 329.557 79.2606 328.495C81.3335 326.875 83.4324 325.297 85.5627 323.75L88.4689 321.625C87.9741 321.682 87.5835 321.755 87.4793 321.755C87.4272 321.755 87.3804 321.771 87.3283 321.771C86.9481 322.021 86.5574 322.255 86.1616 322.489C83.1981 324.234 80.0001 325.724 76.7866 327.13C72.7241 328.911 68.5522 330.401 64.4116 331.443C57.9012 333.062 50.9949 334.229 44.3231 335.937C39.8804 337.073 35.5314 338.458 31.4845 340.396C30.2658 340.989 29.0991 341.708 27.9637 342.484C27.4481 342.844 26.9429 343.224 26.4481 343.614C26.1929 343.849 25.9376 344.083 25.6824 344.318ZM84.7762 322.021C83.6356 322.166 82.5106 322.364 81.3751 322.526C79.4585 322.812 77.5314 323.068 75.5783 323.26C72.7033 323.531 69.797 324.073 66.9064 324.755C62.5366 325.797 58.2085 327.182 54.1147 328.64C49.2449 330.312 44.2918 332.307 39.5054 334.625C36.8491 335.922 34.2762 337.344 31.7866 338.87C31.6564 338.979 31.5262 339.083 31.396 339.213C31.3543 339.25 31.3126 339.281 31.271 339.318C35.2866 337.344 39.5887 335.885 44.0054 334.734C50.672 332.974 57.5939 331.838 64.1147 330.239C67.3856 329.432 70.6824 328.333 73.9272 327.036C77.6408 325.583 81.2501 323.765 84.7762 322.021ZM74.4376 292.911C75.422 290.375 76.2449 287.823 77.0106 285.271C78.3335 280.828 79.4689 276.37 80.7085 271.838C81.1147 270.38 81.4949 268.979 81.8699 267.63C82.2554 266.229 82.6356 264.88 82.9064 263.479C83.2554 261.698 83.4793 259.88 83.4637 257.849C83.4429 256.755 83.5054 255.64 83.4897 254.505C83.4793 253.802 83.4377 253.083 83.3283 252.385C83.1564 251.286 82.8387 250.172 82.4324 249.094C81.8179 247.437 81.0106 245.823 80.3751 244.239L79.0679 241.651C78.8543 242.312 78.7501 243.302 78.6304 243.609L78.4949 243.896C77.9064 246.234 77.4585 248.552 77.2658 250.943C76.8856 255.708 77.1668 260.583 77.1251 265.385C77.0991 267.505 76.9689 269.625 76.7814 271.729C76.5054 274.875 76.1095 278.005 75.7866 281.151C75.4116 284.588 75.2449 288.041 74.6929 291.437C74.6147 291.943 74.5314 292.427 74.4376 292.911ZM76.2033 248.771L74.4949 252.401C73.5783 254.651 72.7918 256.859 72.2554 259.109C71.7033 261.427 71.3804 263.765 71.2241 266.104C70.9689 269.823 71.271 273.526 71.6564 277.359C71.7449 278.291 71.8179 279.229 71.9272 280.161C72.2658 283.182 72.8908 286.224 73.2606 289.281C73.3804 290.271 73.4689 291.239 73.521 292.229C73.6512 291.437 73.7606 290.646 73.8439 289.838C74.172 286.922 74.3074 283.974 74.5783 281.026C74.8856 277.896 75.2762 274.771 75.5418 271.625C75.7189 269.536 75.8439 267.469 75.8595 265.364C75.9064 260.547 75.6199 255.64 76.0054 250.838C76.0626 250.156 76.1251 249.469 76.2033 248.771ZM166.089 263.693C161.979 266.12 157.672 268.312 153.365 270.453C149.448 272.38 145.438 274.068 141.297 275.307C139.323 275.885 137.302 276.354 135.261 276.765C130.583 277.682 125.787 278.276 121.177 279.302C115.547 280.578 109.99 282.323 104.75 284.713C102.547 285.719 100.422 286.854 98.3491 288.109C98.9793 287.823 99.6147 287.536 100.261 287.229C102.521 286.151 105.073 284.911 107.662 284.01C109.469 283.401 111.287 282.953 113.063 282.88C119.214 282.573 126.094 283.797 132.797 284.245C135.573 284.427 138.307 284.515 140.958 284.229C143.594 283.937 146.12 283.276 148.526 282.088C149.511 281.62 150.49 281.083 151.427 280.416C152.297 279.786 153.057 279.104 153.771 278.349C154.917 277.14 155.948 275.849 157.094 274.588C158.162 273.401 159.25 272.307 160.276 271.172C160.964 270.416 161.615 269.646 162.261 268.854C163.297 267.594 164.281 266.265 165.182 264.807C165.375 264.484 165.703 264.109 166.089 263.693ZM167.62 261.12C166.667 261.156 165.745 261.213 165.646 261.213C163.745 261.281 161.828 261.5 159.912 261.771C157.016 262.203 154.12 262.776 151.328 263.443C148.724 264.036 146.141 264.771 143.573 265.562C139.698 266.75 135.86 268.083 132.063 269.448C128.792 270.599 125.547 271.802 122.339 273.078C120.958 273.62 119.583 274.177 118.224 274.771C112.495 277.864 106.917 281.245 101.453 284.823C102.36 284.37 103.276 283.937 104.203 283.526C109.531 281.099 115.162 279.302 120.88 278.005C125.49 276.927 130.281 276.245 134.958 275.271C136.948 274.859 138.922 274.39 140.844 273.797C143.886 272.88 146.849 271.713 149.771 270.38C155.87 267.63 161.745 264.213 167.62 261.12ZM132.261 218.057C129.214 223.922 126.214 229.838 122.87 235.536C119.969 240.479 116.787 245.245 113.057 249.614C109.641 253.588 105.401 257.203 101.61 261.088C100.573 262.13 99.6095 263.245 98.6772 264.359C98.7449 264.307 98.8179 264.25 98.8856 264.198C101.406 262.182 104.136 260.385 106.625 258.406C109.594 256.068 112.323 253.625 114.948 251.052C117.578 248.484 120.099 245.786 122.552 242.927C124.11 241.146 125.865 239.166 127.396 237.083C128.38 235.734 129.276 234.37 129.927 232.963C130.636 231.437 131.037 229.927 131.297 228.396C131.719 225.916 131.792 223.416 132 220.755C132.042 219.854 132.146 218.958 132.261 218.057ZM130.63 218.437C129.604 219.463 128.63 220.521 127.63 221.568C125.693 223.599 123.896 225.771 122.188 228C120.464 230.25 118.844 232.588 117.271 234.927C115.792 237.12 114.328 239.328 112.828 241.526C110.578 244.797 108.287 248.031 106.052 251.307C104.38 253.75 102.724 256.198 101.11 258.677C104.625 255.208 108.495 251.969 111.63 248.375C115.365 244.151 118.547 239.51 121.485 234.708C124.724 229.406 127.63 223.864 130.63 218.437ZM78.3595 240.75C78.3647 240.771 78.3647 240.771 78.3699 240.771H78.3804L78.3699 240.75L78.3595 240.734V240.75ZM78.3283 240.661C78.3179 240.625 78.3231 240.604 78.3335 240.568C78.3595 240.515 78.2606 240.64 78.2918 240.64C78.3074 240.64 78.3179 240.64 78.3283 240.661ZM20.3491 109.943C20.9637 111.219 21.5366 112.531 22.1199 113.844C24.5574 119.328 26.7137 124.958 28.9897 130.531C30.8647 135.166 32.7293 139.807 34.3647 144.552C35.4585 147.719 36.4429 150.922 37.3179 154.156C38.3126 157.807 39.2241 161.51 39.8543 165.25C39.9741 164.297 40.0887 163.328 40.2033 162.375C40.2137 162.281 40.2241 162.213 40.2345 162.14C40.1147 161.745 40.0054 161.349 39.9012 160.953C38.7241 156.583 38.1824 152.088 37.0991 147.666C36.1668 143.635 34.9637 139.536 33.5574 135.51C32.1564 131.5 30.547 127.562 28.6616 123.875C27.4324 121.323 26.1408 118.75 24.6929 116.271C23.7345 114.635 22.7137 113.036 21.5887 111.526L20.3491 109.943ZM-40.0728 153.312C-39.2082 153.958 -38.3384 154.568 -37.4478 155.161C-36.2811 155.953 -35.0832 156.693 -33.8176 157.427C-30.5884 159.318 -26.7394 161.041 -22.6978 162.411C-20.1457 163.255 -17.5155 163.989 -14.8749 164.443C-10.3332 165.198 -5.78111 165.25 -1.68215 163.937C-0.661316 163.578 0.323059 163.073 1.27618 162.479C2.76577 161.583 4.18764 160.505 5.56264 159.515C6.5366 158.833 7.63556 158.005 8.81785 157.463C6.51056 156.818 4.20848 156.672 1.90118 156.729C-0.187355 156.781 -2.28111 157.015 -4.39048 157.302C-9.38007 157.984 -14.4374 158.958 -19.5259 158.526C-21.8696 158.38 -24.2759 157.948 -26.6769 157.375C-29.1092 156.797 -31.5571 156.114 -33.9165 155.38C-34.9478 155.057 -35.9478 154.713 -36.9478 154.39C-37.9686 154.047 -39.0155 153.651 -40.0728 153.312ZM18.5991 109.333C18.6408 109.547 18.672 109.745 18.6981 109.922C18.8074 110.807 18.9064 111.703 18.9793 112.583C19.1564 114.651 19.2554 116.719 19.4012 118.807C19.6616 122.583 19.4949 126.396 19.6356 130.187C19.6668 131.125 19.7241 132.041 19.8022 132.974C19.9012 134.052 20.1147 135.078 20.396 136.104C20.8283 137.703 21.4012 139.25 21.922 140.849C22.9376 143.979 23.8804 146.927 25.1408 149.802C25.9689 151.677 26.9429 153.489 28.1199 155.291C29.6304 157.5 31.8179 158.937 33.8804 160.411C35.0418 161.26 36.1929 162.083 37.1668 163.036C36.5418 160.271 35.8491 157.521 35.0522 154.786C34.1251 151.62 33.0991 148.474 32.0418 145.344C30.4481 140.635 28.7762 135.943 27.0262 131.286C24.3491 124.057 21.8126 116.776 18.7554 109.693C18.7085 109.583 18.6512 109.458 18.5991 109.333ZM8.04702 155.646C7.98452 155.666 7.90118 155.646 7.7866 155.63C7.57306 155.614 7.43764 155.38 7.27098 155.255C4.4116 153.203 2.15118 152.771 -1.64048 152.088C-3.16132 151.818 -4.64569 151.406 -6.1509 151.083C-6.74986 150.953 -7.34882 150.849 -7.9634 150.776C-9.57798 150.526 -11.2446 150.38 -12.9321 150.271C-16.9113 150.021 -21.0051 150.021 -24.8696 149.911C-26.5051 149.838 -28.0988 149.911 -29.6821 150.057C-32.1301 150.291 -34.5415 150.724 -37.0259 151.099L-40.328 151.677C-39.0207 151.963 -37.7186 152.375 -36.453 152.698C-35.2707 153.021 -34.0624 153.349 -32.8436 153.708C-30.1144 154.552 -27.3436 155.505 -24.5624 156.151C-22.8332 156.568 -21.1144 156.87 -19.4217 157.015C-14.4374 157.286 -9.53632 156.099 -4.66132 155.38C-2.46861 155.073 -0.281105 154.838 1.89077 154.859C4.00014 154.896 6.08348 155.161 8.15639 155.791L8.04702 155.646ZM38.6408 51.9373C39.646 54.0936 40.4324 56.3227 41.0731 58.5883C42.521 63.6977 43.1512 69.0363 43.5574 74.4477C43.9793 80.1508 44.0158 85.7967 43.8647 91.4217C43.6356 99.8383 43.0106 108.213 42.7606 116.703C42.646 119.812 42.5887 122.89 42.6043 125.979C42.6147 129.057 42.7033 132.146 42.9064 135.224C43.1408 139.177 43.7501 143.099 44.0626 147.015C45.0731 144.573 46.5262 142.271 48.0054 139.989C49.4585 137.724 50.9689 135.51 51.4637 132.776C51.7137 131.646 51.8074 130.495 51.8439 129.328C51.8804 128.177 51.9064 127.026 51.8699 125.875C51.8074 124.057 51.6616 122.239 51.8283 120.458C52.3439 114.437 52.9897 108.63 52.922 102.838C52.8908 100.5 52.6356 98.1821 52.4168 95.8436C52.0939 92.4269 51.6616 89.0154 50.9324 85.505C50.5679 83.6925 50.0366 81.9269 49.4949 80.1665C49.1304 78.979 48.771 77.7915 48.3699 76.6248C47.3543 73.6196 46.2137 70.6561 45.1043 67.7081C44.2762 65.4738 43.2449 62.7081 42.1251 59.8488C41.4585 58.1404 40.7814 56.3956 40.021 54.7238C39.5835 53.7706 39.1147 52.8383 38.6408 51.9373ZM37.0939 52.3696L37.2293 56.9008C37.7658 61.88 38.0262 66.88 38.4585 71.8592C38.6408 73.979 38.8543 76.0831 39.1251 78.2081C39.672 82.5936 39.6616 86.9425 39.3335 91.2758C38.9533 96.2758 38.2345 101.239 37.6095 106.203C37.0939 110.338 36.6147 114.453 36.6199 118.625C36.6408 118.625 36.6616 118.625 36.6824 118.625C36.9533 118.682 37.1251 118.953 37.0679 119.219C36.8335 120.588 36.7866 121.916 36.8699 123.229C36.9741 124.005 37.1095 124.776 37.2762 125.552C37.5939 127.005 38.0418 128.443 38.4793 129.885C39.021 131.661 39.672 133.37 40.1251 135.166C40.2449 135.656 40.2866 136.104 40.3699 136.573C40.396 136.646 40.396 136.713 40.3699 136.771C40.5262 137.255 40.6772 137.739 40.8283 138.224C40.7189 137.291 40.6251 136.338 40.547 135.401C40.297 132.255 40.1616 129.125 40.1147 126C40.0731 122.89 40.1304 119.76 40.2345 116.63C40.6356 106.724 41.5314 96.979 41.7449 87.1456C41.8387 82.9894 41.8179 78.8019 41.5679 74.5936C41.3074 70.1873 40.8856 65.8175 40.0001 61.5727C39.3387 58.4269 38.4012 55.354 37.0939 52.3696ZM-40.4634 94.0311C-40.4946 94.1352 -40.5155 94.2081 -40.5207 94.229L-40.5571 95.4842L-40.5363 96.854C-40.4582 100.036 -39.8801 103.432 -38.8384 106.687C-37.8071 109.906 -36.3124 112.943 -34.5311 115.568C-33.7811 116.666 -32.9217 117.672 -32.0311 118.646C-31.1301 119.635 -30.1874 120.588 -29.1874 121.469C-26.1092 124.203 -22.578 126.484 -19.1353 128.604C-18.6249 128.927 -18.1249 129.255 -17.6353 129.614C-15.8019 130.943 -14.0988 132.453 -12.1978 133.693C-10.6926 134.666 -9.06757 135.474 -7.52069 136.39C-7.28111 136.536 -7.03632 136.677 -6.80194 136.823C-8.59882 134.469 -10.2811 132.041 -12.4269 129.864C-16.0571 126.198 -20.1301 122.943 -23.8749 119.38C-24.828 118.463 -25.7655 117.568 -26.6665 116.594C-27.7446 115.463 -28.7499 114.276 -29.7134 113.073C-31.1457 111.255 -32.4842 109.364 -33.828 107.463C-34.9426 105.859 -35.9894 104.224 -36.9165 102.515C-37.8488 100.807 -38.6613 99.0102 -39.3332 97.1769C-39.6874 96.1873 -40.1457 95.1248 -40.4634 94.0311ZM-39.0676 92.7498C-38.7863 94.0831 -38.1926 95.3956 -37.7446 96.5831C-37.0936 98.3644 -36.2967 100.052 -35.4113 101.708C-34.5207 103.359 -33.5363 104.979 -32.4738 106.547C-31.1926 108.448 -29.9113 110.338 -28.5259 112.156C-27.6144 113.338 -26.6613 114.51 -25.6301 115.64C-24.3176 117.047 -22.9321 118.396 -21.4946 119.672C-18.0936 122.693 -14.4426 125.458 -11.1613 128.604C-9.40611 130.26 -7.86965 132.078 -6.40611 133.911C-5.88527 134.578 -5.36965 135.239 -4.84882 135.906C-4.87486 135.781 -4.89569 135.656 -4.91652 135.526C-5.29673 133.406 -5.51548 131.177 -5.74986 129.021C-5.9009 127.614 -6.04152 126.234 -6.33319 124.922C-6.89569 122.26 -7.7759 119.489 -8.85402 116.828C-9.92173 114.166 -11.1613 111.594 -12.7915 109.385C-14.8384 106.562 -17.2238 104.64 -19.9217 103.146C-21.0571 102.536 -22.2446 101.995 -23.4738 101.489C-25.2707 100.771 -27.1509 100.161 -29.0467 99.3696C-29.6092 99.1352 -30.1405 98.8488 -30.6613 98.5415C-31.7967 97.8748 -32.8592 97.0883 -34.0103 96.4581C-34.6144 96.1144 -35.1769 95.7394 -35.7186 95.3592C-36.8644 94.5311 -37.9009 93.6144 -39.0676 92.7498ZM159.943 131.088C161.61 127.797 163.656 124.703 165.495 121.505C168.979 115.427 172.495 109.364 175.526 103.073C178.88 96.1352 181.771 88.979 183.818 81.479C185.021 77.1613 186.073 72.9217 186.901 68.6248C187.453 65.7811 187.917 62.9217 188.203 59.9738L188.667 55.1352C188.386 55.7654 188.141 56.38 187.912 56.8644C187.75 57.2602 187.594 57.6352 187.438 58.0154C187.495 57.9633 187.578 57.9633 187.656 57.979C187.787 58.0154 187.86 58.1561 187.823 58.2863C186.776 62.005 185.901 65.8383 184.849 69.5936C184.141 72.13 183.344 74.63 182.422 77.0571C181.057 80.6352 179.583 84.1561 178.031 87.6665C174.427 95.8279 170.453 103.828 166.886 111.974C165.568 114.958 164.255 118.015 163.021 121.088C162.198 123.14 161.406 125.187 160.682 127.239C160.104 128.838 159.599 130.531 159 132.182C159.162 132.005 159.318 131.823 159.479 131.646C159.636 131.463 159.792 131.265 159.943 131.088ZM187.214 58.5363C186.313 60.7133 185.401 62.8488 184.422 64.9529C183.604 66.7342 182.724 68.479 181.823 70.2394C180.354 73.0467 178.781 75.8175 177.203 78.5675C173.552 84.9321 169.787 91.2602 166.583 97.8436C164.656 101.833 162.948 105.932 161.636 110.213C160.193 115.068 160.521 120.12 160.031 125.047C160.578 123.552 161.156 122.062 161.755 120.568C162.99 117.495 164.307 114.422 165.625 111.416C169.208 103.291 173.156 95.2498 176.823 87.1248C178.386 83.6561 179.912 80.1665 181.313 76.6248C182.031 74.8436 182.656 73.0102 183.266 71.1561C184.646 66.9686 185.854 62.6873 187.214 58.5363ZM245.672 83.5623C245.031 83.9269 244.417 84.3175 243.766 84.6821C242.521 85.3644 241.245 85.9946 239.964 86.604C239.031 87.0519 238.078 87.4477 237.099 87.7915C233.037 89.1561 228.886 90.4321 224.677 91.5467C222.797 92.0519 220.901 92.4842 219.011 92.9529C214.573 94.0311 210.136 95.0727 205.719 95.88C202.865 96.4217 200.125 97.0883 197.432 97.9113C194.74 98.7238 192.094 99.6925 189.386 100.734C187.771 101.385 186.203 102.083 184.735 102.911C184.354 103.198 183.979 103.489 183.61 103.791C183.354 104.083 183.104 104.37 182.854 104.656C181.891 105.786 180.969 106.958 180.063 108.161C180.583 107.984 181.12 107.859 181.662 107.729C183.448 107.354 185.344 107.333 187.297 107.427C189.969 107.568 192.75 107.911 195.464 108.052C196.583 108.125 197.693 108.088 198.797 108.021C200.49 107.89 202.167 107.656 203.86 107.427C207.99 106.87 212.141 106.094 216.151 104.906C218.13 104.312 220.068 103.594 221.958 102.786C223.828 101.979 225.662 101.078 227.406 99.9633C228.818 99.0831 230.198 98.0363 231.542 96.9425C233.604 95.2498 235.594 93.4165 237.526 91.7654C239.698 89.8748 242.068 88.0936 243.964 85.9217C244.604 85.1821 245.172 84.3904 245.672 83.5623ZM243.974 83.4008L238.948 83.9061C236.266 84.1925 233.615 84.5363 230.969 84.9321C228.328 85.3279 225.693 85.7758 223.047 86.2967C215.229 87.6821 206.969 90.3071 199.266 93.9946C195.761 95.6821 192.386 97.6092 189.198 99.7133C191.912 98.8123 194.573 98.005 197.255 97.2811C199.995 96.5623 202.75 95.9008 205.63 95.4113C210.87 94.4269 216.167 93.2758 221.38 91.7811C224.495 90.88 227.547 89.8227 230.599 88.7811C232.646 88.0779 234.688 87.3956 236.693 86.6561C238.917 85.8644 240.922 84.6248 243.094 83.7446C243.386 83.6196 243.677 83.5102 243.974 83.4008ZM171.021 4.14563C171.068 4.08834 171.141 4.05709 171.219 4.07272C171.349 4.08834 171.448 4.19772 171.438 4.32272C171.203 8.92688 170.266 13.5467 168.787 18.0623C166.599 24.7498 163.313 31.1873 160.318 37.2133C157.912 41.9738 155.505 46.7238 153.016 51.4321C151.354 54.5779 149.656 57.6925 147.912 60.8019C145.182 65.604 142.089 70.6561 139.672 75.9061C138.068 79.3956 136.755 82.9738 136.104 86.6561C136.099 86.6925 136.089 86.7498 136.073 86.7811C136.047 87.1456 136.026 87.4998 136 87.8644C136.458 86.9425 136.979 86.0258 137.537 85.1456C140.688 80.2029 145.406 75.8852 149.083 71.6821C150.083 70.5311 150.979 69.38 151.797 68.2811C157.651 60.1196 162.86 51.9373 166.672 43.3071C167.641 41.1144 168.552 38.9008 169.328 36.6352C170.61 32.9321 171.568 29.0831 172.146 25.0727C172.698 21.2811 172.932 17.3227 172.708 13.1717C172.646 10.9217 172.531 8.42167 172.141 6.01543C172.037 5.38522 171.938 4.77584 171.776 4.16126C171.698 3.89043 171.62 3.6248 171.526 3.36959L171.021 4.14563ZM114.057 35.3071C114.047 35.2863 114.037 35.2863 114.026 35.2706C113.917 35.8644 113.912 36.4738 113.943 37.0675C114.031 38.7915 114.526 40.5571 114.797 42.2081C115.172 44.8904 115.677 47.5311 116.281 50.1561C117.193 54.1508 118.287 58.0675 119.203 62.0779C119.594 63.7498 119.948 65.4425 120.38 67.0936C120.662 68.1717 120.985 69.2498 121.37 70.2967C122.011 72.005 122.714 73.7133 123.5 75.3852C124.281 77.0206 125.151 78.6196 126.136 80.1665C127.99 82.9738 131.427 84.9686 133.719 87.5206L133.724 87.4686C133.583 87.2498 133.438 87.0363 133.313 86.8019C133.235 86.6561 133.188 86.4946 133.12 86.3331C132.24 84.2133 131.125 82.1821 130.12 80.0936C129.557 78.9425 129.037 77.7758 128.599 76.5675L123.604 62.0415C121.698 56.63 120.068 51.0206 118.177 45.5363C117.047 42.2446 115.823 39.0258 114.349 35.9165C114.25 35.6977 114.104 35.5206 114.057 35.3071ZM116.807 38.3956C117.412 39.6717 117.979 40.9842 118.511 42.3175C121.016 48.5936 122.828 55.2081 125.12 61.505L130.224 75.979C131 78.0467 132.047 80.0206 133.063 81.9998C132.964 81.4633 132.87 80.9061 132.771 80.3279C131.943 75.4894 130.745 70.7446 129.328 66.0675C127.906 61.3956 126.266 56.7758 124.328 52.2602C123.188 49.5831 121.922 46.9581 120.511 44.4061C119.375 42.3331 118.141 40.3227 116.807 38.3956ZM170.974 4.21855L169.875 5.92688L165.912 11.8019C164.396 13.9633 162.958 16.1925 161.573 18.4581C159.479 21.854 157.511 25.3436 155.615 28.8331C154.151 31.5102 152.75 34.2081 151.36 36.8852C149.255 40.9529 147.214 44.9946 145.375 49.13C144.453 51.1977 143.589 53.2863 142.745 55.3904C140.833 60.1561 139.104 65.0258 137.75 70.0988C137.271 73.5311 136.896 76.9113 136.594 80.2186C137.125 78.5831 137.755 76.9633 138.453 75.3644C140.776 70.0258 143.849 64.9008 146.526 60.0258C148.677 56.1613 150.745 52.2446 152.776 48.3071C154.813 44.3696 156.813 40.4113 158.813 36.4529C161.854 30.5206 165.016 24.1196 167.448 17.5936C169.073 13.2238 170.417 8.78626 170.953 4.29147C170.958 4.27063 170.964 4.23418 170.974 4.21855ZM36.9793 49.0415C37.021 49.0623 37.0574 49.0779 37.0991 49.1144C37.0574 49.0258 37.0158 48.9529 36.9741 48.88L36.9793 49.0415Z" fill="#89C190"/>
</g>
</svg>
