<?xml version="1.0" encoding="UTF-8"?>
<svg version="1.1" xmlns="http://www.w3.org/2000/svg" width="125" height="125">
<path d="M0 0 C9.17261132 7.56203575 14.60425884 18.35397805 16.2109375 30.05078125 C16.27673327 31.98336753 16.29661905 33.91799548 16.2734375 35.8515625 C16.26570313 36.91052734 16.25796875 37.96949219 16.25 39.06054688 C16.23710938 40.15044922 16.22421875 41.24035156 16.2109375 42.36328125 C16.18556219 44.54682694 16.1644838 46.73042833 16.1484375 48.9140625 C16.13683594 49.87610596 16.12523438 50.83814941 16.11328125 51.8293457 C15.95923764 54.02420455 15.95923764 54.02420455 17.2109375 55.05078125 C17.23671875 53.97441406 17.2625 52.89804688 17.2890625 51.7890625 C17.79943592 36.89746228 20.22975365 23.87916613 31.27734375 13.01953125 C39.80062294 5.82277315 49.24545662 3.4749778 60.2109375 3.05078125 C61.02294482 16.42634634 59.05921936 29.55281972 50.2109375 40.05078125 C49.70949219 40.66179688 49.20804687 41.2728125 48.69140625 41.90234375 C42.97137012 48.22082648 35.03232709 53.38019071 26.6484375 55.05078125 C23.0229833 56.6828035 23.0229833 56.6828035 22.12890625 59.82421875 C21.23220177 63.89693564 20.65677016 67.90779967 20.2109375 72.05078125 C20.11087402 72.96102051 20.01081055 73.87125977 19.90771484 74.80908203 C19.25872245 80.88303761 18.70095746 86.96204128 18.2109375 93.05078125 C16.5609375 92.72078125 14.9109375 92.39078125 13.2109375 92.05078125 C13.22664795 91.49841797 13.2423584 90.94605469 13.25854492 90.37695312 C13.55745197 78.19869795 13.03092436 66.91822595 10.2109375 55.05078125 C9.14617187 54.84324219 8.08140625 54.63570313 6.984375 54.421875 C-7.52666392 51.41576475 -19.72900921 46.27385754 -30.7890625 36.05078125 C-31.41167969 35.48230469 -32.03429687 34.91382813 -32.67578125 34.328125 C-44.12411341 22.62252695 -50.14900069 4.02032341 -50.7890625 -11.94921875 C-32.77088708 -15.64525473 -14.79745347 -10.34163765 0 0 Z " fill="#BEDF63" transform="translate(57.7890625,21.94921875)"/>
<path d="M0 0 C0.81200732 13.37556509 -1.15171814 26.50203847 -10 37 C-10.50144531 37.61101563 -11.00289062 38.22203125 -11.51953125 38.8515625 C-18.5192385 46.58359922 -28.09860988 51.19460613 -38 54 C-36.80544304 42.23361392 -30.47008991 32.85516944 -22.8203125 24.20703125 C-20.81543086 22.04574824 -20.81543086 22.04574824 -20 19 C-29.70279032 23.41035923 -33.97260794 34.46546266 -38.30078125 43.5234375 C-40 47 -40 47 -42 50 C-42.71605322 35.61926446 -40.94123969 23.18143395 -31 12 C-22.51507003 3.65942611 -11.79972857 -0.07892795 0 0 Z " fill="#BEDF63" transform="translate(118,25)"/>
<path d="M0 0 C10.01024006 1.06990853 17.51911947 8.78937871 23.859375 16.14453125 C36 32.33941606 36 32.33941606 36 41 C36.66 41 37.32 41 38 41 C38.66 42.65 39.32 44.3 40 46 C40.4846875 44.82824219 40.969375 43.65648437 41.46875 42.44921875 C46.08716066 31.5310727 50.88296893 20.98651921 60 13 C60.99 13 61.98 13 63 13 C62.41155405 16.71561586 60.83793434 18.58874609 58.375 21.375 C43.55138516 39.55189217 43.18760757 61.60105557 41 84 C39.35 83.67 37.7 83.34 36 83 C36.04640625 81.72769531 36.0928125 80.45539063 36.140625 79.14453125 C36.68850433 57.26084549 33.74603966 36.69109139 20 19 C19.52820313 18.36320312 19.05640625 17.72640625 18.5703125 17.0703125 C13.70784301 10.88920722 7.08013091 6.34430147 0 3 C0 2.01 0 1.02 0 0 Z " fill="#73953E" transform="translate(35,31)"/>
</svg>
