<svg width="194" height="246" viewBox="0 0 194 246" fill="none" xmlns="http://www.w3.org/2000/svg">
<path d="M-224.262 52.0151C-217.106 32.9839 -203.075 15.2287 -183.549 8.02034C-160.413 -0.526535 -135.752 8.14013 -114.444 17.786C-93.46 27.2808 -72.4444 38.3589 -48.9444 39.6401C-38.5225 40.2078 -28.0277 37.9422 -18.6579 33.3745C-9.08499 28.7078 -0.939163 21.4839 8.47229 16.4474C27.066 6.4943 48.8109 1.91096 68.7692 10.6505C77.0713 14.2808 84.6859 20.0308 89.5192 27.7964C94.5765 35.9214 95.7327 45.3693 94.6598 54.7495C92.4931 73.661 82.4879 91.3433 83.1025 110.645C83.6546 128.135 94.7848 140.578 109.754 148.229C125.389 156.218 143.248 159.869 157.629 170.27C172.326 180.901 182.353 197.333 186.55 214.854C190.759 232.437 188.988 251.52 180.004 267.375C171.056 283.156 155.858 294.947 138.847 300.927C121.774 306.932 102.905 307.192 86.066 300.244C66.3942 292.119 50.7848 276.906 32.0556 267.072C-6.83499 246.661 -49.7048 261.479 -90.3402 266.708C-110.934 269.359 -132.106 269.421 -151.606 261.416C-171.028 253.437 -187.444 238.88 -199.46 221.817C-212.517 203.276 -220.424 181.64 -225.127 159.572C-230.153 136 -232.648 110.994 -231.163 86.9005C-230.424 74.9787 -228.288 63.2703 -224.262 52.0151C-223.278 49.2756 -227.637 48.0985 -228.611 50.8172C-237.106 74.5516 -236.924 100.119 -234.7 124.921C-232.528 149.229 -228.059 173.552 -218.59 196.145C-202.387 234.833 -169.601 267.661 -126.429 272.239C-81.8819 276.968 -38.2152 254.052 6.17542 262.656C28.5556 266.994 45.6285 281.265 64.2119 293.401C80.8317 304.26 98.7431 311.369 118.879 309.755C154.931 306.875 187.675 280.255 192.55 243.541C194.936 225.609 190.988 206.968 182.066 191.27C172.847 175.052 158.915 163.901 141.889 156.708C125.811 149.906 105.571 145.364 94.4984 130.713C81.3942 113.369 90.2588 91.411 95.3942 72.8693C100.389 54.8641 102.509 35.6401 89.6285 20.3485C78.1234 6.69221 58.8056 0.134924 41.2848 1.50471C30.4515 2.35367 19.9827 5.7443 10.2483 10.4787C-0.340195 15.6245 -9.20999 23.4162 -19.585 28.8016C-43.1944 41.0412 -70.0069 32.9839 -92.8402 22.8901C-114.934 13.1245 -136.882 0.55159 -161.689 0.0151313C-182.746 -0.443202 -201.59 9.54117 -214.606 25.8328C-220.627 33.3745 -225.215 41.7964 -228.606 50.8172C-229.632 53.536 -225.273 54.7131 -224.262 52.0151Z" fill="#C8DBBE"/>
</svg>
