<svg xmlns="http://www.w3.org/2000/svg" width="118" height="125" viewBox="0 0 118 125" version="1.1"><path d="M 21.132 58.078 C 16.856 58.918, 7.554 62.888, 8.244 63.578 C 8.436 63.770, 10.822 63.236, 13.547 62.392 C 21.209 60.017, 32.906 60.928, 41 64.529 C 44.575 66.120, 47.725 67.726, 48 68.098 C 48.389 68.625, 55.662 72, 56.408 72 C 56.498 72, 56.571 71.132, 56.571 70.071 C 56.571 69.011, 56.330 68.164, 56.036 68.190 C 54.043 68.365, 52.975 67.850, 53.515 66.975 C 53.864 66.412, 53.778 66.015, 53.324 66.094 C 51.516 66.408, 50.378 65.893, 47.594 63.499 C 45.996 62.124, 43.949 61, 43.044 61 C 42.140 61, 40.972 60.586, 40.450 60.081 C 39.534 59.195, 28.746 56.886, 26.566 57.110 C 25.980 57.170, 23.534 57.605, 21.132 58.078 M 12.961 69.792 C 6.551 72.204, -0 76.148, -0 77.594 C -0 78.411, 1.585 78.055, 4.761 76.523 C 18.409 69.939, 27.470 70.475, 47.640 79.060 C 52.882 81.291, 58.333 82.978, 59.752 82.808 C 62.589 82.469, 62.507 82.409, 49.807 75.557 C 36.747 68.509, 22.352 66.257, 12.961 69.792" stroke="none" fill="#529234" fill-rule="evenodd"/><path d="M 107.388 43.130 C 102.547 49.928, 101.004 53.543, 100.956 58.200 L 100.912 62.500 99.009 59 C 97.963 57.075, 96.013 54.166, 94.677 52.537 L 92.248 49.573 91.536 53.787 C 90.468 60.111, 91.785 65.686, 95.292 69.680 C 98.167 72.954, 98.473 73.074, 99.691 71.408 C 100.411 70.423, 101.014 68.691, 101.030 67.559 C 101.058 65.665, 101.143 65.642, 102.092 67.271 C 102.659 68.245, 103.622 68.734, 104.231 68.357 C 104.960 67.907, 105.109 68.274, 104.666 69.429 C 102.852 74.156, 102.784 76, 104.424 76 C 107.196 76, 112.849 73.242, 115.490 70.600 C 117.226 68.865, 118 66.998, 118 64.545 C 118 62.595, 117.753 61, 117.452 61 C 117.150 61, 115.125 61.859, 112.952 62.909 C 110.778 63.959, 109 64.689, 109 64.531 C 109 64.373, 109.675 62.629, 110.500 60.654 C 112.071 56.895, 112.317 50.509, 111.176 43.130 L 110.500 38.761 107.388 43.130 M 50.978 65.674 C 56.994 70.107, 58.723 73.365, 53.836 71.061 C 51.821 70.111, 51.753 70.134, 53.341 71.230 C 69.658 82.488, 83.013 85.588, 93.137 80.467 C 97.058 78.484, 101 75.077, 101 73.671 C 101 73.131, 100.196 73.418, 99.213 74.307 C 96.028 77.190, 89.811 79.161, 83.990 79.133 C 75.889 79.094, 70.762 76.961, 51.500 65.615 C 48.557 63.881, 48.547 63.882, 50.978 65.674 M 55.733 79.124 C 56.412 79.808, 57.219 80.115, 57.526 79.807 C 57.834 79.499, 57.279 78.940, 56.293 78.564 C 54.868 78.022, 54.753 78.136, 55.733 79.124 M 60.408 81.556 C 62.047 82.755, 62.042 82.848, 60.322 83.231 C 57.790 83.793, 68.910 86.274, 72.049 85.847 C 73.937 85.590, 72.531 84.823, 66.636 82.894 C 62.256 81.460, 59.453 80.858, 60.408 81.556" stroke="none" fill="#69b02e" fill-rule="evenodd"/></svg>