<?xml version="1.0" encoding="UTF-8"?>
<svg version="1.1" xmlns="http://www.w3.org/2000/svg" width="118" height="125">
<path d="M0 0 C0.66 0.33 1.32 0.66 2 1 C2.02911321 4.0833134 2.04683682 7.16659125 2.0625 10.25 C2.07087891 11.12269531 2.07925781 11.99539062 2.08789062 12.89453125 C2.09272461 14.16103516 2.09272461 14.16103516 2.09765625 15.453125 C2.10289307 16.22817383 2.10812988 17.00322266 2.11352539 17.80175781 C2.00036998 19.99283598 1.60552448 21.89637861 1 24 C1.598125 23.67 2.19625 23.34 2.8125 23 C5 22 5 22 8 22 C8.82304823 28.81954245 8.82304823 28.81954245 6.72265625 31.83203125 C2.39368616 35.86651358 -1.16086485 36.79511806 -7 37 C-6.505 34.03 -6.505 34.03 -6 31 C-6.66 30.67 -7.32 30.34 -8 30 C-8.66 31.32 -9.32 32.64 -10 34 C-12.70926555 33.39794099 -14.48834582 32.65387116 -16.22265625 30.4375 C-19.19963981 25.14508478 -19.87722145 19.99774664 -19 14 C-17.9765625 11.703125 -17.9765625 11.703125 -17 10 C-16.57847656 10.5775 -16.15695313 11.155 -15.72265625 11.75 C-15.17480469 12.4925 -14.62695312 13.235 -14.0625 14 C-13.51722656 14.7425 -12.97195312 15.485 -12.41015625 16.25 C-11.94480469 16.8275 -11.47945313 17.405 -11 18 C-10.67 18 -10.34 18 -10 18 C-9.86464844 17.45472656 -9.72929688 16.90945312 -9.58984375 16.34765625 C-7.70436456 9.74283395 -4.4588801 5.16741447 0 0 Z " fill="#0C1C00" transform="translate(110,39)"/>
<path d="M0 0 C11.40339327 -0.64040796 21.60655871 4.52611642 31.15625 10.19140625 C46.9790362 19.9233618 46.9790362 19.9233618 65.15625 21.19140625 C68.72263925 19.86116213 71.90890535 18.16439453 75.15625 16.19140625 C75.81625 15.86140625 76.47625 15.53140625 77.15625 15.19140625 C75.28147309 20.25330389 71.18991433 23.17457408 66.53125 25.50390625 C50.72401699 28.72389816 38.88643645 21.93962002 25.66796875 14.1328125 C13.97614633 7.25638217 4.0134169 2.77561719 -9.8984375 5.87109375 C-12.25003549 6.57057757 -14.55031139 7.32165978 -16.84375 8.19140625 C-15.84375 5.19140625 -15.84375 5.19140625 -13.953125 4.05859375 C-9.24810271 2.07999166 -5.09167474 0.52858488 0 0 Z " fill="#091600" transform="translate(24.84375,56.80859375)"/>
<path d="M0 0 C5.91598943 2.77507517 11.77736589 4.92946037 18.09130859 6.61767578 C18.09130859 6.94767578 18.09130859 7.27767578 18.09130859 7.61767578 C5.17652713 8.82591937 -6.07713203 3.39500853 -17.76391602 -1.34814453 C-32.77113805 -7.39324551 -43.20251221 -5.32908521 -57.90869141 0.61767578 C-57.74072266 -1.18310547 -57.74072266 -1.18310547 -56.90869141 -3.38232422 C-54.54541016 -5.05029297 -54.54541016 -5.05029297 -51.59619141 -6.56982422 C-50.63068359 -7.07900391 -49.66517578 -7.58818359 -48.67041016 -8.11279297 C-32.16079619 -15.70207803 -14.9381874 -7.08260315 0 0 Z " fill="#091400" transform="translate(57.90869140625,78.38232421875)"/>
</svg>
