<?xml version="1.0" encoding="UTF-8"?>
<svg version="1.1" xmlns="http://www.w3.org/2000/svg" width="430" height="135">
<path d="M0 0 C4.93083674 4.93083674 6.28233995 13.25399558 7 20 C7.495 20.99 7.495 20.99 8 22 C6.02 22.33 4.04 22.66 2 23 C2 23.66 2 24.32 2 25 C2.72485596 24.98042236 3.44971191 24.96084473 4.1965332 24.94067383 C11.69626881 24.82690466 18.79659582 25.44958597 26.1875 26.6875 C27.27683838 26.86829102 28.36617676 27.04908203 29.48852539 27.23535156 C52.37979483 31.20175261 71.43648154 40.35748246 91.48046875 51.859375 C96.25061917 54.58893821 101.04813005 57.2399743 105.9375 59.75 C106.54480957 60.07291016 107.15211914 60.39582031 107.77783203 60.72851562 C112.28700472 62.9988331 116.00128378 63.86435644 121 64 C123.8318672 62.86894266 123.8318672 62.86894266 126.25 60.9375 C142.5399394 49.72984414 161.55906549 43.8872675 181 41 C181.33 39.02 181.66 37.04 182 35 C181.236875 35.061875 180.47375 35.12375 179.6875 35.1875 C177 35 177 35 175.1875 33.5 C174.795625 33.005 174.40375 32.51 174 32 C175.31867896 27.38462363 176.84934608 23.66157077 180 20 C183.5625 19 183.5625 19 187 19 C190 21 190 21 190.73046875 23.05859375 C190.95669922 24.23615234 190.95669922 24.23615234 191.1875 25.4375 C191.34605469 26.21996094 191.50460937 27.00242187 191.66796875 27.80859375 C192.23988379 31.58323302 192.18820551 32.71769174 190 36 C187.875 36.6875 187.875 36.6875 186 37 C185.67 38.32 185.34 39.64 185 41 C185.75023437 40.98839844 186.50046875 40.97679687 187.2734375 40.96484375 C192.33596228 40.92021192 197.12737122 40.96895119 202.125 41.8125 C207.01129042 42.34178421 209.59572976 40.96787992 213.79296875 38.6015625 C236.63476415 27.19457576 263.74296197 22.95731628 288.21875 31.06640625 C309.19631157 39.25738712 319.88042819 52.93694201 329 73 C329 93.46 329 113.92 329 135 C187.1 135 45.2 135 -101 135 C-101 103.98 -101 72.96 -101 41 C-95.47098001 39.42028 -91.53960715 38.76024317 -86.00390625 38.8671875 C-84.45898239 38.86637975 -82.9140586 38.86371311 -81.36914062 38.859375 C-78.97958699 38.8613203 -76.59249476 38.87441643 -74.20336914 38.92089844 C-63.11867711 39.1104001 -55.27295469 37.56451739 -45.64086914 31.95727539 C-39.89342626 28.65844577 -33.44235815 27.34786926 -27 26 C-26.0821875 25.8040625 -25.164375 25.608125 -24.21875 25.40625 C-19.68037009 24.83344477 -15.19379845 24.89513596 -10.625 24.9375 C-9.69816406 24.94201172 -8.77132812 24.94652344 -7.81640625 24.95117188 C-5.54420291 24.96288426 -3.27213612 24.97928628 -1 25 C-1 24.34 -1 23.68 -1 23 C-3.31 22.67 -5.62 22.34 -8 22 C-7.525625 20.96875 -7.05125 19.9375 -6.5625 18.875 C-5.54025009 16.50868077 -4.95497258 14.70410555 -4.5625 12.125 C-3.77469603 7.74831129 -1.90819278 3.99389187 0 0 Z " fill="#0D664C" transform="translate(101,0)"/>
<path d="M0 0 C4.93083674 4.93083674 6.28233995 13.25399558 7 20 C7.495 20.99 7.495 20.99 8 22 C6.02 22.33 4.04 22.66 2 23 C2 23.66 2 24.32 2 25 C2.72485596 24.98042236 3.44971191 24.96084473 4.1965332 24.94067383 C11.69626881 24.82690466 18.79659582 25.44958597 26.1875 26.6875 C27.27683838 26.86829102 28.36617676 27.04908203 29.48852539 27.23535156 C52.37979483 31.20175261 71.43648154 40.35748246 91.48046875 51.859375 C96.25061917 54.58893821 101.04813005 57.2399743 105.9375 59.75 C106.54480957 60.07291016 107.15211914 60.39582031 107.77783203 60.72851562 C112.28700472 62.9988331 116.00128378 63.86435644 121 64 C123.8318672 62.86894266 123.8318672 62.86894266 126.25 60.9375 C142.5399394 49.72984414 161.55906549 43.8872675 181 41 C181.33 39.02 181.66 37.04 182 35 C181.236875 35.061875 180.47375 35.12375 179.6875 35.1875 C177 35 177 35 175.1875 33.5 C174.795625 33.005 174.40375 32.51 174 32 C175.31867896 27.38462363 176.84934608 23.66157077 180 20 C183.5625 19 183.5625 19 187 19 C190 21 190 21 190.73046875 23.05859375 C190.95669922 24.23615234 190.95669922 24.23615234 191.1875 25.4375 C191.34605469 26.21996094 191.50460937 27.00242187 191.66796875 27.80859375 C192.23988379 31.58323302 192.18820551 32.71769174 190 36 C187.875 36.6875 187.875 36.6875 186 37 C185.67 38.32 185.34 39.64 185 41 C185.75023437 40.98839844 186.50046875 40.97679687 187.2734375 40.96484375 C192.33596228 40.92021192 197.12737122 40.96895119 202.125 41.8125 C207.01129042 42.34178421 209.59572976 40.96787992 213.79296875 38.6015625 C236.63476415 27.19457576 263.74296197 22.95731628 288.21875 31.06640625 C304.20858748 37.30986083 315.5454379 47.12584484 324 62 C324.50917969 62.75925781 325.01835937 63.51851562 325.54296875 64.30078125 C331.20405087 73.98963608 329.42335481 86.17644572 329 97 C326.43742071 94.98472655 324.02604333 93.02676675 321.75 90.6875 C311.05399952 80.23459044 299.0356021 75.09472291 284.62890625 71.859375 C281.33355673 71.07899083 278.19171243 70.12474565 275 69 C275 68.01 275 67.02 275 66 C276.65 65.67 278.3 65.34 280 65 C279.484375 64.0925 278.96875 63.185 278.4375 62.25 C277 59 277 59 277.3125 56.625 C277.6528125 55.820625 277.6528125 55.820625 278 55 C277.34 55 276.68 55 276 55 C275.34 52.69 274.68 50.38 274 48 C272.515 51.465 272.515 51.465 271 55 C270.34 55 269.68 55 269 55 C268.93941406 55.63808594 268.87882812 56.27617188 268.81640625 56.93359375 C268.73261719 57.75988281 268.64882813 58.58617187 268.5625 59.4375 C268.48128906 60.26121094 268.40007812 61.08492187 268.31640625 61.93359375 C268 64 268 64 267 65 C268.65 65.33 270.3 65.66 272 66 C272 66.99 272 67.98 272 69 C270.84628906 69.01417969 269.69257813 69.02835937 268.50390625 69.04296875 C239.70763775 69.74495092 213.33086918 77.62618625 188.0300293 91.02514648 C171.80744131 99.52559946 156.11143208 102.44536308 138 102 C138 103.32 138 104.64 138 106 C137.34 106 136.68 106 136 106 C136 104.68 136 103.36 136 102 C134.9584375 102.04640625 133.916875 102.0928125 132.84375 102.140625 C114.01833074 102.72102743 98.47567497 96.73957168 81.50683594 89.08007812 C65.98280794 82.08049475 49.54098687 74.81162227 32.48583984 72.68676758 C24.65748802 71.61888509 19.19327168 68.58414151 12.625 64.3125 C10.72990443 63.08693685 8.8265252 61.87406281 6.9140625 60.67578125 C6.0885791 60.13864502 5.2630957 59.60150879 4.41259766 59.0480957 C1.46638085 57.76818184 0.04645131 58.20517591 -3 59 C-3.99 58.505 -3.99 58.505 -5 58 C-5 60.97 -5 63.94 -5 67 C-5.66 67 -6.32 67 -7 67 C-7.125 60.375 -7.125 60.375 -6 57 C-7.98 57 -9.96 57 -12 57 C-13.0625 55.1875 -13.0625 55.1875 -14 53 C-13.67 52.01 -13.34 51.02 -13 50 C-13.83660156 49.88269531 -14.67320313 49.76539063 -15.53515625 49.64453125 C-18.59113817 49.0760566 -21.45044172 48.28449555 -24.40649414 47.33666992 C-35.72265342 43.71968861 -47.28307635 41.83140037 -59 40 C-49.8550839 30.36071851 -31.55940071 25.34332357 -18.65722656 24.92382812 C-15.97902378 24.90185108 -13.30316593 24.91266679 -10.625 24.9375 C-9.69816406 24.94201172 -8.77132812 24.94652344 -7.81640625 24.95117188 C-5.54420291 24.96288426 -3.27213612 24.97928628 -1 25 C-1 24.34 -1 23.68 -1 23 C-3.31 22.67 -5.62 22.34 -8 22 C-7.525625 20.96875 -7.05125 19.9375 -6.5625 18.875 C-5.54025009 16.50868077 -4.95497258 14.70410555 -4.5625 12.125 C-3.77469603 7.74831129 -1.90819278 3.99389187 0 0 Z " fill="#1C8F7B" transform="translate(101,0)"/>
<path d="M0 0 C4.93083674 4.93083674 6.28233995 13.25399558 7 20 C7.495 20.99 7.495 20.99 8 22 C6.02 22.33 4.04 22.66 2 23 C2 23.66 2 24.32 2 25 C2.72485596 24.98042236 3.44971191 24.96084473 4.1965332 24.94067383 C11.69626881 24.82690466 18.79659582 25.44958597 26.1875 26.6875 C27.27683838 26.86829102 28.36617676 27.04908203 29.48852539 27.23535156 C51.17532504 30.99305251 69.56626991 39.26300675 88.57446289 50.1965332 C94.33490926 53.50936004 100.11809808 56.7160052 106.0625 59.6875 C106.68656738 60.00203125 107.31063477 60.3165625 107.95361328 60.640625 C111.55606322 62.41450595 115.16484157 63.81501193 119 65 C119 65.66 119 66.32 119 67 C107.01286211 75.68034123 94.59805015 80.07836576 80 82 C78.83855469 82.15339844 77.67710937 82.30679688 76.48046875 82.46484375 C66.82961817 83.08223823 58.95674017 80.2975444 49.97119141 77.04638672 C44.0470269 74.92045478 38.61964303 73.47043133 32.375 72.8125 C23.55951563 71.79248162 16.70710331 67.16713409 9.39599609 62.38208008 C8.50734863 61.8073999 7.61870117 61.23271973 6.703125 60.640625 C5.52218262 59.84446777 5.52218262 59.84446777 4.31738281 59.03222656 C1.43301359 57.74744853 -0.00379721 58.22553116 -3 59 C-3.99 58.505 -3.99 58.505 -5 58 C-5 60.97 -5 63.94 -5 67 C-5.66 67 -6.32 67 -7 67 C-7.125 60.375 -7.125 60.375 -6 57 C-7.98 57 -9.96 57 -12 57 C-13.0625 55.1875 -13.0625 55.1875 -14 53 C-13.67 52.01 -13.34 51.02 -13 50 C-13.83660156 49.88269531 -14.67320313 49.76539063 -15.53515625 49.64453125 C-18.59113817 49.0760566 -21.45044172 48.28449555 -24.40649414 47.33666992 C-35.72265342 43.71968861 -47.28307635 41.83140037 -59 40 C-49.8550839 30.36071851 -31.55940071 25.34332357 -18.65722656 24.92382812 C-15.97902378 24.90185108 -13.30316593 24.91266679 -10.625 24.9375 C-9.69816406 24.94201172 -8.77132812 24.94652344 -7.81640625 24.95117188 C-5.54420291 24.96288426 -3.27213612 24.97928628 -1 25 C-1 24.34 -1 23.68 -1 23 C-3.31 22.67 -5.62 22.34 -8 22 C-7.525625 20.96875 -7.05125 19.9375 -6.5625 18.875 C-5.54025009 16.50868077 -4.95497258 14.70410555 -4.5625 12.125 C-3.77469603 7.74831129 -1.90819278 3.99389187 0 0 Z " fill="#88C08F" transform="translate(101,0)"/>
<path d="M0 0 C6.81343988 5.75599401 11.61228696 12.28067359 16 20 C16.50917969 20.75925781 17.01835937 21.51851562 17.54296875 22.30078125 C23.20405087 31.98963608 21.42335481 44.17644572 21 55 C18.43742071 52.98472655 16.02604333 51.02676675 13.75 48.6875 C3.05399952 38.23459044 -8.9643979 33.09472291 -23.37109375 29.859375 C-26.66644327 29.07899083 -29.80828757 28.12474565 -33 27 C-33 26.01 -33 25.02 -33 24 C-31.35 23.67 -29.7 23.34 -28 23 C-28.515625 22.0925 -29.03125 21.185 -29.5625 20.25 C-31 17 -31 17 -30.6875 14.625 C-30.460625 14.08875 -30.23375 13.5525 -30 13 C-30.66 13 -31.32 13 -32 13 C-32.99 9.535 -32.99 9.535 -34 6 C-34.99 8.31 -35.98 10.62 -37 13 C-37.66 13 -38.32 13 -39 13 C-39.09087891 13.95712891 -39.09087891 13.95712891 -39.18359375 14.93359375 C-39.26738281 15.75988281 -39.35117187 16.58617188 -39.4375 17.4375 C-39.51871094 18.26121094 -39.59992188 19.08492187 -39.68359375 19.93359375 C-40 22 -40 22 -41 23 C-39.35 23.33 -37.7 23.66 -36 24 C-36 24.99 -36 25.98 -36 27 C-58.14395295 29.8251197 -58.14395295 29.8251197 -64.14990234 26.98242188 C-67.90143295 23.9759459 -70.32117471 19.94002406 -73 16 C-79.2872389 10.19801779 -86.78195681 7.19688273 -94.6796875 4.26171875 C-97.22852996 3.29315862 -99.60179569 2.2834611 -102 1 C-97.7656969 -2.39284032 -93.28915165 -4.04232324 -88.25 -5.9375 C-87.31784668 -6.29013916 -86.38569336 -6.64277832 -85.42529297 -7.00610352 C-56.45235639 -17.72663512 -25.878477 -19.30184149 0 0 Z " fill="#88C08F" transform="translate(409,42)"/>
<path d="M0 0 C0.77400146 -0.0010675 1.54800293 -0.00213501 2.34545898 -0.00323486 C24.00963718 0.03970094 44.35524032 4.20866313 64.75 11.4375 C64.75 13.0875 64.75 14.7375 64.75 16.4375 C67.06 17.0975 69.37 17.7575 71.75 18.4375 C71.42 21.7375 71.09 25.0375 70.75 28.4375 C69.70996826 28.45937378 69.70996826 28.45937378 68.64892578 28.48168945 C37.23014749 29.21664682 7.56687711 32.81201245 -15.25 56.4375 C-17.34019874 58.71919843 -19.303169 61.02957745 -21.25 63.4375 C-22.24 64.4275 -22.24 64.4275 -23.25 65.4375 C-23.25 44.6475 -23.25 23.8575 -23.25 2.4375 C-15.31329907 0.16987116 -8.14252193 -0.00237027 0 0 Z " fill="#1C8F7B" transform="translate(23.25,38.5625)"/>
<path d="M0 0 C1.53473353 1.53473353 1.60423994 3.27718726 2.0625 5.375 C2.23910156 6.16648437 2.41570312 6.95796875 2.59765625 7.7734375 C3.28182824 11.55963203 3.19801287 12.70298069 1 16 C-1.125 16.6875 -1.125 16.6875 -3 17 C-3.66 19.31 -4.32 21.62 -5 24 C-5.66 24 -6.32 24 -7 24 C-7 21.03 -7 18.06 -7 15 C-7.763125 15.061875 -8.52625 15.12375 -9.3125 15.1875 C-12 15 -12 15 -13.8125 13.5 C-14.204375 13.005 -14.59625 12.51 -15 12 C-13.68292571 7.39024 -11.92504831 3.81142658 -9 0 C-5.50340123 -1.16553292 -3.55568859 -0.77297578 0 0 Z " fill="#85994C" transform="translate(290,20)"/>
<path d="M0 0 C0.04254356 1.99954746 0.04080783 4.00041636 0 6 C-0.33 6.33 -0.66 6.66 -1 7 C-0.01 7.66 0.98 8.32 2 9 C1.8125 10.875 1.8125 10.875 1 13 C-1.4375 14.3125 -1.4375 14.3125 -4 15 C-4.66 14.67 -5.32 14.34 -6 14 C-6 16.97 -6 19.94 -6 23 C-6.66 23 -7.32 23 -8 23 C-8.125 16.375 -8.125 16.375 -7 13 C-8.98 13 -10.96 13 -13 13 C-14.42944945 10.64561267 -15.08661261 9.51967567 -14.625 6.75 C-14.41875 6.1725 -14.2125 5.595 -14 5 C-13.01 5 -12.02 5 -11 5 C-10.67 3.35 -10.34 1.7 -10 0 C-6.30581799 -1.231394 -3.7943739 -0.64432764 0 0 Z " fill="#888F4F" transform="translate(102,44)"/>
<path d="M0 0 C4.93083674 4.93083674 6.28233995 13.25399558 7 20 C7.33 20.66 7.66 21.32 8 22 C6.02 22.33 4.04 22.66 2 23 C2 23.66 2 24.32 2 25 C1.01 25 0.02 25 -1 25 C-1 24.34 -1 23.68 -1 23 C-3.31 22.67 -5.62 22.34 -8 22 C-7.525625 20.96875 -7.05125 19.9375 -6.5625 18.875 C-5.54025009 16.50868077 -4.95497258 14.70410555 -4.5625 12.125 C-3.77469603 7.74831129 -1.90819278 3.99389187 0 0 Z " fill="#4E6B27" transform="translate(101,0)"/>
<path d="M0 0 C3.00975006 0.23761185 4.53771013 0.51245439 6.64453125 2.734375 C8.24375741 5.40743313 8.37310962 6.97140913 8.3125 10.0625 C8.30863281 10.91972656 8.30476562 11.77695313 8.30078125 12.66015625 C8 15 8 15 6 18 C5.01 18 4.02 18 3 18 C3 20.31 3 22.62 3 25 C2.34 25 1.68 25 1 25 C1 22.69 1 20.38 1 18 C-0.32 17.34 -1.64 16.68 -3 16 C-3.37302695 5.32728444 -3.37302695 5.32728444 -1 1 C-0.67 0.67 -0.34 0.34 0 0 Z " fill="#8DBA5E" transform="translate(236,81)"/>
<path d="M0 0 C0.9384375 0.55042969 1.876875 1.10085937 2.84375 1.66796875 C3.8234375 2.25191406 4.803125 2.83585937 5.8125 3.4375 C7.87040823 4.57087768 9.93273363 5.69628272 12 6.8125 C13.60416667 7.6875 15.20833333 8.5625 16.8125 9.4375 C13.42002452 10.56832516 11.57392069 10.32600516 8.05078125 9.87890625 C6.93251953 9.74033203 5.81425781 9.60175781 4.66210938 9.45898438 C2.91124023 9.23178711 2.91124023 9.23178711 1.125 9 C-0.05384766 8.85240234 -1.23269531 8.70480469 -2.44726562 8.55273438 C-5.36148855 8.1869817 -8.27477922 7.81499874 -11.1875 7.4375 C-11.1875 4.4675 -11.1875 1.4975 -11.1875 -1.5625 C-6.42448477 -2.73760887 -4.18929738 -2.52878919 0 0 Z " fill="#1F907A" transform="translate(107.1875,59.5625)"/>
<path d="M0 0 C2.29633824 3.44450737 2.54016485 5.93812283 3 10 C3.66 10 4.32 10 5 10 C4.938125 10.70125 4.87625 11.4025 4.8125 12.125 C5.04256101 15.65260212 6.29200568 17.93984351 8 21 C6.02 21 4.04 21 2 21 C2 21.99 2 22.98 2 24 C1.01 24 0.02 24 -1 24 C-1 23.01 -1 22.02 -1 21 C-2.98 21 -4.96 21 -7 21 C-6.690625 19.9275 -6.38125 18.855 -6.0625 17.75 C-5.33187904 15.17133778 -4.62517096 12.60487898 -4 10 C-3.34 10 -2.68 10 -2 10 C-1.34 6.7 -0.68 3.4 0 0 Z " fill="#5A8537" transform="translate(374,45)"/>
<path d="M0 0 C2 3 2 3 3 6 C3.66 6.33 4.32 6.66 5 7 C5 5.35 5 3.7 5 2 C5.33 2 5.66 2 6 2 C6 3.98 6 5.96 6 8 C7.65 8 9.3 8 11 8 C10.34 9.32 9.68 10.64 9 12 C8.01 12 7.02 12 6 12 C6 14.31 6 16.62 6 19 C5.34 19 4.68 19 4 19 C4 16.69 4 14.38 4 12 C2.68 11.34 1.36 10.68 0 10 C0 6.7 0 3.4 0 0 Z " fill="#868551" transform="translate(233,87)"/>
<path d="M0 0 C0.33 0 0.66 0 1 0 C1.33 2.64 1.66 5.28 2 8 C2.66 8 3.32 8 4 8 C4.12375 7.236875 4.2475 6.47375 4.375 5.6875 C5 3 5 3 7 0 C8.32 2.97 9.64 5.94 11 9 C9.02 9 7.04 9 5 9 C5 9.99 5 10.98 5 12 C4.01 12 3.02 12 2 12 C2 11.01 2 10.02 2 9 C0.02 9 -1.96 9 -4 9 C-2.68 6.03 -1.36 3.06 0 0 Z " fill="#507733" transform="translate(371,57)"/>
<path d="M0 0 C2.26098544 2.26098544 2.58357456 2.89480287 3 6 C2.75783782 8.61646488 2.45694606 11.15792587 2.0625 13.75 C1.96259766 14.44738281 1.86269531 15.14476562 1.75976562 15.86328125 C1.51334127 17.57651726 1.25759045 19.28840725 1 21 C-0.65 21.33 -2.3 21.66 -4 22 C-3.81824219 21.12601563 -3.81824219 21.12601563 -3.6328125 20.234375 C-2.25920651 13.51427184 -1.09358533 6.77092195 0 0 Z " fill="#547C2B" transform="translate(101,0)"/>
<path d="M0 0 C1 1 1 1 1.0625 3.5625 C1.041875 4.366875 1.02125 5.17125 1 6 C-1.97 6 -4.94 6 -8 6 C-8.66 4.35 -9.32 2.7 -10 1 C-6.42721532 -1.33605152 -4.06815321 -0.99443745 0 0 Z " fill="#90BB5D" transform="translate(290,20)"/>
<path d="M0 0 C0 1.65 0 3.3 0 5 C-1.45742463 5.08096803 -2.91612807 5.13917774 -4.375 5.1875 C-5.18710938 5.22230469 -5.99921875 5.25710937 -6.8359375 5.29296875 C-7.55007812 5.19628906 -8.26421875 5.09960938 -9 5 C-9.66 4.01 -10.32 3.02 -11 2 C-8.74490247 -2.51019507 -4.15738698 -0.70597137 0 0 Z " fill="#8FBB5F" transform="translate(102,44)"/>
<path d="M0 0 C3.18418863 3.4610746 3.43768563 6.42115438 4 11 C4.97549761 13.81862203 4.97549761 13.81862203 6 16 C4.68 16.33 3.36 16.66 2 17 C2 15.68 2 14.36 2 13 C1.67 11.88625 1.34 10.7725 1 9.625 C0.05618626 6.20367518 -0.17171487 3.52015482 0 0 Z " fill="#3F5E1F" transform="translate(103,6)"/>
<path d="M0 0 C0.99 0.33 1.98 0.66 3 1 C3 1.66 3 2.32 3 3 C3.99 3.33 4.98 3.66 6 4 C5.67 4.99 5.34 5.98 5 7 C2.625 7.125 2.625 7.125 0 7 C-0.66 6.34 -1.32 5.68 -2 5 C-1.46428571 1.46428571 -1.46428571 1.46428571 0 0 Z " fill="#8FB95C" transform="translate(278,25)"/>
<path d="M0 0 C1.2065625 0.0309375 1.2065625 0.0309375 2.4375 0.0625 C3.0975 1.3825 3.7575 2.7025 4.4375 4.0625 C2.4375 6.0625 2.4375 6.0625 -0.1875 6.1875 C-0.97125 6.14625 -1.755 6.105 -2.5625 6.0625 C-2.94468767 4.40635343 -3.27645102 2.73792976 -3.5625 1.0625 C-2.5625 0.0625 -2.5625 0.0625 0 0 Z " fill="#8FB95D" transform="translate(289.5625,27.9375)"/>
<path d="M0 0 C5 7.5 5 7.5 5 12 C1.125 11.125 1.125 11.125 0 10 C-0.07205511 8.31391034 -0.08386068 6.62499341 -0.0625 4.9375 C-0.05347656 4.01839844 -0.04445312 3.09929687 -0.03515625 2.15234375 C-0.02355469 1.44207031 -0.01195312 0.73179688 0 0 Z " fill="#799A48" transform="translate(233,87)"/>
<path d="M0 0 C1.98 0.66 3.96 1.32 6 2 C5.67 3.32 5.34 4.64 5 6 C3.35 6 1.7 6 0 6 C-0.38218767 4.34385343 -0.71395102 2.67542976 -1 1 C-0.67 0.67 -0.34 0.34 0 0 Z " fill="#8FBA5F" transform="translate(98,51)"/>
<path d="M0 0 C1.32 0 2.64 0 4 0 C4 0.66 4 1.32 4 2 C4.99 2.33 5.98 2.66 7 3 C6.67 3.99 6.34 4.98 6 6 C4.33388095 6.042721 2.66617115 6.04063832 1 6 C0 5 0 5 -0.0625 2.4375 C-0.041875 1.633125 -0.02125 0.82875 0 0 Z " fill="#90B95D" transform="translate(88,49)"/>
<path d="M0 0 C2.01696222 3.02544334 2.25811096 3.61067382 2.1875 7 C2.18105469 7.680625 2.17460937 8.36125 2.16796875 9.0625 C2 11 2 11 1 14 C0.34 14 -0.32 14 -1 14 C-1.027193 12.41676312 -1.04648306 10.83338938 -1.0625 9.25 C-1.07410156 8.36828125 -1.08570313 7.4865625 -1.09765625 6.578125 C-1.00826198 4.2181162 -0.66912821 2.25501476 0 0 Z " fill="#A07252" transform="translate(284,30)"/>
<path d="M0 0 C2.64 0.66 5.28 1.32 8 2 C8 2.99 8 3.98 8 5 C3.48279689 5.36625971 3.48279689 5.36625971 1.1875 3.625 C0 2 0 2 0 0 Z " fill="#74A244" transform="translate(275,30)"/>
<path d="M0 0 C1.98362069 2.91708924 1.9876191 4.12380904 1.625 7.75 C1.41875 8.8225 1.2125 9.895 1 11 C0.34 11 -0.32 11 -1 11 C-1.125 3.375 -1.125 3.375 0 0 Z " fill="#629333" transform="translate(101,10)"/>
<path d="M0 0 C0.66 0.33 1.32 0.66 2 1 C1.67 2.98 1.34 4.96 1 7 C0.01 7 -0.98 7 -2 7 C-2 6.01 -2 5.02 -2 4 C-2.66 3.67 -3.32 3.34 -4 3 C-3.34 2.67 -2.68 2.34 -2 2 C-1.34 2.33 -0.68 2.66 0 3 C0 2.01 0 1.02 0 0 Z " fill="#61732F" transform="translate(375,62)"/>
<path d="M0 0 C2.2477975 2.05233685 3.0022242 3.00667261 4 6 C2.68 6.33 1.36 6.66 0 7 C0 4.66666667 0 2.33333333 0 0 Z " fill="#456723" transform="translate(105,16)"/>
<path d="" fill="#3B6214" transform="translate(0,0)"/>
</svg>
