<svg width="138" height="73" viewBox="0 0 138 73" fill="none" xmlns="http://www.w3.org/2000/svg">
<path d="M14.3789 11.8193C15.408 13.119 19.282 15.7725 26.5338 16.0061C34.0796 16.2496 35.5146 16.7608 38.408 17.797C38.991 18.0046 39.6342 18.2342 40.3976 18.4878C42.4825 19.1786 44.6274 19.9613 46.4233 20.6181C48.5465 21.3928 50.1786 21.9878 50.6414 22.0417C51.495 22.1375 53.4429 21.6484 53.9708 21.0654C54.5003 20.4804 55.9069 19.5739 56.9377 19.6478C57.7713 19.7097 59.3098 20.3566 59.3098 20.3566C59.3098 20.3566 60.8451 20.8238 61.9844 19.9473C62.549 19.512 65.3021 17.7211 68.005 15.9601C70.743 14.1772 73.4259 12.4302 73.7333 12.1607C74.3431 11.6256 77.1078 10.0184 79.4649 9.38743C81.8237 8.75452 93.3288 5.00697 95.7678 3.39973C96.9188 2.64103 98.0531 1.99215 98.9969 1.45108C100.053 0.84612 100.871 0.37493 101.215 0.0415033C101.865 -0.591408 97.1911 6.17496 90.1982 9.38743C83.2053 12.5979 69.3014 22.0417 69.3014 22.0417C69.3014 22.0417 64.6957 23.8765 64.0575 27.4504C63.7902 28.9458 63.8905 30.4313 63.979 31.749C64.0191 32.35 64.0575 32.915 64.0575 33.4301C64.0575 33.6936 64.0842 33.9991 64.1126 34.3046C64.2095 35.3867 64.3048 36.4569 63.1638 35.6203C62.0462 34.8017 61.8992 35.4926 61.7672 36.1255C61.7254 36.3211 61.6853 36.5108 61.6185 36.6486C61.3345 37.2336 59.9931 36.2592 58.6917 34.4583C57.4271 32.7073 56.9995 32.2481 55.227 30.3434L55.0733 30.1757C51.4549 26.2824 38.6903 21.9918 34.95 21.4088C31.2096 20.8238 17.7534 18.0985 14.3789 11.8193Z" fill="#2C9A7F"/>
<mask id="mask0_1639_1679" style="mask-type:luminance" maskUnits="userSpaceOnUse" x="43" y="56" width="42" height="17">
<path d="M43.5156 56.1787H84.1432V72.9998H43.5156V56.1787Z" fill="white"/>
</mask>
<g mask="url(#mask0_1639_1679)">
<path d="M43.6992 61.5334C44.1753 62.1204 45.9595 63.3204 49.3005 63.4262C52.7769 63.536 53.4385 63.7676 54.7716 64.2348C55.0405 64.3286 55.3362 64.4325 55.6887 64.5463C56.6493 64.8597 57.6366 65.2131 58.4635 65.5086H58.4651C59.4424 65.86 60.1958 66.1295 60.408 66.1535C60.8022 66.1974 61.1196 66.1295 61.3635 65.866C61.6074 65.6024 61.8513 65.4267 62.5446 65.5146C62.5931 65.5246 62.6398 65.5386 62.6883 65.5525C62.862 65.6064 63.0758 65.6723 63.6305 65.6024C63.8192 65.5805 64.0113 65.5685 64.2018 65.5585C64.7314 65.5286 65.2492 65.4986 65.6351 65.2071C65.8941 65.0095 67.1637 64.2009 68.4082 63.4042C69.6695 62.5996 70.9057 61.809 71.0477 61.6872C71.3283 61.4456 72.603 60.7208 73.6888 60.4333C74.7747 60.1478 80.077 58.4547 81.1996 57.728C81.7308 57.3866 82.252 57.0931 82.688 56.8475C83.1741 56.574 83.5517 56.3623 83.7104 56.2106C84.0094 55.9251 81.8561 58.9818 78.6336 60.4333C75.4128 61.8848 69.0063 66.1535 69.0063 66.1535C69.0063 66.1535 66.883 66.9821 66.589 68.5973C66.467 69.2741 66.5122 69.945 66.5539 70.54C66.5723 70.8115 66.589 71.067 66.589 71.2987C66.589 71.4184 66.6024 71.5582 66.6157 71.694C66.6592 72.1831 66.7043 72.6663 66.178 72.2889C65.6618 71.9196 65.595 72.233 65.5349 72.5186C65.5148 72.6064 65.4965 72.6923 65.4664 72.7541C65.3344 73.0177 64.7163 72.5785 64.1166 71.7639C63.5352 70.9732 63.3381 70.7656 62.5212 69.905L62.4494 69.8292C60.7839 68.0702 54.9019 66.1295 53.1779 65.866C51.4555 65.6024 45.2545 64.3706 43.6992 61.5334Z" fill="#2C9A7F"/>
</g>
<path d="M4.18972 43.7623C1.68892 43.6824 0.354155 42.79 0 42.3527C1.1627 44.4651 5.80013 45.3835 7.08979 45.5792C8.37945 45.7768 12.7797 47.2203 14.0276 48.5301L14.081 48.586C14.6908 49.2289 14.8378 49.3826 15.2738 49.9716C15.7232 50.5786 16.1859 50.906 16.2828 50.7084C16.3062 50.6624 16.3195 50.5985 16.3346 50.5327C16.3797 50.321 16.4298 50.0874 16.8157 50.3629C17.2099 50.6445 17.1765 50.2851 17.1431 49.9197C17.1331 49.8179 17.1247 49.7141 17.1247 49.6262C17.1247 49.4525 17.1114 49.2628 17.0963 49.0592C17.0663 48.616 17.0329 48.1168 17.1247 47.6137C17.3436 46.4117 18.9323 45.7928 18.9323 45.7928C18.9323 45.7928 23.7251 42.6143 26.1356 41.5341C28.5446 40.454 30.1566 38.1759 29.9328 38.3895C29.8142 38.5013 29.5319 38.6591 29.1677 38.8627C28.8419 39.0464 28.451 39.264 28.0551 39.5196C27.2131 40.0607 23.2473 41.3205 22.4354 41.5341C21.6218 41.7478 20.6696 42.2868 20.4591 42.4685C20.3539 42.5584 19.4284 43.1474 18.4846 43.7463C17.5541 44.3393 16.6035 44.9423 16.4097 45.088C16.1207 45.3056 15.7332 45.3276 15.3373 45.3496C15.1953 45.3576 15.0516 45.3655 14.9096 45.3835C14.4953 45.4354 14.3349 45.3855 14.2046 45.3476C14.1679 45.3356 14.1345 45.3256 14.0977 45.3176C13.5782 45.2517 13.3961 45.3835 13.214 45.5792C13.0319 45.7768 12.793 45.8267 12.499 45.7928C12.3403 45.7748 11.7773 45.5752 11.0456 45.3136C10.4259 45.094 9.68748 44.8305 8.96748 44.5969C8.7052 44.513 8.48302 44.4351 8.28255 44.3653C7.28524 44.0159 6.79076 43.8442 4.18972 43.7623Z" fill="#2C9A7F"/>
<path d="M89.0215 22.3651C89.5694 23.1297 91.6776 24.755 95.7354 25.1283C99.9602 25.5176 100.75 25.8531 102.349 26.5339C102.67 26.6717 103.024 26.8214 103.447 26.9891C104.599 27.4483 105.784 27.9614 106.773 28.3907C107.945 28.8978 108.846 29.2872 109.105 29.3331C109.581 29.4169 110.683 29.2053 110.994 28.8938C111.303 28.5824 112.113 28.1192 112.69 28.195C113.154 28.2569 114.001 28.6742 114.001 28.6742C114.001 28.6742 114.851 28.9897 115.51 28.5325C115.837 28.3068 117.422 27.3884 118.979 26.488C120.555 25.5755 122.1 24.6811 122.279 24.5393C122.633 24.2578 124.22 23.4452 125.556 23.1677C126.893 22.8902 133.43 21.1651 134.833 20.3405C135.498 19.9532 136.148 19.6238 136.689 19.3502C137.295 19.0448 137.765 18.8072 137.965 18.6315C138.346 18.2961 135.566 21.9518 131.572 23.5271C127.576 25.1024 119.562 29.956 119.562 29.956C119.562 29.956 116.938 30.8365 116.495 32.8291C116.31 33.6616 116.332 34.5022 116.35 35.2469C116.358 35.5863 116.367 35.9058 116.355 36.1973C116.348 36.345 116.357 36.5187 116.365 36.6904C116.393 37.3034 116.422 37.9103 115.802 37.4012C115.194 36.9021 115.097 37.2874 115.007 37.6388C114.98 37.7466 114.952 37.8524 114.912 37.9283C114.738 38.2478 114.009 37.6548 113.323 36.5966C112.655 35.5684 112.427 35.2948 111.479 34.1628L111.397 34.063C109.461 31.7489 102.408 28.9058 100.324 28.4526C98.2429 27.9994 90.7655 26.0128 89.0215 22.3651Z" fill="#2C9A7F"/>
</svg>
