<svg width="68" height="91" viewBox="0 0 68 91" fill="none" xmlns="http://www.w3.org/2000/svg">
<mask id="mask0_1639_2010" style="mask-type:luminance" maskUnits="userSpaceOnUse" x="0" y="0" width="68" height="91">
<path d="M0 0H68V90.2971H0V0Z" fill="white"/>
</mask>
<g mask="url(#mask0_1639_2010)">
<path fill-rule="evenodd" clip-rule="evenodd" d="M31.7866 90.1055H31.2965C31.2965 58.818 26.5585 56.5444 -0.0644531 56.5444V56.0213C26.5585 56.0213 31.2965 53.7477 31.2965 22.4657H31.7866C31.7866 53.7477 36.5245 56.0213 63.1424 56.0213V56.5444C36.5245 56.5444 31.7866 58.818 31.7866 90.1055ZM60.9587 47.5199H60.8505C60.8505 40.5157 59.7857 40.0035 53.8267 40.0035V39.8878C59.7857 39.8878 60.8505 39.3756 60.8505 32.3714H60.9587C60.9587 39.3756 62.0174 39.8878 67.9774 39.8878V40.0035C62.0174 40.0035 60.9587 40.5157 60.9587 47.5199ZM47.3777 30.1153H47.1633C47.1633 16.2095 45.0552 15.2026 33.2281 15.2026V14.9668C45.0552 14.9668 47.1633 13.9588 47.1633 0.0595703H47.3777C47.3777 13.9588 49.4869 14.9668 61.313 14.9668V15.2026C49.4869 15.2026 47.3777 16.2095 47.3777 30.1153Z" fill="white"/>
</g>
</svg>
