<svg width="726" height="789" viewBox="0 0 726 789" fill="none" xmlns="http://www.w3.org/2000/svg">
<path d="M166.482 511.538C170.076 512.633 173.72 512.347 177.155 510.882C181.205 509.159 184.521 506.228 187.571 503.212C190.966 499.862 194.263 496.446 197.877 493.296C212.876 480.278 230.638 470.762 247.993 461.027C265.072 451.444 282.17 441.338 296.04 427.597C302.802 420.897 308.693 413.389 313.059 405.034C317.267 396.964 320.435 387.277 317.326 378.341C314.802 371.062 307.426 364.124 298.882 365.4C293.932 366.132 289.189 369.672 287.516 374.211C285.774 369.549 282.546 365.428 278.497 362.307C273.636 358.557 267.487 356.159 261.23 355.941C254.775 355.722 248.528 357.939 243.766 362.145C237.192 367.95 233.529 376.924 234.222 385.488C230.004 377.713 224.915 370.234 217.45 365.067C209.055 359.252 197.877 356.597 188.204 361.098C179.026 365.381 173.245 374.335 169.255 383.014C164.512 393.339 161.522 404.406 160.334 415.626C159.433 424.085 159.572 432.64 160.74 441.062C160.057 439.873 159.255 438.74 158.295 437.731C155.503 434.829 151.543 433.468 147.483 434.21C143.989 434.848 140.82 436.77 138.523 439.349C135.801 442.385 134.514 446.439 134.128 450.369C133.702 454.575 134.227 458.838 135.068 462.968C135.821 466.632 136.88 470.238 138.217 473.75C142.375 484.684 149.305 494.628 158.216 502.498C158.255 503.668 158.532 504.82 159.077 505.876C160.522 508.683 163.433 510.606 166.482 511.538Z" fill="#36754A"/>
<path d="M575.216 440.426C570.385 432.937 562.029 427.827 553.92 428.778C552.831 428.902 551.782 429.159 550.762 429.502C553.356 422.945 554.673 415.722 554.613 408.319C554.544 401.02 552.97 392.836 546.614 388.145C540.733 383.805 533.347 383.929 527.525 386.508C521.12 389.325 515.754 394.482 511.229 399.878C507.804 403.96 504.853 408.5 502.408 413.362C503.081 408.424 503.002 403.332 500.794 398.422C499.368 395.244 497.17 392.427 494.25 390.695C491.2 388.897 487.805 388.525 484.617 389.02C477.934 390.057 472.32 394.378 467.429 398.774C462.469 403.237 458.073 408.385 454.371 414.105C451.4 418.682 448.886 423.602 446.846 428.778C445.579 429.702 444.569 430.958 444.034 432.68C443.44 434.602 443.539 436.82 444.638 438.723C445.807 440.75 447.935 442.149 449.787 443.357C457.291 448.277 465.835 450.104 474.112 451.57C482.488 453.045 491.072 454.167 499.151 457.803C506.517 461.114 513.14 466.205 519.14 472.01C525.347 478.015 530.931 484.724 536.515 491.394C542.099 498.075 547.703 504.784 553.91 510.817C555.504 512.358 557.583 514.252 559.732 513.605C560.751 513.3 561.454 512.453 562.078 511.607C562.771 510.655 563.444 509.675 564.108 508.695C566.751 504.764 569.167 500.644 571.305 496.352C573.454 492.041 575.345 487.569 576.949 482.954C578.582 478.243 579.949 473.361 580.632 468.289C581.869 459.04 580.642 448.819 575.216 440.426Z" fill="#36754A"/>
<path d="M559.788 575.725C559.788 689.129 464.258 781.054 346.413 781.054C228.567 781.054 133.037 689.129 133.037 575.725C133.037 462.322 228.567 370.387 346.413 370.387C464.258 370.387 559.788 462.322 559.788 575.725Z" fill="#9CC9FF"/>
<path d="M380.562 394.881C380.028 386.041 378.048 375.725 372.127 372.195C367.989 369.74 362.336 369.73 357.613 369.502C294.973 366.381 233.481 387.573 181.394 438.275C175.236 444.27 169.127 450.341 164.029 457.174C158.613 464.453 153.791 472.39 151.128 480.973C148.475 489.509 148.257 498.797 152.742 506.819C156.524 513.566 162.771 518.648 168.553 523.815C174.602 529.22 180.513 535.072 182.77 542.885C185.136 551.116 183.78 559.833 182.79 568.16C181.83 576.229 180.859 584.775 183.78 592.597C186.424 599.715 192.116 604.911 198.918 608.556C206.106 612.41 214.026 614.751 221.541 617.91C229.827 621.402 237.084 626.246 243.044 632.765C256.578 647.562 261.608 667.26 262.42 686.445C262.479 687.901 262.519 689.347 262.539 690.803C261.083 699.358 260.311 708.027 260.311 716.706C260.311 723.329 260.182 732.331 266.182 736.956C272.964 742.181 281.468 736.823 284.676 730.533C286.706 726.565 287.636 722.13 288.587 717.838C289.557 713.442 290.359 709.007 291.062 704.573C293.864 686.93 295.111 669.002 299.576 651.625C301.764 643.099 304.774 634.725 309.12 626.969C313.665 618.881 319.813 611.905 325.922 604.863C331.763 598.135 337.574 591.17 341.158 583.081C344.337 575.906 345.713 567.96 345.039 560.195C344.386 552.553 341.733 545.026 336.822 538.888C331.02 531.627 322.506 527.193 314.685 522.207C305.992 516.659 297.735 510.511 289.983 503.821C286.458 500.767 282.805 497.598 280.538 493.544C277.964 488.919 277.914 483.571 278.855 478.518C280.34 470.62 283.31 461.218 289.597 455.518C297.428 448.419 308.091 451.759 317.605 452.501C334.723 453.833 352.762 448.771 365.395 437.485C374.919 428.977 380.157 417.453 380.652 405.006C380.76 402.389 380.8 398.773 380.562 394.881Z" fill="#204D3D"/>
<path d="M344.494 435.81C338.128 435.81 333.019 430.738 333.227 424.609L343.127 132.76H345.85L355.75 424.609C355.958 430.738 350.85 435.81 344.494 435.81Z" fill="#C8CCDE"/>
<path d="M496.445 157.892C495.653 156.922 494.356 156.484 493.207 156.046C490.613 155.056 488 154.086 485.386 153.125C480.059 151.174 474.713 149.299 469.337 147.482C458.585 143.866 447.744 140.535 436.804 137.48C425.963 134.454 415.033 131.637 404.024 129.268C398.658 128.107 393.252 127.127 387.767 126.651C382.48 126.194 377.144 126.261 371.857 126.689C366.57 127.127 361.313 127.945 356.115 129.001C353.6 129.515 351.056 130.029 348.581 130.724C348.106 130.857 347.64 131 347.175 131.152C345.69 123.482 343.512 115.945 340.839 108.589C337.364 99.0257 333.126 89.738 328.602 80.6026C323.929 71.1626 319.018 61.8273 314.068 52.5206C308.909 42.8237 303.603 33.1839 297.89 23.7725C295.059 19.1096 292.128 14.5038 289.079 9.97412C287.534 7.68074 285.96 5.41591 284.356 3.17963C283.297 1.6856 281.634 -0.217616 279.525 0.0202857C278.446 0.134479 277.594 0.88625 277.248 1.86641C276.852 3.03689 277.178 4.32156 277.426 5.48252C277.99 8.11848 278.574 10.7544 279.178 13.3904C280.396 18.7384 281.693 24.0675 283.069 29.3965C285.812 40.0259 288.861 50.5888 292.207 61.066C295.514 71.4481 299.058 81.7826 303.038 91.9553C304.969 96.8941 307.078 101.795 309.672 106.467C312.177 110.978 315.147 115.232 318.424 119.247C321.701 123.273 325.295 127.051 329.057 130.657C330.889 132.408 332.73 134.178 334.69 135.786C335.492 136.443 336.334 137.081 337.225 137.661C331.592 142.381 326.364 147.539 321.463 152.963C314.563 160.614 308.296 168.769 302.306 177.086C296.118 185.679 290.138 194.415 284.208 203.17C278.02 212.305 271.971 221.526 266.318 230.976C263.516 235.658 260.813 240.397 258.249 245.183C256.952 247.61 255.694 250.056 254.467 252.501C253.655 254.129 252.764 256.46 254.021 258.106C254.665 258.953 255.764 259.296 256.813 259.086C258.07 258.849 259.06 257.935 259.991 257.145C262.09 255.366 264.179 253.567 266.248 251.759C270.466 248.086 274.634 244.346 278.753 240.559C286.97 232.974 294.989 225.19 302.771 217.187C310.494 209.27 318.058 201.171 325.245 192.797C328.75 188.724 332.116 184.528 335.037 180.046C337.859 175.716 340.225 171.11 342.215 166.381C344.215 161.642 345.838 156.769 347.215 151.84C347.888 149.442 348.571 147.025 349.046 144.589C355.501 147.006 362.125 148.966 368.847 150.584C379.055 153.03 389.45 154.704 399.875 156.075C410.637 157.483 421.439 158.644 432.24 159.757C443.507 160.928 454.783 161.937 466.1 162.498C471.703 162.774 477.317 162.945 482.931 162.964C485.752 162.974 488.584 162.955 491.415 162.888C493.287 162.85 495.861 162.555 496.811 160.738C497.306 159.795 497.118 158.701 496.445 157.892Z" fill="#DADEED"/>
<path d="M348.662 134.968C345.236 132.275 339.554 133.512 338.088 137.652C337.425 139.517 337.732 141.725 338.821 143.39C339.989 145.151 341.979 146.178 344.147 146.178C346.514 146.188 348.86 145.046 350.088 143.076C350.632 142.191 349.197 141.382 348.652 142.267C346.999 144.913 342.662 145.446 340.573 143C339.593 141.858 339.187 140.212 339.494 138.775C339.811 137.262 340.851 136.053 342.355 135.482C344.009 134.864 346.078 134.987 347.484 136.101C347.83 136.377 348.325 136.434 348.662 136.101C348.959 135.825 349.009 135.244 348.662 134.968Z" fill="#1E272E"/>
<path d="M196.273 491.651L189.165 276.378H187.323L180.215 491.651C180.076 496.019 183.71 499.635 188.244 499.635C192.779 499.635 196.412 496.019 196.273 491.651Z" fill="#C8CCDE"/>
<path d="M86.4248 266.88C87.1079 266.375 88.0287 266.29 88.8504 266.185C90.7117 265.938 92.5829 265.7 94.4541 265.481C98.2559 265.034 102.058 264.634 105.869 264.282C113.493 263.587 121.146 263.083 128.799 262.788C136.383 262.483 143.986 262.331 151.58 262.493C155.273 262.559 158.976 262.759 162.629 263.292C166.163 263.816 169.638 264.682 173.015 265.785C176.401 266.889 179.697 268.241 182.915 269.725C184.479 270.448 186.054 271.181 187.549 272.028C189.113 267.803 190.984 263.692 193.083 259.686C196.281 253.605 199.964 247.771 203.815 242.071C207.805 236.171 211.933 230.366 216.092 224.581C220.428 218.557 224.854 212.581 229.537 206.786C231.853 203.921 234.229 201.095 236.675 198.335C237.912 196.946 239.17 195.566 240.447 194.205C241.298 193.311 242.585 192.188 243.962 192.511C244.674 192.683 245.169 193.263 245.308 193.939C245.476 194.757 245.13 195.585 244.863 196.337C244.239 198.05 243.605 199.753 242.962 201.457C241.655 204.93 240.298 208.365 238.893 211.801C236.091 218.662 233.081 225.447 229.893 232.146C226.725 238.788 223.408 245.373 219.824 251.816C218.082 254.947 216.22 258.039 214.062 260.923C211.983 263.72 209.607 266.309 207.052 268.707C204.488 271.114 201.746 273.322 198.904 275.406C197.528 276.415 196.142 277.443 194.687 278.347C194.41 278.518 194.122 278.68 193.835 278.841C197.251 282.943 200.271 287.32 202.993 291.869C206.528 297.769 209.577 303.926 212.428 310.168C215.359 316.601 218.141 323.11 220.893 329.629C223.755 336.423 226.527 343.256 228.992 350.203C230.22 353.638 231.368 357.092 232.427 360.585C232.952 362.345 233.467 364.106 233.942 365.876C234.259 367.056 234.536 368.702 233.487 369.635C232.952 370.12 232.18 370.206 231.507 369.939C230.715 369.625 230.18 368.892 229.675 368.264C228.527 366.827 227.388 365.381 226.259 363.934C223.963 360.984 221.715 357.996 219.507 354.989C215.082 348.966 210.834 342.828 206.765 336.585C202.726 330.4 198.805 324.119 195.172 317.705C193.41 314.584 191.746 311.396 190.41 308.075C189.133 304.868 188.182 301.537 187.499 298.159C186.816 294.79 186.39 291.365 186.143 287.939C186.014 286.274 185.885 284.599 185.895 282.924C185.905 282.239 185.935 281.544 186.024 280.859C181.044 281.544 176.024 281.839 170.995 281.858C163.916 281.877 156.847 281.363 149.808 280.64C142.541 279.898 135.294 278.984 128.056 278.042C120.502 277.062 112.958 275.977 105.473 274.588C101.771 273.903 98.0777 273.141 94.4046 272.294C92.5631 271.866 90.7117 271.409 88.8801 270.934C87.6624 270.61 86.0288 270.02 85.7119 268.688C85.5436 267.993 85.8506 267.308 86.4248 266.88Z" fill="#DADEED"/>
<path d="M189.154 274.407C191.49 274.369 193.48 276.729 192.678 278.917C191.886 281.04 189.084 282.039 187.193 280.602C186.134 279.793 185.57 278.546 185.738 277.262C185.787 276.833 185.312 276.453 184.906 276.453C184.401 276.453 184.124 276.824 184.075 277.262C183.649 280.497 186.916 283.438 190.233 282.81C191.827 282.505 193.302 281.382 194.005 279.974C194.757 278.489 194.678 276.795 193.797 275.377C192.817 273.836 191.045 272.78 189.154 272.799C188.084 272.818 188.074 274.416 189.154 274.407Z" fill="#1E272E"/>
<path d="M560.373 508.979C553.116 488.805 542.423 469.801 528.909 452.872C519.286 440.796 507.445 429.558 494.891 419.842C487.258 413.942 465.14 392.968 454.982 398.649C451.042 400.857 448.854 405.196 447.448 409.203C445.408 415.008 444.527 421.288 443.409 427.312C440.874 440.939 439.003 454.671 437.498 468.431C436.003 482.039 434.508 495.733 433.904 509.407C433.617 515.907 433.726 522.444 434.785 528.887C435.686 534.368 437.221 539.906 440.33 544.645C442.973 548.652 446.874 552.087 451.854 552.981C455.17 553.581 458.507 553.058 461.833 552.743C465.031 552.439 468.13 552.506 471.209 553.457C483.822 557.349 489.406 570.196 493.05 581.339C496.871 593.054 499.218 605.149 501.237 617.263C505.217 641.1 507.91 665.604 518.118 687.92C519.306 690.527 520.464 693.344 522.147 695.685C523.573 697.693 525.682 698.863 528.236 698.254C543.899 694.543 551.72 667.479 556.136 655.194C564.967 630.595 570.472 604.749 571.194 578.684C571.858 555.037 568.412 531.361 560.373 508.979Z" fill="#204D3D"/>
<path d="M512.754 495.695L505.507 276.378H503.665L496.428 495.695C496.28 500.13 499.982 503.803 504.586 503.803C509.2 503.803 512.893 500.13 512.754 495.695Z" fill="#C8CCDE"/>
<path d="M606.399 266.88C605.725 266.375 604.805 266.29 603.983 266.185C602.112 265.938 600.24 265.7 598.379 265.481C594.577 265.034 590.766 264.634 586.954 264.282C579.331 263.587 571.687 263.083 564.034 262.788C556.441 262.483 548.837 262.331 541.243 262.493C537.55 262.559 533.848 262.759 530.194 263.292C526.66 263.816 523.195 264.682 519.809 265.785C516.423 266.889 513.126 268.241 509.908 269.725C508.354 270.448 506.78 271.181 505.275 272.028C503.72 267.803 501.839 263.692 499.74 259.686C496.543 253.605 492.87 247.771 489.008 242.071C485.018 236.171 480.89 230.366 476.732 224.581C472.395 218.557 467.97 212.581 463.287 206.786C460.98 203.921 458.604 201.095 456.149 198.335C454.911 196.946 453.654 195.566 452.376 194.205C451.525 193.311 450.248 192.188 448.862 192.511C448.149 192.683 447.654 193.263 447.515 193.939C447.357 194.757 447.694 195.585 447.961 196.337C448.585 198.05 449.218 199.753 449.862 201.457C451.169 204.93 452.525 208.365 453.931 211.801C456.743 218.662 459.742 225.447 462.94 232.146C466.099 238.788 469.415 245.373 472.999 251.816C474.742 254.947 476.603 258.039 478.761 260.923C480.85 263.72 483.226 266.309 485.781 268.707C488.335 271.114 491.078 273.322 493.919 275.406C495.295 276.415 496.681 277.443 498.146 278.347C498.424 278.518 498.701 278.68 498.988 278.841C495.582 282.943 492.553 287.32 489.83 291.869C486.296 297.769 483.246 303.926 480.405 310.168C477.464 316.601 474.682 323.11 471.94 329.629C469.069 336.423 466.306 343.256 463.831 350.203C462.614 353.638 461.455 357.092 460.406 360.585C459.871 362.345 459.366 364.106 458.881 365.876C458.564 367.056 458.287 368.702 459.337 369.635C459.871 370.12 460.643 370.206 461.317 369.939C462.109 369.625 462.643 368.892 463.148 368.264C464.297 366.827 465.435 365.381 466.564 363.934C468.861 360.984 471.108 357.996 473.326 354.989C477.742 348.966 481.989 342.828 486.068 336.585C490.097 330.4 494.018 324.119 497.651 317.705C499.414 314.584 501.077 311.396 502.414 308.075C503.691 304.868 504.641 301.537 505.324 298.159C506.017 294.79 506.433 291.365 506.691 287.939C506.809 286.274 506.938 284.599 506.928 282.924C506.918 282.239 506.889 281.544 506.8 280.859C511.779 281.544 516.809 281.839 521.828 281.858C528.907 281.877 535.976 281.363 543.016 280.64C550.283 279.898 557.53 278.984 564.777 278.042C572.321 277.062 579.865 275.977 587.35 274.588C591.053 273.903 594.746 273.141 598.419 272.294C600.27 271.866 602.112 271.409 603.943 270.934C605.161 270.61 606.795 270.02 607.111 268.688C607.28 267.993 606.973 267.308 606.399 266.88Z" fill="#DADEED"/>
<path d="M503.682 272.799C500.306 272.761 497.395 276.177 498.554 279.346C499.108 280.887 500.405 282.105 502.009 282.657C503.583 283.19 505.316 282.848 506.633 281.867C508.068 280.802 508.989 279.022 508.761 277.262C508.702 276.833 508.415 276.453 507.93 276.453C507.524 276.453 507.038 276.824 507.088 277.262C507.375 279.393 505.395 281.696 503.039 281.268C501.861 281.049 500.861 280.288 500.316 279.27C499.791 278.299 499.871 277.167 500.445 276.234C501.108 275.14 502.336 274.388 503.682 274.407C504.751 274.416 504.751 272.818 503.682 272.799Z" fill="#1E272E"/>
<path d="M627.279 585.442C624.863 580.341 608.072 589.867 603.845 592.76C582.321 607.481 562.114 623.982 543.481 642.006C535.185 650.028 527.195 658.354 519.542 666.957C515.552 671.448 511.651 676.016 507.849 680.641C504.186 683.572 500.889 686.941 499.404 691.251C498.81 692.013 498.216 692.783 497.632 693.554C496.781 694.677 495.919 695.8 495.078 696.932C494.424 697.808 495.919 698.626 496.563 697.77C497.246 696.856 497.939 695.943 498.632 695.039C498.444 697.913 499.226 700.758 501.107 703.061C502.751 705.069 505.117 706.401 507.642 707.143C513.146 708.751 519.413 707.962 524.779 706.239C531.67 704.022 538.254 700.853 544.392 697.123C556.906 689.548 567.688 679.575 577.321 668.86C598.003 645.86 614.607 619.452 626.457 591.266C627.645 588.449 627.824 586.584 627.279 585.442Z" fill="#36754A"/>
<path d="M233.557 676.32C232.111 673.171 229.874 670.411 227.537 667.842C225.042 665.091 222.409 662.446 219.835 659.772C202.756 642.043 183.945 624.324 165.313 607.471C147.541 591.399 128.75 572.072 104.86 564.811C103.068 564.259 101.237 563.831 99.3754 563.526C97.6923 563.26 95.8706 563.041 94.2173 563.631C90.8709 564.82 90.5541 568.455 90.5838 571.415C90.6234 575.05 91.0194 578.676 91.6926 582.254C100.395 628.407 142.809 670.316 178.896 699.197C187.688 706.229 202.608 709.294 213.825 706.306C220.211 704.602 226.033 700.929 230.092 695.876C232.319 693.107 234.101 689.89 234.814 686.426C235.527 682.963 235.022 679.537 233.557 676.32Z" fill="#36754A"/>
<path d="M512.315 472.361C507.909 466.575 498.256 473.76 493.137 477.366C489.613 479.859 483.554 486.387 480.821 489.642C477.772 493.277 474.812 496.969 471.921 500.728C460.317 515.821 450.011 531.827 440.823 548.394C431.626 564.962 423.527 582.072 416.24 599.496C408.914 617.005 402.409 634.838 396.419 652.805C393.41 661.817 390.539 670.866 387.757 679.945C384.826 689.518 381.747 699.177 380.688 709.14C380.202 713.793 380.202 718.485 380.846 723.11C380.361 723.795 379.876 724.48 379.401 725.156C378.985 725.746 379.539 726.612 380.272 726.44C398.33 722.415 412.112 708.369 423.547 695.17C436.279 680.468 446.783 664.138 456.456 647.447C466.396 630.28 475.881 612.799 484.465 594.956C493.197 576.809 500.89 558.139 506.444 538.84C509.137 529.476 511.404 519.951 512.889 510.33C514.206 501.784 514.523 475.254 512.315 472.361Z" fill="#56AB6E"/>
<path d="M633.704 476.349C633.863 473.237 634.011 470.115 633.981 466.994C633.962 464.568 633.665 462.093 632.13 460.086C629.318 456.412 623.903 455.775 619.646 456.974C614.319 458.477 609.626 462.008 605.082 464.958C600.26 468.079 595.528 471.315 590.875 474.645C572.519 487.825 555.431 502.613 539.659 518.59C523.918 534.53 509.453 551.64 496.236 569.578C483.207 587.278 471.366 605.777 460.544 624.8C460.851 625.523 460.812 626.389 460.178 627.226C458.723 629.167 457.297 631.128 455.911 633.126C446.565 650.141 437.981 667.555 430.021 685.217C427.19 694.267 425.111 703.536 423.873 712.938C433.873 711.32 443.961 710.188 453.971 708.598C465.604 706.752 476.999 704.059 487.969 699.853C508.602 691.926 527.264 679.584 543.263 664.834C560.351 649.094 574.499 630.633 586.588 611.134C599.122 590.903 609.983 569.53 618.279 547.367C626.843 524.519 632.427 500.643 633.704 476.349Z" fill="#56AB6E"/>
<path d="M662.427 596.87C658.883 603.313 653.853 610.221 651.665 613.324C647.18 619.68 642.359 625.818 637.23 631.709C627.052 643.395 615.677 654.129 603.341 663.721C591.024 673.294 577.728 681.716 563.739 688.843C549.739 695.971 535.017 701.776 519.84 706.096C501.94 711.187 482.733 714.889 464.08 711.882C463.021 711.701 461.971 711.511 460.912 711.292C461.674 710.331 462.526 709.408 463.377 708.523C465.753 706.068 468.417 703.898 471.278 701.985C477.05 698.112 483.485 695.229 489.98 692.678C496.9 689.947 503.94 687.521 510.84 684.723C518.315 681.697 525.671 678.414 532.899 674.902C547.541 667.803 561.679 659.8 575.471 651.283C589.322 642.728 602.816 633.66 616.162 624.391C622.855 619.738 629.518 615.037 636.171 610.326C643.002 605.501 649.843 600.658 656.833 596.023C660.417 593.654 664.1 593.825 662.427 596.87Z" fill="#56AB6E"/>
<path d="M323.861 703.403C313.733 681.469 298.664 661.989 283.873 642.814C267.517 621.593 250.538 600.829 233.42 580.179C218.213 561.832 203.174 543.305 187.105 525.652C172.136 509.189 156.067 493.459 137.801 480.365C128.891 473.98 119.475 468.223 109.545 463.417C107.001 462.189 104.426 461.028 101.832 459.925C99.2682 458.84 96.6545 457.66 93.9714 456.87C91.6151 456.175 89.2588 456.508 87.6846 458.44C86.1896 460.286 85.7837 462.713 85.4768 464.968C83.6947 477.643 86.0015 490.443 89.5855 502.633C92.8824 513.862 97.0802 524.891 101.793 535.644C110.842 556.313 122.158 576.078 135.484 594.492C148.89 613.01 164.324 630.196 181.492 645.584C198.986 661.257 218.342 675.226 239.697 685.646C244.855 688.168 250.122 690.461 255.488 692.517C266.448 697.303 277.903 701.043 289.645 703.603C299.308 705.706 309.169 706.991 319.059 707.448C320.802 706.258 322.346 704.85 323.861 703.403Z" fill="#56AB6E"/>
<path d="M310.296 716.963C293.327 707.285 276.347 697.617 259.378 687.939C241.656 677.833 223.934 667.727 206.212 657.621C189.163 647.905 172.283 637.903 154.234 629.948C136.562 622.173 118.207 615.95 99.7718 610.078C90.5346 607.138 81.3073 604.055 71.9316 601.533C69.4961 600.886 67.0506 600.277 64.5755 599.763C62.6845 599.373 60.7044 598.878 58.754 599.087C54.9225 599.497 53.6057 603.027 54.4572 606.301C55.4571 610.202 58.4768 613.276 61.2489 616.121C64.3379 619.28 67.4961 622.373 70.7237 625.409C77.1194 631.414 83.7825 637.161 90.6831 642.643C104.593 653.691 119.474 663.597 135.126 672.228C152.096 681.592 170.006 689.309 187.807 697.065C205.767 704.878 224.013 712.291 243.111 717.125C261.754 721.845 281.278 724.138 300.495 721.807C303.91 721.388 307.286 720.76 310.514 719.647C310.435 718.752 310.355 717.858 310.296 716.963Z" fill="#56AB6E"/>
<mask id="mask0_1639_1677" style="mask-type:luminance" maskUnits="userSpaceOnUse" x="645" y="438" width="82" height="108">
<path d="M645.352 438.246H726.001V545.435H645.352V438.246Z" fill="white"/>
</mask>
<g mask="url(#mask0_1639_1677)">
<path d="M725.247 512.586C725.059 510.769 723.95 509.341 722.416 508.333C718.832 506.02 714.188 506.192 710.109 506.639C704.773 507.229 699.496 508.333 694.377 509.931C685.606 512.682 677.319 516.869 670.002 522.293C678.972 510.883 687.388 499.074 695.16 486.883C699.526 480.041 703.892 473.114 707.06 465.663C709.733 459.42 711.773 451.683 711.387 444.661C710.733 432.994 697.229 441.482 692.892 445.298C687.091 450.399 682.299 456.499 677.656 462.57C667.943 475.274 660.884 489.634 653.875 503.832C648.726 514.28 635.767 547.777 659.825 544.142C681.794 540.811 706.268 534.826 722.188 518.848C723.871 517.164 725.495 515.061 725.247 512.586Z" fill="#36754A"/>
</g>
<mask id="mask1_1639_1677" style="mask-type:luminance" maskUnits="userSpaceOnUse" x="677" y="544" width="49" height="39">
<path d="M677.547 544.807H725.96V582.766H677.547V544.807Z" fill="white"/>
</mask>
<g mask="url(#mask1_1639_1677)">
<path d="M725.366 557.948C723.881 553.333 719.99 549.888 715.624 547.728C706.99 543.484 697.506 544.816 689.269 549.498C679.843 554.865 673.012 567.245 681.249 576.562C684.477 580.187 689.358 581.834 694.189 582.195C699.308 582.576 704.614 581.748 709.466 580.187C714.465 578.598 719.247 575.972 722.405 571.804C725.356 567.902 726.881 562.678 725.366 557.948Z" fill="#36754A"/>
</g>
<path d="M73.4187 569.568C71.7554 565.514 68.6367 561.403 66.4784 559.481C53.2415 547.662 31.3515 535.5 12.5009 539.03C-3.96363 542.123 -3.06268 556.683 8.78822 564.724C25.3815 575.991 47.123 581.291 67.32 580.378C75.2701 580.016 75.5572 574.83 73.4187 569.568Z" fill="#36754A"/>
<path d="M53.3398 486.541C52.5874 483.943 51.3696 481.45 49.835 479.213C47.1619 475.331 43.6373 472.048 40.0137 468.945C37.4 466.7 34.6873 464.511 31.5488 462.988C23.9749 459.315 15.1338 461.542 10.0548 468.041C-0.449608 481.497 9.6093 496.761 22.4403 504.146C27.5193 507.076 33.4398 509.189 39.4395 508.542C44.8155 507.971 49.7657 505.23 52.2607 500.51C54.5774 496.114 54.6863 491.156 53.3398 486.541Z" fill="#36754A"/>
<path d="M431.895 710.31C449.795 700.614 466.636 689.175 482.338 676.433C498.129 663.624 512.772 649.512 526.306 634.496C540.176 619.108 552.879 602.779 564.601 585.83C577.165 567.645 588.61 548.746 599.253 529.457C609.876 510.206 619.717 490.565 629.133 470.743C630.311 468.259 631.489 465.766 632.647 463.273C633.083 462.34 631.657 461.531 631.222 462.464C621.935 482.257 612.272 501.908 601.886 521.188C591.511 540.448 580.392 559.347 568.205 577.599C556.582 595.004 543.978 611.809 530.167 627.682C516.99 642.822 502.733 657.106 487.338 670.172C471.942 683.247 455.389 695.075 437.746 705.191C435.528 706.466 433.301 707.713 431.053 708.931C430.123 709.435 430.954 710.815 431.895 710.31Z" fill="#1E272E"/>
<path d="M545.186 513.737C546.186 523.681 547.602 533.588 549.423 543.418C551.265 553.267 553.512 563.04 556.175 572.708C557.68 578.161 559.314 583.585 561.076 588.962C561.393 589.942 563.007 589.523 562.68 588.533C559.581 579.074 556.878 569.501 554.591 559.833C552.285 550.117 550.403 540.315 548.928 530.457C548.107 524.899 547.414 519.323 546.849 513.737C546.75 512.719 545.087 512.709 545.186 513.737Z" fill="#1E272E"/>
<path d="M494.327 570.928C494.673 581.282 495.851 591.607 497.722 601.808C499.604 612.028 502.197 622.134 505.484 632.022C507.296 637.465 509.326 642.832 511.563 648.113C511.969 649.055 513.583 648.646 513.177 647.695C509.177 638.283 505.88 628.605 503.247 618.756C500.564 608.736 498.564 598.534 497.326 588.247C496.633 582.49 496.188 576.714 495.99 570.928C495.96 569.9 494.297 569.891 494.327 570.928Z" fill="#1E272E"/>
<path d="M562.098 589.523C574.711 585.811 587.007 581.082 598.789 575.372C602.155 573.745 605.472 572.042 608.749 570.253C609.679 569.748 608.848 568.368 607.907 568.873C596.492 575.087 584.522 580.368 572.166 584.622C568.691 585.821 565.187 586.934 561.652 587.981C560.642 588.276 561.068 589.827 562.098 589.523Z" fill="#1E272E"/>
<path d="M512.593 648.675C521.098 647.504 529.503 645.734 537.75 643.393C545.958 641.062 553.987 638.15 561.769 634.705C566.145 632.774 570.442 630.651 574.64 628.387C575.57 627.873 574.739 626.493 573.798 626.997C566.402 631.013 558.71 634.505 550.789 637.446C542.819 640.396 534.622 642.794 526.295 644.612C521.622 645.639 516.9 646.477 512.148 647.133C511.098 647.276 511.544 648.818 512.593 648.675Z" fill="#1E272E"/>
<path d="M429.727 689.013C433.034 681.61 436.618 674.33 440.331 667.107C444.479 659.047 448.796 651.063 453.211 643.136C457.795 634.905 462.488 626.721 467.26 618.584C471.884 610.677 476.596 602.797 481.348 594.947C485.655 587.857 490.002 580.787 494.387 573.735C494.882 572.936 495.387 572.136 495.882 571.328C496.437 570.443 494.991 569.634 494.447 570.519C490.13 577.437 485.863 584.374 481.626 591.33C476.893 599.096 472.21 606.899 467.597 614.74C462.815 622.876 458.102 631.041 453.488 639.253C449.013 647.247 444.628 655.279 440.4 663.386C436.578 670.723 432.886 678.117 429.45 685.625C429.054 686.482 428.668 687.338 428.282 688.195C427.866 689.137 429.302 689.955 429.727 689.013Z" fill="#1E272E"/>
<path d="M466.321 707.4C475.3 704.935 484.092 701.899 492.646 698.302C501.19 694.705 509.487 690.547 517.447 685.874C521.912 683.248 526.268 680.45 530.505 677.509C531.367 676.91 530.545 675.521 529.674 676.12C522.179 681.335 514.328 686.045 506.17 690.223C497.992 694.42 489.527 698.074 480.835 701.166C475.914 702.908 470.924 704.469 465.885 705.858C464.855 706.134 465.291 707.675 466.321 707.4Z" fill="#1E272E"/>
<path d="M399.867 705.943C408.104 693.419 415.589 680.43 422.787 667.326C431.281 651.834 439.33 636.123 447.102 620.288C455.31 603.549 463.21 586.677 470.834 569.682C478.16 553.381 485.229 536.975 491.991 520.455C497.783 506.285 503.367 492.021 508.485 477.613C509.03 476.081 509.564 474.54 510.099 472.998C510.436 472.018 508.832 471.599 508.495 472.57C503.634 486.606 498.278 500.49 492.714 514.279C486.11 530.666 479.17 546.929 471.982 563.097C464.448 580.054 456.636 596.907 448.518 613.627C440.746 629.633 432.707 645.525 424.242 661.198C416.935 674.72 409.342 688.129 401.035 701.108C400.174 702.46 399.303 703.792 398.421 705.134C397.847 706.009 399.293 706.809 399.867 705.943Z" fill="#1E272E"/>
<path d="M87.8811 459.829C97.1876 479.004 107.811 497.589 119.533 515.498C131.275 533.446 144.116 550.717 157.888 567.275C171.55 583.71 186.153 599.421 201.588 614.333C216.607 628.826 232.428 642.557 249.022 655.366C264.803 667.547 281.277 678.909 298.465 689.177C300.534 690.414 302.613 691.641 304.702 692.84C305.623 693.373 306.454 691.984 305.544 691.461C288.267 681.497 271.684 670.43 255.813 658.506C239.171 646.012 223.3 632.575 208.202 618.377C192.698 603.789 178.015 588.382 164.234 572.271C150.244 555.913 137.176 538.813 125.186 521.046C113.266 503.375 102.405 485.037 92.8214 466.1C91.6334 463.75 90.4651 461.39 89.3167 459.02C88.8612 458.088 87.4257 458.897 87.8811 459.829Z" fill="#1E272E"/>
<path d="M174.899 641.073C182.859 648.685 191.334 655.803 200.294 662.303C208.878 668.536 217.897 674.189 227.293 679.213C236.569 684.19 246.193 688.558 256.053 692.364C266.043 696.228 276.27 699.511 286.636 702.318C297.457 705.259 308.417 707.685 319.456 709.731C320.852 709.988 322.248 710.245 323.654 710.492C324.704 710.683 325.149 709.141 324.1 708.951C313.051 706.991 302.081 704.688 291.23 701.88C280.825 699.187 270.548 696.047 260.479 692.326C250.588 688.682 240.916 684.466 231.579 679.651C222.194 674.817 213.165 669.373 204.551 663.359C195.591 657.098 187.106 650.208 179.127 642.814C178.107 641.862 177.087 640.911 176.077 639.94C175.315 639.217 174.137 640.349 174.899 641.073Z" fill="#1E272E"/>
<path d="M162.609 625.913C175.203 628.987 188.39 629.425 201.172 627.141C204.766 626.503 208.32 625.638 211.815 624.581C212.825 624.277 212.389 622.735 211.369 623.04C199.231 626.713 186.37 627.864 173.737 626.332C170.134 625.894 166.569 625.228 163.055 624.372C162.015 624.115 161.57 625.657 162.609 625.913Z" fill="#1E272E"/>
<path d="M212.392 623.943C217.5 609.926 221.371 595.547 222.391 580.683C222.698 576.134 222.767 571.585 222.629 567.037C222.599 565.999 220.936 565.999 220.965 567.037C221.193 574.792 220.827 582.567 219.698 590.266C218.639 597.46 216.946 604.559 214.827 611.524C213.599 615.559 212.233 619.547 210.788 623.515C210.431 624.485 212.035 624.914 212.392 623.943Z" fill="#1E272E"/>
<path d="M162.53 571.272C166.768 555.313 169.401 538.984 170.045 522.521C170.243 517.772 170.263 513.024 170.154 508.275C170.134 507.248 168.471 507.238 168.49 508.275C168.877 524.719 167.451 541.153 164.124 557.293C163.194 561.841 162.114 566.352 160.926 570.844C160.659 571.843 162.263 572.271 162.53 571.272Z" fill="#1E272E"/>
<path d="M117.137 564.982C128.612 567.989 140.334 570.263 152.185 571.348C155.353 571.643 158.531 571.833 161.709 571.928C162.779 571.957 162.779 570.349 161.709 570.33C150.175 569.997 138.72 568.293 127.483 565.829C124.167 565.096 120.86 564.296 117.573 563.44C116.543 563.174 116.098 564.715 117.137 564.982Z" fill="#1E272E"/>
<path d="M227.665 677.841C237.813 677.27 247.625 673.483 255.456 667.24C257.644 665.49 259.654 663.548 261.476 661.445C262.159 660.655 260.981 659.523 260.297 660.313C254.03 667.574 245.368 672.76 235.863 675.034C233.17 675.681 230.438 676.081 227.665 676.243C226.606 676.3 226.596 677.908 227.665 677.841Z" fill="#1E272E"/>
<path d="M55.3791 603.17C65.943 609.983 76.685 616.559 87.5261 622.944C99.7532 630.157 112.119 637.132 124.613 643.908C137.504 650.893 150.533 657.659 163.71 664.13C176.561 670.429 189.541 676.472 202.728 682.087C214.53 687.111 226.489 691.821 238.707 695.847C240.053 696.294 241.4 696.722 242.756 697.15C243.776 697.465 244.211 695.923 243.202 695.599C231.172 691.821 219.391 687.32 207.778 682.477C194.709 677.024 181.828 671.133 169.106 664.967C155.889 658.563 142.83 651.863 129.91 644.926C117.327 638.179 104.862 631.204 92.5456 624.01C81.4967 617.567 70.5566 610.935 59.775 604.074C58.5869 603.312 57.4087 602.551 56.2207 601.79C55.3296 601.209 54.498 602.608 55.3791 603.17Z" fill="#1E272E"/>
<path d="M222.599 733.511C217.361 728.81 210.718 725.831 203.916 723.871C200.659 722.948 197.204 722.158 193.669 721.635C186.878 722.282 180.155 723.433 173.571 725.479C160.988 729.381 148.959 734.729 137.157 740.486C134.118 743.674 131.435 747.185 129.346 750.963C125.811 757.33 123.712 766.065 129.296 772.003C134.058 777.057 142.127 777.932 148.909 776.885C148.899 777.38 148.939 777.884 149.038 778.398C149.582 781.206 151.82 783.404 154.236 784.879C157.117 786.649 160.473 787.505 163.839 787.962C167.631 788.485 171.472 788.447 175.274 787.943C182.967 786.944 190.274 784.127 196.956 780.368C203.738 776.543 209.906 771.804 215.906 766.95C218.718 764.686 221.609 762.468 224.183 759.956C226.529 757.663 228.628 755.027 229.628 751.915C231.846 745.025 227.707 738.107 222.599 733.511Z" fill="#36754A"/>
<path d="M563.194 765.076C562.501 758.32 558.848 752.591 554.502 747.433C555.809 748.128 557.056 748.918 558.234 749.793C559.096 750.45 560.313 749.279 559.452 748.623C557.135 746.891 554.571 745.492 551.868 744.455C551.551 744.112 551.235 743.769 550.928 743.436C550.472 742.951 549.839 743.208 549.581 743.655C543.671 741.866 537.215 741.742 531.226 743.532C522.196 746.215 515.118 752.619 509.425 759.642C508.821 760.394 508.237 761.146 507.653 761.907C507.573 761.174 507.554 760.432 507.613 759.68C507.692 758.615 505.969 758.624 505.89 759.68C505.781 761.098 505.92 762.469 506.237 763.782C504.148 766.627 502.178 769.558 500.247 772.508C499.653 773.412 501.138 774.249 501.732 773.345C503.395 770.805 505.088 768.264 506.87 765.771C508.514 769.872 511.92 773.355 515.494 776.038C518.395 778.218 521.573 780.102 524.86 781.691C528.275 783.347 531.889 784.679 535.641 785.374C542.294 786.601 549.373 785.726 555.056 781.996C557.63 780.311 559.848 778.094 561.284 775.42C562.996 772.251 563.551 768.606 563.194 765.076Z" fill="#36754A"/>
<path d="M613.805 667.583L465.575 616.349C462.159 615.159 458.575 617.662 458.674 621.154L462.04 743.76C462.099 746.167 463.961 748.185 466.436 748.546L625.784 771.49C629.21 771.984 632.16 769.149 631.655 765.856L617.171 671.533C616.894 669.715 615.597 668.202 613.805 667.583Z" fill="#C8CCDE"/>
<path d="M455.507 742.465C457.101 742.713 458.695 742.941 460.279 743.169C464.556 743.788 468.824 744.416 473.101 745.044C479.397 745.967 485.704 746.89 492.001 747.813C499.683 748.936 507.356 750.049 515.039 751.172C523.405 752.4 531.781 753.627 540.157 754.855C548.641 756.092 557.116 757.329 565.591 758.566C573.492 759.727 581.392 760.879 589.303 762.04C595.956 763.01 602.609 763.981 609.262 764.952C614.064 765.656 618.876 766.36 623.677 767.064C625.945 767.397 628.222 767.74 630.499 768.054C630.598 768.073 630.687 768.092 630.786 768.101C631.835 768.254 632.291 766.712 631.231 766.56C629.667 766.331 628.113 766.103 626.548 765.875C622.301 765.256 618.054 764.628 613.806 764.01C607.52 763.096 601.233 762.173 594.956 761.259C587.283 760.136 579.62 759.014 571.957 757.891C563.581 756.673 555.205 755.445 546.84 754.217C538.365 752.98 529.88 751.743 521.395 750.497C513.485 749.345 505.574 748.184 497.664 747.033C490.991 746.053 484.328 745.073 477.655 744.102C472.823 743.398 468.002 742.693 463.18 741.98C460.873 741.647 458.567 741.304 456.27 740.971C456.161 740.962 456.052 740.943 455.953 740.923C454.903 740.762 454.448 742.303 455.507 742.465Z" fill="#1E272E"/>
<path d="M452.074 681.943C453.628 682.324 455.193 682.667 456.757 683.019C460.945 683.98 465.143 684.931 469.331 685.893C475.489 687.301 481.647 688.709 487.805 690.118C495.31 691.831 502.804 693.544 510.309 695.266C518.516 697.131 526.724 699.015 534.941 700.89C543.248 702.793 551.564 704.696 559.871 706.59C567.613 708.36 575.365 710.13 583.117 711.9C589.632 713.394 596.156 714.879 602.68 716.373C607.373 717.448 612.056 718.514 616.759 719.589C618.987 720.103 621.204 720.645 623.442 721.121C623.541 721.14 623.63 721.169 623.729 721.188C624.768 721.426 625.214 719.875 624.174 719.646C622.64 719.294 621.105 718.942 619.581 718.59C615.412 717.638 611.244 716.687 607.066 715.735C600.928 714.327 594.79 712.928 588.642 711.519C581.157 709.816 573.672 708.103 566.177 706.39C557.97 704.516 549.772 702.631 541.565 700.757C533.248 698.863 524.932 696.96 516.625 695.057C508.863 693.287 501.111 691.517 493.349 689.737C486.815 688.243 480.281 686.749 473.736 685.255C469.024 684.18 464.311 683.104 459.598 682.02C457.341 681.506 455.084 680.963 452.826 680.468C452.718 680.449 452.619 680.43 452.51 680.402C451.47 680.154 451.025 681.696 452.074 681.943Z" fill="#1E272E"/>
<path d="M578.49 656.955C580.183 670.772 581.876 684.59 583.569 698.417C585.173 711.501 586.777 724.576 588.381 737.661C589.361 745.655 590.341 753.658 591.312 761.651C591.44 762.66 593.104 762.669 592.985 761.651C591.292 747.834 589.599 734.007 587.906 720.19C586.302 707.114 584.698 694.03 583.094 680.945C582.114 672.952 581.134 664.949 580.154 656.955C580.035 655.946 578.372 655.927 578.49 656.955Z" fill="#1E272E"/>
<path d="M522 637.217C523.386 652.31 524.801 667.393 526.227 682.485C527.643 697.492 529.069 712.499 530.474 727.506C531.266 735.975 532.049 744.435 532.821 752.905C532.91 753.923 534.583 753.932 534.484 752.905C533.108 737.822 531.692 722.729 530.266 707.646C528.851 692.639 527.425 677.632 526.019 662.616C525.227 654.156 524.445 645.687 523.663 637.217C523.574 636.199 521.91 636.19 522 637.217Z" fill="#1E272E"/>
<path d="M95.9521 667.583L244.182 616.349C247.598 615.159 251.182 617.662 251.083 621.154L247.717 743.76C247.657 746.167 245.806 748.185 243.321 748.546L83.9725 771.49C80.5469 771.984 77.5966 769.149 78.1015 765.856L92.5958 671.533C92.873 669.715 94.1601 668.202 95.9521 667.583Z" fill="#C8CCDE"/>
<path d="M253.813 740.923C252.219 741.171 250.625 741.39 249.031 741.618C244.764 742.246 240.487 742.874 236.22 743.502C229.913 744.416 223.616 745.339 217.32 746.262C209.637 747.385 201.964 748.508 194.281 749.631C185.905 750.858 177.53 752.086 169.154 753.304C160.679 754.541 152.204 755.788 143.729 757.025C135.819 758.186 127.918 759.337 120.018 760.489C113.364 761.469 106.711 762.439 100.058 763.41C95.2465 764.114 90.4448 764.818 85.643 765.523C83.3758 765.856 81.0789 766.113 78.8216 766.512C78.7226 766.531 78.6236 766.541 78.5246 766.56C77.4751 766.712 77.9206 768.254 78.9701 768.101C80.5344 767.873 82.0888 767.645 83.653 767.416C87.9004 766.798 92.1477 766.179 96.395 765.551C102.682 764.638 108.969 763.715 115.246 762.801C122.918 761.678 130.581 760.555 138.254 759.432C146.62 758.214 154.986 756.987 163.362 755.759C171.837 754.522 180.322 753.285 188.806 752.038C196.717 750.887 204.627 749.726 212.538 748.574C219.211 747.594 225.874 746.624 232.547 745.643C237.378 744.939 242.2 744.235 247.021 743.521C249.328 743.198 251.645 742.912 253.932 742.513C254.041 742.494 254.15 742.484 254.249 742.465C255.308 742.303 254.862 740.762 253.813 740.923Z" fill="#1E272E"/>
<path d="M257.248 680.402C255.694 680.773 254.13 681.115 252.566 681.477C248.368 682.429 244.18 683.39 239.982 684.351C233.834 685.759 227.676 687.168 221.508 688.576C214.013 690.289 206.508 692.002 199.014 693.715C190.806 695.589 182.589 697.464 174.381 699.348C166.075 701.242 157.758 703.145 149.452 705.048C141.7 706.818 133.958 708.588 126.205 710.358C119.691 711.852 113.166 713.337 106.642 714.831C101.949 715.906 97.2563 716.972 92.5635 718.047C90.3359 718.552 88.0885 719.018 85.8708 719.58C85.7817 719.599 85.6827 719.618 85.5936 719.646C84.5441 719.875 84.9896 721.426 86.0292 721.188C87.5638 720.836 89.0983 720.484 90.623 720.131C94.7911 719.18 98.9691 718.228 103.127 717.277C109.276 715.878 115.414 714.469 121.552 713.061C129.047 711.358 136.532 709.645 144.026 707.932C152.234 706.057 160.431 704.183 168.639 702.298C176.955 700.405 185.272 698.511 193.588 696.598C201.34 694.838 209.092 693.058 216.854 691.279C223.389 689.785 229.923 688.3 236.467 686.797C241.18 685.721 245.893 684.646 250.605 683.571C252.863 683.057 255.14 682.581 257.387 682.02C257.486 681.991 257.585 681.972 257.694 681.943C258.734 681.696 258.288 680.154 257.248 680.402Z" fill="#1E272E"/>
<path d="M129.604 656.955C127.911 670.772 126.218 684.589 124.525 698.416C122.921 711.501 121.317 724.576 119.713 737.661C118.743 745.654 117.763 753.657 116.782 761.651C116.654 762.669 118.317 762.66 118.446 761.651C120.139 747.833 121.832 734.007 123.525 720.189C125.129 707.114 126.723 694.029 128.326 680.945C129.307 672.951 130.287 664.948 131.267 656.955C131.396 655.927 129.722 655.937 129.604 656.955Z" fill="#1E272E"/>
<path d="M186.094 637.217C184.718 652.31 183.302 667.393 181.877 682.485C180.451 697.492 179.035 712.499 177.629 727.506C176.837 735.975 176.045 744.435 175.273 752.904C175.184 753.932 176.847 753.932 176.936 752.904C178.312 737.821 179.728 722.729 181.164 707.646C182.58 692.639 184.005 677.632 185.401 662.616C186.193 654.156 186.985 645.687 187.758 637.217C187.847 636.199 186.183 636.199 186.094 637.217Z" fill="#1E272E"/>
<path d="M501.215 639.292H208.883C206.28 639.292 204.092 641.148 203.755 643.622L185.172 783.404C184.776 786.373 187.181 789 190.29 789H519.799C522.907 789 525.313 786.373 524.917 783.404L506.334 643.622C505.997 641.148 503.809 639.292 501.215 639.292Z" fill="#DADEED"/>
<path d="M459.605 639.94C464.446 639.94 469.287 639.94 474.129 639.94C481.752 639.94 489.375 639.94 496.999 639.94C498.702 639.94 500.395 639.911 502.088 639.94C502.88 639.949 503.642 640.168 504.276 640.634C505.662 641.662 505.672 643.308 505.87 644.841C506.365 648.695 506.87 652.558 507.375 656.412C509.404 671.98 511.454 687.549 513.513 703.127C515.572 718.733 517.622 734.349 519.641 749.955C519.889 751.84 520.126 753.714 520.374 755.589C520.503 756.607 522.166 756.617 522.037 755.589C520.008 739.83 517.938 724.081 515.859 708.322C513.77 692.478 511.681 676.643 509.612 660.809C509.087 656.85 508.573 652.901 508.068 648.952C507.81 646.982 507.563 645.012 507.295 643.042C507.117 641.624 506.573 640.368 505.385 639.445C503.622 638.084 501.385 638.341 499.276 638.341C491.969 638.341 484.663 638.341 477.356 638.341C471.535 638.341 465.713 638.341 459.892 638.341C459.793 638.341 459.704 638.341 459.605 638.341C458.535 638.341 458.535 639.94 459.605 639.94Z" fill="#1E272E"/>
<path d="M250.072 638.341C245.181 638.341 240.281 638.341 235.38 638.341C227.539 638.341 219.707 638.341 211.866 638.341C210.064 638.341 208.263 638.322 206.461 638.341C205.768 638.341 205.094 638.484 204.49 638.807C203.886 639.131 203.362 639.635 203.025 640.216C202.59 640.977 202.54 641.833 202.431 642.68C201.926 646.629 201.411 650.569 200.897 654.518C198.827 670.448 196.719 686.369 194.62 702.289C192.541 718.095 190.452 733.892 188.412 749.698C188.155 751.659 187.907 753.628 187.65 755.589C187.521 756.617 189.184 756.607 189.313 755.589C191.333 739.906 193.392 724.214 195.461 708.532C197.53 692.849 199.6 677.176 201.649 661.484C202.174 657.535 202.679 653.576 203.193 649.618C203.441 647.733 203.688 645.849 203.926 643.965C204.114 642.528 203.995 640.454 205.817 640.006C206.302 639.892 206.847 639.94 207.332 639.94C208.332 639.94 209.332 639.94 210.342 639.94C217.787 639.94 225.242 639.94 232.697 639.94C238.4 639.94 244.102 640.025 249.805 639.94C249.894 639.94 249.983 639.94 250.072 639.94C251.151 639.94 251.151 638.341 250.072 638.341Z" fill="#1E272E"/>
<path d="M196.472 706.923C201.303 706.923 206.135 706.923 210.966 706.923C219.362 706.923 227.757 706.923 236.153 706.923C247.311 706.923 258.469 706.923 269.626 706.923C282.586 706.923 295.536 706.923 308.496 706.923C322.475 706.923 336.465 706.923 350.454 706.923C364.493 706.923 378.532 706.923 392.561 706.923C405.838 706.923 419.114 706.923 432.381 706.923C444.073 706.923 455.766 706.923 467.448 706.923C476.626 706.923 485.794 706.923 494.972 706.923C500.734 706.923 506.486 706.923 512.248 706.923C513.05 706.923 513.852 706.923 514.644 706.923C515.713 706.923 515.713 705.325 514.644 705.325C509.813 705.325 504.981 705.325 500.15 705.325C491.754 705.325 483.358 705.325 474.963 705.325C463.805 705.325 452.647 705.325 441.489 705.325C428.53 705.325 415.58 705.325 402.62 705.325C388.63 705.325 374.651 705.325 360.662 705.325C346.623 705.325 332.584 705.325 318.555 705.325C305.278 705.325 292.002 705.325 278.725 705.325C267.042 705.325 255.35 705.325 243.657 705.325C234.49 705.325 225.322 705.325 216.144 705.325C210.382 705.325 204.63 705.325 198.868 705.325C198.066 705.325 197.264 705.325 196.472 705.325C195.402 705.325 195.393 706.923 196.472 706.923Z" fill="#1E272E"/>
<path d="M186.927 780.635C191.897 780.635 196.877 780.635 201.847 780.635C210.728 780.635 219.618 780.635 228.499 780.635C240.281 780.635 252.062 780.635 263.834 780.635C277.605 780.635 291.377 780.635 305.149 780.635C319.96 780.635 334.781 780.635 349.602 780.635C364.601 780.635 379.6 780.635 394.59 780.635C408.698 780.635 422.806 780.635 436.914 780.635C449.27 780.635 461.616 780.635 473.962 780.635C483.605 780.635 493.258 780.635 502.901 780.635C508.911 780.635 514.93 780.635 520.94 780.635C521.752 780.635 522.564 780.635 523.375 780.635C524.455 780.635 524.455 779.036 523.375 779.036C518.405 779.036 513.425 779.036 508.455 779.036C499.575 779.036 490.694 779.036 481.803 779.036C470.022 779.036 458.25 779.036 446.468 779.036C432.697 779.036 418.925 779.036 405.163 779.036C390.342 779.036 375.521 779.036 360.7 779.036C345.701 779.036 330.712 779.036 315.712 779.036C301.604 779.036 287.496 779.036 273.388 779.036C261.042 779.036 248.696 779.036 236.35 779.036C226.697 779.036 217.054 779.036 207.401 779.036C201.391 779.036 195.382 779.036 189.362 779.036C188.55 779.036 187.739 779.036 186.927 779.036C185.857 779.036 185.848 780.635 186.927 780.635Z" fill="#1E272E"/>
<path d="M299.102 640.206C298.24 649.151 297.369 658.106 296.508 667.051C295.627 676.186 294.755 685.312 293.874 694.448C292.983 703.707 292.092 712.956 291.201 722.206C290.31 731.361 289.429 740.515 288.558 749.66C287.686 758.643 286.825 767.636 285.954 776.619C285.855 777.704 285.746 778.798 285.637 779.893C285.538 780.92 287.201 780.911 287.3 779.893C288.162 770.938 289.023 761.993 289.894 753.038C290.775 743.903 291.647 734.777 292.528 725.651C293.419 716.392 294.31 707.133 295.201 697.883C296.082 688.728 296.963 679.583 297.844 670.429C298.716 661.446 299.577 652.463 300.448 643.47C300.547 642.385 300.656 641.291 300.765 640.206C300.864 639.178 299.191 639.178 299.102 640.206Z" fill="#1E272E"/>
<path d="M410.836 640.206C411.698 649.151 412.559 658.105 413.43 667.051C414.301 676.186 415.183 685.312 416.064 694.447C416.955 703.707 417.846 712.956 418.737 722.206C419.618 731.36 420.499 740.515 421.38 749.66C422.252 758.643 423.113 767.636 423.984 776.619C424.083 777.704 424.192 778.798 424.291 779.892C424.39 780.911 426.063 780.92 425.964 779.892C425.093 770.938 424.232 761.993 423.37 753.038C422.489 743.903 421.618 734.777 420.737 725.651C419.846 716.392 418.955 707.132 418.064 697.883C417.182 688.728 416.291 679.583 415.41 670.429C414.549 661.446 413.678 652.462 412.816 643.47C412.707 642.385 412.608 641.291 412.5 640.206C412.401 639.187 410.737 639.178 410.836 640.206Z" fill="#1E272E"/>
</svg>
