<svg width="1010" height="1453" viewBox="0 0 1010 1453" fill="none" xmlns="http://www.w3.org/2000/svg">
<path d="M573.402 975.166L572.378 966.569C570.03 946.516 568.9 932.164 568.971 923.532C569.13 909.146 569.536 900.478 570.189 897.583C572.113 880.143 577.356 862.755 585.882 845.438C588.671 839.736 591.654 834.211 594.849 828.862C596.332 825.843 601.346 818.412 609.889 806.549C616.103 798.094 623.517 790.044 632.079 782.436C639.192 776.293 645.883 773.01 652.132 772.586C657.445 772.815 660.534 775.622 661.399 781.024C661.911 784.554 661.399 788.897 659.846 794.051C659.175 797.547 655.821 804.961 649.802 816.293C649.096 817.812 645.847 823.09 640.04 832.11C639.369 833.416 629.66 847.185 610.913 873.435L602.74 885.774C597.444 894.053 592.978 902.243 589.342 910.346C586.306 916.454 583.022 926.392 579.492 940.161C576.915 951.9 574.884 963.568 573.402 975.166Z" fill="#94A85F"/>
<path d="M487.769 1024.49C458.254 1000.9 428.774 977.336 411.616 964.132C398.747 954.229 392.851 950.151 386.62 945.861C384.537 944.431 382.472 943.019 380.053 941.307C370.362 934.475 355.869 923.725 341.412 913.01C341.359 912.975 341.306 912.922 341.253 912.886L318.676 893.116C317.616 892.18 317.51 890.556 318.428 889.497C319.364 888.438 320.97 888.332 322.047 889.267L344.607 909.038L344.448 908.897C358.941 919.647 373.381 930.345 383.001 937.123C385.384 938.818 387.432 940.23 389.515 941.66C395.799 945.985 401.766 950.098 414.74 960.089C431.934 973.329 461.466 996.93 490.964 1020.5C492.076 1021.38 492.252 1022.99 491.37 1024.08C490.487 1025.19 488.881 1025.37 487.769 1024.49Z" fill="#94A85F"/>
<path d="M452.871 182.34C462.915 226.26 472.995 270.303 479.72 313.94C485.175 349.315 488.423 384.391 493.012 434.118C494.089 445.751 495.254 458.213 496.525 471.647C503.233 542.557 513.277 641.252 523.322 739.982C523.339 740 523.339 740.018 523.339 740.053C528.635 810.063 533.949 880.108 537.673 939.367C541.398 998.626 543.534 1047.08 545.67 1095.52C545.74 1097 544.593 1098.27 543.093 1098.35C541.61 1098.4 540.339 1097.25 540.286 1095.75C538.132 1047.31 535.996 998.909 532.289 939.702C528.565 880.496 523.251 810.486 517.955 740.459V740.529C507.893 641.799 497.849 543.104 491.141 472.159C489.87 458.708 488.723 446.263 487.646 434.612C483.039 384.85 479.808 349.933 474.389 314.769C467.699 271.344 457.655 227.495 447.593 183.541C447.257 182.076 448.175 180.628 449.623 180.31C451.088 179.975 452.535 180.875 452.871 182.34Z" fill="#3A5530"/>
<path d="M180.615 341.496C212.884 351.399 245.576 361.461 282.134 413.624C314.297 459.503 349.584 538.109 375.604 596.08C378.958 603.512 382.136 610.59 385.137 617.245C391.756 631.844 397.511 644.324 402.895 655.94C407.591 666.072 411.986 675.587 416.381 685.296C427.167 709.162 437.953 734.246 453.134 773.17C481.537 846.039 525.35 967.47 569.164 1088.83C569.658 1090.24 568.934 1091.8 567.54 1092.29C566.127 1092.8 564.574 1092.08 564.08 1090.67C520.266 969.271 476.471 847.928 448.103 775.129C432.957 736.294 422.207 711.298 411.456 687.52C407.079 677.846 402.683 668.349 397.988 658.217C392.621 646.584 386.831 634.086 380.229 619.47C377.211 612.832 374.016 605.701 370.679 598.287C344.571 540.122 309.513 462.08 277.721 416.731C242.151 365.998 210.801 356.412 179.044 346.65C177.614 346.227 176.802 344.709 177.243 343.279C177.685 341.849 179.203 341.055 180.615 341.496Z" fill="#39552F"/>
<path d="M477.514 1060.66C504.946 977.655 532.466 894.371 561.081 837.071C587.613 783.901 615.08 753.098 634.78 730.979C636.351 729.232 637.905 727.484 639.37 725.842C643.165 721.535 646.607 717.581 649.855 713.803C652.768 710.467 655.522 707.272 658.24 704.218C668.373 692.744 677.94 682.859 692.751 671.243C715.876 653.097 751.781 630.696 787.492 608.436C788.692 607.677 790.263 608.047 791.022 609.248C791.764 610.448 791.393 612.019 790.21 612.761C754.376 635.109 718.753 657.315 695.911 675.25C681.418 686.636 672.062 696.292 662.053 707.607C659.37 710.644 656.634 713.803 653.721 717.157C650.455 720.917 647.013 724.907 643.183 729.214C641.717 730.873 640.164 732.621 638.593 734.386C618.963 756.399 591.885 786.796 565.653 839.348C537.25 896.259 509.853 979.12 482.369 1062.26C481.91 1063.61 480.48 1064.33 479.138 1063.89C477.797 1063.45 477.073 1062 477.514 1060.66Z" fill="#94A85F"/>
<path d="M739.497 278.034C739.497 278.581 739.302 279.129 738.932 279.535C700.273 324.16 661.773 368.609 630.422 423.367C601.419 474.065 578.524 533.66 560.324 581.004C558.859 584.817 557.411 588.594 555.999 592.231C555.064 594.702 554.093 597.173 553.175 599.556C552.292 601.851 551.356 604.27 550.492 606.494C534.534 647.889 522.512 680.97 510.156 751.721C496.387 830.486 482.212 955.854 468.019 1081.35C467.878 1082.6 466.748 1083.5 465.477 1083.36C464.224 1083.22 463.324 1082.09 463.465 1080.82C477.657 955.413 491.85 829.868 505.654 750.944C518.082 679.805 530.191 646.441 546.237 604.834C547.12 602.54 548.003 600.262 548.903 597.915C549.821 595.549 550.792 593.025 551.727 590.589C553.122 586.988 554.605 583.14 556.052 579.362C574.216 532.071 597.235 472.141 626.45 421.09C658.048 365.89 696.848 321.124 735.472 276.534L734.925 278.034C734.925 276.763 735.948 275.739 737.202 275.739C738.473 275.739 739.497 276.763 739.497 278.034Z" fill="#567437"/>
<path d="M217.018 657.21L216.364 655.498V655.515L216.47 655.621C225.579 665.842 234.617 675.975 249.269 688.984C264.008 702.083 284.415 718.076 304.927 734.157C329.534 753.345 354.266 772.64 374.054 791.122C393.86 809.657 408.688 827.345 423.481 845.791C438.274 864.291 453.155 883.691 470.772 916.79C488.336 949.8 508.619 996.438 528.831 1042.93C529.396 1044.22 528.796 1045.74 527.507 1046.31C526.218 1046.85 524.718 1046.27 524.153 1044.98C503.888 998.397 483.711 951.971 466.253 919.19C448.865 886.48 434.196 867.345 419.492 848.987C404.752 830.593 390.118 813.134 370.559 794.864C350.982 776.558 326.445 757.423 301.785 738.182C281.308 722.136 260.76 706.037 245.862 692.797C230.998 679.593 221.784 669.267 212.657 659.028L212.552 658.905L212.569 658.922C212.145 658.428 211.916 657.828 211.916 657.21C211.916 655.798 213.046 654.65 214.458 654.65C215.87 654.65 217.018 655.798 217.018 657.21Z" fill="#94A85F"/>
<path d="M567.316 981.115C580.802 956.472 594.448 931.529 614.924 908.934C635.401 886.392 662.621 866.25 689.594 846.303C690.724 845.473 692.331 845.703 693.16 846.85C694.008 847.98 693.76 849.586 692.631 850.416C665.569 870.434 638.773 890.275 618.72 912.376C598.684 934.442 585.321 958.855 571.782 983.569C571.111 984.804 569.558 985.263 568.322 984.592C567.086 983.904 566.627 982.351 567.316 981.115Z" fill="#94A85F"/>
<path d="M456.065 1011.96L452.535 1006.68C441.943 990.861 434.865 978.804 431.316 970.525C429.834 967.206 428.58 963.923 427.556 960.71L426.268 955.926L425.421 951.231L425.05 946.659L425.12 942.228L425.579 937.991C426.021 935.22 426.656 932.625 427.486 930.207C429.233 925.317 431.405 921.451 434 918.574C439.225 912.695 444.167 912.819 448.81 918.962C450.363 921.31 451.511 924.099 452.235 927.347C452.588 928.936 452.817 930.56 452.923 932.219L452.958 934.69L452.764 937.338C452.552 939.104 452.217 940.869 451.776 942.616L451.052 945.247L447.716 956.068C447.186 957.921 446.745 959.845 446.374 961.822C445.597 965.776 445.438 970.013 445.88 974.567C446.356 979.122 447.274 983.888 448.616 988.866C450.734 996.386 453.206 1004.08 456.065 1011.96Z" fill="#94A85F"/>
<path d="M372.939 593.147L367.484 585.857C341.976 551.911 320.529 528.998 303.158 517.118C300.405 514.594 291.967 509.051 277.862 500.49C271.949 497.118 265.806 493.958 259.433 491.01C246.653 485.079 233.237 480.366 219.221 476.888C185.681 468.591 153.201 469.951 121.779 480.984C114.912 483.331 108.575 485.926 102.768 488.768C98.9016 490.092 91.8583 494.523 81.6552 502.043C78.1776 505.044 75.7239 507.939 74.2941 510.71L73.0761 514.664C72.8995 517.171 73.8175 519.431 75.8122 521.461C80.0841 525.468 87.0568 528.804 96.6951 531.47C101.391 532.829 106.316 534.082 111.523 535.247C130.023 539.131 142.186 541.867 147.976 543.438L177.49 552.564C184.481 554.453 188.753 555.424 190.289 555.512C197.314 556.377 202.804 556.677 206.776 556.413C232.549 554.647 249.071 553.924 256.326 554.224C267.271 554.453 277.368 555.601 286.618 557.701C309.602 563.068 338.375 574.877 372.939 593.147Z" fill="#3A5530"/>
<path d="M429.091 718.588L421.342 699.753C392.956 630.679 375.675 586.724 369.514 567.907C362.93 549.072 358.658 530.183 356.698 511.278C356.116 504.958 355.957 498.656 356.169 492.319L356.751 483.404C357.334 477.456 358.216 471.666 359.417 466.034C360.599 460.403 362.029 455.107 363.671 450.129C368.084 438.514 370.909 432.212 372.109 431.224C382.506 414.93 391.438 417.314 398.923 438.391C405.966 459.574 410.591 485.629 412.763 516.556C413.186 520.298 413.61 530.695 414.016 547.712C414.192 555.126 414.051 574.015 413.592 604.377C413.557 610.255 413.61 615.992 413.751 621.606L414.069 629.92C414.351 635.375 414.757 640.723 415.287 645.948C416.558 661.924 421.147 686.143 429.091 718.588Z" fill="#3A5530"/>
<path d="M508.656 755.586L513.334 743.723C524.332 716.062 532.628 696.556 538.259 685.223C547.668 666.335 553.582 655.161 556 651.683C568.834 629.724 584.368 609.6 602.585 591.312C614.642 579.202 626.716 568.558 638.773 559.379C658.579 544.886 672.542 536.254 680.662 533.482C691.253 529.016 699.55 527.904 705.587 530.111C711.466 532.882 713.443 537.595 711.519 544.286C709.912 548.84 705.746 553.977 699.003 559.696C658.896 590.5 635.948 608.594 630.141 613.96C612.559 629.247 600.008 640.968 592.506 649.159C572.505 669.354 544.544 704.835 508.656 755.586Z" fill="#577537"/>
<path d="M493.299 506.685L494.411 492.122C498.153 438.67 503.89 395.528 511.64 362.729C517.642 339.393 521.631 325.483 523.626 321.017C530.034 302.623 537.342 285.129 545.55 268.553C567.686 225.34 587.81 196.478 605.904 181.933C615.525 173.724 624.421 169.77 632.577 170.106C636.655 170.741 639.426 172.595 640.856 175.613C642.374 180.273 642.886 183.469 642.392 185.198C640.432 198.261 635.701 211.448 628.181 224.758C627.316 226.823 622.709 234.873 614.342 248.942C588.499 290.284 574.112 313.762 571.164 319.375C562.408 334.362 554.182 349.931 546.468 366.101C529.451 402.536 511.728 449.403 493.299 506.685Z" fill="#3A5530"/>
<path d="M265.772 976.771L264.572 1017.74C258.835 1170.49 264.519 1276.97 281.66 1337.2C293.063 1374.09 305.632 1398.24 319.348 1409.63C334.193 1424.39 351.405 1434.84 370.999 1440.98C390.593 1447.12 411.547 1450.69 433.859 1451.68C434.918 1453.05 484.751 1452.81 583.358 1450.92C629.113 1448.07 659.034 1441.7 673.086 1431.76C683.324 1426.38 692.645 1419.27 701.03 1410.4L712.804 1395.52C720.13 1384.58 726.308 1371.34 731.357 1355.79C736.37 1340.2 740.43 1322.64 743.501 1303.1C745.955 1295.2 748.85 1262.44 752.186 1204.77C754.022 1131.2 753.228 1052.29 749.786 968.016L265.772 976.771Z" fill="#EEE2D2"/>
<path d="M603.993 922.05L608.336 918.996C626.518 905.474 645.141 895.589 664.206 889.34C674.656 886.003 685.883 883.408 697.922 881.537C709.025 879.666 721.7 878.713 735.928 878.713C757.958 878.995 776.917 883.832 792.786 893.188C801.471 898.184 807.685 903.55 811.392 909.269C813.775 913.012 812.734 917.001 808.268 921.255C805.637 923.515 800.501 925.192 792.857 926.269C788.303 926.992 780.871 927.187 770.562 926.886C765.619 926.798 755.646 926.022 740.641 924.521C730.579 923.48 713.191 921.485 688.478 918.537C681.593 917.743 675.027 917.036 668.76 916.419C656.05 915.148 645.865 914.53 638.204 914.547C634.832 914.547 631.796 914.653 629.113 914.847C627.436 914.847 623.993 915.306 618.821 916.224C613.932 917.231 608.989 919.172 603.993 922.05Z" fill="#94A85F"/>
<path d="M654.11 875.201L660.324 870.046C683.025 850.964 701.86 836.895 716.812 827.875C734.129 817.477 751.376 810.099 768.551 805.774C795.154 799.172 815.948 798.201 830.935 802.896C836.143 804.838 838.897 807.733 839.179 811.546C839.285 816.03 836.09 821.025 829.576 826.515C823.045 832.005 813.636 836.701 801.314 840.602C799.567 841.379 792.859 842.915 781.226 845.192C776.442 846.039 771.535 846.798 766.521 847.469C741.137 850.593 726.291 852.535 722.002 853.277L715.241 854.406C710.863 855.218 706.697 856.101 702.778 857.072C690.404 859.755 674.181 865.792 654.11 875.201Z" fill="#94A85F"/>
<path d="M607.382 922.208L611.248 911.335C622.845 878.625 632.625 854.794 640.604 839.86C649.907 821.342 660.887 806.426 673.526 795.128C681.999 787.714 690.56 781.907 699.21 777.688C707.86 773.469 715.821 770.644 723.094 769.232C730.861 767.379 737.887 767.608 744.206 769.921C745.848 770.768 747.084 771.88 747.878 773.257L748.743 775.499C749.096 777.14 748.972 779.012 748.372 781.148C746.748 787.502 740.111 796.064 728.443 806.779C723.482 811.739 702.176 829.268 664.505 859.33C655.379 867.009 647.559 874.194 641.027 880.902C629.518 892.658 618.309 906.427 607.382 922.208Z" fill="#94A85F"/>
<path d="M416.791 966.11L413.208 962.191C402.387 950.47 394.761 941.078 390.313 934C384.682 925.58 380.816 916.594 378.68 907.009C377.303 900.601 376.685 894.458 376.791 888.615C376.826 885.738 377.02 883.019 377.391 880.513C377.744 877.988 378.256 875.711 378.909 873.699L379.968 870.927C381.381 867.644 383.517 865.649 386.359 864.943C387.894 864.678 389.501 864.961 391.178 865.826C393.208 867.132 394.39 868.068 394.743 868.65C397.338 871.863 398.998 874.67 399.704 877.071C400.127 878.077 400.692 879.983 401.346 882.772L402.052 886.603C402.352 887.768 402.758 892.022 403.234 899.33L403.887 917.477C403.993 920.46 404.135 923.355 404.346 926.162C404.788 931.723 405.547 936.718 406.641 941.114C408.548 948.845 411.937 957.177 416.791 966.11Z" fill="#94A85F"/>
<path d="M373.137 933.226L369.801 929.519C359.774 918.451 352.59 909.801 348.23 903.587C342.793 896.138 338.733 888.671 336.014 881.169C335.132 878.68 334.39 876.261 333.79 873.913C333.331 872.59 332.731 869.306 332.007 864.081C331.795 862.086 331.689 860.268 331.707 858.626L331.795 856.314C331.919 854.884 332.113 853.701 332.395 852.766C332.996 850.524 334.284 849.659 336.297 850.206C337.744 850.506 340.339 852.66 344.099 856.667C346.923 859.827 349.13 863.887 350.683 868.883C350.895 869.377 351.637 871.848 352.872 876.297C357.109 893.031 359.28 901.469 359.421 901.61C360.604 905.829 361.822 909.607 363.093 912.961C364.982 918.292 368.318 925.035 373.137 933.226Z" fill="#94A85F"/>
<path d="M343.936 911.139L344.448 911.475C346.319 912.728 346.636 912.834 345.383 911.775C329.549 899.63 317.545 889.797 309.425 882.277C303.494 876.576 300.122 873.186 299.345 872.11C297.368 869.885 295.621 867.732 294.103 865.649C288.224 857.687 284.941 850.273 284.27 843.371C284.147 840.423 284.818 838.535 286.283 837.687C288.207 836.822 290.484 837.228 293.079 838.941C296.027 840.67 299.751 844.748 304.235 851.156C307.819 856.081 316.045 869.109 328.931 890.274L343.936 911.139Z" fill="#94A85F"/>
<path d="M425.545 971.636L425.422 971.512C420.514 966.87 416.595 964.08 413.7 963.127C406.251 960.02 399.967 958.255 394.848 957.867C381.202 957.09 367.522 958.908 353.841 963.304C339.348 968.141 328.633 974.866 321.66 983.481C314.229 993.913 312.799 1002.3 317.371 1008.64C318.977 1010.26 320.831 1011.12 322.896 1011.23C324.132 1011.28 326.321 1010.49 329.498 1008.83C331.21 1007.84 332.87 1006.71 334.476 1005.49L356.524 988.176C361.396 984.487 364.344 982.316 365.386 981.698C372.835 976.843 377.901 974.142 380.549 973.613C383.832 972.395 388.705 971.583 395.148 971.159C398.519 971.036 401.803 971.036 405.033 971.194L420.426 972.289C422.191 972.43 423.886 972.218 425.545 971.636Z" fill="#94A85F"/>
<path d="M391.192 945.086L389.391 943.639C377.105 933.365 365.119 928.246 353.415 928.281C340.07 928.122 324.73 932.712 307.395 942.05C292.779 950.17 282.647 956.596 276.963 961.291C267.924 968.582 262.893 972.96 261.852 974.46C259.01 977.408 256.627 980.303 254.72 983.145C251.066 988.847 249.248 994.054 249.23 998.785C249.425 1005.95 251.755 1011.16 256.221 1014.37C259.469 1016.42 261.976 1017.3 263.741 1017.02C265.065 1017 266.424 1016.79 267.801 1016.37C268.472 1016.38 270.59 1015.36 274.156 1013.3C277.033 1011.39 280.034 1008.99 283.141 1006.08C303.918 985.087 316.751 972.73 321.623 969.041C331.032 961.221 340.617 954.884 350.344 950.047C360.159 945.21 368.014 942.439 373.892 941.768C380.035 940.956 385.808 942.068 391.192 945.086Z" fill="#94A85F"/>
<path d="M351.336 913.857L347.841 912.869C338.644 909.992 328.935 907.891 318.661 906.514C310.047 905.649 302.456 905.596 295.942 906.338C276.701 908.615 258.078 914.511 240.037 924.078C231.158 928.791 223.408 934.158 216.806 940.195L212.252 944.785C209.498 947.874 207.168 951.016 205.262 954.211C201.449 960.742 199.295 966.744 198.819 972.234C198.571 974.917 198.748 977.283 199.33 979.33L200.513 982.067C201.519 983.708 202.914 984.838 204.732 985.456L208.227 985.915L212.587 985.12L217.018 983.461C220.16 982.049 223.532 980.213 227.151 977.936C228.845 977.106 234.53 973.134 244.185 966.038C268.528 946.903 280.426 937.724 279.861 938.483C287.346 933.24 293.224 929.621 297.531 927.644C300.479 926.232 303.215 925.049 305.775 924.043L351.336 913.857Z" fill="#94A85F"/>
<path d="M342.329 908.809L334.545 903.142C324.2 895.499 313.644 888.367 302.876 881.783C292.108 875.181 280.846 869.832 269.107 865.701C263.211 863.689 257.138 862.118 250.907 860.988L241.375 859.682C237.491 859.311 233.537 859.135 229.53 859.135C223.528 859.152 217.473 859.523 211.366 860.265C178.814 865.048 152.477 874.828 132.353 889.603C128.346 892.657 124.957 895.728 122.15 898.835C120.032 900.512 117.154 904.978 113.536 912.233C112.476 915.058 111.982 917.653 112.035 920.018C112.088 922.384 112.688 924.431 113.8 926.161L115.866 928.438C120.155 932.057 128.293 932.163 140.297 928.756C141.974 928.474 147.887 926.444 158.037 922.684C162.768 920.883 174.454 915.94 193.095 907.82C200.174 904.89 206.176 902.63 211.118 901.059C218.356 898.782 224.676 897.194 230.077 896.258C245.47 893.151 255.903 891.439 261.393 891.086C280.228 888.773 307.219 894.669 342.329 908.809Z" fill="#94A85F"/>
<path d="M641.593 725.544L648.054 708.651C667.418 657.882 682.917 621.112 694.515 598.376C706.201 576.151 713.332 563.53 715.892 560.546C720.905 552.938 725.795 546.319 730.561 540.723C740.429 529.266 750.103 520.246 759.617 513.697C769.114 507.13 777.64 502.611 785.178 500.14C796.811 496.733 803.801 496.45 806.149 499.292C807.297 500.281 807.985 501.587 808.197 503.211C808.779 503.705 808.215 506.724 806.52 512.249C802.16 522.241 794.781 533.768 784.384 546.795C775.716 557.916 763.112 572.797 746.572 591.456L641.593 725.544Z" fill="#94A85F"/>
<mask id="mask0_1129_501" style="mask-type:luminance" maskUnits="userSpaceOnUse" x="744" y="523" width="266" height="114">
<path d="M744.647 523.491H1010V636.467H744.647V523.491Z" fill="white"/>
</mask>
<g mask="url(#mask0_1129_501)">
<path d="M749.096 635.284L759.74 625.84C791.638 597.384 817.111 577.119 836.122 565.062C859.971 549.599 882.725 538.954 904.385 533.164C916.635 529.351 932.629 526.562 952.382 524.797C960.449 524.197 968.71 524.232 977.166 524.885C985.939 525.892 991.57 526.915 994.042 527.975C1001.49 530.005 1006.01 533.729 1007.62 539.184C1008.13 541.779 1007.78 544.533 1006.56 547.481C1006.79 548.893 1003.43 553.412 996.513 561.02C989.981 567.198 981.985 572.706 972.505 577.507L965.427 580.773C960.625 582.768 955.718 584.48 950.687 585.875C948.304 586.81 940.502 588.47 927.245 590.853L875.841 597.949C872.946 598.196 863.678 600.103 848.038 603.651C829.326 607.799 796.351 618.355 749.096 635.284Z" fill="#94A85F"/>
</g>
<path d="M689.89 677.863L700.958 672.991C741.594 654.862 774.269 641.993 798.982 634.385C824.525 626.265 849.592 621.499 874.182 620.069C900.749 618.763 920.608 622.47 933.776 631.155C935.948 632.02 939.054 635.268 943.097 640.881C944.28 643.176 944.809 645.435 944.668 647.642C944.456 652.196 941.102 655.974 934.606 658.957C927.827 661.835 917.307 663.441 903.043 663.759C896.547 663.971 888.604 663.971 879.248 663.759L829.909 662.205C825.125 662.064 820.412 661.976 815.734 661.923C810.491 661.87 805.637 661.87 801.189 661.941C793.669 662.064 786.449 662.364 779.529 662.841C765.76 663.812 752.909 665.312 740.958 667.307C723.165 670.396 706.148 673.909 689.89 677.863Z" fill="#94A85F"/>
<path d="M606.641 767.236L617.214 760.899C645.405 743.458 673.632 728.277 701.876 715.356C728.849 703.687 754.286 696.45 778.205 693.608C815.099 689.177 845.938 690.13 870.739 696.467C879.795 698.603 886.838 702.346 891.869 707.712C895.382 712.761 894.076 717.192 887.951 720.969C883.555 722.946 880.554 723.988 878.93 724.094C876.459 724.606 873.687 724.941 870.581 725.135C867.668 725.329 863.714 725.347 858.736 725.223C842.707 724.553 832.045 724.217 826.802 724.182C822.707 724.094 816.635 724.182 808.585 724.429C791.709 725.206 777.005 726.671 764.436 728.86C727.684 734.968 675.079 747.748 606.641 767.236Z" fill="#94A85F"/>
<path d="M469.82 919.827L466.343 911.671C452.627 879.243 444.577 858.59 442.194 849.711C440.694 844.998 439.405 840.461 438.311 836.118L436.863 829.764C435.222 821.502 434.427 814.088 434.515 807.504C434.551 804.203 434.763 801.096 435.151 798.183L435.839 793.964C436.369 791.246 437.04 788.704 437.852 786.338C440.782 778.819 443.624 773.699 446.343 770.981C450.42 766.321 454.392 763.673 458.276 763.037C462.018 762.402 464.842 764.167 466.696 768.368L467.455 770.416C467.896 771.899 468.232 773.523 468.479 775.306C468.955 778.907 469.061 782.949 468.779 787.415L468.514 790.769C468.285 793.046 467.985 795.359 467.596 797.707L464.03 816.56C463.518 819.278 463.059 822.102 462.636 825.05L462.071 829.552C461.33 835.677 461.047 842.42 461.188 849.782C461.277 853.471 461.471 857.301 461.788 861.256C461.841 863.109 462.477 869.305 463.73 879.844C465.46 892.801 467.49 906.128 469.82 919.827Z" fill="#94A85F"/>
<path d="M421.081 848.74L418.592 842.155C412.837 826.78 408.989 815.906 407.065 809.498C403.852 798.836 402.069 792.499 401.734 790.469C400.745 786.32 399.933 782.207 399.28 778.165L398.45 772.163L397.921 766.25C397.656 762.348 397.585 758.571 397.674 754.899C397.903 747.503 398.68 740.83 400.022 734.846C400.675 731.898 401.451 729.162 402.316 726.69L403.676 723.177C404.629 720.989 405.635 719.082 406.729 717.493C409.854 713.221 413.014 711.138 416.191 711.244C419.157 711.033 421.681 712.939 423.799 716.964C423.994 717.282 424.276 718.288 424.647 719.982L424.912 722.224C425 723.778 424.982 725.437 424.859 727.202L424.594 729.903C424.382 731.757 424.082 733.663 423.746 735.64L420.904 750.892C420.551 752.922 420.251 754.934 419.986 756.947C419.227 762.86 418.786 769.162 418.627 775.835C418.292 788.492 419.104 812.799 421.081 848.74Z" fill="#94A85F"/>
<path d="M570.347 822.703L569.87 810.911C569.182 795.182 568.776 779.578 568.67 764.114C568.564 748.668 569.111 733.54 570.347 718.747C572.359 700.494 573.878 689.691 574.884 686.355C577.761 672.286 581.592 658.958 586.376 646.372C598.997 614.35 613.79 590.202 630.719 573.926C639.615 565.506 647.206 560.757 653.455 559.681C660.11 558.357 663.587 562.134 663.905 570.996L663.711 575.444C663.411 578.622 662.828 582.099 661.981 585.912C660.198 593.644 657.656 601.958 654.338 610.855C651.019 619.752 647.382 628.349 643.428 636.663L618.415 686.002C614.072 694.881 609.747 704.784 605.44 715.711C595.749 740.707 584.063 776.365 570.347 822.703Z" fill="#94A85F"/>
<path d="M371.145 793.434L368.355 786.497C361.912 770.292 357.605 758.729 355.451 751.81C351.886 740.3 349.926 733.38 349.556 731.103C348.479 726.514 347.578 721.924 346.872 717.352L346.007 710.485L345.46 703.654C345.213 699.117 345.178 694.651 345.319 690.273C345.672 681.447 346.625 673.415 348.214 666.177C348.991 662.594 349.873 659.328 350.862 656.363C351.868 653.397 352.945 650.837 354.092 648.648L355.857 645.718C359.07 641.482 362.212 639.734 365.284 640.458C369.415 641.429 372.627 644.624 374.957 650.025C376.652 653.944 377.464 659.205 377.393 665.807C377.305 669.973 376.97 674.262 376.387 678.693C374.004 695.022 372.663 704.925 372.327 708.402C371.48 716.593 370.986 722.842 370.827 727.167C370.156 742.63 370.262 764.714 371.145 793.434Z" fill="#94A85F"/>
<path d="M308.332 738.693L305.42 733.097C294.546 712.656 287.026 695.639 282.86 682.099C280.424 674.332 278.658 666.494 277.582 658.533C276.522 650.572 276.028 642.911 276.116 635.532C276.152 631.878 276.293 628.365 276.575 625.029L277.052 620.157C277.423 617.014 277.882 614.102 278.447 611.436C278.994 608.771 279.629 606.388 280.335 604.287C280.618 602.928 281.818 600.35 283.919 596.52C286.884 591.683 291.527 588.311 297.847 586.387C302.295 584.816 305.331 585.734 306.955 589.141C308.473 591.948 309.109 597.491 308.879 605.787C308.791 608.894 308.632 612.284 308.385 615.973L305.984 646.953C305.667 651.384 305.384 655.797 305.155 660.228C304.943 662.522 304.784 668.966 304.661 679.557C304.484 692.302 305.72 712.02 308.332 738.693Z" fill="#94A85F"/>
<path d="M248.263 691.792L244.185 683.513C238.73 672.427 233.541 661.571 228.651 650.926C223.743 640.264 219.525 630.114 215.959 620.476C210.575 605.983 207.574 593.309 206.956 582.488C205.932 565.718 209.357 551.349 217.265 539.345C220.16 535.497 222.243 533.29 223.532 532.69C225.226 531.543 226.886 530.943 228.51 530.943C231.369 530.784 234.053 532.99 236.524 537.598C239.684 544.129 241.608 551.896 242.279 560.934C242.473 562.046 242.49 565.065 242.332 570.008C242.296 571.526 241.678 577.933 240.496 589.231C240.284 591.702 240.125 594.403 240.019 597.316C239.913 600.229 239.878 603.424 239.948 606.884L240.107 612.338C240.919 629.62 243.638 656.116 248.263 691.792Z" fill="#94A85F"/>
<path d="M235.834 678.535L228.173 672.621C207.255 656.893 188.261 641.041 171.209 625.048C161.27 614.986 155.622 608.949 154.245 606.884C147.519 598.71 141.906 590.626 137.369 582.594C126.336 563.07 120.776 544.976 120.723 528.348C121.34 519.292 123.512 513.272 127.236 510.307C130.873 507.094 134.845 506.971 139.117 509.901C141.429 511.366 143.6 514.738 145.577 520.051C145.877 520.651 146.566 523.158 147.66 527.536C150.52 540.74 152.285 548.348 152.974 550.343C154.333 555.303 156.081 560.581 158.252 566.212C161.429 574.632 165.984 583.953 171.897 594.174C181.271 610.908 202.577 639.029 235.834 678.535Z" fill="#94A85F"/>
<path d="M450.878 885.88L447.524 883.197C437.48 875.13 429.536 869.305 423.675 865.739C416.738 861.308 409.395 857.848 401.663 855.394C396.491 853.788 391.689 852.729 387.276 852.199C382.051 851.617 378.256 851.67 375.908 852.411C371.389 853.859 372.271 857.266 378.556 862.65C381.592 864.874 383.498 866.145 384.293 866.462C387.064 867.981 389.906 869.181 392.819 870.046C394.284 870.487 395.767 870.893 397.285 871.246C398.609 871.582 403.481 872.57 411.936 874.194C412.748 874.318 415.502 874.989 420.18 876.171C425.758 877.584 435.997 880.814 450.878 885.88Z" fill="#94A85F"/>
<path d="M399.087 818.978L396.174 817.354C385.512 811.299 376.509 807.062 369.113 804.591C364.576 803.091 360.551 802.067 357.056 801.484C353.243 800.813 349.43 800.372 345.635 800.16C335.026 799.56 325.582 800.566 317.321 803.196C314.125 804.467 312.431 805.262 312.237 805.597C311.389 806.18 310.771 806.78 310.383 807.398C309.995 808.016 309.854 808.651 309.977 809.287L310.383 810.24C310.789 810.875 311.513 811.493 312.537 812.111C315.855 814 320.851 815.677 327.506 817.142C333.649 818.554 340.816 819.631 349.024 820.372C354.867 820.849 361.01 820.99 367.471 820.814C375.203 820.549 385.742 819.931 399.087 818.978Z" fill="#94A85F"/>
<path d="M332.556 757.618L330.067 756.594C317.569 751.28 306.218 747.097 295.98 744.061C286.395 741.271 277.939 739.789 270.596 739.594C265.635 739.418 260.887 739.647 256.35 740.301C253.702 740.654 251.09 741.13 248.53 741.695L244.788 742.595C242.334 743.249 240.074 743.955 238.009 744.714C233.79 746.249 230.948 747.838 229.483 749.48C228.106 751.086 228.759 752.516 231.46 753.769C234.249 755.005 238.274 756.011 243.552 756.823C246.129 757.229 248.848 757.565 251.69 757.865C253.137 758.077 257.427 758.394 264.576 758.783C270.243 759.065 276.297 759.048 282.723 758.765C286.924 758.553 293.544 758.024 302.582 757.212C304.806 757.035 307.401 756.912 310.42 756.841C315.451 756.717 322.829 756.965 332.556 757.618Z" fill="#94A85F"/>
<path d="M275.375 710.571L272.162 708.753C257.14 700.298 245.313 694.984 236.663 692.813C226.213 689.706 213.609 687.764 198.816 687.005C183.37 686.405 170.996 687.817 161.693 691.224C156.468 693.184 152.902 695.267 150.96 697.438C149.672 698.833 149.178 700.121 149.478 701.286C150.254 702.663 150.996 703.458 151.702 703.652C153.379 704.605 156.08 705.382 159.822 705.999C161.711 706.3 163.882 706.564 166.336 706.776C167.589 706.882 168.895 706.97 170.29 707.059C175.127 707.359 182.188 707.535 191.455 707.588C196.08 707.641 207.448 707.518 225.524 707.253C228.066 707.235 230.432 707.253 232.621 707.306C233.574 707.341 235.18 707.429 237.422 707.588C241.588 707.959 254.245 708.947 275.375 710.571Z" fill="#94A85F"/>
<path d="M232.408 676.539L229.407 674.315C215.444 663.953 203.635 657.192 193.979 654.085C178.798 648.648 163.122 645.612 146.97 644.959C132.919 644.482 121.586 646.477 112.971 650.943C110.624 652.143 108.558 653.414 106.775 654.773C105.504 655.444 103.527 657.51 100.844 660.952C99.3261 664.235 98.8318 666.071 99.3791 666.477C99.5556 667.501 100.191 668.419 101.321 669.248C103.827 671.102 109.282 671.967 117.685 671.843C120.368 671.843 124.375 671.614 129.706 671.19C131.542 671.084 139.15 670.308 152.531 668.878C157.65 668.401 160.721 668.136 161.745 668.083C167.465 667.607 174.049 667.518 181.516 667.819C186.035 667.96 193.025 668.807 202.487 670.343C209.442 671.526 219.416 673.591 232.408 676.539Z" fill="#94A85F"/>
<path d="M552.909 598.481L559.141 588.437C581.842 551.296 601.224 522.805 617.305 502.928C635.788 480.086 655.541 460.968 676.582 445.593C708.604 422.486 739.284 406.969 768.622 399.025C782.356 395.936 790.918 395.724 794.324 398.372C799.338 401.514 799.408 407.428 794.519 416.078C785.092 429.67 772.559 441.268 756.901 450.853C750.334 455.602 720.096 472.883 666.185 502.751C652.187 511.013 639.318 519.574 627.597 528.471C609.256 541.604 584.366 564.941 552.909 598.481Z" fill="#577537"/>
<path d="M627.758 423.986L635.154 415.301C662.039 383.209 685.481 358.372 705.464 340.79C728.73 320.26 753.708 303.243 780.399 289.722C803.012 278.989 818.563 272.793 827.054 271.098C839.146 267.78 850.32 266.103 860.559 266.085C873.851 266.244 882.73 268.75 887.196 273.605C889.191 276.729 889.95 278.742 889.474 279.624C888.467 284.108 886.985 287.197 885.06 288.892C875.705 299.342 859.711 309.457 837.081 319.254C831.715 321.549 826.225 323.65 820.611 325.591L812.156 328.345C806.56 330.252 789.366 334.771 760.593 341.902C754.856 343.42 749.154 345.062 743.505 346.845C732.19 350.34 721.192 354.877 710.495 360.455C686.594 373.43 659.02 394.613 627.758 423.986Z" fill="#577537"/>
<path d="M704.241 317.663L709.608 307.99C725.601 278.951 740.058 257.292 752.98 242.993C766.29 228.871 774.798 220.645 778.541 218.297C784.913 213.125 791.815 208.2 799.247 203.54C814.41 194.166 830.245 186.011 846.785 179.056C863.308 172.119 878.489 166.629 892.311 162.639C905.056 158.685 916.53 156.373 926.715 155.702C928.64 155.384 930.987 155.984 933.741 157.485C935.136 159.056 934.941 161.333 933.176 164.263C924.597 176.532 911.199 189.012 893.017 201.739C886.697 206.029 879.354 210.371 870.969 214.767L803.501 246.806C792.874 252.031 782.759 257.61 773.192 263.541C751.938 276.974 728.972 295.015 704.241 317.663Z" fill="#577537"/>
<path d="M524.083 681.851L520.182 672.901C508.514 646.069 499.211 624.869 492.238 609.281L457.127 532.052L449.36 514.17C444.047 500.86 441.311 493.534 441.169 492.175C439.934 488.097 439.228 484.778 439.051 482.166C438.504 476.446 441.328 474.964 447.524 477.717C453.632 480.824 460.728 486.314 468.831 494.205C476.527 501.513 483.729 509.916 490.473 519.413C493.968 524.038 498.099 531.628 502.847 542.184C514.78 574.7 522.583 602.45 526.237 625.451C527.666 635.69 528.108 645.045 527.561 653.536C527.207 660.703 526.06 670.147 524.083 681.851Z" fill="#577537"/>
<path d="M581.561 526.952L579.372 519.573C569.116 485.133 560.272 459.061 552.876 441.373C549.645 432.617 537.747 405.697 517.165 360.613C511.304 347.056 508.074 339.306 507.473 337.347C502.231 323.507 499.636 313.269 499.653 306.667C499.671 297.911 502.919 294.257 509.38 295.705C515.452 296.781 523.272 303.507 532.858 315.881C548.798 337.435 563.626 368.821 577.324 410.004C583.203 429.034 586.521 446.457 587.28 462.273C588.234 480.72 586.345 502.274 581.561 526.952Z" fill="#577537"/>
<path d="M658.579 374.453L659.197 368.081C662.533 334.135 663.645 308.327 662.498 290.675C662.074 281.954 661.368 272.669 660.362 262.819L651.977 187.443C649.911 167.072 648.746 154.75 648.464 150.461C646.134 124.247 645.551 103.258 646.716 87.4592C647.705 76.0204 650.67 71.4131 655.613 73.6549C659.709 74.5552 666.417 83.9993 675.702 102.022C684.263 120.346 690.159 137.01 693.425 151.979C696.973 167.531 699.003 183.047 699.515 198.511C700.045 214.063 699.586 229.897 698.138 246.049C697.202 256.782 695.879 267.285 694.202 277.523C693.354 282.625 692.436 287.603 691.43 292.44L689.859 299.571C684.599 323.72 674.166 348.681 658.579 374.453Z" fill="#577537"/>
<path d="M490.911 428.593L490.205 422.485C489.304 410.552 485.95 397.33 480.107 382.82C475.977 373.04 469.392 361.955 460.301 349.598C450.822 337.012 438.642 323.049 423.743 307.709C364.395 248.696 331.968 215.421 326.425 207.848C311.491 191.061 302.524 175.933 299.487 162.464L299.54 159.004C299.876 156.939 300.723 155.403 302.082 154.361C303.212 153.32 305.242 152.808 308.19 152.826C315.692 153.602 325.684 157.839 338.146 165.571C386.691 196.551 417.759 222.535 431.369 243.506C450.116 270.285 465.085 301.177 476.277 336.2C485.174 365.626 490.063 396.412 490.911 428.593Z" fill="#3A5530"/>
<path d="M475.838 314.451L473.985 298.405C468.371 250.161 465.406 214.274 465.07 190.76C464.187 161.934 466.376 136.779 471.637 115.331C475.256 101.174 479.792 88.9586 485.265 78.7202C487.948 73.6186 490.754 69.0289 493.685 64.9689C495.115 62.2504 499.563 57.3783 507.03 50.335C514.073 44.4743 521.028 41.9147 527.878 42.6561C534.709 43.8212 538.84 48.6933 540.323 57.2371C541.135 63.945 540.005 71.6768 536.916 80.4501C535.415 84.9162 533.597 89.7177 531.443 94.8545C519.157 122.64 511.496 140.592 508.46 148.73C503.111 162.305 498.557 176.709 494.797 191.926C491.072 207.16 487.948 222.941 485.423 239.287C481.734 263.877 478.521 288.926 475.838 314.451Z" fill="#3A5530"/>
<path d="M462.614 233.037L460.319 225.746C449.515 191.73 438.465 168.323 427.15 155.56C425.879 153.265 420.018 146.928 409.568 136.548C405.172 132.453 400.547 128.375 395.711 124.333L350.291 86.8566C338.111 75.5767 331.05 68.604 329.09 65.9737C310.643 44.8967 299.258 27.0853 294.915 12.5573C291.014 -1.90007 300.246 -3.87714 322.612 6.64374C349.196 19.7066 370.185 35.7527 385.613 54.7997C405.649 83.2555 417.317 100.378 420.636 106.186C428.897 119.99 434.387 130.246 437.106 136.937C447.45 161.103 455.959 193.142 462.614 233.037Z" fill="#3A5530"/>
<path d="M334.741 516.75L332.394 511.278C315.783 472.69 301.643 432.46 290.01 390.57C285.65 374.789 282.172 358.902 279.56 342.944C278.306 335.036 277.424 327.339 276.912 319.837L276.523 308.857L276.859 298.407L277.83 289.369C278.712 283.526 279.93 278.089 281.519 273.075C284.767 262.996 288.81 254.876 293.646 248.715C308.157 232.192 318.766 233.004 325.527 251.169L327.292 256.87C328.369 260.93 329.251 265.397 329.922 270.233C331.264 280.066 331.864 290.551 331.74 301.672L331.529 309.863C331.317 315.3 330.946 320.702 330.469 326.033C330.063 331.346 328.21 347.322 324.909 373.959C324.309 379.343 323.814 384.78 323.426 390.288C322.596 401.285 322.473 412.654 323.02 424.41C323.585 436.167 324.662 448.206 326.215 460.527C328.634 479.045 331.476 497.791 334.741 516.75Z" fill="#3A5530"/>
<mask id="mask1_1129_501" style="mask-type:luminance" maskUnits="userSpaceOnUse" x="0" y="247" width="289" height="178">
<path d="M0 247.831H288.23V424.073H0V247.831Z" fill="white"/>
</mask>
<g mask="url(#mask1_1129_501)">
<path d="M284.558 421.938L277.92 416.13C250.224 390.746 220.921 370.198 190.011 354.488C175.96 347.515 160.884 340.825 144.785 334.417C139.578 332.104 112.799 321.954 64.4136 303.966C48.4734 297.7 39.5589 294.063 37.6348 293.057C22.1536 286.243 11.5268 280.224 5.75442 274.981C1.90618 271.503 0.264502 268.291 0.794075 265.396C1.32365 262.854 3.33603 260.594 6.79592 258.599C13.2567 254.486 25.0309 252.333 42.1362 252.174C56.0463 252.527 70.2743 255.104 84.7846 259.888C102.649 266.296 116.065 272.103 125.015 277.311C162.879 298.582 198.696 324.355 232.501 354.646C259.209 378.142 276.579 400.561 284.558 421.938Z" fill="#3A5530"/>
</g>
<path d="M305.259 456.677L293.873 448.663C271.384 432.158 247.712 417.93 222.84 406.014C214.455 402.219 205.805 398.918 196.891 396.147L183.281 392.457L169.159 389.721C156.219 388.15 149.617 387.479 149.353 387.727C134.136 386.879 116.431 387.956 96.2186 390.922C77.1539 393.958 60.031 398.053 44.8499 403.19L34.3113 407.003C27.674 409.616 22.0605 412.246 17.4532 414.876C12.8459 417.524 9.52726 420.066 7.49723 422.484C3.63134 427.709 5.09649 432.211 11.9103 435.953C15.1407 437.842 19.1655 439.554 23.967 441.125L31.4869 443.367C36.818 444.779 42.3962 446.068 48.2215 447.233C80.0489 453.094 101.038 456.236 111.206 456.659C120.42 457.242 129.829 457.065 139.397 456.165C147.57 455.353 153.413 454.7 156.925 454.188C182.398 450.693 198.073 448.663 203.934 448.08C213.502 446.845 225.117 446.068 238.798 445.786C243.281 445.786 247.571 445.927 251.702 446.209C253.926 446.227 259.786 446.898 269.248 448.222C278.551 449.687 290.555 452.493 305.259 456.677Z" fill="#3A5530"/>
<path d="M576.475 967.788L578.346 966.34C580.729 964.416 583.765 962.527 587.472 960.674C591.179 958.838 596.44 957.09 603.271 955.431C615.239 952.748 629.167 950.806 645.055 949.57C685.196 946.658 717.995 948.017 743.432 953.63C766.151 958.714 784.703 967.911 799.108 981.239C802.25 984.257 804.915 987.258 807.087 990.224C808.799 991.883 810.917 996.085 813.459 1002.83C814.977 1008.69 813.795 1013.33 809.911 1016.7C803.221 1022.47 788.869 1023.39 766.839 1019.44C754.5 1017 740.554 1013.4 725.003 1008.62C720.113 1007.4 693.952 998.821 646.502 982.863L637.217 979.897L621.312 975.184C605.619 970.577 590.685 968.105 576.475 967.788Z" fill="#94A85F"/>
</svg>
