<svg width="279" height="432" viewBox="0 0 279 432" fill="none" xmlns="http://www.w3.org/2000/svg">
<mask id="mask0_1567_916" style="mask-type:luminance" maskUnits="userSpaceOnUse" x="77" y="61" width="264" height="337">
<path d="M77.1719 61.9561H340.807V397.956H77.1719V61.9561Z" fill="white"/>
</mask>
<g mask="url(#mask0_1567_916)">
<path d="M340.578 397.217C306.766 381.488 273.188 364.597 242.552 342.899C211.995 320.936 185.979 293.837 160.276 266.79C147.63 253.097 134.276 239.878 123.88 223.91C113.495 207.92 106.901 190.008 101.417 172.154C90.1875 136.446 82.0521 99.7741 77.2812 62.7324L77.7552 62.6543C85.4635 99.1699 94.8594 135.201 106.146 170.67C111.891 188.295 118 205.883 127.703 221.482C137.479 236.998 150.292 250.727 162.255 265.024C174.427 279.128 186.974 292.951 200.724 305.535C214.385 318.227 229.349 329.357 244.833 339.623C275.563 360.514 308.417 378.16 340.807 396.785L340.578 397.217Z" fill="#89C190"/>
</g>
<path d="M96.5195 90.6796C93.5247 94.3879 89.5664 97.9661 84.3476 98.4557C79.0351 98.7213 74.4726 95.4036 70.7851 92.2629C67.0508 88.9609 63.7956 85.3098 60.6445 81.6379C57.3841 77.8879 54.556 73.7057 52.3008 69.1536C50.1341 64.5754 48.6081 59.4869 48.5299 54.2161C48.4154 48.9244 49.832 43.8932 51.4726 39.2629C54.8424 30.0546 59.082 21.2577 64.0716 12.8931C65.3008 10.8046 66.5612 8.71085 67.8581 6.67961L69.8581 3.62752C70.556 2.64836 70.931 1.50252 72.2904 0.502522C73.7383 -0.476645 75.5872 0.143147 76.5872 0.934813C77.6758 1.72648 78.5039 2.77856 79.1862 3.77856C80.5768 5.75773 82.0508 7.67961 83.3841 9.71086C88.9101 17.6796 94.1081 25.9661 98.1758 34.8723C102.077 43.7629 105.316 53.2734 105.525 63.2942C105.676 68.2473 105.03 73.2525 103.546 77.9452C101.983 82.5963 99.6237 86.9452 96.5195 90.6796ZM96.1445 90.3775C99.1601 86.6692 101.379 82.2734 102.322 77.6275C103.207 72.9557 103.243 68.19 102.509 63.5598C101.04 54.2942 97.7435 45.3463 94.4831 36.3984C91.1445 27.5077 87.2695 18.6588 82.0872 10.5754C80.7851 8.56502 79.4518 6.56502 77.9987 4.66398C76.7539 2.83586 74.5872 0.934813 73.2331 1.91398C72.5924 2.34627 72.0091 3.55461 71.3841 4.57023L69.6706 7.71606C68.5404 9.84106 67.4466 11.9713 66.4154 14.1379C62.306 22.7994 58.7643 31.7109 55.7851 40.7109C54.3372 45.1952 53.3164 49.6796 53.5456 54.065C53.7851 58.4713 55.0091 62.8411 56.957 66.9504C58.8164 71.1067 61.4362 74.9921 64.2643 78.7161C67.2226 82.5234 69.9726 86.4609 73.0247 89.9973C76.0716 93.4452 79.7279 96.7786 84.3268 97.1015C88.9622 97.289 93.1601 93.9921 96.1445 90.3775Z" fill="#89C190"/>
<path d="M75.5299 130.3C71.3477 125.013 67.582 119.44 63.7956 113.92C61.9674 111.17 60.0404 108.571 57.8008 106.519C55.6133 104.466 52.8633 103.222 49.8529 102.055C46.8164 100.904 43.5404 99.8311 40.4102 98.1019C37.3008 96.3623 34.6081 94.2008 32.0247 92.055C26.9987 87.7581 21.4362 83.4092 14.8997 83.2946L15.5247 81.7894L25.207 89.8883C28.4466 92.6383 31.5768 95.8363 33.8372 99.7217C36.1341 103.466 37.6393 107.44 39.6549 110.847C41.6549 114.315 44.0664 116.951 47.3633 118.743C50.6602 120.508 54.6133 121.753 58.6081 123.164L70.4258 127.513C74.3633 128.93 78.2643 130.529 82.1602 132.076C84.1393 132.847 85.9466 133.675 87.832 133.826C88.7539 133.904 89.7904 133.696 90.8841 133.618C91.9362 133.524 93.3164 133.659 94.1081 134.581L93.7852 134.935C92.0925 133.868 90.1862 135.258 87.8893 135.487C85.5299 135.748 83.3477 135.05 81.3529 134.539C77.28 133.487 73.1966 132.472 69.181 131.284L57.0872 127.8C53.1289 126.519 48.931 125.519 44.8581 123.243C40.6549 121.076 37.4518 117.029 35.4935 113.149C33.457 109.206 32.0247 105.274 30.2383 101.716C26.6758 94.7321 20.2539 88.9821 14.3529 83.0706L12.6758 81.3936L14.9779 81.5602C22.2122 82.0758 27.7695 86.7425 33.3477 90.2633C36.1549 92.0706 38.9779 93.805 41.8997 94.9925C44.8372 96.1436 48.0404 96.8727 51.3216 98.0238C54.556 99.1488 58.0247 100.847 60.6654 103.503C63.3216 106.065 65.1289 109.138 66.8112 112.071C69.9935 118.008 73.1549 123.899 75.9414 130.06L75.5299 130.3Z" fill="#89C190"/>
<path d="M158.432 151.002C168.474 149.872 178.567 148.705 187.916 145.409C192.567 143.768 196.937 141.513 200.916 138.757C204.854 135.935 208.317 132.471 211.203 128.549C216.963 120.679 220.958 111.565 223.526 101.961C226.198 92.3721 227.687 82.3721 228.968 72.3512L230.229 73.3096C213.067 79.7158 197.088 89.1898 182.786 100.528C179.208 103.336 175.781 106.346 172.333 109.341C168.922 112.377 165.552 115.409 162.859 118.815C160.104 122.205 158.276 125.935 157.979 130.06C157.562 134.2 158.562 138.57 158.937 143.409C159.125 145.82 159.104 148.382 158.599 150.945C158.057 153.507 157.26 155.674 156.375 157.914C154.588 162.341 152.474 166.502 150.437 170.549C148.422 174.638 146.562 178.69 145.375 182.867C144.187 187.127 143.192 191.586 142.489 196.034C139.776 213.851 140.927 232.398 146.651 249.856L146.198 250.028C138.609 233.19 136.026 214.023 138.25 195.45C138.797 190.778 139.588 186.221 140.703 181.586C141.948 176.898 143.885 172.549 145.864 168.346C147.823 164.148 149.953 160.117 151.593 156.007C152.422 153.997 153.156 151.83 153.609 149.893C154.041 147.95 154.114 145.877 154.005 143.716C153.797 139.398 152.797 134.653 153.364 129.606C153.833 124.502 156.375 119.679 159.541 116.086C162.724 112.393 166.343 109.414 169.906 106.476C173.505 103.544 177.234 100.789 181.021 98.1377C196.208 87.5127 212.578 78.8669 229.536 71.5804L230.927 70.9971L230.797 72.5387C229.948 82.6169 229.307 92.7835 227.125 102.841C224.901 112.841 221.057 122.846 214.5 131.075C208.13 139.398 198.896 145.711 188.854 148.33C178.869 151.247 168.562 151.622 158.463 151.492L158.432 151.002Z" fill="#89C190"/>
<path d="M151.682 158.951C152.266 153.638 151.042 148.555 149.01 143.977C146.974 139.341 143.844 135.295 140.516 131.336C137.234 127.326 133.693 123.315 129.958 119.529C126.193 115.763 122.182 112.258 118.016 108.966L119.578 108.024C121.161 114.05 122.911 120.024 124.344 126.071C125.703 132.128 127.208 138.154 128.38 144.258C129.604 150.289 130.62 156.216 133.052 161.586C135.484 166.857 139.214 171.795 144.823 174.493L144.693 174.94C138.307 173.847 132.901 169.008 129.583 163.414C126.214 157.727 124.536 151.362 123.328 145.258C122.083 139.175 121.203 133.019 120.146 126.894C119.167 120.774 118.505 114.56 117.677 108.399L117.281 105.503L119.26 107.456C123.068 111.243 127.021 114.821 131.245 118.118C135.542 121.357 139.891 124.539 143.698 128.534C147.427 132.524 150.594 137.31 152.385 142.68C154.151 147.987 154.359 154.013 152.156 159.06L151.682 158.951Z" fill="#89C190"/>
<path d="M138.38 196.825C144.166 199.31 150.307 198.294 156.416 197.523C162.536 196.711 168.525 195.409 174.541 194.055C180.551 192.758 186.63 191.211 192.343 188.726C198.046 186.2 203.307 182.752 208.109 178.82L208.661 181.174C202.234 180.549 196.036 178.857 190.01 177.258C183.994 175.674 178.02 174.393 172.145 174.284C166.301 174.148 160.411 175.409 155.041 178.049C149.63 180.648 144.755 184.508 140.833 189.424L140.416 189.174C143.036 183.325 147.614 178.31 153.192 174.768C158.77 171.284 165.421 169.117 172.161 169.138C178.911 169.138 185.26 170.987 191.286 172.903C197.333 174.81 203.098 177.091 209.093 178.591L212.218 179.367L209.64 180.945C204.213 184.299 198.635 187.258 193.02 190.138C187.39 192.997 181.697 195.903 175.609 197.935C169.51 199.872 163.14 200.93 156.755 201.247C150.593 201.534 143.301 201.456 138.119 197.237L138.38 196.825Z" fill="#89C190"/>
<path d="M204.688 107.498C202.703 112.826 198.672 117.081 194.115 120.055C191.74 121.487 189.083 122.394 186.786 123.805C184.448 125.18 182.391 126.914 180.432 128.8C176.589 132.623 172.599 135.993 168.979 139.644C165.172 143.133 161.708 146.748 158.276 151.097L157.828 150.909C158.411 145.258 161.536 140.081 165.344 136.008C169.318 132.055 173.932 128.909 178.932 126.633C181.375 125.43 183.786 124.185 185.901 122.508C188.026 120.868 189.76 118.701 191.682 116.873C195.656 113.357 199.745 110.414 204.307 107.19L204.688 107.498Z" fill="#89C190"/>
<path d="M132.657 137.122C134.938 139.289 136.235 141.356 137.048 143.789C137.35 145.049 137.329 146.575 137.933 147.763C138.496 148.971 139.553 149.836 140.704 150.606C143.094 152.054 145.131 153.903 146.787 156.351C148.214 158.836 149.105 162.362 147.6 165.242L147.126 165.257C145.449 162.716 144.016 161.153 142.49 159.195C141.173 157.164 139.605 154.997 138.647 152.263C138.105 150.929 137.537 149.664 136.631 148.606C135.751 147.56 134.371 146.747 133.469 145.617C131.844 143.263 131.246 140.268 132.183 137.237L132.657 137.122Z" fill="#89C190"/>
<path d="M183.618 183.565C179.978 185.638 176.327 186.575 172.525 186.784C170.598 186.784 168.603 186.336 166.697 186.523C164.78 186.674 162.967 187.336 161.181 188.128C157.66 189.815 154.02 190.914 150.363 191.852C146.65 192.607 143.259 192.982 139.285 193.81L139.02 193.414C141.374 189.878 145.447 188.008 149.103 186.883C152.868 185.935 156.691 185.352 160.655 185.529C162.629 185.56 164.572 185.487 166.415 184.977C168.285 184.508 170.056 183.414 171.9 182.831C175.671 181.872 179.587 181.852 183.561 183.096L183.618 183.565Z" fill="#89C190"/>
<mask id="mask1_1567_916" style="mask-type:luminance" maskUnits="userSpaceOnUse" x="0" y="128" width="148" height="124">
<path d="M0 128.622H147.776V251.289H0V128.622Z" fill="white"/>
</mask>
<g mask="url(#mask1_1567_916)">
<path d="M72.2188 219.596C69.3542 210.268 66.0521 201.138 62.1146 192.346C58.0677 183.679 53.3177 175.164 45.8594 169.627C42.125 166.877 37.9271 164.544 33.724 161.867C29.5417 159.195 25.5833 156.185 21.9115 152.882C14.4323 146.424 7.93229 139.101 1.07292 132.185L2.52604 131.377C6.17708 147.56 10.8698 163.81 19.5729 177.763C23.9271 184.695 29.0521 191.117 35.3073 196.185C41.4271 201.367 48.8906 204.737 56.3542 208.638C63.7969 212.57 70.8438 216.487 78.5833 218.882C82.4479 220.159 86.4583 221.216 90.4896 222.398C94.526 223.643 98.5156 224.981 102.453 226.45C118.266 232.252 133.219 240.273 146.729 250.086L146.464 250.497C131.958 242.268 116.755 235.58 101.078 230.445C93.224 227.862 85.2552 226.148 77.0573 223.7C68.7708 221.325 61.1771 217.034 53.9948 213.044C46.8177 209.044 39 205.32 32.4635 199.539C25.9792 193.789 20.7604 186.862 16.8073 179.367C8.78125 164.336 5.23437 147.82 0.848958 131.789L0 128.685L2.29688 130.961C9.19271 137.836 16.4844 144.299 24.1146 150.19C27.9583 153.091 31.8958 155.841 35.9271 158.367C39.9583 160.867 44.4271 163.054 48.4375 166.294C56.5208 172.81 61.6042 181.945 65.0156 191.138C68.5208 200.33 71.1198 209.82 72.6667 219.481L72.2188 219.596Z" fill="#89C190"/>
</g>
<path d="M81.39 222.966C75.4577 222.065 70.291 225.226 66.1869 229.013C62.041 232.872 57.8952 237.58 52.9212 241.101C47.9837 244.7 42.4837 247.409 36.9056 249.711C31.3118 251.992 25.6973 254.044 19.9316 255.794L19.9681 254.117C27.0723 255.924 34.291 257.315 41.3171 257.544C44.8223 257.58 48.3066 257.377 51.6035 256.508C54.9212 255.659 58.0827 254.232 61.2077 252.643C67.4473 249.351 73.2858 245.263 78.9421 240.669C84.5723 236.091 90.1504 231.383 95.4421 226.284L95.8223 226.58C91.791 232.815 86.8744 238.429 81.5566 243.622C76.3014 248.81 70.39 253.742 63.5879 257.205C56.8587 260.841 48.666 262.554 41.0514 261.685C33.3848 260.935 26.3952 258.164 19.4629 255.794L16.541 254.794L19.4993 254.117C25.2441 252.799 30.8587 250.747 35.9629 247.773C41.1087 244.867 45.7598 241.273 50.3223 237.695C52.6191 235.888 54.8639 234.06 57.0462 232.138C59.1921 230.179 61.4577 228.143 63.9056 226.242C68.6712 222.497 75.6973 219.877 81.541 222.513L81.39 222.966Z" fill="#89C190"/>
<path d="M65.0924 216.336C62.0195 213.133 60.3268 209.029 58.6654 205.206C57.0664 201.211 55.5612 197.919 53.1497 194.753C50.8685 191.513 48.0612 188.331 44.8372 185.659C41.5977 182.982 38.0195 180.721 34.5716 178.138C31.0664 175.617 27.8268 172.737 24.9831 169.497C22.0977 166.315 19.3841 162.961 17.0299 159.404C12.3737 152.206 8.66537 144.56 5.80078 136.518L6.23307 136.273C11.7331 142.826 16.4466 149.773 21.2695 156.503C25.9206 163.378 30.8372 169.93 36.3216 176.185C39.1133 179.273 42.3112 182.003 45.7799 184.414C49.2487 186.826 53.0352 188.956 56.2174 192.169C59.4414 195.357 61.1966 200.003 62.1914 203.982C63.3789 208.049 64.0143 212.154 65.5039 216.07L65.0924 216.336Z" fill="#89C190"/>
<path d="M101.509 228.367C102.301 221.815 104.379 215.45 102.431 209.763C100.853 203.903 97.2331 198.518 94.5247 192.606C91.6602 186.763 88.8893 180.856 85.3112 175.409C81.7852 169.95 77.6758 164.882 73.4935 159.909L76.4674 158.664C77.7331 164.242 78.8268 169.856 79.8477 175.471C80.8997 181.08 81.9154 186.695 82.6549 192.346C83.4987 197.976 83.9883 203.679 84.6497 209.351C84.8945 212.117 85.2331 214.867 86.0247 217.481C86.7591 220.101 87.8737 222.664 89.9987 224.507L89.7331 224.924C87.0039 223.643 85.1393 220.966 83.8372 218.33C82.556 215.622 81.707 212.778 81.0299 209.914C79.9206 204.32 78.6185 198.747 77.6758 193.132C76.6445 187.523 75.8841 181.872 75.1706 176.2C74.3997 170.549 73.7018 164.882 73.1966 159.195L72.5508 152.169L76.1706 157.95C79.6602 163.507 82.9518 169.159 86.5299 174.622C90.056 180.117 94.0716 185.299 97.7279 190.757C101.306 196.169 104.79 201.987 106.186 208.914C106.936 212.284 106.634 216.127 105.603 219.289C104.639 222.513 103.28 225.492 101.983 228.502L101.509 228.367Z" fill="#89C190"/>
<path d="M94.2031 225.997C93.6354 220.326 92.5625 215.32 91.5104 210.102C91.0729 207.56 90.6823 204.622 89.8698 201.987C89.0573 199.31 87.7969 196.826 86.4219 194.357C83.5573 189.497 81.3333 184.393 79.3542 179.195C77.5833 173.919 76.151 168.518 75.625 162.753L76.0729 162.586C79.5052 167.237 81.9948 172.247 84.1615 177.388C86.1042 182.586 87.8333 187.898 88.8906 193.435C89.474 196.185 90.1875 198.898 91.3385 201.435C92.4323 204.018 94.2396 206.206 95.3698 208.992C97.3125 214.456 97.4635 220.836 94.6719 226.112L94.2031 225.997Z" fill="#89C190"/>
<path d="M198.635 359.997C193.473 348.247 185.275 338.57 176.588 329.263C168.041 319.826 159.598 310.263 149.062 303.664C138.609 296.966 126.609 292.747 114.213 290.336C101.791 287.924 88.9629 287.565 76.2806 288.378L76.8535 287.154C87.4004 301.617 100.229 314.383 114.473 324.966C121.614 330.242 129.13 334.951 137.046 338.867C144.921 342.841 153.286 345.841 161.744 348.607C170.187 351.357 178.869 353.992 187.39 356.326C195.958 358.549 204.437 359.909 213.088 358.247C217.437 357.549 221.786 356.482 226.291 355.706C230.796 354.971 235.317 354.466 239.854 354.216C248.937 353.654 258.02 354.409 266.895 355.966L266.817 356.461C257.89 355.633 248.921 355.893 240.083 356.893C231.176 357.794 222.807 360.305 213.822 362.242C204.76 364.315 194.921 363.445 186.182 361.055C177.364 358.701 168.827 356.195 160.161 353.445C142.942 347.867 126.171 339.565 112.14 327.982C97.9316 316.549 86.2129 302.576 75.6087 288.055L74.7598 286.909L76.1921 286.831C88.9629 286.133 101.812 286.076 114.645 287.659C127.416 289.258 140.249 292.992 151.364 300.07C162.536 307.211 170.994 317.305 179.156 327.039C183.202 331.977 187.291 336.987 190.833 342.393C194.281 347.857 197.166 353.69 199.088 359.831L198.635 359.997Z" fill="#89C190"/>
<path d="M109.426 414.544C118.395 408.758 127.53 403.695 136.915 398.966C141.66 396.742 146.561 394.711 151.155 392.148C155.79 389.628 159.863 386.273 164.796 383.768C169.827 381.133 175.54 380.773 180.452 379.831C185.52 378.888 190.478 377.534 195.259 375.878C204.926 372.711 213.764 367.497 221.15 359.867L221.546 360.148C216.608 369.758 207.207 376.93 196.999 380.716C191.868 382.638 186.483 383.674 181.134 384.315C175.671 385.029 170.582 384.669 165.796 386.216C156.04 389.549 147.707 396.799 138.832 402.492C129.733 407.914 119.936 412.227 109.629 414.992L109.426 414.544Z" fill="#89C190"/>
<mask id="mask2_1567_916" style="mask-type:luminance" maskUnits="userSpaceOnUse" x="77" y="368" width="121" height="64">
<path d="M77.1719 368.622H197.109V431.153H77.1719V368.622Z" fill="white"/>
</mask>
<g mask="url(#mask2_1567_916)">
<path d="M159.167 374.201C166.084 371.638 173.35 369.997 180.891 369.867C184.636 369.945 188.558 370.414 192.157 372.523C193.928 373.576 195.626 375.294 196.376 377.555C197.11 379.794 196.808 382.07 196.339 384.029C191.365 398.872 180.475 410.586 167.605 418.477C154.699 426.424 139.683 430.456 124.86 431.023C109.954 431.68 95.2975 429.685 80.7871 427.029L77.7559 426.482L80.6777 425.258C87.8132 422.263 91.7507 415.128 96.5423 408.727C98.9694 405.503 101.761 402.242 105.506 399.945C109.292 397.482 113.553 396.799 117.11 395.654C124.365 393.414 131.282 389.529 138.063 385.43C144.902 381.378 151.704 377.044 159.167 374.201ZM159.334 374.654C151.891 377.456 145.485 382.242 139.157 387.044C132.808 391.773 126.292 396.784 118.412 399.586C114.475 400.982 110.725 401.695 107.751 403.602C104.657 405.424 102.058 408.195 99.459 411.096C96.8965 414.013 94.4277 417.216 91.584 420.138C88.735 423.076 85.2715 425.633 81.2923 427.008L81.1829 425.221C95.3704 428.706 110.199 429.852 124.61 428.102C138.964 426.294 153.042 422.133 164.969 414.299C176.896 406.69 186.839 395.518 192.365 382.919C193.433 379.81 193.094 377.023 190.417 375.049C187.839 373.091 184.298 372.128 180.771 371.737C173.636 370.997 166.193 372.185 159.334 374.654Z" fill="#89C190"/>
</g>
<path d="M195.467 358.628C186.311 351.878 178.04 344.388 169.749 336.987C165.697 333.143 161.686 329.206 157.108 325.982C152.551 322.747 147.54 320.221 142.322 318.247C131.905 314.326 121.145 310.992 110.764 306.57C100.759 302.237 89.4518 298.435 80.8633 290.768L81.1237 290.352C91.2799 295.362 101.967 297.695 112.702 301.805C122.988 306.211 133.54 310.164 143.452 315.857C148.405 318.643 153.171 321.732 157.978 324.685C162.78 327.643 167.733 330.508 172.316 333.898C181.28 340.883 189.009 349.211 195.811 358.289L195.467 358.628Z" fill="#89C190"/>
<path d="M224.275 246.867C234.186 242.929 242.65 236.221 249.223 228.143C255.738 219.992 260.806 210.648 263.728 200.664C265.145 195.695 266.233 190.685 265.988 185.617C265.764 180.534 264.728 175.429 263.238 170.403C260.15 160.325 256.061 150.419 250.655 141.284L252.03 141.325C242.077 155.711 232.66 170.945 228.212 187.731C225.988 196.091 225.067 204.606 225.749 213.211C226.254 221.815 227.744 230.518 228.16 239.523C228.4 243.987 228.233 248.69 227.478 252.987L225.577 266.112C224.541 274.606 224.405 283.273 225.483 291.82C227.593 308.919 233.863 325.591 243.869 340.054L243.494 340.356C231.983 326.961 224.087 310.164 221.322 292.424C219.811 283.57 219.567 274.476 220.582 265.507C221.41 256.773 223.634 248.185 223.129 239.69C222.942 231.101 221.655 222.362 221.322 213.419C220.884 204.45 222.202 195.263 225.03 186.763C230.796 169.685 241.139 155.127 250.676 140.398L251.369 139.31L252.067 140.435C257.603 149.627 262.598 159.195 266.384 169.346C268.27 174.435 269.811 179.799 270.077 185.429C270.379 191.044 269.514 196.695 267.78 201.909C264.353 212.304 259.077 222.174 251.655 230.237C244.322 238.299 234.9 244.679 224.426 247.336L224.275 246.867Z" fill="#89C190"/>
<path d="M224.317 279.575C225.197 275.961 227.687 273.044 230.306 270.502C232.983 267.976 236.051 265.888 239.332 264.08C245.905 260.388 253.551 259.065 260.905 258.804C268.306 258.559 275.541 259.273 282.76 260.273C289.973 261.273 297.098 262.856 304.03 265.002L307.832 266.169L304.332 267.638C297.452 270.518 290.655 273.57 284.02 276.961C277.312 280.257 271.265 284.575 264.088 287.586C256.739 290.632 248.598 290.408 241.291 289.429C237.707 288.961 233.827 288.997 230.077 288.013C228.249 287.492 226.275 286.809 225.01 285.19C223.77 283.533 223.864 281.388 224.317 279.575ZM224.786 279.695C224.405 281.445 224.374 283.44 225.541 284.773C226.744 286.039 228.536 286.586 230.327 286.757C233.921 287.112 237.541 286.513 241.405 286.341C248.885 285.981 256.004 286.002 262.786 283.836C266.233 282.893 269.645 281.502 273.093 280.07C276.541 278.658 279.989 277.205 283.343 275.586C290.051 272.367 296.603 268.804 303.088 265.096L303.369 267.731C296.327 266.507 289.28 265.549 282.213 264.836C275.166 264.195 268.025 263.856 261.036 263.908C254.046 264.002 247.187 264.836 240.572 266.919C237.254 268.033 234.036 269.539 231.135 271.518C228.27 273.533 225.728 276.268 224.786 279.695Z" fill="#89C190"/>
<path d="M224.77 253.06C222.734 248.414 219.869 244.341 216.817 240.481C213.765 236.601 210.333 233.039 206.697 229.82C203.046 226.659 199.145 223.377 195.072 220.382C191.02 217.336 186.671 214.716 182.338 212.023L183.656 211.195C184.864 217.409 186.838 223.419 188.687 229.403C190.593 235.377 192.588 241.33 195.489 246.528C198.312 251.856 202.275 255.794 207.604 259.273C212.692 262.856 218.416 266.284 222.505 271.388L222.166 271.721C217.041 267.997 211.161 265.794 205.531 262.669C202.723 261.101 199.807 259.481 197.202 257.112C194.676 254.757 192.551 251.992 190.989 248.997C187.807 243.023 186.182 236.695 184.713 230.481C183.26 224.211 182.64 217.789 181.963 211.44L181.775 209.497L183.301 210.612C187.369 213.586 191.739 216.164 196.26 218.502C200.765 220.909 205.38 223.231 209.489 226.56C213.557 229.95 216.895 234.039 219.718 238.429C222.468 242.815 224.671 247.752 225.239 252.929L224.77 253.06Z" fill="#89C190"/>
<path d="M296.493 267.018C294.004 269.185 290.655 269.971 287.77 270.617C284.796 271.258 281.78 271.763 278.728 271.857C275.671 271.898 272.566 271.555 269.514 271.742C266.478 271.93 263.504 272.612 260.53 273.404C254.608 275.19 248.488 275.742 243.176 277.451C237.691 278.94 232.243 281.445 226.254 283.31L225.988 282.893C230.384 278.471 235.467 274.685 241.629 272.534C244.738 271.503 247.957 271.159 251.03 270.935C254.124 270.674 257.134 270.69 260.223 270.763C263.275 270.82 266.332 270.747 269.327 270.201C272.322 269.654 275.238 268.602 278.217 267.888C281.197 267.227 284.228 267.018 287.275 266.904C290.389 266.773 293.233 267.076 296.27 266.586L296.493 267.018Z" fill="#89C190"/>
</svg>
