<svg width="73" height="55" viewBox="0 0 73 55" fill="none" xmlns="http://www.w3.org/2000/svg">
<path d="M57.0446 29.3016C57.4929 31.0424 54.9935 30.5407 56.3815 28.6518C56.7126 28.5764 56.9742 29.027 57.0446 29.3016ZM47.7825 38.9154C47.579 39.028 47.3104 39.0187 46.989 38.8912C47.7393 38.5542 48.0546 38.0319 48.1796 37.7294C48.2254 37.7508 48.2739 37.7685 48.3267 37.7787C48.2792 38.166 48.1374 38.719 47.7825 38.9154ZM46.2765 38.4788C43.9788 36.7956 47.6371 35.4411 47.9234 36.9036C47.8837 36.9427 47.8441 36.9809 47.8036 37.0181C47.7966 37.1671 47.8256 37.3095 47.8917 37.4473C47.7111 38.0701 47.0911 38.4825 46.5363 38.6566C46.4526 38.6035 46.3654 38.5439 46.2765 38.4788ZM40.4058 44.8138C38.3089 45.9086 37.0372 47.7593 35.2345 49.26C34.4683 49.8968 32.2938 51.4589 33.0847 49.2246C35.3208 48.1447 36.7096 45.9747 38.4965 44.3437C40.39 42.614 42.0985 39.7058 44.7555 39.2552C46.2413 42.0852 42.2535 43.8484 40.4058 44.8138ZM36.7924 45.4683C35.8025 46.7474 34.6955 47.9548 33.2864 48.7089C33.9346 47.184 35.496 46.2661 36.7924 45.4683ZM22.9366 50.7532C25.0793 49.4667 27.4483 48.6223 29.6201 47.3171C31.6659 46.0883 33.8174 44.7738 36.1204 44.1622C36.7061 44.0067 37.6255 43.5524 37.4353 44.4526C37.2873 45.149 35.3762 45.8946 34.8628 46.3015C33.961 47.0164 33.215 47.8329 32.7941 48.9565C30.1511 50.2021 26.4302 50.7383 22.9366 50.7532ZM22.1959 50.7486C18.195 50.6797 12.5216 50.2189 10.8016 45.607C13.6762 49.0179 18.5604 51.1321 22.8617 50.3566C22.6442 50.4879 22.4222 50.6192 22.1959 50.7486ZM9.89098 40.4654C8.87467 30.6887 18.1377 26.196 25.8463 29.6535C28.7165 34.6601 32.5281 38.3289 36.9967 41.6821C34.2692 42.6429 31.8209 43.7041 29.4695 45.4888C27.1797 47.2268 24.9331 49.7729 22.0295 50.0736C19.1065 50.3753 16.128 49.3168 13.6726 47.6755C12.7215 47.0406 11.6066 46.2261 10.9443 45.2421C10.0495 43.9117 10.0574 42.0694 9.89098 40.4654ZM22.6627 26.9752C22.8221 27.0441 24.4056 27.9312 24.2241 28.0011C23.782 28.1435 22.8511 27.1595 22.6627 26.9752ZM8.32864 37.2956C8.32864 32.208 10.7849 28.3139 15.5379 27.0133C16.8634 26.6512 18.2531 26.3729 19.6278 26.3868C20.2373 26.3933 21.2897 26.3961 21.8718 26.6875C22.5103 27.0078 22.8538 28.0309 23.6076 28.2077C24.69 28.4619 24.7534 27.8754 23.959 27.1539C23.4562 26.6987 22.6001 26.735 22.0665 26.3533C21.6631 26.0647 21.1849 25.333 20.8863 24.9457C18.7287 22.1492 19.6032 20.2929 22.0867 18.2215C24.3677 16.3196 26.8891 14.7296 28.7332 12.3017C30.6267 9.80958 31.2916 6.74214 32.2894 3.79944C32.6937 2.60691 32.7967 1.87426 33.9786 2.05114C34.9421 2.19636 36.3089 3.89067 36.9632 4.6047C35.1869 6.98605 33.7364 9.73045 31.6959 11.8772C29.99 13.6711 27.6667 14.5751 25.9688 16.4314C22.3395 20.3972 23.1074 24.6795 25.5416 29.1107C21.1356 27.261 16.1835 27.4164 12.6264 31.0396C9.13359 34.5977 9.08075 39.1165 9.95879 43.8308C8.87467 41.9819 8.32864 39.8007 8.32864 37.2956ZM37.2151 4.88585C42.1373 10.518 43.018 18.8937 43.1553 26.2192C43.2416 30.7669 43.7718 38.9126 38.8171 41.0072C35.8976 36.0258 31.1798 31.6745 26.0965 29.3537C23.5583 24.8889 22.5843 20.5657 26.3607 16.5505C28.0234 14.7827 30.2709 13.9057 31.9266 12.1742C33.9795 10.0274 35.4388 7.2765 37.2151 4.88585ZM38.663 41.4801C39.0786 42.223 39.1368 42.4855 39.1341 42.5749C38.9413 42.5824 38.4419 42.2658 37.7955 41.8032C38.1143 41.6896 38.4014 41.5844 38.663 41.4801ZM37.4238 41.5313C33.0486 38.2963 29.2934 34.7532 26.4294 29.9262C31.2256 32.2638 35.6748 36.3972 38.4719 41.1469C38.1645 41.2679 37.8193 41.3917 37.4238 41.5313ZM41.9541 1.20119C45.2205 1.47489 46.6288 8.01753 47.2532 10.6539C48.1189 14.3125 48.4218 18.1247 48.273 21.8894C48.1127 25.9307 47.498 30.0882 45.8317 33.7599C45.1941 35.1646 43.5596 37.3356 44.5486 38.9052C41.593 39.5317 40.2209 42.7136 37.88 44.3307C38.2984 42.6959 34.9385 44.1743 34.5916 44.313C31.2952 45.6284 28.4796 47.9343 25.2008 49.2628C27.421 47.6774 29.4475 45.7643 31.761 44.3288C33.5057 43.2471 35.4573 42.6289 37.3657 41.9558C38.5309 42.8095 40.2253 43.5403 39.0064 41.3386C44.4359 39.0038 43.6591 29.7671 43.475 24.8219C43.2135 17.7896 42.1698 9.95295 37.4432 4.58236C38.9642 2.58177 40.4895 1.07831 41.9541 1.20119ZM72.9454 17.7617C67.0624 18.7149 61.8611 21.7889 57.7923 26.3365C55.9552 28.3902 54.4686 30.1376 53.2348 32.6921C52.7064 33.7859 49.7288 38.4564 48.2836 37.3523C48.2994 37.2518 48.3047 37.1522 48.3021 37.0554C50.7345 34.648 52.0758 32.3616 52.4994 28.8585C52.532 28.5866 53.0727 24.7214 53.9895 25.9735C54.5012 26.6717 53.7896 27.5887 53.0639 27.2749C52.7293 28.3362 56.1217 26.6484 54.0353 25.5471C52.5188 24.7465 52.2493 27.9117 52.1392 28.8222C51.7332 32.1605 50.5029 34.2821 48.2166 36.6104C47.5077 34.7876 43.3209 36.7444 46.0396 38.7711C45.675 38.8046 45.3095 38.8288 44.944 38.8437C43.8326 37.0116 46.0695 34.3082 46.7115 32.6371C48.4016 28.2329 48.8111 23.163 48.6376 18.4543C48.4641 13.7447 47.5817 8.97453 45.6318 4.71269C44.9414 3.20178 43.9576 1.18164 42.2183 0.86326C40.1311 0.480644 38.3398 2.80054 37.1913 4.30308C35.8236 2.81916 33.6378 0.161332 32.2754 2.73631C30.6787 5.75255 30.5827 9.26312 28.4373 12.0774C26.469 14.6598 23.7239 16.2368 21.3593 18.3426C18.3834 20.9939 18.9515 23.3156 21.4288 26.1895C14.7647 24.7958 8.36827 29.2243 7.9887 36.4549C7.79406 40.1507 9.18467 44.0421 11.1195 47.0676C13.3459 50.5503 17.9616 50.9757 21.5689 51.0958C17.7652 53.1439 12.9311 54.8996 8.59637 54.3504C5.52278 53.9612 3.08856 51.2773 0 51.2773V51.66C2.51964 51.66 4.4413 53.6084 6.76366 54.3494C9.46913 55.2133 12.3736 54.759 15.058 54.0413C17.8304 53.3003 20.8 51.1675 23.5715 51.1032C26.617 51.0325 29.7962 50.6629 32.6356 49.4294C31.8579 52.1589 35.0979 49.8949 35.7726 49.2851C37.2063 47.9874 38.3336 46.4244 40.0139 45.4478C42.0756 44.2487 46.7142 42.5498 45.1448 39.2133C45.5992 39.1937 46.0422 39.1844 46.487 39.0662C47.6477 39.7337 48.5548 39.0634 48.6904 37.7769C52.6253 37.0712 53.3546 31.8533 55.5712 29.269C55.174 30.4736 56.5699 31.5358 57.2921 30.4485C57.6928 29.8453 57.4224 28.4684 56.6633 28.2776C60.8069 22.9107 66.4847 19.1962 73 18.1396L72.9454 17.7617Z" fill="#89C190"/>
</svg>
