<svg width="131" height="98" viewBox="0 0 131 98" fill="none" xmlns="http://www.w3.org/2000/svg">
<path d="M102.368 51.6095C103.172 54.7486 98.687 53.8438 101.178 50.4378C101.772 50.3018 102.241 51.1143 102.368 51.6095ZM85.7466 68.9452C85.3815 69.1484 84.8995 69.1316 84.3227 68.9016C85.6692 68.2939 86.2349 67.3522 86.4594 66.8066C86.5415 66.8452 86.6285 66.8771 86.7233 66.8956C86.638 67.5939 86.3835 68.591 85.7466 68.9452ZM83.0441 68.1579C78.9208 65.1229 85.4858 62.6804 85.9995 65.3176C85.9283 65.3881 85.8572 65.4569 85.7845 65.5241C85.7719 65.7927 85.824 66.0495 85.9426 66.298C85.6186 67.421 84.506 68.1646 83.5103 68.4786C83.3602 68.3829 83.2037 68.2754 83.0441 68.1579ZM72.5091 79.5814C68.7462 81.5555 66.464 84.8927 63.229 87.5987C61.854 88.747 57.952 91.5638 59.3712 87.535C63.3838 85.5877 65.8761 81.6747 69.0828 78.7336C72.4807 75.6146 75.5467 70.3704 80.3147 69.5579C82.9809 74.6611 75.8248 77.8406 72.5091 79.5814ZM66.0247 80.7615C64.2483 83.068 62.2617 85.2452 59.7331 86.605C60.8963 83.8553 63.6983 82.2001 66.0247 80.7615ZM41.1601 90.2914C45.0053 87.9714 49.2566 86.4488 53.1539 84.0953C56.8251 81.8795 60.6861 79.5092 64.8188 78.4063C65.8698 78.1259 67.5198 77.3067 67.1784 78.93C66.9129 80.1857 63.4834 81.5303 62.562 82.2639C60.9437 83.5531 59.6051 85.0253 58.8496 87.0515C54.1068 89.2976 47.4296 90.2645 41.1601 90.2914ZM39.831 90.283C32.6512 90.1587 22.4702 89.3278 19.3837 81.0116C24.5422 87.1623 33.3071 90.9746 41.0258 89.5762C40.6354 89.8129 40.2372 90.0496 39.831 90.283ZM17.7496 71.7402C15.9258 54.1107 32.5485 46.0094 46.3818 52.244C51.5324 61.272 58.3724 67.8877 66.3913 73.9343C61.4968 75.6667 57.1033 77.5804 52.8836 80.7984C48.7745 83.9325 44.7429 88.5237 39.5323 89.0659C34.2869 89.6098 28.942 87.7011 24.5358 84.7416C22.829 83.5968 20.8282 82.1279 19.6397 80.3536C18.034 77.9547 18.0483 74.6326 17.7496 71.7402ZM40.6686 47.4145C40.9547 47.5387 43.7963 49.1385 43.4707 49.2644C42.6773 49.5212 41.0068 47.7468 40.6686 47.4145ZM14.9459 66.0243C14.9459 56.8503 19.3537 49.8284 27.8831 47.4833C30.2616 46.8303 32.7555 46.3283 35.2225 46.3535C36.3162 46.3653 38.2048 46.3703 39.2494 46.8957C40.3952 47.4732 41.0116 49.3181 42.3644 49.637C44.3067 50.0953 44.4205 49.0377 42.995 47.7368C42.0926 46.9159 40.5564 46.9814 39.5987 46.2931C38.8749 45.7727 38.0167 44.4533 37.4809 43.7549C33.609 38.7122 35.1783 35.3649 39.635 31.6298C43.7283 28.2003 48.253 25.3331 51.5624 20.9551C54.9603 16.4612 56.1535 10.93 57.9441 5.62366C58.6695 3.47327 58.8544 2.15215 60.9753 2.4711C62.7043 2.73297 65.1571 5.78818 66.3313 7.07572C63.1436 11.3698 60.5407 16.3185 56.8789 20.1896C53.8176 23.4244 49.6485 25.0544 46.6015 28.4017C40.0886 35.5529 41.4667 43.2748 45.835 51.2654C37.9282 47.9298 29.0416 48.2101 22.6583 54.7436C16.3904 61.1595 16.2956 69.3078 17.8713 77.8087C15.9258 74.4748 14.9459 70.5417 14.9459 66.0243ZM66.7833 7.58269C75.6162 17.7387 77.1966 32.8418 77.4431 46.0514C77.598 54.2517 78.5494 68.9402 69.6581 72.7172C64.419 63.7346 55.9528 55.8884 46.8306 51.7035C42.2759 43.6525 40.528 35.8567 47.3048 28.6166C50.2886 25.4288 54.3218 23.8474 57.2929 20.7251C60.9769 16.854 63.5956 11.8935 66.7833 7.58269ZM69.3815 73.57C70.1274 74.9096 70.2317 75.383 70.227 75.5441C69.8809 75.5576 68.9848 74.9868 67.8248 74.1525C68.3969 73.9477 68.9121 73.758 69.3815 73.57ZM67.1578 73.6623C59.3064 67.8289 52.5675 61.4398 47.428 52.7359C56.0349 56.951 64.0191 64.4044 69.0385 72.969C68.487 73.1873 67.8674 73.4105 67.1578 73.6623ZM75.2875 0.938463C81.1492 1.432 83.6763 13.2298 84.7968 17.9838C86.3503 24.581 86.894 31.4552 86.6269 38.2438C86.3393 45.531 85.2361 53.028 82.246 59.6487C81.1018 62.1818 78.1685 66.0965 79.9433 68.9268C74.6395 70.0565 72.1772 75.7943 67.9765 78.7101C68.7272 75.7624 62.6979 78.4281 62.0753 78.6782C56.1598 81.0502 51.1072 85.2083 45.2234 87.6038C49.2076 84.745 52.8441 81.2953 56.9958 78.7068C60.1266 76.7561 63.6288 75.6415 67.0535 74.4278C69.1444 75.9672 72.1851 77.2849 69.9978 73.3148C79.7411 69.1047 78.3471 52.4488 78.0168 43.5317C77.5474 30.8509 75.6747 16.7198 67.1926 7.03544C69.922 3.42795 72.6592 0.716876 75.2875 0.938463ZM130.902 30.8005C120.345 32.5195 111.011 38.0625 103.71 46.2629C100.413 49.966 97.7451 53.1169 95.5309 57.7232C94.5827 59.6957 89.2393 68.1176 86.6459 66.1267C86.6743 65.9454 86.6838 65.7658 86.679 65.5912C91.0441 61.2502 93.4511 57.1273 94.2113 50.8104C94.2697 50.3202 95.2401 43.3504 96.8853 45.6082C97.8035 46.8672 96.5266 48.5207 95.2243 47.955C94.6237 49.8687 100.711 46.8252 96.9675 44.8394C94.246 43.3957 93.7624 49.1032 93.5649 50.745C92.8363 56.7647 90.6285 60.5904 86.5257 64.7888C85.2535 61.502 77.7403 65.0305 82.619 68.685C81.9647 68.7455 81.3088 68.7891 80.6529 68.816C78.6585 65.5123 82.6727 60.6374 83.8248 57.6242C86.8576 49.6824 87.5925 40.5402 87.2812 32.0495C86.9698 23.557 85.3863 14.9555 81.8872 7.27045C80.6482 4.54595 78.8829 0.90321 75.7616 0.329101C72.016 -0.360837 68.8015 3.82244 66.7406 6.53183C64.2862 3.85601 60.3637 -0.936625 57.9188 3.70661C55.0535 9.14554 54.8812 15.4759 51.0314 20.5505C47.4992 25.2072 42.573 28.0509 38.3296 31.848C32.9894 36.6289 34.0088 40.8156 38.4545 45.9976C26.4955 43.4847 15.017 51.4701 14.3359 64.5085C13.9866 71.1728 16.4821 78.1897 19.9542 83.6454C23.9495 89.9254 32.2324 90.6926 38.7058 90.9091C31.88 94.6022 23.2051 97.7682 15.4264 96.7778C9.91074 96.0761 5.54249 91.2365 0 91.2365V91.9264C4.52155 91.9264 7.97 95.4399 12.1375 96.7761C16.9925 98.3339 22.2047 97.5147 27.0218 96.2205C31.9969 94.8842 37.3261 91.0384 42.2996 90.9225C47.7647 90.795 53.4699 90.1285 58.5652 87.9043C57.1697 92.8262 62.984 88.7436 64.1946 87.6441C66.7675 85.304 68.7904 82.4855 71.8058 80.7245C75.5056 78.5624 83.8296 75.4988 81.0133 69.4824C81.8288 69.4472 82.6237 69.4304 83.4218 69.2172C85.5048 70.4208 87.1326 69.2121 87.376 66.8922C94.4373 65.6198 95.7458 56.2107 99.7237 51.5507C99.011 53.7229 101.516 55.6383 102.812 53.6776C103.531 52.5898 103.046 50.1071 101.683 49.7629C109.119 40.0853 119.308 33.3874 131 31.4821L130.902 30.8005Z" fill="#89C190"/>
</svg>
