<svg width="313" height="574" viewBox="0 0 313 574" fill="none" xmlns="http://www.w3.org/2000/svg">
<path d="M607.925 161C607.925 161 611.722 178.232 607.923 161.018C604.124 143.804 314.691 -5.99429 252.127 0.268958C174.855 8.0046 121.848 -11.2204 69.627 36.1226C28.2888 73.5993 -6.38782 106.197 1.24359 156.182C8.93055 206.531 37.7714 232.9 77.5831 271.724C111.221 304.527 196.507 305.236 212.103 346.141C224.844 379.561 161.103 457.466 175.674 490.376C189.563 521.745 219.704 547.599 255.106 564.135C325.255 596.902 414.698 536.218 463.476 498.402C512.254 460.586 578.23 426.065 609.593 359.203C643.53 286.852 607.925 161 607.925 161Z" fill="#89C190" fill-opacity="0.5"/>
</svg>
