<svg width="50" height="50" viewBox="0 0 50 50" fill="none" xmlns="http://www.w3.org/2000/svg">
<mask id="mask0_1134_402" style="mask-type:luminance" maskUnits="userSpaceOnUse" x="0" y="0" width="50" height="50">
<path d="M0 0H50V50H0V0Z" fill="white"/>
</mask>
<g mask="url(#mask0_1134_402)">
<path d="M49.3091 26.2785C48.4015 22.1404 46.2186 18.758 43.0376 16.0621C41.7682 14.9851 40.3704 14.1096 38.8622 13.4294C38.7519 13.3792 38.6663 13.3104 38.5444 13.4424C38.0904 13.9521 37.6061 14.4302 37.0966 14.8846C37.1279 14.9101 37.1394 14.9287 37.1521 14.9349C37.2377 14.9733 37.3239 15.0099 37.4095 15.0483C38.9539 15.6913 40.4078 16.5153 41.6766 17.6308C46.8873 22.2166 48.8912 28.0121 47.3414 34.8716C45.3418 43.6836 36.9561 49.1201 28.5812 47.6209C25.4787 47.0597 22.7946 45.643 20.4958 43.4573C17.7545 40.8612 16.0141 37.6544 15.0819 33.9707C15.0571 33.8634 15.027 33.7562 15.0029 33.6427C14.904 33.2267 14.8183 32.8187 14.7635 32.402C14.758 32.3772 14.7508 32.3518 14.7508 32.3195C14.2913 29.5046 14.2298 26.2915 14.2298 26.2915C14.2123 26.2549 14.1996 26.2165 14.2479 26.1917C14.2913 25.4923 14.4143 24.8053 14.6893 24.1623C15.2591 22.8466 16.0756 21.7131 17.093 20.7242C17.6514 20.1816 18.2942 19.8549 19.0419 19.6974C20.2564 19.4444 21.4884 19.3322 22.7089 19.1425C25.5347 18.7214 28.2628 17.9328 30.8926 16.8055C33.7504 15.584 36.1034 13.6563 38.0469 11.1935C39.5859 9.24724 40.7871 7.09819 41.6151 4.73645C41.7067 4.47294 41.6699 4.35947 41.3877 4.277C40.2414 3.95644 39.0829 3.71649 37.9058 3.5652C35.9991 3.31904 34.0983 3.33206 32.1982 3.59682C30.1208 3.887 28.1531 4.52874 26.2463 5.42346C22.9291 6.99836 20.4042 9.38551 18.9075 12.8571C18.1537 14.6007 17.6815 16.4347 17.111 18.2415C17.093 18.2862 17.0628 18.3432 17.1243 18.3872L17.1171 18.3742C18.3316 16.7745 19.6438 15.2629 21.1085 13.9019C23.6038 11.578 26.3681 9.71909 29.5997 8.6551C30.1322 8.47839 30.6725 8.31532 31.2484 8.25208C23.9717 11.7355 18.2399 16.9953 14.0157 23.9298C14.0157 23.936 14.0091 23.8727 14.0217 23.8107C14.3226 21.7826 14.2424 19.7724 13.8559 17.7691C13.2674 14.7464 12.0167 12.0182 10.3125 9.49836C9.62627 8.48459 8.87852 7.52043 8.09338 6.58293C8.4558 6.6964 8.73078 6.95992 9.00033 7.20607C12.3417 10.261 13.9663 14.1914 14.5735 18.6508C14.6652 19.357 14.6893 20.062 14.7635 20.7744C15.2851 19.5517 15.7868 18.324 16.1673 17.0511C16.7432 15.0986 16.9524 13.1144 16.5171 11.0925C16.0081 8.71153 14.831 6.68338 13.2312 4.93177C9.74929 1.1148 5.33513 -0.1631 0.38066 0.0886364C0.202767 0.0948367 0.129801 0.163661 0.111107 0.371375C0.0254774 1.58727 0.0930165 2.79077 0.234125 3.99303C0.509708 6.24191 1.09826 8.39035 2.15235 10.3875C3.99822 13.8771 6.64129 16.6542 9.73663 18.998C10.5827 19.6341 11.4896 20.1947 12.3544 20.8116C12.8199 21.1452 13.157 21.5929 13.2613 22.1974C13.353 22.7139 13.3289 23.2366 13.2239 23.7475C12.9863 24.9318 12.7898 26.1154 12.7096 27.3251C12.6179 28.7171 12.63 30.1035 12.7041 31.4943C12.7831 33.0952 12.9978 34.6757 13.4392 36.2196C16.063 45.4545 25.0318 51.2673 34.2648 49.6986C37.9125 49.0817 41.161 47.5384 43.8396 44.9057C49.0516 39.7662 50.8962 33.5162 49.3091 26.2785Z" fill="#89C190"/>
</g>
<path d="M39.482 30.0841L32.4935 29.9756C32.6008 29.0059 32.7064 28.0355 32.8143 27.0658C32.9446 25.8982 33.073 24.7313 33.2045 23.5644C33.3335 22.4155 33.4656 21.2684 33.6013 20.0605C33.5247 20.1684 33.4782 20.2292 33.4366 20.2937C31.9761 22.6008 30.5144 24.908 29.0562 27.2152C28.4532 28.1669 27.8544 29.1212 27.2538 30.0742C27.2472 30.0841 27.2411 30.0946 27.2363 30.1052C27.217 30.1294 27.1935 30.1523 27.1772 30.1784C26.3704 31.4513 25.5635 32.7255 24.7579 33.999C24.6403 34.1844 24.5245 34.3717 24.3906 34.585H31.1608C31.2573 34.5899 31.3538 34.5943 31.4515 34.5992C31.0854 37.8489 30.72 41.0985 30.354 44.3494L39.482 30.0841Z" fill="#89C190"/>
</svg>
