<svg width="50" height="50" viewBox="0 0 50 50" fill="none" xmlns="http://www.w3.org/2000/svg">
<path d="M4.13065 35.4679C3.97959 35.1659 3.8351 34.8606 3.69718 34.5527C3.55926 34.2441 3.4279 33.9329 3.30377 33.6191C3.17898 33.3052 3.06142 32.9888 2.95108 32.6697C2.84009 32.3506 2.73631 32.0289 2.63977 31.7052C2.54322 31.3815 2.45324 31.0565 2.37049 30.7289C2.28774 30.4012 2.21221 30.0723 2.1439 29.7414C2.0756 29.4105 2.01452 29.0783 1.96066 28.7447C1.90681 28.4118 1.85952 28.077 1.82011 27.7415C1.7807 27.406 1.74852 27.0698 1.72357 26.733C1.69926 26.3962 1.68153 26.0594 1.67102 25.7212C1.66117 25.3838 1.65789 25.0463 1.66248 24.7082C1.66643 24.3707 1.67825 24.0332 1.69729 23.6957C1.71634 23.3589 1.74261 23.0221 1.77676 22.6859C1.81026 22.3498 1.85098 22.0149 1.89892 21.6801C1.94753 21.3459 2.0027 21.013 2.06509 20.6808C2.12814 20.3492 2.19776 20.019 2.2746 19.69C2.35144 19.3611 2.43551 19.0341 2.5268 18.7085C2.61809 18.3835 2.71595 18.0605 2.82104 17.7394C2.92612 17.4183 3.03843 17.0999 3.15731 16.7841C3.27618 16.4676 3.40229 16.1544 3.53495 15.8439C3.66697 15.5327 3.8062 15.2254 3.95266 14.9208C4.09847 14.6161 4.25084 14.3148 4.40978 14.0167C4.56872 13.7186 4.73423 13.4245 4.90565 13.1336C5.07772 12.8427 5.25571 12.5558 5.43961 12.2728C5.6235 11.9899 5.81397 11.7108 6.01035 11.4357C6.20672 11.1613 6.40901 10.8908 6.61655 10.6249C6.82475 10.359 7.0382 10.097 7.25756 9.84027C7.47693 9.58355 7.7022 9.33209 7.93207 9.08456C8.1626 8.8377 8.39773 8.59608 8.63877 8.35906C8.8798 8.1227 9.12544 7.89093 9.37633 7.66507C9.62721 7.43856 9.8827 7.21795 10.1428 7.00326C10.4035 6.7879 10.6682 6.57912 10.9375 6.37558C11.2074 6.17205 11.4806 5.97442 11.7591 5.7827C12.0369 5.59099 12.3187 5.40584 12.605 5.22594C12.8914 5.04669 13.181 4.87336 13.4746 4.70659C13.7682 4.53983 14.0651 4.37963 14.3659 4.22599C14.666 4.0717 14.9701 3.92463 15.2768 3.78412C15.5835 3.64296 15.8935 3.50902 16.2061 3.38165C16.5188 3.25493 16.834 3.13412 17.1526 3.02054C17.4704 2.90695 17.7903 2.80059 18.1128 2.70079C18.4359 2.60099 18.7603 2.50842 19.0868 2.42306C19.4132 2.33705 19.7416 2.25892 20.0719 2.18736C20.4016 2.11645 20.7333 2.05211 21.0656 1.99498C21.3986 1.93852 21.7323 1.88862 22.0672 1.84594C22.4022 1.80392 22.7378 1.76847 23.0747 1.74089C23.411 1.71266 23.7479 1.69231 24.0855 1.67918C24.4224 1.66605 24.76 1.66014 25.0976 1.66145C25.4352 1.66276 25.7728 1.6713 26.1097 1.68771C26.4473 1.70347 26.7842 1.72711 27.1198 1.75731C27.4561 1.78817 27.7917 1.82625 28.126 1.87155C28.4609 1.91685 28.7946 1.96938 29.1263 2.02913C29.4586 2.08887 29.7896 2.15519 30.1193 2.22938C30.4483 2.30357 30.7761 2.38498 31.1018 2.47296C31.4276 2.5616 31.7514 2.6568 32.0732 2.75923C32.395 2.86165 32.7142 2.97064 33.0314 3.08685C33.3487 3.20306 33.6626 3.3265 33.9746 3.4565C34.2859 3.58584 34.5946 3.72241 34.9006 3.86619C35.206 4.00932 35.5088 4.15902 35.8076 4.31528C36.1071 4.4722 36.4027 4.63503 36.6949 4.80377C36.9872 4.97316 37.2755 5.14846 37.5599 5.33033C37.845 5.5122 38.1254 5.69998 38.4019 5.89432C38.6778 6.08801 38.9503 6.2876 39.2176 6.49376C39.4856 6.69927 39.749 6.91068 40.0071 7.128C40.2658 7.34533 40.5194 7.5679 40.7683 7.79639L38.3829 10.3583L45.8852 11.6458L44.1717 4.13998L41.9045 6.57583C41.6378 6.33159 41.3659 6.0926 41.0894 5.86018C40.8123 5.6271 40.5305 5.40058 40.2435 5.17998C39.9565 4.96003 39.6655 4.74533 39.3693 4.53786C39.0731 4.32973 38.7723 4.12882 38.4676 3.93382C38.1628 3.73882 37.8542 3.55104 37.5409 3.36983C37.2282 3.18796 36.911 3.01397 36.5905 2.84589C36.27 2.67847 35.9462 2.51761 35.6185 2.36397C35.2908 2.21099 34.9604 2.06458 34.6261 1.92539C34.2925 1.78554 33.9555 1.65423 33.616 1.52948C33.2764 1.40473 32.9342 1.28787 32.5901 1.17822C32.2453 1.06792 31.8985 0.966149 31.5491 0.871604C31.1997 0.776402 30.849 0.689735 30.4963 0.610291C30.1429 0.530847 29.7889 0.458625 29.433 0.394938C29.077 0.330595 28.7197 0.274787 28.3611 0.226201C28.0025 0.177615 27.6432 0.136908 27.2833 0.10408C26.9228 0.0705954 26.5622 0.0456458 26.201 0.0285752C25.8397 0.0115045 25.4779 0.00165618 25.1166 0.000342963C24.7547 -0.00162677 24.3929 0.00493895 24.0316 0.0187268C23.6704 0.0331713 23.3092 0.0548379 22.9486 0.0850397C22.588 0.114585 22.2288 0.152009 21.8695 0.197312C21.5109 0.243272 21.153 0.296453 20.797 0.356857C20.4404 0.417918 20.0851 0.486857 19.7317 0.563018C19.3777 0.63918 19.0263 0.72322 18.6763 0.815139C18.3262 0.906402 17.9788 1.00554 17.6327 1.11256C17.2872 1.21893 16.9444 1.33317 16.6035 1.45463C16.2626 1.57675 15.925 1.70544 15.5901 1.84201C15.2551 1.97791 14.9228 2.1217 14.5938 2.27205C14.2654 2.42306 13.9396 2.58064 13.6178 2.74544C13.296 2.91024 12.9774 3.08226 12.6628 3.26084C12.3482 3.43943 12.0376 3.62458 11.7309 3.81695C11.4248 4.00867 11.1227 4.20761 10.8245 4.41245C10.5263 4.61796 10.2334 4.82937 9.94444 5.04735C9.65611 5.26533 9.37173 5.48988 9.09326 5.71967C8.81413 5.95013 8.54025 6.18649 8.27097 6.42876C8.00235 6.67103 7.73898 6.91856 7.48087 7.17265C7.22341 7.42608 6.97055 7.68543 6.7236 7.95002C6.47731 8.21462 6.23628 8.48381 6.00115 8.75891C5.76602 9.03401 5.53681 9.31436 5.31416 9.59931C5.09152 9.88426 4.87478 10.1738 4.66395 10.4679C4.45378 10.7627 4.25018 11.0615 4.05249 11.3648C3.85546 11.6681 3.66434 11.9754 3.48044 12.2866C3.29654 12.5985 3.11922 12.9136 2.94845 13.2327C2.77835 13.5518 2.61481 13.8749 2.4585 14.2012C2.30219 14.5275 2.1531 14.8571 2.01058 15.19C1.86871 15.5228 1.73407 15.8583 1.606 16.1971C1.47859 16.5359 1.3584 16.8767 1.24609 17.2207C1.13312 17.5647 1.02804 17.9108 0.930179 18.2594C0.832319 18.6074 0.742341 18.958 0.659587 19.3106C0.57749 19.6625 0.502617 20.0164 0.434969 20.3722C0.367978 20.7281 0.308211 21.0846 0.256983 21.4431C0.205098 21.8009 0.161093 22.16 0.124971 22.5205C0.0888482 22.8803 0.0606069 23.2407 0.0402467 23.6025C0.0198868 23.9636 0.00675118 24.3254 0.0021537 24.6872C-0.00244378 25.0489 0.000183241 25.4107 0.0113486 25.7725C0.0225137 26.1342 0.0409036 26.4953 0.0678314 26.8564C0.0941024 27.2169 0.128255 27.5774 0.170945 27.9365C0.212979 28.2963 0.262894 28.6548 0.32069 29.0119C0.378487 29.3691 0.443508 29.725 0.517066 30.0795C0.589969 30.4334 0.670752 30.786 0.759417 31.1372C0.847425 31.4878 0.943971 31.8371 1.04709 32.1838C1.15086 32.5305 1.26185 32.8745 1.38073 33.2166C1.49895 33.5587 1.62505 33.8974 1.75837 34.2343C1.89104 34.5704 2.03159 34.9039 2.17937 35.2342C2.32714 35.5645 2.48214 35.8914 2.64371 36.2151L4.13065 35.4679Z" fill="#89C190"/>
<path d="M45.8691 14.5318C46.0209 14.8339 46.1653 15.1392 46.3033 15.4471C46.4412 15.7557 46.5719 16.0669 46.6967 16.3807C46.8208 16.6946 46.9384 17.011 47.0494 17.3301C47.1604 17.6492 47.2635 17.9709 47.3607 18.2946C47.4572 18.6183 47.5472 18.9433 47.63 19.2709C47.7121 19.5985 47.7876 19.9275 47.8565 20.2584C47.9249 20.5893 47.9859 20.9215 48.0398 21.2551C48.0936 21.5879 48.1403 21.9228 48.1797 22.2583C48.2191 22.5938 48.2513 22.9299 48.2762 23.2668C48.3012 23.6036 48.3189 23.9404 48.3294 24.2785C48.3393 24.616 48.3426 24.9535 48.338 25.291C48.3334 25.6291 48.3215 25.9666 48.3032 26.304C48.2841 26.6409 48.2572 26.9777 48.2237 27.3138C48.1902 27.65 48.1495 27.9848 48.1009 28.3197C48.0529 28.6539 47.9978 28.9868 47.9347 29.319C47.8723 29.6505 47.8027 29.9808 47.7258 30.3097C47.6483 30.6387 47.5649 30.9656 47.4736 31.2913C47.3824 31.6163 47.2845 31.9393 47.1788 32.2604C47.0737 32.5814 46.962 32.8999 46.8431 33.2157C46.7236 33.5321 46.5982 33.8453 46.4655 34.1559C46.3328 34.4671 46.1936 34.7744 46.0478 35.079C45.902 35.3837 45.7496 35.685 45.5907 35.9831C45.4317 36.2812 45.2662 36.5753 45.0948 36.8662C44.9227 37.157 44.7447 37.444 44.5608 37.7269C44.3763 38.0099 44.1865 38.289 43.9901 38.5641C43.7937 38.8385 43.5914 39.109 43.3832 39.3749C43.1757 39.6408 42.9616 39.9028 42.7422 40.1595C42.5229 40.4162 42.2982 40.6677 42.0677 40.9152C41.8378 41.1621 41.6021 41.4037 41.3617 41.6407C41.1206 41.8771 40.875 42.1088 40.6241 42.3347C40.3732 42.5612 40.1178 42.7818 39.8577 42.9965C39.5969 43.2119 39.3322 43.4207 39.0623 43.6242C38.793 43.8277 38.5192 44.0254 38.2413 44.2171C37.9635 44.4088 37.6811 44.5946 37.3954 44.7738C37.1091 44.9531 36.8194 45.1264 36.5258 45.2932C36.2323 45.4599 35.9354 45.6201 35.6346 45.7738C35.3344 45.9281 35.0304 46.0751 34.7236 46.2157C34.4163 46.3568 34.1069 46.4908 33.7943 46.6181C33.481 46.7448 33.1658 46.8657 32.8479 46.9792C32.53 47.0928 32.2095 47.1992 31.887 47.299C31.5646 47.3988 31.2401 47.4914 30.9137 47.5767C30.5866 47.6627 30.2589 47.7409 29.9285 47.8124C29.5988 47.8833 29.2671 47.9477 28.9342 48.0048C28.6018 48.0613 28.2675 48.1112 27.9326 48.1538C27.5976 48.1959 27.262 48.2313 26.9257 48.2589C26.5895 48.2871 26.2525 48.3075 25.915 48.3206C25.5774 48.3337 25.2404 48.3396 24.9029 48.3383C24.5653 48.337 24.2277 48.3285 23.8901 48.3121C23.5532 48.2963 23.2163 48.2727 22.88 48.2425C22.5437 48.2116 22.2088 48.1735 21.8738 48.1282C21.5395 48.0829 21.2059 48.0304 20.8735 47.9706C20.5412 47.9109 20.2109 47.8446 19.8812 47.7704C19.5521 47.6962 19.2244 47.6148 18.8986 47.5268C18.5722 47.4382 18.2484 47.343 17.9266 47.2406C17.6054 47.1381 17.2856 47.0291 16.969 46.9129C16.6518 46.7967 16.3372 46.6733 16.0259 46.5433C15.7139 46.4139 15.4052 46.2774 15.0998 46.1336C14.7938 45.9905 14.4916 45.8408 14.1922 45.6845C13.8933 45.5276 13.5971 45.3647 13.3055 45.196C13.0132 45.0266 12.7249 44.8513 12.4399 44.6694C12.1555 44.4876 11.875 44.2998 11.5985 44.1055C11.322 43.9118 11.0501 43.7122 10.7822 43.506C10.5149 43.3005 10.2515 43.0891 9.99273 42.8718C9.73461 42.6544 9.48044 42.4319 9.23152 42.2034L11.6176 39.6415L4.11523 38.354L5.82679 45.8598L8.09596 43.4239C8.36195 43.6682 8.63386 43.9072 8.91102 44.1396C9.18818 44.3727 9.46993 44.5992 9.75694 44.8198C10.0433 45.0397 10.3349 45.2544 10.6311 45.4619C10.9273 45.67 11.2275 45.871 11.5329 46.066C11.8376 46.261 12.1463 46.4487 12.4596 46.6299C12.7722 46.8118 13.0888 46.9858 13.4099 47.1539C13.7304 47.3213 14.0542 47.4822 14.382 47.6358C14.709 47.7888 15.0401 47.9352 15.3737 48.0744C15.708 48.2136 16.0443 48.3455 16.3838 48.4703C16.7234 48.595 17.0656 48.7119 17.4104 48.8216C17.7552 48.9319 18.1019 49.0336 18.4514 49.1282C18.8001 49.2234 19.1515 49.31 19.5042 49.3895C19.8569 49.4689 20.2115 49.5405 20.5675 49.6048C20.9235 49.6692 21.2807 49.725 21.6393 49.7736C21.9973 49.8222 22.3572 49.8629 22.7171 49.8957C23.077 49.9292 23.4383 49.9541 23.7995 49.9712C24.1607 49.9883 24.5219 49.9981 24.8838 49.9994C25.2457 50.0014 25.6069 49.9948 25.9688 49.981C26.33 49.9666 26.6913 49.9449 27.0512 49.9147C27.4118 49.8852 27.7717 49.8478 28.1303 49.8025C28.4895 49.7565 28.8468 49.7033 29.2034 49.6429C29.5601 49.5819 29.9154 49.5129 30.2687 49.4368C30.6221 49.3606 30.9741 49.2766 31.3242 49.1846C31.6736 49.0934 32.0217 48.9942 32.3671 48.8872C32.7126 48.7808 33.0561 48.6666 33.397 48.5451C33.7372 48.423 34.0754 48.2943 34.4104 48.1578C34.7453 48.0219 35.0776 47.8781 35.406 47.7277C35.7351 47.5767 36.0608 47.4191 36.3827 47.2543C36.7045 47.0895 37.023 46.9175 37.3376 46.7389C37.6522 46.5603 37.9629 46.3752 38.2689 46.1828C38.5756 45.9911 38.8778 45.7922 39.1759 45.5867C39.4735 45.3818 39.767 45.1704 40.056 44.9524C40.3443 44.7344 40.6281 44.5099 40.9072 44.2794C41.1863 44.0496 41.4602 43.8133 41.7288 43.571C41.9974 43.3287 42.2615 43.0812 42.5189 42.8271C42.777 42.5737 43.0299 42.3144 43.2762 42.0498C43.5231 41.7852 43.7642 41.5153 43.9993 41.2409C44.2344 40.9658 44.463 40.6854 44.6863 40.4005C44.9089 40.1155 45.1257 39.826 45.3358 39.5318C45.5467 39.237 45.7503 38.9383 45.948 38.635C46.145 38.3316 46.3361 38.0244 46.52 37.7131C46.7039 37.4013 46.8812 37.0861 47.0513 36.767C47.2221 36.4479 47.3856 36.1249 47.542 35.7986C47.6983 35.4723 47.8474 35.1427 47.9899 34.8098C48.1317 34.4769 48.2664 34.1414 48.3938 33.8027C48.5219 33.4639 48.6421 33.1231 48.7544 32.7791C48.8673 32.435 48.9724 32.089 49.0703 31.7404C49.1681 31.3924 49.2581 31.0418 49.3409 30.6892C49.423 30.3373 49.4978 29.9834 49.5648 29.6276C49.6325 29.2717 49.6916 28.9152 49.7435 28.5567C49.7954 28.1989 49.8394 27.8397 49.8755 27.4793C49.9116 27.1195 49.9398 26.759 49.9602 26.3973C49.9806 26.0362 49.993 25.6744 49.9983 25.3126C50.0029 24.9509 49.9996 24.5891 49.9891 24.2273C49.9779 23.8656 49.9595 23.5044 49.9326 23.1433C49.9063 22.7829 49.8715 22.4224 49.8295 22.0633C49.7875 21.7035 49.7376 21.345 49.6798 20.9878C49.622 20.6307 49.5563 20.2748 49.4834 19.9203C49.4105 19.5664 49.3297 19.2138 49.241 18.8625C49.1524 18.5119 49.0565 18.1626 48.9527 17.816C48.8496 17.4693 48.7386 17.1253 48.6197 16.7832C48.5015 16.4411 48.3754 16.1023 48.2421 15.7655C48.1087 15.4294 47.9682 15.0958 47.8211 14.7656C47.6733 14.4353 47.5183 14.1084 47.3567 13.7847L45.8691 14.5318Z" fill="#89C190"/>
<path d="M21.521 21.5125C16.6136 17.6564 8.85046 18.5934 8.85046 18.5934C8.85046 18.5934 7.78188 27.4182 12.5481 32.1856C13.0295 32.6333 13.5412 33.043 14.0837 33.4146C14.6255 33.7869 15.1923 34.1165 15.7834 34.4047C16.3738 34.6923 16.9833 34.9352 17.6099 35.1329C18.2371 35.3298 18.8755 35.4802 19.5244 35.5826C19.4712 35.1861 19.3917 34.5026 19.3346 33.6208C19.2866 32.7863 19.2669 31.7916 19.307 30.7103C17.8155 28.797 16.3351 26.874 15.0097 24.7795C16.5939 25.7709 18.0775 26.8694 19.5362 27.9921C19.8114 25.7138 20.4728 23.5537 21.521 21.5125Z" fill="#89C190"/>
<path d="M23.4943 35.9249C26.9161 36.1166 33.3939 35.8901 37.2866 31.9954C42.7339 26.5452 40.9875 15.943 40.9875 15.943C40.9875 15.943 30.3904 14.192 24.9267 19.6461C21.0156 23.5572 20.8061 30.1242 20.9985 33.5133C22.7449 31.801 24.6128 30.2463 26.5003 28.6397C28.8043 26.823 31.0741 24.9892 33.5857 23.3852C31.9568 25.8388 30.2065 28.2017 28.3341 30.4741C26.7598 32.3256 25.2236 34.1942 23.4943 35.9249Z" fill="#89C190"/>
</svg>
