<svg width="100" height="100" viewBox="0 0 100 100" fill="none" xmlns="http://www.w3.org/2000/svg">
<path d="M8.2613 70.9359C7.95918 70.3318 7.6702 69.7212 7.39436 69.1054C7.11851 68.4882 6.8558 67.8658 6.60754 67.2381C6.35796 66.6104 6.12284 65.9775 5.90216 65.3393C5.68017 64.7011 5.47263 64.0577 5.27954 63.4103C5.08644 62.763 4.90649 62.113 4.74098 61.4577C4.57547 60.8025 4.42441 60.1446 4.2878 59.4828C4.15119 58.821 4.02903 58.1565 3.92132 57.4894C3.81361 56.8237 3.71904 56.154 3.64022 55.483C3.56141 54.812 3.49705 54.1397 3.44713 53.466C3.39853 52.7924 3.36306 52.1187 3.34205 51.4425C3.32234 50.7675 3.31577 50.0926 3.32497 49.4163C3.33285 48.7414 3.3565 48.0664 3.39459 47.3915C3.43268 46.7179 3.48522 46.0442 3.55353 45.3719C3.62052 44.6996 3.70196 44.0299 3.79785 43.3602C3.89505 42.6918 4.00539 42.026 4.13018 41.3616C4.25628 40.6985 4.39552 40.038 4.5492 39.3801C4.70289 38.7222 4.87102 38.0683 5.05361 37.417C5.23619 36.767 5.43191 36.1209 5.64208 35.4788C5.85225 34.8367 6.07686 34.1998 6.31462 33.5682C6.55237 32.9353 6.80457 32.3089 7.06991 31.6878C7.33393 31.0654 7.61241 30.4508 7.90533 29.8415C8.19694 29.2322 8.50168 28.6295 8.81956 28.0333C9.13744 27.4372 9.46846 26.8489 9.81129 26.2672C10.1554 25.6855 10.5114 25.1116 10.8792 24.5457C11.247 23.9797 11.6279 23.4216 12.0207 22.8714C12.4134 22.3226 12.818 21.7815 13.2331 21.2497C13.6495 20.7179 14.0764 20.194 14.5151 19.6805C14.9539 19.1671 15.4044 18.6642 15.8641 18.1691C16.3252 17.6754 16.7955 17.1922 17.2775 16.7181C17.7596 16.2454 18.2509 15.7819 18.7527 15.3301C19.2544 14.8771 19.7654 14.4359 20.2856 14.0065C20.807 13.5758 21.3364 13.1582 21.875 12.7512C22.4148 12.3441 22.9613 11.9488 23.5182 11.5654C24.0739 11.182 24.6374 10.8117 25.2101 10.4519C25.7828 10.0934 26.3621 9.74672 26.9492 9.41319C27.5364 9.07965 28.1301 8.75925 28.7317 8.45198C29.332 8.14339 29.9402 7.84925 30.5536 7.56824C31.167 7.28592 31.787 7.01804 32.4123 6.7633C33.0375 6.50986 33.668 6.26825 34.3051 6.04108C34.9409 5.81391 35.5806 5.60118 36.2255 5.40158C36.8718 5.20199 37.5207 5.01684 38.1735 4.84613C38.8264 4.67411 39.4831 4.51785 40.1439 4.37472C40.8033 4.2329 41.4666 4.10421 42.1313 3.98997C42.7972 3.87704 43.4645 3.77724 44.1344 3.69189C44.8043 3.60785 45.4756 3.53694 46.1494 3.48179C46.822 3.42532 47.4958 3.38462 48.171 3.35836C48.8448 3.33209 49.52 3.32027 50.1952 3.3229C50.8703 3.32553 51.5455 3.3426 52.2194 3.37543C52.8945 3.40694 53.5684 3.45421 54.2396 3.51462C54.9121 3.57633 55.5834 3.6525 56.252 3.7431C56.9219 3.83371 57.5892 3.93876 58.2525 4.05825C58.9172 4.17775 59.5792 4.31037 60.2386 4.45876C60.8967 4.60714 61.5521 4.76997 62.2037 4.94593C62.8552 5.1232 63.5028 5.3136 64.1464 5.51845C64.7901 5.7233 65.4284 5.94128 66.0629 6.1737C66.6973 6.40613 67.3252 6.65299 67.9492 6.91299C68.5718 7.17168 69.1891 7.44481 69.8013 7.73239C70.4121 8.01865 71.0176 8.31804 71.6153 8.63056C72.2143 8.9444 72.8054 9.27006 73.3899 9.60753C73.9744 9.94632 74.5511 10.2969 75.1198 10.6607C75.6899 11.0244 76.2508 11.4 76.8038 11.7886C77.3555 12.176 77.9006 12.5752 78.4352 12.9875C78.9712 13.3985 79.4979 13.8214 80.0141 14.256C80.5317 14.6907 81.0387 15.1358 81.5365 15.5928L76.7657 20.7166L91.7704 23.2916L88.3434 8.27996L83.809 13.1517C83.2757 12.6632 82.7319 12.1852 82.1789 11.7204C81.6245 11.2542 81.061 10.8012 80.487 10.36C79.913 9.92006 79.3311 9.49066 78.7387 9.07572C78.1463 8.65945 77.5447 8.25764 76.9352 7.86764C76.3257 7.47764 75.7083 7.10208 75.0817 6.73966C74.4565 6.37592 73.822 6.02795 73.181 5.69178C72.54 5.35694 71.8924 5.03522 71.237 4.72795C70.5815 4.42199 69.9208 4.12916 69.2522 3.85078C68.5849 3.57108 67.9111 3.30846 67.2319 3.05896C66.5528 2.80947 65.8685 2.57573 65.1802 2.35644C64.4906 2.13583 63.797 1.9323 63.0982 1.74321C62.3994 1.5528 61.698 1.37947 60.9926 1.22058C60.2859 1.06169 59.5779 0.91725 58.8659 0.789876C58.154 0.66119 57.4394 0.549574 56.7222 0.452402C56.005 0.35523 55.2865 0.273817 54.5667 0.20816C53.8455 0.141191 53.1244 0.0912916 52.4019 0.0571504C51.6795 0.0230089 50.9557 0.00331235 50.2333 0.000685926C49.5095 -0.00325354 48.7857 0.00987791 48.0633 0.0374535C47.3408 0.0663425 46.6184 0.109676 45.8972 0.170079C45.1761 0.22917 44.4576 0.304019 43.7391 0.394624C43.0219 0.486544 42.306 0.592907 41.594 0.713715C40.8808 0.835835 40.1701 0.973714 39.4634 1.12604C38.7554 1.27836 38.0527 1.44644 37.3526 1.63028C36.6524 1.8128 35.9576 2.01109 35.2653 2.22513C34.5744 2.43785 33.8887 2.66634 33.207 2.90927C32.5253 3.15351 31.8501 3.41088 31.1802 3.68401C30.5103 3.95583 29.8456 4.2434 29.1875 4.54411C28.5307 4.84613 27.8792 5.16128 27.2356 5.49088C26.5919 5.82047 25.9549 6.16451 25.3257 6.52168C24.6965 6.87885 24.0752 7.24915 23.4617 7.6339C22.8496 8.01733 22.2454 8.41521 21.649 8.82491C21.0527 9.23592 20.4668 9.65874 19.8889 10.0947C19.3122 10.5307 18.7435 10.9798 18.1865 11.4393C17.6283 11.9003 17.0805 12.373 16.5419 12.8575C16.0047 13.3421 15.478 13.8371 14.9617 14.3453C14.4468 14.8522 13.9411 15.3709 13.4472 15.9C12.9546 16.4292 12.4726 16.9676 12.0023 17.5178C11.532 18.068 11.0736 18.6287 10.6283 19.1986C10.183 19.7685 9.74956 20.3476 9.32791 20.9359C8.90757 21.5255 8.50037 22.123 8.10499 22.7296C7.71092 23.3363 7.32868 23.9508 6.96088 24.5733C6.59309 25.197 6.23843 25.8273 5.89691 26.4655C5.5567 27.1037 5.22962 27.7497 4.917 28.4023C4.60437 29.055 4.30619 29.7142 4.02115 30.3799C3.73743 31.0457 3.46815 31.7167 3.212 32.3942C2.95718 33.0718 2.71679 33.7533 2.49218 34.4414C2.26625 35.1295 2.05608 35.8215 1.86036 36.5188C1.66464 37.2147 1.48468 37.916 1.31917 38.6211C1.15498 39.3249 1.00523 40.0327 0.869939 40.7444C0.735956 41.4561 0.616423 42.1692 0.513966 42.8861C0.410195 43.6018 0.322187 44.3201 0.249942 45.041C0.177696 45.7606 0.121214 46.4815 0.0804935 47.205C0.0397736 47.9272 0.0135024 48.6508 0.0043074 49.3743C-0.00488756 50.0978 0.000366483 50.8214 0.0226971 51.5449C0.0450275 52.2684 0.0818071 52.9907 0.135663 53.7129C0.188205 54.4338 0.25651 55.1547 0.341891 55.873C0.425958 56.5926 0.525788 57.3095 0.641381 58.0239C0.756973 58.7382 0.887015 59.4499 1.03413 60.159C1.17994 60.8668 1.3415 61.572 1.51883 62.2745C1.69485 62.9757 1.88794 63.6743 2.09417 64.3676C2.30171 65.0609 2.5237 65.749 2.76146 66.4332C2.9979 67.1173 3.2501 67.7949 3.51675 68.4685C3.78209 69.1408 4.06319 69.8079 4.35874 70.4684C4.65429 71.1289 4.96428 71.7828 5.28742 72.4302L8.2613 70.9359Z" fill="#89C190"/>
<path d="M91.7373 29.0642C92.0407 29.6682 92.3297 30.2788 92.6056 30.8947C92.8814 31.5118 93.1428 32.1343 93.3924 32.7619C93.6406 33.3896 93.8758 34.0225 94.0978 34.6607C94.3198 35.2989 94.526 35.9423 94.7204 36.5897C94.9135 37.2371 95.0934 37.8871 95.2589 38.5423C95.4231 39.1976 95.5742 39.8555 95.7121 40.5173C95.8487 41.1791 95.9709 41.8435 96.0786 42.5106C96.1863 43.1764 96.2796 43.846 96.3584 44.5171C96.4372 45.1881 96.5016 45.8604 96.5515 46.534C96.6014 47.2077 96.6369 47.8813 96.6579 48.5576C96.6776 49.2325 96.6842 49.9074 96.675 50.5824C96.6658 51.2587 96.6421 51.9336 96.6053 52.6086C96.5672 53.2822 96.5134 53.9558 96.4464 54.6281C96.3794 55.3005 96.298 55.9702 96.2008 56.6399C96.1049 57.3082 95.9945 57.974 95.8684 58.6384C95.7436 59.3016 95.6044 59.9621 95.4507 60.6199C95.2957 61.2778 95.1289 61.9318 94.9463 62.5831C94.7637 63.2331 94.568 63.8791 94.3565 64.5213C94.1464 65.1634 93.9231 65.8002 93.6853 66.4319C93.4462 67.0648 93.1954 67.6911 92.93 68.3123C92.6647 68.9347 92.3862 69.5492 92.0946 70.1585C91.803 70.7678 91.4982 71.3705 91.1804 71.9667C90.8625 72.5629 90.5315 73.1511 90.1886 73.7328C89.8445 74.3146 89.4885 74.8884 89.1207 75.4544C88.7516 76.0203 88.372 76.5784 87.9792 77.1286C87.5865 77.6775 87.1819 78.2185 86.7655 78.7503C86.3504 79.2821 85.9222 79.8061 85.4835 80.3195C85.0448 80.8329 84.5955 81.3359 84.1345 81.8309C83.6747 82.3246 83.2032 82.8079 82.7224 83.2819C82.2403 83.7546 81.7491 84.2182 81.2473 84.6699C80.7455 85.1229 80.2345 85.5641 79.7144 85.9935C79.1929 86.4242 78.6635 86.8418 78.1236 87.2489C77.5851 87.6559 77.0373 88.0512 76.4817 88.4346C75.9261 88.8181 75.3612 89.1897 74.7898 89.5482C74.2171 89.9067 73.6379 90.2533 73.0507 90.5868C72.4635 90.9204 71.8698 91.2408 71.2682 91.5481C70.6679 91.8566 70.0597 92.1508 69.4463 92.4318C68.8316 92.7141 68.2129 92.982 67.5876 93.2367C66.9611 93.4902 66.3306 93.7318 65.6948 93.959C65.059 94.1861 64.418 94.3989 63.7731 94.5985C63.1281 94.798 62.4792 94.9832 61.8264 95.1539C61.1722 95.3259 60.5168 95.4822 59.8561 95.6253C59.1967 95.7671 58.5333 95.8958 57.8673 96.0101C57.2027 96.123 56.5341 96.2228 55.8642 96.3082C55.1943 96.3922 54.523 96.4631 53.8505 96.5182C53.178 96.5747 52.5041 96.6154 51.8289 96.6417C51.1538 96.6679 50.4799 96.6798 49.8048 96.6771C49.1296 96.6745 48.4544 96.6574 47.7793 96.6246C47.1054 96.5931 46.4316 96.5458 45.759 96.4854C45.0865 96.4237 44.4166 96.3475 43.7467 96.2569C43.0781 96.1663 42.4108 96.0613 41.7461 95.9418C41.0815 95.8223 40.4207 95.6897 39.7613 95.5413C39.1032 95.3929 38.4478 95.2301 37.7963 95.0541C37.1434 94.8768 36.4958 94.6864 35.8522 94.4816C35.2099 94.2767 34.5702 94.0588 33.937 93.8263C33.3026 93.5939 32.6734 93.347 32.0508 93.087C31.4268 92.8284 30.8095 92.5552 30.1987 92.2677C29.5865 91.9814 28.9823 91.682 28.3833 91.3695C27.7857 91.0556 27.1933 90.73 26.61 90.3925C26.0255 90.0537 25.4489 89.7031 24.8788 89.3394C24.31 88.9756 23.7491 88.6001 23.1961 88.2114C22.6431 87.824 22.0993 87.4248 21.5634 87.0125C21.0288 86.6015 20.502 86.1787 19.9845 85.744C19.4683 85.3094 18.9599 84.8642 18.4621 84.4073L23.2342 79.2834L8.22949 76.7084L11.6526 91.7201L16.1909 86.8484C16.7229 87.3369 17.2667 87.8148 17.8211 88.2797C18.3754 88.7458 18.9389 89.1989 19.5129 89.6401C20.0856 90.08 20.6688 90.5094 21.2613 90.9243C21.8537 91.3406 22.454 91.7424 23.0648 92.1324C23.6742 92.5224 24.2916 92.898 24.9182 93.2604C25.5434 93.6241 26.1766 93.9721 26.8189 94.3083C27.4599 94.6431 28.1075 94.9648 28.763 95.2721C29.4171 95.578 30.0791 95.8709 30.7464 96.1493C31.415 96.4276 32.0876 96.6916 32.7667 96.9411C33.4458 97.1906 34.1301 97.4243 34.8197 97.6436C35.5094 97.8642 36.2029 98.0677 36.9017 98.2568C37.5992 98.4472 38.302 98.6206 39.0074 98.7795C39.7127 98.9383 40.422 99.0815 41.134 99.2102C41.8459 99.3389 42.5605 99.4505 43.2777 99.5476C43.9936 99.6448 44.7134 99.7262 45.4333 99.7919C46.1531 99.8588 46.8755 99.9087 47.598 99.9429C48.3204 99.977 49.0429 99.9967 49.7667 99.9994C50.4904 100.003 51.2129 99.9902 51.9367 99.9626C52.6591 99.9337 53.3816 99.8904 54.1014 99.83C54.8225 99.7709 55.5424 99.696 56.2596 99.6054C56.9781 99.5135 57.6926 99.4071 58.4059 99.2863C59.1192 99.1642 59.8298 99.0263 60.5365 98.874C61.2432 98.7217 61.9472 98.5536 62.6474 98.3698C63.3462 98.1872 64.0424 97.989 64.7333 97.7749C65.4242 97.5622 66.1112 97.3337 66.7929 97.0908C67.4734 96.8465 68.1498 96.5892 68.8197 96.316C69.4897 96.0442 70.1543 95.7566 70.8111 95.4559C71.4692 95.1539 72.1207 94.8388 72.7644 94.5092C73.408 94.1796 74.0451 93.8355 74.6743 93.4784C75.3034 93.1212 75.9248 92.7509 76.5369 92.3661C77.1503 91.9827 77.7545 91.5848 78.3509 91.1738C78.9459 90.7641 79.5331 90.3413 80.1111 89.9053C80.6877 89.4694 81.2552 89.0203 81.8134 88.5594C82.3717 88.0998 82.9194 87.6271 83.4567 87.1425C83.9939 86.658 84.522 86.1629 85.0369 85.6547C85.5531 85.1479 86.0588 84.6292 86.5514 84.1C87.0453 83.5708 87.5274 83.0311 87.9976 82.4822C88.4679 81.932 88.925 81.3713 89.3716 80.8014C89.8169 80.2315 90.2504 79.6524 90.6707 79.0641C91.0924 78.4746 91.4996 77.8771 91.8949 77.2704C92.289 76.6637 92.6712 76.0492 93.039 75.4268C93.4068 74.803 93.7615 74.1727 94.1017 73.5346C94.4432 72.8964 94.7703 72.2503 95.0829 71.5977C95.3956 70.9451 95.6937 70.2859 95.9788 69.6201C96.2625 68.9544 96.5318 68.2834 96.7866 67.6058C97.0427 66.9282 97.2831 66.2467 97.5077 65.5586C97.7337 64.8705 97.9438 64.1785 98.1396 63.4813C98.3353 62.7853 98.5152 62.0841 98.6807 61.3789C98.8449 60.6751 98.9947 59.9673 99.1287 59.2556C99.264 58.5439 99.3822 57.8309 99.486 57.1139C99.5897 56.3982 99.6777 55.68 99.75 54.9591C99.8222 54.2395 99.8787 53.5186 99.9194 52.795C99.9602 52.0728 99.9851 51.3493 99.9956 50.6257C100.005 49.9022 99.9982 49.1787 99.9772 48.4551C99.9549 47.7316 99.9181 47.0094 99.8643 46.2872C99.8117 45.5662 99.7421 44.8453 99.658 44.1271C99.574 43.4075 99.4741 42.6905 99.3585 41.9762C99.243 41.2618 99.1116 40.5501 98.9658 39.841C98.82 39.1332 98.6584 38.4281 98.4811 37.7256C98.3038 37.0243 98.112 36.3258 97.9044 35.6324C97.6982 34.9391 97.4762 34.251 97.2385 33.5669C97.002 32.8827 96.7498 32.2052 96.4832 31.5315C96.2165 30.8592 95.9354 30.1921 95.6412 29.5316C95.3456 28.8711 95.0356 28.2172 94.7125 27.5698L91.7373 29.0642Z" fill="#89C190"/>
<path d="M43.041 43.0254C33.2261 35.3134 17.6999 37.1872 17.6999 37.1872C17.6999 37.1872 15.5628 54.837 25.0952 64.3716C26.0581 65.2672 27.0813 66.0865 28.1663 66.8298C29.25 67.5743 30.3836 68.2335 31.5658 68.81C32.7467 69.3851 33.9657 69.871 35.2188 70.2662C36.4732 70.6602 37.75 70.9609 39.0478 71.1657C38.9414 70.3726 38.7825 69.0056 38.6682 67.2421C38.5723 65.5731 38.5329 63.5837 38.613 61.421C35.6299 57.5945 32.6692 53.7484 30.0184 49.5595C33.1867 51.5423 36.154 53.7392 39.0714 55.9847C39.6218 51.4281 40.9446 47.1079 43.041 43.0254Z" fill="#89C190"/>
<path d="M46.9886 71.8498C53.8322 72.2332 66.7877 71.7802 74.5732 63.9907C85.4678 53.0905 81.975 31.8861 81.975 31.8861C81.975 31.8861 60.7809 28.384 49.8534 39.2921C42.0312 47.1144 41.6122 60.2483 41.9971 67.0267C45.4898 63.6021 49.2255 60.4926 53.0007 57.2793C57.6086 53.6459 62.1483 49.9783 67.1713 46.7704C63.9137 51.6775 60.4131 56.4035 56.6681 60.9482C53.5195 64.6512 50.4471 68.3884 46.9886 71.8498Z" fill="#89C190"/>
</svg>
