<svg width="204" height="239" viewBox="0 0 204 239" fill="none" xmlns="http://www.w3.org/2000/svg">
<path d="M93.3092 181.274C85.8794 181.303 78.4648 180.948 71.0805 180.168C67.0989 179.75 63.1356 179.192 59.2843 178.092C58.2359 177.792 57.2087 177.39 56.2209 176.934C55.3937 176.55 54.5271 176.042 54.5574 175.025C54.5877 174.07 55.427 173.619 56.2149 173.215C58.1117 172.236 60.1782 171.754 62.2781 171.375C66.8717 170.547 71.5168 170.145 76.1771 169.859C81.7191 169.519 87.2672 169.423 92.8183 169.527C100.06 169.669 107.287 170.067 114.471 170.977C115.38 171.092 116.283 171.271 117.195 171.37C119.492 171.618 121.777 171.924 123.974 172.646C125.046 172.995 126.092 173.426 127.11 173.902C127.761 174.205 128.401 175.629 128.204 176.253C128.104 176.559 127.849 176.899 127.561 177.064C126.779 177.512 125.983 178.017 125.119 178.239C122.819 178.828 120.501 179.412 118.15 179.767C109.923 181.009 101.627 181.312 93.3092 181.274Z" fill="#BC8856"/>
<path d="M57.6738 177.556C58.1768 175.855 59.307 174.844 60.9796 174.402C61.8614 174.171 62.7704 173.932 63.6734 173.92C65.7035 173.897 67.7064 173.692 69.6911 173.302C72.5182 172.753 75.3241 172.808 78.1027 173.501C80.1964 174.018 82.272 173.92 84.3143 173.383C87.2323 172.606 90.1624 172.398 93.1531 172.834C94.6984 173.062 96.2529 172.964 97.7497 172.569C99.9617 171.988 102.177 172.023 104.422 172.286C106.367 172.511 108.3 172.528 110.222 172.017C111.621 171.642 113.058 171.72 114.494 171.861C115.406 171.951 116.318 172.092 117.233 172.118C120.166 172.208 122.409 173.553 124.272 175.572C124.611 175.941 124.833 176.487 124.908 176.978C125.084 178.11 124.848 178.396 123.69 178.693C120.233 179.574 116.706 180.054 113.161 180.412C102.819 181.445 92.4562 181.492 82.0842 181.009C75.624 180.709 69.173 180.201 62.8189 178.936C61.419 178.656 60.0434 178.269 58.6586 177.911C58.3192 177.824 57.992 177.674 57.6738 177.556Z" fill="#705335"/>
<path d="M105.38 88.0544C105.211 89.1575 105.074 90.2693 104.865 91.3666C104.356 94.0551 103.911 96.7493 103.511 99.455C102.88 103.651 102.844 107.91 101.847 112.066C101.45 113.732 101.302 115.459 101.093 117.162C101.011 117.783 101.059 118.421 101.087 119.054C101.305 124.445 101.59 129.837 101.738 135.231C101.838 138.941 101.759 142.658 101.744 146.372C101.732 150.264 101.687 154.154 101.677 158.046C101.662 163.969 101.614 169.892 101.699 175.815C101.732 178.333 102.059 180.848 102.262 183.363C102.323 184.131 102.338 184.911 102.493 185.662C102.644 186.381 102.287 186.889 101.917 187.403C101.605 187.83 101.15 187.885 100.638 187.703C100.275 187.576 99.8928 187.455 99.511 187.417C98.6747 187.331 98.3232 187.068 98.2262 186.259C98.1353 185.494 98.1111 184.723 98.0323 183.955C97.7747 181.373 97.4748 178.798 97.2445 176.216C96.89 172.268 96.2567 168.344 96.3021 164.376C96.3264 161.922 96.4839 159.473 96.5657 157.021C96.6597 154.252 96.7354 151.489 96.8172 148.719C96.8203 148.65 96.8294 148.578 96.8233 148.511C96.4476 144.858 97.0233 141.229 97.0778 137.587C97.0809 137.414 97.0718 137.235 97.099 137.064C97.5687 134.35 97.3384 131.607 97.4808 128.884C97.5687 127.246 97.4142 125.586 97.2324 123.951C96.6809 119.08 96.9112 114.214 97.3081 109.36C97.6929 104.61 98.2989 99.8767 98.6989 95.1293C99.1201 90.122 100.102 85.2042 101.114 80.2865C101.747 77.1938 102.568 74.1357 103.232 71.0459C104.302 66.0732 105.147 61.0486 106.383 56.1136C107.538 51.4846 108.995 46.9191 110.483 42.371C111.456 39.3995 112.501 36.4397 114.089 33.6877C115.24 31.6894 116.355 29.6767 117.437 27.6466C119.252 24.242 122.043 21.6951 125.203 19.4513C126.561 18.4868 128.088 18.4637 129.63 18.7525C130.488 18.9113 131.315 19.2492 132.133 19.5582C132.793 19.8065 133.069 20.2801 132.936 20.7681C132.79 21.3081 132.275 21.6257 131.536 21.4467C130.688 21.2417 130.075 21.4814 129.451 22.0127C128.518 22.7982 127.442 23.4421 126.558 24.2738C122.834 27.7766 119.788 31.7385 117.728 36.3559C117.125 37.7074 116.386 39.0068 115.795 40.364C113.425 45.8333 112.092 51.577 110.807 57.3408C110.222 59.9773 109.634 62.6195 108.895 65.2214C107.435 70.3759 106.398 75.5969 105.904 80.916C105.744 82.6284 105.535 84.3322 105.362 86.0417C105.295 86.7059 105.268 87.37 105.223 88.0342C105.277 88.0429 105.326 88.0486 105.38 88.0544Z" fill="#3B4C3A"/>
<path d="M87.4329 37.8343C87.2965 36.6214 87.3571 35.4606 88.1722 34.4239C88.3934 34.1438 88.4267 33.702 88.4691 33.3266C88.7237 31.0626 88.8661 28.7871 89.5872 26.5895C89.9509 25.4807 90.3872 24.418 91.0962 23.4535C91.3598 23.0897 91.4932 22.6363 91.675 22.2233C91.8204 21.8999 91.8992 21.5476 92.0901 21.256C92.3749 20.8228 92.89 20.716 93.3445 20.9239C94.0748 21.256 94.5505 22.1627 94.4233 22.9279C93.8657 26.321 93.3203 29.7112 92.7749 33.1042C92.7234 33.4161 92.684 33.7337 92.6931 34.0485C92.7719 36.7225 92.3386 39.3503 91.9689 41.9925C91.375 46.2692 90.9811 50.5777 91.375 54.889C91.6174 57.5255 91.3962 60.136 91.2356 62.7493C91.0387 66.0875 91.1144 69.4113 91.4235 72.7263C92.1446 80.4481 92.4658 88.1842 92.6476 95.929C92.7385 99.8187 92.9688 103.706 93.0082 107.592C93.0476 111.098 93.0506 114.61 92.8203 118.101C92.4628 123.509 92.8082 128.892 93.0021 134.286C93.0324 135.196 93.09 136.106 93.1173 137.015C93.1809 139.398 93.2082 141.777 93.6263 144.142C93.8142 145.205 93.7809 146.308 93.8415 147.391C94.0809 151.517 94.3142 155.644 94.5566 159.773C94.6445 161.243 94.9293 162.722 94.8263 164.177C94.5505 168.104 94.9384 172.017 94.9141 175.939C94.902 178.387 94.9808 180.839 95.0868 183.288C95.1262 184.229 95.3202 185.165 95.4959 186.095C95.7232 187.299 95.5777 187.55 94.3414 187.873C94.1687 187.92 94.0081 188.018 93.8385 188.073C93.6324 188.139 93.4203 188.22 93.2082 188.226C92.7294 188.24 91.0023 187.18 90.8326 186.739C90.7266 186.458 90.6902 186.132 90.7084 185.829C90.7659 184.749 90.9417 183.672 90.9326 182.592C90.8932 177.686 90.772 172.782 90.2114 167.896C89.6418 162.909 89.5327 157.893 89.3539 152.886C89.1964 148.578 89.057 144.269 88.8388 139.964C88.7752 138.748 88.4722 137.544 88.2661 136.334C87.4692 131.69 86.9844 127.03 87.0056 122.314C87.0238 117.725 86.9117 113.134 86.8571 108.545C86.8177 105.603 86.7268 102.66 86.7541 99.7148C86.7753 97.8638 86.8965 96.0041 87.1117 94.1617C87.3571 92.123 87.2359 90.0901 87.0814 88.0745C86.7844 84.2916 86.7329 80.5174 86.8874 76.7287C86.948 75.2329 86.7117 73.7226 86.6844 72.221C86.6299 69.2438 86.545 66.2666 86.6208 63.2922C86.7056 60.136 86.6693 56.9913 86.3905 53.8408C86.2481 52.2468 86.1693 50.6354 86.5875 49.0356C86.745 48.4379 86.6299 47.7795 86.6814 47.15C86.8874 44.707 87.1147 42.2669 87.3238 39.8239C87.3783 39.1626 87.3995 38.4984 87.4329 37.8343Z" fill="#41763E"/>
<path d="M67.4618 55.6193C67.8678 55.5067 68.2647 55.3739 68.6738 55.293C68.995 55.2295 69.3434 55.267 69.6586 55.1891C70.7736 54.909 71.2676 55.1544 71.5554 56.3442C72.1039 58.6312 72.6826 60.924 72.9977 63.2429C73.8704 69.6016 74.6158 75.9747 75.3945 82.3421C75.5188 83.3528 75.54 84.3722 75.6733 85.38C75.7339 85.8074 75.9702 86.2174 76.1308 86.6332C76.1672 86.7314 76.2733 86.8209 76.2702 86.9105C76.149 88.9925 76.9308 90.9648 77.0429 93.0237C77.2368 96.5207 77.4792 100.018 77.6944 103.515C77.9428 107.61 78.158 111.701 78.4398 115.793C78.8549 121.736 79.4912 127.662 79.7094 133.622C79.8397 137.223 80.3124 140.818 80.8032 144.393C81.2608 147.731 81.7729 151.055 81.985 154.416C82.2758 159.037 82.7334 163.645 82.897 168.266C83.0697 173.166 82.9879 178.078 83.0061 182.984C83.0122 184.174 82.7516 184.448 81.482 184.564C80.9002 184.616 80.3033 184.633 79.7215 184.581C78.3731 184.457 77.8398 183.949 77.7004 182.658C77.6277 181.997 77.6156 181.327 77.6095 180.663C77.5519 172.987 77.5762 165.312 77.4247 157.636C77.2823 150.42 76.855 143.209 76.2217 136.013C75.9975 133.498 75.8733 130.98 75.6703 128.467C75.5672 127.174 75.3006 125.886 75.2794 124.595C75.1976 119.541 74.6037 114.528 74.0825 109.507C73.8037 106.856 73.7643 104.188 73.5341 101.534C73.3401 99.3362 73.0189 97.1502 72.7674 94.9556C72.3432 91.3027 71.8493 87.6497 71.5251 83.9852C70.9676 77.5947 70.3737 71.2071 69.395 64.8571C69.0374 62.5383 68.7526 60.205 68.4193 57.8804C68.3102 57.1267 68.1769 56.3701 67.4072 55.885C67.4254 55.7955 67.4436 55.706 67.4618 55.6193Z" fill="#A0BB5E"/>
<path d="M104.447 185.488C104.632 182.866 104.956 180.246 104.972 177.621C104.999 172.64 105.42 167.682 105.772 162.718C106.062 158.583 106.753 154.508 107.356 150.416C107.829 147.226 108.071 144.006 108.462 140.803C108.789 138.126 109.286 135.464 109.529 132.781C109.859 129.131 110.92 125.62 111.538 122.025C112.777 114.826 114.58 107.742 116.601 100.716C117.383 97.9931 118.64 95.3942 119.692 92.7404C120.058 91.825 120.507 90.9414 120.843 90.0144C121.473 88.2847 122.231 86.6214 123.237 85.062C125.167 82.0733 127.176 79.1394 129.706 76.5722C130.482 75.7867 131.391 75.1168 132.267 74.4295C132.691 74.1003 133.17 74.1638 133.579 74.5017C133.994 74.8367 134.088 75.368 133.736 75.8272C133.436 76.217 133.082 76.6011 132.67 76.8754C131.088 77.9265 129.952 79.2809 129.182 80.973C128.485 82.5151 127.618 83.9878 126.843 85.4981C126.618 85.937 126.391 86.3875 126.264 86.8582C125.897 88.2269 125.246 89.4773 124.579 90.7306C121.995 95.5992 120.086 100.71 118.771 106.012C118.249 108.117 118.031 110.292 117.613 112.423C117.146 114.831 116.565 117.222 116.107 119.631C115.559 122.527 115.05 125.429 114.586 128.334C114.198 130.792 113.868 133.261 113.562 135.733C112.798 141.924 111.895 148.095 111.571 154.335C111.323 159.126 110.865 163.908 109.983 168.647C109.692 170.226 109.641 171.852 109.502 173.46C109.18 177.203 109.295 180.951 109.432 184.699C109.447 185.014 109.495 185.335 109.453 185.644C109.417 185.909 109.353 186.253 109.162 186.403C108.547 186.879 107.871 187.292 107.202 187.702C107.062 187.789 106.847 187.795 106.665 187.792C105.405 187.775 104.344 186.689 104.447 185.488Z" fill="#6F9D43"/>
<path d="M75.2795 184.24C75.2735 185.282 74.9584 185.574 73.9524 185.626C73.7494 185.638 73.5342 185.684 73.3494 185.767C72.2707 186.261 71.598 185.909 71.4828 184.748C71.395 183.876 71.3586 183.001 71.2889 182.129C70.8465 176.538 70.495 170.939 69.9224 165.363C69.4678 160.904 68.8012 156.457 68.0982 152.028C67.7649 149.957 67.1559 147.921 66.6196 145.885C65.9378 143.295 65.556 140.667 65.2045 138.022C64.8742 135.53 64.2076 133.076 63.6834 130.607C63.1228 127.982 62.1169 125.493 60.9715 123.067C60.4655 121.996 59.7352 120.999 58.9686 120.069C58.0838 118.998 57.0203 118.065 56.084 117.032C55.684 116.59 55.3658 116.061 55.0992 115.533C54.8416 115.019 55.0083 114.583 55.4264 114.334C55.8385 114.089 56.2779 114.184 56.7173 114.548C57.099 114.863 57.5111 115.149 57.9202 115.429C60.523 117.193 62.9017 119.128 64.0076 122.146C64.4167 123.263 65.0136 124.32 65.5348 125.403C65.7469 125.848 66.0287 126.269 66.1954 126.728C67.3801 130.006 68.5588 133.269 69.0679 136.737C69.9678 142.842 71.0677 148.92 72.0283 155.016C72.3101 156.815 72.4252 158.638 72.5676 160.451C72.8009 163.388 72.9494 166.33 73.2282 169.258C73.413 171.211 73.7797 173.145 74.0402 175.092C74.2887 176.969 74.4978 178.849 74.7493 180.728C74.8675 181.627 75.0371 182.522 75.1796 183.42C75.228 183.732 75.2553 184.046 75.2795 184.24Z" fill="#3B4C3A"/>
<path d="M58.4196 79.4312C58.259 78.4003 58.1378 77.3607 57.9317 76.3385C57.3378 73.3843 55.5622 70.9298 54.0926 68.3568C53.4109 67.1613 51.4565 67.0574 50.505 68.0739C50.3414 68.2471 50.1717 68.4839 50.1505 68.7063C50.0232 69.9942 49.9414 71.2734 50.3384 72.5585C50.8929 74.3719 51.4625 76.1941 51.7958 78.0509C52.1625 80.0953 52.0958 82.1629 51.2565 84.1439C50.8141 85.2008 50.6777 86.3126 50.6838 87.4388C50.6868 88.2849 51.2959 88.8364 52.1746 88.6863C52.62 88.6083 53.0563 88.3628 53.4503 88.1232C54.7229 87.3493 55.5289 86.1566 56.3743 85.0131C57.6015 83.3498 58.5499 81.5883 58.4196 79.4312ZM38.0514 64.5537C37.6362 63.3554 37.103 62.5035 36.2939 61.8104C35.1213 60.8055 33.7426 60.1413 32.2366 59.7631C28.2066 58.7466 24.3614 59.0844 20.8223 61.334C19.9072 61.9173 19.0255 62.5497 18.1286 63.1561C17.9801 63.2601 17.8437 63.4189 17.6801 63.4478C17.4832 63.4824 17.1983 63.4737 17.0711 63.364C16.9408 63.2543 16.8923 62.9771 16.9256 62.7951C16.9711 62.567 17.1014 62.3302 17.2559 62.1396C17.9528 61.2878 18.6043 60.3781 19.4012 59.6158C21.5798 57.5309 23.1949 55.0763 24.6978 52.5351C25.6159 50.9787 26.5977 49.4597 27.5703 47.9321C29.1157 45.5094 31.5397 44.4929 34.3577 44.1464C35.7455 43.9789 37.0636 44.259 38.318 44.8308C40.5785 45.853 42.5056 47.2997 44.1873 49.0439C45.875 50.7967 47.5689 52.5496 48.787 54.929C48.89 54.5161 48.9809 54.3371 48.9688 54.1638C48.8748 52.8037 48.9203 51.4118 48.6142 50.0921C47.9294 47.1063 45.7751 45.2639 42.9237 44.1146C41.342 43.4764 39.6785 43.2252 37.9574 43.5948C37.712 43.6468 37.4393 43.667 37.1969 43.6266C36.7787 43.5515 36.6212 43.2252 36.7696 42.8325C36.809 42.7343 36.8636 42.639 36.9242 42.5552C38.7846 39.9332 40.7088 37.3747 43.5328 35.5786C45.2327 34.4986 47.0204 33.6351 49.0021 33.15C51.9261 32.4339 54.7502 31.504 57.4651 30.1872C60.4922 28.7145 63.4586 29.0812 66.0948 31.195C68.6522 33.2482 70.4157 35.7692 70.9338 38.9774C71.2884 41.1778 70.9308 43.3176 70.1309 45.3794C69.7491 46.367 69.6703 47.3459 69.6915 48.3711C69.7036 49.1017 69.9945 49.685 70.6278 50.0546C71.3156 50.4473 72.0247 50.8776 72.7852 51.074C74.6214 51.5533 76.494 51.9374 78.3636 52.3012C80.2089 52.6564 82.0421 53.0463 83.7329 53.8346C87.0569 55.3737 89.1931 57.9467 90.3415 61.2271C90.9778 63.0435 90.7051 64.9032 90.0052 66.6906C89.8113 67.1816 89.5779 67.6638 89.2961 68.1143C87.8993 70.3378 87.1599 72.7779 86.5176 75.2758C85.2752 80.0896 82.327 83.7339 77.7212 86.0382C75.4971 87.15 73.364 88.3513 71.3702 89.8038C70.3218 90.5662 69.1824 91.2274 68.0371 91.8541C65.7554 93.0958 63.2556 93.194 60.7437 92.8417C57.6439 92.4056 54.6108 92.498 51.5625 93.2286C50.2929 93.5347 48.9445 93.5607 47.6295 93.656C46.6053 93.7311 45.572 93.708 44.5448 93.7426C42.4935 93.809 40.5421 94.2595 38.715 95.1576C38.4544 95.2875 38.1877 95.4233 37.912 95.5012C37.3393 95.6629 36.9363 95.3944 36.9605 94.8371C36.9787 94.4212 37.0999 94.0083 37.1969 93.6011C38.0726 89.9713 38.2665 87.2453 37.8423 84.1035C37.6968 84.2739 37.5635 84.3691 37.5181 84.4904C36.8545 86.3126 36.1939 88.1318 35.5606 89.9626C35.3394 90.5893 35.1788 91.2419 35.0183 91.8887C34.8455 92.5875 34.8789 93.2517 35.297 93.9072C35.6818 94.5079 35.4546 94.8977 34.7274 95.0161C34.2577 95.0912 33.7699 95.1691 33.3032 95.1374C30.9579 94.9872 28.6096 94.9006 26.3734 94.0429C24.9099 93.4827 23.3979 93.0294 21.8889 92.5933C17.5195 91.3198 11.9623 94.4703 11.02 98.3312C10.9442 98.6315 10.8442 98.9491 10.6746 99.2119C10.4261 99.5989 9.91401 99.5411 9.72312 99.1224C9.65342 98.9665 9.63221 98.7845 9.611 98.6113C9.16255 95.0623 9.5807 91.6952 11.7775 88.6603C12.8623 87.1616 13.8471 85.5964 14.8985 84.0717C16.7075 81.4526 17.6044 78.5966 17.6347 75.449C17.6498 73.4912 17.8104 71.5304 18.0286 69.5841C18.4043 66.2199 20.5496 64.239 23.81 63.2716C26.3886 62.5064 29.0338 62.6363 31.6852 62.9193C33.8244 63.1503 35.8394 63.7712 38.0514 64.5537Z" fill="#3B4C3A"/>
<path d="M146.301 61.9928C145.347 61.9611 144.977 62.1054 144.816 62.7407C144.513 63.9247 144.304 65.1289 144.095 66.333C144.023 66.7287 144.138 67.1416 144.638 67.2282C145.11 67.3177 145.419 67.0203 145.541 66.6276C145.719 66.0645 146.141 65.7815 146.653 65.5447C147.471 65.1635 148.077 64.5542 148.543 63.8294C148.992 63.1364 148.804 62.6166 148.004 62.3798C147.38 62.1921 146.728 62.0852 146.301 61.9928ZM163.088 76.8789C163.091 76.8991 163.097 76.9194 163.1 76.9367C163.285 76.9482 163.467 76.9656 163.648 76.9742C164.636 77.0031 164.933 76.6017 164.467 75.7585C164.23 75.334 163.894 74.9442 163.527 74.6092C162.506 73.6765 161.197 73.4541 159.855 73.4137C158.721 73.3819 157.809 73.0152 157.04 72.2066C156.6 71.7475 156.064 71.3374 155.497 71.04C154.655 70.6039 153.658 71.2219 153.795 72.1171C153.919 72.9343 154.11 73.818 154.555 74.5052C156.085 76.876 158.6 77.4796 161.358 77.1388C161.936 77.0695 162.512 76.9656 163.088 76.8789ZM141.974 75.412C141.929 77.1504 142.25 78.5798 142.986 79.9399C144.323 82.406 146.607 83.7314 149.21 84.6786C149.519 84.7912 149.846 84.8634 150.155 84.9731C150.516 85.1031 150.877 85.3226 150.792 85.7182C150.737 85.9781 150.48 86.2928 150.225 86.4054C148.019 87.393 145.747 88.0254 143.295 87.2949C142.456 87.0465 141.611 86.7982 140.792 86.4892C138.405 85.5882 135.978 85.1002 133.372 85.2302C130.157 85.3919 127.584 84.153 125.824 81.5137C125.094 80.4164 125.075 79.8735 125.954 78.8628C126.654 78.0513 127.436 77.3063 128.199 76.5468C128.448 76.3043 128.757 76.1108 129.042 75.8942C128.984 75.822 128.933 75.7469 128.878 75.6776C128.545 75.7556 128.212 75.8682 127.869 75.9087C126.709 76.0444 125.539 76.2783 124.379 76.2465C122.457 76.1945 121.63 74.8691 122.421 73.1913C122.715 72.5676 123.154 71.9641 123.66 71.476C124.351 70.8032 125.139 70.2141 125.936 69.6539C128.181 68.0743 130.478 66.5525 132.708 64.9527C134.547 63.6302 136.562 62.6426 138.717 61.9062C138.926 61.8369 139.15 61.7474 139.356 61.7647C139.547 61.7849 139.808 61.8889 139.886 62.0304C139.968 62.1748 139.899 62.4318 139.814 62.5992C139.741 62.7465 139.553 62.8389 139.414 62.9544C138.384 63.7948 137.944 64.9181 137.79 66.2175C137.941 66.0645 138.093 65.9114 138.238 65.7555C139.005 64.9556 139.738 64.1239 140.538 63.3558C142.292 61.6838 144.45 61.1669 146.834 61.6059C148.707 61.9524 150.577 62.3653 152.413 62.8591C154.519 63.428 156.631 63.7688 158.828 63.737C160.109 63.7197 161.397 63.8005 162.679 63.89C164.085 63.9853 165.442 64.3203 166.703 64.921C168.639 65.8508 170.645 66.6882 172.46 67.8029C176.85 70.4913 181.402 70.4798 186.074 68.7558C188.434 67.8808 190.728 66.8384 193.037 65.8421C194.986 65.0018 196.955 64.2337 199.04 63.7688C200.055 63.5435 201.067 63.4251 202.103 63.5753C202.464 63.6302 202.876 63.6764 202.946 64.1153C203.015 64.5456 202.652 64.7188 202.318 64.8748C200.964 65.5043 199.625 66.1742 198.246 66.746C195.789 67.7625 194.01 69.4922 192.552 71.5627C191.962 72.4059 191.486 73.3242 190.925 74.1847C189.828 75.8856 188.738 77.5922 187.586 79.2584C185.892 81.7043 183.405 82.4984 180.49 82.0479C178.208 81.6956 175.941 81.2191 173.702 80.6647C169.296 79.576 165.26 80.555 161.37 82.4811C160.127 83.0933 158.925 83.769 157.697 84.4043C156.549 84.9991 155.331 85.3486 154.007 85.3399C152.937 85.3312 151.946 85.0973 151.152 84.4072C149.955 83.3705 148.765 82.3222 147.653 81.2105C146.004 79.5616 144.429 77.8463 142.811 76.1657C142.601 75.9462 142.359 75.7556 141.974 75.412Z" fill="#3B4C3A"/>
<path d="M67.1192 87.6439C67.1707 86.4484 67.2707 85.2558 67.2616 84.0631C67.2495 82.8388 67.1768 81.6086 67.0525 80.39C66.9283 79.1714 66.7404 77.9557 66.5132 76.7486C66.2829 75.5473 65.998 74.346 65.6799 73.1621C65.3739 72.007 65.0193 70.8635 64.6375 69.7286C64.2436 68.562 63.8224 67.404 63.3649 66.2576C62.9074 65.1112 62.4377 63.9676 61.9044 62.8559C61.3711 61.7412 60.7954 60.6381 60.1591 59.5754C59.5318 58.5128 58.8016 57.5079 58.0592 56.3845C52.7687 59.1798 47.7145 62.2177 42.7573 65.4375C46.451 73.191 46.2601 81.1379 44.4602 89.1715C44.0512 90.9821 43.9087 91.1265 43.1209 91.8513C43.9875 88.8885 44.3814 86.0643 44.5451 83.2113C44.7117 80.3294 44.4814 77.4648 44.0724 74.6146C43.6663 71.7558 42.8573 69.0096 41.4271 66.3125C30.4127 73.2429 21.2225 81.8454 13.4443 91.9292C13.0776 91.4412 13.4534 91.2304 13.6231 91.0225C15.9653 88.1406 18.3045 85.2615 20.6831 82.4056C21.5073 81.4209 22.4285 80.5084 23.2981 79.5583C23.4799 79.3591 23.6375 79.1367 23.9314 78.77C21.6922 78.9202 19.7014 79.2869 17.7137 79.7518C18.153 79.131 18.8318 78.8595 19.5075 78.6891C20.9952 78.3166 22.5012 77.9903 24.0193 77.7449C24.8465 77.612 25.5101 77.3695 26.1161 76.7746C31.3793 71.6345 37.3183 67.2798 43.5572 63.2804C44.1693 62.8905 44.7723 62.492 45.5177 62.0069C42.6906 59.8151 39.8302 57.8428 36.6093 56.3788C33.3853 54.9147 30.1128 53.5806 26.4403 53.2138C26.6403 53.133 26.8463 52.9828 27.0463 52.9828C27.9978 52.9857 28.9735 52.9049 29.8946 53.0781C35.8154 54.2014 41.1059 56.5982 45.6722 60.3984C46.0025 60.6699 46.3358 60.9384 46.657 61.2041C50.4174 59.021 54.1141 56.8754 57.8986 54.6779C53.6929 48.761 49.3993 42.9394 42.6119 39.3356C42.6482 39.272 42.6876 39.2114 42.724 39.1479C43.0118 39.2345 43.333 39.2691 43.5875 39.4077C44.9844 40.1759 46.4328 40.8834 47.7418 41.7728C52.2112 44.8164 55.5836 48.8217 58.541 53.1792C58.741 53.468 58.944 53.7538 59.2076 54.135C60.156 53.7048 61.0681 53.2947 62.065 52.8442C58.0441 46.9389 55.7927 40.5888 55.8382 33.5804C55.8382 33.3378 55.9776 33.0981 56.1806 32.8613C56.5321 36.341 57.4259 39.685 58.4259 43.0058C59.447 46.3787 61.4469 49.275 63.2649 52.3187C64.4466 51.8624 65.492 51.4523 66.5465 51.0567C67.301 50.7766 68.0858 50.5658 68.813 50.2366C69.8735 49.7544 70.7674 49.8381 71.5613 50.7911C69.1039 51.7151 66.6616 52.6363 64.077 53.6095C64.3285 54.3141 64.4921 54.9522 64.7709 55.5471C66.7859 59.8556 69.3705 63.8464 72.3703 67.5888C74.3368 70.0405 76.2852 72.5123 78.7032 74.5857C79.6546 75.4029 80.7152 76.1046 81.7302 76.8583C81.9333 77.0085 82.1848 77.1182 82.3363 77.303C82.4393 77.433 82.412 77.6582 82.4453 77.843C82.2757 77.8633 82.0636 77.9557 81.9423 77.8921C81.306 77.5514 80.6637 77.202 80.0667 76.7977C77.2397 74.8658 74.7823 72.5614 72.5248 70.0462C69.0645 66.1941 66.1465 61.9982 63.8558 57.4154C63.3679 56.4394 62.9771 55.4229 62.4922 54.3141C61.6408 54.6952 60.7924 55.0764 59.9985 55.4316C59.8742 56.3008 60.1167 56.9419 60.5348 57.6003C63.8558 62.8559 65.9253 68.5562 67.0616 74.5771C67.6767 77.8286 68.107 81.0917 67.9555 84.401C67.9161 85.2413 67.8191 86.0788 67.71 86.9104C67.6737 87.1819 67.5161 87.4418 67.4161 87.7074C67.3192 87.6872 67.2192 87.6641 67.1192 87.6439Z" fill="#5C8A30"/>
<path d="M161.537 79.9189C160.686 80.2134 159.813 80.1383 158.946 79.968C155.986 79.3962 153.465 77.9928 151.195 76.1475C150.247 75.3736 149.368 74.5247 148.465 73.6988C146.617 72.0066 144.596 70.5627 142.117 69.8148C141.723 69.6964 141.257 69.6589 140.848 69.7253C139.321 69.9736 137.842 70.3952 136.5 71.1634C136.348 71.25 136.209 71.354 136.187 71.3655C136.599 73.3147 137.027 75.1513 137.372 77.0081C137.857 79.6186 138.687 82.1049 140.108 84.3948C140.199 84.545 140.281 84.7038 140.348 84.8655C140.369 84.9146 140.323 84.9897 140.269 85.1918C139.86 84.7616 139.466 84.4093 139.151 84.005C137.457 81.8334 136.278 79.4597 135.869 76.7482C135.636 75.1917 135.287 73.6497 134.966 71.9719C134.56 72.1567 134.188 72.278 133.866 72.483C132.706 73.2194 131.5 73.9096 130.43 74.7586C129.445 75.5411 128.318 75.7981 127.112 76.006C129.012 73.797 131.482 72.2694 134.081 70.7215C133.091 69.2719 132.703 67.7357 133.482 65.8558C133.703 66.777 133.8 67.5191 134.066 68.2006C134.333 68.8821 134.763 69.5029 135.136 70.1758C135.93 69.8206 136.678 69.5289 137.381 69.1535C137.675 68.9947 137.927 68.6944 138.099 68.4056C139.072 66.8087 140.387 65.4948 141.805 64.2647C142.087 64.0221 142.42 63.8373 142.823 63.7275C141.457 65.2494 140.02 66.6903 138.951 68.5818C144.805 67.6404 150.514 66.5661 156.331 67.4758C157.34 66.3409 158.504 65.4948 159.792 64.8075C160.107 64.6429 160.48 64.565 160.834 64.4841C160.986 64.4495 161.164 64.513 161.519 64.5534C160.195 65.5121 158.98 66.3265 157.874 67.5249C158.398 67.5855 158.749 67.6317 159.104 67.6664C161.04 67.8627 162.976 68.0649 164.916 68.2295C165.255 68.2583 165.655 68.1977 165.949 68.0475C167.531 67.2274 169.179 67.2159 170.876 67.5884C170.942 67.6028 171.006 67.6433 171.061 67.6837C171.085 67.7039 171.088 67.7501 171.112 67.8252C169.821 67.8021 168.615 68.0851 167.449 68.5962C170.288 69.2575 173.118 69.8437 176.027 69.9043C177.754 69.9419 179.481 69.9043 181.205 69.8495C183.105 69.7888 184.902 69.2748 186.629 68.5529C189.02 67.5537 191.402 66.5402 193.789 65.5381C194.25 65.3418 194.717 65.1627 195.204 65.0328C189.747 68.0591 184.235 70.941 177.69 71.3944C179.263 72.4166 181.021 73.0924 182.657 73.9702C184.32 74.8654 186.199 75.0906 188.005 75.5902C187.275 75.8068 186.56 75.7144 185.872 75.5844C182.578 74.952 179.393 74.0106 176.491 72.3358C176.427 72.3011 176.348 72.2809 176.3 72.2318C175.312 71.2153 173.96 71.2327 172.664 71.0276C170.091 70.6176 167.537 70.1122 164.964 69.6935C163.595 69.4712 162.207 69.3499 160.577 69.1506C160.864 69.5058 160.977 69.708 161.143 69.8379C162.567 70.9439 163.985 72.0586 165.44 73.1299C168.128 75.108 171.264 76.0811 174.533 76.7135C176.909 77.1727 179.278 77.7156 181.736 77.5798C181.933 77.5712 182.139 77.6665 182.508 77.7502C182.248 77.9552 182.114 78.1458 181.96 78.1718C181.021 78.3104 180.063 78.553 179.133 78.4952C176.191 78.3162 173.303 77.8109 170.479 76.9792C166.9 75.931 164.04 73.8085 161.27 71.5359C160.461 70.8717 159.707 70.1469 158.874 69.5145C158.522 69.2488 158.046 69.0265 157.61 68.986C154.571 68.7117 151.532 68.397 148.474 68.7146C147.199 68.8445 145.923 69.0034 144.523 69.1651C144.681 69.3326 144.744 69.451 144.847 69.4972C146.868 70.4212 148.477 71.8535 150.092 73.2974C151.374 74.4438 152.683 75.5844 154.095 76.5807C156.004 77.935 158.213 78.7176 160.528 79.2345C160.922 79.3211 161.292 79.5117 161.67 79.6561C161.625 79.7427 161.583 79.8322 161.537 79.9189Z" fill="#5C8A30"/>
<path d="M129.327 106.091C129.324 106.151 129.321 106.209 129.321 106.27C128.515 106.27 127.706 106.241 126.9 106.287C126.658 106.301 126.43 106.527 126.197 106.657C126.346 106.876 126.446 107.153 126.652 107.295C127.064 107.583 127.558 107.763 127.97 108.048C128.945 108.724 129.882 109.458 130.86 110.13C131.388 110.491 131.766 110.913 131.954 111.519C132.097 111.984 132.354 112.418 132.545 112.874C132.894 113.697 133.621 114.087 134.436 114.358C135.19 114.612 135.842 114.367 136.16 113.665C136.312 113.327 136.409 112.908 136.36 112.547C136.157 111.167 135.933 109.784 135.633 108.418C135.351 107.121 134.378 106.463 133.057 106.324C131.818 106.195 130.57 106.163 129.327 106.091ZM105.517 125.614C105.532 125.929 105.532 126.247 105.565 126.561C105.656 127.344 105.996 127.979 106.838 128.233C107.571 128.459 108.368 128.135 108.868 127.315C110.895 123.98 112.098 120.445 111.625 116.521C111.562 115.972 111.571 115.398 111.671 114.855C111.956 113.31 112.295 111.771 112.641 110.232C113.08 108.245 114.162 106.616 115.789 105.308C116.016 105.129 116.255 104.956 116.428 104.736C116.84 104.211 117.043 103.596 116.81 102.963C116.568 102.299 115.913 102.224 115.271 102.158C114.659 102.097 114.086 102.172 113.625 102.582C112.853 103.272 112.025 103.922 111.362 104.702C110.413 105.808 109.641 107.055 108.704 108.167C107.926 109.088 107.411 110.116 106.974 111.19C106.847 111.502 106.826 111.88 106.868 112.215C106.98 113.154 107.195 114.078 107.298 115.016C107.55 117.321 107.708 119.611 106.453 121.765C105.765 122.946 105.556 124.272 105.517 125.614ZM105.69 95.2299C105.217 95.2906 104.865 95.2906 104.541 95.383C102.299 96.0414 100.051 96.6853 97.8234 97.4015C96.7508 97.7422 95.6933 98.158 94.6903 98.6547C93.4207 99.2842 92.2087 100.021 90.9845 100.731C90.4846 101.023 90.0028 101.349 89.5573 101.71C86.6242 104.069 84.6395 107.055 83.2639 110.439C82.8639 111.424 82.8366 112.42 83.2305 113.414C83.785 114.835 85.2546 115.522 86.7788 115.1C87.609 114.872 88.2817 114.436 88.915 113.864C90.3482 112.571 91.1148 110.878 91.8784 109.235C93.0722 106.654 94.5176 104.237 96.2811 101.99C97.5931 100.321 99.087 98.8424 101.163 98.0137C102.281 97.569 103.384 97.0896 104.487 96.6131C105.017 96.3879 105.556 96.1482 105.69 95.2299ZM101.938 89.0878C101.866 88.8192 101.829 88.6604 101.778 88.5073C101.157 86.6939 101.541 85.0479 102.684 83.5347C106.335 78.6892 113.122 77.3117 118.437 79.8154C122.246 81.6086 125.161 84.3144 127.47 87.6439C129.485 90.549 130.973 93.7254 132.33 96.9423C133.224 99.0677 134.306 101.08 135.493 103.061C136.733 105.129 137.869 107.254 139.06 109.351C141.441 113.544 141.138 117.69 138.842 121.805C138.427 122.548 137.954 123.261 137.53 124C137.19 124.592 136.972 125.219 137.124 125.915C137.772 128.877 137.199 131.696 135.987 134.43C135.602 135.303 135.193 136.166 134.784 137.029C134.603 137.408 134.321 137.696 133.845 137.595C133.366 137.494 133.245 137.13 133.269 136.703C133.275 136.599 133.269 136.492 133.278 136.388C133.509 134.165 132.403 132.574 130.648 131.257C129.015 130.035 127.246 129.484 125.121 129.657C121.855 129.917 118.731 130.558 115.771 131.912C114.943 132.291 114.08 132.597 113.25 132.975C110.841 134.067 108.292 134.465 105.644 134.436C104.617 134.428 103.656 134.234 102.875 133.584C101.993 132.845 101.011 132.158 100.351 131.26C98.6234 128.906 96.2326 127.529 93.4874 126.556C91.1481 125.727 88.8119 124.875 86.4939 123.991C84.1274 123.085 81.9003 121.932 79.958 120.336C76.3704 117.384 74.5766 113.671 74.7221 109.131C74.8251 105.903 75.6159 102.807 76.8825 99.8416C78.2763 96.5727 80.5792 93.9507 83.6487 91.9899C86.5879 90.1129 89.8028 88.851 93.3328 88.4149C95.7296 88.1175 98.0991 88.4294 100.463 88.825C100.92 88.903 101.378 88.9896 101.938 89.0878Z" fill="#41763E"/>
<mask id="mask0_1134_335" style="mask-type:luminance" maskUnits="userSpaceOnUse" x="122" y="2" width="82" height="36">
<path d="M122.27 2.58105H204V37.1844H122.27V2.58105Z" fill="white"/>
</mask>
<g mask="url(#mask0_1134_335)">
<path d="M154.419 28.7842C154.334 28.5705 154.307 28.2587 154.128 28.0825C153.289 27.2393 152.368 26.4856 151.18 26.1131C150.077 25.7666 149.023 25.9023 148.186 26.6502C147.314 27.4299 147.068 28.5243 147.059 29.6217C147.056 30.2194 147.417 30.4273 148.035 30.2598C150.083 29.7054 152.134 29.1769 154.252 28.9142C154.283 28.9113 154.31 28.8737 154.419 28.7842ZM182.817 28.9171C180.508 28.9661 179.008 30.3869 179.029 32.5584C179.032 33.419 179.508 33.7626 180.375 33.5027C180.687 33.4103 180.984 33.263 181.275 33.1187C181.823 32.8414 182.341 32.5007 182.908 32.2668C184.187 31.7499 185.484 31.2792 186.771 30.7883C187.117 30.6554 187.495 30.5313 187.408 30.075C187.32 29.639 186.929 29.5581 186.556 29.5928C185.762 29.665 185.044 29.4455 184.311 29.2058C183.835 29.047 183.317 29.0066 182.817 28.9171ZM161.794 24.7357C162.022 24.7357 162.17 24.7674 162.303 24.7328C164.397 24.2101 166.53 23.7538 168.427 22.7172C170.163 21.77 172.048 21.1953 173.903 20.5312C175.512 19.9565 177.114 19.353 178.708 18.7321C179.108 18.5762 179.496 18.3336 179.805 18.0477C180.36 17.5453 180.196 17.0284 179.475 16.7829C179.029 16.6299 178.575 16.4913 178.169 16.2718C177.63 15.9773 177.136 15.6048 176.611 15.2871C174.263 13.8664 172.866 13.9703 170.763 15.7174C170.624 15.83 170.488 15.9513 170.363 16.0754C168.779 17.6983 166.945 19.0411 165.133 20.4157C164.164 21.152 163.285 22.0039 162.419 22.8558C161.943 23.3265 161.531 23.8896 161.794 24.7357ZM146.117 17.9611C146.347 17.6492 146.577 17.3345 146.804 17.0255C148.389 14.8655 150.38 13.1213 152.753 11.7843C155.174 10.4156 157.776 9.83801 160.582 10.2769C163.567 10.7448 166.564 10.9556 169.588 10.8834C173.148 10.7996 176.384 11.8883 179.451 13.5169C181.22 14.4583 183.017 15.3333 184.993 15.8213C185.417 15.9282 185.844 16.0379 186.277 16.1245C190.853 17.0457 194.78 19.1797 198.289 22.053C200.292 23.6961 201.84 25.7088 202.952 27.9872C203.879 29.8931 204.182 31.9318 203.894 34.0369C203.837 34.4441 203.752 34.8195 203.252 34.8917C202.758 34.9668 202.543 34.6318 202.343 34.2737C202.067 33.7799 201.807 33.2746 201.479 32.8126C199.622 30.2136 196.592 29.2578 193.54 30.4562C192.201 30.9818 190.953 31.7672 189.723 32.5209C188.798 33.084 187.95 33.7684 187.092 34.4297C183.772 36.9911 177.072 37.7476 173.109 35.3884C171.133 34.2131 168.985 33.4161 166.703 32.9079C164.585 32.4343 162.473 32.3852 160.37 32.8732C157.192 33.6125 154.034 34.4123 150.871 35.1891C148.907 35.6685 146.935 36.0555 144.899 36.1305C143.329 36.1912 141.853 35.8995 140.614 35.0303C138.614 33.6356 136.414 33.1273 133.984 33.1793C132.381 33.2168 130.845 32.8212 129.433 32.0791C126.754 30.6699 125.691 28.0536 126.624 25.2699C127.082 23.9011 127.821 22.7143 129.003 21.8018C129.169 21.6718 129.321 21.5245 129.472 21.3946C129.418 21.3022 129.397 21.2184 129.354 21.204C127.379 20.6207 125.867 19.4772 124.73 17.8225C123.376 15.8531 122.352 13.7797 122.403 11.3685C122.467 8.37684 124.058 6.17063 126.621 4.62282C129.603 2.82379 132.881 2.28379 136.357 2.9855C139.123 3.53994 141.89 4.09726 144.659 4.65459C147.411 5.20325 149.995 6.19373 152.507 7.3748C152.574 7.40657 152.637 7.44411 152.701 7.47876C153.028 7.65202 153.428 7.85416 153.289 8.24978C153.207 8.48946 152.871 8.69737 152.595 8.82443C151.807 9.19406 150.956 9.45684 150.195 9.864C147.471 11.3281 146.286 13.7624 145.717 16.5375C145.626 16.9822 145.795 17.476 145.847 17.9496C145.935 17.9525 146.029 17.9582 146.117 17.9611Z" fill="#41763E"/>
</g>
<mask id="mask1_1134_335" style="mask-type:luminance" maskUnits="userSpaceOnUse" x="0" y="102" width="71" height="34">
<path d="M0 102.978H70.2979V135.505H0V102.978Z" fill="white"/>
</mask>
<g mask="url(#mask1_1134_335)">
<path d="M31.7246 115.756C32.4973 115.435 33.1093 115.135 33.7547 114.919C34.6153 114.627 35.5031 114.41 36.3727 114.148C36.8606 114.003 37.3727 113.882 37.806 113.642C38.0363 113.518 38.2787 113.148 38.2514 112.915C38.0817 111.37 36.403 110.301 34.8274 110.659C33.9396 110.861 33.0336 110.991 32.1579 111.228C31.567 111.387 30.9671 111.609 30.455 111.921C29.2248 112.681 29.1854 114.139 30.361 114.991C30.8186 115.323 31.3579 115.557 31.7246 115.756ZM54.7169 120.789C54.6502 119.669 54.4351 118.603 53.8896 117.633C53.3261 116.628 52.3564 116.556 51.7383 117.483C51.3716 118.037 51.108 118.664 50.8959 119.291C50.5444 120.319 50.2566 121.37 49.9717 122.421C49.7384 123.284 49.3294 124.058 48.7143 124.725C47.5265 126.016 46.3175 127.287 45.1388 128.58C44.8297 128.921 44.5418 129.299 44.3388 129.701C43.9813 130.426 44.1055 130.882 44.7903 131.344C46.0842 132.219 47.8234 132.479 49.3839 131.309C52.9746 128.626 54.3684 124.939 54.7169 120.789ZM56.0865 115.17C58.7196 115.337 60.8497 116.53 62.7981 118.083C63.8041 118.889 64.9495 119.409 66.2251 119.689C66.7251 119.802 67.222 119.929 67.7129 120.082C69.2249 120.544 69.7552 121.136 69.8279 122.663C69.9339 124.717 69.4309 126.634 68.0613 128.274C66.5766 130.059 64.7707 131.465 62.586 132.415C60.1074 133.495 57.5015 133.966 54.7835 134.058C52.8837 134.125 50.9838 134.344 49.0839 134.512C47.1659 134.682 45.2509 134.647 43.3692 134.304C39.3695 133.573 35.4122 133.81 31.4246 134.431C29.2581 134.772 27.0401 134.916 24.8433 134.948C22.3253 134.988 20.0042 134.208 17.8953 132.88C16.5014 132.005 15.4773 130.85 14.9288 129.331C14.7167 128.736 14.5107 128.136 14.2955 127.541C13.2259 124.615 11.217 122.458 8.31719 121.101C6.48399 120.243 4.48717 120.206 2.48731 120.373C2.01159 120.414 1.53587 120.55 1.0662 120.518C0.796526 120.5 0.396555 120.281 0.323833 120.067C0.251111 119.857 0.493518 119.53 0.648052 119.276C0.708653 119.172 0.887429 119.126 1.02378 119.071C2.37217 118.517 3.69935 117.907 5.07803 117.428C7.30515 116.654 9.55953 116.778 11.7654 117.549C12.1684 117.691 12.4502 117.662 12.7775 117.445C14.6531 116.204 16.759 115.548 18.9801 115.103C19.8951 114.921 20.7951 114.537 21.6193 114.098C23.3585 113.174 24.8584 111.933 26.3704 110.697C28.0945 109.288 29.855 107.893 31.7367 106.68C36 103.934 40.7027 103.105 45.8205 103.729C50.1293 104.251 53.9442 105.802 57.5894 107.919C59.0317 108.756 59.7316 109.992 59.9862 111.508C60.1983 112.761 59.8347 113.405 58.6378 113.969C58.2105 114.168 57.7651 114.335 57.3227 114.506C56.9228 114.662 56.5137 114.794 56.1107 114.942C56.1016 115.017 56.0925 115.092 56.0865 115.17Z" fill="#41763E"/>
</g>
<path d="M131.381 158.511C131.881 159.178 132.484 159.331 133.169 159.138C133.993 158.909 134.747 159.071 135.52 159.348C136.202 159.594 136.908 159.781 137.614 159.966C138.023 160.073 138.426 160.033 138.705 159.675C139.011 159.279 139.084 158.84 138.841 158.395C138.396 157.581 137.653 157.174 136.717 157.11C136.175 157.073 135.608 157.047 135.075 157.142C133.799 157.376 132.448 157.468 131.381 158.511ZM121.185 154.295C120.624 154.52 119.939 154.621 119.521 154.994C118.324 156.062 117.228 157.232 116.103 158.378C115.3 159.195 114.934 160.218 114.649 161.277C114.497 161.843 114.546 162.383 114.828 162.903C115.176 163.55 115.47 163.691 116.249 163.616C117.288 163.518 117.915 162.92 118.243 162.04C118.585 161.121 118.815 160.163 119.164 159.244C119.673 157.902 120.161 156.527 121.751 155.921C122.176 155.762 122.306 155.372 122.188 154.953C122.057 154.497 121.667 154.41 121.185 154.295ZM103.78 161.179C103.883 161.63 103.962 162.337 104.216 162.984C104.528 163.784 105.565 163.954 106.201 163.336C106.522 163.019 106.765 162.606 106.971 162.201C107.198 161.765 107.334 161.289 107.519 160.83C108.54 158.294 110.183 156.261 112.764 154.994C113.019 154.869 113.282 154.708 113.455 154.497C114 153.839 113.694 153.134 112.828 153.096C112.364 153.073 111.87 153.148 111.425 153.284C108.968 154.023 107.049 155.565 105.359 157.318C104.425 158.286 103.813 159.533 103.78 161.179ZM112.785 148.514C113.164 147.757 113.473 147.084 113.828 146.437C114.467 145.265 115.476 144.488 116.767 144.023C118.355 143.457 119.985 143.29 121.642 143.642C122.751 143.876 123.851 144.176 124.936 144.508C126 144.838 126.942 145.392 127.709 146.172C129.169 147.656 130.923 148.71 132.857 149.539C135.087 150.498 137.059 151.809 138.874 153.385C141.338 155.525 142.601 158.144 142.532 161.298C142.498 162.866 142.235 164.428 142.038 165.993C141.774 168.089 141.698 170.171 142.159 172.262C142.938 175.776 142.156 179.008 140.08 181.979C139.999 182.095 139.932 182.271 139.823 182.306C139.532 182.398 139.183 182.525 138.932 182.438C138.75 182.381 138.671 182.002 138.581 181.757C138.55 181.673 138.614 181.552 138.656 181.457C139.883 178.436 137.738 175.283 134.838 174.295C132.299 173.426 129.702 173.117 127.027 173.544C125.691 173.758 124.348 173.983 123.006 174.197C121 174.515 119.058 174.335 117.179 173.55C114.185 172.3 111.14 171.156 108.201 169.799C106.056 168.811 103.947 167.697 102.004 166.391C96.826 162.912 95.3776 156.01 98.9197 150.867C102.301 145.958 108.61 145.874 112.037 148.095C112.246 148.234 112.47 148.34 112.785 148.514Z" fill="#41763E"/>
<path d="M102.792 124.635C102.771 124.511 102.716 124.378 102.737 124.26C103.28 121.401 103.773 118.536 104.392 115.695C105.064 112.602 105.925 109.553 107.246 106.65C108.576 103.737 110.434 101.126 112.609 98.7295C113.182 98.0971 113.891 97.5802 114.651 96.9103C113.873 96.3327 113.106 95.7638 112.358 95.2065C106.325 97.4387 101.922 101.438 98.3436 106.379C95.6135 110.147 93.3833 114.158 91.838 118.504C91.7562 118.724 91.6319 118.929 91.3713 119.091C91.6016 118.233 91.7804 117.361 92.0683 116.524C93.7166 111.767 95.8831 107.266 99.1677 103.304C101.731 100.214 104.789 97.6726 108.349 95.6888C109.197 95.2152 110.128 94.8802 111.149 94.4268C110.406 93.933 109.728 93.4826 108.958 92.9685C108.603 93.7367 107.955 93.754 107.276 93.7453C106.246 93.7251 105.219 93.7511 104.189 93.7309C101.071 93.6645 98.1436 94.3575 95.3559 95.6628C92.9682 96.7803 90.7229 98.0971 88.6049 99.6276C86.4262 101.201 84.7233 103.159 83.4113 105.423C82.3235 107.292 81.3296 109.206 80.2934 111.1C80.1146 111.427 79.9237 111.747 79.5449 112.001C79.5631 111.828 79.557 111.643 79.6086 111.476C80.4721 108.822 81.6478 106.298 83.1265 103.901C84.3961 101.851 86.0172 100.104 88.011 98.6746C90.5805 96.8381 93.3379 95.3076 96.2801 94.0774C98.3314 93.2198 100.48 92.8126 102.698 92.7C104.346 92.6134 106.001 92.5672 107.858 92.4921C107.222 91.8857 106.555 91.6344 105.946 91.3023C105.304 90.9587 104.655 90.6324 104.001 90.309C103.349 89.9827 102.695 89.6708 102.001 89.3329C101.88 88.8593 101.755 88.3713 101.568 87.6378C103.77 88.6803 105.782 89.6361 107.858 90.618C110.349 86.7138 114.073 84.2737 118.491 82.7057C118.951 82.5411 119.457 82.3505 120.118 82.749C119.712 82.928 119.415 83.0926 119.1 83.1937C115.327 84.3805 112.415 86.6589 110.07 89.6506C109.679 90.1501 109.361 90.7046 108.964 91.2966C110.297 92.1715 111.558 92.9945 112.791 93.8031C113.873 93.2487 114.903 92.7115 115.936 92.1946C117.988 91.1666 120.203 90.6728 122.481 90.436C123.851 90.2974 125.202 90.4418 126.496 90.9096C126.893 91.054 127.32 91.2042 127.232 91.8423C126.935 91.7586 126.711 91.6604 126.472 91.6287C125.533 91.4958 124.584 91.2388 123.648 91.2821C120.178 91.4467 117.088 92.7029 114.221 94.5106C114.167 94.5423 114.152 94.629 114.091 94.7387C114.621 95.1488 115.142 95.5935 115.715 95.966C115.954 96.119 116.321 96.1912 116.612 96.1595C118.312 95.966 119.99 96.0699 121.645 96.4655C124.784 97.2048 127.729 98.3454 130.262 100.312C130.693 100.641 131.093 101.005 131.468 101.386C131.623 101.539 131.674 101.779 131.856 102.151C130.275 101.161 128.953 100.153 127.472 99.4572C125.936 98.7353 124.266 98.2444 122.615 97.7881C120.996 97.3434 119.315 97.225 117.463 97.3838C117.703 97.6582 117.842 97.843 118.006 98.0076C119.512 99.4947 121.033 100.973 122.521 102.475C122.833 102.79 123.108 102.894 123.572 102.83C127.508 102.299 131.047 103.486 134.444 105.215C134.771 105.386 135.023 105.686 135.311 105.926C135.262 106.004 135.217 106.082 135.171 106.157C134.753 105.986 134.341 105.801 133.914 105.654C132.465 105.155 131.026 104.615 129.556 104.193C128.063 103.76 126.505 103.76 124.96 103.884C124.645 103.91 124.336 103.994 123.924 104.069C124.136 104.404 124.26 104.652 124.436 104.869C126.36 107.237 127.796 109.885 129.202 112.547C129.502 113.113 129.881 113.497 130.456 113.8C132.971 115.123 135.065 116.916 136.753 119.134C136.904 119.33 137.035 119.544 137.159 119.755C137.186 119.801 137.141 119.882 137.12 120.006C136.574 120.104 136.41 119.636 136.123 119.371C135.044 118.375 134.008 117.326 132.877 116.385C132.199 115.822 131.378 115.42 130.62 114.947C130.547 115.002 130.472 115.057 130.399 115.111C130.608 115.614 130.802 116.122 131.026 116.616C132.568 120.006 133.674 123.529 134.435 127.142C134.756 128.681 134.835 130.266 134.989 131.834C135.023 132.152 134.917 132.484 134.759 132.816C134.111 125.701 131.402 119.235 128.157 112.718C127.269 114.349 126.711 115.862 126.463 117.456C125.987 120.503 125.345 123.538 125.723 126.651C125.769 127.032 125.648 127.43 125.399 127.817C125.342 127.696 125.242 127.578 125.233 127.453C124.917 123.925 124.666 120.393 125.214 116.861C125.511 114.95 126.384 113.263 127.484 111.583C126.229 109.333 124.939 107.066 123.014 105.03C122.675 105.406 122.315 105.703 122.081 106.073C121.457 107.063 120.872 108.074 120.312 109.096C119.712 110.182 119.203 111.308 118.578 112.38C117.479 114.271 116.863 116.321 116.309 118.395C115.873 120.026 115.476 121.664 115.042 123.292C114.421 125.626 114.245 127.991 114.409 130.384C114.424 130.63 114.439 130.873 114.436 131.118C114.436 131.173 114.361 131.228 114.27 131.343C113.915 131.21 113.894 130.896 113.848 130.61C113.53 128.591 113.379 126.558 113.685 124.534C114.209 121.028 115.045 117.583 116.245 114.225C116.312 114.023 116.382 113.821 116.476 113.633C117.718 111.21 118.927 108.773 120.23 106.379C120.7 105.521 121.402 104.779 122.093 103.855C120.163 101.718 117.894 99.8008 115.73 97.7564C114.394 98.5331 113.379 99.5265 112.476 100.641C109.818 103.924 107.803 107.528 106.607 111.516C105.779 114.274 105.079 117.066 104.346 119.85C104.01 121.144 103.734 122.449 103.413 123.746C103.334 124.069 103.189 124.375 103.074 124.693C102.98 124.673 102.886 124.655 102.792 124.635Z" fill="#719D45"/>
<path d="M169.861 27.5854C166.461 27.9059 162.98 28.0994 159.392 27.5825C159.856 29.2025 161.062 30.271 161.719 31.6859C161.555 31.5993 161.346 31.5473 161.234 31.4174C160.25 30.2883 159.231 29.1823 158.331 27.9926C157.938 27.4786 157.513 27.1956 156.895 26.9703C154.735 26.1849 152.58 25.3734 150.474 24.4696C146.981 22.968 143.43 21.6425 139.669 20.8859C139.03 20.7589 138.384 20.678 137.536 20.5423C137.727 21.1574 137.821 21.6252 138.015 22.0555C139.736 25.8499 142.196 29.1217 145.663 31.6542C146.481 32.2519 147.335 32.8006 148.156 33.3955C148.45 33.6063 148.69 33.8893 149.09 34.2704C147.399 34.1145 142.714 31.0189 140.769 28.8589C138.597 26.4419 136.775 23.8314 136.085 20.5856C135.154 20.3517 134.236 20.3228 133.221 20.5914C134.624 22.9016 135.766 25.2435 136.394 27.7847C136.494 28.1918 136.53 28.6134 136.572 29.0293C136.588 29.1852 136.539 29.3469 136.518 29.5057C136.445 29.5231 136.369 29.5433 136.297 29.5635C136.112 29.1736 135.915 28.7896 135.745 28.394C134.906 26.4534 134.206 24.4494 133.209 22.5839C131.821 19.9879 132.094 20.4846 129.609 20.9379C128.661 21.1083 127.985 20.704 127.194 20.2044C128.485 19.4825 129.912 19.4652 131.261 19.0667C132.17 14.5157 130.109 10.8916 127.24 7.4668C128.119 7.4668 129.118 8.37354 130.394 10.4931C131.173 11.7897 131.821 13.1758 132.373 14.5792C132.915 15.9624 132.894 17.4554 132.742 19.0263C139.593 18.5816 145.69 20.7618 151.793 23.4069C152.811 21.6339 154.15 20.1467 155.689 18.8443C157.229 17.5449 158.841 16.3263 160.471 15.1308C162.101 13.9381 163.861 12.9679 165.904 12.5809C165.955 12.6531 166.007 12.7195 166.061 12.7917C165.864 12.9361 165.685 13.1007 165.476 13.2249C161.728 15.4195 158.301 17.9982 155.371 21.1401C154.574 21.9948 153.883 22.942 153.077 23.9296C153.508 24.1404 153.783 24.2905 154.068 24.4176C157.932 26.13 162.013 26.6354 166.222 26.3783C167.579 26.2946 168.934 26.1502 170.291 26.0694C170.8 26.0405 171.167 25.8615 171.537 25.5236C176.036 21.4115 181.542 19.3757 187.611 18.5382C188.16 18.4603 188.735 18.5296 189.311 18.6335C187.993 19.2428 186.502 19.1909 185.166 19.6702C183.793 20.1611 182.43 20.6838 181.09 21.2556C179.781 21.8129 178.494 22.4193 177.224 23.0517C175.927 23.6986 174.718 24.4782 173.461 25.642C174.249 25.512 174.776 25.4225 175.3 25.3388C179.397 24.6977 183.49 24.0537 187.584 23.404C187.905 23.352 188.241 23.2827 188.52 23.1383C190.272 22.2316 192.178 21.888 194.132 21.7667C194.574 21.7378 195.099 21.6165 195.514 22.2518C194.783 22.402 194.123 22.5059 193.48 22.6734C192.817 22.8496 192.171 23.0835 191.511 23.482C191.911 23.5542 192.314 23.6293 192.717 23.7043C195.353 24.1866 197.65 25.2868 199.501 27.1638C199.774 27.4381 200.21 27.6836 200.028 28.3564C199.695 28.1514 199.425 28.0128 199.192 27.8337C195.756 25.1684 191.787 24.1866 187.438 24.5735C185.948 24.7064 184.484 25.1251 183.005 25.3908C179.357 26.0434 175.709 26.6816 172.061 27.3255C171.918 27.3515 171.779 27.3977 171.476 27.4786C171.764 27.9608 171.985 28.4228 172.285 28.8271C173.888 30.9727 175.697 32.9536 177.776 34.7036C178.036 34.9231 178.275 35.1685 178.715 35.5815C178.224 35.6219 177.994 35.6825 177.785 35.645C177.576 35.6074 177.379 35.4833 177.197 35.3678C174.118 33.4561 171.594 31.068 170.082 27.8164C170.052 27.7558 169.985 27.7125 169.861 27.5854Z" fill="#719D45"/>
<path d="M40.5033 113.445C39.6276 113.723 38.9035 113.939 38.1914 114.182C36.0824 114.904 33.9765 115.637 31.8676 116.365C30.8889 116.703 30.0465 117.11 29.6041 118.158C29.289 118.917 28.689 119.602 28.0951 120.214C26.268 122.094 24.2863 123.821 22.0986 125.32C20.5321 126.4 18.8079 127.165 16.905 127.531C16.5748 127.595 16.2354 127.589 15.8991 127.615C15.8839 127.546 15.8688 127.474 15.8566 127.399C17.0596 126.87 18.311 126.42 19.4533 125.79C20.6593 125.129 21.8077 124.352 22.9046 123.529C23.9712 122.729 24.962 121.834 25.9438 120.939C26.9195 120.049 27.7982 119.076 28.4194 117.702C27.177 117.965 26.1104 118.178 25.0469 118.421C22.9773 118.894 20.9078 119.38 18.8413 119.865C16.599 120.39 14.3689 120.318 12.2205 119.535C10.4116 118.874 8.66624 118.063 6.68457 117.231C7.64208 116.778 8.39051 116.87 9.10258 117.052C9.84192 117.245 10.5691 117.511 11.2691 117.82C14.1113 119.082 16.9747 119.148 19.9624 118.259C22.1319 117.615 24.3772 117.194 26.5862 116.671C26.9649 116.584 27.3407 116.483 27.8891 116.347C26.6043 115.458 25.3105 115.077 23.9015 114.941C23.853 114.381 24.2227 114.323 24.5893 114.338C26.2407 114.41 27.78 114.782 29.1223 115.975C29.5253 115.816 29.9799 115.533 30.4616 115.478C30.9343 115.429 31.4313 115.617 31.9979 115.712C32.9615 115.019 34.2189 114.733 35.4401 114.378C36.037 114.202 36.6551 114.095 37.246 113.902C38.2187 113.584 38.3035 113.437 38.258 112.394C39.1792 112.126 40.1215 111.854 41.2306 111.531C39.4064 109.893 37.1975 109.073 35.0613 108.155C35.2158 107.696 35.5491 107.806 35.8037 107.863C38.1671 108.392 40.3367 109.299 42.1032 110.933C42.379 111.187 42.5941 111.398 43.0304 111.349C45.3454 111.098 47.6574 111.23 49.9633 111.513C50.0269 111.525 50.1026 111.493 50.3269 111.453C48.9997 108.888 47.0059 106.913 44.6727 105.048C46.8786 105.181 50.5026 108.799 51.5147 111.635C53.5509 112.437 55.5174 113.208 57.4809 113.985C57.5718 114.023 57.6475 114.109 57.8566 114.277C57.2233 114.517 56.6749 114.722 56.1567 114.921C57.9687 117.451 58.9626 120.237 58.9353 123.313C58.9262 124.644 58.8111 125.975 58.6808 127.298C58.5111 129.027 57.7142 130.517 56.581 131.849C56.3901 132.077 56.1174 132.238 55.6992 132.325C55.7204 132.155 55.675 131.932 55.7719 131.814C57.2324 130.009 57.69 127.933 57.7566 125.704C57.8294 123.11 57.6354 120.561 56.4173 118.216C55.6719 116.781 54.6993 115.452 53.8145 114.086C53.7266 113.951 53.5388 113.844 53.3751 113.792C52.5055 113.532 51.6298 113.292 50.6541 113.018C50.5632 113.5 50.4965 113.867 50.4208 114.228C49.8814 116.833 48.8603 119.267 47.4968 121.568C46.8483 122.666 46.1029 123.711 45.403 124.782C43.9031 127.078 41.7366 128.684 39.364 130.064C38.4974 130.569 38.2944 130.587 37.3551 130.419C38.1247 129.726 39.0428 129.429 39.7488 128.866C40.4518 128.3 41.2003 127.783 41.8487 127.165C42.5214 126.521 43.1274 125.813 43.694 125.083C44.2425 124.381 44.7151 123.624 45.1909 122.877C45.6848 122.097 46.1726 121.308 46.6059 120.5C47.021 119.72 47.3998 118.917 47.7361 118.103C48.0816 117.257 48.3967 116.394 48.6482 115.516C48.8845 114.681 49.027 113.824 49.236 112.853C46.8059 112.461 44.5394 112.377 42.3153 112.882C40.1882 118.669 36.4854 123.281 31.5403 127.009C29.8526 128.279 27.9194 129.154 25.9044 129.845C25.3347 130.041 24.7196 130.116 24.0591 130.257C24.0833 129.628 24.5378 129.657 24.8348 129.524C25.9983 129.004 27.1891 128.539 28.3315 127.982C30.292 127.023 31.8282 125.545 33.319 124.04C36.04 121.303 38.4398 118.346 40.0003 114.84C40.1276 114.548 40.2518 114.257 40.373 113.962C40.4124 113.867 40.4245 113.76 40.5033 113.445Z" fill="#719D45"/>
<path d="M134.578 162.568C138.402 162.794 140.26 163.264 141.311 164.37C140.202 164.122 139.284 163.827 138.342 163.723C137.408 163.619 136.451 163.7 135.36 163.7C135.539 164.07 135.675 164.376 135.836 164.671C137.572 167.859 139.011 171.142 139.605 174.717C139.772 175.728 139.781 176.1 139.517 177.001C139.372 176.773 139.229 176.637 139.193 176.475C139.042 175.791 138.932 175.095 138.781 174.414C137.969 170.761 136.23 167.486 134.278 164.301C134.224 164.211 134.133 164.148 133.948 163.963C132.9 166.576 131.857 169.106 131.339 171.812C131.239 171.8 131.142 171.792 131.045 171.777C131.03 171.497 130.985 171.217 131.006 170.94C131.2 168.332 131.878 165.823 132.824 163.385C133.09 162.695 132.99 162.207 132.569 161.653C131.339 160.03 129.988 158.505 128.37 157.217C128.173 157.061 127.964 156.929 127.754 156.778C126.961 157.061 126.4 157.584 126.042 158.231C125.433 159.346 124.821 160.478 124.397 161.662C123.509 164.119 122.985 166.669 122.743 169.259C122.655 170.183 122.731 171.116 122.731 172.173C121.812 171.018 121.819 168.58 122.658 163.553C123.146 160.634 124.127 157.925 126.436 155.745C124.921 154.379 123.212 153.443 121.506 152.536C113.755 154.875 110.547 160.408 109.683 167.867C109.444 167.466 109.28 167.298 109.229 167.102C108.895 165.814 109.016 164.529 109.332 163.25C110.662 157.91 113.901 154.09 119.222 151.91C119.349 151.861 119.458 151.78 119.713 151.641C118.894 151.191 118.176 150.789 117.452 150.399C117.364 150.353 117.234 150.336 117.134 150.35C114.931 150.714 112.704 150.974 110.538 151.479C108.138 152.043 106.095 153.342 104.347 154.985C103.574 155.707 103.029 156.654 102.399 157.509C102.199 157.783 102.062 158.095 101.899 158.39C101.817 158.37 101.735 158.349 101.653 158.326C101.72 157.983 101.741 157.625 101.856 157.292C102.381 155.779 103.493 154.665 104.662 153.582C107.28 151.173 110.444 149.923 114.016 149.499C114.268 149.467 114.519 149.412 114.768 149.363C114.792 149.357 114.81 149.308 114.913 149.166C114.289 148.895 113.683 148.632 112.956 148.317C113.104 147.945 113.237 147.604 113.413 147.159C114.392 147.544 115.292 147.899 116.249 148.274C116.728 147.593 117.149 146.862 117.701 146.23C118.249 145.6 118.894 145.017 120.025 145.025C119.446 145.701 118.916 146.23 118.501 146.83C118.082 147.44 117.773 148.115 117.367 148.857C118.343 149.4 119.249 149.9 120.231 150.446C122.088 148.185 124.64 147.829 127.385 148.081C127.827 148.121 128.409 148.066 128.782 148.814C125.842 148.294 123.397 148.8 121.516 151.041C123.491 152.291 125.4 153.504 127.421 154.783C129.724 153.498 132.269 153.449 134.872 154.191C136.181 154.564 137.596 154.728 138.584 155.762C138.551 155.828 138.523 155.901 138.49 155.967C137.905 155.713 137.333 155.413 136.724 155.216C136.03 154.988 135.315 154.809 134.59 154.696C133.909 154.587 133.203 154.532 132.509 154.552C131.781 154.575 131.042 154.656 130.333 154.821C129.673 154.971 129.045 155.262 128.203 155.563C130.803 157.7 132.972 159.943 134.578 162.568Z" fill="#719D45"/>
<path d="M63.4594 127.725C64.4442 123.68 64.0624 119.952 60.8232 116.821C61.0202 116.911 61.2414 116.977 61.4171 117.099C61.9535 117.462 62.4474 117.901 63.014 118.219C63.8836 118.713 64.2442 119.449 64.4351 120.35C64.9502 122.784 64.6139 125.152 63.9109 127.5C63.8867 127.584 63.7776 127.644 63.7049 127.717C63.623 127.719 63.5412 127.722 63.4594 127.725Z" fill="#719D45"/>
<path d="M117.828 32.1511C120.013 32.4052 122.198 32.6911 124.385 32.8932C125.479 32.9943 126.594 33.0145 127.688 32.9337C128.285 32.8904 128.906 32.6449 129.434 32.3532C131.006 31.4754 131.379 29.7254 130.349 28.3018C130.182 28.0708 130.021 27.834 129.821 27.6261C129.188 26.959 128.434 26.4854 127.452 26.445C126.052 26.3901 124.67 26.4739 123.295 26.7858C119.316 27.6867 115.95 29.7485 112.589 31.8277C112.271 32.0269 111.977 32.2868 112.183 32.694C112.402 33.1127 112.808 33.0088 113.15 32.8817C114.659 32.3273 116.229 32.2406 117.828 32.1511ZM96.3875 56.7976C96.4209 57.5224 96.2512 58.3079 97.0178 58.5562C98.1177 58.9057 99.3025 59.2204 100.448 58.7324C101.687 58.2039 102.66 57.4069 103.19 56.1421C103.945 54.3575 104.763 52.596 105.605 50.8519C106.538 48.9258 107.89 47.3491 109.999 46.477C110.302 46.3499 110.593 46.194 110.865 46.0178C111.105 45.8619 111.35 45.6886 111.526 45.4721C111.908 45.0014 111.729 44.5769 111.123 44.4816C110.914 44.4498 110.68 44.4614 110.468 44.5105C109.29 44.7646 108.126 45.0678 106.944 45.2988C105.126 45.654 103.66 46.6762 102.123 47.5541C98.4268 49.665 97.0087 53.0638 96.3875 56.7976ZM99.8539 24.0598C100.196 23.7132 100.366 23.5833 100.475 23.4187C100.99 22.6506 101.481 21.8709 101.999 21.1028C102.848 19.8553 103.902 18.7782 105.223 17.9812C106.872 16.9907 108.541 16.0348 110.232 15.1108C111.953 14.1694 113.707 13.2944 115.441 12.3704C116.395 11.865 116.828 11.0218 116.856 10.0255C116.898 8.42864 115.71 6.9588 114.12 6.45634C112.598 5.97699 111.296 6.46212 110.068 7.25046C108.508 8.25249 107.181 9.51153 105.857 10.7879C102.929 13.6063 101.033 16.9416 100.133 20.7967C99.9479 21.5792 99.7964 22.3734 99.6721 23.1675C99.6358 23.3783 99.757 23.6064 99.8539 24.0598ZM97.9268 30.9469C98.0268 29.8467 97.3632 29.4193 96.6966 29.0584C93.5271 27.3315 90.2062 25.9541 86.567 25.4257C85.561 25.2755 84.5187 25.2322 83.5036 25.2928C81.5613 25.4054 79.6281 25.7173 77.6889 25.7751C75.5799 25.8386 73.8013 26.8002 71.9984 27.5828C70.6985 28.1488 69.5834 29.171 68.5077 30.1153C67.3533 31.126 66.6018 32.4168 66.2746 33.9039C66.0715 34.828 66.3079 35.6221 67.0018 36.3094C68.8077 38.1055 70.956 38.4636 73.3528 37.6637C74.1103 37.4096 74.8406 37.0689 75.5618 36.7223C77.8677 35.6192 79.9463 34.1812 82.0492 32.772C83.44 31.8363 84.9368 31.074 86.6064 30.7332C89.2093 30.2019 91.8394 30.1095 94.4816 30.5571C95.5906 30.7448 96.7208 30.8141 97.9268 30.9469ZM91.2576 19.9332C90.9091 18.7233 90.5334 17.522 90.2243 16.3034C89.2153 12.3242 89.9425 8.59324 92.0272 5.05292C93.821 2.00062 96.7269 0.588537 100.202 0.164044C105.65 -0.497239 110.556 0.845542 114.859 4.10576C115.835 4.8479 116.759 5.65356 117.659 6.48233C118.677 7.42372 119.816 8.16009 121.116 8.69431C122.77 9.37292 124.401 10.1006 126.067 10.759C129.852 12.2577 132.521 14.8422 134.258 18.3363C134.685 19.1911 135.051 20.069 135.445 20.9411C135.624 21.3396 135.751 21.7756 135.348 22.1048C134.897 22.4744 134.479 22.229 134.051 21.9633C132.7 21.1201 131.352 20.2682 129.964 19.4799C127.958 18.345 125.767 17.8194 123.434 17.8223C122.958 17.8223 122.48 17.8368 122.001 17.8166C118.895 17.6751 116.135 18.5962 113.614 20.2596C112.862 20.7534 112.135 21.2818 111.474 21.9517C111.617 21.9142 111.768 21.8969 111.902 21.8391C116.244 19.8726 120.807 19.5607 125.485 20.2134C127.013 20.427 128.534 20.6869 130.043 20.9959C134.567 21.92 137.409 25.5787 137.772 29.2894C138.115 32.8268 138.006 36.2747 136.824 39.6736C136.157 41.6026 135.694 43.5893 135.097 45.5385C134.47 47.6003 133.527 49.5408 132.436 51.415C132.046 52.0878 131.673 52.7722 131.294 53.4537C129.894 55.9573 129.728 58.6053 130.309 61.3256C130.715 63.2141 131.246 65.0767 131.63 66.9681C132 68.7931 131.867 70.598 131.04 72.319C130.934 72.5414 130.837 72.7695 130.694 72.9745C130.237 73.6531 129.6 73.6416 129.131 72.9601C129.028 72.8157 128.949 72.654 128.879 72.4923C128.24 71.0138 127.203 69.8038 126.137 68.5795C124.373 66.5523 122.052 65.6773 119.422 65.3539C115.61 64.8832 111.871 65.4174 108.141 66.0931C105.035 66.6562 101.951 67.3868 98.8176 67.7247C94.8028 68.1579 90.7576 68.3918 86.7155 68.4784C82.4491 68.5737 80.0917 65.6773 80.9462 61.6779C81.3886 59.6189 82.431 57.7823 83.6369 56.0642C86.8549 51.49 90.6031 47.3808 95.53 44.369C95.6785 44.2794 95.8209 44.1697 96.1118 43.9647C95.833 43.9445 95.7118 43.9069 95.6058 43.93C93.1726 44.4874 90.7364 45.0476 88.4608 46.064C82.943 48.5301 78.9524 52.3361 77.1404 58.0018C76.5284 59.9077 76.389 61.8511 76.7223 63.8234C76.7738 64.1324 76.8344 64.45 76.8192 64.7619C76.792 65.3539 76.3708 65.6369 75.7648 65.5012C75.5527 65.455 75.3497 65.3597 75.1466 65.2788C72.1953 64.0169 69.241 62.7694 66.2988 61.4873C64.8444 60.852 63.6263 59.8759 62.4748 58.8421C61.0022 57.5109 59.7417 56.0006 58.6872 54.3431C57.3358 52.2206 56.9267 49.8758 57.2691 47.4617C57.56 45.4172 57.963 43.3698 58.5539 41.3918C59.6387 37.7735 60.2871 34.0859 60.8962 30.3781C61.2628 28.169 61.8264 25.9888 62.3415 23.8028C62.7263 22.1625 63.7232 20.9006 65.0777 19.838C67.1775 18.192 69.5107 16.9878 72.0802 16.1446C73.9861 15.5151 75.8648 14.8047 77.7252 14.0481C79.21 13.4475 80.6674 13.5428 82.1431 13.973C84.9459 14.7931 87.2942 16.3323 89.3608 18.2815C89.9547 18.8388 90.5092 19.4423 91.0849 20.0257C91.1394 19.9939 91.197 19.965 91.2576 19.9332Z" fill="#6F9D43"/>
<path d="M91.588 130.234C92.097 130.535 92.3425 130.769 92.6334 130.832C94.0454 131.144 95.2999 131.8 96.5816 132.403C96.9664 132.585 97.4179 132.701 97.8451 132.718C98.7754 132.75 99.3511 131.869 98.8541 131.124C98.2299 130.197 97.3815 129.406 96.2119 129.204C95.0514 128.999 93.8636 129.102 92.7515 129.556C92.4304 129.686 92.1486 129.902 91.588 130.234ZM79.801 129.033C80.204 128.109 80.5646 127.188 81.0009 126.304C83.0644 122.111 86.758 120.208 91.388 119.683C92.6364 119.541 93.7606 119.876 94.7453 120.711C95.3665 121.236 96.1362 121.609 96.8634 122.019C97.7118 122.501 98.5936 122.94 99.448 123.419C101.254 124.43 102.414 125.923 102.89 127.855C103.593 130.694 103.923 133.584 103.723 136.504C103.66 137.511 103.402 138.508 103.202 139.507C102.972 140.65 102.314 141.563 101.415 142.334C99.6208 143.87 97.6088 145.074 95.3847 145.964C93.6182 146.665 91.8971 147.442 90.4396 148.672C88.2488 150.523 86.9308 152.782 86.755 155.6C86.755 155.669 86.749 155.742 86.749 155.808C86.7459 156.267 86.6156 156.683 86.0823 156.755C85.4854 156.836 85.2491 156.426 85.1097 155.952C84.9158 155.277 84.7127 154.604 84.5249 153.928C84.1794 152.686 83.5643 151.589 82.6977 150.607C82.0493 149.868 81.2584 149.55 80.2676 149.646C79.7192 149.703 79.1737 149.773 78.6253 149.813C77.9647 149.862 77.3042 149.908 76.6467 149.914C75.5195 149.923 74.5407 149.545 73.8256 148.707C72.7712 147.477 71.4289 146.657 69.929 146.03C69.0533 145.666 68.1958 145.256 67.2988 144.947C64.6869 144.046 62.7749 142.392 61.4235 140.11C60.0751 137.835 59.3752 135.389 59.4297 132.776C59.5085 129.051 62.1356 126.016 66.0838 125.132C69.0169 124.476 71.9288 124.644 74.771 125.603C76.1406 126.065 77.3315 126.818 78.3768 127.783C78.8223 128.19 79.2889 128.586 79.801 129.033Z" fill="#6F9D43"/>
<path d="M79.8912 22.922C77.2187 23.2137 74.6067 23.7941 72.016 24.4641C69.5919 25.0878 67.4679 26.2342 65.5316 27.73C65.168 28.0102 64.7893 28.2729 64.3711 28.5761C64.0408 27.9582 64.4984 27.6954 64.768 27.4384C66.3164 25.9714 68.0224 24.698 70.0555 23.8894C72.6129 22.87 75.2976 22.2723 78.0216 21.8362C79.2882 21.6312 80.3821 21.4002 81.6608 21.2587L84.4363 21.0681C87.4634 21.4349 90.5207 21.8016 93.569 22.1712C92.7721 21.2934 91.9085 20.4473 91.1904 19.503C90.8692 19.0843 90.8419 18.4605 90.6813 17.9321C90.748 17.8859 90.8177 17.8397 90.8813 17.7935C92.0055 18.758 93.1327 19.7225 94.3477 20.762C94.5447 19.9564 94.6992 19.2806 94.8689 18.6107C95.5385 15.928 96.5809 13.3897 98.1808 11.0882C100.25 8.10812 103.038 5.97411 106.571 4.70352C108.147 4.13753 109.725 4.11154 111.343 4.3801C111.486 4.4032 111.659 4.42053 111.756 4.50427C111.907 4.63133 112.104 4.81903 112.095 4.9663C112.08 5.11069 111.84 5.32149 111.677 5.34459C111.243 5.40523 110.795 5.41101 110.359 5.37635C109.077 5.2724 107.883 5.51496 106.713 6.00299C103.583 7.314 101.123 9.36138 99.3413 12.122C97.4808 14.9953 96.4142 18.1458 95.9476 21.4926C95.884 21.9691 95.9264 22.3474 96.3324 22.7141C99.6655 25.7318 102.908 28.8389 106.007 32.076C106.098 32.1742 106.223 32.2435 106.377 32.3561C106.529 32.2002 106.656 32.0847 106.762 31.949C108.735 29.4511 111.162 27.4297 113.971 25.8415C118.394 23.3407 123.212 22.5293 128.297 22.9682C129.209 23.0462 130.127 23.1415 131.027 23.3061C131.518 23.3985 131.993 23.6237 132.442 23.849C132.575 23.9212 132.684 24.2388 132.63 24.3803C132.572 24.5189 132.3 24.6287 132.112 24.6546C131.903 24.6835 131.678 24.594 131.46 24.5738C128.379 24.2792 125.294 24.054 122.221 24.5536C116.27 25.5152 111.631 28.5328 107.932 32.9799C107.774 33.1647 107.65 33.3784 107.498 33.5979C109.259 35.6106 110.995 37.5887 112.719 39.561C116.479 37.4789 120.57 36.7743 124.891 37.3894C127.206 37.7215 129.385 38.4925 131.236 39.9104C131.854 40.3868 132.363 41.0019 132.881 41.5881C133.151 41.8971 133.109 41.9318 133.003 42.6017C132.863 42.5439 132.696 42.5266 132.63 42.4371C130.991 40.3955 128.663 39.4888 126.167 38.8823C123.237 38.1749 120.319 38.4145 117.452 39.1856C116.255 39.509 115.122 40.023 113.961 40.4648C113.804 40.5254 113.683 40.6727 113.513 40.8056C115.21 43.5344 116.892 46.2373 118.567 48.9315C119.646 48.9315 120.67 48.9171 121.697 48.9344C124.394 48.9777 126.93 49.6246 129.297 50.8461C129.694 51.054 130.045 51.3457 130.36 51.7239C126.833 50.566 123.273 49.9162 119.422 50.2859C119.625 50.6988 119.749 51.0165 119.928 51.3081C122.643 55.735 124.824 60.4102 127.051 65.0622C127.297 65.5791 127.715 66.0787 127.515 66.8613C127.354 66.6274 127.248 66.5003 127.17 66.3588C124.391 61.2245 121.8 55.992 118.491 51.1291C117.885 50.2426 117.416 50.0837 116.67 50.7797C114.058 53.2082 112.077 55.9775 111.792 59.5785C111.749 60.0983 111.834 60.6267 111.849 61.1494C111.865 61.4844 111.853 61.8136 111.853 62.1601C111.08 62.241 110.892 61.7731 110.828 61.3429C110.704 60.5141 110.568 59.6622 110.656 58.8421C110.759 57.8748 110.995 56.8958 111.35 55.9862C112.128 54.0023 113.301 52.212 114.783 50.6353C115.41 49.9625 116.186 49.4167 116.958 48.7583C116.001 47.2625 115.025 45.7031 114.016 44.1639C111.786 40.7738 109.331 37.5424 106.48 34.5912C106.132 34.2303 105.792 34.0685 105.265 34.031C97.1809 33.4217 89.7753 35.5586 82.6728 38.9979L80.9305 39.9566C79.8003 40.6843 78.7761 41.2734 77.8307 41.9635C76.8369 42.6854 75.8854 43.4651 74.9794 44.2823C74.1007 45.0765 73.2796 45.9312 72.4857 46.8062C71.6645 47.7043 70.9009 48.6485 70.1374 49.5899C69.4132 50.488 68.8435 51.5045 68.0496 52.3997C67.5921 51.9983 67.8284 51.7268 67.9618 51.4641C70.1313 47.1874 73.1796 43.598 77.2126 40.794C78.2216 40.0923 79.2518 39.4079 80.3336 38.8188L81.882 37.837C82.3334 37.6291 82.6758 37.4818 83.0122 37.3143C87.3179 35.1919 91.8085 33.5545 96.6233 32.9048C98.9444 32.5958 101.308 32.5756 103.653 32.4226C103.82 32.4139 103.986 32.4226 104.362 32.4226C103.665 31.7006 103.123 31.0971 102.538 30.5369C100.678 28.7465 98.8232 26.9417 96.9021 25.212C96.487 24.8366 95.7991 24.7211 95.2295 24.5131C95.0659 24.4525 94.8325 24.5218 94.6932 24.4381C92.5054 23.1588 89.9783 23.2772 87.5815 22.9018C86.2816 22.6968 84.9423 22.7545 83.6212 22.6679L79.8912 22.922Z" fill="#9DBA5E"/>
<path d="M67.5186 143.244C67.5671 143.053 67.5943 142.857 67.664 142.678C68.2731 141.162 69.2821 139.92 70.6699 138.996C73.8121 136.911 77.1664 135.291 81.0752 135.003C81.1812 134.997 81.2843 134.948 81.3873 134.919C81.4752 134.39 81.1328 134.194 80.7146 133.972C78.3572 132.698 75.7604 132.204 73.1364 131.869C71.1729 131.621 69.1821 131.526 67.2035 131.451C65.6066 131.393 64.0552 131.676 62.6371 132.441C62.5523 132.49 62.4341 132.476 62.1826 132.505C62.3644 132.265 62.4493 132.097 62.5856 131.979C63.9098 130.841 65.5248 130.44 67.255 130.371C69.6578 130.272 72.0304 130.529 74.3969 130.856C76.3604 131.127 78.3239 131.39 80.3722 132.355C79.8844 130.812 79.245 129.582 78.736 128.225C79.0602 128.502 79.3844 128.78 79.7026 129.051C79.8783 128.915 80.0359 128.797 80.248 128.635C80.6904 129.62 81.1085 130.544 81.5994 131.627C81.9115 131.249 82.1569 130.963 82.3933 130.671C84.684 127.832 87.5232 125.672 91.0411 124.361C92.2895 123.896 93.5803 123.645 94.9257 123.801C95.2772 123.844 95.6166 123.951 95.959 124.194C95.8014 124.257 95.6499 124.356 95.4863 124.376C91.7562 124.893 88.5959 126.542 85.8567 128.927C84.7537 129.888 83.8689 131.078 82.8478 132.132C82.1691 132.837 82.0812 133.518 82.6963 134.206C88.3474 133.94 93.5894 135.17 98.5133 137.691C99.386 138.139 100.18 138.693 100.631 139.634C99.6072 139.077 98.6163 138.45 97.5498 137.983C96.4498 137.506 95.2923 137.131 94.1318 136.807C92.9349 136.475 91.7078 136.238 90.4836 136.01C89.2958 135.785 88.0989 135.563 86.896 135.45C85.6991 135.335 84.484 135.179 83.1478 135.519C83.5386 136.602 83.9144 137.648 84.2931 138.699C88.2535 139.851 91.8714 141.407 93.6682 145.303C92.9986 145.121 92.6471 144.543 92.135 144.162C91.6138 143.772 91.1108 143.362 90.5684 143.001C89.9958 142.62 89.4019 142.268 88.7958 141.936C88.2201 141.627 87.6293 141.338 87.0293 141.078C86.399 140.804 85.7415 140.582 85.0385 140.31C85.2294 142.3 85.4718 144.185 85.5688 146.077C85.6658 147.945 85.5234 149.811 85.2113 151.699C84.5871 151.491 84.7113 151.133 84.6992 150.839C84.6355 149.054 84.6507 147.261 84.4962 145.485C84.378 144.131 84.0477 142.791 83.7992 141.448C83.772 141.286 83.6538 141.142 83.5296 140.888C82.7629 141.405 82.0206 141.855 81.3327 142.375C80.6449 142.895 79.9753 143.449 79.3693 144.058C78.7905 144.639 78.2996 145.303 77.7785 145.935C77.2573 146.571 77.2785 147.524 76.327 148.17C76.3301 146.695 76.9482 145.606 77.5482 144.523C78.1542 143.429 78.9238 142.438 79.9328 141.656C80.951 140.862 82.0236 140.131 83.175 139.305C82.8326 138.364 82.4599 137.347 82.0691 136.276C79.0723 136.085 76.4846 137.189 73.8939 138.245C71.2698 139.317 69.0942 140.905 67.6913 143.368C67.6337 143.328 67.5762 143.287 67.5186 143.244Z" fill="#9DBA5E"/>
<mask id="mask2_1134_335" style="mask-type:luminance" maskUnits="userSpaceOnUse" x="53" y="173" width="77" height="66">
<path d="M53.1357 173.946H129.251V239H53.1357V173.946Z" fill="white"/>
</mask>
<g mask="url(#mask2_1134_335)">
<path d="M54.7595 173.976C55.0777 174.065 55.2595 174.094 55.4201 174.169C60.4591 176.583 65.8678 177.897 71.3613 178.908C79.7274 180.447 88.1844 181.1 96.6989 180.987C103.286 180.897 109.849 180.438 116.27 178.916C118.331 178.428 120.346 177.744 122.339 177.039C123.93 176.479 125.376 175.627 126.609 174.49C127.221 173.926 127.654 173.973 127.875 174.735C128.212 175.913 128.494 177.117 128.642 178.33C129.169 182.621 129.066 186.93 128.918 191.241C128.527 202.278 126.121 212.902 121.939 223.182C120.53 226.647 118.937 230.032 117.152 233.335C116.913 233.783 116.782 234.285 116.534 234.944C113.143 236.76 109.353 238.163 105.226 238.461C100.905 238.773 96.5625 239.093 92.2356 239.033C84.9422 238.923 77.7033 238.184 70.7886 235.738C69.0373 235.123 67.3495 234.334 65.6466 233.592C64.1649 232.942 63.1922 231.808 62.6377 230.381C62.2317 229.336 61.962 228.241 61.6378 227.167C61.3984 226.361 61.2196 225.541 60.9287 224.753C58.535 218.377 56.6927 211.862 55.3534 205.212C54.4383 200.658 54.008 196.058 53.6323 191.446C53.5293 190.155 53.4747 188.856 53.3384 187.568C53.0293 184.721 53.399 181.899 53.6959 179.078C53.8293 177.825 54.0292 176.575 54.2565 175.333C54.3383 174.877 54.5807 174.446 54.7595 173.976Z" fill="#D2A56E"/>
</g>
</svg>
