<?xml version="1.0" encoding="UTF-8"?>
<svg version="1.1" xmlns="http://www.w3.org/2000/svg" width="430" height="225">
<path d="M0 0 C1.14210938 -0.01417969 2.28421875 -0.02835938 3.4609375 -0.04296875 C6.50066146 0.17844324 8.1620828 0.43570678 10.625 2.1875 C11.875 5.3125 11.875 5.3125 12.625 8.1875 C10.975 8.5175 9.325 8.8475 7.625 9.1875 C7.87795715 13.23659862 7.87795715 13.23659862 8.625 17.1875 C10.42592298 18.67146654 10.42592298 18.67146654 12.625 19.1875 C16.40768433 21.70928955 16.95980983 23.98017857 18.5625 28.09375 C19.57133947 30.50631007 19.57133947 30.50631007 22.625 32.1875 C22.625 33.1775 22.625 34.1675 22.625 35.1875 C16.685 35.6825 16.685 35.6825 10.625 36.1875 C10.625 36.8475 10.625 37.5075 10.625 38.1875 C12.11 38.6825 12.11 38.6825 13.625 39.1875 C15.21465571 41.40451147 16.34827486 43.76612473 17.625 46.1875 C17.97691406 45.65640625 18.32882813 45.1253125 18.69140625 44.578125 C22.2177161 39.53264772 25.08635342 36.85791889 30.625 34.1875 C34.95537572 32.1466917 34.95537572 32.1466917 38.625 29.1875 C42.35949333 28.89459856 45.2386718 29.06721466 48.82421875 30.18359375 C53.09667211 31.31208349 56.8604539 31.51938845 61.25 31.5 C62.35601562 31.52416992 62.35601562 31.52416992 63.484375 31.54882812 C68.05642031 31.55292494 71.0188869 31.04960092 74.625 28.1875 C75.615 26.7025 75.615 26.7025 76.625 25.1875 C78.275 25.5175 79.925 25.8475 81.625 26.1875 C81.10116397 30.29207819 79.97334816 32.40260512 77.1875 35.4375 C76.57003906 36.12328125 75.95257813 36.8090625 75.31640625 37.515625 C72.45123332 40.34771279 70.47793922 40.32351389 66.5625 40.3125 C61.51433155 40.27254088 56.62794048 39.84362334 51.625 39.1875 C52.264375 39.93 52.90375 40.6725 53.5625 41.4375 C55.40833407 43.8986121 56.18569174 45.22216926 56.625 48.1875 C58.935 47.5275 61.245 46.8675 63.625 46.1875 C64.6875 48.0625 64.6875 48.0625 65.625 50.1875 C65.295 50.8475 64.965 51.5075 64.625 52.1875 C62.57975679 52.78255999 60.53166043 53.14216781 58.4375 53.52734375 C57.839375 53.74519531 57.24125 53.96304688 56.625 54.1875 C56.295 55.1775 55.965 56.1675 55.625 57.1875 C56.285 57.1875 56.945 57.1875 57.625 57.1875 C58.01431772 61.17800659 57.61730132 63.56932052 55.5625 66.9375 C54.923125 68.01 54.28375 69.0825 53.625 70.1875 C53.955 70.8475 54.285 71.5075 54.625 72.1875 C54.625 73.5075 54.625 74.8275 54.625 76.1875 C55.615 76.8475 56.605 77.5075 57.625 78.1875 C57.625 78.8475 57.625 79.5075 57.625 80.1875 C58.285 80.1875 58.945 80.1875 59.625 80.1875 C59.625 81.5075 59.625 82.8275 59.625 84.1875 C60.285 84.5175 60.945 84.8475 61.625 85.1875 C60.965 88.1575 60.305 91.1275 59.625 94.1875 C54.875 95.3125 54.875 95.3125 52.625 94.1875 C52 91.625 52 91.625 51.625 89.1875 C49.645 88.5275 47.665 87.8675 45.625 87.1875 C45.625 84.8775 45.625 82.5675 45.625 80.1875 C45.068125 79.919375 44.51125 79.65125 43.9375 79.375 C41.42787948 78.08627595 39.03786505 76.64802362 36.625 75.1875 C36.4286304 77.56206165 36.24268706 79.93670019 36.0625 82.3125 C35.97838867 83.31023437 35.97838867 83.31023437 35.89257812 84.328125 C35.58874143 88.4603041 35.77272469 92.13445741 36.625 96.1875 C30.19305607 96.67292973 30.19305607 96.67292973 27.90625 94.71875 C26.01296772 90.97836305 26.30408125 87.56321819 26.4375 83.4375 C26.45780273 82.24833984 26.45780273 82.24833984 26.47851562 81.03515625 C26.51374777 79.08564436 26.56755179 77.13648374 26.625 75.1875 C25.820625 75.373125 25.01625 75.55875 24.1875 75.75 C22.9190625 75.9665625 22.9190625 75.9665625 21.625 76.1875 C21.295 75.8575 20.965 75.5275 20.625 75.1875 C20.71437803 73.66230724 20.87037146 72.14068071 21.0625 70.625 C21.21525391 69.38556641 21.21525391 69.38556641 21.37109375 68.12109375 C21.45488281 67.48300781 21.53867188 66.84492187 21.625 66.1875 C20.14 65.6925 20.14 65.6925 18.625 65.1875 C18.625 64.5275 18.625 63.8675 18.625 63.1875 C17.635 63.1875 16.645 63.1875 15.625 63.1875 C15.955 62.1975 16.285 61.2075 16.625 60.1875 C17.285 60.1875 17.945 60.1875 18.625 60.1875 C17.965 57.8775 17.305 55.5675 16.625 53.1875 C14.975 55.1675 13.325 57.1475 11.625 59.1875 C11.955 59.785625 12.285 60.38375 12.625 61 C13.625 63.1875 13.625 63.1875 13.625 66.1875 C14.285 66.1875 14.945 66.1875 15.625 66.1875 C17.38962683 69.27559695 17.625 70.42062136 17.625 74.1875 C14.655 74.1875 11.685 74.1875 8.625 74.1875 C8.625 73.5275 8.625 72.8675 8.625 72.1875 C7.965 72.1875 7.305 72.1875 6.625 72.1875 C4.975 68.8875 3.325 65.5875 1.625 62.1875 C1.00625 63.734375 0.3875 65.28125 -0.25 66.875 C-0.95833333 68.64583333 -1.66666667 70.41666667 -2.375 72.1875 C-2.62765625 73.08339844 -2.8803125 73.97929688 -3.140625 74.90234375 C-4.375 77.1875 -4.375 77.1875 -7.0546875 78.3671875 C-8.10914063 78.59664063 -9.16359375 78.82609375 -10.25 79.0625 C-11.82394531 79.42988281 -11.82394531 79.42988281 -13.4296875 79.8046875 C-16.17983474 80.16213369 -17.79424401 80.09762168 -20.375 79.1875 C-20.375 77.8675 -20.375 76.5475 -20.375 75.1875 C-21.52097656 75.21070312 -22.66695312 75.23390625 -23.84765625 75.2578125 C-25.3775976 75.27658479 -26.90754606 75.29478341 -28.4375 75.3125 C-29.18966797 75.32925781 -29.94183594 75.34601563 -30.71679688 75.36328125 C-35.66827709 75.40615121 -39.67914451 74.77149375 -44.375 73.1875 C-44.375 72.5275 -44.375 71.8675 -44.375 71.1875 C-48.995 71.5175 -53.615 71.8475 -58.375 72.1875 C-60.43197557 67.58379278 -62.08243676 63.06389102 -63.43359375 58.203125 C-64.24785723 56.02590743 -64.24785723 56.02590743 -66.40625 54.75 C-69.04325948 52.65713533 -69.03775285 51.22737311 -69.4375 47.9375 C-69.94653277 44.42980145 -70.50391458 41.4998774 -72.0625 38.3125 C-73.53801599 34.79936669 -73.69316767 33.70261379 -72.375 30.1875 C-71.12700206 27.78711686 -69.78230922 25.50275065 -68.375 23.1875 C-67.385 23.1875 -66.395 23.1875 -65.375 23.1875 C-64.32607762 24.82381892 -63.32593297 26.49235863 -62.375 28.1875 C-61.715 28.5175 -61.055 28.8475 -60.375 29.1875 C-60.375 29.8475 -60.375 30.5075 -60.375 31.1875 C-56.4350572 32.19606731 -53.32108009 32.13346714 -49.3125 31.5 C-47.77916016 31.27763672 -47.77916016 31.27763672 -46.21484375 31.05078125 C-42.93138789 30.0526468 -41.69746577 28.63871653 -39.375 26.1875 C-36.125 25.9375 -36.125 25.9375 -33.375 26.1875 C-32.88 27.1775 -32.88 27.1775 -32.375 28.1875 C-30.70888095 28.230221 -29.04117115 28.22813832 -27.375 28.1875 C-26.88 27.6925 -26.88 27.6925 -26.375 27.1875 C-23.70441149 27.04634839 -21.05067762 27.14502893 -18.375 27.1875 C-18.045 24.8775 -17.715 22.5675 -17.375 20.1875 C-16.385 19.8575 -15.395 19.5275 -14.375 19.1875 C-14.189375 17.7334375 -14.189375 17.7334375 -14 16.25 C-13.79375 15.239375 -13.5875 14.22875 -13.375 13.1875 C-12.715 12.8575 -12.055 12.5275 -11.375 12.1875 C-10.90976937 10.29216658 -10.90976937 10.29216658 -10.75 8.125 C-10.564375 6.1759375 -10.564375 6.1759375 -10.375 4.1875 C-9.715 4.1875 -9.055 4.1875 -8.375 4.1875 C-8.375 3.1975 -8.375 2.2075 -8.375 1.1875 C-5.5555932 -0.2222034 -3.14232774 0.01765353 0 0 Z M33.625 45.1875 C34.18871414 48.45704202 35.12462266 50.01325883 37.625 52.1875 C41.54103304 49.39329508 41.54103304 49.39329508 43.625 45.1875 C42.45516556 43.79068432 42.45516556 43.79068432 39.1875 44.0625 C35.78394416 43.9348719 35.78394416 43.9348719 33.625 45.1875 Z " fill="#C5D9D4" transform="translate(201.375,23.8125)"/>
<path d="M0 0 C3.1875 -0.25 3.1875 -0.25 7 0 C8.11375 0.9590625 8.11375 0.9590625 9.25 1.9375 C12.3921196 4.2940897 13.49736316 4.24380547 17.3125 4.375 C22.521056 4.67062075 25.38770703 6.03186834 29.44140625 9.234375 C31 11 31 11 31.89453125 13.46484375 C33.33975784 16.77916198 35.12938194 17.83071925 38.125 19.8125 C42.74358832 22.98626815 46.46822731 26.31603128 50.1484375 30.53125 C52.55105984 32.43712763 54.00750024 32.17141979 57 32 C58.8125 33.3125 58.8125 33.3125 60 35 C60 35.99 60 36.98 60 38 C60.5775 38.0825 61.155 38.165 61.75 38.25 C64 39 64 39 65.625 40.8125 C68.11344888 43.10449239 69.86505874 43.83703792 73 45 C80.29525862 47.83405172 80.29525862 47.83405172 82 51 C82.00539229 54.72607371 81.58312977 58.32374713 81 62 C82.98 62.33 84.96 62.66 87 63 C87.4021875 64.670625 87.4021875 64.670625 87.8125 66.375 C88.65809019 70.21840951 88.65809019 70.21840951 92 72 C92.33 72.99 92.66 73.98 93 75 C96.00847418 76.22520264 96.00847418 76.22520264 99 77 C98.34 76.01 97.68 75.02 97 74 C96.61500109 72.34450469 96.27206865 70.6777567 96 69 C99.06467953 68.01492444 100.97279828 67.85315627 104 69 C105.484375 70.7421875 105.484375 70.7421875 106.75 72.875 C107.17796875 73.57367188 107.6059375 74.27234375 108.046875 74.9921875 C109 77 109 77 109 80 C108.20207031 80.21785156 107.40414062 80.43570313 106.58203125 80.66015625 C103.78719958 81.7467309 103.78719958 81.7467309 103.07421875 84.43359375 C102.94660156 85.42488281 102.81898437 86.41617188 102.6875 87.4375 C102.54828125 88.50871094 102.4090625 89.57992187 102.265625 90.68359375 C101.94537354 94.68202745 101.89018012 98.61743663 102.02734375 102.625 C102.00083442 104.92752441 101.65636144 106.8019524 101 109 C100.32453125 108.91621094 99.6490625 108.83242187 98.953125 108.74609375 C98.06109375 108.64425781 97.1690625 108.54242188 96.25 108.4375 C95.36828125 108.33308594 94.4865625 108.22867188 93.578125 108.12109375 C91.04204759 107.86270464 91.04204759 107.86270464 88.859375 108.62109375 C88.24578125 108.74613281 87.6321875 108.87117188 87 109 C85.36189296 107.70316526 83.73841323 106.38222012 82.20703125 104.9609375 C79.49300627 102.54953832 76.6074093 100.40155802 73.6875 98.25 C68.20574163 94.20574163 68.20574163 94.20574163 66 92 C65.875 89.375 65.875 89.375 66 87 C65.319375 86.835 64.63875 86.67 63.9375 86.5 C58.79073542 83.87186489 54.90389534 79.41038757 52.875 74 C52.58625 73.01 52.2975 72.02 52 71 C50.47976027 68.23646344 48.73446072 65.63257874 47 63 C46.49855469 62.18273437 45.99710938 61.36546875 45.48046875 60.5234375 C44.97128906 59.71132812 44.46210937 58.89921875 43.9375 58.0625 C43.47214844 57.31097656 43.00679687 56.55945313 42.52734375 55.78515625 C41.15930472 53.80269377 41.15930472 53.80269377 38.94140625 53.640625 C38.30074219 53.42921875 37.66007812 53.2178125 37 53 C35.875 50.19921875 35.875 50.19921875 35 46.6875 C33.80783355 41.93480071 32.83780274 39.14136749 29 36 C28.21625 35.608125 27.4325 35.21625 26.625 34.8125 C21.94278303 31.57954066 18.7874298 26.3622894 17 21 C15.34021201 20.3163875 13.67215485 19.65277898 12 19 C9.39453125 17.046875 9.39453125 17.046875 6.8125 14.75 C5.95269531 14.00234375 5.09289062 13.2546875 4.20703125 12.484375 C0.70262626 8.53959346 0 5.20692523 0 0 Z " fill="#C5D9D4" transform="translate(0,12)"/>
<path d="M0 0 C0.99 0.66 1.98 1.32 3 2 C3 2.66 3 3.32 3 4 C4.918125 4.185625 4.918125 4.185625 6.875 4.375 C10.75 4.75 10.75 4.75 13 7 C13.4657363 9.55867474 13.83484248 12.04687908 14.125 14.625 C14.21136719 15.33140625 14.29773438 16.0378125 14.38671875 16.765625 C14.59881183 18.50950141 14.80040991 20.2546484 15 22 C15.99 22 16.98 22 18 22 C20.1875 25 20.1875 25 22 28 C26.46405168 26.01597703 30.08711644 23.63558304 32.5 19.3125 C34 17 34 17 36.5625 16.4375 C37.7690625 16.2209375 37.7690625 16.2209375 39 16 C39.28875 15.34 39.5775 14.68 39.875 14 C41 12 41 12 43.9375 11 C51.37556293 10.33505882 59.04398735 14.86254069 65.5390625 18.0703125 C69.22777284 19.4638253 73.15074428 20.14460984 77 21 C77 41.79 77 62.58 77 84 C74.69 82.02 72.38 80.04 70 78 C69.34 77.67 68.68 77.34 68 77 C68 76.34 68 75.68 68 75 C66.96875 75.309375 65.9375 75.61875 64.875 75.9375 C57.90159938 77.88615486 52.15456312 77.91906443 45 77 C45.27287731 72.36108575 47.29357326 70.2649533 50.4296875 67.13671875 C52 66 52 66 55 66 C54.61223633 62.70400878 53.94332944 60.9159082 52.0625 58.125 C50 55 50 55 49.0625 51.25 C48.37061326 47.90733043 48.37061326 47.90733043 45.9375 46.8125 C44.968125 46.544375 43.99875 46.27625 43 46 C41.68555192 45.33718257 40.37329369 44.67001536 39.0625 44 C35.07534207 42.1822275 31.4730667 41.59171472 27.125 41.125 C20.06088374 40.29573418 14.92035564 37.84218999 9 34 C8.34 34.66 7.68 35.32 7 36 C4.31160615 36.26991906 1.70858064 36.08737357 -1 36 C-1 34.02 -1 32.04 -1 30 C-1.763125 29.7525 -2.52625 29.505 -3.3125 29.25 C-6.2364045 27.89004442 -7.30004356 26.68414174 -9 24 C-8.34 23.34 -7.68 22.68 -7 22 C-5 22.33333333 -3 22.66666667 -1 23 C-0.34 22.34 0.32 21.68 1 21 C0.113125 21.144375 -0.77375 21.28875 -1.6875 21.4375 C-5 21 -5 21 -6.1953125 19.4765625 C-6.56398438 18.84492187 -6.93265625 18.21328125 -7.3125 17.5625 C-9.09515841 14.63543041 -9.09515841 14.63543041 -12.20703125 13.453125 C-13.79462311 13.36079332 -15.38335165 13.28600186 -16.97265625 13.23046875 C-19 13 -19 13 -21.0625 11.125 C-22 9 -22 9 -22 6 C-21.030625 6.12375 -20.06125 6.2475 -19.0625 6.375 C-14.43617836 6.43119014 -11.76485239 3.95876902 -8.14453125 1.34375 C-5.2771625 -0.4529255 -3.30202087 -0.62895636 0 0 Z M8 18 C6.02 18.99 6.02 18.99 4 20 C6.475 20.99 6.475 20.99 9 22 C8.67 20.68 8.34 19.36 8 18 Z " fill="#C5D9D4" transform="translate(353,68)"/>
<path d="M0 0 C1.65 0.33 3.3 0.66 5 1 C4.47616397 5.10457819 3.34834816 7.21510512 0.5625 10.25 C-0.05496094 10.93578125 -0.67242187 11.6215625 -1.30859375 12.328125 C-4.17376668 15.16021279 -6.14706078 15.13601389 -10.0625 15.125 C-15.11066845 15.08504088 -19.99705952 14.65612334 -25 14 C-24.360625 14.7425 -23.72125 15.485 -23.0625 16.25 C-21.21666593 18.7111121 -20.43930826 20.03466926 -20 23 C-17.69 22.34 -15.38 21.68 -13 21 C-11.9375 22.875 -11.9375 22.875 -11 25 C-11.33 25.66 -11.66 26.32 -12 27 C-14.04524321 27.59505999 -16.09333957 27.95466781 -18.1875 28.33984375 C-18.785625 28.55769531 -19.38375 28.77554688 -20 29 C-20.495 30.485 -20.495 30.485 -21 32 C-20.34 32 -19.68 32 -19 32 C-18.61068228 35.99050659 -19.00769868 38.38182052 -21.0625 41.75 C-21.701875 42.8225 -22.34125 43.895 -23 45 C-22.67 45.66 -22.34 46.32 -22 47 C-22 48.32 -22 49.64 -22 51 C-21.01 51.66 -20.02 52.32 -19 53 C-19 53.66 -19 54.32 -19 55 C-18.34 55 -17.68 55 -17 55 C-17 56.32 -17 57.64 -17 59 C-16.01 59.495 -16.01 59.495 -15 60 C-15.66 62.97 -16.32 65.94 -17 69 C-21.75 70.125 -21.75 70.125 -24 69 C-24.625 66.4375 -24.625 66.4375 -25 64 C-26.98 63.34 -28.96 62.68 -31 62 C-31 59.69 -31 57.38 -31 55 C-31.556875 54.731875 -32.11375 54.46375 -32.6875 54.1875 C-35.19712052 52.89877595 -37.58713495 51.46052362 -40 50 C-40.1963696 52.37456165 -40.38231294 54.74920019 -40.5625 57.125 C-40.61857422 57.79015625 -40.67464844 58.4553125 -40.73242188 59.140625 C-41.03625857 63.2728041 -40.85227531 66.94695741 -40 71 C-46.43194393 71.48542973 -46.43194393 71.48542973 -48.71875 69.53125 C-50.61203228 65.79086305 -50.32091875 62.37571819 -50.1875 58.25 C-50.16719727 57.06083984 -50.16719727 57.06083984 -50.14648438 55.84765625 C-50.11125223 53.89814436 -50.05744821 51.94898374 -50 50 C-50.804375 50.185625 -51.60875 50.37125 -52.4375 50.5625 C-53.283125 50.706875 -54.12875 50.85125 -55 51 C-55.33 50.67 -55.66 50.34 -56 50 C-55.91062197 48.47480724 -55.75462854 46.95318071 -55.5625 45.4375 C-55.46066406 44.61121094 -55.35882813 43.78492188 -55.25390625 42.93359375 C-55.17011719 42.29550781 -55.08632812 41.65742187 -55 41 C-55.99 40.67 -56.98 40.34 -58 40 C-58 39.34 -58 38.68 -58 38 C-58.99 38 -59.98 38 -61 38 C-60.67 37.01 -60.34 36.02 -60 35 C-59.34 35 -58.68 35 -58 35 C-58.66 32.69 -59.32 30.38 -60 28 C-61.65 29.98 -63.3 31.96 -65 34 C-64.67 34.598125 -64.34 35.19625 -64 35.8125 C-63 38 -63 38 -63 41 C-62.34 41 -61.68 41 -61 41 C-59.23537317 44.08809695 -59 45.23312136 -59 49 C-61.97 49 -64.94 49 -68 49 C-68 48.01 -68 47.02 -68 46 C-66.02 46 -64.04 46 -62 46 C-64.31 41.05 -66.62 36.1 -69 31 C-67.35 29.02 -65.7 27.04 -64 25 C-63.40343959 22.03709293 -63.40343959 22.03709293 -63.6875 19.125 C-63.73261719 18.15820312 -63.77773437 17.19140625 -63.82421875 16.1953125 C-63.91123047 15.10863281 -63.91123047 15.10863281 -64 14 C-60.125 18.75 -60.125 18.75 -59 21 C-58.64808594 20.46890625 -58.29617187 19.9378125 -57.93359375 19.390625 C-54.4072839 14.34514772 -51.53864658 11.67041889 -46 9 C-41.66962428 6.9591917 -41.66962428 6.9591917 -38 4 C-34.26550667 3.70709856 -31.3863282 3.87971466 -27.80078125 4.99609375 C-23.52832789 6.12458349 -19.7645461 6.33188845 -15.375 6.3125 C-14.26898438 6.33666992 -14.26898438 6.33666992 -13.140625 6.36132812 C-8.56857969 6.36542494 -5.6061131 5.86210092 -2 3 C-1.34 2.01 -0.68 1.02 0 0 Z M-43 20 C-42.43628586 23.26954202 -41.50037734 24.82575883 -39 27 C-35.08396696 24.20579508 -35.08396696 24.20579508 -33 20 C-34.16983444 18.60318432 -34.16983444 18.60318432 -37.4375 18.875 C-40.84105584 18.7473719 -40.84105584 18.7473719 -43 20 Z " fill="#E1EBE8" transform="translate(278,49)"/>
<path d="M0 0 C18.40053009 -0.81278415 18.40053009 -0.81278415 25 4 C25.66 4.99 26.32 5.98 27 7 C32.20506217 8.4313921 37.64291323 8.09528415 43 8 C43.33 7.01 43.66 6.02 44 5 C49.50479846 4.74978189 49.50479846 4.74978189 51.84765625 5.93359375 C54.43996829 7.21798792 56.84287085 7.68237894 59.6875 8.1875 C60.66074219 8.36667969 61.63398438 8.54585937 62.63671875 8.73046875 C63.41660156 8.81941406 64.19648438 8.90835938 65 9 C65.33 8.67 65.66 8.34 66 8 C67.85287502 7.92773498 69.70833878 7.9161878 71.5625 7.9375 C72.57441406 7.94652344 73.58632812 7.95554688 74.62890625 7.96484375 C75.41136719 7.97644531 76.19382812 7.98804688 77 8 C76.78515625 9.890625 76.78515625 9.890625 76 12 C73.93359375 13.046875 73.93359375 13.046875 71.4375 13.75 C70.61121094 13.99234375 69.78492188 14.2346875 68.93359375 14.484375 C68.29550781 14.65453125 67.65742188 14.8246875 67 15 C67.495 15.495 67.495 15.495 68 16 C69.97398582 16 71.94809349 15.99714973 73.921875 15.96875 C76.37115342 16.00558125 78.62682678 16.40670669 81 17 C81 17.99 81 18.98 81 20 C81.61488281 19.97679687 82.22976562 19.95359375 82.86328125 19.9296875 C83.67152344 19.91164062 84.47976562 19.89359375 85.3125 19.875 C86.51326172 19.84019531 86.51326172 19.84019531 87.73828125 19.8046875 C90 20 90 20 93 22 C92 25 92 25 90 26 C89.505 27.485 89.505 27.485 89 29 C87.68 29 86.36 29 85 29 C84.505 27.515 84.505 27.515 84 26 C83.34 25.67 82.68 25.34 82 25 C82 25.66 82 26.32 82 27 C80.54119891 26.85892253 79.08296449 26.71197585 77.625 26.5625 C76.40683594 26.44068359 76.40683594 26.44068359 75.1640625 26.31640625 C73 26 73 26 71 25 C69.54165964 24.97966458 68.08247312 25.00825747 66.625 25.0625 C56.21481878 25.12173289 46.42955069 22.46081255 36.49829102 19.58911133 C35.32351196 19.26076294 35.32351196 19.26076294 34.125 18.92578125 C33.42632812 18.72380127 32.72765625 18.52182129 32.0078125 18.3137207 C29.69219061 17.95190478 28.23395105 18.35111955 26 19 C19.67006847 19.33910348 19.67006847 19.33910348 17.0703125 18.0234375 C14.74487739 16.87388279 12.94957097 16.63984922 10.375 16.4375 C6.19444444 16.09722222 6.19444444 16.09722222 4 15 C3.79375 14.34 3.5875 13.68 3.375 13 C2.20634083 10.82949501 2.20634083 10.82949501 0.09375 10.515625 C-1.93030541 10.27330851 -3.96572061 10.13124383 -6 10 C-6.33 8.68 -6.66 7.36 -7 6 C-5.02 5.67 -3.04 5.34 -1 5 C-0.67 3.35 -0.34 1.7 0 0 Z " fill="#C5D8D4" transform="translate(101,121)"/>
<path d="M0 0 C3.320625 -0.061875 6.64125 -0.12375 10.0625 -0.1875 C11.09511963 -0.21481201 12.12773926 -0.24212402 13.19165039 -0.27026367 C18.90523465 -0.32151894 22.99206715 0.162625 28 3 C28.9375 5.25 28.9375 5.25 29 8 C29.12375 9.11375 29.2475 10.2275 29.375 11.375 C28.87135554 16.24356312 27.06567231 18.24455141 24 22 C24.433125 22.84304687 24.86625 23.68609375 25.3125 24.5546875 C25.869375 25.65039062 26.42625 26.74609375 27 27.875 C27.556875 28.96554688 28.11375 30.05609375 28.6875 31.1796875 C30 34 30 34 30 36 C27.36 36.33 24.72 36.66 22 37 C21.18247697 35.41925436 20.37118003 33.83528777 19.5625 32.25 C19.11003906 31.36828125 18.65757812 30.4865625 18.19140625 29.578125 C17 27 17 27 16 23 C13.03 22.67 10.06 22.34 7 22 C7 26.62 7 31.24 7 36 C4.69 36 2.38 36 0 36 C0 24.12 0 12.24 0 0 Z " fill="#F9FCFB" transform="translate(186,59)"/>
<path d="M0 0 C3.3800413 1.96042395 4.61050073 3.2489723 6.125 6.8125 C6.125 7.8025 6.125 8.7925 6.125 9.8125 C3.815 9.8125 1.505 9.8125 -0.875 9.8125 C-1.205 8.8225 -1.535 7.8325 -1.875 6.8125 C-4.22846396 5.63576802 -5.7556033 5.64626134 -8.375 5.625 C-9.1690625 5.61082031 -9.963125 5.59664063 -10.78125 5.58203125 C-13.09533317 5.61583697 -13.09533317 5.61583697 -14.875 7.8125 C-14.55458603 10.41530568 -14.55458603 10.41530568 -13.875 12.8125 C-12.92238281 12.92207031 -11.96976563 13.03164062 -10.98828125 13.14453125 C-9.10689453 13.38236328 -9.10689453 13.38236328 -7.1875 13.625 C-5.32544922 13.85123047 -5.32544922 13.85123047 -3.42578125 14.08203125 C0.72168305 14.93524998 3.85163467 16.11467956 6.4375 19.5625 C7.43699111 22.8335618 7.4831657 25.40992588 7.125 28.8125 C5.0459015 32.03868733 3.32460471 33.6794302 0.125 35.8125 C-6.18573697 36.51616199 -13.71120609 37.29119227 -19.25 33.6875 C-22.09370466 30.57296633 -22.77807351 28.9803391 -22.875 24.8125 C-20.565 24.8125 -18.255 24.8125 -15.875 24.8125 C-15.63523438 25.45445313 -15.39546875 26.09640625 -15.1484375 26.7578125 C-14.06950146 28.9866021 -14.06950146 28.9866021 -11.8515625 29.4921875 C-11.07554687 29.55664062 -10.29953125 29.62109375 -9.5 29.6875 C-8.72914063 29.76742187 -7.95828125 29.84734375 -7.1640625 29.9296875 C-4.5949432 29.79816262 -3.07315501 29.10730364 -0.875 27.8125 C-0.875 26.1625 -0.875 24.5125 -0.875 22.8125 C-3.4421978 21.5289011 -5.77899474 21.37875941 -8.625 21 C-14.23272938 20.11138022 -17.81765299 18.86984701 -21.875 14.8125 C-22.31670119 11.75845177 -22.34276673 8.86337856 -21.875 5.8125 C-16.26981453 -1.50538103 -8.54883691 -3.19446984 0 0 Z " fill="#F9FCFB" transform="translate(173.875,59.1875)"/>
<path d="M0 0 C1.70840281 1.63412443 2.93453047 2.86906094 4 5 C4.039992 6.99960012 4.04346799 9.00047242 4 11 C4.66 11 5.32 11 6 11 C6 12.65 6 14.3 6 16 C8.31 16 10.62 16 13 16 C13 11.38 13 6.76 13 2 C15.97 2 18.94 2 22 2 C23.84495036 7.53485109 20.9731628 14.03908589 18.85058594 19.34033203 C17.68380501 21.6169614 16.57070152 22.52849231 14.1875 23.4375 C12.13671875 23.828125 12.13671875 23.828125 10 24 C9.24332031 24.11859375 8.48664063 24.2371875 7.70703125 24.359375 C5.81355171 24.64088346 3.90670647 24.82975835 2 25 C1.505 22.525 1.505 22.525 1 20 C-0.14597656 20.02320312 -1.29195312 20.04640625 -2.47265625 20.0703125 C-4.0025976 20.08908479 -5.53254606 20.10728341 -7.0625 20.125 C-7.81466797 20.14175781 -8.56683594 20.15851563 -9.34179688 20.17578125 C-14.27302371 20.21847585 -18.3842507 19.81268698 -23 18 C-23.33 17.01 -23.66 16.02 -24 15 C-22.75863281 15.04640625 -21.51726562 15.0928125 -20.23828125 15.140625 C-18.59637829 15.17815421 -16.95444923 15.21455314 -15.3125 15.25 C-14.49587891 15.28351563 -13.67925781 15.31703125 -12.83789062 15.3515625 C-8.69707993 15.41862016 -6.5725115 15.35846774 -2.98046875 13.109375 C-0.11499901 10.0573954 0.12077772 8.45444071 0.0625 4.375 C0.05347656 3.55773437 0.04445312 2.74046875 0.03515625 1.8984375 C0.02355469 1.27195312 0.01195312 0.64546875 0 0 Z " fill="#C0D5D0" transform="translate(180,79)"/>
<path d="M0 0 C0.66 0 1.32 0 2 0 C2.38931772 3.99050659 1.99230132 6.38182052 -0.0625 9.75 C-0.701875 10.8225 -1.34125 11.895 -2 13 C-1.67 13.66 -1.34 14.32 -1 15 C-1 16.32 -1 17.64 -1 19 C-0.01 19.66 0.98 20.32 2 21 C2 21.66 2 22.32 2 23 C2.66 23 3.32 23 4 23 C4 24.32 4 25.64 4 27 C4.66 27.33 5.32 27.66 6 28 C5.34 30.97 4.68 33.94 4 37 C-0.75 38.125 -0.75 38.125 -3 37 C-3.625 34.4375 -3.625 34.4375 -4 32 C-5.98 31.34 -7.96 30.68 -10 30 C-10 27.69 -10 25.38 -10 23 C-10.556875 22.731875 -11.11375 22.46375 -11.6875 22.1875 C-14 21 -14 21 -16.25 19.625 C-19.74397165 17.56038039 -23.35554809 15.78153108 -27 14 C-24.29968915 12.64984458 -22.25954321 13.01270361 -19.25 13.125 C-14.36144489 13.15423777 -11.07344916 12.95325064 -7 10 C-4.71809341 7.52250142 -3.05877484 5.10172569 -1.375 2.1875 C-0.92125 1.465625 -0.4675 0.74375 0 0 Z " fill="#C0D5CE" transform="translate(257,81)"/>
<path d="M0 0 C2 1.125 2 1.125 3 4.125 C0.47831965 6.64668035 -1.41099842 6.49804234 -4.84765625 6.83984375 C-7.27688036 7.10590864 -7.27688036 7.10590864 -10.625 8.1875 C-13.98283369 9.12023158 -16.54083263 9.52722876 -20 9.125 C-20.66 8.135 -21.32 7.145 -22 6.125 C-22.33 6.455 -22.66 6.785 -23 7.125 C-25.33297433 7.16592937 -27.66705225 7.16741723 -30 7.125 C-29.34 4.815 -28.68 2.505 -28 0.125 C-26.0085944 -0.25633299 -24.00720923 -0.58825582 -22 -0.875 C-21.67 -0.545 -21.34 -0.215 -21 0.125 C-18.67182036 0.49260731 -16.3381615 0.82741581 -14 1.125 C-14 0.465 -14 -0.195 -14 -0.875 C-9.85193787 -2.94903107 -4.28401821 -1.24950531 0 0 Z " fill="#C7D7D3" transform="translate(224,142.875)"/>
<path d="M0 0 C0.66 0 1.32 0 2 0 C2.33 2.31 2.66 4.62 3 7 C4.65 6.67 6.3 6.34 8 6 C9.1875 8.75 9.1875 8.75 10 12 C8.625 14.375 8.625 14.375 7 16 C7.66 16 8.32 16 9 16 C9.33 17.65 9.66 19.3 10 21 C7.36 20.34 4.72 19.68 2 19 C2.33 20.0725 2.66 21.145 3 22.25 C4 26 4 26 4 30 C0.83884224 28.63016497 0.0072908 28.0109362 -2 25 C-4.66647006 17.37483123 -4.63693633 9.79769228 -1.4375 2.375 C-0.7259375 1.199375 -0.7259375 1.199375 0 0 Z " fill="#C7D8D3" transform="translate(306,44)"/>
<path d="M0 0 C1.625 2.6875 1.625 2.6875 2 5 C2.66 5 3.32 5 4 5 C4 6.32 4 7.64 4 9 C-5.51351351 7.48648649 -5.51351351 7.48648649 -8 5 C-10.95971583 4.79419916 -10.95971583 4.79419916 -14.3125 4.9375 C-18.39896002 5.04467056 -22.01876261 4.96356402 -26 4 C-25.34 2.02 -24.68 0.04 -24 -2 C-16.01998714 -4.05935816 -7.46640216 -3.65468251 0 0 Z " fill="#C4D6D0" transform="translate(332,94)"/>
<path d="M0 0 C1 1 1 1 1.0625 4.0625 C1.041875 5.031875 1.02125 6.00125 1 7 C0.34 7 -0.32 7 -1 7 C-1.25265625 7.61359375 -1.5053125 8.2271875 -1.765625 8.859375 C-3.83346514 12.44537626 -7.20653165 13.63914611 -11 15 C-14.23433934 15.29947586 -16.10687304 15.44656348 -19 14 C-18.34938905 12.32700041 -17.67966676 10.66140763 -17 9 C-16.74605469 8.34 -16.49210937 7.68 -16.23046875 7 C-14.61063324 4.3671245 -12.95120449 3.59248914 -10.1875 2.25 C-9.33542969 1.82203125 -8.48335938 1.3940625 -7.60546875 0.953125 C-4.85911242 -0.05153908 -2.8991177 -0.2630962 0 0 Z " fill="#C5D8D4" transform="translate(282,148)"/>
<path d="M0 0 C4.14281498 0.3809485 7.73281208 0.45742198 11.8125 -0.5625 C11.5390625 1.33203125 11.5390625 1.33203125 10.8125 3.4375 C1.67403353 7.6916137 -7.28650579 7.97616802 -17.1875 6.4375 C-18.1775 5.7775 -19.1675 5.1175 -20.1875 4.4375 C-20.1875 3.4475 -20.1875 2.4575 -20.1875 1.4375 C-13.79343317 -1.86266353 -6.92122935 -0.65262212 0 0 Z " fill="#C7D8D4" transform="translate(250.1875,143.5625)"/>
<path d="M0 0 C0.78503906 0.00515625 1.57007813 0.0103125 2.37890625 0.015625 C3.55259766 0.00789063 3.55259766 0.00789063 4.75 0 C6.94140625 0.265625 6.94140625 0.265625 9.94140625 2.265625 C9.94140625 3.255625 9.94140625 4.245625 9.94140625 5.265625 C12.25140625 5.265625 14.56140625 5.265625 16.94140625 5.265625 C17.27140625 4.275625 17.60140625 3.285625 17.94140625 2.265625 C18.94140625 3.265625 18.94140625 3.265625 19.00390625 5.828125 C18.98328125 6.6325 18.96265625 7.436875 18.94140625 8.265625 C13.74642798 10.01076037 9.67687218 10.45978965 4.12890625 10.078125 C2.82308594 10.00207031 1.51726562 9.92601563 0.171875 9.84765625 C-1.42720703 9.55955078 -1.42720703 9.55955078 -3.05859375 9.265625 C-5.05859375 6.265625 -5.05859375 6.265625 -4.80859375 4.203125 C-3.77870944 1.54259052 -2.89036941 0.37295089 0 0 Z " fill="#BBD8D0" transform="translate(163.05859375,63.734375)"/>
<path d="M0 0 C2.12472576 -0.05386629 4.24983652 -0.09273071 6.375 -0.125 C7.55835938 -0.14820312 8.74171875 -0.17140625 9.9609375 -0.1953125 C13 0 13 0 15 2 C15.25 5 15.25 5 15 8 C13 10 13 10 9.9609375 10.1953125 C8.77757812 10.17210938 7.59421875 10.14890625 6.375 10.125 C5.18648437 10.10695313 3.99796875 10.08890625 2.7734375 10.0703125 C1.85820312 10.04710938 0.94296875 10.02390625 0 10 C0 6.7 0 3.4 0 0 Z " fill="#BFD9D2" transform="translate(193,65)"/>
<path d="M0 0 C2.27203802 0.2821289 4.54261684 0.57602856 6.8125 0.875 C8.70935547 1.11863281 8.70935547 1.11863281 10.64453125 1.3671875 C14 2 14 2 17 4 C17.5 6.4375 17.5 6.4375 17 9 C14.68427762 11.24102166 12.95545194 11.95881673 9.734375 12.09765625 C5.22331207 11.79934402 5.22331207 11.79934402 3 11 C1.73046875 8.94140625 1.73046875 8.94140625 1 7 C1.66 7 2.32 7 3 7 C1.60240095 3.45481116 1.60240095 3.45481116 0 0 Z " fill="#A2CABF" transform="translate(157,78)"/>
<path d="M0 0 C3.26228517 3.57799018 4.89988029 6.09413403 5 11 C3.5646726 14.66008487 1.99560362 17.43233976 -1 20 C-0.67 20.598125 -0.34 21.19625 0 21.8125 C1 24 1 24 1 27 C1.66 27 2.32 27 3 27 C4.76462683 30.08809695 5 31.23312136 5 35 C2.03 35 -0.94 35 -4 35 C-4 34.01 -4 33.02 -4 32 C-2.02 32 -0.04 32 2 32 C-0.31 27.05 -2.62 22.1 -5 17 C-3.35 15.02 -1.7 13.04 0 11 C0.59656041 8.03709293 0.59656041 8.03709293 0.3125 5.125 C0.26738281 4.15820312 0.22226563 3.19140625 0.17578125 2.1953125 C0.08876953 1.10863281 0.08876953 1.10863281 0 0 Z " fill="#218A69" transform="translate(214,63)"/>
<path d="M0 0 C0 0.66 0 1.32 0 2 C1.32 2.33 2.64 2.66 4 3 C4.5625 4.9375 4.5625 4.9375 5 7 C3.10511048 8.89488952 0.42860854 8.18019112 -2.08984375 8.23046875 C-4 8 -4 8 -6 6 C-7.175625 5.54625 -8.35125 5.0925 -9.5625 4.625 C-13 3 -13 3 -13.9375 0.8125 C-13.958125 0.214375 -13.97875 -0.38375 -14 -1 C-9.2360146 -2.29926874 -4.48320269 -2.24160134 0 0 Z " fill="#C6D6D1" transform="translate(237,154)"/>
<path d="M0 0 C1.48046875 1.25390625 1.48046875 1.25390625 3 3 C3.47663995 9.00566342 3.17149579 12.34986824 -0.68359375 17.0546875 C-4.98449401 20.66657338 -10.59109422 20.06572182 -16 20 C-18.75379825 19.6642816 -20.44197177 19.16274011 -23 18 C-23.33 17.01 -23.66 16.02 -24 15 C-22.75863281 15.04640625 -21.51726562 15.0928125 -20.23828125 15.140625 C-18.59637829 15.17815421 -16.95444923 15.21455314 -15.3125 15.25 C-14.49587891 15.28351563 -13.67925781 15.31703125 -12.83789062 15.3515625 C-8.69707993 15.41862016 -6.5725115 15.35846774 -2.98046875 13.109375 C-0.11499901 10.0573954 0.12077772 8.45444071 0.0625 4.375 C0.05347656 3.55773437 0.04445312 2.74046875 0.03515625 1.8984375 C0.02355469 1.27195312 0.01195312 0.64546875 0 0 Z " fill="#21886A" transform="translate(180,79)"/>
<path d="M0 0 C0.66 0 1.32 0 2 0 C2.33760117 3.54481233 2.09891549 5.76919718 0.6875 9.0625 C-3.88898696 14.06470668 -9.86548582 15.95516194 -16.1875 18.0625 C-20.37205715 17.96950984 -23.44981342 16.09947582 -27 14 C-24.29968915 12.64984458 -22.25954321 13.01270361 -19.25 13.125 C-14.36144489 13.15423777 -11.07344916 12.95325064 -7 10 C-4.71809341 7.52250142 -3.05877484 5.10172569 -1.375 2.1875 C-0.92125 1.465625 -0.4675 0.74375 0 0 Z " fill="#1C8364" transform="translate(257,81)"/>
<path d="M0 0 C0.99 0.66 1.98 1.32 3 2 C2.14725483 8.91804535 -2.77976814 12.43012869 -7.9921875 16.58984375 C-12.82550352 19.93822533 -17.16342209 20.85138343 -23 21 C-23 20.34 -23 19.68 -23 19 C-22.04738281 18.54109375 -21.09476563 18.0821875 -20.11328125 17.609375 C-18.84619428 16.98991026 -17.5792761 16.37010019 -16.3125 15.75 C-15.68666016 15.44964844 -15.06082031 15.14929688 -14.41601562 14.83984375 C-8.95210357 12.15079802 -4.28064783 9.51255072 -1.6875 3.75 C-1.36136719 3.04359375 -1.03523438 2.3371875 -0.69921875 1.609375 C-0.46847656 1.07828125 -0.23773438 0.5471875 0 0 Z " fill="#2C9171" transform="translate(254,66)"/>
<path d="M0 0 C1.32 0 2.64 0 4 0 C5.3125 2.375 5.3125 2.375 6 6 C4.78306293 9.60191641 3.18674474 12.88696661 1 16 C0.01 16.33 -0.98 16.66 -2 17 C-3.72305453 13.55389094 -3.379435 9.77537825 -3 6 C-1.5 2.4375 -1.5 2.4375 0 0 Z " fill="#C7D8D4" transform="translate(367,116)"/>
<path d="M0 0 C3 1.5 3 1.5 5 3 C2.11788698 3.96070434 0.30149956 4.10581883 -2.6875 4.0625 C-3.89986328 4.04896484 -3.89986328 4.04896484 -5.13671875 4.03515625 C-6.05904297 4.01775391 -6.05904297 4.01775391 -7 4 C-7.33 4.66 -7.66 5.32 -8 6 C-8.99 6.33 -9.98 6.66 -11 7 C-12.14814997 9.29629994 -12.30769809 11.07698086 -12.5625 13.625 C-12.64628906 14.44226563 -12.73007813 15.25953125 -12.81640625 16.1015625 C-12.87699219 16.72804688 -12.93757812 17.35453125 -13 18 C-13.66 18 -14.32 18 -15 18 C-16.50186547 13.49440359 -16.71589695 9.65786663 -14.8125 5.25 C-10.72502122 0.17588842 -6.27203883 -0.98632869 0 0 Z " fill="#419A7F" transform="translate(242,65)"/>
<path d="M0 0 C0.680625 -0.01417969 1.36125 -0.02835937 2.0625 -0.04296875 C4 0.1875 4 0.1875 7 2.1875 C6.67 3.8375 6.34 5.4875 6 7.1875 C-1.75 8.3125 -1.75 8.3125 -4 7.1875 C-4 6.5275 -4 5.8675 -4 5.1875 C-4.66 5.1875 -5.32 5.1875 -6 5.1875 C-6.33 3.8675 -6.66 2.5475 -7 1.1875 C-4.35559361 0.3060312 -2.71939248 0.02575182 0 0 Z " fill="#C7DAD6" transform="translate(295,93.8125)"/>
<path d="M0 0 C2 1.125 2 1.125 3 4.125 C1 6.125 1 6.125 -1.53125 6.171875 C-3.00078125 6.02492187 -3.00078125 6.02492187 -4.5 5.875 C-5.4796875 5.78734375 -6.459375 5.6996875 -7.46875 5.609375 C-10 5.125 -10 5.125 -12 3.125 C-12.69748583 1.80752676 -13.36959957 0.47585807 -14 -0.875 C-9.85193787 -2.94903107 -4.28401821 -1.24950531 0 0 Z " fill="#C0D1CC" transform="translate(224,142.875)"/>
<path d="M0 0 C2.375 -0.1875 2.375 -0.1875 5 0 C5.66 0.99 6.32 1.98 7 3 C6.35546875 6.1015625 6.35546875 6.1015625 5.1875 9.625 C4.80980469 10.79289062 4.43210938 11.96078125 4.04296875 13.1640625 C3 16 3 16 2 17 C0.33382885 17.04063832 -1.33388095 17.042721 -3 17 C-2.01 15.515 -2.01 15.515 -1 14 C-0.70547416 11.61322924 -0.5071783 9.21373906 -0.375 6.8125 C-0.30023438 5.54019531 -0.22546875 4.26789063 -0.1484375 2.95703125 C-0.09945312 1.98121094 -0.05046875 1.00539063 0 0 Z " fill="#BBD2CC" transform="translate(195,84)"/>
<path d="M0 0 C1.9375 0.8125 1.9375 0.8125 4 2 C4.33 2.99 4.66 3.98 5 5 C5.66 5 6.32 5 7 5 C6.78515625 6.859375 6.78515625 6.859375 6 9 C3.93359375 10.265625 3.93359375 10.265625 1.4375 11.25 C0.61121094 11.58515625 -0.21507812 11.9203125 -1.06640625 12.265625 C-1.70449219 12.50796875 -2.34257812 12.7503125 -3 13 C-3.4726477 4.80743982 -3.4726477 4.80743982 -1.5 1.4375 C-0.7575 0.7259375 -0.7575 0.7259375 0 0 Z " fill="#C2D9D3" transform="translate(232,70)"/>
<path d="M0 0 C1.23556641 0.01740234 1.23556641 0.01740234 2.49609375 0.03515625 C3.32238281 0.04417969 4.14867187 0.05320313 5 0.0625 C5.63808594 0.07410156 6.27617187 0.08570313 6.93359375 0.09765625 C6.93359375 1.41765625 6.93359375 2.73765625 6.93359375 4.09765625 C2.10429 6.10005049 -0.96768463 5.93199251 -6.06640625 5.09765625 C-8.87878166 5.4574052 -8.87878166 5.4574052 -11.06640625 6.09765625 C-10.73640625 4.77765625 -10.40640625 3.45765625 -10.06640625 2.09765625 C-8.93203125 1.95328125 -7.79765625 1.80890625 -6.62890625 1.66015625 C-3.60888417 1.18331066 -2.70258268 0.1277213 0 0 Z " fill="#C0CFCC" transform="translate(274.06640625,140.90234375)"/>
<path d="M0 0 C0.7425 0.5878125 0.7425 0.5878125 1.5 1.1875 C1.17 2.5075 0.84 3.8275 0.5 5.1875 C-0.06589844 5.32027344 -0.63179688 5.45304687 -1.21484375 5.58984375 C-2.31505859 5.85474609 -2.31505859 5.85474609 -3.4375 6.125 C-4.16839844 6.29902344 -4.89929688 6.47304687 -5.65234375 6.65234375 C-7.49969898 7.02637569 -7.49969898 7.02637569 -8.5 8.1875 C-10.83297433 8.22842937 -13.16705225 8.22991723 -15.5 8.1875 C-11.85883054 3.06710545 -6.80770265 -2.21250336 0 0 Z " fill="#C8DAD5" transform="translate(265.5,70.8125)"/>
<path d="M0 0 C-0.66 2.97 -1.32 5.94 -2 9 C-6.75 10.125 -6.75 10.125 -9 9 C-9.59355614 6.35139573 -9.74209269 3.70802678 -10 1 C-3.375 0 -3.375 0 0 0 Z " fill="#CCDAD6" transform="translate(263,109)"/>
<path d="M0 0 C2.97 0 5.94 0 9 0 C9.33 0.99 9.66 1.98 10 3 C9.34 3.66 8.68 4.32 8 5 C6.02 4.34 4.04 3.68 2 3 C2 7.29 2 11.58 2 16 C-0.31 16 -2.62 16 -5 16 C-5 15.34 -5 14.68 -5 14 C-3.35 14 -1.7 14 0 14 C0 9.38 0 4.76 0 0 Z " fill="#3F977D" transform="translate(193,81)"/>
<path d="M0 0 C0.33 0.99 0.66 1.98 1 3 C-1.10078511 6.07614963 -2.88621595 7.92414397 -6 10 C-8.19140625 10.265625 -8.19140625 10.265625 -10.5625 10.25 C-11.74005859 10.25773437 -11.74005859 10.25773437 -12.94140625 10.265625 C-15 10 -15 10 -17 8 C-16.443125 7.84144531 -15.88625 7.68289062 -15.3125 7.51953125 C-9.59683956 5.77200669 -4.91448437 3.38791429 0 0 Z " fill="#B6D6CE" transform="translate(249,79)"/>
<path d="M0 0 C0.8971875 0.309375 0.8971875 0.309375 1.8125 0.625 C0.46615543 5.0312186 -1.38124374 7.05577702 -5.1875 9.625 C-5.8475 9.625 -6.5075 9.625 -7.1875 9.625 C-6.66481534 6.86223823 -6.07880413 4.2989124 -5.1875 1.625 C-2.1875 -0.375 -2.1875 -0.375 0 0 Z " fill="#C5D3CF" transform="translate(342.1875,132.375)"/>
<path d="M0 0 C3 1.5 3 1.5 5 3 C2.11788698 3.96070434 0.30149956 4.10581883 -2.6875 4.0625 C-3.89986328 4.04896484 -3.89986328 4.04896484 -5.13671875 4.03515625 C-6.05904297 4.01775391 -6.05904297 4.01775391 -7 4 C-7.33 4.66 -7.66 5.32 -8 6 C-8 5.34 -8 4.68 -8 4 C-8.99 4 -9.98 4 -11 4 C-10.67 3.01 -10.34 2.02 -10 1 C-6.81558048 -0.59220976 -3.4662845 -0.3976617 0 0 Z " fill="#1E8164" transform="translate(242,65)"/>
<path d="M0 0 C0.99 0.66 1.98 1.32 3 2 C2.68232368 7.40049736 -0.19996327 9.52337065 -4 13 C-4.99 12.67 -5.98 12.34 -7 12 C-6.57847656 11.38511719 -6.15695313 10.77023438 -5.72265625 10.13671875 C-4.90087891 8.92435547 -4.90087891 8.92435547 -4.0625 7.6875 C-3.51722656 6.88699219 -2.97195312 6.08648437 -2.41015625 5.26171875 C-0.86162674 2.9741857 -0.86162674 2.9741857 0 0 Z " fill="#288469" transform="translate(254,66)"/>
<path d="M0 0 C4.29 0 8.58 0 13 0 C13.33 0.66 13.66 1.32 14 2 C10.04 2 6.08 2 2 2 C2 4.64 2 7.28 2 10 C1.34 10 0.68 10 0 10 C0 6.7 0 3.4 0 0 Z " fill="#1E8867" transform="translate(193,65)"/>
<path d="M0 0 C1.21236328 0.04060547 1.21236328 0.04060547 2.44921875 0.08203125 C3.06410156 0.11683594 3.67898437 0.15164062 4.3125 0.1875 C4.6425 0.8475 4.9725 1.5075 5.3125 2.1875 C4.03375 2.435 2.755 2.6825 1.4375 2.9375 C-1.95497318 3.70740586 -1.95497318 3.70740586 -4.1875 6.3125 C-4.3525 6.93125 -4.5175 7.55 -4.6875 8.1875 C-5.3475 8.1875 -6.0075 8.1875 -6.6875 8.1875 C-7.375 5.875 -7.375 5.875 -7.6875 3.1875 C-5.4587174 0.07893479 -3.70889568 -0.16125633 0 0 Z " fill="#349477" transform="translate(165.6875,63.8125)"/>
<path d="M0 0 C4.95 0.33 9.9 0.66 15 1 C14.67 1.99 14.34 2.98 14 4 C9.78892722 5.26332183 7.4543291 5.00441956 3.625 3.0625 C2.40811576 2.39025121 1.1966397 1.70765749 0 1 C0 0.67 0 0.34 0 0 Z " fill="#479C82" transform="translate(230,94)"/>
<path d="M0 0 C2.475 0.495 2.475 0.495 5 1 C5.33 1.66 5.66 2.32 6 3 C5.01 3.495 5.01 3.495 4 4 C3.09274566 6.11327425 3.09274566 6.11327425 2.375 8.5625 C2.11460937 9.38878906 1.85421875 10.21507813 1.5859375 11.06640625 C1.39257812 11.70449219 1.19921875 12.34257813 1 13 C0.67 13 0.34 13 0 13 C0 8.71 0 4.42 0 0 Z " fill="#C1DBD6" transform="translate(196,84)"/>
<path d="M0 0 C0.33 0.66 0.66 1.32 1 2 C1.66 2 2.32 2 3 2 C3 2.66 3 3.32 3 4 C1.73581754 4.69965443 0.46334598 5.38434763 -0.8125 6.0625 C-1.52019531 6.44535156 -2.22789062 6.82820313 -2.95703125 7.22265625 C-5 8 -5 8 -8 7 C-8 6.34 -8 5.68 -8 5 C-7.05125 4.54625 -6.1025 4.0925 -5.125 3.625 C-1.99686321 2.19761746 -1.99686321 2.19761746 0 0 Z " fill="#229071" transform="translate(252,89)"/>
<path d="M0 0 C0.33 0 0.66 0 1 0 C1 4.29 1 8.58 1 13 C-1.31 13 -3.62 13 -6 13 C-6 12.34 -6 11.68 -6 11 C-4.35 11 -2.7 11 -1 11 C-1.020625 9.741875 -1.04125 8.48375 -1.0625 7.1875 C-1.10886083 4.35948913 -0.91692961 2.75078884 0 0 Z " fill="#1F896A" transform="translate(194,84)"/>
<path d="M0 0 C0 2.62113708 -0.31292445 4.50935112 -1 7 C-3.31 7 -5.62 7 -8 7 C-3.375 1.125 -3.375 1.125 0 0 Z " fill="#ACCEC7" transform="translate(258,72)"/>
<path d="M0 0 C4.95 0.33 9.9 0.66 15 1 C15 1.33 15 1.66 15 2 C13.02 2.33 11.04 2.66 9 3 C9 3.33 9 3.66 9 4 C6.69 4 4.38 4 2 4 C1.34 2.68 0.68 1.36 0 0 Z " fill="#509C85" transform="translate(156,94)"/>
<path d="M0 0 C0.33 0 0.66 0 1 0 C1.60709557 6.92088947 0.44071801 9.67113839 -4 15 C-4.66 14.67 -5.32 14.34 -6 14 C-5.34 12.68 -4.68 11.36 -4 10 C-3.34 10 -2.68 10 -2 10 C-1.34 6.7 -0.68 3.4 0 0 Z " fill="#9FCDC0" transform="translate(183,84)"/>
<path d="M0 0 C0.66 0.33 1.32 0.66 2 1 C2 2.65 2 4.3 2 6 C0.02 6 -1.96 6 -4 6 C-4.33 5.01 -4.66 4.02 -5 3 C-3.35 3 -1.7 3 0 3 C0 2.01 0 1.02 0 0 Z " fill="#3C977B" transform="translate(180,66)"/>
<path d="M0 0 C3.3 0 6.6 0 10 0 C9.67 1.32 9.34 2.64 9 4 C7.35 4.33 5.7 4.66 4 5 C4.66 4.67 5.32 4.34 6 4 C6 3.01 6 2.02 6 1 C4.02 1 2.04 1 0 1 C0 0.67 0 0.34 0 0 Z " fill="#C4D1CC" transform="translate(168,129)"/>
<path d="M0 0 C0.66 0.33 1.32 0.66 2 1 C1.8125 2.875 1.8125 2.875 1 5 C-1.5625 6.25 -1.5625 6.25 -4 7 C-4.33 6.01 -4.66 5.02 -5 4 C-3.35 2.68 -1.7 1.36 0 0 Z " fill="#268F70" transform="translate(247,76)"/>
<path d="M0 0 C0.66 0.33 1.32 0.66 2 1 C1.1875 2.9375 1.1875 2.9375 0 5 C-0.99 5.33 -1.98 5.66 -3 6 C-3.33 6.66 -3.66 7.32 -4 8 C-4.33 7.01 -4.66 6.02 -5 5 C-3.35 3.35 -1.7 1.7 0 0 Z " fill="#147E5F" transform="translate(215,76)"/>
<path d="M0 0 C1.98 0 3.96 0 6 0 C4.75 2 4.75 2 3 4 C1.68 4 0.36 4 -1 4 C-0.67 2.68 -0.34 1.36 0 0 Z " fill="#C6D5D1" transform="translate(264,143)"/>
<path d="M0 0 C1.65 0.33 3.3 0.66 5 1 C3.35 2.65 1.7 4.3 0 6 C-0.66 5.67 -1.32 5.34 -2 5 C-1.34 3.35 -0.68 1.7 0 0 Z " fill="#2C9173" transform="translate(229,68)"/>
<path d="M0 0 C0.33 0.99 0.66 1.98 1 3 C-0.32 4.32 -1.64 5.64 -3 7 C-3.99 6.67 -4.98 6.34 -6 6 C-4 4 -2 2 0 0 Z " fill="#198666" transform="translate(253,72)"/>
<path d="M0 0 C2.25245881 2.68841859 3.88213958 4.64641875 5 8 C3.68 8.33 2.36 8.66 1 9 C0.67 6.03 0.34 3.06 0 0 Z " fill="#32856C" transform="translate(214,63)"/>
<path d="M0 0 C-3.13498292 1.85776765 -5.37471432 2.20140476 -9 2 C-9 1.34 -9 0.68 -9 0 C-5.93109813 -1.53445094 -3.29905734 -0.54984289 0 0 Z " fill="#369377" transform="translate(240,85)"/>
</svg>
