<svg width="157" height="113" viewBox="0 0 157 113" fill="none" xmlns="http://www.w3.org/2000/svg">
<mask id="mask0_1567_898" style="mask-type:luminance" maskUnits="userSpaceOnUse" x="88" y="0" width="23" height="9">
<path d="M88.2148 0H110.995V8.54075H88.2148V0Z" fill="white"/>
</mask>
<g mask="url(#mask0_1567_898)">
<path d="M95.3883 0.0928615L95.1137 0.106783C94.364 0.18103 93.4817 0.552266 92.4631 1.22281C91.6622 1.79823 90.9484 2.369 90.3217 2.93746C89.8029 3.36438 89.1573 4.06973 88.3867 5.04886L89.8578 5.13935C90.6928 4.30175 91.4956 3.65209 92.2643 3.18804L92.8361 2.87249C93.2128 2.68687 93.582 2.54766 93.9418 2.45485C94.3015 2.36204 94.6536 2.31332 94.9982 2.31332C95.6382 2.42933 96.0907 2.70776 96.3539 3.15324C96.4504 3.31333 96.5205 3.49431 96.5678 3.69617L96.9862 5.90967C97.2986 6.54773 97.594 6.8888 97.8704 6.93521C97.9973 6.98393 98.1885 6.96769 98.4422 6.88416C98.6599 6.80991 99.192 6.51989 100.036 6.01408C100.231 5.91895 100.455 5.83542 100.71 5.76581C100.921 5.71013 101.155 5.673 101.411 5.65908C101.648 5.64516 101.922 5.65212 102.236 5.67996C102.235 5.66836 102.253 5.66372 102.293 5.6614L102.452 5.67996C102.865 5.72869 104.654 6.23914 107.818 7.21363C108.653 7.5315 109.509 7.90738 110.387 8.34358C110.541 8.40855 110.645 8.43871 110.696 8.43175C110.719 8.42943 110.736 8.42479 110.749 8.41551C110.497 7.97931 110.209 7.54775 109.884 7.12778C109.56 6.7055 109.198 6.2925 108.801 5.88646C108.647 5.673 107.968 5.08367 106.763 4.11381C106.254 3.7333 105.711 3.35742 105.129 2.99314C104.137 2.48501 103.46 2.25531 103.098 2.30404C102.587 2.25995 101.898 2.55694 101.032 3.19268C100.877 3.25301 100.693 3.25997 100.485 3.21124C100.407 3.21124 100.141 3.04419 99.6804 2.71008C98.7432 2.00937 97.8685 1.32954 97.0563 0.672918C96.3349 0.250637 95.7783 0.0580579 95.3883 0.0928615Z" fill="white"/>
</g>
<path d="M136.209 24.2349L137.447 26.7036C139.182 27.5783 140.244 28.1932 140.637 28.5482C141.283 29.0308 141.768 29.5041 142.086 29.9681C142.491 30.5807 142.747 31.1375 142.855 31.6387L143.163 35.6736C143.303 36.0123 143.532 36.3604 143.849 36.72C144.021 36.894 144.206 36.9775 144.405 36.9775C144.78 36.9799 145.424 36.4833 146.342 35.4903C148.014 32.6248 149.4 30.6433 150.496 29.5435C150.776 29.2025 152.639 28.2048 156.089 26.5481C156.716 26.1514 157.019 25.8985 157 25.7941C156.772 25.6363 156.148 25.6827 155.123 25.9309C152.66 26.5806 151.115 27.0911 150.492 27.4623C149.635 27.8846 148.126 29.1143 145.965 31.1538C145.551 31.4438 145.202 31.5761 144.922 31.5459C144.659 31.5088 144.449 31.3904 144.29 31.1886C143.515 29.7918 142.953 28.9078 142.603 28.5412C142.133 27.9565 141.63 27.4507 141.098 27.0238C140.711 26.6943 140.333 26.3927 139.958 26.1189L139.399 25.7268C139.03 25.4808 138.667 25.2604 138.307 25.0655C137.589 24.6803 136.889 24.4019 136.209 24.2349Z" fill="white"/>
<path d="M111.624 69.0708L111.344 69.0847C110.962 69.1241 110.541 69.2401 110.085 69.435C109.237 69.8411 108.631 70.1938 108.267 70.4884C107.398 71.1381 106.715 71.9455 106.221 72.9131L108.443 72.8713C109.937 72.5882 111.024 72.326 111.706 72.0801C111.884 72.036 112.128 72.0035 112.442 71.978C113.005 71.9455 113.531 72.1103 114.021 72.4676C115.099 73.3098 115.954 74.6231 116.59 76.412C116.793 76.9386 116.88 77.4537 116.848 77.9549C116.833 78.2055 116.787 78.4538 116.712 78.6974C116.473 79.303 116.295 79.6626 116.176 79.774C116.236 80.187 116.543 80.4352 117.092 80.5188C117.503 80.4793 118.179 80.1568 119.118 79.5512C119.98 78.8946 121.17 77.9131 122.689 76.6069C123.344 76.1312 123.802 75.869 124.063 75.8157C125.256 75.9781 126.292 76.2913 127.17 76.7577C127.422 76.8273 128.074 77.2588 129.121 78.05C129.528 78.3934 129.918 78.7716 130.289 79.1893C130.12 78.6904 129.938 78.2217 129.742 77.7809C128.977 76.0129 127.915 74.7298 126.555 73.9316C126.184 73.753 125.802 73.6254 125.404 73.5511C125.135 73.4722 124.599 73.449 123.795 73.4815C123.16 73.5581 121.778 73.9711 119.648 74.7182C119.34 74.7855 119.076 74.7785 118.859 74.6996C118.69 74.6857 118.342 74.4305 117.814 73.9316C116 71.9084 114.843 70.6972 114.343 70.2982C113.294 69.4397 112.387 69.029 111.624 69.0708Z" fill="white"/>
<path d="M59.1857 82.3957H59.1611C58.2333 82.3678 56.9818 82.4676 55.4028 82.6927C54.5451 82.8203 53.5701 83.0477 52.4738 83.3725C52.2371 83.4189 52.0232 83.4421 51.832 83.4491C51.5366 83.456 51.1901 83.4328 50.7906 83.3818C49.4521 83.1219 48.6228 82.9734 48.3009 82.9386C47.5265 82.8713 46.6121 82.8829 45.5575 82.978C43.3953 83.166 41.7954 83.5674 40.7598 84.1822L43.4199 83.6672L43.755 83.6463C44.7225 83.5836 45.7544 83.6625 46.8563 83.8853C47.7632 84.0918 48.6758 84.4282 49.5941 84.8992C49.7777 84.9943 50.3041 85.4723 51.175 86.3308C51.334 86.4352 51.4874 86.4932 51.6351 86.5071C51.7203 86.5187 51.8679 86.4653 52.0762 86.347C53.1422 85.528 53.8067 85.05 54.0718 84.9154C54.5035 84.6509 55.1889 84.3911 56.1279 84.1335C57.2261 83.876 58.4037 83.6904 59.6571 83.5767C60.2876 83.5187 60.937 83.4769 61.6073 83.4537L64.6233 83.4212C64.8865 83.4235 65.0872 83.391 65.2273 83.3261C65.2974 83.2704 65.1819 83.1985 64.8789 83.1103L63.9133 82.9618C61.4482 82.5836 59.873 82.3957 59.1857 82.3957Z" fill="white"/>
<path d="M3.52148 101.208L4.73132 102.234C5.55114 103.104 7.02415 104.315 9.14658 105.869C9.6237 106.296 9.97964 106.674 10.2125 107.002C10.5552 107.517 10.79 108.032 10.9149 108.547C11.091 110.64 11.2273 111.779 11.322 111.967C11.4829 112.28 11.6496 112.505 11.8256 112.642C11.9468 112.788 12.2365 112.902 12.6947 112.988C13.6603 113.069 14.5483 112.737 15.3567 111.997L19.079 107.491C19.8572 106.582 20.9231 105.644 22.2731 104.686C22.4169 104.535 22.4435 104.398 22.3507 104.271C22.2579 104.199 22.0761 104.199 21.8035 104.268C21.2355 104.435 20.6183 104.64 19.9537 104.876C18.5489 105.428 17.6155 105.879 17.1497 106.231C16.7332 106.498 16.292 106.858 15.8281 107.31C15.5101 107.63 14.9724 108.38 14.2131 109.556C13.9935 109.779 13.8326 109.876 13.7303 109.853C13.5524 109.853 13.2816 109.633 12.9143 109.187C10.9055 106.234 9.47223 104.38 8.61455 103.633C7.47666 102.758 6.59436 102.178 5.96767 101.895L5.43564 101.649C5.08727 101.505 4.75404 101.396 4.43596 101.322C4.11788 101.247 3.81306 101.21 3.52148 101.208Z" fill="white"/>
<path d="M28.4544 40.0703L28.2442 40.075C27.8201 40.1005 27.4055 40.1956 27.0003 40.3603C26.2941 40.6805 25.8094 40.9752 25.5406 41.249C25.1789 41.4949 24.4254 42.5669 23.2799 44.4695C23.0565 44.7456 22.8274 44.9033 22.5907 44.9405C22.3446 44.959 22.0606 44.8198 21.7387 44.5251C20.4399 42.4996 19.3569 41.3557 18.486 41.0889C18.0184 40.8894 17.6832 40.7826 17.4806 40.7641C17.2156 40.7177 16.9392 40.7014 16.6533 40.7177C16.0701 40.7548 15.4813 40.9358 14.8887 41.2583L15.9679 41.242C16.3181 41.4648 16.6457 41.7339 16.9524 42.0495C17.3917 42.5205 17.6264 42.8059 17.6567 42.9056L18.9896 45.3349C19.1316 45.56 19.3986 45.8546 19.7905 46.2212C20.3225 46.6598 21.0799 46.8895 22.0625 46.915C22.4185 46.8918 22.6778 46.8059 22.8407 46.6551C23.439 45.7502 24.5144 44.8523 26.065 43.9613C27.1575 43.3279 27.9148 42.9335 28.337 42.778C29.4768 42.3209 30.3648 42.0147 31.0009 41.8546L31.1107 41.7409C31.3645 41.4346 31.2849 41.1167 30.8741 40.7873C30.5939 40.6016 30.1395 40.4091 29.5109 40.2118C29.153 40.1167 28.8009 40.0703 28.4544 40.0703Z" fill="white"/>
<mask id="mask1_1567_898" style="mask-type:luminance" maskUnits="userSpaceOnUse" x="0" y="21" width="27" height="8">
<path d="M0 21.0142H26.6581V28.1419H0V21.0142Z" fill="white"/>
</mask>
<g mask="url(#mask1_1567_898)">
<path d="M2.26046 21.4434H2.01811C1.37059 21.455 0.694674 21.506 -0.00585938 21.5965L2.12793 21.7868C3.17494 22.1023 4.42833 22.6893 5.88619 23.5478C6.99758 24.1998 7.92152 24.8146 8.65424 25.3901C9.01019 25.6569 9.3775 26.3367 9.75616 27.4342C9.86787 27.5432 10.0042 27.6105 10.1689 27.6407C10.4075 27.6871 10.6782 27.6662 10.9868 27.5804C12.2573 26.9817 13.1982 26.636 13.8117 26.5455C14.7527 26.3738 15.8281 26.288 17.036 26.2903C17.9089 26.288 19.0127 26.3738 20.3475 26.5409C21.0196 26.6267 21.758 26.7312 22.5589 26.8564C24.6718 27.2091 26.018 27.4481 26.5936 27.5688C23.0871 26.1882 20.7167 25.3715 19.4841 25.1163C18.3292 24.9098 17.4109 24.8077 16.7293 24.8123C16.0155 24.7868 15.1313 24.9191 14.0805 25.2091C13.8628 25.2346 13.6186 25.216 13.3459 25.1534C9.31691 23.2578 6.88776 22.209 6.05849 22.0049C5.25761 21.7636 4.60819 21.6151 4.10457 21.5617C3.51574 21.4828 2.90041 21.4434 2.26046 21.4434Z" fill="white"/>
</g>
<path d="M40.5645 24.2349L41.4827 26.163C43.2075 26.7384 44.4439 27.279 45.1918 27.7894C46.8768 28.9797 48.045 30.1259 48.6925 31.228C49.2473 32.1654 49.4063 32.9984 49.1715 33.7246C49.0201 34.4114 48.5183 35.2977 47.6682 36.3812C47.5811 36.5947 47.5811 36.7107 47.6626 36.7339C48.0621 36.7641 48.5638 36.6643 49.1678 36.4346L52.3694 34.8081L56.7127 33.242C57.949 32.8591 59.2403 32.5041 60.5902 32.1793C61.3173 31.9078 61.6675 31.7013 61.6429 31.5598C61.0882 31.2187 59.8973 30.873 58.0683 30.518C57.4151 30.4043 56.6938 30.3951 55.9042 30.4902C55.2018 30.5621 54.3744 30.8104 53.424 31.2396C53.0226 31.4299 52.3164 31.9891 51.3053 32.9148C51.1425 33.0123 51.0119 33.0378 50.9134 32.9914C50.1939 31.5297 49.7623 30.7013 49.6241 30.5064C49.3363 30.0122 49.0447 29.5551 48.7474 29.1352C48.1548 28.2976 47.5414 27.6062 46.909 27.0632C46.608 26.7546 45.9377 26.3532 44.8964 25.859C44.2716 25.5597 43.1318 25.1908 41.4789 24.7546C41.2158 24.6641 40.9109 24.4924 40.5645 24.2349Z" fill="white"/>
<path d="M55.4602 49.1724L55.4375 50.5088C56.138 51.2443 56.8575 51.9265 57.5978 52.5576L58.7205 53.4671C59.6767 54.1678 60.256 54.5738 60.4605 54.6829C61.2122 55.1446 61.7518 55.4347 62.0812 55.5483C62.4296 55.7154 63.2077 55.9405 64.4176 56.2235C64.5937 56.2839 64.7508 56.372 64.8909 56.488C65.0291 56.6064 65.1484 56.7502 65.2487 56.9219L66.8978 59.9289C67.1156 60.2445 67.3049 60.386 67.4677 60.3558C67.5927 60.3883 67.7972 60.2352 68.0831 59.8941C68.7893 58.2723 69.5693 57.0959 70.4251 56.3697C71.9379 54.9636 74.0982 53.256 76.9041 51.249C77.7807 50.423 78.1745 49.9288 78.0836 49.7663C78.0723 49.5622 77.7163 49.5622 77.0158 49.764C74.2534 51.3859 71.9758 52.5924 70.1828 53.3836C68.7893 54.0611 67.712 54.3789 66.9509 54.3395C66.1935 54.3743 65.0518 54.024 63.5277 53.2908C61.7802 52.4833 59.7202 51.3047 57.3479 49.7524C57.0961 49.6132 56.7231 49.4624 56.2289 49.3023C55.9544 49.2257 55.6988 49.1816 55.4602 49.1724Z" fill="white"/>
</svg>
