<svg width="170" height="270" viewBox="0 0 170 270" fill="none" xmlns="http://www.w3.org/2000/svg">
<mask id="mask0_1053_1359" style="mask-type:luminance" maskUnits="userSpaceOnUse" x="0" y="-41" width="431" height="311">
<path d="M0 -41H430.667V269.578H0V-41Z" fill="white"/>
</mask>
<g mask="url(#mask0_1053_1359)">
<path d="M12.8229 11.5728C19.9791 -7.4585 34.0104 -25.2137 53.5364 -32.422C76.6718 -40.9689 101.333 -32.3023 122.641 -22.6564C143.625 -13.1616 164.641 -2.0835 188.141 -0.80225C198.562 -0.234543 209.057 -2.50017 218.427 -7.06787C228 -11.7345 236.146 -18.9585 245.557 -23.995C264.151 -33.9481 285.896 -38.5314 305.854 -29.7918C314.156 -26.1616 321.771 -20.4116 326.604 -12.646C331.661 -4.521 332.818 4.92692 331.745 14.3071C329.578 33.2186 319.573 50.9009 320.187 70.203C320.74 87.6925 331.87 100.135 346.839 107.786C362.474 115.776 380.333 119.427 394.714 129.828C409.411 140.458 419.437 156.89 423.635 174.411C427.844 191.995 426.073 211.078 417.089 226.932C408.141 242.713 392.943 254.505 375.932 260.484C358.859 266.489 339.99 266.75 323.151 259.802C303.479 251.677 287.87 236.463 269.141 226.63C230.25 206.219 187.38 221.036 146.745 226.265C126.151 228.917 104.979 228.979 85.4791 220.974C66.0572 212.995 49.6406 198.437 37.625 181.375C24.5677 162.833 16.6614 141.198 11.9583 119.13C6.93224 95.5571 4.43745 70.5519 5.92183 46.4582C6.66141 34.5363 8.79682 22.828 12.8229 11.5728C13.8072 8.83317 9.44787 7.65609 8.47391 10.3748C-0.0208836 34.1092 0.16141 59.6769 2.38537 84.479C4.55724 108.786 9.02599 133.109 18.4947 155.703C34.6979 194.39 67.4843 227.219 110.656 231.797C155.203 236.526 198.87 213.609 243.26 222.213C265.641 226.552 282.714 240.823 301.297 252.958C317.917 263.818 335.828 270.927 355.964 269.312C392.016 266.432 424.76 239.812 429.635 203.099C432.021 185.167 428.073 166.526 419.151 150.828C409.932 134.609 396 123.458 378.974 116.265C362.896 109.463 342.656 104.922 331.583 90.2707C318.479 72.9269 327.344 50.9686 332.479 32.4269C337.474 14.4217 339.594 -4.80225 326.714 -20.0939C315.208 -33.7502 295.891 -40.3075 278.37 -38.9377C267.536 -38.0887 257.068 -34.6981 247.333 -29.9637C236.745 -24.8179 227.875 -17.0262 217.5 -11.6408C193.891 0.598789 167.078 -7.4585 144.245 -17.5522C122.151 -27.3179 100.203 -39.8908 75.3958 -40.4273C54.3385 -40.8856 35.4947 -30.9012 22.4791 -14.6095C16.4583 -7.06787 11.8697 1.354 8.47912 10.3748C7.45308 13.0936 11.8125 14.2707 12.8229 11.5728Z" fill="#C8DBBE"/>
</g>
</svg>
