<svg width="341" height="432" viewBox="0 0 341 432" fill="none" xmlns="http://www.w3.org/2000/svg">
<mask id="mask0_1326_877" style="mask-type:luminance" maskUnits="userSpaceOnUse" x="77" y="61" width="264" height="337">
<path d="M77.1719 61.9561H340.807V397.956H77.1719V61.9561Z" fill="white"/>
</mask>
<g mask="url(#mask0_1326_877)">
<path d="M340.578 397.217C306.766 381.488 273.188 364.597 242.552 342.899C211.995 320.936 185.979 293.837 160.276 266.79C147.63 253.097 134.276 239.878 123.88 223.91C113.495 207.92 106.901 190.008 101.417 172.154C90.1875 136.446 82.0521 99.7741 77.2812 62.7324L77.7552 62.6543C85.4635 99.1699 94.8594 135.201 106.146 170.67C111.891 188.295 118 205.883 127.703 221.482C137.479 236.998 150.292 250.727 162.255 265.024C174.427 279.128 186.974 292.951 200.724 305.535C214.385 318.227 229.349 329.357 244.833 339.623C275.563 360.514 308.417 378.16 340.807 396.785L340.578 397.217Z" fill="#89C190"/>
</g>
<path d="M96.5205 90.6796C93.5257 94.3879 89.5674 97.9661 84.3486 98.4557C79.0361 98.7213 74.4736 95.4036 70.7861 92.2629C67.0517 88.9609 63.7965 85.3098 60.6455 81.6379C57.3851 77.8879 54.557 73.7057 52.3017 69.1536C50.1351 64.5754 48.609 59.4869 48.5309 54.2161C48.4163 48.9244 49.833 43.8932 51.4736 39.2629C54.8434 30.0546 59.083 21.2577 64.0726 12.8931C65.3017 10.8046 66.5622 8.71085 67.859 6.67961L69.859 3.62752C70.557 2.64836 70.932 1.50252 72.2913 0.502522C73.7392 -0.476645 75.5882 0.143147 76.5882 0.934813C77.6767 1.72648 78.5049 2.77856 79.1872 3.77856C80.5778 5.75773 82.0518 7.67961 83.3851 9.71086C88.9111 17.6796 94.109 25.9661 98.1768 34.8723C102.078 43.7629 105.317 53.2734 105.526 63.2942C105.677 68.2473 105.031 73.2525 103.547 77.9452C101.984 82.5963 99.6247 86.9452 96.5205 90.6796ZM96.1455 90.3775C99.1611 86.6692 101.38 82.2734 102.323 77.6275C103.208 72.9557 103.244 68.19 102.51 63.5598C101.041 54.2942 97.7445 45.3463 94.484 36.3984C91.1455 27.5077 87.2705 18.6588 82.0882 10.5754C80.7861 8.56502 79.4528 6.56502 77.9997 4.66398C76.7549 2.83586 74.5882 0.934813 73.234 1.91398C72.5934 2.34627 72.0101 3.55461 71.3851 4.57023L69.6715 7.71606C68.5413 9.84106 67.4476 11.9713 66.4163 14.1379C62.307 22.7994 58.7653 31.7109 55.7861 40.7109C54.3382 45.1952 53.3174 49.6796 53.5465 54.065C53.7861 58.4713 55.0101 62.8411 56.958 66.9504C58.8174 71.1067 61.4372 74.9921 64.2653 78.7161C67.2236 82.5234 69.9736 86.4609 73.0257 89.9973C76.0726 93.4452 79.7288 96.7786 84.3278 97.1015C88.9632 97.289 93.1611 93.9921 96.1455 90.3775Z" fill="#89C190"/>
<path d="M75.5309 130.3C71.3486 125.013 67.583 119.44 63.7966 113.92C61.9684 111.17 60.0413 108.571 57.8018 106.519C55.6143 104.466 52.8643 103.222 49.8538 102.055C46.8174 100.904 43.5413 99.8311 40.4111 98.1019C37.3018 96.3623 34.6091 94.2008 32.0257 92.055C26.9997 87.7581 21.4372 83.4092 14.9007 83.2946L15.5257 81.7894L25.208 89.8883C28.4476 92.6383 31.5778 95.8363 33.8382 99.7217C36.1351 103.466 37.6403 107.44 39.6559 110.847C41.6559 114.315 44.0674 116.951 47.3643 118.743C50.6611 120.508 54.6143 121.753 58.6091 123.164L70.4268 127.513C74.3643 128.93 78.2653 130.529 82.1611 132.076C84.1403 132.847 85.9476 133.675 87.833 133.826C88.7549 133.904 89.7913 133.696 90.8851 133.618C91.9372 133.524 93.3174 133.659 94.1091 134.581L93.7861 134.935C92.0934 133.868 90.1872 135.258 87.8903 135.487C85.5309 135.748 83.3486 135.05 81.3538 134.539C77.2809 133.487 73.1976 132.472 69.182 131.284L57.0882 127.8C53.1299 126.519 48.932 125.519 44.8591 123.243C40.6559 121.076 37.4528 117.029 35.4945 113.149C33.458 109.206 32.0257 105.274 30.2393 101.716C26.6768 94.7321 20.2549 88.9821 14.3538 83.0706L12.6768 81.3936L14.9788 81.5602C22.2132 82.0758 27.7705 86.7425 33.3486 90.2633C36.1559 92.0706 38.9788 93.805 41.9007 94.9925C44.8382 96.1436 48.0413 96.8727 51.3226 98.0238C54.557 99.1488 58.0257 100.847 60.6663 103.503C63.3226 106.065 65.1299 109.138 66.8122 112.071C69.9945 118.008 73.1559 123.899 75.9424 130.06L75.5309 130.3Z" fill="#89C190"/>
<path d="M158.432 151.002C168.474 149.872 178.567 148.705 187.916 145.409C192.567 143.768 196.937 141.513 200.916 138.757C204.854 135.935 208.317 132.471 211.203 128.549C216.963 120.679 220.958 111.565 223.526 101.961C226.198 92.3721 227.687 82.3721 228.968 72.3512L230.229 73.3096C213.067 79.7158 197.088 89.1898 182.786 100.528C179.208 103.336 175.781 106.346 172.333 109.341C168.922 112.377 165.552 115.409 162.859 118.815C160.104 122.205 158.276 125.935 157.979 130.06C157.562 134.2 158.562 138.57 158.937 143.409C159.125 145.82 159.104 148.382 158.599 150.945C158.057 153.507 157.26 155.674 156.375 157.914C154.588 162.341 152.474 166.502 150.437 170.549C148.422 174.638 146.562 178.69 145.375 182.867C144.187 187.127 143.192 191.586 142.489 196.034C139.776 213.851 140.927 232.398 146.651 249.856L146.198 250.028C138.609 233.19 136.026 214.023 138.25 195.45C138.797 190.778 139.588 186.221 140.703 181.586C141.948 176.898 143.885 172.549 145.864 168.346C147.823 164.148 149.953 160.117 151.593 156.007C152.422 153.997 153.156 151.83 153.609 149.893C154.041 147.95 154.114 145.877 154.005 143.716C153.797 139.398 152.797 134.653 153.364 129.606C153.833 124.502 156.375 119.679 159.541 116.086C162.724 112.393 166.343 109.414 169.906 106.476C173.505 103.544 177.234 100.789 181.021 98.1377C196.208 87.5127 212.578 78.8669 229.536 71.5804L230.927 70.9971L230.797 72.5387C229.948 82.6169 229.307 92.7835 227.125 102.841C224.901 112.841 221.057 122.846 214.5 131.075C208.13 139.398 198.896 145.711 188.854 148.33C178.869 151.247 168.562 151.622 158.463 151.492L158.432 151.002Z" fill="#89C190"/>
<path d="M151.682 158.951C152.266 153.638 151.042 148.555 149.01 143.977C146.974 139.341 143.844 135.295 140.516 131.336C137.234 127.326 133.693 123.315 129.958 119.529C126.193 115.763 122.182 112.258 118.016 108.966L119.578 108.024C121.161 114.05 122.911 120.024 124.344 126.071C125.703 132.128 127.208 138.154 128.38 144.258C129.604 150.289 130.62 156.216 133.052 161.586C135.484 166.857 139.214 171.795 144.823 174.493L144.693 174.94C138.307 173.847 132.901 169.008 129.583 163.414C126.214 157.727 124.536 151.362 123.328 145.258C122.083 139.175 121.203 133.019 120.146 126.894C119.167 120.774 118.505 114.56 117.677 108.399L117.281 105.503L119.26 107.456C123.068 111.243 127.021 114.821 131.245 118.118C135.542 121.357 139.891 124.539 143.698 128.534C147.427 132.524 150.594 137.31 152.385 142.68C154.151 147.987 154.359 154.013 152.156 159.06L151.682 158.951Z" fill="#89C190"/>
<path d="M138.38 196.825C144.166 199.31 150.307 198.294 156.416 197.523C162.536 196.711 168.525 195.409 174.541 194.055C180.551 192.758 186.63 191.211 192.343 188.726C198.046 186.2 203.307 182.752 208.109 178.82L208.661 181.174C202.234 180.549 196.036 178.857 190.01 177.258C183.994 175.674 178.02 174.393 172.145 174.284C166.301 174.148 160.411 175.409 155.041 178.049C149.63 180.648 144.755 184.508 140.833 189.424L140.416 189.174C143.036 183.325 147.614 178.31 153.192 174.768C158.77 171.284 165.421 169.117 172.161 169.138C178.911 169.138 185.26 170.987 191.286 172.903C197.333 174.81 203.098 177.091 209.093 178.591L212.218 179.367L209.64 180.945C204.213 184.299 198.635 187.258 193.02 190.138C187.39 192.997 181.697 195.903 175.609 197.935C169.51 199.872 163.14 200.93 156.755 201.247C150.593 201.534 143.301 201.456 138.119 197.237L138.38 196.825Z" fill="#89C190"/>
<path d="M204.688 107.498C202.703 112.826 198.672 117.081 194.115 120.055C191.74 121.487 189.083 122.394 186.786 123.805C184.448 125.18 182.391 126.914 180.432 128.8C176.589 132.623 172.599 135.993 168.979 139.644C165.172 143.133 161.708 146.748 158.276 151.097L157.828 150.909C158.411 145.258 161.536 140.081 165.344 136.008C169.318 132.055 173.932 128.909 178.932 126.633C181.375 125.43 183.786 124.185 185.901 122.508C188.026 120.868 189.76 118.701 191.682 116.873C195.656 113.357 199.745 110.414 204.307 107.19L204.688 107.498Z" fill="#89C190"/>
<path d="M132.656 137.122C134.937 139.289 136.234 141.356 137.047 143.789C137.349 145.049 137.328 146.575 137.932 147.763C138.495 148.971 139.552 149.836 140.703 150.606C143.094 152.054 145.13 153.903 146.786 156.351C148.213 158.836 149.104 162.362 147.599 165.242L147.125 165.257C145.448 162.716 144.015 161.153 142.489 159.195C141.172 157.164 139.604 154.997 138.646 152.263C138.104 150.929 137.536 149.664 136.63 148.606C135.75 147.56 134.37 146.747 133.469 145.617C131.844 143.263 131.245 140.268 132.182 137.237L132.656 137.122Z" fill="#89C190"/>
<path d="M183.619 183.565C179.979 185.638 176.328 186.575 172.526 186.784C170.599 186.784 168.604 186.336 166.698 186.523C164.781 186.674 162.968 187.336 161.182 188.128C157.661 189.815 154.021 190.914 150.364 191.852C146.651 192.607 143.26 192.982 139.286 193.81L139.021 193.414C141.375 189.878 145.448 188.008 149.104 186.883C152.869 185.935 156.692 185.352 160.656 185.529C162.63 185.56 164.573 185.487 166.416 184.977C168.286 184.508 170.057 183.414 171.901 182.831C175.672 181.872 179.588 181.852 183.562 183.096L183.619 183.565Z" fill="#89C190"/>
<mask id="mask1_1326_877" style="mask-type:luminance" maskUnits="userSpaceOnUse" x="0" y="128" width="148" height="124">
<path d="M0 128.622H147.776V251.289H0V128.622Z" fill="white"/>
</mask>
<g mask="url(#mask1_1326_877)">
<path d="M72.2188 219.596C69.3542 210.268 66.0521 201.138 62.1146 192.346C58.0677 183.679 53.3177 175.164 45.8594 169.627C42.125 166.877 37.9271 164.544 33.724 161.867C29.5417 159.195 25.5833 156.185 21.9115 152.882C14.4323 146.424 7.93229 139.101 1.07292 132.185L2.52604 131.377C6.17708 147.56 10.8698 163.81 19.5729 177.763C23.9271 184.695 29.0521 191.117 35.3073 196.185C41.4271 201.367 48.8906 204.737 56.3542 208.638C63.7969 212.57 70.8438 216.487 78.5833 218.882C82.4479 220.159 86.4583 221.216 90.4896 222.398C94.526 223.643 98.5156 224.981 102.453 226.45C118.266 232.252 133.219 240.273 146.729 250.086L146.464 250.497C131.958 242.268 116.755 235.58 101.078 230.445C93.224 227.862 85.2552 226.148 77.0573 223.7C68.7708 221.325 61.1771 217.034 53.9948 213.044C46.8177 209.044 39 205.32 32.4635 199.539C25.9792 193.789 20.7604 186.862 16.8073 179.367C8.78125 164.336 5.23437 147.82 0.848958 131.789L0 128.685L2.29688 130.961C9.19271 137.836 16.4844 144.299 24.1146 150.19C27.9583 153.091 31.8958 155.841 35.9271 158.367C39.9583 160.867 44.4271 163.054 48.4375 166.294C56.5208 172.81 61.6042 181.945 65.0156 191.138C68.5208 200.33 71.1198 209.82 72.6667 219.481L72.2188 219.596Z" fill="#89C190"/>
</g>
<path d="M81.39 222.966C75.4577 222.065 70.291 225.226 66.1869 229.013C62.041 232.872 57.8952 237.58 52.9212 241.101C47.9837 244.7 42.4837 247.409 36.9056 249.711C31.3118 251.992 25.6973 254.044 19.9316 255.794L19.9681 254.117C27.0723 255.924 34.291 257.315 41.3171 257.544C44.8223 257.58 48.3066 257.377 51.6035 256.508C54.9212 255.659 58.0827 254.232 61.2077 252.643C67.4473 249.351 73.2858 245.263 78.9421 240.669C84.5723 236.091 90.1504 231.383 95.4421 226.284L95.8223 226.58C91.791 232.815 86.8744 238.429 81.5566 243.622C76.3014 248.81 70.39 253.742 63.5879 257.205C56.8587 260.841 48.666 262.554 41.0514 261.685C33.3848 260.935 26.3952 258.164 19.4629 255.794L16.541 254.794L19.4993 254.117C25.2441 252.799 30.8587 250.747 35.9629 247.773C41.1087 244.867 45.7598 241.273 50.3223 237.695C52.6191 235.888 54.8639 234.06 57.0462 232.138C59.1921 230.179 61.4577 228.143 63.9056 226.242C68.6712 222.497 75.6973 219.877 81.541 222.513L81.39 222.966Z" fill="#89C190"/>
<path d="M65.0934 216.336C62.0205 213.133 60.3278 209.029 58.6663 205.206C57.0674 201.211 55.5622 197.919 53.1507 194.753C50.8695 191.513 48.0622 188.331 44.8382 185.659C41.5986 182.982 38.0205 180.721 34.5726 178.138C31.0674 175.617 27.8278 172.737 24.9841 169.497C22.0986 166.315 19.3851 162.961 17.0309 159.404C12.3747 152.206 8.66634 144.56 5.80176 136.518L6.23405 136.273C11.734 142.826 16.4476 149.773 21.2705 156.503C25.9215 163.378 30.8382 169.93 36.3226 176.185C39.1143 179.273 42.3122 182.003 45.7809 184.414C49.2497 186.826 53.0361 188.956 56.2184 192.169C59.4424 195.357 61.1976 200.003 62.1924 203.982C63.3799 208.049 64.0153 212.154 65.5049 216.07L65.0934 216.336Z" fill="#89C190"/>
<path d="M101.51 228.367C102.302 221.815 104.38 215.45 102.432 209.763C100.854 203.903 97.2341 198.518 94.5257 192.606C91.6611 186.763 88.8903 180.856 85.3122 175.409C81.7861 169.95 77.6768 164.882 73.4945 159.909L76.4684 158.664C77.7341 164.242 78.8278 169.856 79.8486 175.471C80.9007 181.08 81.9163 186.695 82.6559 192.346C83.4997 197.976 83.9893 203.679 84.6507 209.351C84.8955 212.117 85.2341 214.867 86.0257 217.481C86.7601 220.101 87.8747 222.664 89.9997 224.507L89.7341 224.924C87.0049 223.643 85.1403 220.966 83.8382 218.33C82.557 215.622 81.708 212.778 81.0309 209.914C79.9216 204.32 78.6195 198.747 77.6768 193.132C76.6455 187.523 75.8851 181.872 75.1715 176.2C74.4007 170.549 73.7028 164.882 73.1976 159.195L72.5518 152.169L76.1715 157.95C79.6611 163.507 82.9528 169.159 86.5309 174.622C90.057 180.117 94.0726 185.299 97.7288 190.757C101.307 196.169 104.791 201.987 106.187 208.914C106.937 212.284 106.635 216.127 105.604 219.289C104.64 222.513 103.281 225.492 101.984 228.502L101.51 228.367Z" fill="#89C190"/>
<path d="M94.2031 225.997C93.6354 220.326 92.5625 215.32 91.5104 210.102C91.0729 207.56 90.6823 204.622 89.8698 201.987C89.0573 199.31 87.7969 196.826 86.4219 194.357C83.5573 189.497 81.3333 184.393 79.3542 179.195C77.5833 173.919 76.151 168.518 75.625 162.753L76.0729 162.586C79.5052 167.237 81.9948 172.247 84.1615 177.388C86.1042 182.586 87.8333 187.898 88.8906 193.435C89.474 196.185 90.1875 198.898 91.3385 201.435C92.4323 204.018 94.2396 206.206 95.3698 208.992C97.3125 214.456 97.4635 220.836 94.6719 226.112L94.2031 225.997Z" fill="#89C190"/>
<path d="M198.635 359.997C193.473 348.247 185.275 338.57 176.588 329.263C168.041 319.826 159.598 310.263 149.062 303.664C138.609 296.966 126.609 292.747 114.213 290.336C101.791 287.924 88.9629 287.565 76.2806 288.378L76.8535 287.154C87.4004 301.617 100.229 314.383 114.473 324.966C121.614 330.242 129.13 334.951 137.046 338.867C144.921 342.841 153.286 345.841 161.744 348.607C170.187 351.357 178.869 353.992 187.39 356.326C195.958 358.549 204.437 359.909 213.088 358.247C217.437 357.549 221.786 356.482 226.291 355.706C230.796 354.971 235.317 354.466 239.854 354.216C248.937 353.654 258.02 354.409 266.895 355.966L266.817 356.461C257.89 355.633 248.921 355.893 240.083 356.893C231.176 357.794 222.807 360.305 213.822 362.242C204.76 364.315 194.921 363.445 186.182 361.055C177.364 358.701 168.827 356.195 160.161 353.445C142.942 347.867 126.171 339.565 112.14 327.982C97.9316 316.549 86.2129 302.576 75.6087 288.055L74.7598 286.909L76.1921 286.831C88.9629 286.133 101.812 286.076 114.645 287.659C127.416 289.258 140.249 292.992 151.364 300.07C162.536 307.211 170.994 317.305 179.156 327.039C183.202 331.977 187.291 336.987 190.833 342.393C194.281 347.857 197.166 353.69 199.088 359.831L198.635 359.997Z" fill="#89C190"/>
<path d="M109.427 414.544C118.396 408.758 127.531 403.695 136.916 398.966C141.661 396.742 146.562 394.711 151.156 392.148C155.791 389.628 159.864 386.273 164.797 383.768C169.828 381.133 175.541 380.773 180.453 379.831C185.521 378.888 190.479 377.534 195.26 375.878C204.927 372.711 213.765 367.497 221.151 359.867L221.547 360.148C216.609 369.758 207.208 376.93 197 380.716C191.869 382.638 186.484 383.674 181.135 384.315C175.672 385.029 170.583 384.669 165.797 386.216C156.041 389.549 147.708 396.799 138.833 402.492C129.734 407.914 119.937 412.227 109.63 414.992L109.427 414.544Z" fill="#89C190"/>
<mask id="mask2_1326_877" style="mask-type:luminance" maskUnits="userSpaceOnUse" x="77" y="368" width="121" height="64">
<path d="M77.1719 368.622H197.109V431.153H77.1719V368.622Z" fill="white"/>
</mask>
<g mask="url(#mask2_1326_877)">
<path d="M159.166 374.201C166.083 371.638 173.349 369.997 180.89 369.867C184.635 369.945 188.557 370.414 192.156 372.523C193.927 373.576 195.625 375.294 196.375 377.555C197.109 379.794 196.807 382.07 196.338 384.029C191.364 398.872 180.474 410.586 167.604 418.477C154.698 426.424 139.682 430.456 124.859 431.023C109.953 431.68 95.2966 429.685 80.7861 427.029L77.7549 426.482L80.6768 425.258C87.8122 422.263 91.7497 415.128 96.5413 408.727C98.9684 405.503 101.76 402.242 105.505 399.945C109.291 397.482 113.552 396.799 117.109 395.654C124.364 393.414 131.281 389.529 138.062 385.43C144.901 381.378 151.703 377.044 159.166 374.201ZM159.333 374.654C151.89 377.456 145.484 382.242 139.156 387.044C132.807 391.773 126.291 396.784 118.411 399.586C114.474 400.982 110.724 401.695 107.75 403.602C104.656 405.424 102.057 408.195 99.458 411.096C96.8955 414.013 94.4268 417.216 91.583 420.138C88.734 423.076 85.2705 425.633 81.2913 427.008L81.182 425.221C95.3695 428.706 110.198 429.852 124.609 428.102C138.963 426.294 153.041 422.133 164.968 414.299C176.896 406.69 186.838 395.518 192.364 382.919C193.432 379.81 193.093 377.023 190.416 375.049C187.838 373.091 184.297 372.128 180.771 371.737C173.635 370.997 166.192 372.185 159.333 374.654Z" fill="#89C190"/>
</g>
<path d="M195.468 358.628C186.312 351.878 178.041 344.388 169.75 336.987C165.698 333.143 161.687 329.206 157.109 325.982C152.552 322.747 147.541 320.221 142.323 318.247C131.906 314.326 121.146 310.992 110.765 306.57C100.76 302.237 89.4528 298.435 80.8643 290.768L81.1247 290.352C91.2809 295.362 101.968 297.695 112.703 301.805C122.989 306.211 133.541 310.164 143.453 315.857C148.406 318.643 153.172 321.732 157.979 324.685C162.781 327.643 167.734 330.508 172.317 333.898C181.281 340.883 189.01 349.211 195.812 358.289L195.468 358.628Z" fill="#89C190"/>
<path d="M224.276 246.867C234.187 242.929 242.651 236.221 249.224 228.143C255.739 219.992 260.807 210.648 263.729 200.664C265.146 195.695 266.234 190.685 265.989 185.617C265.765 180.534 264.729 175.429 263.239 170.403C260.151 160.325 256.062 150.419 250.656 141.284L252.031 141.325C242.078 155.711 232.661 170.945 228.213 187.731C225.989 196.091 225.068 204.606 225.75 213.211C226.255 221.815 227.745 230.518 228.161 239.523C228.401 243.987 228.234 248.69 227.479 252.987L225.578 266.112C224.542 274.606 224.406 283.273 225.484 291.82C227.594 308.919 233.864 325.591 243.87 340.054L243.495 340.356C231.984 326.961 224.088 310.164 221.323 292.424C219.812 283.57 219.568 274.476 220.583 265.507C221.411 256.773 223.635 248.185 223.13 239.69C222.943 231.101 221.656 222.362 221.323 213.419C220.885 204.45 222.203 195.263 225.031 186.763C230.797 169.685 241.14 155.127 250.677 140.398L251.37 139.31L252.068 140.435C257.604 149.627 262.599 159.195 266.385 169.346C268.271 174.435 269.812 179.799 270.078 185.429C270.38 191.044 269.515 196.695 267.781 201.909C264.354 212.304 259.078 222.174 251.656 230.237C244.323 238.299 234.901 244.679 224.427 247.336L224.276 246.867Z" fill="#89C190"/>
<path d="M224.318 279.575C225.198 275.961 227.688 273.044 230.307 270.502C232.984 267.976 236.052 265.888 239.333 264.08C245.906 260.388 253.552 259.065 260.906 258.804C268.307 258.559 275.542 259.273 282.761 260.273C289.974 261.273 297.099 262.856 304.031 265.002L307.833 266.169L304.333 267.638C297.453 270.518 290.656 273.57 284.021 276.961C277.313 280.257 271.266 284.575 264.089 287.586C256.74 290.632 248.599 290.408 241.292 289.429C237.708 288.961 233.828 288.997 230.078 288.013C228.25 287.492 226.276 286.809 225.011 285.19C223.771 283.533 223.865 281.388 224.318 279.575ZM224.787 279.695C224.406 281.445 224.375 283.44 225.542 284.773C226.745 286.039 228.537 286.586 230.328 286.757C233.922 287.112 237.542 286.513 241.406 286.341C248.886 285.981 256.005 286.002 262.787 283.836C266.234 282.893 269.646 281.502 273.094 280.07C276.542 278.658 279.99 277.205 283.344 275.586C290.052 272.367 296.604 268.804 303.089 265.096L303.37 267.731C296.328 266.507 289.281 265.549 282.214 264.836C275.167 264.195 268.026 263.856 261.037 263.908C254.047 264.002 247.188 264.836 240.573 266.919C237.255 268.033 234.037 269.539 231.136 271.518C228.271 273.533 225.729 276.268 224.787 279.695Z" fill="#89C190"/>
<path d="M224.77 253.06C222.734 248.414 219.869 244.341 216.817 240.481C213.765 236.601 210.333 233.039 206.697 229.82C203.046 226.659 199.145 223.377 195.072 220.382C191.02 217.336 186.671 214.716 182.338 212.023L183.656 211.195C184.864 217.409 186.838 223.419 188.687 229.403C190.593 235.377 192.588 241.33 195.489 246.528C198.312 251.856 202.275 255.794 207.604 259.273C212.692 262.856 218.416 266.284 222.505 271.388L222.166 271.721C217.041 267.997 211.161 265.794 205.531 262.669C202.723 261.101 199.807 259.481 197.202 257.112C194.676 254.757 192.551 251.992 190.989 248.997C187.807 243.023 186.182 236.695 184.713 230.481C183.26 224.211 182.64 217.789 181.963 211.44L181.775 209.497L183.301 210.612C187.369 213.586 191.739 216.164 196.26 218.502C200.765 220.909 205.38 223.231 209.489 226.56C213.557 229.95 216.895 234.039 219.718 238.429C222.468 242.815 224.671 247.752 225.239 252.929L224.77 253.06Z" fill="#89C190"/>
<path d="M296.494 267.018C294.005 269.185 290.656 269.971 287.771 270.617C284.797 271.258 281.781 271.763 278.729 271.857C275.672 271.898 272.567 271.555 269.515 271.742C266.479 271.93 263.505 272.612 260.531 273.404C254.609 275.19 248.489 275.742 243.177 277.451C237.692 278.94 232.244 281.445 226.255 283.31L225.989 282.893C230.385 278.471 235.468 274.685 241.63 272.534C244.739 271.503 247.958 271.159 251.031 270.935C254.125 270.674 257.135 270.69 260.224 270.763C263.276 270.82 266.333 270.747 269.328 270.201C272.323 269.654 275.239 268.602 278.218 267.888C281.198 267.227 284.229 267.018 287.276 266.904C290.39 266.773 293.234 267.076 296.271 266.586L296.494 267.018Z" fill="#89C190"/>
</svg>
